<svg width="72" height="72" viewBox="0 0 72 72" fill="none" xmlns="http://www.w3.org/2000/svg">
<path fill-rule="evenodd" clip-rule="evenodd" d="M18 17.9998C16.8284 19.1714 16.8284 21.0709 18 22.2425L33.8787 38.1212C35.0503 39.2927 36.9498 39.2927 38.1213 38.1212L54 22.2425C55.1716 21.0709 55.1716 19.1714 54 17.9998C52.8284 16.8283 50.9289 16.8283 49.7574 17.9998L38.1213 29.6359C36.9498 30.8075 35.0503 30.8074 33.8787 29.6359L22.2427 17.9998C21.0711 16.8283 19.1716 16.8283 18 17.9998ZM18 32.9998C16.8284 34.1714 16.8284 36.0709 18 37.2425L33.8787 53.1212C35.0503 54.2927 36.9498 54.2927 38.1213 53.1212L54 37.2425C55.1716 36.0709 55.1716 34.1714 54 32.9998C52.8284 31.8283 50.9289 31.8283 49.7574 32.9998L38.1213 44.6359C36.9498 45.8074 35.0503 45.8074 33.8787 44.6359L22.2427 32.9998C21.0711 31.8283 19.1716 31.8283 18 32.9998Z" fill="black"/>
</svg>
