<svg width="193" height="47" viewBox="0 0 193 47" fill="none" xmlns="http://www.w3.org/2000/svg">
<path d="M50 23.768C50 25.7072 50.9807 26.9751 53.1383 26.9751C54.4198 26.9751 55.649 26.4406 55.649 25.7818C55.649 25.471 55.3613 25.1975 54.9821 25.1975C54.7336 25.1975 54.6552 25.2845 54.459 25.3964L54.3937 25.4337C54.0406 25.6575 53.6614 25.7693 53.2037 25.7693C51.8699 25.7693 51.4384 24.9986 51.4384 23.768V21.2072C51.4384 19.9765 51.8699 19.2058 53.2037 19.2058C53.6614 19.2058 54.0406 19.3177 54.3937 19.5539L54.459 19.5912C54.6552 19.703 54.7336 19.7901 54.9821 19.7901C55.3613 19.7901 55.649 19.5166 55.649 19.1934C55.649 18.547 54.4198 18 53.1383 18C50.9807 18 50 19.268 50 21.2072V23.768ZM59.1923 24.4268C60.853 24.4268 61.5721 23.7307 61.5721 22.5622C61.5721 21.3191 60.7876 20.4986 59.2053 20.4986C57.5185 20.4986 56.6162 21.4309 56.6162 22.6492V24.8494C56.6162 26.0552 57.5315 26.9751 59.1399 26.9751C59.9114 26.9751 61.4545 26.7638 61.4545 26.018C61.4545 25.7693 61.2583 25.4586 60.8137 25.4586C60.6568 25.4586 60.5653 25.4959 60.526 25.5207C60.0945 25.7072 59.7415 25.8315 59.2576 25.8315C58.4338 25.8315 58.0285 25.471 58.0285 24.9116V24.3398C58.4469 24.4019 58.8261 24.4268 59.1923 24.4268ZM60.173 22.5249C60.173 23.047 59.9245 23.3826 59.1792 23.3826C58.983 23.3826 58.473 23.3577 58.0285 23.308V22.5746C58.0285 21.9779 58.4469 21.605 59.1792 21.605C59.8199 21.605 60.173 21.866 60.173 22.5249ZM66.3446 25.9061C66.6323 25.9061 66.8676 25.7569 67.0115 25.5331L68.3453 23.2086V26.3412C68.3453 26.6892 68.646 26.9751 69.0514 26.9751C69.4175 26.9751 69.7444 26.6892 69.7444 26.3412V21.1948C69.7444 20.8094 69.4175 20.5359 68.9991 20.5359C68.6591 20.5359 68.4499 20.6851 68.306 20.9213L66.3315 24.2403L64.357 20.9213C64.2001 20.6851 63.9908 20.5359 63.6639 20.5359C63.2324 20.5359 62.9186 20.8094 62.9186 21.1948V26.3412C62.9186 26.6892 63.2193 26.9751 63.6116 26.9751C63.9908 26.9751 64.3177 26.6892 64.3177 26.3412V23.2086L65.6515 25.5331C65.7823 25.7569 66.0308 25.9061 66.3184 25.9061H66.3446ZM73.8264 24.4268C75.4871 24.4268 76.2064 23.7307 76.2064 22.5622C76.2064 21.3191 75.4218 20.4986 73.8395 20.4986C72.1527 20.4986 71.2504 21.4309 71.2504 22.6492V24.8494C71.2504 26.0552 72.1658 26.9751 73.7741 26.9751C74.5457 26.9751 76.0887 26.7638 76.0887 26.018C76.0887 25.7693 75.8925 25.4586 75.4479 25.4586C75.291 25.4586 75.1995 25.4959 75.1602 25.5207C74.7287 25.7072 74.3757 25.8315 73.8918 25.8315C73.068 25.8315 72.6627 25.471 72.6627 24.9116V24.3398C73.0811 24.4019 73.4603 24.4268 73.8264 24.4268ZM74.8072 22.5249C74.8072 23.047 74.5587 23.3826 73.8134 23.3826C73.6172 23.3826 73.1073 23.3577 72.6627 23.308V22.5746C72.6627 21.9779 73.0811 21.605 73.8134 21.605C74.4541 21.605 74.8072 21.866 74.8072 22.5249ZM80.26 18.9323C79.8547 18.9323 79.6324 18.7086 79.4362 18.4848C79.3316 18.3729 79.2008 18.2486 78.9524 18.2486C78.6778 18.2486 78.377 18.3854 78.4816 18.8204C78.6386 19.4669 79.567 19.8895 80.2469 19.8895C80.8877 19.8895 81.8553 19.5041 82.0253 18.8204C82.1299 18.3854 81.8292 18.2486 81.5546 18.2486C81.3323 18.2486 81.2015 18.3356 81.0708 18.4848C80.8746 18.7086 80.6523 18.9323 80.26 18.9323ZM78.3247 27C78.5993 27 78.8478 26.8633 79.0047 26.6519L81.5415 22.8481V26.3412C81.5415 26.6892 81.8423 27 82.2476 27C82.6399 27 82.9538 26.6892 82.9538 26.3412V21.2072C82.9538 20.8094 82.653 20.5235 82.2084 20.5235C81.9207 20.5235 81.6461 20.6478 81.5023 20.884L78.9655 24.6878V21.1699C78.9655 20.8218 78.6386 20.5235 78.2463 20.5235C77.8409 20.5235 77.5532 20.8218 77.5532 21.1699V26.3163C77.5532 26.6892 77.8671 27 78.3247 27ZM86.1549 24.3025H86.5602L88.1555 26.4903C88.3255 26.7265 88.5086 26.9503 88.8878 26.9503C89.2409 26.9503 89.5416 26.7638 89.5547 26.4157C89.5547 26.3039 89.5155 26.1547 89.437 26.0552L87.724 23.7555L89.437 21.4682C89.5155 21.3688 89.5547 21.2072 89.5547 21.0953C89.5416 20.7721 89.2409 20.5608 88.8878 20.5608C88.5478 20.5608 88.3386 20.7845 88.1425 21.0456L86.6387 23.0843H86.1549V21.1699C86.1549 20.8218 85.8279 20.5235 85.4356 20.5235C85.0303 20.5235 84.7426 20.8218 84.7426 21.1575V26.3039C84.7426 26.6519 85.0303 26.9503 85.4356 26.9503C85.8279 26.9503 86.1549 26.6519 86.1549 26.3039V24.3025ZM93.9619 23.2831C93.5827 23.1837 93.1904 23.134 92.785 23.134C91.1505 23.134 90.3397 23.768 90.3397 25.011V25.0483C90.3397 26.2044 91.072 26.9627 92.4973 26.9627C93.2165 26.9627 93.7919 26.7638 94.2757 26.366C94.5242 26.7514 94.8641 26.9254 95.3218 26.9254C95.8187 26.9254 96.0933 26.7514 96.0933 26.4033C96.0933 26.1671 95.9756 26.0055 95.701 25.9558C95.5049 25.9185 95.3741 25.8688 95.3741 25.558V23.0345C95.3741 21.3812 94.6549 20.4986 92.8896 20.4986C91.8697 20.4986 90.8628 20.7597 90.8628 21.4185C90.8628 21.6796 91.0197 21.9655 91.3989 21.9655C91.5166 21.9655 91.6604 21.9406 91.7389 21.9033L91.9874 21.8039C92.2096 21.7168 92.4189 21.6423 92.7589 21.6423C93.5696 21.6423 93.9619 22.0028 93.9619 22.7362V23.2831ZM92.8242 24.1533C93.1511 24.1533 93.5827 24.203 93.9619 24.2901V25.4088C93.5565 25.7196 93.1642 25.8439 92.7196 25.8439C92.0004 25.8439 91.7389 25.558 91.7389 25.0608V25.0235C91.7389 24.5511 91.9089 24.1533 92.8242 24.1533ZM104.093 27C106.224 27 107.297 25.558 107.297 23.768V21.2072C107.297 19.4669 106.394 18 104.093 18C101.792 18 100.889 19.4669 100.889 21.2072V23.768C100.889 25.558 101.962 27 104.093 27ZM104.093 19.268C105.388 19.268 105.858 20.0511 105.858 21.2072V23.768C105.858 24.924 105.296 25.7196 104.093 25.7196C102.877 25.7196 102.328 24.924 102.328 23.768V21.2072C102.328 20.0511 102.798 19.268 104.093 19.268ZM110.188 26.3412V24.1906H112.568V26.3412C112.568 26.7017 112.869 26.9751 113.274 26.9751C113.666 26.9751 113.98 26.7017 113.98 26.3412V21.1575C113.98 20.8218 113.666 20.5359 113.274 20.5359C112.869 20.5359 112.568 20.8218 112.568 21.1575V23.0843H110.188V21.1575C110.188 20.8218 109.874 20.5359 109.482 20.5359C109.076 20.5359 108.776 20.8218 108.776 21.1575V26.3412C108.776 26.7017 109.076 26.9751 109.482 26.9751C109.874 26.9751 110.188 26.7017 110.188 26.3412ZM116.532 27C116.807 27 117.055 26.8633 117.212 26.6519L119.749 22.8481V26.3412C119.749 26.6892 120.05 27 120.455 27C120.847 27 121.161 26.6892 121.161 26.3412V21.2072C121.161 20.8094 120.86 20.5235 120.416 20.5235C120.128 20.5235 119.854 20.6478 119.71 20.884L117.173 24.6878V21.1699C117.173 20.8218 116.846 20.5235 116.454 20.5235C116.048 20.5235 115.761 20.8218 115.761 21.1699V26.3163C115.761 26.6892 116.074 27 116.532 27ZM126.376 25.9061C126.664 25.9061 126.899 25.7569 127.043 25.5331L128.377 23.2086V26.3412C128.377 26.6892 128.677 26.9751 129.083 26.9751C129.449 26.9751 129.776 26.6892 129.776 26.3412V21.1948C129.776 20.8094 129.449 20.5359 129.031 20.5359C128.691 20.5359 128.481 20.6851 128.337 20.9213L126.363 24.2403L124.388 20.9213C124.231 20.6851 124.022 20.5359 123.695 20.5359C123.264 20.5359 122.95 20.8094 122.95 21.1948V26.3412C122.95 26.6892 123.251 26.9751 123.643 26.9751C124.022 26.9751 124.349 26.6892 124.349 26.3412V23.2086L125.683 25.5331C125.814 25.7569 126.062 25.9061 126.35 25.9061H126.376ZM133.923 26.9751C135.649 26.9751 136.565 25.9807 136.565 24.7127V22.7486C136.565 21.4682 135.649 20.4862 133.923 20.4862C132.197 20.4862 131.282 21.4682 131.282 22.7486V24.7127C131.282 25.9807 132.197 26.9751 133.923 26.9751ZM133.923 25.7942C133.113 25.7942 132.694 25.384 132.694 24.7127V22.7362C132.694 22.0773 133.113 21.6671 133.923 21.6671C134.734 21.6671 135.152 22.0773 135.152 22.7362V24.7127C135.152 25.384 134.734 25.7942 133.923 25.7942ZM142.869 22.3508C142.869 21.3564 142.098 20.5981 140.502 20.5981H138.75C138.345 20.5981 138.044 20.8964 138.044 21.232V26.2541C138.044 26.5898 138.345 26.8757 138.75 26.8757H140.633C142.215 26.8757 143 26.1423 143 25.1229C143 24.4517 142.647 23.9793 141.81 23.6809C142.568 23.395 142.869 22.9599 142.869 22.3508ZM141.601 25.011C141.601 25.5704 141.261 25.8191 140.607 25.8191H139.456V24.1906H140.476C141.418 24.1906 141.601 24.6133 141.601 25.011ZM139.456 21.6671H140.476C141.117 21.6671 141.47 21.9157 141.47 22.4751C141.47 22.8356 141.313 23.2086 140.502 23.2086H139.456V21.6671Z" fill="white"/>
<path d="M71 23.9798L42.3513 4L32 18.0202L60.6487 38L71 23.9798Z" fill="#3DFF7F"/>
<path d="M97 20.4557L60.5911 39L60 2L97 20.4557Z" fill="#FFB240"/>
<path d="M113.821 28.8645C122.886 31.0548 130.986 29.9809 131.913 26.4659C132.84 22.9509 126.243 18.3258 117.178 16.1355C108.114 13.9452 100.014 15.0191 99.0869 18.5341C98.1596 22.0491 104.757 26.6742 113.821 28.8645Z" fill="#4053FF"/>
<path d="M135.508 32L160 24.767L156.491 13L132 20.233L135.508 32Z" fill="#F1DC68"/>
<path d="M96.0002 7C97.1045 7 98 6.10458 98 4.99999C98 3.89543 97.1045 3 96.0002 3C94.8955 3 94 3.89543 94 4.99999C94 6.10458 94.8955 7 96.0002 7Z" fill="#FFB240"/>
<path d="M101 11C102.105 11 103 10.1046 103 8.99998C103 7.89543 102.105 7 101 7C99.8955 7 99 7.89543 99 8.99998C99 10.1046 99.8955 11 101 11Z" fill="#FFB240"/>
<path d="M130.5 29C136.851 29 142 24.0751 142 18C142 11.9249 136.851 7 130.5 7C124.149 7 119 11.9249 119 18C119 24.0751 124.149 29 130.5 29Z" fill="#FF498B"/>
<path d="M85 29C86.6567 29 88 27.6568 88 26C88 24.3431 86.6567 23 85 23C83.3429 23 82 24.3431 82 26C82 27.6568 83.3429 29 85 29Z" fill="#88BFEB"/>
<path d="M108.814 9L105.662 21.3694L113 31.8141L100.631 28.6619L90.1861 36L93.3378 23.6306L86 13.186L98.369 16.3381L108.814 9Z" fill="#E440FF"/>
<path d="M1 21.1768C1 25.2707 3.01418 27.9475 7.44538 27.9475C10.0772 27.9475 12.6017 26.8191 12.6017 25.4282C12.6017 24.7721 12.0108 24.1948 11.232 24.1948C10.7217 24.1948 10.5606 24.3785 10.1578 24.6147L10.0235 24.6934C9.29842 25.1657 8.5196 25.4019 7.57964 25.4019C4.84037 25.4019 3.95413 23.7749 3.95413 21.1768V15.7707C3.95413 13.1726 4.84037 11.5456 7.57964 11.5456C8.5196 11.5456 9.29842 11.7818 10.0235 12.2804L10.1578 12.3591C10.5606 12.5953 10.7217 12.779 11.232 12.779C12.0108 12.779 12.6017 12.2016 12.6017 11.5193C12.6017 10.1547 10.0772 9 7.44538 9C3.01418 9 1 11.6768 1 15.7707V21.1768ZM19.8789 22.5677C23.2896 22.5677 24.7667 21.0981 24.7667 18.6312C24.7667 16.0069 23.1553 14.2749 19.9058 14.2749C16.4414 14.2749 14.5883 16.2431 14.5883 18.8149V23.4599C14.5883 26.0055 16.4682 27.9475 19.7715 27.9475C21.356 27.9475 24.525 27.5014 24.525 25.9268C24.525 25.4019 24.1221 24.7458 23.209 24.7458C22.8868 24.7458 22.6988 24.8246 22.6182 24.8771C21.732 25.2707 21.0068 25.5332 20.0132 25.5332C18.3213 25.5332 17.4888 24.7721 17.4888 23.5912V22.384C18.3482 22.5152 19.127 22.5677 19.8789 22.5677ZM21.8931 18.5525C21.8931 19.6547 21.3828 20.3633 19.852 20.3633C19.4492 20.3633 18.4019 20.3108 17.4888 20.2058V18.6575C17.4888 17.3978 18.3482 16.6105 19.852 16.6105C21.168 16.6105 21.8931 17.1616 21.8931 18.5525ZM34.5685 25.6906C35.1594 25.6906 35.6428 25.3757 35.9382 24.9033L38.6775 19.9958V26.6091C38.6775 27.3439 39.2951 27.9475 40.1277 27.9475C40.8797 27.9475 41.551 27.3439 41.551 26.6091V15.7445C41.551 14.9309 40.8797 14.3536 40.0203 14.3536C39.322 14.3536 38.8923 14.6685 38.5969 15.1671L34.5417 22.1741L30.4865 15.1671C30.1642 14.6685 29.7345 14.3536 29.0632 14.3536C28.1769 14.3536 27.5324 14.9309 27.5324 15.7445V26.6091C27.5324 27.3439 28.15 27.9475 28.9557 27.9475C29.7345 27.9475 30.4059 27.3439 30.4059 26.6091V19.9958L33.1452 24.9033C33.4138 25.3757 33.924 25.6906 34.5148 25.6906H34.5685ZM49.9341 22.5677C53.3448 22.5677 54.8219 21.0981 54.8219 18.6312C54.8219 16.0069 53.2108 14.2749 49.9612 14.2749C46.4969 14.2749 44.6436 16.2431 44.6436 18.8149V23.4599C44.6436 26.0055 46.5235 27.9475 49.8268 27.9475C51.4112 27.9475 54.58 27.5014 54.58 25.9268C54.58 25.4019 54.1776 24.7458 53.2645 24.7458C52.9419 24.7458 52.7542 24.8246 52.6735 24.8771C51.7874 25.2707 51.062 25.5332 50.0686 25.5332C48.3768 25.5332 47.544 24.7721 47.544 23.5912V22.384C48.4034 22.5152 49.1821 22.5677 49.9341 22.5677ZM51.9485 18.5525C51.9485 19.6547 51.4383 20.3633 49.9075 20.3633C49.5046 20.3633 48.4571 20.3108 47.544 20.2058V18.6575C47.544 17.3978 48.4034 16.6105 49.9075 16.6105C51.2235 16.6105 51.9485 17.1616 51.9485 18.5525ZM63.1469 10.9682C62.3145 10.9682 61.8579 10.4958 61.4551 10.0235C61.2403 9.78728 60.9714 9.52485 60.4612 9.52485C59.8973 9.52485 59.2796 9.81352 59.4944 10.732C59.817 12.0967 61.7235 12.989 63.1202 12.989C64.4358 12.989 66.4231 12.1754 66.7723 10.732C66.987 9.81352 66.3694 9.52485 65.8055 9.52485C65.3489 9.52485 65.0805 9.70856 64.812 10.0235C64.4092 10.4958 63.9526 10.9682 63.1469 10.9682ZM59.1723 28C59.7362 28 60.2464 27.7113 60.5686 27.2652L65.7788 19.2348V26.6091C65.7788 27.3439 66.3965 28 67.2288 28C68.0346 28 68.6793 27.3439 68.6793 26.6091V15.7707C68.6793 14.9309 68.0616 14.3273 67.1485 14.3273C66.5575 14.3273 65.9936 14.5898 65.6981 15.0884L60.4883 23.1188V15.692C60.4883 14.9572 59.817 14.3273 59.0112 14.3273C58.1784 14.3273 57.5878 14.9572 57.5878 15.692V26.5566C57.5878 27.3439 58.2321 28 59.1723 28ZM75.2535 22.3052H76.0859L79.3626 26.9241C79.7118 27.4227 80.0876 27.895 80.8663 27.895C81.5917 27.895 82.2093 27.5014 82.2359 26.7666C82.2359 26.5304 82.1556 26.2155 81.9941 26.0055L78.4761 21.1505L81.9941 16.3218C82.1556 16.1119 82.2359 15.7707 82.2359 15.5345C82.2093 14.8522 81.5917 14.4061 80.8663 14.4061C80.1683 14.4061 79.7384 14.8785 79.3355 15.4296L76.247 19.7334H75.2535V15.692C75.2535 14.9572 74.5822 14.3273 73.7765 14.3273C72.9441 14.3273 72.3531 14.9572 72.3531 15.6657V26.5304C72.3531 27.2652 72.9441 27.895 73.7765 27.895C74.5822 27.895 75.2535 27.2652 75.2535 26.5304V22.3052ZM91.2872 20.1533C90.5086 19.9434 89.7028 19.8384 88.8709 19.8384C85.5139 19.8384 83.8487 21.1768 83.8487 23.8011V23.8799C83.8487 26.3204 85.3528 27.9213 88.2799 27.9213C89.7565 27.9213 90.9385 27.5014 91.9319 26.6616C92.4422 27.4751 93.1405 27.8426 94.0803 27.8426C95.1008 27.8426 95.6651 27.4751 95.6651 26.7403C95.6651 26.2417 95.4233 25.9005 94.8594 25.7956C94.4565 25.7169 94.1881 25.6119 94.1881 24.9558V19.6285C94.1881 16.1381 92.7106 14.2749 89.0856 14.2749C86.991 14.2749 84.9229 14.8259 84.9229 16.2168C84.9229 16.768 85.2455 17.3715 86.0241 17.3715C86.266 17.3715 86.561 17.3191 86.7225 17.2403L87.2328 17.0304C87.6893 16.8467 88.1188 16.6892 88.8172 16.6892C90.4819 16.6892 91.2872 17.4503 91.2872 18.9986V20.1533ZM88.9512 21.9903C89.6225 21.9903 90.5086 22.0953 91.2872 22.279V24.6409C90.4549 25.297 89.6491 25.5594 88.7364 25.5594C87.2594 25.5594 86.7225 24.9558 86.7225 23.9061V23.8274C86.7225 22.8301 87.0713 21.9903 88.9512 21.9903ZM112.094 28C116.472 28 118.674 24.9558 118.674 21.1768V15.7707C118.674 12.0967 116.821 9 112.094 9C107.368 9 105.515 12.0967 105.515 15.7707V21.1768C105.515 24.9558 107.717 28 112.094 28ZM112.094 11.6768C114.753 11.6768 115.72 13.3301 115.72 15.7707V21.1768C115.72 23.6174 114.565 25.297 112.094 25.297C109.597 25.297 108.469 23.6174 108.469 21.1768V15.7707C108.469 13.3301 109.436 11.6768 112.094 11.6768ZM124.612 26.6091V22.0691H129.499V26.6091C129.499 27.3702 130.117 27.9475 130.95 27.9475C131.756 27.9475 132.4 27.3702 132.4 26.6091V15.6657C132.4 14.9572 131.756 14.3536 130.95 14.3536C130.117 14.3536 129.499 14.9572 129.499 15.6657V19.7334H124.612V15.6657C124.612 14.9572 123.967 14.3536 123.162 14.3536C122.329 14.3536 121.711 14.9572 121.711 15.6657V26.6091C121.711 27.3702 122.329 27.9475 123.162 27.9475C123.967 27.9475 124.612 27.3702 124.612 26.6091ZM137.641 28C138.205 28 138.716 27.7113 139.038 27.2652L144.248 19.2348V26.6091C144.248 27.3439 144.865 28 145.698 28C146.504 28 147.148 27.3439 147.148 26.6091V15.7707C147.148 14.9309 146.53 14.3273 145.617 14.3273C145.027 14.3273 144.463 14.5898 144.167 15.0884L138.957 23.1188V15.692C138.957 14.9572 138.286 14.3273 137.48 14.3273C136.648 14.3273 136.057 14.9572 136.057 15.692V26.5566C136.057 27.3439 136.701 28 137.641 28ZM157.858 25.6906C158.449 25.6906 158.933 25.3757 159.228 24.9033L161.967 19.9958V26.6091C161.967 27.3439 162.585 27.9475 163.417 27.9475C164.17 27.9475 164.841 27.3439 164.841 26.6091V15.7445C164.841 14.9309 164.17 14.3536 163.31 14.3536C162.612 14.3536 162.182 14.6685 161.887 15.1671L157.831 22.1741L153.776 15.1671C153.454 14.6685 153.024 14.3536 152.353 14.3536C151.467 14.3536 150.822 14.9309 150.822 15.7445V26.6091C150.822 27.3439 151.44 27.9475 152.245 27.9475C153.024 27.9475 153.696 27.3439 153.696 26.6091V19.9958L156.435 24.9033C156.704 25.3757 157.214 25.6906 157.805 25.6906H157.858ZM173.358 27.9475C176.903 27.9475 178.783 25.8481 178.783 23.1713V19.0249C178.783 16.3218 176.903 14.2486 173.358 14.2486C169.814 14.2486 167.934 16.3218 167.934 19.0249V23.1713C167.934 25.8481 169.814 27.9475 173.358 27.9475ZM173.358 25.4544C171.694 25.4544 170.834 24.5884 170.834 23.1713V18.9986C170.834 17.6077 171.694 16.7417 173.358 16.7417C175.023 16.7417 175.883 17.6077 175.883 18.9986V23.1713C175.883 24.5884 175.023 25.4544 173.358 25.4544ZM191.732 18.1851C191.732 16.0856 190.147 14.4848 186.87 14.4848H183.272C182.439 14.4848 181.822 15.1147 181.822 15.8232V26.4254C181.822 27.134 182.439 27.7376 183.272 27.7376H187.139C190.389 27.7376 192 26.1893 192 24.0373C192 22.6202 191.275 21.6229 189.556 20.9931C191.114 20.3895 191.732 19.471 191.732 18.1851ZM189.126 23.8011C189.126 24.982 188.428 25.5069 187.085 25.5069H184.722V22.0691H186.817C188.75 22.0691 189.126 22.9613 189.126 23.8011ZM184.722 16.7417H186.817C188.133 16.7417 188.858 17.2666 188.858 18.4475C188.858 19.2086 188.536 19.9958 186.87 19.9958H184.722V16.7417Z" fill="#171717"/>
</svg>
