<svg width="32" height="32" viewBox="0 0 32 32" fill="none" xmlns="http://www.w3.org/2000/svg">
<g clip-path="url(#clip0_288_13)">
<path d="M32 0H0V32H32V0Z" fill="white"/>
<path d="M12.2995 33.1608C10.0412 33.6822 7.65885 33.6978 5.15245 33.2074C4.34303 33.0602 3.42115 32.745 2.38683 32.2622C0.126776 31.2206 -1.40112 29.7626 -2.19685 27.8882C-2.31235 27.621 -2.44879 27.3786 -2.60621 27.161C-3.20053 26.443 -3.79223 25.016 -4.38131 22.8802C-4.45579 22.6168 -4.52393 22.352 -4.58573 22.0856C-5.21253 19.3839 -5.12701 16.8719 -4.32913 14.5495C-3.53421 12.2145 -1.73504 10.0887 1.06836 8.17193C2.18131 7.38045 3.22623 6.87195 4.20313 6.64641L4.85901 6.53507C5.45531 6.39741 5.97537 6.19049 6.41923 5.91429C6.73437 5.77471 7.05055 5.66831 7.36773 5.59509C7.68489 5.52185 8.14605 5.43545 8.75117 5.33583C9.35335 5.22353 9.99947 5.12781 10.6895 5.04867C11.3767 4.95685 11.8779 4.92799 12.1933 4.96211C12.4261 5.38943 12.6365 5.92215 12.8247 6.56023C12.8806 6.80123 12.9772 7.24663 13.1146 7.89645C13.2491 8.53357 13.1902 9.11511 12.938 9.64107C12.8648 9.67133 12.7711 9.69963 12.6569 9.72599C12.3778 9.79043 11.9537 9.83489 11.3846 9.85937C10.0444 9.90153 8.82869 10.0485 7.73759 10.3004C6.90025 10.4938 6.06401 10.8071 5.22889 11.2404L5.16159 11.2961C4.34595 11.6982 3.58603 12.1676 2.88183 12.7044C1.98253 13.3797 1.42619 14.3233 1.21279 15.5352C1.11298 16.1997 1.0002 16.6065 0.874442 16.7559L0.95831 17.1173C1.07602 17.6247 1.18068 18.2487 1.2723 18.9892C1.34717 19.6 1.42976 20.1288 1.52007 20.5756C1.88367 21.8548 2.39987 22.985 3.06869 23.9666C3.31123 24.3782 3.53035 24.7754 3.72601 25.1578C4.14893 25.3676 4.51963 25.5826 4.83813 25.8032C5.16929 26.0206 5.50239 26.2176 5.83741 26.3942C6.16951 26.5582 6.58305 26.6698 7.07803 26.7292C7.87569 26.8256 9.21879 26.7094 11.1073 26.3802C11.4021 26.3256 11.6666 26.2846 11.9008 26.2572C12.7685 26.137 13.4922 26.0302 14.072 25.9364C14.8167 25.8046 15.3691 25.7372 15.7293 25.7342C16.0866 25.7184 16.338 25.794 16.4837 25.961C16.6264 26.115 16.759 26.3984 16.8814 26.8112C17.0422 27.3888 17.2357 27.9922 17.4619 28.6216C17.6548 29.165 17.8179 29.6952 17.9512 30.2124C17.9718 30.3012 17.991 30.3836 18.0086 30.4598C18.0616 30.688 18.0745 30.8588 18.0473 30.972C17.8719 31.253 17.5949 31.4706 17.2163 31.6248C16.8348 31.7664 16.441 31.884 16.035 31.9778C15.6417 32.0686 15.2909 32.1696 14.9825 32.2808C14.1073 32.6566 13.213 32.95 12.2995 33.1608Z" fill="#4053FF"/>
<path d="M28.1274 24.9567C31.223 24.2419 32.6682 22.4049 32.4628 19.4456C32.4164 19.0153 32.3774 18.5299 32.3456 17.9893C32.2422 16.4496 32.1186 15.369 31.9744 14.7475C31.1122 11.0311 29.107 7.91938 25.959 5.41224C25.7188 5.41422 25.506 5.38986 25.3204 5.33916C25.0344 5.2582 24.7454 5.25142 24.4536 5.31878C24.2252 5.37152 23.9354 5.50522 23.5842 5.71994C22.559 6.3709 21.9108 6.8613 21.6398 7.19112C20.9772 8.25282 20.5996 9.73646 20.507 11.642C20.4146 13.5476 20.508 15.1029 20.7876 16.3079L21.301 18.4344C21.5658 19.576 21.7794 20.6693 21.9416 21.7143C22.0764 21.7767 22.422 22.1713 22.9782 22.8981C23.6294 23.8035 24.142 24.4001 24.5162 24.6879C25.1474 25.1035 26.126 25.2315 27.4526 25.0723C27.6868 25.0449 27.9118 25.0063 28.1274 24.9567ZM27.454 30.2637C24.8912 30.8553 22.7234 30.3269 20.9508 28.6781C20.3634 28.1055 19.6644 27.1377 18.8536 25.7747C18.0429 24.4117 17.357 23.0399 16.7961 21.6593C16.5661 21.0711 16.3981 20.5485 16.2921 20.0919C16.1509 19.4831 16.1259 19.0011 16.2173 18.6459C16.1262 18.4264 16.0454 18.1644 15.9748 17.86C15.8188 17.1878 15.702 16.1657 15.6243 14.7939C15.5466 13.422 15.5923 11.9482 15.7614 10.3724C15.9432 8.79362 16.2724 7.7354 16.7492 7.19772C16.8379 6.25516 17.5196 5.18908 18.7941 3.99948C20.0658 2.7972 21.364 1.9696 22.6892 1.51667L23.7182 1.19892C24.09 1.073 24.4154 0.977814 24.6946 0.913376C24.964 0.86455 25.2706 0.860602 25.6142 0.90153C26.4402 1.00483 27.321 1.22912 28.2564 1.57439C29.531 2.05522 30.2894 2.5015 30.532 2.91322C31.1122 3.16682 31.6736 3.68534 32.2162 4.46876C32.7686 5.23656 33.2488 5.98098 33.6566 6.70196C34.0616 7.41028 34.3372 7.82102 34.4838 7.93418C34.7482 8.5547 35.03 9.16449 35.3294 9.76355C35.978 11.0036 36.4704 12.3198 36.8068 13.7121C36.8286 13.9209 36.842 14.1516 36.8472 14.4043C36.8494 14.6444 36.8554 14.8434 36.8654 15.0015C36.9242 15.2551 36.9858 15.4347 37.0504 15.54C37.1248 15.6298 37.2026 15.7922 37.2838 16.0274C37.3858 16.525 37.404 17.0353 37.3382 17.5583C37.3142 17.8578 37.3014 18.1481 37.2996 18.4291C37.351 19.8605 37.1136 21.3719 36.5872 22.9635C36.0736 24.5519 35.2624 25.8083 34.1534 26.7325C33.3316 27.6839 32.1138 28.5131 30.5 29.2197C29.4208 29.6959 28.4054 30.0439 27.454 30.2637Z" fill="#FF498B"/>
</g>
<defs>
<clipPath id="clip0_288_13">
<rect width="32" height="32" fill="white"/>
</clipPath>
</defs>
</svg>
