<svg width="193" height="47" fill="none" xmlns="http://www.w3.org/2000/svg"><path d="M50 23.768c0 1.94.98 3.207 3.138 3.207 1.282 0 2.511-.534 2.511-1.193 0-.311-.288-.584-.667-.584-.248 0-.327.087-.523.198l-.065.038a2.135 2.135 0 0 1-1.19.335c-1.334 0-1.766-.77-1.766-2.001v-2.56c0-1.231.432-2.002 1.766-2.002.457 0 .837.112 1.19.348l.065.037c.196.112.275.2.523.2.38 0 .667-.274.667-.598 0-.646-1.23-1.193-2.51-1.193C50.98 18 50 19.268 50 21.207v2.561Zm9.192.659c1.661 0 2.38-.696 2.38-1.865 0-1.243-.784-2.063-2.367-2.063-1.686 0-2.589.932-2.589 2.15v2.2c0 1.206.916 2.126 2.524 2.126.771 0 2.315-.211 2.315-.957 0-.249-.197-.56-.641-.56a.553.553 0 0 0-.288.063c-.432.186-.785.31-1.268.31-.824 0-1.23-.36-1.23-.92v-.571c.419.062.798.087 1.164.087Zm.981-1.902c0 .522-.248.858-.994.858-.196 0-.706-.025-1.15-.075v-.733c0-.597.418-.97 1.15-.97.64 0 .994.261.994.92Zm6.172 3.381c.287 0 .523-.15.666-.373l1.334-2.324v3.132c0 .348.301.634.706.634.367 0 .693-.286.693-.634v-5.146c0-.386-.326-.66-.745-.66a.75.75 0 0 0-.693.386l-1.974 3.32-1.975-3.32c-.157-.236-.366-.385-.693-.385-.432 0-.745.273-.745.659v5.146c0 .348.3.634.693.634.379 0 .706-.286.706-.634V23.21l1.334 2.324c.13.224.379.373.666.373h.027Zm7.481-1.48c1.661 0 2.38-.695 2.38-1.864 0-1.243-.784-2.063-2.367-2.063-1.686 0-2.589.932-2.589 2.15v2.2c0 1.206.916 2.126 2.524 2.126.772 0 2.315-.211 2.315-.957 0-.249-.197-.56-.641-.56a.553.553 0 0 0-.288.063c-.431.186-.784.31-1.268.31-.824 0-1.23-.36-1.23-.92v-.571c.42.062.798.087 1.164.087Zm.981-1.901c0 .522-.248.858-.994.858-.196 0-.706-.025-1.15-.075v-.733c0-.597.418-.97 1.15-.97.641 0 .994.261.994.92Zm5.453-3.593c-.405 0-.628-.223-.824-.447-.104-.112-.235-.236-.484-.236-.274 0-.575.136-.47.571.157.647 1.085 1.07 1.765 1.07.64 0 1.608-.386 1.778-1.07.105-.435-.196-.571-.47-.571-.223 0-.354.087-.484.236-.196.224-.419.447-.811.447ZM78.325 27a.85.85 0 0 0 .68-.348l2.537-3.804v3.493c0 .348.3.659.706.659.392 0 .706-.31.706-.659v-5.134c0-.398-.301-.684-.746-.684-.287 0-.562.125-.706.361l-2.536 3.804V21.17c0-.348-.327-.647-.72-.647-.405 0-.693.299-.693.647v5.146c0 .373.314.684.772.684Zm7.83-2.698h.405l1.596 2.188c.17.237.353.46.732.46.353 0 .654-.186.667-.534a.625.625 0 0 0-.118-.36l-1.713-2.3 1.713-2.288a.663.663 0 0 0 .118-.373c-.013-.323-.314-.534-.667-.534-.34 0-.55.224-.746.485l-1.503 2.038h-.484V21.17c0-.348-.327-.647-.72-.647-.405 0-.692.299-.692.634v5.147c0 .348.287.646.693.646.392 0 .719-.298.719-.646v-2.002Zm7.807-1.019c-.38-.1-.772-.149-1.177-.149-1.635 0-2.445.634-2.445 1.877v.037c0 1.156.732 1.915 2.157 1.915.72 0 1.295-.2 1.779-.597.248.385.588.56 1.046.56.497 0 .771-.175.771-.523 0-.236-.117-.397-.392-.447-.196-.037-.327-.087-.327-.398v-2.523c0-1.654-.72-2.536-2.484-2.536-1.02 0-2.027.26-2.027.92 0 .26.157.546.536.546a.914.914 0 0 0 .34-.062l.248-.1c.223-.086.432-.16.772-.16.81 0 1.203.36 1.203 1.093v.547Zm-1.138.87c.327 0 .759.05 1.138.137v1.119c-.406.31-.798.435-1.242.435-.72 0-.981-.286-.981-.783v-.038c0-.472.17-.87 1.085-.87ZM104.093 27c2.131 0 3.204-1.442 3.204-3.232v-2.56c0-1.741-.903-3.208-3.204-3.208s-3.204 1.467-3.204 3.207v2.561c0 1.79 1.073 3.232 3.204 3.232Zm0-7.732c1.295 0 1.765.783 1.765 1.94v2.56c0 1.156-.562 1.952-1.765 1.952-1.216 0-1.765-.796-1.765-1.952v-2.56c0-1.157.47-1.94 1.765-1.94Zm6.095 7.073v-2.15h2.38v2.15c0 .36.301.634.706.634.392 0 .706-.273.706-.634v-5.184c0-.335-.314-.621-.706-.621-.405 0-.706.286-.706.621v1.927h-2.38v-1.927c0-.335-.314-.621-.706-.621-.406 0-.706.286-.706.621v5.184c0 .36.3.634.706.634.392 0 .706-.273.706-.634Zm6.344.659a.85.85 0 0 0 .68-.348l2.537-3.804v3.493c0 .348.301.659.706.659.392 0 .706-.31.706-.659v-5.134c0-.398-.301-.684-.745-.684-.288 0-.562.125-.706.361l-2.537 3.804V21.17c0-.348-.327-.647-.719-.647-.406 0-.693.299-.693.647v5.146c0 .373.313.684.771.684Zm9.844-1.094c.288 0 .523-.15.667-.373l1.334-2.324v3.132c0 .348.3.634.706.634.366 0 .693-.286.693-.634v-5.146c0-.386-.327-.66-.745-.66-.34 0-.55.15-.694.386l-1.974 3.32-1.975-3.32c-.157-.236-.366-.385-.693-.385-.431 0-.745.273-.745.659v5.146c0 .348.301.634.693.634.379 0 .706-.286.706-.634V23.21l1.334 2.324a.766.766 0 0 0 .667.373h.026Zm7.547 1.07c1.726 0 2.642-.995 2.642-2.263v-1.964c0-1.28-.916-2.263-2.642-2.263s-2.641.982-2.641 2.263v1.964c0 1.268.915 2.262 2.641 2.262Zm0-1.182c-.81 0-1.229-.41-1.229-1.081v-1.977c0-.659.419-1.069 1.229-1.069.811 0 1.229.41 1.229 1.07v1.976c0 .671-.418 1.081-1.229 1.081Zm8.946-3.443c0-.995-.771-1.753-2.367-1.753h-1.752c-.405 0-.706.298-.706.634v5.022c0 .336.301.622.706.622h1.883c1.582 0 2.367-.734 2.367-1.753 0-.671-.353-1.144-1.19-1.442.758-.286 1.059-.721 1.059-1.33Zm-1.268 2.66c0 .56-.34.808-.994.808h-1.151v-1.628h1.02c.942 0 1.125.422 1.125.82Zm-2.145-3.344h1.02c.641 0 .994.249.994.808 0 .36-.157.734-.968.734h-1.046v-1.542Z" fill="#fff"/><path d="M71 23.98 42.351 4 32 18.02 60.649 38 71 23.98Z" fill="#3DFF7F"/><path d="M97 20.456 60.591 39 60 2l37 18.456Z" fill="#FFB240"/><path d="M113.821 28.864c9.065 2.19 17.165 1.117 18.092-2.398.927-3.515-5.67-8.14-14.735-10.33-9.064-2.19-17.164-1.117-18.091 2.398-.927 3.515 5.67 8.14 14.734 10.33Z" fill="#4053FF"/><path d="M135.508 32 160 24.767 156.491 13 132 20.233 135.508 32Z" fill="#F1DC68"/><path d="M96 7a2 2 0 1 0 0-4 2 2 0 0 0 0 4ZM101 11a2 2 0 1 0 0-4 2 2 0 0 0 0 4Z" fill="#FFB240"/><path d="M130.5 29c6.351 0 11.5-4.925 11.5-11s-5.149-11-11.5-11S119 11.925 119 18s5.149 11 11.5 11Z" fill="#FF498B"/><path d="M85 29a3 3 0 1 0 0-6 3 3 0 0 0 0 6Z" fill="#88BFEB"/><path d="m108.814 9-3.152 12.37L113 31.813l-12.369-3.152L90.186 36l3.152-12.37L86 13.187l12.369 3.152L108.814 9Z" fill="#E440FF"/><path d="M1 21.177c0 4.094 2.014 6.77 6.445 6.77 2.632 0 5.157-1.128 5.157-2.519 0-.656-.591-1.233-1.37-1.233-.51 0-.671.183-1.074.42l-.134.078c-.726.473-1.504.709-2.444.709-2.74 0-3.626-1.627-3.626-4.225V15.77c0-2.598.886-4.225 3.626-4.225.94 0 1.718.236 2.444.734l.134.08c.403.235.564.419 1.074.419.779 0 1.37-.577 1.37-1.26C12.602 10.155 10.077 9 7.445 9 3.015 9 1 11.677 1 15.77v5.407Zm18.879 1.39c3.41 0 4.888-1.469 4.888-3.936 0-2.624-1.612-4.356-4.861-4.356-3.465 0-5.318 1.968-5.318 4.54v4.645c0 2.546 1.88 4.488 5.184 4.488 1.584 0 4.753-.447 4.753-2.021 0-.525-.403-1.181-1.316-1.181-.322 0-.51.079-.59.131-.887.394-1.612.656-2.606.656-1.692 0-2.524-.76-2.524-1.942v-1.207c.86.131 1.638.184 2.39.184Zm2.014-4.015c0 1.103-.51 1.811-2.041 1.811-.403 0-1.45-.052-2.363-.157v-1.549c0-1.26.86-2.047 2.363-2.047 1.316 0 2.041.552 2.041 1.942Zm12.675 7.139c.591 0 1.075-.315 1.37-.788l2.74-4.907v6.613c0 .735.617 1.338 1.45 1.338.752 0 1.423-.603 1.423-1.338V15.744c0-.813-.671-1.39-1.53-1.39-.699 0-1.129.315-1.424.813l-4.055 7.007-4.056-7.007c-.322-.498-.752-.813-1.423-.813-.886 0-1.53.577-1.53 1.39V26.61c0 .735.617 1.338 1.423 1.338.779 0 1.45-.603 1.45-1.338v-6.613l2.74 4.907c.268.473.778.788 1.369.788h.053Zm15.366-3.123c3.41 0 4.888-1.47 4.888-3.937 0-2.624-1.611-4.356-4.86-4.356-3.465 0-5.318 1.968-5.318 4.54v4.645c0 2.546 1.88 4.488 5.183 4.488 1.584 0 4.753-.447 4.753-2.021 0-.525-.402-1.181-1.316-1.181-.322 0-.51.079-.59.131-.887.394-1.612.656-2.605.656-1.692 0-2.525-.76-2.525-1.942v-1.207c.86.131 1.638.184 2.39.184Zm2.015-4.016c0 1.103-.51 1.811-2.041 1.811-.403 0-1.45-.052-2.364-.157v-1.549c0-1.26.86-2.047 2.364-2.047 1.316 0 2.04.552 2.04 1.942Zm11.198-7.584c-.832 0-1.29-.472-1.692-.944-.215-.237-.484-.5-.994-.5-.564 0-1.181.29-.967 1.208.323 1.365 2.23 2.257 3.626 2.257 1.316 0 3.303-.814 3.652-2.257.215-.918-.403-1.207-.967-1.207-.456 0-.725.184-.993.498-.403.473-.86.945-1.665.945ZM59.172 28a1.73 1.73 0 0 0 1.397-.735l5.21-8.03v7.374c0 .735.618 1.391 1.45 1.391.806 0 1.45-.656 1.45-1.39V15.77c0-.84-.617-1.443-1.53-1.443-.591 0-1.155.263-1.45.761l-5.21 8.03v-7.426c0-.735-.672-1.365-1.478-1.365-.833 0-1.423.63-1.423 1.365v10.865c0 .787.644 1.443 1.584 1.443Zm16.082-5.695h.832l3.277 4.62c.349.498.725.97 1.503.97.726 0 1.343-.394 1.37-1.128 0-.237-.08-.552-.242-.761l-3.518-4.855 3.518-4.83c.162-.21.242-.55.242-.787-.027-.682-.644-1.128-1.37-1.128-.698 0-1.128.473-1.53 1.024l-3.089 4.303h-.993v-4.041c0-.735-.672-1.365-1.478-1.365-.832 0-1.423.63-1.423 1.339V26.53c0 .735.591 1.365 1.424 1.365.805 0 1.477-.63 1.477-1.365v-4.225Zm16.033-2.152a9.244 9.244 0 0 0-2.416-.315c-3.357 0-5.022 1.339-5.022 3.963v.079c0 2.44 1.504 4.041 4.43 4.041 1.478 0 2.66-.42 3.653-1.26.51.814 1.209 1.182 2.148 1.182 1.02 0 1.585-.368 1.585-1.103 0-.498-.242-.84-.806-.944-.402-.08-.67-.184-.67-.84v-5.328c0-3.49-1.478-5.353-5.103-5.353-2.095 0-4.163.55-4.163 1.942 0 .551.323 1.155 1.101 1.155.242 0 .537-.053.698-.132l.51-.21c.457-.183.887-.34 1.585-.34 1.665 0 2.47.76 2.47 2.309v1.154Zm-2.336 1.837c.672 0 1.558.105 2.336.289v2.362c-.832.656-1.638.918-2.55.918-1.478 0-2.014-.603-2.014-1.653v-.079c0-.997.348-1.837 2.228-1.837ZM112.094 28c4.378 0 6.58-3.044 6.58-6.823V15.77c0-3.674-1.853-6.771-6.58-6.771-4.726 0-6.579 3.097-6.579 6.77v5.407c0 3.779 2.202 6.823 6.579 6.823Zm0-16.323c2.659 0 3.626 1.653 3.626 4.094v5.406c0 2.44-1.155 4.12-3.626 4.12-2.497 0-3.625-1.68-3.625-4.12V15.77c0-2.44.967-4.094 3.625-4.094Zm12.518 14.932v-4.54h4.887v4.54c0 .761.618 1.338 1.451 1.338.806 0 1.45-.577 1.45-1.338V15.666c0-.709-.644-1.312-1.45-1.312-.833 0-1.451.603-1.451 1.312v4.067h-4.887v-4.067c0-.709-.645-1.312-1.45-1.312-.833 0-1.451.603-1.451 1.312v10.943c0 .761.618 1.338 1.451 1.338.805 0 1.45-.577 1.45-1.338ZM137.641 28c.564 0 1.075-.289 1.397-.735l5.21-8.03v7.374c0 .735.617 1.391 1.45 1.391.806 0 1.45-.656 1.45-1.39V15.77c0-.84-.618-1.443-1.531-1.443-.59 0-1.154.263-1.45.761l-5.21 8.03v-7.426c0-.735-.671-1.365-1.477-1.365-.832 0-1.423.63-1.423 1.365v10.865c0 .787.644 1.443 1.584 1.443Zm20.217-2.31c.591 0 1.075-.314 1.37-.787l2.739-4.907v6.613c0 .735.618 1.338 1.45 1.338.753 0 1.424-.603 1.424-1.338V15.744c0-.813-.671-1.39-1.531-1.39-.698 0-1.128.315-1.423.813l-4.056 7.007-4.055-7.007c-.322-.498-.752-.813-1.423-.813-.886 0-1.531.577-1.531 1.39V26.61c0 .735.618 1.338 1.423 1.338.779 0 1.451-.603 1.451-1.338v-6.613l2.739 4.907c.269.473.779.788 1.37.788h.053Zm15.5 2.258c3.545 0 5.425-2.1 5.425-4.777v-4.146c0-2.703-1.88-4.776-5.425-4.776-3.544 0-5.424 2.073-5.424 4.776v4.146c0 2.677 1.88 4.777 5.424 4.777Zm0-2.494c-1.664 0-2.524-.866-2.524-2.283V19c0-1.391.86-2.257 2.524-2.257 1.665 0 2.525.866 2.525 2.257v4.172c0 1.417-.86 2.283-2.525 2.283Zm18.374-7.269c0-2.1-1.585-3.7-4.862-3.7h-3.598c-.833 0-1.45.63-1.45 1.338v10.602c0 .709.617 1.313 1.45 1.313h3.867c3.25 0 4.861-1.549 4.861-3.7 0-1.418-.725-2.415-2.444-3.045 1.558-.603 2.176-1.522 2.176-2.808Zm-2.606 5.616c0 1.181-.698 1.706-2.041 1.706h-2.363v-3.438h2.095c1.933 0 2.309.892 2.309 1.732Zm-4.404-7.06h2.095c1.316 0 2.041.526 2.041 1.707 0 .76-.322 1.548-1.988 1.548h-2.148v-3.254Z" fill="#171717"/></svg>