<svg width="155" height="1539" viewBox="0 0 155 1539" fill="none" xmlns="http://www.w3.org/2000/svg">
<path d="M39.284 172.371C45.4216 170.726 48.1861 166.953 47.5773 161.05C47.4559 160.193 47.3452 159.225 47.2453 158.146C46.9358 155.075 46.6162 152.923 46.2864 151.69C44.3144 144.319 40.0992 138.237 33.6409 133.443C33.1612 133.463 32.7343 133.429 32.3601 133.341C31.783 133.199 31.2052 133.206 30.6266 133.361C30.1739 133.482 29.6038 133.769 28.9165 134.223C26.9115 135.596 25.6494 136.622 25.13 137.3C23.8771 139.469 23.2221 142.462 23.1649 146.279C23.1077 150.096 23.3988 153.199 24.0382 155.589L25.2066 159.805C25.8123 162.069 26.3123 164.24 26.7065 166.319C26.98 166.434 27.6969 167.199 28.8571 168.614C30.2189 170.379 31.2833 171.536 32.0503 172.085C33.3391 172.872 35.3034 173.06 37.9432 172.649C38.4094 172.578 38.8564 172.486 39.284 172.371ZM38.294 183.03C33.2129 184.391 28.846 183.485 25.1935 180.312C23.9815 179.208 22.5199 177.321 20.8084 174.652C19.097 171.984 17.6346 169.289 16.4213 166.567C15.9222 165.407 15.5515 164.374 15.3092 163.468C14.9862 162.261 14.904 161.299 15.0628 160.582C14.8661 160.149 14.6871 159.631 14.5256 159.027C14.1688 157.694 13.8669 155.659 13.6197 152.921C13.3726 150.183 13.3651 147.233 13.5973 144.071C13.8546 140.901 14.4416 138.762 15.3581 137.654C15.4723 135.763 16.7629 133.584 19.2298 131.117C21.6901 128.624 24.2289 126.879 26.8464 125.881L28.8813 125.174C29.6157 124.896 30.2596 124.683 30.813 124.535C31.348 124.419 31.9602 124.389 32.6496 124.447C34.3069 124.596 36.0819 124.984 37.9744 125.609C40.5532 126.482 42.0987 127.321 42.611 128.127C43.7872 128.594 44.9437 129.592 46.0805 131.12C47.2358 132.617 48.2451 134.072 49.1084 135.486C49.965 136.874 50.5435 137.676 50.8439 137.892C51.4135 139.114 52.0175 140.314 52.6559 141.491C54.035 143.925 55.1073 146.523 55.8728 149.283C55.9302 149.699 55.9725 150.159 55.9998 150.664C56.0203 151.144 56.0458 151.542 56.0762 151.857C56.2108 152.36 56.3462 152.715 56.4822 152.921C56.6367 153.095 56.803 153.415 56.9812 153.879C57.2185 154.867 57.289 155.886 57.1925 156.937C57.1645 157.537 57.1583 158.119 57.1739 158.681C57.3725 161.539 56.9993 164.578 56.0543 167.797C55.1345 171.009 53.5976 173.577 51.4439 175.502C49.8655 177.462 47.4876 179.205 44.3104 180.73C42.1861 181.757 40.1806 182.524 38.294 183.03Z" fill="#3DFF7F"/>
<path d="M79.5163 189.849L88.1473 192.202C88.4477 192.288 88.6122 192.281 88.6409 192.181L88.6303 191.934C88.7399 187.956 88.9742 184.962 89.333 182.952C89.7567 180.147 89.7095 178.278 89.1914 177.344L87.7685 179.333C86.2294 181.303 85.1555 182.783 84.5469 183.774L82.9094 185.661C81.1557 187.623 80.0246 189.019 79.5163 189.849ZM65.0721 210.496L64.8468 210.431C64.3712 210.295 63.1357 209.832 61.1404 209.043C58.9698 208.204 57.7808 207.673 57.5735 207.451C57.5379 207.197 57.5631 206.92 57.6491 206.62C57.9287 205.643 59.1011 203.772 61.1665 201.004C61.9146 200 62.4659 199.21 62.8204 198.634C63.2106 197.933 63.7799 196.986 64.5281 195.792C66.4506 192.767 67.9253 190.928 68.9522 190.274C69.1277 189.755 69.5431 188.967 70.1982 187.908C71.487 185.867 72.7453 184.074 73.973 182.53C76.0097 179.863 79.0485 176.156 83.0894 171.409C87.8283 165.832 90.5894 162.953 91.3728 162.771C92.3679 161.377 93.3968 160.48 94.4593 160.08C95.1955 161.104 95.5966 163.346 95.6625 166.805C95.6868 168.14 95.6218 169.123 95.4676 169.756C95.7963 170.501 96.0135 172.107 96.1194 174.576C96.1542 176.157 96.2858 177.4 96.5142 178.306C96.528 179.204 96.5826 180.574 96.6781 182.416L97.2119 196.305C97.7154 209.968 97.8417 217.237 97.5908 218.113L97.5801 218.151C97.0255 218.48 96.5247 218.62 96.0776 218.573C95.8129 218.552 95.5304 218.498 95.23 218.412C95.0548 218.361 94.8456 218.288 94.6024 218.191C94.3915 218.076 94.1358 217.976 93.8354 217.89L92.387 217.556C91.9721 217.491 91.5895 217.408 91.239 217.308C90.5381 217.107 89.907 216.804 89.3457 216.399C88.8529 215.093 88.6422 211.43 88.7137 205.409C88.7617 202.686 88.7129 200.586 88.5671 199.109C88.0342 198.983 87.4942 198.882 86.947 198.807C86.4249 198.738 85.8384 198.611 85.1875 198.424L84.7745 198.306C84.306 198.144 83.6838 197.952 82.9078 197.73C80.7549 197.112 78.0745 196.588 74.8664 196.155C73.2451 197.939 70.8449 201.355 67.6659 206.403L65.0721 210.496Z" fill="#9F54FF"/>
<path d="M53.6159 260.808C52.827 261.21 51.8692 261.596 50.7424 261.965C49.6274 262.358 48.8537 262.445 48.4213 262.227C48.0691 261.822 47.4857 260.819 46.6709 259.217C45.2657 256.455 43.8949 253.617 42.5585 250.703C39.4138 244.005 37.7738 240.15 37.6385 239.137C37.2391 238.639 36.7855 237.891 36.2777 236.893L34.7893 233.881L33.9384 232.123C33.7377 231.728 33.4724 231.264 33.1426 230.731C32.577 229.791 32.0404 228.823 31.5326 227.825C31.0013 226.78 30.6985 225.955 30.6243 225.35C30.0963 224.772 29.5724 223.972 29.0529 222.95L28.7689 222.306C28.6508 222.074 28.527 221.859 28.3975 221.662C26.818 222.233 24.9609 223.062 22.8262 224.15C20.7147 225.226 18.7427 226.26 16.91 227.252C15.8199 227.866 14.9152 228.356 14.1959 228.723C13.4766 229.089 13.0355 229.285 12.8727 229.309C12.0498 228.209 11.2432 226.939 10.4529 225.501C9.67351 223.969 9.19238 222.621 9.00947 221.458C11.1523 219.869 14.1892 217.941 18.1203 215.675L47.1482 200.973C47.7354 201.667 48.5308 203.001 49.5345 204.974C49.995 205.879 50.2845 206.477 50.403 206.767C50.581 207.232 50.6427 207.727 50.5882 208.251C50.5434 208.508 50.5168 208.857 50.5083 209.3C49.5907 209.622 47.9138 210.403 45.4774 211.644C40.4655 214.198 37.5948 215.763 36.8654 216.339L40.8476 223.736L42.5443 226.554L50.3232 242.275C51.0797 243.877 51.8495 245.706 52.6326 247.762C53.1327 249.32 53.7783 250.876 54.5695 252.431L55.9144 254.902C56.3395 255.738 56.7239 256.579 57.0676 257.427C57.0172 258.534 55.8667 259.661 53.6159 260.808Z" fill="#FF498B"/>
<path d="M85.295 272.769C84.6862 276.237 82.7512 278.859 79.4898 280.636C76.2575 282.391 73.0231 283.305 69.7868 283.38C67.7781 283.501 65.903 283.494 64.1617 283.359C63.6158 283.318 63.0585 283.263 62.4898 283.193C61.2233 283.037 59.8758 282.793 58.4473 282.46C58.4529 280.703 58.7306 277.261 59.2806 272.133C59.5078 269.852 59.7576 267.6 60.0302 265.377C60.3725 262.586 60.8282 259.297 61.3975 255.51C61.9699 251.697 62.5408 249.287 63.1101 248.282C63.0774 248.12 63.1134 247.613 63.218 246.76C63.3226 245.907 63.4575 244.913 63.6228 243.779C63.7881 242.645 63.9502 241.537 64.1091 240.454C64.3188 238.958 64.4682 237.953 64.5575 237.44C64.6906 236.354 64.7928 235.199 64.8642 233.975C64.8913 233.112 64.9539 232.28 65.0522 231.479C65.2391 229.954 65.5556 228.55 66.0015 227.266L67.3973 227.438C69.0611 227.563 70.6425 227.718 72.1417 227.902C73.0463 228.013 73.9107 228.133 74.7346 228.26C75.7136 228.406 76.7589 228.548 77.8703 228.684L80.4292 228.999C81.2564 229.1 82.1254 229.181 83.0364 229.24C83.9796 229.251 84.8777 229.309 85.7307 229.413C87.1781 229.591 88.5177 229.9 89.7494 230.34L89.2747 234.532C89.243 234.79 89.2274 235.025 89.2279 235.234C89.2189 235.522 89.1986 235.795 89.1669 236.053C89.075 236.803 88.8889 237.357 88.6088 237.717C88.2901 238.176 87.4587 238.323 86.1146 238.158L85.9208 238.134C84.5509 237.966 83.1744 237.745 81.7913 237.47C80.6893 237.256 79.5971 237.069 78.5147 236.91L77.1965 236.748C75.8524 236.583 74.4986 236.391 73.135 236.171C72.3985 240.252 71.6361 244.33 70.8479 248.405C70.5865 249.895 70.3218 251.305 70.0536 252.637C71.721 252.946 73.4971 253.44 75.3818 254.117C77.2664 254.795 78.8301 255.63 80.0728 256.622C82.0677 257.47 83.6004 258.879 84.671 260.847C85.2938 261.973 85.7375 263.168 86.0021 264.434C86.068 264.967 86.1024 265.863 86.1053 267.123C86.1083 268.383 86.0514 269.596 85.9346 270.762L85.9014 271.033C85.7778 272.041 85.5756 272.62 85.295 272.769ZM66.4548 273.644L66.3009 276.183C67.1121 276.414 67.9184 276.578 68.7197 276.677C70.0379 276.839 71.3654 276.818 72.7021 276.615C73.6965 276.422 74.4937 276.126 75.0935 275.728C75.6933 275.329 76.2462 274.885 76.7522 274.397C77.0809 274.07 77.4354 273.746 77.8158 273.425C77.9309 272.915 78.0573 272.419 78.1951 271.937C78.4067 271.281 78.5762 270.541 78.7034 269.717C79.0379 266.347 77.6802 263.832 74.6304 262.172C73.3238 261.487 71.9597 261.057 70.5381 260.882C69.8402 260.797 69.1344 260.776 68.4207 260.819L68.4017 260.974C68.2449 261.611 68.1428 262.123 68.0952 262.511L68.062 262.782C68.0176 263.144 67.9993 263.614 68.0071 264.192L66.4548 273.644Z" fill="#FFB240"/>
<path d="M43.5216 333.77C42.1901 334.225 41.0868 334.621 40.2115 334.957L39.081 335.391C38.376 335.661 37.8121 335.864 37.3895 335.998C37.0759 335.616 36.8771 335.316 36.7932 335.097C36.7093 334.878 36.6656 334.728 36.6619 334.646C36.6846 334.414 36.6074 334.067 36.4303 333.605C36.2439 333.118 36.0397 332.695 35.8176 332.334C35.6199 331.963 35.4436 331.613 35.2888 331.281C34.8881 330.236 34.619 329.279 34.4816 328.411C34.3069 327.446 34.0472 326.514 33.7023 325.614C31.6438 320.825 29.9435 316.68 28.6014 313.179C27.1381 309.361 25.9508 306.19 25.0395 303.667C22.8216 297.517 21.7121 294.149 21.7109 293.564C20.7761 291.998 19.9964 290.401 19.372 288.771C18.9992 287.799 18.6843 286.832 18.4274 285.87C18.2523 285.268 18.0604 284.658 17.8517 284.041C18.5325 283.78 19.1703 283.479 19.7651 283.139C20.3749 282.766 21.3194 282.319 22.5987 281.8C24.121 281.188 26.973 280.079 31.1547 278.474C37.2849 276.205 41.1698 275.062 42.8092 275.047C43.0593 275.481 43.2914 275.977 43.5058 276.537C43.6829 276.999 43.8496 277.506 44.0061 278.06C44.1532 278.589 44.3246 279.109 44.5203 279.62C45.0268 281.378 44.4225 282.712 42.7073 283.621C41.8544 284.088 40.9538 284.504 40.0056 284.868C39.0332 285.241 38.0177 285.575 36.9593 285.87C35.8916 286.14 34.8108 286.485 33.7167 286.905C32.3139 287.611 30.8953 288.239 29.4609 288.79L33.4556 299.976C33.6437 300.685 33.9008 301.465 34.227 302.316C34.6464 303.41 35.1825 304.627 35.8353 305.967C36.5441 307.452 37.1314 308.803 37.5974 310.018C37.7838 310.505 39.1628 314.466 41.7344 321.903L43.8624 327.237C44.2652 328.143 44.5924 328.923 44.8441 329.58C45.0957 330.237 45.3016 330.883 45.4617 331.519C45.646 332.145 45.5642 332.623 45.2161 332.952C44.9374 333.171 44.3725 333.443 43.5216 333.77Z" fill="#3DFF7F"/>
<path d="M54.7593 350.288L52.9846 349.571L52.0594 348.524L53.8227 345.823L55.4741 341.73C55.7079 341.15 58.1735 341.234 62.8708 341.98C64.991 341.179 66.392 339.934 67.074 338.243C68.3698 335.031 68.255 321.812 66.7295 298.586C66.9604 295.786 67.2074 294.06 67.4704 293.408L68.8632 293.297L74.7306 295.668C75.9226 296.402 76.2884 303.361 75.828 316.544C76.4799 316.807 76.9435 320.183 77.2189 326.67L77.7984 326.904C78.8125 327.313 84.6641 321.266 95.3533 308.76C96.3568 306.273 99.1221 305.579 103.649 306.677C106.187 308.321 107.325 309.468 107.062 310.121C84.356 336.055 70.7143 349.615 66.1368 350.799C62.4392 352.029 58.6467 351.859 54.7593 350.288Z" fill="#E440FF"/>
<path d="M34.2299 370.361C36.0723 369.347 37.6715 367.77 39.0272 365.632C40.4073 363.485 40.6474 361.091 39.7474 358.452C39.2364 357.337 38.501 356.364 37.541 355.533C36.6054 354.693 35.5563 354.175 34.3938 353.98C33.5919 353.925 32.5945 354.015 31.4016 354.25C30.2237 354.451 29.3187 354.673 28.6866 354.915L30.5684 359.716C31.9384 363.29 33.1589 366.839 34.2299 370.361ZM45.7626 393.466C48.4369 392.439 50.1694 391.174 50.9599 389.671C51.3027 389.038 51.5632 388.408 51.7415 387.781L52.2533 386.497C52.1005 386.026 51.9674 385.533 51.8539 385.018C51.7425 384.364 51.533 383.635 51.2254 382.833C50.558 381.164 49.5268 379.747 48.1317 378.581C46.7608 377.406 45.181 376.813 43.392 376.802C41.6553 376.855 40.2642 377.082 39.2188 377.483C38.6597 377.698 38.107 377.966 37.5608 378.287L37.6307 378.47C37.8 379.13 37.9872 379.728 38.1923 380.262C38.3228 380.603 38.5223 381.014 38.791 381.497L41.8751 391.945L42.9661 394.246C43.9552 394.062 44.8874 393.802 45.7626 393.466ZM43.8269 401.949C42.4654 402.472 40.9769 402.918 39.3614 403.287C38.7588 402.151 37.7322 399.909 36.2815 396.561C34.5176 392.468 32.769 388.16 31.0354 383.637C29.8239 380.476 28.8222 377.681 28.0304 375.251C27.5085 373.889 26.9716 372.561 26.4197 371.267C26.3358 371.048 26.2444 370.846 26.1455 370.661L25.9358 370.114C25.5108 369.077 24.9068 367.538 24.1239 365.495C22.8844 362.261 22.3938 360.399 22.6524 359.909C22.5069 359.603 22.3223 359.157 22.0986 358.574C21.9495 358.185 21.7194 357.548 21.4082 356.663C21.1119 355.745 20.7748 354.647 20.3967 353.369C20.0337 352.058 19.8029 351.129 19.7044 350.581C20.326 349.728 21.6579 348.91 23.7001 348.126C23.7973 348.089 24.4219 347.863 25.5739 347.449C26.7259 347.034 28.5134 346.641 30.9365 346.269C33.3746 345.863 35.2412 345.858 36.5362 346.253C38.418 346.87 39.5653 347.28 39.9782 347.484C40.7611 347.853 41.9637 348.954 43.5862 350.786C44.4655 351.843 45.2313 353.223 45.8837 354.925C45.9583 355.119 46.1763 355.761 46.5377 356.849C46.9235 357.929 47.0129 359.108 46.8058 360.387C47.1426 361.848 47.2259 363.447 47.0557 365.186C46.9098 366.916 46.4662 368.342 45.7247 369.463C46.2948 369.495 46.8088 369.563 47.2666 369.666L49.3417 369.623C49.6144 369.825 50.0656 370.056 50.6953 370.317C52.545 371.141 54.1047 372.299 55.3742 373.793C55.6915 374.257 56.1822 375.1 56.8463 376.324C57.6336 377.723 58.2603 379.031 58.7263 380.246C59.1084 381.243 59.2152 381.886 59.0466 382.174C59.3112 382.937 59.4063 384.058 59.3317 385.537C59.2572 387.016 59.0145 388.42 58.6036 389.75C58.2171 391.07 57.7002 391.868 57.0531 392.144C56.8485 392.92 56.3167 393.752 55.4577 394.639C53.8969 396.243 52.0605 397.673 49.9486 398.93C47.6665 400.252 45.6259 401.259 43.8269 401.949Z" fill="#4053FF"/>
<path d="M97.3719 145.82C96.5167 146.05 95.4995 146.228 94.3205 146.355C93.1482 146.507 92.3732 146.432 91.9955 146.129C91.7351 145.659 91.3728 144.557 90.9084 142.821C90.1075 139.827 89.356 136.766 88.6539 133.638C86.9689 126.433 86.1654 122.321 86.2434 121.303C85.9561 120.733 85.6677 119.907 85.3783 118.825L84.5479 115.57L84.0808 113.673C83.9664 113.245 83.8033 112.736 83.5914 112.146C83.2333 111.109 82.9095 110.05 82.6201 108.969C82.3173 107.837 82.1924 106.967 82.2456 106.36C81.8492 105.684 81.5029 104.793 81.2068 103.686L81.0628 102.996C80.9955 102.745 80.919 102.509 80.8332 102.29C79.1695 102.52 77.1806 102.945 74.8664 103.565C72.5773 104.178 70.4334 104.78 68.4345 105.369C67.2405 105.743 66.2537 106.034 65.4739 106.243C64.6941 106.452 64.222 106.552 64.0576 106.542C63.4813 105.294 62.9559 103.885 62.4816 102.314C62.0374 100.653 61.8467 99.2349 61.9094 98.0588C64.3356 96.9504 67.7068 95.6966 72.0231 94.2974L103.474 85.9512C103.904 86.7526 104.405 88.2224 104.977 90.3608C105.239 91.3419 105.398 91.9868 105.454 92.2954C105.532 92.7869 105.489 93.2835 105.327 93.7853C105.23 94.027 105.131 94.3635 105.031 94.7948C104.066 94.9184 102.264 95.334 99.6225 96.0417C94.1892 97.4976 91.0559 98.4315 90.2226 98.8435L92.5817 106.906L93.6562 110.015L98.0003 127.009C98.4077 128.733 98.7809 130.682 99.1198 132.856C99.2855 134.483 99.5939 136.139 100.045 137.825L100.847 140.522C101.089 141.427 101.291 142.33 101.451 143.231C101.172 144.304 99.8119 145.167 97.3719 145.82Z" fill="#E440FF"/>
<path d="M45.6555 94.7015L44.3306 94.6089C43.2655 94.5344 41.2169 94.3389 38.1847 94.0225L38.1901 93.9445L34.4465 93.7219L31.755 93.5729C29.8327 93.4384 28.1105 93.2397 26.5887 92.9767C26.5664 91.8004 26.6236 89.2983 26.7603 85.4703C27.0065 78.2042 27.3237 71.7914 27.7118 66.232C28.2142 59.036 28.7206 54.9599 29.2312 54.0036C29.0868 53.0798 29.0872 51.5787 29.2323 49.5005C29.4862 45.8635 29.8857 42.1975 30.4308 38.5026C31.1498 37.9263 33.8083 37.799 38.4065 38.1205C40.3289 38.255 42.3784 38.4374 44.5552 38.668C45.4867 38.7853 46.4721 38.8803 47.5112 38.953C48.3945 39.0147 49.3315 39.0542 50.3223 39.0712C51.3409 39.0641 52.3308 39.0942 53.292 39.1614C55.9937 39.3503 58.4278 39.8208 60.5943 40.5727C60.8039 41.6838 60.8561 42.9927 60.7509 44.4994C60.7037 45.1749 60.6082 45.7947 60.4644 46.359C60.2173 47.2815 59.769 47.72 59.1195 47.6746L51.095 47.0743L43.1121 46.4378C40.5922 46.2616 38.9018 46.1695 38.0409 46.1615L37.7952 49.1203L37.6238 51.5753L37.4134 54.0275C37.1608 56.1505 36.9656 58.1991 36.8278 60.1735C36.7697 61.0048 36.7485 61.6821 36.7642 62.2053C37.1376 62.4663 39.5324 62.7513 43.9487 63.0601C46.6504 63.249 49.2706 63.4844 51.8092 63.7664C54.3478 64.0483 56.0944 64.4576 57.0489 64.9942C57.3467 66.7119 57.4584 68.1033 57.384 69.1684C57.3024 70.3374 56.9873 71.1116 56.4388 71.4909C55.5343 72.1064 53.2896 72.2888 49.7046 72.0381L47.7979 71.8657L43.5867 71.6103L36.2781 71.4125L35.1366 83.2759C37.5218 83.8864 42.2733 84.4406 49.3914 84.9383C54.4831 85.2944 57.2009 85.628 57.5446 85.9392C57.8932 86.9295 58.0091 88.0732 57.8924 89.3703C57.7999 90.6952 57.5996 91.882 57.2915 92.9308C57.0093 93.9813 56.5093 94.599 55.7916 94.7838C55.2074 94.9257 54.5516 94.9712 53.8242 94.9203L52.0706 94.7977L45.6555 94.7015Z" fill="#FF498B"/>
<path d="M102.182 73.9341C97.6652 74.9769 92.9019 75.0075 87.8919 74.026C86.274 73.7314 84.4316 73.101 82.3649 72.1349C77.849 70.0505 74.798 67.1334 73.212 63.3836C72.9818 62.8488 72.7097 62.3637 72.3955 61.9284C71.2091 60.4918 70.0299 57.6371 68.8578 53.3641C68.7096 52.8371 68.5741 52.3071 68.4512 51.7742C67.2052 46.3691 67.3829 41.3435 68.9843 36.6976C70.5799 32.0262 74.1828 27.7734 79.793 23.9391C82.0203 22.3559 84.1109 21.3387 86.0647 20.8876L87.3763 20.665C88.5689 20.3896 89.6093 19.9757 90.4975 19.4232C91.1279 19.144 91.7604 18.9312 92.3947 18.7848C93.0291 18.6383 93.9513 18.4655 95.1615 18.2663C96.3658 18.0417 97.6579 17.8503 99.0378 17.6921C100.412 17.5085 101.414 17.4508 102.045 17.5191C102.509 18.374 102.928 19.4398 103.303 20.7164C103.414 21.1986 103.606 22.0897 103.879 23.3897C104.146 24.6644 104.027 25.8278 103.521 26.88C103.375 26.9405 103.187 26.9972 102.959 27.0499C102.401 27.1788 101.553 27.2676 100.415 27.3165C97.7349 27.4007 95.3039 27.6946 93.1217 28.1984C91.447 28.5851 89.7742 29.2118 88.1033 30.0786L87.9686 30.1899C86.3368 30.9943 84.8161 31.9333 83.4067 33.0071C81.6069 34.358 80.492 36.2457 80.0621 38.6702C79.8608 39.9996 79.6342 40.8136 79.3824 41.1123L79.5491 41.8355C79.7831 42.8505 79.9907 44.0989 80.1719 45.5804C80.32 46.8024 80.4837 47.8604 80.6631 48.7544C81.3866 51.3135 82.4157 53.5749 83.7503 55.5385C84.2342 56.3622 84.6712 57.1567 85.0614 57.9219C85.9064 58.3415 86.647 58.7719 87.2832 59.213C87.9447 59.6482 88.6102 60.0425 89.2796 60.3957C89.9431 60.7236 90.7697 60.9471 91.7592 61.0661C93.3537 61.2592 96.0394 61.0267 99.8162 60.3686C100.406 60.2592 100.935 60.1772 101.403 60.1225C103.138 59.8823 104.586 59.6684 105.745 59.4809C107.234 59.2173 108.339 59.0825 109.059 59.0766C109.773 59.0453 110.276 59.1965 110.567 59.5303C110.852 59.8387 111.116 60.4058 111.36 61.2315C111.68 62.387 112.065 63.5944 112.515 64.8534C112.9 65.9406 113.224 67.0016 113.49 68.0361C113.531 68.2138 113.569 68.3787 113.604 68.531C113.709 68.9877 113.734 69.3293 113.68 69.5558C113.328 70.118 112.774 70.5533 112.016 70.8618C111.253 71.1449 110.466 71.3802 109.654 71.5677C108.867 71.7493 108.165 71.9514 107.549 72.1739C105.798 72.9256 104.009 73.5123 102.182 73.9341Z" fill="#4053FF"/>
<path d="M83.451 540.314C89.4219 542.488 93.8485 540.981 96.7308 535.795C97.1222 535.023 97.5859 534.166 98.1219 533.225C99.6275 530.531 100.598 528.584 101.034 527.384C103.64 520.213 103.67 512.811 101.124 505.178C100.719 504.919 100.389 504.647 100.133 504.36C99.7416 503.912 99.2644 503.586 98.7016 503.381C98.2611 503.221 97.6293 503.13 96.8062 503.107C94.377 503.082 92.7553 503.199 91.9412 503.456C89.6723 504.515 87.4214 506.592 85.1884 509.687C82.9554 512.781 81.4164 515.491 80.5714 517.817L79.1138 521.942C78.3133 524.145 77.4794 526.211 76.6121 528.14C76.7701 528.391 76.9193 529.429 77.0597 531.254C77.1646 533.481 77.3739 535.04 77.6877 535.931C78.293 537.315 79.7947 538.596 82.1929 539.773C82.6156 539.983 83.035 540.163 83.451 540.314ZM76.5349 548.481C71.5918 546.681 68.5326 543.434 67.3573 538.739C66.9967 537.139 66.8796 534.754 67.006 531.585C67.1323 528.417 67.4778 525.369 68.0424 522.443C68.298 521.206 68.586 520.147 68.9062 519.266C69.3331 518.091 69.8168 517.256 70.3573 516.759C70.444 516.292 70.5941 515.765 70.8076 515.177C71.279 513.88 72.1975 512.039 73.563 509.654C74.9285 507.269 76.6121 504.847 78.6139 502.389C80.6401 499.939 82.3461 498.523 83.7319 498.141C84.9085 496.657 87.2141 495.611 90.6486 495.005C94.0921 494.374 97.172 494.4 99.8883 495.084L101.961 495.672C102.721 495.865 103.371 496.06 103.909 496.256C104.414 496.468 104.933 496.795 105.464 497.238C106.737 498.311 107.97 499.646 109.162 501.244C110.775 503.439 111.561 505.013 111.519 505.968C112.215 507.025 112.591 508.506 112.647 510.411C112.736 512.3 112.73 514.071 112.628 515.725C112.535 517.354 112.549 518.343 112.672 518.692C112.438 520.02 112.246 521.35 112.095 522.681C111.831 525.467 111.221 528.21 110.268 530.911C110.076 531.285 109.847 531.687 109.58 532.116C109.322 532.521 109.115 532.862 108.96 533.137C108.782 533.627 108.69 533.995 108.683 534.242C108.71 534.474 108.663 534.831 108.543 535.314C108.172 536.259 107.646 537.135 106.965 537.94C106.598 538.416 106.26 538.889 105.951 539.359C104.476 541.815 102.43 544.091 99.8122 546.186C97.2187 548.291 94.4882 549.514 91.6208 549.856C89.2051 550.556 86.2587 550.62 82.7817 550.048C80.4525 549.671 78.3703 549.149 76.5349 548.481Z" fill="#3DFF7F"/>
<path d="M31.7683 589.857L40.5269 588.035C40.8337 587.976 40.9771 587.895 40.9573 587.792L40.8359 587.577C39.1302 583.983 37.9815 581.208 37.39 579.254C36.4962 576.562 35.6067 574.918 34.7215 574.321L34.3554 576.74C33.8767 579.194 33.5907 581 33.4973 582.159L32.8937 584.585C32.2204 587.13 31.8453 588.887 31.7683 589.857ZM28.256 614.814L28.0259 614.859C27.5402 614.953 26.2294 615.102 24.0935 615.305C21.7787 615.542 20.4786 615.609 20.1932 615.506C20.0463 615.296 19.9431 615.037 19.8835 614.73C19.69 613.733 19.8864 611.533 20.4726 608.129C20.6839 606.895 20.8169 605.94 20.8718 605.266C20.9019 604.465 20.9797 603.362 21.1051 601.958C21.4471 598.39 21.9275 596.081 22.5463 595.032C22.4677 594.49 22.4804 593.599 22.5845 592.359C22.8075 589.954 23.116 587.785 23.51 585.851C24.1161 582.55 25.1436 577.867 26.5927 571.802C28.2878 564.681 29.4432 560.862 30.059 560.344C30.3138 558.65 30.824 557.383 31.5897 556.545C32.7099 557.123 34.0836 558.938 35.7108 561.991C36.3373 563.169 36.7254 564.076 36.875 564.71C37.5054 565.224 38.4273 566.557 39.6408 568.709C40.3887 570.102 41.0696 571.15 41.6836 571.853C42.103 572.647 42.7728 573.843 43.6932 575.442L50.4652 587.576C57.108 599.523 60.5162 605.943 60.6899 606.838L60.6973 606.876C60.352 607.421 59.9696 607.774 59.5499 607.935C59.3042 608.036 59.0279 608.116 58.7212 608.176C58.5422 608.211 58.3225 608.24 58.0619 608.264C57.8219 608.258 57.5485 608.284 57.2417 608.344L55.7995 608.704C55.4004 608.835 55.022 608.935 54.6641 609.004C53.9483 609.143 53.2485 609.16 52.5648 609.054C51.5334 608.114 49.6848 604.945 47.019 599.547C45.8276 597.099 44.832 595.25 44.0322 593.999C43.5003 594.129 42.9734 594.285 42.4515 594.466C41.9551 594.642 41.3746 594.795 40.71 594.924L40.2882 595.006C39.7975 595.075 39.1559 595.186 38.3635 595.34C36.1651 595.767 33.5384 596.517 30.4834 597.588C29.8471 599.914 29.2568 604.048 28.7124 609.99L28.256 614.814Z" fill="#9F54FF"/>
<path d="M77.9958 626.963C77.149 626.704 76.192 626.316 75.1245 625.799C74.0495 625.307 73.432 624.832 73.2721 624.375C73.2997 623.839 73.5757 622.711 74.1004 620.993C75.0052 618.029 75.9874 615.034 77.0472 612.009C79.4306 605.004 80.9249 601.09 81.53 600.267C81.5879 599.631 81.7804 598.778 82.1073 597.707L83.1255 594.505L83.7331 592.649C83.8624 592.225 83.9933 591.707 84.126 591.094C84.3706 590.025 84.6564 588.955 84.9834 587.884C85.3255 586.763 85.6798 585.96 86.0463 585.472C86.0676 584.689 86.2455 583.75 86.5801 582.654L86.8227 581.993C86.8987 581.744 86.9585 581.503 87.002 581.271C85.469 580.585 83.557 579.891 81.2658 579.191C78.9996 578.498 76.8627 577.872 74.8552 577.313C73.6446 576.997 72.6533 576.721 71.8813 576.485C71.1093 576.249 70.6561 576.083 70.5219 575.988C70.6932 574.624 70.9934 573.15 71.4226 571.566C71.9244 569.922 72.5131 568.618 73.1887 567.653C75.8332 567.999 79.3564 568.722 83.758 569.823L114.852 579.411C114.793 580.319 114.44 581.831 113.794 583.948C113.498 584.92 113.291 585.551 113.175 585.842C112.981 586.3 112.682 586.699 112.279 587.039C112.069 587.192 111.807 587.425 111.494 587.738C110.61 587.332 108.861 586.729 106.246 585.93C100.867 584.285 97.7149 583.417 96.7901 583.324L94.5248 591.414L93.7909 594.621L88.4833 611.339C87.9164 613.017 87.2016 614.868 86.3388 616.892C85.6184 618.36 85.0034 619.928 84.494 621.597L83.7475 624.31C83.4738 625.207 83.1666 626.079 82.8257 626.928C82.0214 627.69 80.4114 627.701 77.9958 626.963Z" fill="#FF629A"/>
<path d="M69.4125 694.247C68.4284 694.144 67.6569 694.01 67.098 693.846C66.8621 693.35 66.7304 692.485 66.703 691.251C66.6755 690.018 66.727 688.779 66.8576 687.536C66.9883 686.293 67.1728 685.409 67.4112 684.884L70.7111 684.879C75.5281 685.387 80.306 684.647 85.0449 682.659C85.6486 682.147 86.3212 681.603 87.0626 681.026C89.7924 679.219 92.0879 676.686 93.9492 673.425C92.3176 673.253 91.142 673.103 90.4223 672.975C90.091 672.888 89.77 672.827 89.4593 672.795C88.9181 672.711 88.3266 672.61 87.6845 672.49C87.0684 672.372 86.5014 672.286 85.9834 672.232L82.4136 671.816C79.8756 671.548 78.0852 671.267 77.0425 670.974L76.7045 667.835C76.8761 667.199 76.9933 666.583 77.0558 665.987C77.0858 665.702 77.1014 665.429 77.1027 665.167C77.104 664.905 77.1183 664.645 77.1455 664.386C77.2353 663.531 77.49 662.602 77.9096 661.599C78.4753 661.449 79.4573 661.448 80.8558 661.596L83.1437 661.877C83.817 661.948 84.4011 661.996 84.8959 662.022C85.5747 662.041 86.3155 662.093 87.1183 662.178C88.2837 662.301 89.5732 662.489 90.9867 662.743C92.2475 662.955 93.3945 663.128 94.4277 663.263C94.5654 663.199 94.7521 663.167 94.9879 663.165C94.9086 661.926 94.7776 660.93 94.5948 660.178C94.0916 658.737 93.4071 657.526 92.5414 656.544C91.7943 655.68 91.3294 654.871 91.1466 654.119C89.6553 653.359 88.1572 652.415 86.6522 651.288C82.9401 648.487 79.6338 646.934 76.7333 646.628C75.4643 646.494 73.7189 646.532 71.4972 646.743C71.2846 646.773 71.0604 646.789 70.8246 646.79C70.6691 646.276 70.5272 645.384 70.3988 644.113C70.2732 642.817 70.1912 641.604 70.1528 640.474C70.1172 639.318 70.1293 638.455 70.1891 637.885L70.234 637.458C71.5084 637.042 73.0029 636.899 74.7176 637.027C76.4609 637.133 77.6434 637.218 78.2649 637.284C80.4404 637.513 82.5749 637.882 84.6686 638.391C87.3266 639.012 89.0564 639.745 89.8581 640.588C90.8367 640.744 91.9321 641.41 93.144 642.585C94.0056 643.357 94.9953 644.155 96.1131 644.98C97.9289 646.14 99.5321 647.828 100.923 650.044C101.375 650.72 101.832 651.357 102.293 651.956C102.742 652.92 103.197 653.819 103.659 654.653C104.36 655.958 104.979 657.293 105.516 658.659C106.545 661.334 106.842 664.73 106.41 668.848L106.102 671.408C105.658 674.635 104.817 677.033 103.578 678.605C102.929 680.788 101.802 682.673 100.195 684.258C98.5912 685.817 96.887 687.208 95.0826 688.432C93.5848 689.478 91.5841 690.577 89.0805 691.727C86.5795 692.851 84.5467 693.382 82.9819 693.322C82.0879 693.856 80.547 694.191 78.3594 694.327C76.195 694.492 74.3317 694.531 72.7697 694.444C71.2308 694.387 70.1118 694.321 69.4125 694.247Z" fill="#4053FF"/>
<path d="M74.5773 749.502L33.5491 769.639L32.1514 769.628C28.7933 761.849 26.1841 756.065 24.3238 752.279L14.5226 732.33C13.7532 730.764 12.9182 728.592 12.0176 725.814C11.4483 725.6 10.5149 724.173 9.21725 721.532L8.37321 719.814C7.99425 719.043 10.0874 717.072 14.6527 713.904C16.7386 713.779 18.0703 714.068 18.6478 714.771C28.3148 736.396 34.733 750.434 37.9025 756.885L45.8627 752.978C44.7488 750.711 43.2709 747.201 41.429 742.448C35.3013 730.98 30.2566 721.214 26.2948 713.15C27.1782 711.759 28.1343 710.812 29.1629 710.307L34.2826 707.794C35.0882 707.544 35.6517 707.746 35.9732 708.4L50.5113 737.99L51.6383 741.702C52.3109 742.126 52.963 742.981 53.5946 744.266L55.5411 748.228C57.2711 747.379 58.5142 747.015 59.2705 747.137C60.5714 746.006 61.8064 745.153 62.9753 744.579C56.8956 731.26 51.6796 720.171 47.3274 711.313C46.3398 709.303 44.5623 706.157 41.9949 701.877C42.5359 701.147 43.0051 700.685 43.4025 700.49C48.7327 697.874 51.771 697.325 52.5174 698.845C65.1931 726.593 72.7367 742.921 75.1482 747.83C75.5157 748.578 75.3254 749.135 74.5773 749.502Z" fill="#9F54FF"/>
<path d="M102.634 725.246C109.626 725.038 113.264 722.855 113.548 718.696C113.562 716.195 112.486 714.291 110.32 712.985C109.526 712.591 108.368 712.209 106.844 711.839C105.32 711.469 104.181 711.27 103.426 711.242L103.267 716.591C103.162 719.428 102.951 722.313 102.634 725.246ZM96.842 759.232L96.3346 759.213C95.0334 759.165 93.8691 758.939 92.8416 758.535C92.457 754.847 92.3446 750.842 92.5045 746.522C92.6229 743.321 92.8918 739.93 93.3109 736.35C93.7118 732.56 93.9662 729.208 94.074 726.293L94.1129 719.962L94.1562 718.791C94.2805 715.434 94.5436 713.607 94.9455 713.309C94.906 712.969 94.8973 712.499 94.9194 711.901C94.9348 711.484 94.9724 710.821 95.0321 709.911C95.1179 709.003 95.2369 707.899 95.3892 706.602C95.5674 705.306 95.7313 704.4 95.8806 703.884C96.7317 703.421 98.1982 703.228 100.28 703.306C103.221 703.416 106.396 703.874 109.806 704.679C112.596 705.331 114.575 706.082 115.742 706.934C117.415 708.221 118.402 709.014 118.703 709.312C119.306 709.934 120.06 711.383 120.966 713.658C121.411 715.003 121.598 716.639 121.527 718.565C121.524 718.643 121.49 719.215 121.424 720.281C121.359 721.347 120.968 722.401 120.252 723.442C119.936 724.942 119.145 726.593 117.88 728.396C116.614 730.199 115.304 731.453 113.949 732.158C110.345 733.769 106.52 734.668 102.474 734.856C102.229 735.837 101.944 737.546 101.62 739.984C100.938 745.014 100.544 748.973 100.437 751.862L100.43 753.112C100.403 753.841 100.368 754.452 100.323 754.946L100.302 755.531C100.264 756.546 100.397 757.541 100.699 758.517C99.666 758.973 98.3803 759.212 96.842 759.232Z" fill="#3DFF7F"/>
<path d="M43.6142 685.45C42.2542 685.812 41.1259 686.129 40.2294 686.404L39.0714 686.758C38.3491 686.978 37.7726 687.141 37.3416 687.246C37.0553 686.843 36.878 686.53 36.8095 686.305C36.7411 686.081 36.7079 685.928 36.71 685.846C36.7488 685.616 36.696 685.264 36.5515 684.791C36.3995 684.293 36.2253 683.856 36.0289 683.48C35.8574 683.097 35.706 682.735 35.5747 682.394C35.2478 681.323 35.046 680.35 34.9694 679.475C34.8624 678.5 34.6683 677.552 34.387 676.63C32.6671 671.709 31.2598 667.456 30.1649 663.869C28.9713 659.959 28.0078 656.713 27.2744 654.133C25.4906 647.843 24.6184 644.406 24.658 643.822C23.8345 642.195 23.1681 640.547 22.6587 638.878C22.3546 637.882 22.1079 636.895 21.9186 635.918C21.7859 635.305 21.637 634.684 21.4718 634.053C22.1691 633.84 22.8263 633.585 23.4434 633.287C24.0778 632.957 25.0511 632.578 26.3634 632.149C27.9248 631.645 30.8471 630.738 35.1306 629.428C41.4043 627.592 45.3594 626.723 46.996 626.822C47.2151 627.272 47.4122 627.784 47.587 628.357C47.7315 628.83 47.8624 629.348 47.9799 629.911C48.0898 630.45 48.2245 630.98 48.3842 631.503C48.767 633.292 48.0712 634.581 46.2967 635.368C45.4133 635.775 44.4859 636.126 43.5147 636.423C42.5185 636.728 41.4823 636.99 40.4059 637.21C39.3219 637.405 38.2196 637.674 37.0989 638.017C35.6503 638.623 34.1914 639.151 32.7221 639.6L35.9276 651.038C36.0657 651.758 36.2679 652.554 36.534 653.426C36.8761 654.547 37.3262 655.798 37.884 657.179C38.4876 658.711 38.9794 660.099 39.3595 661.344C39.5116 661.842 40.6112 665.89 42.6583 673.488L44.4095 678.958C44.7482 679.889 45.0202 680.691 45.2255 681.363C45.4308 682.036 45.5911 682.695 45.7065 683.34C45.8467 683.978 45.7318 684.449 45.3617 684.753C45.0683 684.951 44.4858 685.184 43.6142 685.45Z" fill="#FFB240"/>
<path d="M51.591 543.246L50.3209 543.634C49.2999 543.946 47.3173 544.498 44.3731 545.289L44.3503 545.214L40.7756 546.348L38.2094 547.173C36.3666 547.737 34.6876 548.168 33.1727 548.468C32.731 547.378 31.889 545.021 30.6468 541.398C28.2765 534.525 26.2778 528.423 24.6508 523.093C22.5447 516.194 21.5589 512.206 21.6933 511.13C21.228 510.32 20.6912 508.918 20.083 506.925C19.0185 503.438 18.0796 499.872 17.2663 496.227C17.7314 495.431 20.1679 494.359 24.5758 493.012C26.4187 492.448 28.3975 491.884 30.5122 491.319C31.424 491.095 32.3779 490.83 33.3741 490.526C34.2208 490.267 35.1097 489.968 36.0409 489.629C36.9893 489.257 37.9243 488.93 38.8457 488.649C41.4357 487.857 43.8765 487.424 46.1682 487.35C46.7615 488.312 47.2786 489.515 47.7196 490.96C47.9173 491.608 48.0499 492.221 48.1176 492.799C48.217 493.749 47.9554 494.319 47.3328 494.509L39.6261 496.825L31.9454 499.091C29.5297 499.83 27.9186 500.35 27.112 500.651L27.9414 503.502L28.6599 505.855L29.341 508.22C29.8648 510.293 30.4157 512.276 30.9935 514.169C31.2368 514.966 31.4594 515.606 31.6613 516.089C32.1033 516.199 34.4411 515.607 38.6747 514.312C41.2647 513.52 43.7952 512.801 46.2662 512.155C48.7371 511.508 50.5142 511.264 51.5974 511.423C52.4901 512.921 53.0923 514.18 53.404 515.201C53.7462 516.322 53.729 517.158 53.3526 517.708C52.7285 518.607 50.698 519.582 47.2613 520.633L45.4195 521.155L41.3965 522.426L34.5022 524.86L37.6818 536.347C40.1271 536.062 44.7615 534.877 51.5852 532.79C56.4663 531.298 59.123 530.636 59.5553 530.803C60.2351 531.603 60.7526 532.629 61.1079 533.882C61.4956 535.152 61.7333 536.332 61.8209 537.422C61.9334 538.504 61.6876 539.26 61.0837 539.69C60.589 540.032 59.993 540.309 59.2957 540.522L57.6147 541.036L51.591 543.246Z" fill="#E440FF"/>
<path d="M121.046 482.444C120.462 482.31 119.874 482.134 119.283 481.917C118.787 481.749 118.349 481.621 117.968 481.534C116.655 481.204 115.721 480.908 115.166 480.646C114.637 480.39 114.347 480.029 114.294 479.563C114.272 479.077 114.363 478.336 114.566 477.34L114.618 477.112C114.934 475.742 115.198 473.611 115.41 470.72C115.612 467.64 115.951 464.257 116.427 460.571C116.943 456.708 117.211 453.924 117.23 452.218C115.868 453.721 112.83 459.247 108.117 468.796C105.321 474.431 103.701 477.518 103.256 478.057L101.71 477.981C101.331 476.61 101.074 475.001 100.939 473.152L100.69 470.93C100.479 469.758 100.363 468.582 100.341 467.401C100.35 466.201 100.275 465.021 100.115 463.861C99.8391 462.274 99.7076 459.25 99.7203 454.79C99.7357 453.912 99.7336 453.109 99.7139 452.383C99.7196 451.663 99.7302 451.037 99.7457 450.506C99.6987 450.014 99.6616 449.712 99.6342 449.599C99.6069 449.485 99.5551 449.42 99.479 449.402C99.4029 449.385 99.3453 449.345 99.3063 449.282L94.8784 456.839C93.7683 458.641 92.6757 460.54 91.6007 462.537L90.6116 464.393C89.1815 467.003 88.1758 468.989 87.5945 470.352C86.9352 471.937 86.3557 472.885 85.8561 473.198C85.4502 473.451 84.7905 473.473 83.8771 473.262C82.5322 472.952 81.4392 472.592 80.5979 472.184C80.0943 471.934 79.5779 471.508 79.0489 470.905L79.1805 470.334C79.4262 469.268 80.0152 467.466 80.9476 464.928C81.8858 462.366 82.905 459.741 84.0052 457.055C85.1366 454.35 85.9716 452.698 86.5102 452.101C86.4945 451.937 86.5159 451.728 86.5744 451.474C86.6739 451.043 86.8992 450.414 87.2503 449.586C87.9993 447.728 88.8499 446.066 89.8021 444.602C90.3405 443.31 91.1384 441.704 92.1958 439.783C93.5868 437.111 94.3525 435.47 94.4929 434.861C94.7349 434.623 95.329 433.611 96.2752 431.825C97.6506 429.336 99.2592 426.647 101.101 423.758C102.968 420.875 104.604 419.168 106.01 418.638C106.765 420.229 107.053 421.939 106.871 423.768C106.838 424.722 106.879 425.707 106.992 426.722C107.728 433.734 107.973 442.116 107.73 451.868L107.718 453.309C108.454 452.784 109.224 451.706 110.027 450.074C111.009 448.135 115.056 442.695 122.168 433.754C124.693 430.568 126.451 428.448 127.442 427.394C128.464 426.321 129.293 425.857 129.927 426.004C130.181 426.062 130.433 426.187 130.683 426.378C130.741 426.472 130.593 427.694 130.238 430.044C129.159 437.279 128.797 441.632 129.152 443.103C128.922 443.638 128.716 444.299 128.535 445.086C128.172 446.659 127.795 449.338 127.404 453.123C127.258 454.8 127.1 456.18 126.93 457.263L124.466 472.129C124.642 473.105 124.27 475.585 123.352 479.569C123.001 481.092 122.708 482.013 122.474 482.333C122.105 482.542 121.629 482.579 121.046 482.444Z" fill="#FF629A"/>
<path d="M55.9484 476.546C51.4318 477.589 46.6685 477.62 41.6585 476.638C40.0406 476.343 38.1982 475.713 36.1315 474.747C31.6156 472.663 28.5646 469.745 26.9786 465.996C26.7484 465.461 26.4763 464.976 26.1621 464.54C24.9757 463.104 23.7965 460.249 22.6244 455.976C22.4762 455.449 22.3407 454.919 22.2178 454.386C20.9718 448.981 21.1495 443.956 22.7509 439.31C24.3465 434.638 27.9494 430.385 33.5596 426.551C35.7869 424.968 37.8775 423.951 39.8313 423.5L41.1429 423.277C42.3355 423.002 43.3759 422.588 44.2641 422.035C44.8946 421.756 45.527 421.543 46.1613 421.397C46.7957 421.25 47.7179 421.078 48.9281 420.878C50.1324 420.654 51.4245 420.462 52.8044 420.304C54.1785 420.121 55.1807 420.063 55.8111 420.131C56.2755 420.986 56.6949 422.052 57.0693 423.329C57.1805 423.811 57.3725 424.702 57.6455 426.002C57.9126 427.276 57.7933 428.44 57.2876 429.492C57.1412 429.553 56.9538 429.609 56.7254 429.662C56.1672 429.791 55.3192 429.88 54.1813 429.929C51.5015 430.013 49.0705 430.307 46.8883 430.81C45.2136 431.197 43.5408 431.824 41.8699 432.691L41.7352 432.802C40.1034 433.606 38.5827 434.545 37.1733 435.619C35.3735 436.97 34.2586 438.858 33.8287 441.282C33.6274 442.612 33.4008 443.426 33.149 443.724L33.3157 444.448C33.5497 445.463 33.7573 446.711 33.9385 448.193C34.0866 449.414 34.2503 450.472 34.4297 451.366C35.1532 453.926 36.1823 456.187 37.5169 458.151C38.0008 458.974 38.4378 459.769 38.828 460.534C39.673 460.954 40.4136 461.384 41.0498 461.825C41.7113 462.26 42.3768 462.655 43.0462 463.008C43.7097 463.336 44.5363 463.559 45.5258 463.678C47.1203 463.871 49.806 463.639 53.5828 462.981C54.1723 462.871 54.7012 462.789 55.1697 462.735C56.9048 462.494 58.3521 462.28 59.5115 462.093C61.0008 461.829 62.1055 461.695 62.8257 461.689C63.54 461.657 64.0426 461.809 64.3333 462.142C64.6182 462.451 64.8826 463.018 65.1264 463.844C65.4462 464.999 65.8314 466.206 66.282 467.465C66.6663 468.553 66.991 469.614 67.2562 470.648C67.2972 470.826 67.3352 470.991 67.3703 471.143C67.4756 471.6 67.5009 471.941 67.4462 472.168C67.0948 472.73 66.5404 473.165 65.783 473.474C65.0198 473.757 64.2322 473.992 63.4203 474.18C62.6337 474.361 61.932 474.563 61.3151 474.786C59.5643 475.538 57.7753 476.124 55.9484 476.546Z" fill="#9F54FF"/>
<path d="M81.8971 381.491C88.735 382.964 92.7899 381.716 94.062 377.746C94.675 375.321 94.0861 373.215 92.2952 371.428C91.6196 370.855 90.5863 370.207 89.1953 369.483C87.8044 368.759 86.746 368.293 86.02 368.085L84.5845 373.24C83.8032 375.969 82.9074 378.719 81.8971 381.491ZM68.1332 413.101L67.6451 412.961C66.3934 412.603 65.3171 412.104 64.4162 411.467C64.9262 407.793 65.7762 403.878 66.9661 399.722C67.8478 396.643 68.9209 393.415 70.1855 390.039C71.4824 386.456 72.5322 383.262 73.3351 380.458L74.8892 374.321L75.2117 373.194C76.1364 369.964 76.8295 368.253 77.2911 368.061C77.3342 367.721 77.4382 367.263 77.603 366.687C77.7177 366.287 77.913 365.652 78.1889 364.783C78.4899 363.921 78.8696 362.878 79.3282 361.655C79.8118 360.439 80.1878 359.599 80.4563 359.134C81.3936 358.888 82.8635 359.052 84.8661 359.627C87.6949 360.438 90.6682 361.642 93.7862 363.241C96.3392 364.542 98.0803 365.745 99.0096 366.852C100.325 368.502 101.093 369.508 101.315 369.87C101.751 370.618 102.136 372.205 102.471 374.631C102.581 376.044 102.371 377.677 101.84 379.529C101.819 379.604 101.649 380.152 101.33 381.171C101.011 382.19 100.379 383.12 99.4342 383.96C98.7681 385.34 97.6048 386.754 95.9444 388.201C94.2839 389.648 92.7114 390.552 91.2268 390.912C87.3421 391.613 83.4131 391.57 79.4398 390.783C78.9672 391.677 78.2813 393.268 77.3822 395.557C75.5159 400.278 74.185 404.027 73.3893 406.806L73.0828 408.019C72.8821 408.72 72.7011 409.305 72.5399 409.773L72.3786 410.336C72.099 411.313 71.9894 412.311 72.0496 413.33C70.9371 413.526 69.6316 413.45 68.1332 413.101Z" fill="#FFB240"/>
<path d="M47.6815 921.579C53.8191 919.935 56.5836 916.161 55.9748 910.258C55.8533 909.401 55.7426 908.433 55.6428 907.354C55.3333 904.283 55.0136 902.131 54.6838 900.898C52.7119 893.527 48.4967 887.445 42.0383 882.651C41.5586 882.672 41.1317 882.638 40.7576 882.549C40.1805 882.407 39.6026 882.414 39.0241 882.569C38.5713 882.69 38.0013 882.978 37.3139 883.432C35.309 884.804 34.0468 885.83 33.5274 886.509C32.2746 888.678 31.6196 891.67 31.5624 895.487C31.5052 899.304 31.7963 902.407 32.4356 904.797L33.6041 909.013C34.2098 911.277 34.7098 913.449 35.104 915.527C35.3775 915.642 36.0943 916.407 37.2546 917.822C38.6163 919.587 39.6807 920.744 40.4477 921.293C41.7366 922.08 43.7009 922.268 46.3407 921.858C46.8069 921.787 47.2538 921.694 47.6815 921.579ZM46.6915 932.238C41.6103 933.599 37.2435 932.693 33.591 929.52C32.379 928.416 30.9173 926.53 29.2059 923.861C27.4945 921.192 26.0321 918.497 24.8188 915.775C24.3197 914.615 23.949 913.582 23.7067 912.676C23.3836 911.469 23.3015 910.507 23.4602 909.79C23.2636 909.358 23.0845 908.839 22.923 908.236C22.5663 906.902 22.2644 904.867 22.0172 902.129C21.77 899.392 21.7625 896.441 21.9947 893.279C22.2521 890.109 22.839 887.971 23.7556 886.862C23.8698 884.971 25.1603 882.792 27.6273 880.325C30.0875 877.832 32.6264 876.087 35.2439 875.089L37.2787 874.382C38.0132 874.105 38.6571 873.892 39.2105 873.743C39.7454 873.627 40.3576 873.598 41.0471 873.656C42.7044 873.805 44.4793 874.192 46.3719 874.817C48.9507 875.69 50.4962 876.529 51.0084 877.336C52.1846 877.802 53.3412 878.8 54.478 880.329C55.6332 881.826 56.6425 883.281 57.5058 884.694C58.3624 886.082 58.941 886.884 59.2414 887.1C59.811 888.322 60.415 889.522 61.0534 890.699C62.4325 893.133 63.5048 895.731 64.2703 898.491C64.3277 898.907 64.37 899.368 64.3972 899.873C64.4178 900.352 64.4432 900.75 64.4737 901.065C64.6083 901.569 64.7436 901.923 64.8797 902.129C65.0341 902.304 65.2004 902.623 65.3786 903.088C65.616 904.075 65.6864 905.095 65.59 906.145C65.562 906.746 65.5558 907.327 65.5713 907.889C65.77 910.747 65.3968 913.786 64.4518 917.005C63.5319 920.217 61.9951 922.786 59.8413 924.711C58.2629 926.67 55.8851 928.413 52.7078 929.938C50.5835 930.966 48.5781 931.732 46.6915 932.238Z" fill="#3DFF7F"/>
<path d="M87.9137 939.057L96.5448 941.41C96.8452 941.496 97.0097 941.489 97.0384 941.389L97.0278 941.142C97.1374 937.164 97.3716 934.17 97.7305 932.16C98.1542 929.356 98.107 927.486 97.5889 926.552L96.166 928.542C94.6268 930.511 93.553 931.991 92.9443 932.982L91.3069 934.869C89.5532 936.832 88.4221 938.228 87.9137 939.057ZM73.4696 959.704L73.2443 959.639C72.7687 959.503 71.5332 959.04 69.5378 958.251C67.3673 957.412 66.1783 956.882 65.971 956.66C65.9354 956.406 65.9606 956.128 66.0466 955.828C66.3261 954.851 67.4986 952.98 69.564 950.213C70.3121 949.208 70.8634 948.418 71.2178 947.842C71.6081 947.142 72.1773 946.194 72.9256 945C74.848 941.975 76.3227 940.136 77.3496 939.482C77.5252 938.964 77.9405 938.175 78.5957 937.117C79.8845 935.075 81.1428 933.282 82.3705 931.738C84.4072 929.071 87.446 925.364 91.4869 920.617C96.2257 915.04 98.9868 912.161 99.7703 911.979C100.765 910.585 101.794 909.688 102.857 909.288C103.593 910.312 103.994 912.554 104.06 916.013C104.084 917.348 104.019 918.332 103.865 918.965C104.194 919.709 104.411 921.316 104.517 923.784C104.552 925.365 104.683 926.609 104.912 927.514C104.925 928.412 104.98 929.782 105.076 931.625L105.609 945.513C106.113 959.176 106.239 966.445 105.988 967.322L105.978 967.359C105.423 967.688 104.922 967.829 104.475 967.782C104.21 967.76 103.928 967.706 103.627 967.62C103.452 967.57 103.243 967.496 103 967.399C102.789 967.285 102.533 967.184 102.233 967.098L100.784 966.764C100.37 966.699 99.9869 966.617 99.6365 966.516C98.9356 966.315 98.3045 966.012 97.7431 965.608C97.2503 964.301 97.0396 960.638 97.1111 954.617C97.1592 951.895 97.1104 949.795 96.9646 948.317C96.4317 948.191 95.8917 948.091 95.3445 948.015C94.8223 947.946 94.2358 947.819 93.585 947.632L93.1719 947.514C92.7035 947.352 92.0812 947.16 91.3052 946.938C89.1524 946.321 86.4719 945.796 83.2639 945.364C81.6426 947.147 79.2424 950.563 76.0633 955.612L73.4696 959.704Z" fill="#9F54FF"/>
<path d="M62.0134 1010.02C61.2245 1010.42 60.2666 1010.8 59.1398 1011.17C58.0248 1011.57 57.2512 1011.65 56.8188 1011.44C56.4666 1011.03 55.8831 1010.03 55.0684 1008.43C53.6632 1005.66 52.2924 1002.83 50.956 999.911C47.8112 993.213 46.1712 989.358 46.0359 988.345C45.6365 987.847 45.1829 987.099 44.6752 986.101L43.1867 983.09L42.3359 981.331C42.1352 980.936 41.8699 980.472 41.5401 979.939C40.9745 979 40.4379 978.031 39.9301 977.033C39.3987 975.988 39.096 975.164 39.0218 974.558C38.4937 973.98 37.9699 973.18 37.4503 972.159L37.1663 971.514C37.0482 971.282 36.9245 971.068 36.795 970.87C35.2155 971.441 33.3584 972.271 31.2237 973.358C29.1122 974.434 27.1401 975.468 25.3075 976.461C24.2173 977.074 23.3126 977.565 22.5933 977.931C21.874 978.298 21.433 978.493 21.2701 978.518C20.4473 977.417 19.6407 976.148 18.8503 974.709C18.071 973.177 17.5898 971.829 17.4069 970.666C19.5497 969.077 22.5867 967.15 26.5178 964.884L55.5457 950.181C56.1328 950.875 56.9282 952.209 57.9319 954.182C58.3925 955.087 58.682 955.685 58.8005 955.975C58.9784 956.44 59.0401 956.935 58.9857 957.459C58.9409 957.716 58.9143 958.066 58.9058 958.508C57.9882 958.83 56.3113 959.611 53.8749 960.853C48.863 963.406 45.9923 964.971 45.2629 965.548L49.2451 972.944L50.9417 975.762L58.7206 991.483C59.4772 993.085 60.247 994.914 61.0301 996.97C61.5302 998.528 62.1758 1000.08 62.9669 1001.64L64.3119 1004.11C64.737 1004.95 65.1213 1005.79 65.465 1006.64C65.4147 1007.74 64.2641 1008.87 62.0134 1010.02Z" fill="#FF498B"/>
<path d="M93.6924 1021.98C93.0837 1025.44 91.1486 1028.07 87.8873 1029.84C84.6549 1031.6 81.4206 1032.51 78.1843 1032.59C76.1755 1032.71 74.3005 1032.7 72.5592 1032.57C72.0132 1032.53 71.4559 1032.47 70.8873 1032.4C69.6207 1032.25 68.2733 1032 66.8448 1031.67C66.8504 1029.91 67.1281 1026.47 67.6781 1021.34C67.9052 1019.06 68.1551 1016.81 68.4277 1014.59C68.7699 1011.79 69.2257 1008.5 69.7949 1004.72C70.3674 1000.9 70.9382 998.496 71.5076 997.49C71.4749 997.328 71.5108 996.821 71.6154 995.968C71.72 995.115 71.8549 994.122 72.0202 992.988C72.1855 991.853 72.3476 990.745 72.5066 989.663C72.7163 988.167 72.8657 987.162 72.9549 986.648C73.088 985.562 73.1903 984.407 73.2617 983.183C73.2887 982.32 73.3514 981.488 73.4496 980.687C73.6366 979.162 73.9531 977.758 74.399 976.475L75.7948 976.646C77.4585 976.772 79.04 976.926 80.5391 977.11C81.4438 977.222 82.3081 977.341 83.1321 977.468C84.1111 977.615 85.1563 977.756 86.2678 977.893L88.8267 978.207C89.6538 978.308 90.5229 978.389 91.4339 978.448C92.3771 978.459 93.2752 978.517 94.1281 978.622C95.5756 978.799 96.9152 979.108 98.1468 979.548L97.6722 983.74C97.6405 983.999 97.6249 984.233 97.6254 984.443C97.6164 984.73 97.596 985.003 97.5643 985.262C97.4724 986.011 97.2864 986.566 97.0062 986.925C96.6875 987.384 95.8562 987.531 94.5121 987.366L94.3182 987.343C92.9483 987.174 91.5718 986.953 90.1887 986.678C89.0868 986.464 87.9946 986.277 86.9122 986.118L85.5939 985.956C84.2499 985.791 82.896 985.599 81.5325 985.379C80.7959 989.46 80.0336 993.538 79.2454 997.613C78.984 999.103 78.7192 1000.51 78.4511 1001.85C80.1185 1002.15 81.8945 1002.65 83.7792 1003.33C85.6639 1004 87.2276 1004.84 88.4702 1005.83C90.4652 1006.68 91.9979 1008.09 93.0684 1010.05C93.6912 1011.18 94.1349 1012.38 94.3996 1013.64C94.4654 1014.18 94.4998 1015.07 94.5028 1016.33C94.5058 1017.59 94.4489 1018.8 94.3321 1019.97L94.2988 1020.24C94.1752 1021.25 93.9731 1021.83 93.6924 1021.98ZM74.8522 1022.85L74.6983 1025.39C75.5096 1025.62 76.3159 1025.79 77.1172 1025.89C78.4354 1026.05 79.7629 1026.03 81.0996 1025.82C82.094 1025.63 82.8911 1025.33 83.491 1024.94C84.0908 1024.54 84.6437 1024.09 85.1497 1023.6C85.4784 1023.28 85.8329 1022.95 86.2133 1022.63C86.3284 1022.12 86.4548 1021.63 86.5925 1021.15C86.8042 1020.49 86.9736 1019.75 87.1009 1018.92C87.4353 1015.56 86.0776 1013.04 83.0278 1011.38C81.7213 1010.69 80.3572 1010.27 78.9356 1010.09C78.2377 1010 77.5319 1009.98 76.8182 1010.03L76.7992 1010.18C76.6424 1010.82 76.5402 1011.33 76.4927 1011.72L76.4594 1011.99C76.4151 1012.35 76.3968 1012.82 76.4046 1013.4L74.8522 1022.85Z" fill="#FFB240"/>
<path d="M51.9191 1082.98C50.5876 1083.43 49.4842 1083.83 48.609 1084.16L47.4785 1084.6C46.7734 1084.87 46.2096 1085.07 45.787 1085.21C45.4733 1084.82 45.2746 1084.52 45.1907 1084.31C45.1068 1084.09 45.063 1083.94 45.0594 1083.85C45.0821 1083.62 45.0049 1083.28 44.8278 1082.81C44.6414 1082.33 44.4372 1081.9 44.2151 1081.54C44.0174 1081.17 43.8411 1080.82 43.6863 1080.49C43.2855 1079.44 43.0165 1078.49 42.8791 1077.62C42.7044 1076.65 42.4447 1075.72 42.0998 1074.82C40.0413 1070.03 38.341 1065.89 36.9988 1062.39C35.5356 1058.57 34.3483 1055.4 33.4369 1052.88C31.2191 1046.73 30.1096 1043.36 30.1084 1042.77C29.1735 1041.21 28.3939 1039.61 27.7694 1037.98C27.3966 1037.01 27.0818 1036.04 26.8248 1035.08C26.6498 1034.48 26.4579 1033.87 26.2492 1033.25C26.9299 1032.99 27.5677 1032.69 28.1626 1032.35C28.7724 1031.97 29.7169 1031.53 30.9961 1031.01C32.5185 1030.4 35.3705 1029.29 39.5521 1027.68C45.6824 1025.41 49.5672 1024.27 51.2067 1024.25C51.4567 1024.69 51.6889 1025.19 51.9033 1025.74C52.0804 1026.21 52.2471 1026.71 52.4035 1027.27C52.5506 1027.8 52.722 1028.32 52.9178 1028.83C53.4243 1030.59 52.82 1031.92 51.1048 1032.83C50.2518 1033.3 49.3513 1033.71 48.4031 1034.08C47.4306 1034.45 46.4152 1034.78 45.3568 1035.08C44.2891 1035.35 43.2082 1035.69 42.1142 1036.11C40.7114 1036.82 39.2928 1037.45 37.8584 1038L41.8531 1049.18C42.0411 1049.89 42.2983 1050.67 42.6245 1051.52C43.0439 1052.62 43.58 1053.84 44.2328 1055.17C44.9415 1056.66 45.5289 1058.01 45.9949 1059.23C46.1813 1059.71 47.5603 1063.67 50.1319 1071.11L52.2599 1076.45C52.6627 1077.35 52.9899 1078.13 53.2416 1078.79C53.4932 1079.44 53.6991 1080.09 53.8591 1080.73C54.0435 1081.35 53.9617 1081.83 53.6136 1082.16C53.3348 1082.38 52.77 1082.65 51.9191 1082.98Z" fill="#3DFF7F"/>
<path d="M63.1567 1099.5L61.382 1098.78L60.4569 1097.73L62.2201 1095.03L63.8715 1090.94C64.1054 1090.36 66.571 1090.44 71.2683 1091.19C73.3884 1090.39 74.7895 1089.14 75.4715 1087.45C76.7673 1084.24 76.6525 1071.02 75.127 1047.79C75.3579 1044.99 75.6048 1043.27 75.8679 1042.62L77.2607 1042.51L83.128 1044.88C84.32 1045.61 84.6858 1052.57 84.2254 1065.75C84.8773 1066.02 85.341 1069.39 85.6163 1075.88L86.1958 1076.11C87.2099 1076.52 93.0616 1070.47 103.751 1057.97C104.754 1055.48 107.52 1054.79 112.047 1055.89C114.585 1057.53 115.722 1058.68 115.459 1059.33C92.7534 1085.26 79.1118 1098.82 74.5343 1100.01C70.8367 1101.24 67.0441 1101.07 63.1567 1099.5Z" fill="#E440FF"/>
<path d="M42.6274 1119.57C44.4698 1118.55 46.0689 1116.98 47.4247 1114.84C48.8048 1112.69 49.0448 1110.3 48.1449 1107.66C47.6339 1106.55 46.8984 1105.57 45.9385 1104.74C45.0029 1103.9 43.9538 1103.38 42.7913 1103.19C41.9894 1103.13 40.992 1103.22 39.7991 1103.46C38.6212 1103.66 37.7161 1103.88 37.084 1104.12L38.9658 1108.92C40.3359 1112.5 41.5564 1116.05 42.6274 1119.57ZM54.1601 1142.67C56.8344 1141.65 58.5668 1140.38 59.3574 1138.88C59.7001 1138.25 59.9607 1137.62 60.139 1136.99L60.6507 1135.71C60.498 1135.23 60.3648 1134.74 60.2514 1134.23C60.1399 1133.57 59.9304 1132.84 59.6229 1132.04C58.9555 1130.37 57.9242 1128.96 56.5291 1127.79C55.1583 1126.61 53.5784 1126.02 51.7895 1126.01C50.0528 1126.06 48.6617 1126.29 47.6163 1126.69C47.0571 1126.91 46.5044 1127.17 45.9582 1127.5L46.0281 1127.68C46.1975 1128.34 46.3847 1128.94 46.5897 1129.47C46.7202 1129.81 46.9198 1130.22 47.1884 1130.71L50.2726 1141.15L51.3636 1143.45C52.3527 1143.27 53.2848 1143.01 54.1601 1142.67ZM52.2243 1151.16C50.8629 1151.68 49.3743 1152.13 47.7588 1152.5C47.1563 1151.36 46.1297 1149.12 44.679 1145.77C42.9151 1141.68 41.1664 1137.37 39.4329 1132.85C38.2213 1129.68 37.2196 1126.89 36.4278 1124.46C35.9059 1123.1 35.369 1121.77 34.8171 1120.48C34.7332 1120.26 34.6419 1120.05 34.543 1119.87L34.3333 1119.32C33.9082 1118.29 33.3042 1116.75 32.5214 1114.7C31.2818 1111.47 30.7913 1109.61 31.0498 1109.12C30.9043 1108.81 30.7198 1108.37 30.4961 1107.78C30.347 1107.39 30.1168 1106.76 29.8056 1105.87C29.5094 1104.95 29.1723 1103.85 28.7942 1102.58C28.4311 1101.27 28.2003 1100.34 28.1019 1099.79C28.7234 1098.94 30.0553 1098.12 32.0975 1097.33C32.1948 1097.3 32.8194 1097.07 33.9714 1096.66C35.1234 1096.24 36.9109 1095.85 39.334 1095.48C41.7721 1095.07 43.6387 1095.07 44.9337 1095.46C46.8155 1096.08 47.9628 1096.49 48.3757 1096.69C49.1585 1097.06 50.3612 1098.16 51.9836 1099.99C52.8629 1101.05 53.6288 1102.43 54.2812 1104.13C54.3557 1104.33 54.5738 1104.97 54.9352 1106.06C55.321 1107.14 55.4103 1108.32 55.2033 1109.6C55.54 1111.06 55.6233 1112.66 55.4532 1114.39C55.3073 1116.12 54.8636 1117.55 54.1221 1118.67C54.6922 1118.7 55.2062 1118.77 55.6641 1118.87L57.7391 1118.83C58.0119 1119.03 58.463 1119.26 59.0927 1119.52C60.9425 1120.35 62.5021 1121.51 63.7716 1123C64.0889 1123.46 64.5796 1124.31 65.2438 1125.53C66.0311 1126.93 66.6577 1128.24 67.1237 1129.45C67.5059 1130.45 67.6126 1131.09 67.4441 1131.38C67.7087 1132.15 67.8037 1133.27 67.7292 1134.75C67.6546 1136.22 67.4119 1137.63 67.0011 1138.96C66.6145 1140.28 66.0977 1141.08 65.4506 1141.35C65.246 1142.13 64.7142 1142.96 63.8551 1143.85C62.2943 1145.45 60.458 1146.88 58.3461 1148.14C56.064 1149.46 54.0234 1150.47 52.2243 1151.16Z" fill="#4053FF"/>
<path d="M105.769 895.029C104.914 895.258 103.897 895.436 102.718 895.563C101.546 895.716 100.771 895.64 100.393 895.337C100.133 894.867 99.7702 893.765 99.3058 892.029C98.5049 889.035 97.7534 885.974 97.0514 882.846C95.3664 875.641 94.5629 871.529 94.6408 870.511C94.3535 869.941 94.0652 869.115 93.7758 868.033L92.9453 864.778L92.4783 862.881C92.3639 862.453 92.2007 861.944 91.9889 861.354C91.6308 860.318 91.307 859.259 91.0176 858.177C90.7147 857.045 90.5899 856.175 90.643 855.568C90.2466 854.892 89.9004 854.001 89.6042 852.894L89.4602 852.205C89.3929 851.953 89.3164 851.717 89.2307 851.498C87.567 851.728 85.578 852.153 83.2638 852.773C80.9748 853.386 78.8308 853.988 76.8319 854.577C75.638 854.951 74.6511 855.243 73.8713 855.452C73.0916 855.66 72.6195 855.76 72.4551 855.75C71.8787 854.503 71.3534 853.093 70.8791 851.522C70.4349 849.861 70.2441 848.443 70.3069 847.267C72.7331 846.159 76.1043 844.905 80.4206 843.506L111.871 835.159C112.301 835.961 112.802 837.431 113.374 839.569C113.637 840.55 113.796 841.195 113.851 841.504C113.929 841.995 113.887 842.492 113.724 842.994C113.627 843.235 113.529 843.572 113.428 844.003C112.464 844.127 110.661 844.542 108.02 845.25C102.587 846.706 99.4533 847.64 98.62 848.052L100.979 856.114L102.054 859.223L106.398 876.217C106.805 877.941 107.178 879.89 107.517 882.064C107.683 883.691 107.991 885.348 108.442 887.033L109.245 889.73C109.487 890.636 109.688 891.539 109.848 892.439C109.569 893.512 108.209 894.375 105.769 895.029Z" fill="#E440FF"/>
<path d="M54.053 843.91L52.7281 843.817C51.663 843.743 49.6143 843.547 46.5821 843.231L46.5876 843.153L42.844 842.93L40.1525 842.781C38.2301 842.647 36.508 842.448 34.9862 842.185C34.9639 841.009 35.0211 838.507 35.1578 834.679C35.404 827.412 35.7212 821 36.1093 815.44C36.6116 808.244 37.1181 804.168 37.6286 803.212C37.4843 802.288 37.4847 800.787 37.6298 798.709C37.8837 795.072 38.2832 791.406 38.8283 787.711C39.5472 787.135 42.2058 787.007 46.8039 787.329C48.7263 787.463 50.7759 787.646 52.9526 787.876C53.8842 787.994 54.8696 788.089 55.9087 788.161C56.792 788.223 57.729 788.262 58.7198 788.279C59.7384 788.272 60.7283 788.302 61.6895 788.37C64.3912 788.559 66.8253 789.029 68.9917 789.781C69.2013 790.892 69.2535 792.201 69.1483 793.708C69.1012 794.383 69.0057 795.003 68.8619 795.567C68.6147 796.49 68.1664 796.928 67.517 796.883L59.4924 796.283L51.5096 795.646C48.9897 795.47 47.2993 795.378 46.4384 795.37L46.1926 798.329L46.0213 800.784L45.8109 803.236C45.5583 805.359 45.3631 807.407 45.2252 809.382C45.1672 810.213 45.146 810.89 45.1617 811.414C45.535 811.675 47.9299 811.96 52.3462 812.268C55.0479 812.457 57.6681 812.693 60.2067 812.975C62.7453 813.257 64.4919 813.666 65.4464 814.202C65.7442 815.92 65.8559 817.312 65.7815 818.377C65.6999 819.546 65.3848 820.32 64.8362 820.699C63.9318 821.315 61.6871 821.497 58.1021 821.246L56.1954 821.074L51.9842 820.819L44.6755 820.621L43.5341 832.484C45.9192 833.095 50.6708 833.649 57.7888 834.147C62.8806 834.503 65.5983 834.836 65.9421 835.147C66.2906 836.138 66.4066 837.281 66.2899 838.579C66.1974 839.903 65.9971 841.09 65.6889 842.139C65.4067 843.19 64.9068 843.807 64.189 843.992C63.6048 844.134 62.949 844.179 62.2216 844.129L60.4681 844.006L54.053 843.91Z" fill="#FF498B"/>
<path d="M110.579 823.142C106.063 824.185 101.299 824.216 96.2894 823.234C94.6714 822.94 92.8291 822.309 90.7624 821.343C86.2464 819.259 83.1955 816.342 81.6095 812.592C81.3793 812.057 81.1071 811.572 80.793 811.137C79.6066 809.7 78.4274 806.845 77.2553 802.572C77.107 802.045 76.9715 801.515 76.8487 800.982C75.6026 795.577 75.7804 790.552 77.3818 785.906C78.9774 781.234 82.5803 776.982 88.1905 773.147C90.4178 771.564 92.5083 770.547 94.4622 770.096L95.7738 769.873C96.9664 769.598 98.0068 769.184 98.8949 768.631C99.5254 768.352 100.158 768.139 100.792 767.993C101.427 767.847 102.349 767.674 103.559 767.475C104.763 767.25 106.055 767.059 107.435 766.9C108.809 766.717 109.812 766.659 110.442 766.727C110.906 767.582 111.326 768.648 111.7 769.925C111.811 770.407 112.003 771.298 112.276 772.598C112.543 773.873 112.424 775.036 111.918 776.088C111.772 776.149 111.585 776.205 111.356 776.258C110.798 776.387 109.95 776.476 108.812 776.525C106.132 776.609 103.701 776.903 101.519 777.407C99.8445 777.793 98.1717 778.42 96.5008 779.287L96.3661 779.398C94.7342 780.203 93.2136 781.142 91.8042 782.215C90.0044 783.566 88.8895 785.454 88.4596 787.878C88.2583 789.208 88.0317 790.022 87.7799 790.321L87.9466 791.044C88.1806 792.059 88.3882 793.307 88.5694 794.789C88.7174 796.011 88.8812 797.069 89.0605 797.963C89.7841 800.522 90.8132 802.783 92.1478 804.747C92.6316 805.57 93.0687 806.365 93.4588 807.13C94.3039 807.55 95.0445 807.98 95.6807 808.421C96.3422 808.856 97.0077 809.251 97.6771 809.604C98.3406 809.932 99.1671 810.155 100.157 810.274C101.751 810.467 104.437 810.235 108.214 809.577C108.803 809.467 109.332 809.385 109.801 809.331C111.536 809.091 112.983 808.877 114.142 808.689C115.632 808.426 116.736 808.291 117.457 808.285C118.171 808.254 118.673 808.405 118.964 808.739C119.249 809.047 119.513 809.614 119.757 810.44C120.077 811.595 120.462 812.803 120.913 814.062C121.297 815.149 121.622 816.21 121.887 817.244C121.928 817.422 121.966 817.587 122.001 817.739C122.106 818.196 122.132 818.538 122.077 818.764C121.726 819.326 121.171 819.762 120.414 820.07C119.651 820.353 118.863 820.588 118.051 820.776C117.265 820.958 116.563 821.16 115.946 821.382C114.195 822.134 112.406 822.721 110.579 823.142Z" fill="#4053FF"/>
<path d="M91.8484 1289.52C97.8194 1291.7 102.246 1290.19 105.128 1285C105.52 1284.23 105.983 1283.37 106.519 1282.43C108.025 1279.74 108.996 1277.79 109.432 1276.59C112.038 1269.42 112.068 1262.02 109.522 1254.39C109.117 1254.13 108.787 1253.85 108.531 1253.57C108.139 1253.12 107.662 1252.79 107.099 1252.59C106.659 1252.43 106.027 1252.34 105.204 1252.32C102.774 1252.29 101.153 1252.41 100.339 1252.66C98.0698 1253.72 95.8189 1255.8 93.5859 1258.89C91.3529 1261.99 89.8139 1264.7 88.9689 1267.02L87.5113 1271.15C86.7108 1273.35 85.8769 1275.42 85.0096 1277.35C85.1676 1277.6 85.3168 1278.64 85.4572 1280.46C85.562 1282.69 85.7714 1284.25 86.0851 1285.14C86.6904 1286.52 88.1922 1287.8 90.5904 1288.98C91.0131 1289.19 91.4324 1289.37 91.8484 1289.52ZM84.9324 1297.69C79.9892 1295.89 76.93 1292.64 75.7548 1287.95C75.3942 1286.35 75.2771 1283.96 75.4034 1280.79C75.5298 1277.62 75.8752 1274.58 76.4399 1271.65C76.6955 1270.41 76.9834 1269.36 77.3036 1268.47C77.7306 1267.3 78.2143 1266.46 78.7548 1265.97C78.8415 1265.5 78.9916 1264.97 79.205 1264.39C79.6764 1263.09 80.5949 1261.25 81.9604 1258.86C83.326 1256.48 85.0096 1254.06 87.0113 1251.6C89.0375 1249.15 90.7435 1247.73 92.1294 1247.35C93.3059 1245.86 95.6115 1244.82 99.0461 1244.21C102.49 1243.58 105.569 1243.61 108.286 1244.29L110.358 1244.88C111.119 1245.07 111.768 1245.27 112.307 1245.46C112.812 1245.68 113.33 1246 113.862 1246.45C115.134 1247.52 116.367 1248.85 117.56 1250.45C119.173 1252.65 119.958 1254.22 119.916 1255.18C120.612 1256.23 120.989 1257.71 121.045 1259.62C121.134 1261.51 121.127 1263.28 121.025 1264.93C120.932 1266.56 120.947 1267.55 121.069 1267.9C120.836 1269.23 120.643 1270.56 120.492 1271.89C120.228 1274.67 119.619 1277.42 118.665 1280.12C118.474 1280.49 118.245 1280.9 117.978 1281.32C117.72 1281.73 117.513 1282.07 117.357 1282.35C117.179 1282.84 117.087 1283.2 117.08 1283.45C117.107 1283.68 117.061 1284.04 116.94 1284.52C116.569 1285.47 116.043 1286.34 115.363 1287.15C114.996 1287.62 114.658 1288.1 114.348 1288.57C112.874 1291.02 110.828 1293.3 108.21 1295.39C105.616 1297.5 102.886 1298.72 100.018 1299.06C97.6025 1299.76 94.6562 1299.83 91.1791 1299.26C88.85 1298.88 86.7677 1298.36 84.9324 1297.69Z" fill="#3DFF7F"/>
<path d="M40.1657 1339.07L48.9244 1337.24C49.2311 1337.18 49.3746 1337.1 49.3547 1337L49.2334 1336.79C47.5276 1333.19 46.379 1330.42 45.7875 1328.46C44.8937 1325.77 44.0042 1324.13 43.119 1323.53L42.7529 1325.95C42.2742 1328.4 41.9882 1330.21 41.8948 1331.37L41.2911 1333.79C40.6179 1336.34 40.2427 1338.1 40.1657 1339.07ZM36.6534 1364.02L36.4234 1364.07C35.9377 1364.16 34.6269 1364.31 32.491 1364.51C30.1762 1364.75 28.8761 1364.82 28.5907 1364.71C28.4438 1364.5 28.3405 1364.25 28.281 1363.94C28.0875 1362.94 28.2838 1360.74 28.87 1357.34C29.0813 1356.1 29.2144 1355.15 29.2693 1354.47C29.2994 1353.67 29.3771 1352.57 29.5026 1351.17C29.8446 1347.6 30.325 1345.29 30.9438 1344.24C30.8651 1343.7 30.8778 1342.81 30.9819 1341.57C31.205 1339.16 31.5135 1336.99 31.9075 1335.06C32.5135 1331.76 33.5411 1327.08 34.9902 1321.01C36.6852 1313.89 37.8407 1310.07 38.4565 1309.55C38.7112 1307.86 39.2214 1306.59 39.9871 1305.75C41.1074 1306.33 42.4811 1308.15 44.1082 1311.2C44.7348 1312.38 45.1229 1313.28 45.2725 1313.92C45.9029 1314.43 46.8248 1315.77 48.0382 1317.92C48.7862 1319.31 49.4671 1320.36 50.081 1321.06C50.5004 1321.86 51.1703 1323.05 52.0907 1324.65L58.8627 1336.78C65.5054 1348.73 68.9137 1355.15 69.0873 1356.05L69.0948 1356.08C68.7495 1356.63 68.367 1356.98 67.9473 1357.14C67.7016 1357.24 67.4254 1357.32 67.1186 1357.38C66.9397 1357.42 66.7199 1357.45 66.4593 1357.47C66.2193 1357.47 65.946 1357.49 65.6392 1357.55L64.197 1357.91C63.7979 1358.04 63.4194 1358.14 63.0615 1358.21C62.3458 1358.35 61.646 1358.37 60.9623 1358.26C59.9309 1357.32 58.0823 1354.15 55.4164 1348.76C54.2251 1346.31 53.2295 1344.46 52.4297 1343.21C51.8978 1343.34 51.3709 1343.49 50.849 1343.67C50.3526 1343.85 49.7721 1344 49.1074 1344.13L48.6856 1344.21C48.195 1344.28 47.5534 1344.39 46.7609 1344.55C44.5625 1344.98 41.9358 1345.72 38.8809 1346.8C38.2446 1349.12 37.6543 1353.26 37.1098 1359.2L36.6534 1364.02Z" fill="#9F54FF"/>
<path d="M86.3932 1376.17C85.5465 1375.91 84.5894 1375.52 83.522 1375.01C82.4469 1374.52 81.8295 1374.04 81.6696 1373.58C81.6971 1373.05 81.9732 1371.92 82.4978 1370.2C83.4026 1367.24 84.3849 1364.24 85.4446 1361.22C87.8281 1354.21 89.3224 1350.3 89.9274 1349.48C89.9854 1348.84 90.1778 1347.99 90.5048 1346.92L91.523 1343.71L92.1306 1341.86C92.2598 1341.43 92.3908 1340.92 92.5235 1340.3C92.7681 1339.23 93.0539 1338.16 93.3808 1337.09C93.723 1335.97 94.0773 1335.17 94.4438 1334.68C94.4651 1333.9 94.643 1332.96 94.9775 1331.86L95.2202 1331.2C95.2962 1330.95 95.356 1330.71 95.3995 1330.48C93.8665 1329.79 91.9544 1329.1 89.6633 1328.4C87.397 1327.71 85.2601 1327.08 83.2526 1326.52C82.0421 1326.21 81.0507 1325.93 80.2787 1325.69C79.5067 1325.46 79.0536 1325.29 78.9194 1325.2C79.0906 1323.83 79.3908 1322.36 79.82 1320.77C80.3219 1319.13 80.9106 1317.83 81.5862 1316.86C84.2307 1317.21 87.7538 1317.93 92.1555 1319.03L123.25 1328.62C123.191 1329.53 122.838 1331.04 122.192 1333.16C121.895 1334.13 121.689 1334.76 121.573 1335.05C121.378 1335.51 121.08 1335.91 120.676 1336.25C120.466 1336.4 120.204 1336.63 119.891 1336.95C119.008 1336.54 117.259 1335.94 114.644 1335.14C109.264 1333.49 106.112 1332.62 105.188 1332.53L102.922 1340.62L102.188 1343.83L96.8807 1360.55C96.3139 1362.23 95.5991 1364.08 94.7363 1366.1C94.0158 1367.57 93.4009 1369.14 92.8915 1370.81L92.145 1373.52C91.8713 1374.41 91.564 1375.29 91.2232 1376.14C90.4189 1376.9 88.8089 1376.91 86.3932 1376.17Z" fill="#FF629A"/>
<path d="M77.81 1443.46C76.8259 1443.35 76.0544 1443.22 75.4955 1443.05C75.2596 1442.56 75.1279 1441.69 75.1004 1440.46C75.0729 1439.23 75.1245 1437.99 75.2551 1436.74C75.3857 1435.5 75.5702 1434.62 75.8087 1434.09L79.1086 1434.09C83.9256 1434.6 88.7035 1433.86 93.4424 1431.87C94.0461 1431.36 94.7186 1430.81 95.46 1430.23C98.1898 1428.43 100.485 1425.89 102.347 1422.63C100.715 1422.46 99.5394 1422.31 98.8197 1422.18C98.4885 1422.1 98.1675 1422.04 97.8567 1422C97.3156 1421.92 96.724 1421.82 96.082 1421.7C95.4659 1421.58 94.8989 1421.49 94.3809 1421.44L90.8111 1421.02C88.2731 1420.76 86.4827 1420.48 85.4399 1420.18L85.102 1417.04C85.2736 1416.41 85.3907 1415.79 85.4533 1415.2C85.4832 1414.91 85.4989 1414.64 85.5002 1414.38C85.5015 1414.11 85.5158 1413.85 85.543 1413.59C85.6328 1412.74 85.8875 1411.81 86.3071 1410.81C86.8727 1410.66 87.8548 1410.66 89.2533 1410.8L91.5412 1411.08C92.2145 1411.16 92.7986 1411.2 93.2934 1411.23C93.9721 1411.25 94.713 1411.3 95.5158 1411.39C96.6812 1411.51 97.9707 1411.7 99.3842 1411.95C100.645 1412.16 101.792 1412.34 102.825 1412.47C102.963 1412.41 103.15 1412.37 103.385 1412.37C103.306 1411.13 103.175 1410.14 102.992 1409.39C102.489 1407.95 101.805 1406.73 100.939 1405.75C100.192 1404.89 99.7268 1404.08 99.5441 1403.33C98.0528 1402.57 96.5546 1401.62 95.0496 1400.5C91.3376 1397.7 88.0313 1396.14 85.1307 1395.84C83.8617 1395.7 82.1164 1395.74 79.8947 1395.95C79.6821 1395.98 79.4579 1396 79.2221 1396C79.0666 1395.48 78.9247 1394.59 78.7963 1393.32C78.6707 1392.03 78.5887 1390.81 78.5503 1389.68C78.5146 1388.53 78.5267 1387.66 78.5866 1387.09L78.6315 1386.67C79.9058 1386.25 81.4004 1386.11 83.1151 1386.24C84.8584 1386.34 86.0408 1386.43 86.6624 1386.49C88.8378 1386.72 90.9724 1387.09 93.0661 1387.6C95.7241 1388.22 97.4539 1388.95 98.2555 1389.8C99.2342 1389.95 100.33 1390.62 101.541 1391.79C102.403 1392.56 103.393 1393.36 104.511 1394.19C106.326 1395.35 107.93 1397.04 109.32 1399.25C109.773 1399.93 110.23 1400.57 110.69 1401.16C111.139 1402.13 111.594 1403.03 112.057 1403.86C112.758 1405.17 113.377 1406.5 113.914 1407.87C114.942 1410.54 115.24 1413.94 114.807 1418.06L114.499 1420.62C114.055 1423.84 113.214 1426.24 111.975 1427.81C111.327 1430 110.199 1431.88 108.593 1433.47C106.989 1435.03 105.284 1436.42 103.48 1437.64C101.982 1438.69 99.9816 1439.78 97.4779 1440.93C94.977 1442.06 92.9441 1442.59 91.3794 1442.53C90.4853 1443.06 88.9445 1443.4 86.7569 1443.54C84.5924 1443.7 82.7292 1443.74 81.1671 1443.65C79.6283 1443.6 78.5092 1443.53 77.81 1443.46Z" fill="#4053FF"/>
<path d="M82.9748 1498.71L41.9466 1518.85L40.5489 1518.84C37.1908 1511.06 34.5816 1505.27 32.7212 1501.49L22.9201 1481.54C22.1507 1479.97 21.3157 1477.8 20.4151 1475.02C19.8458 1474.81 18.9123 1473.38 17.6147 1470.74L16.7707 1469.02C16.3917 1468.25 18.4849 1466.28 23.0501 1463.11C25.1361 1462.99 26.4678 1463.28 27.0452 1463.98C36.7123 1485.6 43.1305 1499.64 46.3 1506.09L54.2601 1502.19C53.1462 1499.92 51.6683 1496.41 49.8265 1491.66C43.6988 1480.19 38.654 1470.42 34.6922 1462.36C35.5757 1460.97 36.5317 1460.02 37.5604 1459.52L42.6801 1457C43.4856 1456.75 44.0491 1456.95 44.3707 1457.61L58.9088 1487.2L60.0358 1490.91C60.7084 1491.33 61.3605 1492.19 61.9921 1493.47L63.9386 1497.44C65.6685 1496.59 66.9116 1496.22 67.6679 1496.35C68.9689 1495.21 70.2038 1494.36 71.3727 1493.79C65.293 1480.47 60.0771 1469.38 55.7248 1460.52C54.7372 1458.51 52.9598 1455.37 50.3924 1451.09C50.9333 1450.36 51.4025 1449.89 51.8 1449.7C57.1301 1447.08 60.1684 1446.53 60.9148 1448.05C73.5905 1475.8 81.1342 1492.13 83.5457 1497.04C83.9132 1497.79 83.7229 1498.34 82.9748 1498.71Z" fill="#9F54FF"/>
<path d="M111.032 1474.45C118.023 1474.25 121.661 1472.06 121.945 1467.9C121.96 1465.4 120.884 1463.5 118.717 1462.19C117.924 1461.8 116.765 1461.42 115.241 1461.05C113.718 1460.68 112.578 1460.48 111.824 1460.45L111.665 1465.8C111.56 1468.64 111.349 1471.52 111.032 1474.45ZM105.239 1508.44L104.732 1508.42C103.431 1508.37 102.267 1508.15 101.239 1507.74C100.854 1504.05 100.742 1500.05 100.902 1495.73C101.02 1492.53 101.289 1489.14 101.708 1485.56C102.109 1481.77 102.364 1478.42 102.471 1475.5L102.51 1469.17L102.554 1468C102.678 1464.64 102.941 1462.81 103.343 1462.52C103.303 1462.18 103.295 1461.71 103.317 1461.11C103.332 1460.69 103.37 1460.03 103.43 1459.12C103.515 1458.21 103.634 1457.11 103.787 1455.81C103.965 1454.51 104.129 1453.61 104.278 1453.09C105.129 1452.63 106.596 1452.44 108.677 1452.51C111.618 1452.62 114.793 1453.08 118.204 1453.89C120.994 1454.54 122.973 1455.29 124.14 1456.14C125.812 1457.43 126.799 1458.22 127.101 1458.52C127.703 1459.14 128.457 1460.59 129.363 1462.87C129.809 1464.21 129.996 1465.85 129.925 1467.77C129.922 1467.85 129.887 1468.42 129.822 1469.49C129.756 1470.56 129.366 1471.61 128.65 1472.65C128.333 1474.15 127.543 1475.8 126.277 1477.6C125.012 1479.41 123.701 1480.66 122.346 1481.37C118.743 1482.98 114.918 1483.88 110.871 1484.06C110.627 1485.05 110.342 1486.75 110.017 1489.19C109.336 1494.22 108.942 1498.18 108.835 1501.07L108.828 1502.32C108.801 1503.05 108.765 1503.66 108.721 1504.15L108.699 1504.74C108.661 1505.75 108.794 1506.75 109.097 1507.73C108.063 1508.18 106.778 1508.42 105.239 1508.44Z" fill="#3DFF7F"/>
<path d="M52.0117 1434.66C50.6517 1435.02 49.5234 1435.34 48.6268 1435.61L47.4688 1435.97C46.7466 1436.19 46.17 1436.35 45.7391 1436.45C45.4528 1436.05 45.2754 1435.74 45.207 1435.51C45.1386 1435.29 45.1054 1435.14 45.1075 1435.05C45.1463 1434.82 45.0935 1434.47 44.949 1434C44.7969 1433.5 44.6227 1433.06 44.4264 1432.69C44.2549 1432.31 44.1035 1431.94 43.9722 1431.6C43.6452 1430.53 43.4435 1429.56 43.3669 1428.68C43.2599 1427.71 43.0658 1426.76 42.7844 1425.84C41.0646 1420.92 39.6572 1416.66 38.5624 1413.08C37.3687 1409.17 36.4052 1405.92 35.6719 1403.34C33.888 1397.05 33.0159 1393.61 33.0555 1393.03C32.232 1391.4 31.5656 1389.76 31.0562 1388.09C30.752 1387.09 30.5053 1386.1 30.316 1385.13C30.1834 1384.51 30.0344 1383.89 29.8693 1383.26C30.5666 1383.05 31.2238 1382.79 31.8409 1382.5C32.4752 1382.17 33.4486 1381.79 34.7609 1381.36C36.3222 1380.85 39.2446 1379.95 43.5281 1378.64C49.8017 1376.8 53.7568 1375.93 55.3934 1376.03C55.6126 1376.48 55.8096 1376.99 55.9845 1377.56C56.1289 1378.04 56.2599 1378.56 56.3774 1379.12C56.4872 1379.66 56.622 1380.19 56.7816 1380.71C57.1644 1382.5 56.4686 1383.79 54.6942 1384.58C53.8107 1384.98 52.8834 1385.33 51.9122 1385.63C50.916 1385.94 49.8797 1386.2 48.8034 1386.42C47.7194 1386.61 46.6171 1386.88 45.4964 1387.23C44.0478 1387.83 42.5888 1388.36 41.1195 1388.81L44.325 1400.25C44.4632 1400.97 44.6653 1401.76 44.9315 1402.63C45.2736 1403.75 45.7236 1405.01 46.2815 1406.39C46.885 1407.92 47.3769 1409.31 47.757 1410.55C47.9091 1411.05 49.0086 1415.1 51.0557 1422.7L52.8069 1428.17C53.1457 1429.1 53.4177 1429.9 53.6229 1430.57C53.8282 1431.24 53.9886 1431.9 54.1039 1432.55C54.2442 1433.19 54.1293 1433.66 53.7591 1433.96C53.4658 1434.16 52.8833 1434.39 52.0117 1434.66Z" fill="#FFB240"/>
<path d="M59.9885 1292.45L58.7184 1292.84C57.6973 1293.15 55.7147 1293.71 52.7706 1294.5L52.7478 1294.42L49.173 1295.56L46.6069 1296.38C44.764 1296.94 43.0851 1297.38 41.5702 1297.68C41.1284 1296.59 40.2864 1294.23 39.0443 1290.61C36.674 1283.73 34.6753 1277.63 33.0482 1272.3C30.9422 1265.4 29.9563 1261.41 30.0908 1260.34C29.6255 1259.53 29.0887 1258.13 28.4804 1256.13C27.416 1252.65 26.4771 1249.08 25.6638 1245.43C26.1288 1244.64 28.5653 1243.57 32.9733 1242.22C34.8162 1241.66 36.795 1241.09 38.9097 1240.53C39.8214 1240.3 40.7754 1240.04 41.7715 1239.73C42.6183 1239.48 43.5072 1239.18 44.4383 1238.84C45.3868 1238.47 46.3217 1238.14 47.2432 1237.86C49.8331 1237.07 52.274 1236.63 54.5657 1236.56C55.159 1237.52 55.6761 1238.72 56.1171 1240.17C56.3147 1240.82 56.4474 1241.43 56.5151 1242.01C56.6144 1242.96 56.3528 1243.53 55.7302 1243.72L48.0236 1246.03L40.3429 1248.3C37.9272 1249.04 36.316 1249.56 35.5094 1249.86L36.3388 1252.71L37.0573 1255.06L37.7385 1257.43C38.2623 1259.5 38.8131 1261.48 39.391 1263.38C39.6343 1264.17 39.8569 1264.81 40.0587 1265.3C40.5007 1265.41 42.8385 1264.81 47.0722 1263.52C49.6622 1262.73 52.1926 1262.01 54.6636 1261.36C57.1346 1260.72 58.9117 1260.47 59.9949 1260.63C60.8876 1262.13 61.4898 1263.39 61.8015 1264.41C62.1436 1265.53 62.1265 1266.37 61.7501 1266.92C61.1259 1267.82 59.0955 1268.79 55.6588 1269.84L53.8169 1270.36L49.7939 1271.63L42.8997 1274.07L46.0792 1285.55C48.5245 1285.27 53.159 1284.08 59.9826 1282C64.8638 1280.51 67.5205 1279.84 67.9528 1280.01C68.6325 1280.81 69.1501 1281.84 69.5053 1283.09C69.8931 1284.36 70.1307 1285.54 70.2183 1286.63C70.3308 1287.71 70.0851 1288.47 69.4811 1288.9C68.9865 1289.24 68.3905 1289.52 67.6932 1289.73L66.0122 1290.24L59.9885 1292.45Z" fill="#E440FF"/>
<path d="M129.443 1231.65C128.859 1231.52 128.272 1231.34 127.68 1231.13C127.185 1230.96 126.746 1230.83 126.366 1230.74C125.052 1230.41 124.118 1230.12 123.564 1229.85C123.035 1229.6 122.744 1229.24 122.691 1228.77C122.67 1228.28 122.76 1227.54 122.963 1226.55L123.016 1226.32C123.332 1224.95 123.596 1222.82 123.808 1219.93C124.01 1216.85 124.349 1213.47 124.824 1209.78C125.341 1205.92 125.608 1203.13 125.627 1201.43C124.265 1202.93 121.228 1208.45 116.514 1218C113.719 1223.64 112.099 1226.73 111.654 1227.27L110.108 1227.19C109.729 1225.82 109.472 1224.21 109.337 1222.36L109.087 1220.14C108.876 1218.97 108.76 1217.79 108.738 1216.61C108.748 1215.41 108.672 1214.23 108.512 1213.07C108.237 1211.48 108.105 1208.46 108.118 1204C108.133 1203.12 108.131 1202.32 108.111 1201.59C108.117 1200.87 108.128 1200.25 108.143 1199.71C108.096 1199.22 108.059 1198.92 108.032 1198.81C108.004 1198.69 107.953 1198.63 107.876 1198.61C107.8 1198.59 107.743 1198.55 107.704 1198.49L103.276 1206.05C102.166 1207.85 101.073 1209.75 99.9982 1211.75L99.0091 1213.6C97.579 1216.21 96.5733 1218.2 95.992 1219.56C95.3326 1221.15 94.7532 1222.09 94.2536 1222.41C93.8477 1222.66 93.188 1222.68 92.2745 1222.47C90.9297 1222.16 89.8366 1221.8 88.9953 1221.39C88.4917 1221.14 87.9754 1220.72 87.4463 1220.11L87.5779 1219.54C87.8236 1218.48 88.4127 1216.67 89.345 1214.14C90.2833 1211.57 91.3025 1208.95 92.4027 1206.26C93.5341 1203.56 94.3691 1201.91 94.9076 1201.31C94.892 1201.15 94.9134 1200.94 94.9719 1200.68C95.0713 1200.25 95.2966 1199.62 95.6477 1198.79C96.3968 1196.94 97.2474 1195.27 98.1995 1193.81C98.7379 1192.52 99.5358 1190.91 100.593 1188.99C101.984 1186.32 102.75 1184.68 102.89 1184.07C103.132 1183.83 103.726 1182.82 104.673 1181.03C106.048 1178.54 107.657 1175.86 109.499 1172.97C111.366 1170.08 113.002 1168.38 114.407 1167.85C115.163 1169.44 115.45 1171.15 115.269 1172.98C115.236 1173.93 115.276 1174.92 115.39 1175.93C116.125 1182.94 116.371 1191.32 116.127 1201.08L116.116 1202.52C116.851 1201.99 117.621 1200.91 118.425 1199.28C119.406 1197.34 123.453 1191.9 130.565 1182.96C133.09 1179.78 134.848 1177.66 135.839 1176.6C136.862 1175.53 137.69 1175.07 138.325 1175.21C138.578 1175.27 138.83 1175.4 139.08 1175.59C139.139 1175.68 138.991 1176.9 138.636 1179.25C137.556 1186.49 137.194 1190.84 137.55 1192.31C137.319 1192.85 137.114 1193.51 136.932 1194.29C136.57 1195.87 136.193 1198.55 135.801 1202.33C135.655 1204.01 135.497 1205.39 135.328 1206.47L132.863 1221.34C133.039 1222.31 132.668 1224.79 131.749 1228.78C131.398 1230.3 131.106 1231.22 130.872 1231.54C130.503 1231.75 130.027 1231.79 129.443 1231.65Z" fill="#FF629A"/>
<path d="M64.3458 1225.75C59.8292 1226.8 55.0659 1226.83 50.056 1225.85C48.438 1225.55 46.5957 1224.92 44.529 1223.96C40.013 1221.87 36.9621 1218.95 35.3761 1215.2C35.1459 1214.67 34.8737 1214.18 34.5596 1213.75C33.3732 1212.31 32.194 1209.46 31.0219 1205.18C30.8737 1204.66 30.7381 1204.13 30.6153 1203.59C29.3692 1198.19 29.547 1193.16 31.1484 1188.52C32.744 1183.85 36.3469 1179.59 41.9571 1175.76C44.1844 1174.18 46.2749 1173.16 48.2288 1172.71L49.5404 1172.49C50.733 1172.21 51.7734 1171.8 52.6615 1171.24C53.292 1170.96 53.9244 1170.75 54.5588 1170.61C55.1931 1170.46 56.1154 1170.29 57.3255 1170.09C58.5298 1169.86 59.8219 1169.67 61.2019 1169.51C62.5759 1169.33 63.5782 1169.27 64.2086 1169.34C64.6729 1170.19 65.0923 1171.26 65.4668 1172.54C65.5779 1173.02 65.77 1173.91 66.043 1175.21C66.3101 1176.48 66.1908 1177.65 65.6851 1178.7C65.5387 1178.76 65.3513 1178.82 65.1229 1178.87C64.5647 1179 63.7166 1179.09 62.5787 1179.14C59.8989 1179.22 57.4679 1179.51 55.2858 1180.02C53.6111 1180.41 51.9383 1181.03 50.2674 1181.9L50.1327 1182.01C48.5008 1182.81 46.9802 1183.75 45.5708 1184.83C43.771 1186.18 42.6561 1188.07 42.2262 1190.49C42.0249 1191.82 41.7983 1192.63 41.5465 1192.93L41.7132 1193.66C41.9472 1194.67 42.1548 1195.92 42.336 1197.4C42.484 1198.62 42.6478 1199.68 42.8271 1200.57C43.5507 1203.13 44.5798 1205.4 45.9144 1207.36C46.3982 1208.18 46.8353 1208.98 47.2254 1209.74C48.0705 1210.16 48.8111 1210.59 49.4473 1211.03C50.1088 1211.47 50.7743 1211.86 51.4437 1212.22C52.1072 1212.54 52.9337 1212.77 53.9232 1212.89C55.5178 1213.08 58.2035 1212.85 61.9803 1212.19C62.5697 1212.08 63.0987 1212 63.5671 1211.94C65.3023 1211.7 66.7496 1211.49 67.909 1211.3C69.3982 1211.04 70.5029 1210.9 71.2231 1210.9C71.9375 1210.87 72.44 1211.02 72.7308 1211.35C73.0157 1211.66 73.28 1212.23 73.5238 1213.05C73.8437 1214.21 74.2289 1215.41 74.6795 1216.67C75.0637 1217.76 75.3885 1218.82 75.6537 1219.86C75.6946 1220.03 75.7327 1220.2 75.7678 1220.35C75.8731 1220.81 75.8984 1221.15 75.8437 1221.38C75.4922 1221.94 74.9378 1222.37 74.1805 1222.68C73.4173 1222.97 72.6297 1223.2 71.8177 1223.39C71.0311 1223.57 70.3294 1223.77 69.7126 1223.99C67.9617 1224.75 66.1728 1225.33 64.3458 1225.75Z" fill="#9F54FF"/>
<path d="M90.2946 1130.7C97.1324 1132.17 101.187 1130.92 102.459 1126.95C103.072 1124.53 102.484 1122.42 100.693 1120.64C100.017 1120.06 98.9837 1119.42 97.5928 1118.69C96.2019 1117.97 95.1434 1117.5 94.4175 1117.29L92.982 1122.45C92.2007 1125.18 91.3049 1127.93 90.2946 1130.7ZM76.5307 1162.31L76.0425 1162.17C74.7909 1161.81 73.7146 1161.31 72.8136 1160.67C73.3237 1157 74.1737 1153.09 75.3636 1148.93C76.2453 1145.85 77.3184 1142.62 78.5829 1139.25C79.8798 1135.66 80.9297 1132.47 81.7325 1129.67L83.2866 1123.53L83.6092 1122.4C84.5339 1119.17 85.227 1117.46 85.6885 1117.27C85.7316 1116.93 85.8356 1116.47 86.0005 1115.9C86.1152 1115.49 86.3105 1114.86 86.5864 1113.99C86.8874 1113.13 87.2671 1112.09 87.7256 1110.86C88.2092 1109.65 88.5853 1108.81 88.8538 1108.34C89.791 1108.1 91.261 1108.26 93.2636 1108.83C96.0923 1109.65 99.0657 1110.85 102.184 1112.45C104.737 1113.75 106.478 1114.95 107.407 1116.06C108.722 1117.71 109.491 1118.72 109.712 1119.08C110.148 1119.83 110.534 1121.41 110.868 1123.84C110.978 1125.25 110.768 1126.88 110.238 1128.74C110.216 1128.81 110.046 1129.36 109.727 1130.38C109.408 1131.4 108.776 1132.33 107.832 1133.17C107.166 1134.55 106.002 1135.96 104.342 1137.41C102.681 1138.86 101.109 1139.76 99.6243 1140.12C95.7396 1140.82 91.8106 1140.78 87.8373 1139.99C87.3646 1140.89 86.6788 1142.48 85.7797 1144.77C83.9134 1149.49 82.5824 1153.24 81.7868 1156.01L81.4803 1157.23C81.2795 1157.93 81.0986 1158.51 80.9374 1158.98L80.7761 1159.54C80.4965 1160.52 80.3868 1161.52 80.447 1162.54C79.3346 1162.73 78.0291 1162.66 76.5307 1162.31Z" fill="#FFB240"/>
</svg>
