<svg width="31" height="562" viewBox="0 0 31 562" fill="none" xmlns="http://www.w3.org/2000/svg">
<path d="M19.411 134.615C22.4798 133.793 23.862 131.906 23.5577 128.955C23.4969 128.526 23.4416 128.042 23.3917 127.503C23.2369 125.967 23.0771 124.891 22.9122 124.275C21.9262 120.589 19.8186 117.548 16.5894 115.151C16.3496 115.162 16.1361 115.145 15.9491 115.1C15.6605 115.029 15.3716 115.033 15.0823 115.11C14.8559 115.171 14.5709 115.315 14.2272 115.542C13.2248 116.228 12.5937 116.741 12.334 117.08C11.7076 118.165 11.38 119.661 11.3514 121.569C11.3228 123.478 11.4684 125.029 11.7881 126.224L12.3723 128.332C12.6752 129.465 12.9251 130.55 13.1223 131.589C13.259 131.647 13.6174 132.029 14.1975 132.737C14.8784 133.619 15.4106 134.198 15.7941 134.472C16.4386 134.866 17.4207 134.96 18.7406 134.755C18.9737 134.719 19.1972 134.673 19.411 134.615ZM18.916 139.945C16.3754 140.625 14.192 140.172 12.3657 138.586C11.7598 138.034 11.0289 137.091 10.1732 135.756C9.3175 134.422 8.58632 133.074 7.97967 131.713C7.7301 131.133 7.54474 130.617 7.4236 130.164C7.26207 129.56 7.22099 129.079 7.30037 128.721C7.20206 128.505 7.11253 128.246 7.03177 127.944C6.85341 127.277 6.70244 126.259 6.57886 124.89C6.45527 123.522 6.45153 122.047 6.56762 120.465C6.69629 118.881 6.98977 117.811 7.44806 117.257C7.50514 116.311 8.15042 115.222 9.38391 113.988C10.614 112.742 11.8835 111.869 13.1922 111.37L14.2096 111.017C14.5768 110.878 14.8988 110.772 15.1755 110.697C15.443 110.639 15.7491 110.625 16.0938 110.654C16.9225 110.728 17.8099 110.922 18.7562 111.234C20.0456 111.671 20.8184 112.09 21.0745 112.494C21.6626 112.727 22.2408 113.226 22.8093 113.99C23.3869 114.739 23.8915 115.466 24.3232 116.173C24.7515 116.867 25.0407 117.268 25.1909 117.376C25.4758 117.987 25.7778 118.587 26.0969 119.175C26.7865 120.392 27.3227 121.691 27.7054 123.071C27.7341 123.279 27.7552 123.51 27.7689 123.762C27.7791 124.002 27.7919 124.201 27.8071 124.358C27.8744 124.61 27.9421 124.787 28.0101 124.89C28.0873 124.978 28.1705 125.137 28.2596 125.37C28.3782 125.864 28.4135 126.373 28.3653 126.898C28.3513 127.199 28.3481 127.489 28.3559 127.77C28.4552 129.199 28.2687 130.719 27.7961 132.328C27.3362 133.934 26.5678 135.219 25.4909 136.181C24.7017 137.161 23.5128 138.032 21.9242 138.795C20.862 139.309 19.8593 139.692 18.916 139.945Z" fill="#3DFF7F"/>
<path d="M12.2327 158.846L16.5482 160.023C16.6984 160.066 16.7807 160.062 16.795 160.012L16.7897 159.889C16.8445 157.9 16.9616 156.403 17.1411 155.398C17.3529 153.996 17.3293 153.061 17.0703 152.594L16.3588 153.589C15.5892 154.574 15.0523 155.314 14.748 155.809L13.9293 156.752C13.0524 157.734 12.4869 158.432 12.2327 158.846ZM5.01062 169.17L4.89798 169.137C4.66016 169.069 4.04242 168.838 3.04474 168.443C1.95945 168.024 1.36498 167.759 1.26132 167.648C1.24351 167.521 1.25611 167.382 1.29912 167.232C1.43889 166.744 2.02513 165.808 3.05782 164.424C3.43188 163.922 3.70752 163.527 3.88473 163.239C4.07987 162.889 4.3645 162.415 4.73861 161.818C5.69984 160.305 6.43719 159.386 6.95064 159.059C7.03842 158.8 7.2461 158.405 7.57368 157.876C8.21808 156.855 8.84721 155.959 9.46107 155.187C10.4794 153.853 11.9988 152 14.0193 149.626C16.3887 146.838 17.7692 145.398 18.161 145.308C18.6585 144.61 19.1729 144.162 19.7042 143.962C20.0723 144.474 20.2728 145.595 20.3058 147.325C20.3179 147.992 20.2855 148.484 20.2084 148.8C20.3727 149.172 20.4813 149.976 20.5342 151.21C20.5517 152.001 20.6175 152.622 20.7317 153.075C20.7385 153.524 20.7659 154.209 20.8136 155.13L21.0805 162.074C21.3322 168.906 21.3954 172.541 21.27 172.979L21.2646 172.997C20.9873 173.162 20.7369 173.232 20.5134 173.209C20.381 173.198 20.2398 173.171 20.0896 173.128C20.0019 173.103 19.8973 173.066 19.7758 173.018C19.6703 172.96 19.5424 172.91 19.3922 172.867L18.6681 172.7C18.4606 172.668 18.2693 172.626 18.0941 172.576C17.7436 172.475 17.4281 172.324 17.1474 172.122C16.901 171.469 16.7956 169.637 16.8314 166.626C16.8554 165.265 16.831 164.215 16.7581 163.476C16.4917 163.413 16.2217 163.363 15.9481 163.325C15.687 163.291 15.3937 163.227 15.0683 163.134L14.8618 163.075C14.6276 162.994 14.3164 162.898 13.9284 162.787C12.852 162.478 11.5118 162.216 9.90776 162C9.09711 162.891 7.89702 164.599 6.30748 167.124L5.01062 169.17Z" fill="#9F54FF"/>
<path d="M32.969 204.185C32.5746 204.386 32.0956 204.579 31.5322 204.764C30.9747 204.96 30.5879 205.004 30.3717 204.895C30.1956 204.692 29.9039 204.191 29.4965 203.39C28.7939 202.009 28.1085 200.59 27.4403 199.133C25.8679 195.784 25.0479 193.856 24.9803 193.35C24.7806 193.101 24.5538 192.727 24.2999 192.228L23.5557 190.722L23.1303 189.843C23.0299 189.645 22.8973 189.413 22.7324 189.147C22.4496 188.677 22.1812 188.193 21.9274 187.694C21.6617 187.171 21.5103 186.759 21.4732 186.456C21.2092 186.167 20.9473 185.767 20.6875 185.257L20.5455 184.934C20.4864 184.818 20.4245 184.711 20.3598 184.612C19.5701 184.898 18.6415 185.313 17.5742 185.856C16.5184 186.394 15.5324 186.911 14.6161 187.408C14.071 187.714 13.6186 187.96 13.259 188.143C12.8993 188.326 12.6788 188.424 12.5974 188.436C12.1859 187.886 11.7826 187.251 11.3875 186.532C10.9978 185.766 10.7572 185.092 10.6658 184.51C11.7372 183.716 13.2556 182.752 15.2212 181.619L29.7352 174.268C30.0287 174.615 30.4264 175.282 30.9283 176.268C31.1585 176.721 31.3033 177.02 31.3625 177.165C31.4515 177.397 31.4824 177.645 31.4551 177.907C31.4328 178.035 31.4195 178.21 31.4152 178.431C30.9564 178.592 30.1179 178.983 28.8998 179.603C26.3938 180.88 24.9585 181.663 24.5937 181.951L26.5848 185.649L27.4332 187.058L31.3226 194.919C31.7009 195.72 32.0858 196.634 32.4774 197.662C32.7274 198.441 33.0502 199.219 33.4458 199.997L34.1182 201.232C34.3308 201.65 34.523 202.071 34.6948 202.495C34.6696 203.048 34.0944 203.612 32.969 204.185Z" fill="#FF498B"/>
<path d="M23.3408 226.39C23.0364 228.124 22.0689 229.435 20.4382 230.323C18.822 231.201 17.2049 231.658 15.5867 231.696C14.5823 231.756 13.6448 231.752 12.7742 231.685C12.5012 231.664 12.2225 231.637 11.9382 231.602C11.3049 231.524 10.6312 231.402 9.91698 231.236C9.91975 230.357 10.0586 228.636 10.3336 226.072C10.4472 224.932 10.5721 223.806 10.7084 222.694C10.8795 221.298 11.1074 219.654 11.392 217.76C11.6782 215.854 11.9637 214.649 12.2484 214.146C12.232 214.066 12.25 213.812 12.3023 213.385C12.3546 212.959 12.422 212.462 12.5047 211.895C12.5873 211.328 12.6684 210.774 12.7479 210.233C12.8527 209.485 12.9274 208.982 12.972 208.725C13.0386 208.182 13.0897 207.605 13.1254 206.993C13.1389 206.562 13.1703 206.146 13.2194 205.745C13.3129 204.982 13.4711 204.28 13.6941 203.639L14.392 203.724C15.2238 203.787 16.0146 203.865 16.7641 203.957C17.2165 204.012 17.6486 204.072 18.0606 204.135C18.5501 204.209 19.0727 204.279 19.6285 204.348L20.9079 204.505C21.3215 204.555 21.756 204.596 22.2115 204.625C22.6831 204.631 23.1321 204.66 23.5586 204.712C24.2824 204.801 24.9521 204.955 25.568 205.175L25.3307 207.271C25.3148 207.401 25.307 207.518 25.3073 207.623C25.3028 207.766 25.2926 207.903 25.2767 208.032C25.2308 208.407 25.1378 208.684 24.9977 208.864C24.8383 209.093 24.4227 209.167 23.7506 209.084L23.6537 209.073C22.9687 208.988 22.2805 208.878 21.5889 208.74C21.038 208.633 20.4919 208.54 19.9507 208.46L19.2915 208.38C18.6195 208.297 17.9426 208.201 17.2608 208.091C16.8925 210.132 16.5114 212.171 16.1173 214.208C15.9866 214.953 15.8542 215.658 15.7201 216.324C16.5538 216.479 17.4418 216.725 18.3842 217.064C19.3265 217.403 20.1084 217.82 20.7297 218.316C21.7272 218.741 22.4935 219.445 23.0288 220.429C23.3402 220.992 23.562 221.59 23.6944 222.222C23.7273 222.489 23.7445 222.937 23.746 223.567C23.7475 224.197 23.719 224.803 23.6606 225.386L23.644 225.522C23.5822 226.026 23.4811 226.316 23.3408 226.39ZM13.9207 226.827L13.8437 228.097C14.2494 228.212 14.6525 228.295 15.0531 228.344C15.7123 228.425 16.376 228.414 17.0444 228.313C17.5416 228.216 17.9401 228.069 18.2401 227.869C18.54 227.67 18.8164 227.448 19.0694 227.204C19.2337 227.04 19.411 226.878 19.6012 226.718C19.6588 226.463 19.722 226.215 19.7908 225.974C19.8967 225.646 19.9814 225.276 20.045 224.864C20.2122 223.179 19.5334 221.921 18.0085 221.091C17.3552 220.749 16.6732 220.534 15.9624 220.447C15.6134 220.404 15.2605 220.393 14.9037 220.415L14.8942 220.493C14.8158 220.811 14.7647 221.067 14.7409 221.261L14.7243 221.397C14.7021 221.577 14.693 221.812 14.6969 222.102L13.9207 226.827Z" fill="#FFB240"/>
<path d="M23.3108 266.912C22.6451 267.14 22.0934 267.337 21.6558 267.505L21.0905 267.722C20.738 267.858 20.4561 267.959 20.2448 268.026C20.088 267.835 19.9886 267.685 19.9467 267.576C19.9047 267.466 19.8828 267.391 19.881 267.35C19.8924 267.234 19.8538 267.06 19.7652 266.829C19.672 266.586 19.5699 266.374 19.4589 266.194C19.36 266.009 19.2719 265.833 19.1945 265.668C18.9941 265.145 18.8595 264.667 18.7908 264.233C18.7035 263.75 18.5736 263.284 18.4012 262.834C17.3719 260.44 16.5218 258.367 15.8507 256.616C15.1191 254.708 14.5254 253.122 14.0698 251.861C12.9609 248.786 12.4061 247.102 12.4055 246.809C11.9381 246.026 11.5483 245.227 11.236 244.413C11.0496 243.926 10.8922 243.443 10.7637 242.962C10.6762 242.661 10.5803 242.356 10.4759 242.048C10.8163 241.917 11.1352 241.767 11.4326 241.597C11.7375 241.41 12.2098 241.187 12.8494 240.927C13.6105 240.621 15.0365 240.067 17.1274 239.264C20.1925 238.129 22.1349 237.558 22.9547 237.55C23.0797 237.767 23.1958 238.016 23.3029 238.295C23.3915 238.526 23.4749 238.78 23.5531 239.057C23.6266 239.322 23.7123 239.582 23.8102 239.837C24.0635 240.716 23.7613 241.383 22.9037 241.838C22.4772 242.071 22.0269 242.279 21.5529 242.461C21.0666 242.648 20.5589 242.815 20.0297 242.962C19.4959 243.097 18.9554 243.27 18.4084 243.48C17.707 243.833 16.9977 244.147 16.2805 244.422L18.2779 250.015C18.3719 250.37 18.5004 250.76 18.6635 251.185C18.8732 251.732 19.1413 252.341 19.4677 253.01C19.8221 253.753 20.1158 254.428 20.3488 255.036C20.442 255.279 21.1315 257.26 22.4172 260.979L23.4813 263.646C23.6827 264.098 23.8463 264.489 23.9721 264.817C24.0979 265.145 24.2008 265.468 24.2809 265.786C24.3731 266.1 24.3321 266.339 24.1581 266.503C24.0187 266.612 23.7363 266.749 23.3108 266.912Z" fill="#3DFF7F"/>
<path d="M5.31416 296.186L4.42681 295.828L3.96424 295.304L4.84586 293.954L5.67156 291.907C5.78848 291.617 7.02127 291.659 9.36994 292.032C10.43 291.632 11.1305 291.009 11.4715 290.164C12.1194 288.558 12.062 281.948 11.2993 270.335C11.4147 268.935 11.5382 268.072 11.6697 267.746L12.3661 267.691L15.2998 268.876C15.8958 269.243 16.0787 272.723 15.8485 279.314C16.1745 279.446 16.4063 281.134 16.544 284.377L16.8337 284.494C17.3408 284.699 20.2666 281.675 25.6112 275.422C26.1129 274.179 27.4956 273.831 29.7591 274.381C31.0282 275.203 31.597 275.776 31.4655 276.102C20.1125 289.07 13.2917 295.85 11.0029 296.442C9.15412 297.057 7.25786 296.972 5.31416 296.186Z" fill="#E440FF"/>
<path d="M20.1311 307.714C21.0523 307.207 21.8518 306.419 22.5297 305.35C23.2198 304.276 23.3398 303.08 22.8898 301.76C22.6343 301.203 22.2666 300.716 21.7866 300.301C21.3188 299.88 20.7943 299.621 20.213 299.524C19.8121 299.496 19.3134 299.541 18.7169 299.659C18.1279 299.759 17.6754 299.87 17.3594 299.992L18.3003 302.392C18.9853 304.179 19.5956 305.953 20.1311 307.714ZM25.8974 319.267C27.2346 318.754 28.1008 318.121 28.496 317.37C28.6674 317.053 28.7977 316.738 28.8869 316.425L29.1427 315.783C29.0663 315.547 28.9998 315.3 28.9431 315.043C28.8873 314.716 28.7826 314.352 28.6288 313.95C28.2951 313.116 27.7795 312.408 27.0819 311.825C26.3965 311.237 25.6066 310.94 24.7121 310.935C23.8437 310.962 23.1482 311.075 22.6255 311.276C22.3459 311.383 22.0696 311.517 21.7965 311.678L21.8314 311.769C21.9161 312.099 22.0097 312.398 22.1122 312.665C22.1775 312.835 22.2773 313.041 22.4116 313.283L23.9536 318.507L24.4992 319.657C24.9937 319.565 25.4598 319.435 25.8974 319.267ZM24.9295 323.509C24.2488 323.77 23.5045 323.993 22.6968 324.177C22.3955 323.61 21.8822 322.489 21.1569 320.815C20.2749 318.768 19.4006 316.614 18.5338 314.353C17.928 312.772 17.4272 311.374 17.0313 310.16C16.7703 309.479 16.5019 308.815 16.2259 308.167C16.184 308.058 16.1383 307.957 16.0889 307.864L15.984 307.591C15.7715 307.073 15.4695 306.303 15.0781 305.282C14.4583 303.665 14.213 302.734 14.3423 302.489C14.2695 302.335 14.1773 302.113 14.0654 301.821C13.9909 301.626 13.8758 301.308 13.7202 300.866C13.5721 300.406 13.4035 299.857 13.2145 299.219C13.0329 298.563 12.9175 298.098 12.8683 297.824C13.1791 297.398 13.845 296.989 14.8661 296.597C14.9148 296.578 15.2271 296.466 15.8031 296.258C16.3791 296.051 17.2728 295.855 18.4844 295.668C19.7034 295.466 20.6367 295.463 21.2842 295.661C22.2251 295.969 22.7988 296.174 23.0052 296.276C23.3966 296.461 23.998 297.011 24.8092 297.927C25.2488 298.455 25.6318 299.145 25.958 299.996C25.9952 300.094 26.1042 300.414 26.285 300.959C26.4779 301.498 26.5225 302.088 26.419 302.727C26.5874 303.458 26.629 304.258 26.5439 305.127C26.471 305.992 26.2492 306.705 25.8784 307.266C26.1635 307.282 26.4205 307.315 26.6494 307.367L27.6869 307.345C27.8233 307.446 28.0489 307.562 28.3637 307.692C29.2886 308.104 30.0684 308.684 30.7032 309.43C30.8618 309.662 31.1072 310.084 31.4393 310.696C31.8329 311.396 32.1462 312.049 32.3792 312.657C32.5703 313.156 32.6237 313.477 32.5394 313.621C32.6717 314.002 32.7192 314.563 32.682 315.303C32.6447 316.042 32.5233 316.744 32.3179 317.409C32.1246 318.069 31.8662 318.468 31.5427 318.606C31.4404 318.994 31.1745 319.41 30.7449 319.854C29.9645 320.655 29.0464 321.37 27.9904 321.999C26.8494 322.66 25.8291 323.163 24.9295 323.509Z" fill="#4053FF"/>
<path d="M28.6614 106.946C28.2338 107.061 27.7252 107.15 27.1357 107.213C26.5495 107.29 26.162 107.252 25.9732 107.1C25.843 106.866 25.6618 106.314 25.4296 105.446C25.0291 103.95 24.6534 102.419 24.3024 100.855C23.4599 97.2525 23.0581 95.1966 23.0971 94.6874C22.9535 94.4023 22.8093 93.9894 22.6646 93.4485L22.2493 91.8208L22.0158 90.8724C21.9586 90.6586 21.877 90.4041 21.7711 90.1089C21.5921 89.5907 21.4302 89.0612 21.2855 88.5203C21.134 87.9543 21.0716 87.5194 21.0982 87.2158C20.9 86.8779 20.7269 86.4323 20.5788 85.8789L20.5068 85.5342C20.4732 85.4084 20.4349 85.2906 20.392 85.1807C19.5602 85.2958 18.5657 85.5084 17.4086 85.8184C16.2641 86.1251 15.1921 86.4258 14.1926 86.7205C13.5957 86.9075 13.1022 87.0532 12.7124 87.1576C12.3225 87.2621 12.0864 87.3119 12.0042 87.3069C11.716 86.6832 11.4534 85.9785 11.2162 85.1928C10.9941 84.3626 10.8988 83.6535 10.9301 83.0654C12.1432 82.5112 13.8288 81.8843 15.987 81.1847L31.7122 77.0116C31.9273 77.4123 32.1778 78.1472 32.4638 79.2164C32.5951 79.7069 32.6746 80.0294 32.7024 80.1837C32.7412 80.4294 32.72 80.6777 32.6389 80.9286C32.5903 81.0495 32.541 81.2177 32.4908 81.4334C32.0087 81.4952 31.1073 81.703 29.7867 82.0569C27.07 82.7848 25.5033 83.2517 25.0867 83.4577L26.2663 87.489L26.8035 89.0436L28.9756 97.5405C29.1793 98.4025 29.3658 99.377 29.5353 100.464C29.6182 101.278 29.7724 102.106 29.9978 102.948L30.399 104.297C30.5201 104.75 30.6207 105.201 30.7008 105.652C30.5612 106.188 29.8814 106.619 28.6614 106.946Z" fill="#E440FF"/>
<path d="M19.4886 71.1265L18.8262 71.0802C18.2936 71.043 17.2693 70.9452 15.7532 70.787L15.7559 70.748L13.8841 70.6367L12.5384 70.5622C11.5772 70.495 10.7161 70.3956 9.95521 70.2641C9.94406 69.6759 9.97266 68.4249 10.041 66.5109C10.1641 62.8779 10.3227 59.6715 10.5168 56.8918C10.7679 53.2938 11.0212 51.2557 11.2765 50.7775C11.2043 50.3157 11.2045 49.5651 11.277 48.526C11.404 46.7075 11.6037 44.8745 11.8763 43.0271C12.2357 42.7389 13.565 42.6753 15.8641 42.836C16.8253 42.9032 17.8501 42.9945 18.9384 43.1097C19.4042 43.1684 19.8969 43.2159 20.4165 43.2523C20.8581 43.2831 21.3266 43.3028 21.822 43.3114C22.3313 43.3078 22.8263 43.3229 23.3069 43.3565C24.6577 43.4509 25.8748 43.6861 26.958 44.0621C27.0628 44.6176 27.0889 45.2721 27.0363 46.0255C27.0127 46.3632 26.965 46.6731 26.8931 46.9552C26.7695 47.4165 26.5453 47.6358 26.2206 47.6131L22.2083 47.3129L18.2169 46.9947C16.957 46.9066 16.1118 46.8605 15.6813 46.8565L15.5585 48.3359L15.4728 49.5634L15.3676 50.7895C15.2413 51.851 15.1437 52.8753 15.0747 53.8625C15.0457 54.2782 15.0351 54.6168 15.043 54.8784C15.2296 55.0089 16.4271 55.1514 18.6352 55.3058C19.9861 55.4003 21.2962 55.518 22.5655 55.6589C23.8348 55.7999 24.7081 56.0046 25.1853 56.2729C25.3342 57.1317 25.3901 57.8274 25.3529 58.36C25.3121 58.9445 25.1545 59.3316 24.8802 59.5212C24.428 59.829 23.3057 59.9202 21.5132 59.7948L20.5598 59.7086L18.4542 59.5809L14.7999 59.482L14.2292 65.4137C15.4217 65.719 17.7975 65.9961 21.3565 66.2449C23.9024 66.423 25.2613 66.5898 25.4332 66.7454C25.6074 67.2405 25.6654 67.8123 25.6071 68.4609C25.5608 69.1233 25.4607 69.7168 25.3066 70.2411C25.1655 70.7664 24.9155 71.0753 24.5566 71.1677C24.2645 71.2386 23.9366 71.2613 23.5729 71.2359L22.6962 71.1746L19.4886 71.1265Z" fill="#FF498B"/>
<path d="M25.9287 32.4756C23.6704 32.997 21.2887 33.0123 18.7837 32.5216C17.9748 32.3743 17.0536 32.0591 16.0202 31.576C13.7623 30.5338 12.2368 29.0753 11.4438 27.2004C11.3287 26.933 11.1926 26.6904 11.0355 26.4728C10.4424 25.7545 9.85274 24.3271 9.26669 22.1906C9.19258 21.9271 9.12481 21.6621 9.06338 21.3957C8.44037 18.6931 8.52923 16.1804 9.32995 13.8574C10.1277 11.5217 11.9292 9.39528 14.7343 7.47815C15.8479 6.68651 16.8932 6.17792 17.8701 5.95239L18.5259 5.84107C19.1222 5.7034 19.6424 5.49645 20.0865 5.2202C20.4018 5.0806 20.718 4.97419 21.0351 4.90097C21.3523 4.82774 21.8134 4.74133 22.4185 4.64172C23.0207 4.52944 23.6667 4.43373 24.3567 4.35462C25.0437 4.26282 25.5448 4.23399 25.86 4.26813C26.0922 4.69561 26.3019 5.2285 26.4891 5.8668C26.5447 6.10788 26.6408 6.55342 26.7772 7.20344C26.9108 7.84078 26.8511 8.42249 26.5983 8.94859C26.5251 8.97885 26.4314 9.00716 26.3172 9.03352C26.0381 9.09796 25.6141 9.1424 25.0451 9.16685C23.7052 9.20892 22.4897 9.3559 21.3986 9.6078C20.5613 9.80112 19.7249 10.1145 18.8894 10.5479L18.8221 10.6035C18.0062 11.0057 17.2458 11.4753 16.5411 12.0121C15.6412 12.6876 15.0838 13.6315 14.8689 14.8437C14.7682 15.5084 14.6549 15.9154 14.529 16.0647L14.6123 16.4263C14.7293 16.9339 14.8331 17.558 14.9237 18.2988C14.9978 18.9098 15.0796 19.4388 15.1693 19.8858C15.5311 21.1653 16.0456 22.296 16.7129 23.2778C16.9549 23.6897 17.1734 24.0869 17.3685 24.4695C17.791 24.6793 18.1613 24.8945 18.4794 25.1151C18.8102 25.3327 19.1429 25.5298 19.4776 25.7065C19.8093 25.8704 20.2226 25.9821 20.7174 26.0416C21.5146 26.1382 22.8575 26.0219 24.7459 25.6929C25.0406 25.6382 25.3051 25.5972 25.5393 25.5698C26.4069 25.4497 27.1305 25.3428 27.7102 25.249C28.4549 25.1172 29.0072 25.0498 29.3673 25.0469C29.7245 25.0312 29.9758 25.1069 30.1211 25.2737C30.2636 25.4279 30.3958 25.7115 30.5177 26.1243C30.6776 26.7021 30.8702 27.3058 31.0955 27.9353C31.2876 28.4789 31.45 29.0094 31.5826 29.5266C31.6031 29.6155 31.6221 29.6979 31.6396 29.7741C31.6923 30.0024 31.7049 30.1733 31.6776 30.2865C31.5019 30.5676 31.2247 30.7853 30.846 30.9395C30.4644 31.081 30.0706 31.1987 29.6646 31.2924C29.2713 31.3832 28.9205 31.4843 28.6121 31.5956C27.7366 31.9714 26.8421 32.2648 25.9287 32.4756Z" fill="#4053FF"/>
<path d="M14.2268 465.387C17.2123 466.474 19.4256 465.721 20.8667 463.127C21.0624 462.741 21.2943 462.313 21.5623 461.842C22.3151 460.495 22.8005 459.522 23.0184 458.922C24.3214 455.336 24.3365 451.635 23.0635 447.819C22.8611 447.69 22.6959 447.553 22.5679 447.41C22.3721 447.186 22.1335 447.023 21.8521 446.921C21.6319 446.84 21.316 446.795 20.9044 446.784C19.6898 446.771 18.879 446.829 18.4719 446.958C17.3375 447.488 16.212 448.526 15.0955 450.073C13.979 451.621 13.2096 452.976 12.7871 454.138L12.0583 456.201C11.658 457.302 11.241 458.335 10.8074 459.3C10.8864 459.426 10.961 459.945 11.0312 460.857C11.0836 461.971 11.1883 462.75 11.3452 463.195C11.6478 463.887 12.3987 464.528 13.5978 465.117C13.8091 465.221 14.0188 465.311 14.2268 465.387ZM10.7688 469.47C8.29723 468.571 6.76763 466.947 6.18002 464.599C5.99971 463.799 5.94115 462.607 6.00432 461.023C6.06749 459.438 6.24023 457.915 6.52254 456.452C6.65036 455.833 6.79433 455.303 6.95443 454.863C7.1679 454.275 7.40976 453.858 7.68 453.61C7.72335 453.376 7.79839 453.112 7.90512 452.819C8.14083 452.17 8.60007 451.249 9.28283 450.057C9.96559 448.864 10.8074 447.653 11.8083 446.424C12.8214 445.199 13.6744 444.491 14.3673 444.3C14.9556 443.558 16.1084 443.036 17.8257 442.732C19.5474 442.417 21.0873 442.43 22.4455 442.772L23.4816 443.066C23.862 443.163 24.1868 443.26 24.456 443.358C24.7085 443.464 24.9677 443.627 25.2335 443.849C25.8698 444.385 26.4861 445.053 27.0824 445.852C27.889 446.949 28.2817 447.737 28.2606 448.214C28.6088 448.742 28.7969 449.483 28.8249 450.435C28.8695 451.38 28.8663 452.266 28.8152 453.092C28.7686 453.907 28.7759 454.401 28.8371 454.576C28.7204 455.24 28.6243 455.905 28.5488 456.57C28.4166 457.963 28.1121 459.335 27.6351 460.686C27.5395 460.873 27.4249 461.073 27.2915 461.288C27.1625 461.491 27.0591 461.661 26.9812 461.799C26.8923 462.043 26.8462 462.228 26.8428 462.351C26.8562 462.467 26.8329 462.645 26.7728 462.887C26.5872 463.36 26.3242 463.797 25.9839 464.2C25.8004 464.438 25.6314 464.674 25.4768 464.909C24.7395 466.137 23.7164 467.275 22.4074 468.323C21.1107 469.375 19.7454 469.987 18.3118 470.158C17.1039 470.508 15.6307 470.54 13.8922 470.254C12.7276 470.065 11.6865 469.804 10.7688 469.47Z" fill="#3DFF7F"/>
<path d="M12.7206 490.119L17.0999 489.208C17.2533 489.178 17.325 489.138 17.3151 489.087L17.2544 488.979C16.4016 487.182 15.8272 485.795 15.5315 484.817C15.0846 483.472 14.6398 482.65 14.1972 482.351L14.0142 483.56C13.7748 484.787 13.6318 485.691 13.5851 486.27L13.2833 487.483C12.9467 488.755 12.7591 489.634 12.7206 490.119ZM10.9645 502.598L10.8494 502.62C10.6066 502.667 9.95119 502.741 8.88325 502.843C7.72584 502.962 7.07579 502.995 6.93308 502.943C6.85963 502.838 6.80802 502.709 6.77825 502.556C6.68149 502.057 6.77966 500.957 7.07276 499.255C7.1784 498.638 7.24495 498.161 7.2724 497.824C7.28744 497.423 7.32632 496.871 7.38904 496.169C7.56004 494.385 7.80023 493.231 8.10963 492.707C8.07031 492.436 8.07667 491.99 8.12871 491.37C8.24023 490.168 8.39449 489.083 8.59149 488.116C8.89451 486.466 9.40829 484.124 10.1328 481.092C10.9804 477.531 11.5581 475.621 11.866 475.363C11.9934 474.515 12.2485 473.882 12.6313 473.463C13.1915 473.752 13.8783 474.66 14.6919 476.186C15.0051 476.775 15.1992 477.228 15.274 477.545C15.5892 477.803 16.0501 478.469 16.6569 479.545C17.0308 480.242 17.3713 480.766 17.6783 481.117C17.888 481.514 18.2229 482.112 18.6831 482.911L22.0691 488.978C25.3905 494.952 27.0946 498.162 27.1814 498.61L27.1851 498.629C27.0125 498.901 26.8213 499.078 26.6114 499.158C26.4886 499.209 26.3504 499.249 26.1971 499.278C26.1076 499.296 25.9977 499.311 25.8674 499.323C25.7474 499.319 25.6107 499.333 25.4574 499.363L24.7362 499.543C24.5367 499.608 24.3475 499.658 24.1685 499.693C23.8106 499.762 23.4608 499.771 23.1189 499.718C22.6032 499.247 21.6789 497.663 20.346 494.964C19.7503 493.74 19.2525 492.816 18.8526 492.19C18.5867 492.255 18.3232 492.333 18.0622 492.423C17.814 492.512 17.5238 492.588 17.1915 492.652L16.9806 492.693C16.7352 492.728 16.4145 492.784 16.0182 492.861C14.919 493.074 13.6057 493.449 12.0782 493.985C11.76 495.147 11.4649 497.214 11.1927 500.185L10.9645 502.598Z" fill="#9F54FF"/>
<path d="M16.5641 533.314C16.1407 533.184 15.6622 532.991 15.1284 532.732C14.5909 532.486 14.2822 532.249 14.2022 532.02C14.216 531.752 14.354 531.188 14.6164 530.329C15.0688 528.847 15.5599 527.35 16.0898 525.837C17.2815 522.334 18.0286 520.377 18.3312 519.966C18.3601 519.648 18.4564 519.221 18.6198 518.686L19.1289 517.085L19.4327 516.157C19.4974 515.945 19.5628 515.686 19.6292 515.38C19.7515 514.845 19.8944 514.31 20.0579 513.775C20.2289 513.214 20.4061 512.812 20.5893 512.569C20.6 512.177 20.6889 511.707 20.8562 511.159L20.9775 510.829C21.0155 510.704 21.0454 510.584 21.0672 510.468C20.3007 510.125 19.3447 509.778 18.1991 509.428C17.066 509.081 15.9975 508.768 14.9938 508.489C14.3885 508.331 13.8928 508.193 13.5068 508.075C13.1208 507.957 12.8942 507.874 12.8271 507.826C12.9128 507.145 13.0629 506.408 13.2775 505.615C13.5284 504.793 13.8227 504.141 14.1605 503.659C15.4828 503.832 17.2444 504.194 19.4452 504.744L34.9924 509.538C34.9628 509.992 34.7864 510.748 34.4632 511.807C34.315 512.292 34.2118 512.608 34.1537 512.754C34.0566 512.983 33.9072 513.182 33.7056 513.352C33.6005 513.429 33.4696 513.545 33.313 513.702C32.8713 513.498 31.9967 513.197 30.6893 512.797C27.9996 511.975 26.4236 511.541 25.9612 511.495L24.8286 515.539L24.4616 517.143L21.8078 525.502C21.5244 526.341 21.167 527.267 20.7356 528.278C20.3754 529.012 20.0679 529.797 19.8132 530.631L19.4399 531.987C19.3031 532.436 19.1495 532.872 18.979 533.297C18.5769 533.677 17.7719 533.683 16.5641 533.314Z" fill="#FF629A"/>
<path d="M15.0144 564.971C14.3344 565.151 13.7702 565.31 13.3219 565.447L12.7429 565.624C12.3818 565.735 12.0935 565.816 11.8781 565.868C11.7349 565.667 11.6462 565.51 11.612 565.398C11.5778 565.286 11.5612 565.209 11.5623 565.168C11.5817 565.053 11.5553 564.878 11.483 564.641C11.407 564.392 11.3199 564.174 11.2217 563.986C11.136 563.794 11.0603 563.613 10.9946 563.442C10.8311 562.907 10.7303 562.42 10.692 561.983C10.6385 561.495 10.5414 561.021 10.4007 560.56C9.54082 558.1 8.83715 555.973 8.28973 554.18C7.69288 552.225 7.21114 550.602 6.84448 549.312C5.95255 546.167 5.51648 544.448 5.53626 544.156C5.12453 543.343 4.79132 542.519 4.53661 541.684C4.38455 541.186 4.26119 540.693 4.16654 540.205C4.10021 539.898 4.02575 539.587 3.94316 539.272C4.29182 539.166 4.62041 539.038 4.92896 538.889C5.24615 538.724 5.73282 538.534 6.38897 538.32C7.16964 538.068 8.63083 537.614 10.7726 536.96C13.9094 536.041 15.8869 535.607 16.7052 535.656C16.8148 535.881 16.9133 536.137 17.0008 536.424C17.073 536.66 17.1385 536.919 17.1972 537.201C17.2521 537.47 17.3195 537.736 17.3994 537.997C17.5907 538.892 17.2428 539.536 16.3556 539.93C15.9139 540.133 15.4502 540.309 14.9646 540.457C14.4665 540.609 13.9484 540.74 13.4102 540.851C12.8682 540.948 12.3171 541.083 11.7567 541.254C11.0324 541.557 10.3029 541.821 9.56828 542.046L11.171 547.764C11.2401 548.124 11.3412 548.522 11.4743 548.958C11.6453 549.519 11.8703 550.144 12.1493 550.835C12.451 551.601 12.697 552.295 12.887 552.917C12.9631 553.167 13.5129 555.191 14.5364 558.99L15.412 561.724C15.5814 562.19 15.7174 562.591 15.82 562.927C15.9226 563.263 16.0028 563.593 16.0605 563.916C16.1306 564.234 16.0732 564.47 15.8881 564.622C15.7414 564.721 15.4502 564.837 15.0144 564.971Z" fill="#FFB240"/>
<path d="M22.1034 438.109L21.4683 438.303C20.9578 438.459 19.9665 438.735 18.4944 439.131L18.483 439.093L16.6956 439.66L15.4126 440.073C14.4911 440.355 13.6517 440.57 12.8942 440.72C12.6733 440.175 12.2523 438.997 11.6313 437.185C10.4461 433.749 9.44676 430.698 8.63322 428.033C7.58019 424.583 7.08729 422.589 7.15451 422.051C6.92184 421.646 6.65345 420.945 6.34932 419.949C5.8171 418.205 5.34767 416.422 4.94102 414.6C5.17353 414.202 6.39178 413.666 8.59576 412.992C9.5172 412.71 10.5066 412.428 11.564 412.146C12.0198 412.034 12.4968 411.901 12.9949 411.749C13.4182 411.62 13.8627 411.47 14.3283 411.301C14.8025 411.115 15.27 410.952 15.7307 410.811C17.0257 410.415 18.2461 410.198 19.392 410.161C19.6886 410.642 19.9472 411.244 20.1676 411.966C20.2665 412.29 20.3328 412.597 20.3666 412.886C20.4163 413.361 20.2855 413.646 19.9742 413.741L16.1209 414.899L12.2805 416.032C11.0727 416.401 10.2671 416.661 9.86383 416.812L10.2785 418.237L10.6378 419.414L10.9783 420.596C11.2403 421.633 11.5157 422.624 11.8046 423.571C11.9263 423.969 12.0375 424.289 12.1385 424.531C12.3595 424.586 13.5284 424.29 15.6452 423.642C16.9402 423.247 18.2054 422.887 19.4409 422.564C20.6764 422.24 21.565 422.119 22.1066 422.198C22.5529 422.947 22.854 423.576 23.0099 424.087C23.1809 424.647 23.1724 425.065 22.9841 425.34C22.6721 425.79 21.6569 426.277 19.9385 426.803L19.0176 427.064L17.0061 427.699L13.5589 428.916L15.1487 434.66C16.3714 434.517 18.6886 433.925 22.1004 432.881C24.541 432.135 25.8694 431.804 26.0855 431.888C26.4254 432.288 26.6841 432.801 26.8618 433.427C27.0557 434.062 27.1745 434.652 27.2183 435.197C27.2745 435.738 27.1517 436.116 26.8497 436.331C26.6023 436.502 26.3044 436.641 25.9557 436.747L25.1152 437.004L22.1034 438.109Z" fill="#E440FF"/>
<path d="M23.7075 405.936C23.4157 405.869 23.1219 405.781 22.8262 405.673C22.5783 405.589 22.3592 405.525 22.1689 405.481C21.5121 405.316 21.0451 405.168 20.7679 405.037C20.5034 404.909 20.358 404.728 20.3316 404.495C20.3208 404.252 20.3661 403.882 20.4675 403.384L20.4938 403.27C20.6517 402.585 20.7837 401.519 20.8898 400.074C20.9909 398.534 21.1603 396.842 21.398 395C21.6562 393.068 21.7901 391.676 21.7997 390.823C21.1187 391.574 19.5998 394.337 17.2432 399.112C15.8454 401.929 15.0352 403.473 14.8128 403.742L14.0399 403.704C13.8504 403.019 13.7219 402.214 13.6544 401.29L13.5297 400.179C13.4242 399.593 13.366 399.005 13.3551 398.415C13.3598 397.814 13.3221 397.224 13.242 396.645C13.1042 395.851 13.0385 394.339 13.0448 392.109C13.0525 391.67 13.0515 391.269 13.0416 390.905C13.0445 390.545 13.0498 390.233 13.0575 389.967C13.034 389.721 13.0155 389.57 13.0018 389.513C12.9881 389.457 12.9623 389.424 12.9242 389.415C12.8861 389.406 12.8573 389.386 12.8378 389.355L10.6239 393.134C10.0688 394.034 9.52254 394.984 8.98505 395.982L8.49048 396.911C7.77545 398.215 7.27261 399.209 6.98195 399.89C6.65228 400.682 6.36255 401.157 6.11276 401.313C5.9098 401.44 5.57996 401.45 5.12322 401.345C4.4508 401.19 3.90427 401.01 3.48362 400.806C3.23181 400.681 2.97365 400.468 2.70911 400.166L2.77492 399.881C2.89776 399.348 3.19228 398.447 3.65847 397.178C4.12758 395.897 4.63718 394.584 5.18728 393.241C5.75299 391.889 6.17048 391.063 6.43976 390.764C6.43194 390.682 6.44265 390.578 6.47189 390.451C6.52162 390.235 6.63426 389.921 6.80983 389.507C7.18436 388.578 7.60966 387.747 8.08572 387.015C8.35492 386.369 8.75388 385.566 9.28259 384.605C9.9781 383.269 10.3609 382.449 10.4311 382.144C10.5521 382.025 10.8492 381.519 11.3223 380.626C12.01 379.382 12.8143 378.038 13.7352 376.593C14.6688 375.152 15.4869 374.298 16.1895 374.033C16.5673 374.828 16.711 375.683 16.6204 376.598C16.6039 377.075 16.624 377.567 16.6808 378.075C17.0485 381.581 17.1714 385.772 17.0495 390.648L17.0438 391.368C17.4117 391.106 17.7965 390.567 18.1984 389.751C18.6891 388.782 20.7124 386.062 24.2685 381.591C25.531 379.998 26.41 378.938 26.9056 378.411C27.4169 377.874 27.8311 377.642 28.1483 377.716C28.2751 377.745 28.401 377.807 28.526 377.903C28.5552 377.95 28.4812 378.561 28.3039 379.736C27.764 383.353 27.583 385.53 27.7608 386.266C27.6457 386.533 27.5428 386.863 27.4521 387.257C27.2708 388.043 27.0823 389.383 26.8865 391.275C26.8135 392.114 26.7346 392.804 26.6499 393.346L25.4175 400.778C25.5055 401.266 25.3198 402.506 24.8606 404.499C24.6851 405.26 24.5389 405.72 24.4218 405.881C24.2374 405.985 23.9993 406.003 23.7075 405.936Z" fill="#FF629A"/>
<path d="M25.9287 371.476C23.6704 371.997 21.2887 372.012 18.7837 371.522C17.9748 371.374 17.0536 371.059 16.0202 370.576C13.7623 369.534 12.2368 368.075 11.4438 366.2C11.3287 365.933 11.1926 365.69 11.0355 365.473C10.4424 364.754 9.85274 363.327 9.26669 361.191C9.19258 360.927 9.12481 360.662 9.06338 360.396C8.44037 357.693 8.52923 355.18 9.32995 352.857C10.1277 350.522 11.9292 348.395 14.7343 346.478C15.8479 345.687 16.8932 345.178 17.8701 344.952L18.5259 344.841C19.1222 344.703 19.6424 344.496 20.0865 344.22C20.4018 344.081 20.718 343.974 21.0351 343.901C21.3523 343.828 21.8134 343.741 22.4185 343.642C23.0207 343.529 23.6667 343.434 24.3567 343.355C25.0437 343.263 25.5448 343.234 25.86 343.268C26.0922 343.696 26.3019 344.229 26.4891 344.867C26.5447 345.108 26.6408 345.553 26.7772 346.203C26.9108 346.841 26.8511 347.422 26.5983 347.949C26.5251 347.979 26.4314 348.007 26.3172 348.034C26.0381 348.098 25.6141 348.142 25.0451 348.167C23.7052 348.209 22.4897 348.356 21.3986 348.608C20.5613 348.801 19.7249 349.114 18.8894 349.548L18.8221 349.604C18.0062 350.006 17.2458 350.475 16.5411 351.012C15.6412 351.688 15.0838 352.631 14.8689 353.844C14.7682 354.508 14.6549 354.915 14.529 355.065L14.6123 355.426C14.7293 355.934 14.8331 356.558 14.9237 357.299C14.9978 357.91 15.0796 358.439 15.1693 358.886C15.5311 360.165 16.0456 361.296 16.7129 362.278C16.9549 362.69 17.1734 363.087 17.3685 363.47C17.791 363.679 18.1613 363.895 18.4794 364.115C18.8102 364.333 19.1429 364.53 19.4776 364.706C19.8093 364.87 20.2226 364.982 20.7174 365.042C21.5146 365.138 22.8575 365.022 24.7459 364.693C25.0406 364.638 25.3051 364.597 25.5393 364.57C26.4069 364.45 27.1305 364.343 27.7102 364.249C28.4549 364.117 29.0072 364.05 29.3673 364.047C29.7245 364.031 29.9758 364.107 30.1211 364.274C30.2636 364.428 30.3958 364.711 30.5177 365.124C30.6776 365.702 30.8702 366.306 31.0955 366.935C31.2876 367.479 31.45 368.009 31.5826 368.527C31.6031 368.615 31.6221 368.698 31.6396 368.774C31.6923 369.002 31.7049 369.173 31.6776 369.286C31.5019 369.568 31.2247 369.785 30.846 369.939C30.4644 370.081 30.0706 370.199 29.6646 370.292C29.2713 370.383 28.9205 370.484 28.6121 370.596C27.7366 370.971 26.8421 371.265 25.9287 371.476Z" fill="#4053FF"/>
<path d="M11.0803 332.155C14.4993 332.892 16.5267 332.268 17.1628 330.283C17.4693 329.07 17.1748 328.017 16.2794 327.124C15.9416 326.837 15.4249 326.513 14.7295 326.151C14.034 325.789 13.5048 325.556 13.1418 325.452L12.424 328.03C12.0334 329.394 11.5855 330.769 11.0803 332.155ZM4.19838 347.96L3.95431 347.89C3.32849 347.711 2.79034 347.462 2.33986 347.143C2.59488 345.306 3.01988 343.349 3.61483 341.271C4.05568 339.731 4.59224 338.117 5.22452 336.429C5.87296 334.638 6.39789 333.041 6.79931 331.639L7.57637 328.57L7.73765 328.007C8.2 326.392 8.54655 325.536 8.77731 325.44C8.79887 325.27 8.85086 325.041 8.9333 324.753C8.99064 324.553 9.0883 324.235 9.22625 323.801C9.37673 323.37 9.5666 322.849 9.79587 322.237C10.0377 321.629 10.2257 321.209 10.3599 320.977C10.8286 320.854 11.5635 320.936 12.5649 321.223C13.9792 321.628 15.4659 322.231 17.0249 323.03C18.3014 323.681 19.1719 324.282 19.6366 324.836C20.2942 325.661 20.6784 326.164 20.7892 326.344C21.0072 326.719 21.1998 327.512 21.3672 328.725C21.4223 329.432 21.3172 330.248 21.0519 331.174C21.0412 331.212 20.9561 331.485 20.7966 331.995C20.6372 332.505 20.3212 332.97 19.8489 333.389C19.5158 334.08 18.9342 334.786 18.104 335.51C17.2737 336.234 16.4875 336.686 15.7452 336.866C13.8028 337.216 11.8383 337.195 9.85169 336.801C9.61537 337.248 9.27243 338.044 8.82288 339.188C7.88975 341.548 7.22427 343.423 6.82644 344.813L6.67318 345.419C6.57282 345.77 6.48234 346.062 6.40173 346.296L6.32108 346.578C6.18131 347.066 6.12647 347.565 6.15657 348.075C5.60033 348.173 4.9476 348.135 4.19838 347.96Z" fill="#FFB240"/>
</svg>
