<svg width="39" height="572" viewBox="0 0 39 572" fill="none" xmlns="http://www.w3.org/2000/svg">
<path d="M14.8876 115.353L19.1927 114.139C19.3436 114.098 19.4123 114.053 19.3989 114.003L19.3309 113.9C18.3549 112.166 17.6854 110.822 17.3223 109.868C16.7827 108.557 16.2818 107.768 15.8195 107.501L15.7211 108.72C15.5678 109.961 15.4881 110.872 15.4819 111.453L15.2653 112.684C15.0181 113.977 14.8922 114.867 14.8876 115.353ZM14.0049 127.924L13.8917 127.954C13.6527 128.018 13.0041 128.138 11.9459 128.314C10.7996 128.513 10.1534 128.592 10.0075 128.55C9.92689 128.45 9.8664 128.325 9.82602 128.174C9.69478 127.684 9.71608 126.579 9.88993 124.861C9.95231 124.238 9.98546 123.757 9.98937 123.419C9.97645 123.018 9.97683 122.465 9.9905 121.761C10.0368 119.969 10.196 118.801 10.4681 118.256C10.41 117.988 10.3854 117.543 10.3941 116.921C10.4216 115.714 10.4999 114.621 10.6291 113.643C10.8164 111.975 11.1658 109.603 11.6774 106.528C12.2748 102.917 12.7181 100.971 13.0072 100.692C13.0753 99.8377 13.2857 99.1882 13.6384 98.7432C14.2173 98.9925 14.9656 99.8502 15.8835 101.316C16.2371 101.882 16.4622 102.32 16.5589 102.632C16.8912 102.866 17.3975 103.499 18.0776 104.53C18.4992 105.199 18.8753 105.698 19.206 106.027C19.4429 106.408 19.8187 106.982 20.3334 107.747L24.1336 113.563C27.8629 119.29 29.7864 122.374 29.9042 122.814L29.9093 122.833C29.756 123.117 29.5775 123.306 29.3738 123.401C29.2548 123.46 29.1198 123.51 28.9689 123.55C28.8808 123.574 28.7722 123.596 28.6431 123.617C28.5232 123.623 28.3878 123.645 28.2368 123.686L27.53 123.916C27.3355 123.995 27.1502 124.058 26.9742 124.105C26.622 124.199 26.2736 124.232 25.9288 124.203C25.3817 123.77 24.3493 122.254 22.8316 119.654C22.1522 118.475 21.5912 117.587 21.1487 116.991C20.888 117.075 20.6306 117.171 20.3766 117.279C20.1351 117.384 19.8509 117.481 19.5239 117.568L19.3164 117.624C19.074 117.675 18.7579 117.753 18.368 117.858C17.2864 118.148 16.0024 118.613 14.5159 119.254C14.2796 120.436 14.1291 122.519 14.0645 125.502L14.0049 127.924Z" fill="#3DFF7F"/>
<path d="M12.1426 153.536C15.1966 154.412 17.3521 153.506 18.6091 150.818C18.7775 150.42 18.9789 149.976 19.2135 149.488C19.8706 148.092 20.287 147.087 20.4626 146.474C21.5127 142.806 21.2699 139.113 19.7341 135.394C19.5231 135.28 19.3488 135.155 19.2112 135.021C19.0003 134.811 18.7509 134.665 18.463 134.583C18.2377 134.518 17.9194 134.495 17.5081 134.512C16.2955 134.584 15.4907 134.699 15.0936 134.856C13.9987 135.463 12.9483 136.578 11.9423 138.199C10.9363 139.82 10.2631 141.226 9.92259 142.415L9.33924 144.523C9.01668 145.65 8.6727 146.71 8.30729 147.702C8.39485 147.822 8.50543 148.334 8.63903 149.24C8.76893 150.347 8.92765 151.117 9.11517 151.55C9.4653 152.22 10.259 152.806 11.4962 153.31C11.7144 153.4 11.9298 153.475 12.1426 153.536ZM8.97737 157.85C6.44905 157.125 4.81001 155.612 4.06024 153.311C3.82463 152.526 3.68315 151.34 3.63579 149.756C3.58843 148.171 3.6546 146.639 3.8343 145.16C3.91872 144.534 4.02544 143.995 4.15446 143.545C4.3265 142.944 4.53867 142.51 4.79098 142.244C4.81795 142.008 4.87444 141.74 4.96045 141.439C5.15041 140.776 5.5444 139.825 6.14244 138.588C6.74047 137.351 7.4959 136.084 8.40872 134.788C9.33405 133.496 10.1357 132.73 10.8136 132.491C11.3488 131.71 12.4624 131.108 14.1544 130.686C15.8501 130.251 17.3872 130.157 18.7659 130.403L19.82 130.624C20.2062 130.694 20.537 130.768 20.8124 130.847C21.0717 130.935 21.3416 131.08 21.6223 131.283C22.2944 131.774 22.9557 132.397 23.6063 133.152C24.4873 134.19 24.934 134.948 24.9462 135.426C25.3304 135.929 25.5696 136.655 25.6639 137.603C25.7742 138.542 25.8327 139.426 25.8394 140.254C25.8496 141.069 25.8914 141.562 25.9646 141.732C25.8944 142.403 25.8449 143.073 25.8159 143.742C25.7811 145.14 25.5728 146.53 25.1911 147.911C25.1087 148.104 25.0084 148.312 24.8903 148.536C24.7757 148.747 24.6844 148.924 24.6163 149.067C24.5447 149.317 24.5115 149.504 24.5168 149.627C24.5382 149.742 24.5273 149.922 24.4843 150.167C24.332 150.651 24.1001 151.106 23.7887 151.532C23.6222 151.782 23.4701 152.029 23.3322 152.274C22.6823 153.551 21.7409 154.757 20.5081 155.894C19.2877 157.034 17.9684 157.739 16.5501 158.01C15.3695 158.444 13.9021 158.578 12.1478 158.414C10.9729 158.307 9.9161 158.119 8.97737 157.85Z" fill="#9F54FF"/>
<path d="M31.9009 186.254L31.3093 186.556C30.8336 186.798 29.9052 187.242 28.5242 187.887L28.5065 187.852L26.8447 188.721L25.6528 189.35C24.7943 189.787 24.0051 190.146 23.2852 190.425C22.9731 189.926 22.3541 188.839 21.4281 187.162C19.6649 183.984 18.1515 181.152 16.888 178.669C15.2525 175.454 14.4212 173.576 14.3941 173.035C14.0946 172.676 13.7087 172.032 13.2364 171.104C12.4098 169.479 11.6382 167.804 10.9215 166.08C11.0815 165.647 12.1882 164.908 14.2417 163.862C15.1002 163.424 16.0256 162.975 17.0178 162.513C17.4473 162.324 17.8941 162.111 18.3581 161.874C18.7526 161.673 19.1643 161.449 19.5934 161.201C20.0282 160.935 20.4602 160.693 20.8894 160.475C22.096 159.86 23.2602 159.435 24.3822 159.199C24.7578 159.622 25.1168 160.169 25.4592 160.843C25.6127 161.144 25.7312 161.435 25.8147 161.714C25.9461 162.173 25.8667 162.476 25.5767 162.624L21.9829 164.433L18.3977 166.216C17.2723 166.79 16.5241 167.185 16.1531 167.404L16.8087 168.735L17.3667 169.832L17.9072 170.938C18.345 171.913 18.7882 172.842 19.2369 173.724C19.4258 174.095 19.591 174.391 19.7322 174.611C19.9594 174.627 21.0591 174.132 23.0314 173.127C24.238 172.513 25.4216 171.939 26.5821 171.406C27.7427 170.873 28.5966 170.599 29.1437 170.583C29.7131 171.243 30.1188 171.811 30.3609 172.286C30.6266 172.809 30.6907 173.222 30.5531 173.526C30.3237 174.022 29.4086 174.679 27.8075 175.494L26.9459 175.912L25.0753 176.887L21.8919 178.684L24.4539 184.064C25.6332 183.712 27.8123 182.726 30.9911 181.106C33.265 179.947 34.5157 179.391 34.7431 179.435C35.1471 179.77 35.491 180.231 35.7746 180.817C36.0757 181.409 36.2951 181.969 36.4327 182.498C36.582 183.021 36.5266 183.415 36.2665 183.679C36.0526 183.89 35.7832 184.079 35.4583 184.244L34.6752 184.643L31.9009 186.254Z" fill="#FF498B"/>
<path d="M29.4788 222.481C29.1815 222.444 28.8802 222.388 28.5748 222.311C28.3195 222.253 28.0949 222.213 27.901 222.189C27.2306 222.093 26.7507 221.995 26.4613 221.894C26.1849 221.794 26.0214 221.63 25.9708 221.401C25.9347 221.16 25.9411 220.787 25.99 220.282L26.0043 220.165C26.0898 219.467 26.1099 218.394 26.0645 216.945C26.0044 215.403 25.9963 213.703 26.0404 211.846C26.0956 209.898 26.0834 208.499 26.0039 207.65C25.405 208.469 24.1828 211.375 22.3373 216.37C21.2412 219.318 20.5966 220.938 20.4035 221.229L19.6308 221.272C19.3709 220.61 19.1591 219.823 18.9954 218.911L18.7554 217.819C18.5894 217.248 18.4701 216.669 18.3977 216.083C18.3397 215.485 18.2407 214.902 18.1004 214.334C17.8806 213.56 17.6574 212.063 17.4309 209.844C17.3928 209.407 17.3498 209.008 17.3021 208.648C17.2674 208.289 17.24 207.978 17.22 207.713C17.171 207.471 17.1367 207.322 17.1172 207.267C17.0977 207.212 17.0686 207.183 17.0298 207.178C16.991 207.173 16.9603 207.156 16.9376 207.127L15.1301 211.116C14.6721 212.07 14.2279 213.072 13.7976 214.121L13.4026 215.096C12.8276 216.468 12.4312 217.508 12.2132 218.216C11.968 219.039 11.7294 219.541 11.4972 219.722C11.3086 219.869 10.9817 219.915 10.5165 219.857C9.83149 219.773 9.26918 219.652 8.82953 219.493C8.56605 219.395 8.28703 219.21 7.99245 218.938L8.02811 218.647C8.09466 218.104 8.29354 217.177 8.62476 215.867C8.95757 214.543 9.32743 213.185 9.73436 211.792C10.1558 210.387 10.4848 209.523 10.7215 209.198C10.7051 209.117 10.7049 209.012 10.7207 208.883C10.7477 208.663 10.8269 208.338 10.9583 207.908C11.2338 206.945 11.5701 206.075 11.9672 205.297C12.1675 204.626 12.4804 203.786 12.906 202.775C13.4583 201.374 13.7534 200.518 13.7914 200.208C13.8993 200.077 14.1419 199.542 14.5193 198.605C15.0733 197.295 15.733 195.874 16.4981 194.342C17.2761 192.81 18.0007 191.876 18.6717 191.539C19.1306 192.29 19.3627 193.126 19.3681 194.045C19.4015 194.521 19.4729 195.009 19.5823 195.507C20.3139 198.956 20.8736 203.111 21.2614 207.973L21.3309 208.69C21.6693 208.39 21.9958 207.814 22.3103 206.96C22.6972 205.945 24.4256 203.029 27.4957 198.211C28.585 196.495 29.3486 195.349 29.7866 194.773C30.239 194.186 30.6268 193.912 30.9499 193.951C31.0791 193.967 31.2108 194.016 31.3451 194.098C31.3791 194.142 31.3692 194.757 31.3155 195.944C31.1561 199.598 31.2033 201.782 31.4569 202.495C31.3703 202.773 31.3025 203.112 31.2534 203.513C31.1551 204.314 31.1075 205.666 31.1103 207.569C31.1252 208.41 31.1188 209.105 31.091 209.652L30.6412 217.173C30.7796 217.649 30.7244 218.902 30.4756 220.931C30.3805 221.706 30.2831 222.18 30.1834 222.351C30.0109 222.474 29.776 222.517 29.4788 222.481Z" fill="#FFB240"/>
<path d="M19.8639 238.275C20.8833 238.533 22.0051 238.501 23.2293 238.182C24.4656 237.866 25.3685 237.073 25.938 235.8C26.1308 235.218 26.193 234.611 26.1248 233.98C26.0687 233.353 25.8613 232.806 25.5025 232.338C25.2278 232.044 24.8322 231.737 24.3158 231.416C23.8164 231.088 23.4098 230.861 23.0959 230.734L22.1494 233.132C21.4333 234.907 20.6715 236.621 19.8639 238.275ZM16.2148 250.662C17.5428 251.198 18.6073 251.327 19.4083 251.046C19.7495 250.931 20.0594 250.79 20.3379 250.621L20.9625 250.326C21.0672 250.102 21.1863 249.876 21.3199 249.649C21.5021 249.371 21.6735 249.033 21.8343 248.635C22.1584 247.797 22.2637 246.927 22.1504 246.024C22.0492 245.127 21.6731 244.371 21.0222 243.757C20.3688 243.184 19.7826 242.792 19.2634 242.583C18.9858 242.471 18.6923 242.38 18.3831 242.311L18.3466 242.402C18.1837 242.701 18.0487 242.984 17.9415 243.249C17.8733 243.418 17.8061 243.637 17.7401 243.905L15.3103 248.78L14.9259 249.994C15.3505 250.263 15.7802 250.486 16.2148 250.662ZM12.6174 253.105C11.9414 252.832 11.245 252.488 10.5282 252.072C10.6945 251.451 11.0824 250.28 11.692 248.561C12.4405 246.462 13.2678 244.289 14.1738 242.043C14.8071 240.473 15.3927 239.109 15.9304 237.95C16.2032 237.274 16.4591 236.605 16.698 235.943C16.7418 235.834 16.7772 235.729 16.8041 235.628L16.9137 235.356C17.1111 234.832 17.4144 234.063 17.8236 233.048C18.4715 231.442 18.9261 230.594 19.1875 230.503C19.2387 230.341 19.3228 230.115 19.4397 229.825C19.5177 229.632 19.6504 229.321 19.8378 228.891C20.0422 228.454 20.2928 227.937 20.5895 227.341C20.9032 226.737 21.1353 226.318 21.2859 226.084C21.8035 225.985 22.5694 226.139 23.5835 226.549C23.6318 226.569 23.9372 226.699 24.4998 226.94C25.0623 227.182 25.8502 227.648 26.8635 228.338C27.8937 229.021 28.5783 229.656 28.9174 230.242C29.3959 231.109 29.6759 231.651 29.7575 231.866C29.9182 232.268 29.9834 233.081 29.9532 234.305C29.9148 234.991 29.7252 235.757 29.3842 236.603C29.3452 236.699 29.2065 237.008 28.968 237.53C28.7416 238.056 28.3727 238.518 27.8614 238.915C27.4872 239.565 26.9728 240.178 26.3183 240.757C25.6759 241.34 25.0282 241.71 24.375 241.867C24.5726 242.074 24.7376 242.274 24.8699 242.468L25.6439 243.159C25.6748 243.326 25.7611 243.565 25.9028 243.875C26.2989 244.807 26.4749 245.763 26.4308 246.742C26.3889 247.02 26.2811 247.496 26.1074 248.171C25.9189 248.951 25.7029 249.643 25.4593 250.247C25.2596 250.742 25.0799 251.014 24.9202 251.061C24.7571 251.431 24.41 251.873 23.879 252.389C23.3481 252.905 22.7811 253.336 22.1781 253.682C21.5871 254.033 21.1263 254.149 20.7954 254.029C20.4563 254.243 19.9785 254.366 19.362 254.398C18.2449 254.452 17.086 254.349 15.8853 254.089C14.6001 253.794 13.5108 253.466 12.6174 253.105Z" fill="#E440FF"/>
<path d="M23.1283 288.704C22.3139 289.016 21.7552 289.196 21.4523 289.243C21.256 289.276 21.0986 289.211 20.98 289.047C20.8615 288.884 20.7347 288.625 20.5995 288.273L20.2361 287.324C19.998 287.067 19.399 285.686 18.4391 283.182C18.1781 282.501 17.413 280.395 16.1439 276.866C15.4405 274.848 14.2079 271.214 12.4462 265.963C12.1506 265.337 11.9213 264.811 11.7582 264.386C11.4133 263.486 11.3499 262.939 11.5679 262.743C11.7148 262.617 11.9037 262.51 12.1347 262.421L12.951 262.15C13.0239 262.122 13.1515 262.073 13.3339 262.003C13.5237 261.916 13.6892 261.839 13.8304 261.77C13.9838 261.698 14.103 261.645 14.1881 261.612C14.492 261.495 14.6617 261.465 14.6972 261.521C14.8262 261.458 14.9665 261.369 15.1181 261.255C15.639 261.013 16.1668 260.79 16.7017 260.585C17.3946 260.319 18.0991 260.083 18.8153 259.878C19.6895 259.612 21.072 259.144 22.9626 258.474L22.9739 258.449L23.4227 258.256C25.3555 257.514 26.5154 257.138 26.9024 257.129C27.2438 258.602 27.5473 259.685 27.8129 260.378L28.0129 260.845C28.2552 261.477 28.6475 262.61 29.1896 264.243C29.8568 266.093 30.512 267.857 31.155 269.535C31.6956 270.945 32.2297 272.302 32.7572 273.606C33.3035 274.958 33.8539 276.358 34.4084 277.805C35.0794 279.555 35.7555 281.374 36.4367 283.26C35.9381 283.633 35.2573 283.985 34.3942 284.316C33.7621 284.559 33.2441 284.681 32.8403 284.683C32.2812 284.061 31.7541 283.14 31.2591 281.922C30.7595 280.691 30.3536 279.668 30.0413 278.853C29.7245 278.027 29.4207 277.216 29.1299 276.421C28.8345 275.614 28.575 274.918 28.3513 274.335L28.0507 273.55C27.7805 272.845 26.6684 269.653 24.7147 263.973L24.5077 263.488C24.4518 263.342 24.4159 263.23 24.4001 263.152C24.3843 263.075 24.3671 263.012 24.3485 262.963C24.3019 262.841 24.2215 262.796 24.1075 262.825L23.6951 263.005C23.6147 263.049 23.5137 263.095 23.3921 263.142C22.4111 263.602 21.4287 264.077 20.4449 264.566C18.424 265.551 17.3162 266.081 17.1217 266.156C16.9273 266.23 16.8127 266.295 16.778 266.35C16.7387 266.393 16.7424 266.476 16.789 266.597L16.8631 266.736L16.961 266.991C17.3125 267.763 17.9959 269.328 19.0112 271.686L19.3901 272.565C19.693 273.356 19.9954 274.181 20.2973 275.041C20.5619 275.804 20.8364 276.557 21.1206 277.299C21.5447 278.405 21.9875 279.469 22.449 280.492C22.7166 281.044 22.9646 281.619 23.193 282.214C23.3561 282.64 23.5093 283.076 23.6528 283.523C23.7962 283.97 23.9495 284.407 24.1126 284.832C24.313 285.355 24.5316 285.871 24.7684 286.38L24.9125 286.701C25.1082 287.212 25.0531 287.595 24.7472 287.852C24.4581 288.117 23.9185 288.4 23.1283 288.704Z" fill="#4053FF"/>
<path d="M28.2833 104.034C27.8557 104.149 27.3471 104.238 26.7576 104.302C26.1714 104.378 25.7839 104.34 25.5951 104.188C25.4649 103.954 25.2837 103.402 25.0515 102.535C24.6511 101.038 24.2754 99.5072 23.9243 97.9432C23.0818 94.3406 22.6801 92.2847 22.7191 91.7755C22.5754 91.4905 22.4312 91.0775 22.2865 90.5366L21.8713 88.909L21.6378 87.9605C21.5806 87.7467 21.499 87.4922 21.3931 87.1971C21.214 86.6789 21.0521 86.1493 20.9074 85.6085C20.756 85.0424 20.6936 84.6076 20.7202 84.3039C20.5219 83.9661 20.3488 83.5204 20.2007 82.967L20.1288 82.6223C20.0951 82.4965 20.0568 82.3787 20.014 82.2689C19.1821 82.3839 18.1876 82.5965 17.0305 82.9065C15.886 83.2132 14.814 83.5139 13.8146 83.8087C13.2176 83.9956 12.7242 84.1413 12.3343 84.2458C11.9444 84.3502 11.7084 84.4 11.6262 84.3951C11.338 83.7713 11.0753 83.0666 10.8382 82.2809C10.6161 81.4507 10.5207 80.7416 10.5521 80.1535C11.7652 79.5993 13.4508 78.9724 15.6089 78.2728L31.3342 74.0997C31.5492 74.5004 31.7997 75.2354 32.0858 76.3045C32.217 76.7951 32.2965 77.1175 32.3243 77.2718C32.3631 77.5176 32.342 77.7659 32.2608 78.0168C32.2123 78.1376 32.1629 78.3059 32.1128 78.5215C31.6306 78.5833 30.7292 78.7911 29.4086 79.145C26.6919 79.8729 25.1253 80.3399 24.7086 80.5459L25.8882 84.5772L26.4254 86.1317L28.5975 94.6286C28.8012 95.4907 28.9878 96.4652 29.1573 97.5521C29.2401 98.3657 29.3943 99.1938 29.6198 100.037L30.0209 101.385C30.1421 101.838 30.2427 102.289 30.3227 102.74C30.1831 103.276 29.5033 103.707 28.2833 104.034Z" fill="#E440FF"/>
<path d="M22.5631 64.9279C22.3498 66.6751 21.4521 68.0351 19.8701 69.0078C18.302 69.9685 16.7109 70.5098 15.0969 70.6319C14.0971 70.7447 13.1607 70.7902 12.2877 70.7683C12.014 70.7622 11.7343 70.7492 11.4485 70.7292C10.812 70.6847 10.1328 70.5981 9.41088 70.4693C9.36772 69.5917 9.41643 67.8657 9.55701 65.2911C9.61083 64.1462 9.67674 63.0152 9.75472 61.8982C9.85266 60.4953 9.99425 58.841 10.1795 56.9352C10.3657 55.0165 10.5878 53.7985 10.8457 53.2814C10.8252 53.2016 10.8299 52.9474 10.8598 52.5188C10.8897 52.0902 10.9312 51.5905 10.984 51.0199C11.0369 50.4493 11.0889 49.8917 11.14 49.347C11.2056 48.5946 11.2539 48.0889 11.2851 47.83C11.3231 47.2845 11.344 46.7051 11.3477 46.0919C11.3386 45.6605 11.3482 45.2435 11.3763 44.8408C11.4298 44.0744 11.5511 43.365 11.7402 42.7126L12.4416 42.7616C13.2756 42.7808 14.0693 42.8167 14.8227 42.8694C15.2773 42.9012 15.712 42.9381 16.1268 42.9802C16.6194 43.0277 17.145 43.0709 17.7036 43.11L18.9895 43.1999C19.4051 43.229 19.8412 43.2464 20.2976 43.2522C20.7689 43.233 21.2188 43.2383 21.6474 43.2683C22.3748 43.3192 23.0518 43.4383 23.6783 43.6257L23.5508 45.7313C23.5418 45.8612 23.5401 45.9785 23.5458 46.0834C23.5489 46.2272 23.5458 46.364 23.5368 46.4939C23.5105 46.8706 23.4321 47.1523 23.3016 47.3389C23.1544 47.5766 22.7432 47.6719 22.0677 47.6246L21.9703 47.6178C21.2819 47.5697 20.5888 47.4951 19.891 47.3941C19.3352 47.3161 18.785 47.2515 18.2403 47.2004L17.5779 47.154C16.9024 47.1068 16.2214 47.0461 15.5348 46.972C15.2737 49.0291 14.9997 51.0853 14.7126 53.1406C14.621 53.8913 14.5257 54.6025 14.4266 55.2743C15.2672 55.3853 16.167 55.5853 17.1257 55.8742C18.0845 56.1632 18.8871 56.5391 19.5335 57.002C20.5518 57.3734 21.3539 58.0364 21.9399 58.9911C22.2803 59.537 22.5331 60.1224 22.6983 60.7475C22.7451 61.0118 22.7857 61.4584 22.8201 62.0874C22.8546 62.7163 22.8578 63.3235 22.83 63.9089L22.8205 64.0453C22.7851 64.5519 22.6993 64.8461 22.5631 64.9279ZM13.1787 65.8576L13.1682 67.1295C13.5793 67.2235 13.9862 67.2846 14.3889 67.3127C15.0513 67.3591 15.7136 67.314 16.3758 67.1776C16.8673 67.0553 17.2575 66.8868 17.5466 66.6721C17.8357 66.4573 18.1002 66.2213 18.3401 65.964C18.4956 65.7921 18.6642 65.6212 18.8458 65.4511C18.8899 65.1932 18.94 64.9421 18.9962 64.6981C19.0848 64.3649 19.15 63.9909 19.192 63.5762C19.2709 61.8849 18.5273 60.6646 16.9611 59.9155C16.2908 59.6076 15.5984 59.4287 14.884 59.3787C14.5333 59.3542 14.1804 59.3621 13.8251 59.4026L13.8197 59.4805C13.758 59.8025 13.7204 60.0609 13.7068 60.2558L13.6973 60.3922C13.6846 60.574 13.6878 60.8092 13.7068 61.0977L13.1787 65.8576Z" fill="#FF498B"/>
<path d="M25.5506 36.5457C23.2923 37.0671 20.9107 37.0824 18.4057 36.5917C17.5967 36.4443 16.6755 36.1292 15.6422 35.6461C13.3842 34.6039 11.8587 33.1453 11.0657 31.2705C10.9506 31.003 10.8146 30.7605 10.6575 30.5429C10.0643 29.8246 9.47468 28.3972 8.88863 26.2607C8.81452 25.9972 8.74676 25.7322 8.68533 25.4658C8.06232 22.7632 8.15117 20.2504 8.9519 17.9274C9.74969 15.5917 11.5511 13.4653 14.3562 11.5482C15.4699 10.7566 16.5152 10.248 17.4921 10.0225L18.1479 9.91114C18.7442 9.77347 19.2644 9.56652 19.7085 9.29027C20.0237 9.15067 20.3399 9.04426 20.6571 8.97103C20.9743 8.89781 21.4354 8.81139 22.0405 8.71179C22.6426 8.5995 23.2887 8.5038 23.9786 8.42469C24.6657 8.33289 25.1668 8.30406 25.482 8.3382C25.7142 8.76568 25.9239 9.29857 26.1111 9.93687C26.1667 10.1779 26.2627 10.6235 26.3992 11.2735C26.5327 11.9108 26.4731 12.4926 26.2202 13.0187C26.147 13.0489 26.0533 13.0772 25.9392 13.1036C25.66 13.168 25.236 13.2125 24.6671 13.2369C23.3272 13.279 22.1117 13.426 21.0206 13.6779C20.1832 13.8712 19.3468 14.1846 18.5114 14.618L18.444 14.6736C17.6281 15.0758 16.8678 15.5453 16.1631 16.0822C15.2632 16.7577 14.7058 17.7015 14.4908 18.9138C14.3901 19.5784 14.2769 19.9854 14.1509 20.1348L14.2343 20.4964C14.3513 21.0039 14.4551 21.6281 14.5457 22.3689C14.6197 22.9799 14.7016 23.5089 14.7913 23.9559C15.153 25.2354 15.6676 26.3661 16.3349 27.3479C16.5768 27.7598 16.7953 28.157 16.9904 28.5396C17.4129 28.7494 17.7832 28.9646 18.1013 29.1851C18.4321 29.4028 18.7648 29.5999 19.0995 29.7765C19.4313 29.9405 19.8446 30.0522 20.3393 30.1117C21.1366 30.2083 22.4794 30.092 24.3678 29.7629C24.6626 29.7083 24.927 29.6672 25.1613 29.6399C26.0288 29.5198 26.7525 29.4129 27.3322 29.3191C28.0768 29.1873 28.6292 29.1199 28.9893 29.1169C29.3464 29.1013 29.5977 29.1769 29.7431 29.3438C29.8855 29.498 30.0177 29.7815 30.1396 30.1944C30.2995 30.7722 30.4921 31.3758 30.7174 32.0053C30.9096 32.549 31.0719 33.0794 31.2045 33.5967C31.225 33.6855 31.244 33.768 31.2616 33.8441C31.3142 34.0725 31.3269 34.2433 31.2995 34.3565C31.1238 34.6376 30.8466 34.8553 30.4679 35.0096C30.0863 35.1511 29.6925 35.2688 29.2866 35.3625C28.8933 35.4533 28.5424 35.5543 28.234 35.6656C27.3586 36.0415 26.4641 36.3348 25.5506 36.5457Z" fill="#4053FF"/>
<path d="M21.0356 454.831C24.1543 454.225 25.6647 452.439 25.5666 449.474C25.5358 449.042 25.5143 448.555 25.5021 448.014C25.4547 446.471 25.3702 445.387 25.2486 444.76C24.5217 441.015 22.631 437.834 19.5766 435.218C19.3366 435.212 19.1248 435.18 18.9413 435.123C18.6584 435.032 18.3699 435.015 18.0759 435.072C17.8459 435.117 17.5515 435.24 17.1929 435.443C16.145 436.058 15.4797 436.525 15.197 436.845C14.4966 437.884 14.0656 439.353 13.9042 441.255C13.7427 443.157 13.7798 444.715 14.0155 445.929L14.4515 448.073C14.6748 449.223 14.8486 450.324 14.9728 451.374C15.1052 451.441 15.4361 451.848 15.9656 452.594C16.5834 453.521 17.074 454.136 17.4374 454.436C18.0529 454.874 19.0261 455.036 20.3572 454.923C20.5922 454.904 20.8183 454.874 21.0356 454.831ZM20.1707 460.113C17.5888 460.615 15.4421 460.011 13.7308 458.301C13.1647 457.708 12.5013 456.716 11.7406 455.325C10.9799 453.934 10.3444 452.539 9.83395 451.139C9.6254 450.543 9.47646 450.015 9.38715 449.555C9.26806 448.941 9.26059 448.458 9.36473 448.107C9.28173 447.884 9.21045 447.619 9.15091 447.312C9.01942 446.635 8.9397 445.609 8.91176 444.235C8.88381 442.861 8.98281 441.389 9.20877 439.82C9.4475 438.248 9.81477 437.202 10.3105 436.681C10.4333 435.742 11.153 434.7 12.4694 433.555C13.7834 432.398 15.1105 431.616 16.4509 431.21L17.4905 430.928C17.8665 430.815 18.1951 430.731 18.4763 430.677C18.7471 430.637 19.0535 430.644 19.3954 430.697C20.2169 430.829 21.0887 431.084 22.0109 431.462C23.2668 431.987 24.0085 432.46 24.2359 432.88C24.8064 433.154 25.3485 433.692 25.8623 434.494C26.3864 435.281 26.8392 436.041 27.2206 436.776C27.5995 437.499 27.8601 437.919 28.0024 438.037C28.244 438.667 28.5035 439.286 28.7809 439.895C29.384 441.158 29.8284 442.491 30.1141 443.894C30.1283 444.104 30.1333 444.335 30.1293 444.588C30.1229 444.828 30.1217 445.027 30.1259 445.185C30.1756 445.441 30.2307 445.622 30.2914 445.73C30.3624 445.822 30.4342 445.987 30.5069 446.225C30.5909 446.726 30.5905 447.237 30.5059 447.758C30.471 448.056 30.4476 448.346 30.4358 448.627C30.4353 450.059 30.1434 451.562 29.5599 453.135C28.9892 454.705 28.1332 455.932 26.9919 456.817C26.1363 457.74 24.8896 458.526 23.2517 459.176C22.1563 459.614 21.1293 459.927 20.1707 460.113Z" fill="#9F54FF"/>
<path d="M17.7039 494.907L17.0689 494.713C16.5584 494.557 15.5823 494.232 14.1406 493.736L14.152 493.699L12.3532 493.169L11.0588 492.794C10.1373 492.512 9.32068 492.222 8.60883 491.923C8.7301 491.347 9.03902 490.134 9.53561 488.285C10.4718 484.772 11.3466 481.683 12.1602 479.018C13.2132 475.568 13.9178 473.639 14.274 473.231C14.3074 472.765 14.4762 472.033 14.7803 471.037C15.3126 469.294 15.919 467.552 16.5996 465.813C17.0146 465.613 18.3241 465.85 20.528 466.524C21.4495 466.806 22.4275 467.125 23.462 467.482C23.9027 467.644 24.3721 467.802 24.8701 467.954C25.2935 468.083 25.7456 468.208 26.2264 468.328C26.7234 468.439 27.2023 468.565 27.663 468.706C28.958 469.101 30.091 469.604 31.0619 470.214C31.0392 470.779 30.9176 471.423 30.6971 472.145C30.5983 472.469 30.4821 472.76 30.3487 473.019C30.1247 473.441 29.857 473.604 29.5457 473.509L25.7038 472.314L21.8862 471.106C20.6784 470.737 19.8652 470.502 19.4467 470.401L18.9947 471.815L18.6354 472.992L18.2575 474.163C17.8959 475.169 17.5707 476.145 17.2818 477.091C17.1601 477.49 17.0737 477.818 17.0226 478.074C17.1751 478.243 18.3098 478.652 20.4267 479.299C21.7217 479.695 22.9717 480.104 24.1768 480.527C25.3819 480.95 26.1868 481.346 26.5915 481.715C26.5436 482.585 26.4418 483.276 26.2859 483.786C26.1148 484.347 25.8743 484.688 25.5645 484.811C25.0547 485.01 23.9407 484.846 22.2223 484.321L21.3128 484.022L19.2899 483.424L15.7515 482.506L13.8628 488.157C14.9562 488.723 17.2088 489.528 20.6206 490.571C23.0612 491.317 24.3478 491.785 24.4803 491.975C24.5388 492.497 24.4669 493.067 24.2643 493.686C24.0704 494.321 23.8395 494.877 23.5716 495.353C23.3161 495.834 23.0032 496.078 22.6327 496.088C22.3322 496.091 22.0076 496.039 21.6589 495.933L20.8184 495.676L17.7039 494.907Z" fill="#FF629A"/>
<path d="M36.8359 527.393C36.5495 527.48 36.2511 527.551 35.9409 527.605C35.6842 527.656 35.4625 527.71 35.2758 527.767C34.6245 527.953 34.1461 528.058 33.8407 528.084C33.5478 528.105 33.3316 528.021 33.1923 527.833C33.0616 527.627 32.9159 527.284 32.7552 526.802L32.721 526.69C32.5157 526.018 32.0981 525.029 31.4683 523.724C30.7869 522.339 30.0891 520.789 29.375 519.074C28.6342 517.271 28.055 515.998 27.6374 515.255C27.4228 516.246 27.4867 519.399 27.8292 524.714C28.0253 527.853 28.0942 529.595 28.036 529.94L27.3475 530.293C26.8413 529.795 26.3282 529.162 25.8082 528.395L25.1454 527.495C24.7616 527.04 24.4176 526.56 24.1133 526.054C23.8177 525.531 23.4905 525.039 23.1316 524.577C22.6161 523.959 21.8043 522.682 20.6963 520.747C20.4836 520.362 20.2824 520.015 20.0926 519.706C19.9153 519.392 19.7637 519.119 19.6378 518.885C19.4947 518.684 19.4031 518.562 19.363 518.52C19.3229 518.478 19.2841 518.462 19.2468 518.474C19.2094 518.485 19.1745 518.482 19.142 518.465L19.1109 522.845C19.0798 523.903 19.0808 524.999 19.1137 526.132L19.1488 527.184C19.1809 528.672 19.2412 529.783 19.3295 530.519C19.4397 531.37 19.4255 531.926 19.2871 532.186C19.1747 532.397 18.8943 532.572 18.446 532.709C17.7861 532.91 17.223 533.028 16.7568 533.062C16.4763 533.079 16.1462 533.024 15.7664 532.895L15.6809 532.614C15.5212 532.091 15.3266 531.164 15.0969 529.832C14.8634 528.487 14.6496 527.095 14.4556 525.657C14.2702 524.202 14.2196 523.278 14.3037 522.885C14.256 522.818 14.2132 522.722 14.1751 522.598C14.1105 522.386 14.0509 522.057 13.9964 521.611C13.8569 520.618 13.8106 519.686 13.8575 518.814C13.7681 518.12 13.7126 517.225 13.6911 516.128C13.6264 514.623 13.5484 513.721 13.4572 513.422C13.5026 513.258 13.5072 512.672 13.4711 511.661C13.4455 510.24 13.471 508.673 13.5474 506.961C13.6364 505.246 13.9189 504.097 14.3949 503.516C15.1194 504.016 15.6707 504.685 16.0489 505.522C16.2729 505.944 16.5362 506.36 16.8387 506.772C18.9077 509.625 21.1067 513.194 23.4357 517.479L23.7904 518.106C23.978 517.694 24.0421 517.035 23.9829 516.127C23.924 515.042 24.3185 511.674 25.1665 506.023C25.4648 504.012 25.697 502.654 25.8632 501.95C26.038 501.229 26.2811 500.821 26.5924 500.726C26.7169 500.688 26.8571 500.679 27.0131 500.7C27.0619 500.726 27.3028 501.292 27.7359 502.399C29.0743 505.802 30.0042 507.778 30.5256 508.326C30.5594 508.616 30.6353 508.953 30.7531 509.339C30.9888 510.111 31.4943 511.366 32.2697 513.103C32.6251 513.866 32.9013 514.503 33.0983 515.015L35.7419 522.07C36.0618 522.448 36.5201 523.615 37.1169 525.571C37.345 526.318 37.4483 526.79 37.4269 526.987C37.3192 527.17 37.1222 527.305 36.8359 527.393Z" fill="#FFB240"/>
<path d="M27.4013 424.338C26.9779 424.467 26.4727 424.574 25.8858 424.658C25.3026 424.755 24.9141 424.73 24.7201 424.586C24.5818 424.356 24.3815 423.811 24.1192 422.952C23.6668 421.47 23.2379 419.953 22.8326 418.402C21.865 414.831 21.3919 412.791 21.4131 412.28C21.2596 412.001 21.1011 411.593 20.9376 411.057L20.4659 409.445L20.1995 408.505C20.1348 408.294 20.0445 408.042 19.9283 407.751C19.7313 407.239 19.5511 406.716 19.3876 406.18C19.2165 405.62 19.139 405.187 19.155 404.883C18.9451 404.552 18.7565 404.113 18.5893 403.565L18.5053 403.223C18.4673 403.099 18.4249 402.982 18.3783 402.874C17.5509 403.018 16.5645 403.265 15.4189 403.615C14.2858 403.962 13.225 404.3 12.2364 404.629C11.6463 404.837 11.1583 405 10.7723 405.118C10.3863 405.236 10.1521 405.294 10.0698 405.291C9.76004 404.678 9.47296 403.983 9.20856 403.206C8.95766 402.384 8.83764 401.679 8.8485 401.09C10.0415 400.494 11.7042 399.808 13.8366 399.034L29.4067 394.315C29.6355 394.707 29.9115 395.433 30.2347 396.492C30.3829 396.977 30.4736 397.297 30.5068 397.45C30.5541 397.694 30.5416 397.943 30.4693 398.197C30.425 398.319 30.3815 398.489 30.339 398.707C29.8592 398.785 28.9656 399.024 27.6582 399.424C24.9686 400.246 23.4192 400.768 23.01 400.988L24.3294 404.976L24.9204 406.511L27.3874 414.927C27.621 415.781 27.8414 416.749 28.0487 417.829C28.1599 418.639 28.3428 419.461 28.5975 420.296L29.0454 421.629C29.1823 422.078 29.2986 422.525 29.3943 422.973C29.2734 423.513 28.6091 423.968 27.4013 424.338Z" fill="#E440FF"/>
<path d="M21.6844 383.385C21.2008 385.077 20.1017 386.28 18.3873 386.993C16.6884 387.697 15.0324 387.983 13.4192 387.851C12.4141 387.806 11.4821 387.704 10.6233 387.546C10.3539 387.497 10.0797 387.44 9.80057 387.376C9.1789 387.233 8.5216 387.041 7.82867 386.801C7.92314 385.927 8.2409 384.23 8.78195 381.709C9.01396 380.586 9.25573 379.479 9.50726 378.388C9.82314 377.018 10.2214 375.406 10.7021 373.553C11.1857 371.687 11.5954 370.518 11.931 370.048C11.9231 369.966 11.9675 369.716 12.064 369.297C12.1605 368.878 12.2795 368.391 12.4208 367.836C12.5622 367.28 12.7007 366.738 12.8362 366.208C13.0185 365.475 13.1453 364.983 13.2165 364.732C13.3393 364.199 13.4504 363.63 13.5498 363.025C13.6083 362.598 13.6829 362.187 13.7735 361.794C13.9461 361.045 14.1767 360.363 14.4655 359.749L15.1506 359.907C15.9713 360.056 16.7496 360.216 17.4855 360.386C17.9295 360.488 18.3531 360.593 18.7561 360.699C19.2353 360.823 19.7477 360.948 20.2932 361.074L21.5493 361.364C21.9552 361.458 22.3832 361.543 22.8331 361.62C23.3015 361.675 23.7451 361.751 24.1637 361.847C24.8742 362.011 25.5242 362.235 26.1137 362.518L25.6589 364.578C25.6297 364.705 25.6097 364.82 25.599 364.925C25.5795 365.067 25.5551 365.202 25.5259 365.329C25.4411 365.697 25.3196 365.963 25.1616 366.127C24.9791 366.339 24.558 366.368 23.8983 366.216L23.8032 366.194C23.1307 366.039 22.4578 365.857 21.7844 365.648C21.2476 365.484 20.7143 365.334 20.1844 365.198L19.5373 365.049C18.8776 364.896 18.2144 364.73 17.5479 364.549C16.9686 366.54 16.3767 368.529 15.7721 370.514C15.5644 371.241 15.3592 371.928 15.1563 372.577C15.9693 372.818 16.8267 373.156 17.7285 373.591C18.6303 374.027 19.3643 374.524 19.9304 375.082C20.8781 375.608 21.5668 376.388 21.9964 377.423C22.2473 378.015 22.4055 378.633 22.4711 379.276C22.476 379.545 22.4463 379.992 22.3821 380.619C22.3178 381.246 22.2262 381.846 22.1073 382.42L22.0766 382.553C21.9625 383.048 21.8318 383.325 21.6844 383.385ZM12.2705 382.835L12.0614 384.089C12.4528 384.247 12.8451 384.371 13.2384 384.461C13.8855 384.611 14.5467 384.67 15.222 384.639C15.7265 384.595 16.1383 384.489 16.4574 384.323C16.7764 384.156 17.0745 383.964 17.3516 383.747C17.5321 383.602 17.7253 383.459 17.9312 383.32C18.0151 383.072 18.1038 382.832 18.1974 382.6C18.3369 382.284 18.4598 381.925 18.5661 381.522C18.9083 379.864 18.3644 378.542 16.9345 377.557C16.3206 377.148 15.6647 376.863 14.9669 376.702C14.6244 376.623 14.2745 376.576 13.9174 376.56L13.8998 376.636C13.7886 376.945 13.7111 377.194 13.6672 377.384L13.6365 377.518C13.5956 377.695 13.5619 377.928 13.5357 378.216L12.2705 382.835Z" fill="#FF498B"/>
<path d="M30.5506 353.564C28.2923 354.085 25.9107 354.1 23.4057 353.61C22.5967 353.462 21.6755 353.147 20.6422 352.664C18.3842 351.622 16.8587 350.163 16.0657 348.289C15.9506 348.021 15.8146 347.779 15.6575 347.561C15.0643 346.843 14.4747 345.415 13.8886 343.279C13.8145 343.015 13.7468 342.75 13.6853 342.484C13.0623 339.781 13.1512 337.268 13.9519 334.945C14.7497 332.61 16.5511 330.483 19.3562 328.566C20.4699 327.775 21.5152 327.266 22.4921 327.041L23.1479 326.929C23.7442 326.792 24.2644 326.585 24.7085 326.308C25.0237 326.169 25.3399 326.062 25.6571 325.989C25.9743 325.916 26.4354 325.829 27.0405 325.73C27.6426 325.618 28.2887 325.522 28.9786 325.443C29.6657 325.351 30.1668 325.322 30.482 325.356C30.7142 325.784 30.9239 326.317 31.1111 326.955C31.1667 327.196 31.2627 327.642 31.3992 328.292C31.5327 328.929 31.4731 329.511 31.2202 330.037C31.147 330.067 31.0533 330.095 30.9392 330.122C30.66 330.186 30.236 330.231 29.6671 330.255C28.3272 330.297 27.1117 330.444 26.0206 330.696C25.1832 330.889 24.3468 331.203 23.5114 331.636L23.444 331.692C22.6281 332.094 21.8678 332.563 21.1631 333.1C20.2632 333.776 19.7058 334.72 19.4908 335.932C19.3901 336.597 19.2769 337.004 19.1509 337.153L19.2343 337.514C19.3513 338.022 19.4551 338.646 19.5457 339.387C19.6197 339.998 19.7016 340.527 19.7913 340.974C20.153 342.253 20.6676 343.384 21.3349 344.366C21.5768 344.778 21.7953 345.175 21.9904 345.558C22.4129 345.767 22.7832 345.983 23.1013 346.203C23.4321 346.421 23.7648 346.618 24.0995 346.795C24.4313 346.959 24.8446 347.07 25.3393 347.13C26.1366 347.226 27.4794 347.11 29.3678 346.781C29.6626 346.726 29.927 346.685 30.1613 346.658C31.0288 346.538 31.7525 346.431 32.3322 346.337C33.0768 346.205 33.6292 346.138 33.9893 346.135C34.3464 346.119 34.5977 346.195 34.7431 346.362C34.8855 346.516 35.0177 346.8 35.1396 347.212C35.2995 347.79 35.4921 348.394 35.7174 349.023C35.9096 349.567 36.0719 350.097 36.2045 350.615C36.225 350.704 36.244 350.786 36.2616 350.862C36.3142 351.091 36.3269 351.261 36.2995 351.375C36.1238 351.656 35.8466 351.873 35.4679 352.028C35.0863 352.169 34.6925 352.287 34.2866 352.381C33.8933 352.471 33.5424 352.572 33.234 352.684C32.3586 353.06 31.4641 353.353 30.5506 353.564Z" fill="#4053FF"/>
<path d="M9.23337 321.167C8.56465 320.948 8.005 320.774 7.5544 320.645L6.97239 320.478C6.60941 320.374 6.32333 320.285 6.11413 320.212C6.10355 319.965 6.11438 319.785 6.14664 319.672C6.1789 319.56 6.20666 319.486 6.22993 319.452C6.30867 319.367 6.38209 319.205 6.45018 318.967C6.52186 318.717 6.5676 318.486 6.5874 318.275C6.61971 318.067 6.6547 317.874 6.69236 317.695C6.84647 317.157 7.02648 316.694 7.23237 316.306C7.45259 315.868 7.62901 315.417 7.76162 314.954C8.37831 312.422 8.9447 310.254 9.46081 308.452C10.0235 306.487 10.502 304.863 10.8962 303.581C11.8583 300.457 12.4271 298.778 12.6025 298.543C12.6996 297.637 12.8683 296.764 13.1084 295.925C13.2518 295.424 13.4166 294.943 13.6028 294.482C13.7139 294.189 13.8205 293.888 13.9226 293.578C14.273 293.679 14.6181 293.751 14.9579 293.794C15.3138 293.828 15.8252 293.934 16.4921 294.112C17.2843 294.325 18.7567 294.741 20.9096 295.358C24.0404 296.297 25.9357 297.009 26.5953 297.497C26.5647 297.745 26.5083 298.013 26.4258 298.301C26.3577 298.539 26.2717 298.792 26.1679 299.06C26.0676 299.316 25.9798 299.575 25.9045 299.838C25.5785 300.693 24.9363 301.044 23.9778 300.891C23.4968 300.821 23.0122 300.716 22.5241 300.576C22.0234 300.432 21.5174 300.26 21.006 300.059C20.4983 299.846 19.9628 299.658 19.3995 299.497C18.627 299.357 17.8716 299.181 17.1331 298.969L15.3673 304.639C15.2294 304.979 15.0978 305.368 14.9723 305.806C14.811 306.369 14.6595 307.017 14.5178 307.748C14.3546 308.555 14.1834 309.271 14.0042 309.897C13.9325 310.147 13.2929 312.145 12.0853 315.889L11.3326 318.66C11.2214 319.143 11.1175 319.553 11.0207 319.891C10.9239 320.229 10.812 320.549 10.6848 320.852C10.5702 321.157 10.3939 321.324 10.1561 321.35C9.97901 321.354 9.67145 321.293 9.23337 321.167Z" fill="#FFB240"/>
<path d="M14.0896 555.893L18.3125 557.368C18.4594 557.422 18.5417 557.424 18.5595 557.375L18.5628 557.251C18.756 555.271 18.9772 553.786 19.2262 552.795C19.5352 551.411 19.5768 550.477 19.3509 549.993L18.5719 550.936C17.7356 551.865 17.1484 552.566 16.8104 553.039L15.9279 553.923C14.9848 554.841 14.3721 555.497 14.0896 555.893ZM6.1661 565.688L6.05598 565.648C5.82351 565.563 5.2234 565.29 4.25566 564.827C3.20227 564.332 2.62774 564.026 2.53207 563.908C2.52315 563.78 2.54538 563.643 2.59875 563.496C2.77219 563.019 3.42219 562.126 4.54873 560.818C4.95686 560.343 5.25934 559.968 5.45618 559.693C5.67524 559.357 5.99218 558.904 6.40697 558.335C7.4712 556.893 8.2708 556.027 8.80576 555.737C8.91139 555.484 9.14602 555.106 9.50966 554.601C10.2236 553.627 10.9136 552.777 11.5798 552.049C12.6885 550.79 14.3333 549.047 16.5142 546.82C19.072 544.204 20.5495 542.864 20.9465 542.801C21.4915 542.14 22.0358 541.728 22.5797 541.566C22.9113 542.102 23.0332 543.234 22.9456 544.962C22.9112 545.629 22.8445 546.117 22.7456 546.428C22.8836 546.81 22.936 547.619 22.9028 548.854C22.8651 549.644 22.8874 550.269 22.9698 550.729C22.9454 551.177 22.9249 551.862 22.9083 552.785L22.6908 559.731C22.466 566.563 22.2757 570.194 22.1201 570.622L22.1134 570.64C21.8253 570.785 21.5706 570.838 21.3493 570.799C21.218 570.779 21.079 570.742 20.9322 570.688C20.8465 570.657 20.7447 570.613 20.6268 570.557C20.5256 570.492 20.4016 570.433 20.2548 570.38L19.544 570.162C19.3393 570.116 19.1513 570.061 18.98 569.999C18.6374 569.874 18.3332 569.701 18.0674 569.479C17.8671 568.811 17.8896 566.976 18.135 563.975C18.2538 562.619 18.3026 561.57 18.2813 560.828C18.0199 560.746 17.7541 560.677 17.4838 560.621C17.2258 560.568 16.9377 560.484 16.6195 560.368L16.4177 560.295C16.1896 560.198 15.886 560.081 15.5067 559.943C14.4544 559.56 13.1358 559.204 11.5507 558.877C10.6799 559.71 9.36381 561.33 7.60232 563.738L6.1661 565.688Z" fill="#3DFF7F"/>
</svg>
