<svg width="137" height="1449" viewBox="0 0 137 1449" fill="none" xmlns="http://www.w3.org/2000/svg">
<path d="M80.2193 151.957L88.8296 149.528C89.1314 149.448 89.2689 149.357 89.242 149.256L89.1059 149.05C87.154 145.583 85.8149 142.895 85.0887 140.987C84.0097 138.364 83.0078 136.786 82.0832 136.252L81.8864 138.691C81.5799 141.172 81.4204 142.994 81.4079 144.157L80.9747 146.619C80.4804 149.204 80.2286 150.984 80.2193 151.957ZM78.4539 177.099L78.2276 177.159C77.7496 177.287 76.4524 177.527 74.3359 177.878C72.0433 178.277 70.7511 178.435 70.4592 178.351C70.298 178.152 70.177 177.901 70.0962 177.599C69.8338 176.618 69.8764 174.409 70.2241 170.973C70.3488 169.726 70.4151 168.765 70.4229 168.089C70.3971 167.287 70.3979 166.181 70.4252 164.772C70.5178 161.189 70.8362 158.852 71.3805 157.763C71.2643 157.228 71.2149 156.338 71.2323 155.093C71.2873 152.679 71.444 150.493 71.7024 148.537C72.077 145.201 72.7758 140.458 73.7989 134.306C74.9938 127.084 75.8804 123.194 76.4586 122.634C76.5948 120.926 77.0155 119.627 77.7209 118.737C78.8787 119.236 80.3755 120.951 82.2112 123.883C82.9183 125.015 83.3686 125.892 83.562 126.514C84.2266 126.983 85.2391 128.248 86.5995 130.31C87.4426 131.648 88.1949 132.646 88.8563 133.305C89.3299 134.067 90.0815 135.214 91.111 136.745L98.7114 148.377C106.17 159.832 110.017 165.999 110.253 166.88L110.263 166.917C109.956 167.485 109.599 167.864 109.192 168.054C108.954 168.171 108.684 168.271 108.382 168.351C108.206 168.399 107.989 168.443 107.73 168.486C107.491 168.496 107.22 168.542 106.918 168.622L105.504 169.082C105.115 169.24 104.745 169.367 104.393 169.461C103.688 169.65 102.991 169.715 102.302 169.657C101.208 168.791 99.1427 165.759 96.1075 160.56C94.7485 158.201 93.6266 156.426 92.7417 155.234C92.2201 155.4 91.7054 155.592 91.1973 155.809C90.7144 156.02 90.146 156.212 89.492 156.388L89.0769 156.499C88.5922 156.602 87.96 156.758 87.1802 156.967C85.017 157.546 82.4489 158.477 79.4761 159.759C79.0034 162.123 78.7024 166.288 78.5732 172.254L78.4539 177.099Z" fill="#3DFF7F"/>
<path d="M32.7962 203.763C38.9042 205.514 43.2152 203.703 45.7292 198.328C46.0659 197.53 46.4688 196.644 46.9379 195.667C48.2522 192.875 49.0849 190.865 49.4362 189.638C51.5364 182.303 51.0507 174.916 47.9791 167.48C47.5572 167.25 47.2086 167.001 46.9333 166.733C46.5115 166.314 46.0127 166.022 45.437 165.857C44.9864 165.727 44.3498 165.68 43.5271 165.715C41.102 165.86 39.4923 166.089 38.6981 166.403C36.5084 167.617 34.4076 169.846 32.3956 173.089C30.3836 176.332 29.0371 179.143 28.3561 181.521L27.1895 185.738C26.5443 187.991 25.8564 190.11 25.1256 192.095C25.3007 192.335 25.5218 193.36 25.789 195.17C26.0488 197.385 26.3663 198.925 26.7413 199.791C27.4416 201.13 29.029 202.303 31.5035 203.311C31.9397 203.49 32.3706 203.641 32.7962 203.763ZM26.4657 212.391C21.4091 210.941 18.131 207.915 16.6315 203.313C16.1602 201.742 15.8773 199.372 15.7826 196.202C15.6878 193.032 15.8202 189.968 16.1796 187.01C16.3484 185.758 16.5618 184.682 16.8199 183.78C17.164 182.579 17.5883 181.711 18.0929 181.179C18.1469 180.707 18.2598 180.17 18.4319 179.569C18.8118 178.242 19.5998 176.342 20.7958 173.867C21.9919 171.393 23.5028 168.859 25.3284 166.267C27.1791 163.683 28.7823 162.151 30.1382 161.673C31.2086 160.111 33.4358 158.907 36.8198 158.062C40.2111 157.193 43.2854 157.004 46.0427 157.497L48.151 157.939C48.9234 158.079 49.5851 158.228 50.1358 158.386C50.6543 158.562 51.1942 158.852 51.7555 159.257C53.0998 160.238 54.4225 161.484 55.7235 162.995C57.4856 165.072 58.3789 166.588 58.4034 167.543C59.1718 168.549 59.6502 170 59.8387 171.896C60.0594 173.775 60.1764 175.542 60.1897 177.198C60.2102 178.83 60.2937 179.815 60.4401 180.155C60.2999 181.497 60.2007 182.836 60.1427 184.174C60.0731 186.972 59.6566 189.751 58.8931 192.512C58.7284 192.899 58.5278 193.315 58.2915 193.762C58.0624 194.184 57.8797 194.538 57.7437 194.824C57.6003 195.325 57.5339 195.699 57.5445 195.945C57.5873 196.174 57.5656 196.534 57.4795 197.024C57.1749 197.993 56.7112 198.903 56.0883 199.754C55.7554 200.255 55.4511 200.75 55.1754 201.24C53.8756 203.793 51.9928 206.206 49.5271 208.479C47.0865 210.759 44.4478 212.17 41.6112 212.711C39.25 213.578 36.3152 213.847 32.8066 213.518C30.4568 213.305 28.3432 212.929 26.4657 212.391Z" fill="#9F54FF"/>
<path d="M109.24 238.925L108.057 239.528C107.105 240.012 105.249 240.9 102.487 242.19L102.451 242.121L99.1276 243.858L96.7438 245.116C95.0268 245.991 93.4483 246.708 92.0085 247.266C91.3843 246.269 90.1463 244.094 88.2944 240.741C84.7679 234.384 81.7411 228.721 79.2141 223.754C75.9432 217.325 74.2806 213.569 74.2264 212.486C73.6275 211.768 72.8557 210.481 71.911 208.624C70.2578 205.374 68.7146 202.025 67.2812 198.576C67.6011 197.711 69.8145 196.233 73.9215 194.14C75.6386 193.265 77.4893 192.366 79.4738 191.443C80.3328 191.063 81.2263 190.637 82.1544 190.165C82.9433 189.763 83.7669 189.314 84.625 188.818C85.4945 188.287 86.3585 187.803 87.217 187.366C89.6301 186.136 91.9586 185.286 94.2025 184.815C94.9537 185.66 95.6717 186.755 96.3566 188.101C96.6636 188.705 96.9006 189.286 97.0676 189.843C97.3303 190.762 97.1716 191.369 96.5915 191.664L89.404 195.283L82.2335 198.849C79.9828 199.995 78.4864 200.787 77.7443 201.224L79.0557 203.887L80.1715 206.081L81.2526 208.292C82.1281 210.242 83.0145 212.1 83.912 213.864C84.2898 214.606 84.6201 215.198 84.9026 215.639C85.357 215.67 87.5564 214.681 91.501 212.671C93.9141 211.442 96.2813 210.294 98.6024 209.228C100.924 208.162 102.631 207.614 103.726 207.582C104.864 208.902 105.676 210.037 106.16 210.989C106.691 212.034 106.819 212.86 106.544 213.468C106.086 214.461 104.255 215.774 101.053 217.405L99.3301 218.239L95.5888 220.189L89.222 223.784L94.3459 234.545C96.7045 233.84 101.063 231.868 107.42 228.628C111.968 226.311 114.47 225.198 114.924 225.287C115.732 225.957 116.42 226.878 116.987 228.05C117.59 229.234 118.028 230.355 118.304 231.413C118.602 232.459 118.491 233.246 117.971 233.774C117.543 234.197 117.005 234.574 116.355 234.905L114.789 235.703L109.24 238.925Z" fill="#FF498B"/>
<path d="M63.0176 280.303C62.4231 280.23 61.8204 280.117 61.2096 279.963C60.6989 279.848 60.2498 279.767 59.8621 279.719C58.5212 279.528 57.5614 279.332 56.9827 279.13C56.4299 278.931 56.1029 278.602 56.0017 278.143C55.9295 277.662 55.9423 276.916 56.0401 275.905L56.0686 275.672C56.2397 274.276 56.2799 272.13 56.1891 269.233C56.0688 266.148 56.0527 262.748 56.1408 259.033C56.2512 255.138 56.2268 252.34 56.0678 250.642C54.8701 252.279 52.4257 258.092 48.7347 268.081C46.5425 273.978 45.2533 277.217 44.8671 277.799L43.3217 277.885C42.8018 276.562 42.3782 274.988 42.0509 273.164L41.5709 270.98C41.2388 269.837 41.0003 268.679 40.8554 267.507C40.7395 266.312 40.5414 265.147 40.2609 264.01C39.8212 262.461 39.3749 259.467 38.9219 255.03C38.8456 254.155 38.7597 253.357 38.6643 252.637C38.5948 251.92 38.54 251.297 38.5 250.767C38.402 250.283 38.3335 249.986 38.2945 249.876C38.2554 249.766 38.1972 249.707 38.1196 249.697C38.0421 249.688 37.9806 249.654 37.9353 249.596L34.3203 257.574C33.4042 259.482 32.5159 261.485 31.6551 263.583L30.8652 265.533C29.7153 268.278 28.9224 270.358 28.4864 271.774C27.9961 273.419 27.5188 274.423 27.0545 274.786C26.6773 275.081 26.0235 275.171 25.093 275.057C23.723 274.888 22.5984 274.645 21.7191 274.327C21.1921 274.132 20.6341 273.761 20.045 273.217L20.1163 272.635C20.2494 271.55 20.6471 269.696 21.3096 267.075C21.9752 264.428 22.7149 261.712 23.5288 258.925C24.3717 256.117 25.0297 254.387 25.503 253.737C25.4703 253.575 25.4698 253.365 25.5015 253.107C25.5554 252.667 25.7138 252.018 25.9766 251.158C26.5276 249.232 27.2002 247.491 27.9944 245.935C28.395 244.594 29.0208 242.913 29.872 240.892C30.9766 238.089 31.5668 236.378 31.6429 235.757C31.8587 235.495 32.3439 234.426 33.0986 232.551C34.2067 229.932 35.526 227.09 37.0562 224.025C38.6123 220.962 40.0614 219.094 41.4035 218.419C42.3212 219.922 42.7854 221.593 42.7962 223.431C42.863 224.384 43.0058 225.359 43.2246 226.356C44.6879 233.253 45.8073 241.563 46.5828 251.287L46.7218 252.721C47.3987 252.122 48.0517 250.969 48.6807 249.262C49.4544 247.232 52.9113 241.399 59.0514 231.763C61.2301 228.331 62.7573 226.039 63.6332 224.887C64.538 223.713 65.3136 223.165 65.9598 223.245C66.2182 223.276 66.4817 223.374 66.7502 223.538C66.8182 223.625 66.7985 224.856 66.691 227.231C66.3723 234.538 66.4666 238.905 66.9738 240.331C66.8007 240.887 66.6651 241.566 66.5668 242.367C66.3703 243.97 66.2749 246.674 66.2807 250.479C66.3105 252.162 66.2976 253.551 66.242 254.646L65.3424 269.687C65.6192 270.64 65.5088 273.145 65.0112 277.203C64.8211 278.754 64.6263 279.701 64.4268 280.044C64.0818 280.29 63.612 280.376 63.0176 280.303Z" fill="#FFB240"/>
<path d="M82.5675 280.716C84.6063 281.231 86.8499 281.168 89.2983 280.528C91.7709 279.898 93.5767 278.311 94.7158 275.765C95.1013 274.601 95.2258 273.388 95.0894 272.125C94.9771 270.872 94.5622 269.777 93.8446 268.841C93.2952 268.254 92.5041 267.64 91.4714 266.998C90.4725 266.341 89.6592 265.886 89.0314 265.633L87.1386 270.429C85.7064 273.979 84.1827 277.408 82.5675 280.716ZM75.2693 305.489C77.9253 306.562 80.0543 306.818 81.6564 306.258C82.3388 306.028 82.9585 305.745 83.5156 305.408L84.7648 304.817C84.974 304.368 85.2123 303.917 85.4796 303.463C85.8439 302.908 86.1868 302.232 86.5083 301.435C87.1564 299.759 87.3672 298.018 87.1405 296.214C86.938 294.418 86.1859 292.907 84.8842 291.679C83.5774 290.533 82.4048 289.75 81.3666 289.331C80.8112 289.106 80.2243 288.925 79.6059 288.788L79.5328 288.969C79.2071 289.568 78.937 290.133 78.7227 290.664C78.5863 291.002 78.452 291.439 78.3198 291.976L73.4603 301.725L72.6914 304.152C73.5408 304.692 74.4 305.138 75.2693 305.489ZM68.0746 310.376C66.7225 309.83 65.3296 309.141 63.8962 308.309C64.2287 307.067 65.0045 304.726 66.2236 301.286C67.7206 297.088 69.3752 292.743 71.1874 288.251C72.454 285.112 73.625 282.383 74.7005 280.065C75.2461 278.713 75.7578 277.375 76.2357 276.051C76.3233 275.834 76.3941 275.623 76.4479 275.421L76.6671 274.877C77.0619 273.829 77.6685 272.29 78.4869 270.262C79.7827 267.05 80.6919 265.353 81.2147 265.171C81.3172 264.847 81.4854 264.395 81.7192 263.816C81.8751 263.429 82.1404 262.806 82.5153 261.947C82.9241 261.073 83.4252 260.039 84.0187 258.847C84.6461 257.64 85.1103 256.802 85.4115 256.334C86.4468 256.134 87.9785 256.444 90.0068 257.264C90.1033 257.303 90.7142 257.563 91.8393 258.046C92.9644 258.529 94.5402 259.46 96.5667 260.841C98.6271 262.207 99.9964 263.476 100.675 264.649C101.632 266.384 102.192 267.467 102.355 267.898C102.676 268.702 102.807 270.327 102.746 272.775C102.669 274.148 102.29 275.68 101.608 277.37C101.53 277.564 101.253 278.182 100.776 279.225C100.323 280.278 99.5851 281.202 98.5625 281.996C97.814 283.295 96.7853 284.522 95.4764 285.678C94.1916 286.845 92.896 287.585 91.5896 287.9C91.9848 288.312 92.3148 288.712 92.5796 289.1L94.1274 290.484C94.1893 290.818 94.3619 291.295 94.6453 291.915C95.4374 293.78 95.7894 295.692 95.7013 297.65C95.6175 298.206 95.4019 299.158 95.0545 300.506C94.6775 302.067 94.2454 303.452 93.7583 304.659C93.3588 305.649 92.9994 306.192 92.68 306.288C92.3538 307.027 91.6598 307.912 90.5978 308.943C89.5358 309.975 88.4018 310.837 87.1958 311.529C86.014 312.231 85.0922 312.463 84.4306 312.224C83.7524 312.652 82.7967 312.898 81.5636 312.961C79.3295 313.07 77.0118 312.863 74.6104 312.343C72.04 311.753 69.8614 311.098 68.0746 310.376Z" fill="#E440FF"/>
<path d="M43.6254 349.52C41.9965 350.145 40.8792 350.505 40.2734 350.598C39.8808 350.665 39.5659 350.535 39.3289 350.207C39.0918 349.88 38.8382 349.363 38.5679 348.658L37.8409 346.761C37.3648 346.247 36.1668 343.485 34.2469 338.476C33.725 337.114 32.1949 332.903 29.6566 325.844C28.2497 321.81 25.7846 314.541 22.2612 304.038C21.67 302.787 21.2113 301.736 20.8851 300.885C20.1955 299.085 20.0686 297.99 20.5046 297.6C20.7984 297.347 21.1762 297.133 21.6382 296.955L23.2707 296.412C23.4166 296.356 23.6719 296.258 24.0365 296.118C24.4162 295.945 24.7473 295.79 25.0297 295.653C25.3364 295.508 25.5749 295.402 25.7451 295.337C26.3529 295.104 26.6922 295.043 26.7631 295.155C27.0212 295.028 27.3018 294.851 27.6049 294.623C28.6467 294.139 29.7025 293.692 30.7722 293.282C32.158 292.75 33.567 292.279 34.9994 291.868C36.7479 291.336 39.5128 290.401 43.2941 289.061L43.3166 289.01L44.2143 288.624C48.0799 287.14 50.3997 286.389 51.1736 286.371C51.8564 289.317 52.4634 291.482 52.9946 292.869L53.3946 293.803C53.8792 295.067 54.6637 297.332 55.7481 300.598C57.0825 304.298 58.3927 307.826 59.6789 311.182C60.76 314.002 61.8281 316.717 62.8833 319.324C63.9757 322.029 65.0765 324.828 66.1856 327.722C67.5277 331.223 68.8799 334.861 70.2422 338.633C69.245 339.379 67.8833 340.083 66.1572 340.746C64.8929 341.231 63.857 341.475 63.0495 341.478C61.9311 340.234 60.877 338.393 59.887 335.956C58.8878 333.494 58.0759 331.449 57.4515 329.819C56.8177 328.166 56.2101 326.544 55.6286 324.954C55.0378 323.34 54.5187 321.949 54.0714 320.782L53.4703 319.214C52.9297 317.803 50.7057 311.418 46.7982 300.059L46.3843 299.088C46.2724 298.796 46.2007 298.573 46.1691 298.418C46.1375 298.262 46.103 298.136 46.0658 298.039C45.9726 297.796 45.8119 297.704 45.5838 297.764L44.759 298.122C44.5981 298.212 44.3961 298.303 44.153 298.396C42.191 299.317 40.2262 300.266 38.2586 301.245C34.2167 303.215 32.0013 304.274 31.6123 304.424C31.2233 304.573 30.9942 304.703 30.9249 304.813C30.8463 304.899 30.8536 305.064 30.9468 305.307L31.0951 305.585L31.2908 306.095C31.9938 307.639 33.3606 310.768 35.3911 315.484L36.1491 317.243C36.7549 318.824 37.3597 320.474 37.9634 322.195C38.4926 323.722 39.0415 325.226 39.61 326.71C40.4581 328.923 41.3437 331.051 42.2668 333.096C42.8021 334.201 43.2981 335.35 43.7547 336.541C44.0809 337.393 44.3875 338.265 44.6744 339.159C44.9613 340.053 45.2678 340.926 45.594 341.777C45.9948 342.823 46.432 343.854 46.9057 344.872L47.1938 345.514C47.5852 346.536 47.475 347.303 46.8632 347.817C46.285 348.346 45.2057 348.914 43.6254 349.52Z" fill="#3DFF7F"/>
<path d="M50.121 141.337C49.2657 141.566 48.2486 141.744 47.0695 141.872C45.8972 142.024 45.1222 141.948 44.7445 141.645C44.4842 141.176 44.1218 140.073 43.6574 138.337C42.8565 135.344 42.105 132.283 41.4029 129.155C39.7179 121.95 38.9144 117.838 38.9924 116.819C38.7051 116.249 38.4168 115.423 38.1274 114.342L37.2969 111.086L36.8298 109.189C36.7154 108.762 36.5523 108.253 36.3405 107.662C35.9823 106.626 35.6586 105.567 35.3692 104.485C35.0663 103.353 34.9414 102.483 34.9946 101.876C34.5982 101.2 34.2519 100.309 33.9558 99.2023L33.8118 98.513C33.7445 98.2614 33.668 98.0258 33.5823 97.8061C31.9185 98.0362 29.9296 98.4613 27.6154 99.0814C25.3263 99.6948 23.1824 100.296 21.1835 100.886C19.9895 101.26 19.0027 101.551 18.2229 101.76C17.4431 101.969 16.971 102.068 16.8066 102.058C16.2303 100.811 15.7049 99.4015 15.2306 97.8301C14.7864 96.1698 14.5957 94.7515 14.6585 93.5754C17.0846 92.467 20.4559 91.2132 24.7721 89.814L56.2226 81.4678C56.6527 82.2692 57.1538 83.7391 57.7259 85.8774C57.9883 86.8585 58.1474 87.5034 58.203 87.812C58.2806 88.3035 58.2382 88.8001 58.0759 89.3019C57.9788 89.5436 57.8802 89.8801 57.7799 90.3114C56.8155 90.435 55.0127 90.8506 52.3715 91.5583C46.9382 93.0142 43.8049 93.9481 42.9716 94.3601L45.3308 102.423L46.4052 105.532L50.7494 122.526C51.1567 124.25 51.5299 126.199 51.8688 128.373C52.0346 130 52.3429 131.656 52.7938 133.342L53.5962 136.038C53.8385 136.944 54.0396 137.847 54.1997 138.748C53.9205 139.82 52.5609 140.683 50.121 141.337Z" fill="#E440FF"/>
<path d="M95.6128 90.8892C95.1862 94.3836 93.3908 97.1035 90.2268 99.049C87.0906 100.97 83.9085 102.053 80.6805 102.297C78.6808 102.523 76.8079 102.614 75.062 102.57C74.5146 102.558 73.9552 102.532 73.3836 102.492C72.1107 102.403 70.7523 102.23 69.3084 101.972C69.2221 100.217 69.3195 96.7647 69.6007 91.6156C69.7083 89.3258 69.8401 87.0639 69.9961 84.8297C70.1919 82.0241 70.4751 78.7154 70.8457 74.9039C71.218 71.0663 71.6621 68.6305 72.1781 67.5962C72.137 67.4367 72.1464 66.9283 72.2063 66.071C72.2661 65.2137 72.3489 64.2145 72.4547 63.0732C72.5605 61.932 72.6645 60.8168 72.7666 59.7275C72.8978 58.2225 72.9945 57.2112 73.0567 56.6935C73.1329 55.6024 73.1747 54.4436 73.182 53.2172C73.1639 52.3544 73.1829 51.5204 73.2392 50.715C73.3462 49.1823 73.5888 47.7635 73.967 46.4586L75.3699 46.5567C77.0379 46.595 78.6253 46.6668 80.132 46.7722C81.0413 46.8358 81.9107 46.9096 82.7401 46.9937C83.7255 47.0887 84.7767 47.1753 85.8938 47.2534L88.4656 47.4333C89.2969 47.4914 90.169 47.5263 91.0819 47.5379C92.0243 47.4994 92.9242 47.5101 93.7815 47.57C95.2363 47.6718 96.5902 47.91 97.8431 48.2848L97.5883 52.496C97.5702 52.7558 97.5668 52.9905 97.5783 53.2002C97.5843 53.4877 97.5783 53.7614 97.5601 54.0212C97.5076 54.7746 97.3508 55.3379 97.0897 55.7113C96.7955 56.1867 95.973 56.3772 94.6221 56.2827L94.4272 56.2691C93.0504 56.1728 91.6642 56.0237 90.2686 55.8217C89.157 55.6656 88.0566 55.5364 86.9673 55.4342L85.6424 55.3415C84.2915 55.2471 82.9295 55.1257 81.5563 54.9775C81.0341 59.0917 80.4859 63.2041 79.9118 67.3147C79.7287 68.816 79.538 70.2385 79.3398 71.5821C81.0211 71.8041 82.8206 72.204 84.7381 72.7819C86.6556 73.3597 88.2608 74.1116 89.5537 75.0373C91.5902 75.7802 93.1945 77.1062 94.3664 79.0156C95.0472 80.1074 95.5529 81.2783 95.8833 82.5284C95.9769 83.057 96.0581 83.9503 96.1269 85.2081C96.1957 86.466 96.2023 87.6804 96.1467 88.8512L96.1276 89.124C96.0569 90.1371 95.8853 90.7256 95.6128 90.8892ZM76.844 92.7486L76.8231 95.2924C77.6453 95.4804 78.4591 95.6026 79.2644 95.6589C80.5893 95.7515 81.9139 95.6614 83.2382 95.3886C84.2212 95.144 85.0017 94.807 85.5799 94.3776C86.1581 93.9481 86.6871 93.476 87.1668 92.9614C87.4779 92.6177 87.8151 92.2758 88.1782 91.9357C88.2664 91.4197 88.3667 90.9177 88.4791 90.4296C88.6561 89.7632 88.7867 89.0153 88.8707 88.1858C89.0285 84.8031 87.5412 82.3627 84.4088 80.8645C83.0682 80.2487 81.6835 79.8908 80.2547 79.7909C79.5533 79.7418 78.8474 79.7577 78.1369 79.8386L78.126 79.9944C78.0027 80.6385 77.9275 81.1553 77.9003 81.545L77.8812 81.8178C77.8558 82.1815 77.8622 82.6518 77.9002 83.2288L76.844 92.7486Z" fill="#FF498B"/>
<path d="M48.2936 74.1661C43.777 75.2088 39.0137 75.2394 34.0037 74.2579C32.3858 73.9633 30.5434 73.3329 28.4767 72.3668C23.9608 70.2824 20.9098 67.3653 19.3238 63.6156C19.0936 63.0807 18.8215 62.5957 18.5073 62.1604C17.321 60.7238 16.1417 57.869 14.9696 53.5961C14.8214 53.069 14.6859 52.539 14.563 52.0061C13.317 46.601 13.4947 41.5755 15.0961 36.9295C16.6917 32.2581 20.2946 28.0053 25.9048 24.1711C28.1321 22.5878 30.2227 21.5706 32.1765 21.1195L33.4881 20.8969C34.6807 20.6216 35.7211 20.2077 36.6093 19.6552C37.2398 19.376 37.8722 19.1631 38.5065 19.0167C39.1409 18.8702 40.0631 18.6974 41.2733 18.4982C42.4776 18.2736 43.7697 18.0822 45.1496 17.924C46.5237 17.7404 47.5259 17.6828 48.1563 17.751C48.6207 18.606 49.0401 19.6718 49.4146 20.9484C49.5257 21.4305 49.7178 22.3216 49.9907 23.6217C50.2578 24.8963 50.1385 26.0597 49.6328 27.1119C49.4864 27.1725 49.299 27.2291 49.0707 27.2818C48.5124 27.4107 47.6644 27.4996 46.5265 27.5485C43.8467 27.6326 41.4157 27.9266 39.2335 28.4304C37.5588 28.817 35.886 29.4437 34.2151 30.3106L34.0804 30.4219C32.4486 31.2262 30.9279 32.1653 29.5185 33.239C27.7187 34.59 26.6039 36.4777 26.174 38.9021C25.9726 40.2315 25.7461 41.0455 25.4942 41.3442L25.6609 42.0674C25.8949 43.0825 26.1025 44.3308 26.2837 45.8124C26.4318 47.0343 26.5955 48.0923 26.7749 48.9864C27.4985 51.5454 28.5275 53.8068 29.8621 55.7705C30.346 56.5942 30.783 57.3886 31.1732 58.1538C32.0182 58.5734 32.7588 59.0038 33.395 59.4449C34.0566 59.8802 34.722 60.2744 35.3914 60.6277C36.0549 60.9556 36.8815 61.179 37.871 61.298C39.4655 61.4911 42.1512 61.2586 45.928 60.6005C46.5175 60.4912 47.0464 60.4091 47.5149 60.3544C49.25 60.1142 50.6973 59.9003 51.8567 59.7128C53.346 59.4492 54.4507 59.3144 55.1709 59.3085C55.8853 59.2772 56.3878 59.4285 56.6785 59.7623C56.9634 60.0707 57.2278 60.6377 57.4716 61.4634C57.7914 62.619 58.1766 63.8263 58.6272 65.0853C59.0115 66.1726 59.3362 67.2335 59.6014 68.2681C59.6424 68.4457 59.6804 68.6106 59.7155 68.7629C59.8208 69.2197 59.8461 69.5613 59.7914 69.7877C59.44 70.3499 58.8856 70.7853 58.1282 71.0938C57.365 71.3769 56.5774 71.6121 55.7655 71.7996C54.9789 71.9812 54.2772 72.1833 53.6604 72.4059C51.9095 73.1575 50.1205 73.7443 48.2936 74.1661Z" fill="#4053FF"/>
<path d="M88.6388 502.371C94.8762 501.159 97.8968 497.587 97.7007 491.656C97.6392 490.793 97.5962 489.82 97.5717 488.737C97.4769 485.651 97.3079 483.482 97.0648 482.229C95.6109 474.739 91.8296 468.378 85.7207 463.145C85.2407 463.132 84.8171 463.069 84.4501 462.954C83.8842 462.772 83.3073 462.739 82.7194 462.853C82.2593 462.942 81.6706 463.189 80.9533 463.594C78.8575 464.824 77.527 465.759 76.9615 466.4C75.5607 468.476 74.6988 471.416 74.3759 475.219C74.053 479.022 74.1272 482.138 74.5986 484.567L75.4705 488.854C75.9171 491.155 76.2646 493.356 76.5132 495.456C76.778 495.591 77.4398 496.404 78.4987 497.896C79.7343 499.751 80.7155 500.98 81.4424 501.582C82.6733 502.457 84.6198 502.781 87.2818 502.556C87.7519 502.517 88.2042 502.456 88.6388 502.371ZM86.9088 512.935C81.7451 513.938 77.4518 512.73 74.0291 509.31C72.897 508.124 71.5702 506.14 70.0488 503.359C68.5274 500.577 67.2563 497.786 66.2354 494.987C65.8183 493.795 65.5204 492.738 65.3418 491.818C65.1037 490.591 65.0887 489.626 65.297 488.922C65.131 488.477 64.9884 487.947 64.8693 487.334C64.6064 485.979 64.4469 483.927 64.391 481.179C64.3351 478.431 64.5331 475.487 64.9851 472.349C65.4625 469.205 66.1971 467.112 67.1886 466.071C67.4342 464.193 68.8734 462.109 71.5063 459.82C74.1342 457.505 76.7886 455.941 79.4692 455.128L81.5484 454.565C82.3004 454.339 82.9576 454.171 83.52 454.062C84.0618 453.983 84.6746 453.997 85.3583 454.103C87.0013 454.367 88.745 454.877 90.5894 455.633C93.1012 456.683 94.5845 457.628 95.0394 458.468C96.1802 459.016 97.2645 460.092 98.2921 461.696C99.3403 463.27 100.246 464.792 101.009 466.262C101.766 467.706 102.288 468.547 102.572 468.783C103.056 470.042 103.575 471.281 104.129 472.5C105.336 475.024 106.224 477.69 106.796 480.497C106.824 480.916 106.834 481.378 106.826 481.884C106.813 482.364 106.811 482.762 106.819 483.079C106.919 483.59 107.029 483.954 107.15 484.169C107.292 484.353 107.436 484.684 107.581 485.159C107.749 486.161 107.749 487.183 107.579 488.224C107.509 488.821 107.463 489.401 107.439 489.962C107.438 492.828 106.854 495.833 105.687 498.978C104.546 502.118 102.834 504.573 100.551 506.343C98.8402 508.188 96.3467 509.76 93.0708 511.06C90.8801 511.937 88.8261 512.562 86.9088 512.935Z" fill="#9F54FF"/>
<path d="M33.6382 554.757L32.3681 554.368C31.3471 554.056 29.3949 553.405 26.5115 552.414L26.5343 552.34L22.9368 551.281L20.3479 550.53C18.505 549.967 16.8717 549.386 15.448 548.787C15.6905 547.636 16.3084 545.21 17.3015 541.511C19.1738 534.486 20.9235 528.308 22.5506 522.978C24.6568 516.079 26.066 512.221 26.7782 511.404C26.8451 510.471 27.1827 509.008 27.791 507.016C28.8554 503.529 30.0683 500.046 31.4295 496.568C32.2595 496.169 34.8784 496.642 39.2864 497.99C41.1293 498.554 43.0853 499.192 45.1544 499.907C46.0357 500.231 46.9745 500.545 47.9706 500.849C48.8173 501.108 49.7215 501.357 50.683 501.597C51.6771 501.819 52.6348 502.071 53.5563 502.353C56.1463 503.145 58.4122 504.151 60.3542 505.371C60.3088 506.501 60.0656 507.788 59.6246 509.232C59.4269 509.88 59.1946 510.462 58.9277 510.98C58.4797 511.823 57.9444 512.15 57.3218 511.959L49.6379 509.569L42.0028 507.153C39.5871 506.415 37.9608 505.945 37.1238 505.744L36.2196 508.571L35.5011 510.925L34.7453 513.267C34.0222 515.279 33.3717 517.232 32.7938 519.125C32.5505 519.922 32.3778 520.577 32.2755 521.09C32.5806 521.429 34.85 522.245 39.0836 523.539C41.6736 524.331 44.1737 525.15 46.5839 525.996C48.994 526.842 50.6038 527.633 51.4133 528.371C51.3176 530.112 51.1138 531.493 50.8021 532.514C50.4599 533.635 49.979 534.318 49.3593 534.565C48.3398 534.961 46.1116 534.634 42.6749 533.583L40.8559 532.986L36.8101 531.79L29.7333 529.953L25.956 541.257C28.1428 542.388 32.648 543.997 39.4716 546.083C44.3528 547.576 46.9258 548.512 47.1909 548.893C47.308 549.936 47.164 551.076 46.759 552.314C46.3712 553.584 45.9094 554.696 45.3735 555.649C44.8625 556.609 44.2366 557.098 43.4958 557.117C42.8947 557.124 42.2455 557.021 41.5482 556.807L39.8672 556.293L33.6382 554.757Z" fill="#FF629A"/>
<path d="M115.138 572.978C114.565 573.154 113.968 573.295 113.348 573.403C112.835 573.506 112.391 573.614 112.018 573.728C110.715 574.099 109.758 574.31 109.148 574.361C108.562 574.404 108.129 574.236 107.851 573.858C107.589 573.448 107.298 572.761 106.976 571.797L106.908 571.573C106.497 570.228 105.662 568.251 104.403 565.64C103.04 562.871 101.644 559.771 100.216 556.341C98.7346 552.736 97.5762 550.19 96.7409 548.703C96.3116 550.686 96.4395 556.992 97.1246 567.62C97.5167 573.9 97.6545 577.384 97.5382 578.073L96.1611 578.78C95.1487 577.783 94.1225 576.517 93.0825 574.983L91.7569 573.183C90.9893 572.274 90.3012 571.313 89.6928 570.301C89.1016 569.256 88.4471 568.272 87.7293 567.347C86.6982 566.11 85.0747 563.557 82.8586 559.687C82.4334 558.918 82.031 558.224 81.6514 557.605C81.2967 556.978 80.9935 556.431 80.7418 555.963C80.4555 555.561 80.2723 555.317 80.192 555.233C80.1118 555.148 80.0344 555.118 79.9596 555.14C79.8849 555.163 79.8151 555.157 79.7501 555.123L79.6878 563.883C79.6258 565.999 79.6277 568.19 79.6935 570.458L79.7636 572.56C79.8279 575.536 79.9485 577.76 80.1252 579.231C80.3454 580.933 80.3172 582.045 80.0404 582.565C79.8155 582.988 79.2547 583.336 78.3582 583.61C77.0383 584.014 75.9121 584.249 74.9797 584.317C74.4187 584.352 73.7584 584.241 72.999 583.983L72.8279 583.422C72.5086 582.376 72.1192 580.521 71.6599 577.856C71.1929 575.167 70.7654 572.384 70.3773 569.507C70.0065 566.598 69.9053 564.75 70.0736 563.963C69.9781 563.829 69.8924 563.637 69.8164 563.388C69.6871 562.965 69.568 562.307 69.4589 561.414C69.1799 559.43 69.0873 557.566 69.1811 555.821C69.0022 554.433 68.8913 552.642 68.8482 550.45C68.7189 547.439 68.563 545.635 68.3805 545.037C68.4712 544.71 68.4805 543.536 68.4083 541.516C68.3571 538.672 68.408 535.539 68.561 532.115C68.7389 528.684 69.3039 526.387 70.2559 525.225C71.7049 526.225 72.8075 527.563 73.5638 529.238C74.0119 530.081 74.5384 530.914 75.1435 531.737C79.2814 537.443 83.6794 544.581 88.3376 553.151L89.047 554.404C89.4221 553.582 89.5503 552.263 89.4318 550.447C89.314 548.277 90.1031 541.541 91.7991 530.239C92.3956 526.217 92.8601 523.502 93.1924 522.093C93.5421 520.652 94.0282 519.836 94.6508 519.646C94.8998 519.57 95.1803 519.552 95.4923 519.593C95.5898 519.645 96.0717 520.777 96.9379 522.99C99.6146 529.797 101.474 533.749 102.517 534.846C102.585 535.424 102.737 536.1 102.972 536.872C103.444 538.416 104.455 540.925 106.005 544.4C106.716 545.925 107.269 547.2 107.663 548.223L112.95 562.333C113.59 563.09 114.506 565.424 115.7 569.335C116.156 570.829 116.363 571.773 116.32 572.168C116.105 572.533 115.711 572.803 115.138 572.978Z" fill="#FFB240"/>
<path d="M78.9634 655.631L76.2571 654.347C76.3264 653.266 76.6499 651.51 77.2275 649.077L77.4532 648.127C77.8984 646.252 78.1853 644.875 78.3139 643.996C78.4076 643.376 78.5177 642.8 78.644 642.267C78.7162 641.963 78.7661 641.641 78.7936 641.299C78.8994 640.629 79.3133 638.773 80.0353 635.732C78.985 636.661 76.9517 638.855 73.9352 642.316C72.6078 643.848 71.3882 645.151 70.2765 646.226C69.5892 646.866 68.9212 647.537 68.2726 648.24C66.727 650.014 65.8216 651.178 65.5565 651.731C65.2515 652.113 65.0483 652.293 64.947 652.269C64.8709 652.251 64.7376 652.192 64.5469 652.094C63.8783 651.641 62.8217 651.243 61.3774 650.901C61.0226 650.817 60.6142 650.733 60.1521 650.651C59.6899 650.568 59.2501 650.504 58.8327 650.458C58.4152 650.413 58.0164 650.345 57.6363 650.255C57.3322 650.183 56.9582 650.067 56.5141 649.909C56.064 649.775 55.443 649.347 54.6511 648.624C54.857 647.87 55.2034 647.256 55.6906 646.783C56.1837 646.284 56.7245 645.81 57.313 645.361C58.0523 644.84 58.7799 644.143 59.4961 643.269C60.2122 642.395 60.9248 641.761 61.634 641.367C62.9696 639.462 65.047 637.252 67.8662 634.735C69.3662 633.378 70.7028 632.089 71.876 630.868C73.0745 629.653 73.814 628.624 74.0946 627.781C73.7984 626.774 72.9224 621.615 71.4665 612.304C69.8969 602.458 69.1649 596.919 69.2703 595.686C70.3779 595.868 71.6539 596.13 73.0983 596.473C76.6205 597.307 78.5469 597.818 78.8776 598.003C79.4868 599.834 79.9084 602.623 80.1423 606.372C80.2494 607.95 80.4175 609.609 80.6466 611.349C80.8272 612.73 80.9728 614.089 81.0834 615.427C81.3262 617.786 81.8733 620.779 82.7249 624.407L83.6759 619.895C84.5708 615.45 85.1235 612.785 85.3341 611.898C86.2066 608.224 87.3414 604.572 88.7387 600.942C90.1321 600.711 91.7663 600.817 93.6414 601.261C95.0351 601.592 96.0959 602.084 96.8238 602.738C96.9809 603.204 96.5869 605.934 95.6416 610.929C95.1942 613.151 94.6937 615.428 94.1401 617.759C93.8393 619.026 93.5846 619.929 93.3763 620.468L92.1802 626.688C94.7276 623.625 96.5938 621.177 97.7786 619.344C98.5042 618.204 99.2582 617.058 100.04 615.906C101.028 614.453 101.924 613.047 102.729 611.685C104.674 608.453 106.318 606.153 107.66 604.785C108.089 604.78 110.052 605.191 113.549 606.02C114.994 606.363 116.239 606.698 117.285 607.026C116.844 608.206 113.687 612.824 107.813 620.879C102.081 628.673 98.9402 632.88 98.3917 633.5C98.2631 634.379 98.4485 635.627 98.9477 637.244C99.447 638.861 100.049 640.61 100.753 642.49C102.141 646.003 103.003 648.911 103.339 651.212C103.77 651.876 104.109 652.759 104.356 653.862C104.603 654.964 104.94 655.913 105.366 656.71C105.69 657.376 105.947 658.039 106.138 658.7C106.36 659.341 106.407 660.048 106.277 660.82C105.049 661.145 103.903 661.181 102.839 660.929C102.458 660.839 102.072 660.72 101.678 660.573C101.285 660.427 100.863 660.286 100.413 660.153C99.963 660.02 99.5606 659.911 99.2058 659.827C98.4456 659.647 97.7651 659.525 97.1642 659.463C96.5827 659.432 96.1562 659.425 95.8847 659.441C95.6386 659.463 95.4776 659.465 95.4016 659.447C95.3002 659.423 95.1993 659.172 95.0989 658.693C95.1106 658.08 94.8376 656.637 94.2801 654.364C94.0165 653.445 93.7216 652.545 93.3953 651.665C92.9638 650.439 92.4729 648.73 91.9227 646.539C91.0144 642.925 90.2786 640.275 89.7154 638.589C89.3566 639.762 89.0651 640.482 88.8408 640.75C88.7759 641.136 88.72 641.484 88.6731 641.794C88.6576 642.085 88.6168 642.37 88.5506 642.648C88.4591 642.921 88.2855 643.201 88.0299 643.488C87.6348 646.392 87.3559 648.186 87.1935 648.87L86.8937 649.964C86.7167 650.484 86.5409 651.111 86.3665 651.846L85.9442 653.793C85.6193 655.161 85.2953 656.075 84.9722 656.533C83.9685 656.59 83.0612 656.522 82.2503 656.33L80.748 655.893C80.2158 655.767 79.621 655.68 78.9634 655.631Z" fill="#4053FF"/>
<path d="M48.0138 687.845C47.4379 688.01 46.7333 688.103 45.8999 688.125C45.1774 687.682 44.0133 686.593 42.4074 684.858C41.5418 683.914 40.7711 683.159 40.0951 682.594C38.9148 681.496 37.8257 680.291 36.8278 678.979L35.2559 677.031C34.6264 676.724 34.0542 676.237 33.5391 675.572C33.3603 675.325 33.1135 675.03 32.7988 674.687C32.4518 674.515 32.0566 674.222 31.6131 673.807C31.4307 674.401 31.2375 674.863 31.0337 675.192C30.9478 675.65 30.8942 676.031 30.8727 676.335C30.7976 677.115 30.5651 677.818 30.1752 678.444L29.7942 680.95C29.6404 682.593 29.3399 684.195 28.8928 685.759C28.6424 686.589 28.3956 687.621 28.1524 688.856C27.6623 691.217 27.2242 692.764 26.8379 693.498C26.1118 693.895 25.4608 694.176 24.885 694.341C24.3091 694.506 23.7476 694.626 23.2003 694.701C22.7855 694.766 22.3151 694.873 21.7893 695.024L20.5607 695.416L17.7065 695.379C17.796 694.08 18.2324 691.721 19.0157 688.301C19.5344 686.039 19.8581 684.471 19.9869 683.594L20.3196 681.63C20.3911 681.311 20.4519 680.955 20.502 680.562C20.6916 679.424 21.4642 675.871 22.8199 669.904L23.7589 665.653C22.7216 664.487 21.9062 663.529 21.3125 662.778L16.4894 657.413C15.209 656.344 12.6195 653.631 8.72097 649.275C4.91545 645.055 2.93759 642.682 2.78738 642.156C3.34893 641.373 4.50243 640.718 6.24786 640.191C8.00045 639.69 9.61354 639.458 11.0871 639.497C15.6509 643.338 19.773 647.291 23.4533 651.358L26.109 654.255L26.8709 650.38C27.9046 644.992 29.373 639.466 31.2759 633.802C32.4204 633.068 33.8189 632.465 35.4714 631.992C37.3992 631.44 38.8281 631.37 39.758 631.781C39.8868 632.232 39.4289 635.275 38.3844 640.91C37.3077 646.716 36.5011 650.387 35.9646 651.922L34.6661 659.038C34.5337 659.997 34.3352 661.246 34.0705 662.784L37.0856 665.944C41.1272 670.042 43.6344 672.657 44.6072 673.787C44.8326 674.101 45.0597 674.375 45.2886 674.607C45.7213 675.08 46.1648 675.589 46.6191 676.136C47.6563 677.302 48.7472 678.466 49.8917 679.629C52.3452 682.15 53.9368 683.929 54.6665 684.966L52.2629 686.507C51.7979 686.586 51.3651 686.683 50.9646 686.798C50.4638 686.941 50.0239 687.107 49.6447 687.297C49.1333 687.498 48.5896 687.68 48.0138 687.845Z" fill="#9F54FF"/>
<path d="M60.7814 724.6L58.965 723.997L57.9762 723.009L59.5685 720.204L60.9626 716.016C61.16 715.423 63.6267 715.351 68.3627 715.8C70.4295 714.868 71.7508 713.537 72.3265 711.807C73.4203 708.521 72.4833 695.339 69.5155 672.262C69.5718 669.454 69.711 667.716 69.9331 667.049L71.3166 666.85L77.3218 668.846C78.5575 669.504 79.3556 676.424 79.716 689.607C80.3833 689.828 81.0561 693.167 81.7346 699.622L82.3277 699.819C83.3656 700.164 88.8314 693.761 98.7249 680.612C99.572 678.067 102.29 677.2 106.878 678.011C109.514 679.491 110.721 680.565 110.499 681.232C89.4438 708.537 76.6681 722.924 72.1719 724.393C68.5569 725.854 64.7601 725.923 60.7814 724.6Z" fill="#FFB240"/>
<path d="M51.7413 483.599C50.8945 483.858 49.8842 484.072 48.7103 484.24C47.5441 484.433 46.7669 484.385 46.3789 484.095C46.1023 483.635 45.7017 482.546 45.1771 480.827C44.2724 477.863 43.4146 474.83 42.604 471.729C40.6688 464.587 39.7225 460.505 39.7649 459.485C39.4579 458.925 39.141 458.11 38.814 457.039L37.8706 453.814L37.3377 451.935C37.2084 451.511 37.0277 451.008 36.7954 450.426C36.4014 449.403 36.0409 448.355 35.7139 447.284C35.3718 446.164 35.2167 445.299 35.2487 444.69C34.8289 444.029 34.4518 443.15 34.1173 442.054L33.9493 441.37C33.8733 441.121 33.7886 440.888 33.6953 440.672C32.0406 440.96 30.0677 441.454 27.7766 442.154C25.5103 442.847 23.3887 443.523 21.4116 444.182C20.2314 444.597 19.2553 444.923 18.4833 445.159C17.7113 445.395 17.243 445.511 17.0783 445.507C16.4588 444.28 15.8847 442.89 15.3559 441.336C14.8541 439.692 14.614 438.281 14.6357 437.104C17.0218 435.911 20.3472 434.541 24.612 432.992L55.7521 423.553C56.2098 424.339 56.7618 425.79 57.4081 427.908C57.7046 428.879 57.886 429.518 57.9524 429.824C58.047 430.313 58.022 430.811 57.8773 431.318C57.7887 431.563 57.7018 431.902 57.6167 432.337C56.6572 432.494 54.87 432.972 52.2551 433.772C46.8759 435.416 43.7771 436.459 42.9587 436.9L45.5975 444.875L46.7796 447.945L51.7135 464.777C52.1807 466.486 52.6216 468.421 53.0361 470.582C53.2585 472.202 53.6243 473.847 54.1338 475.515L55.0296 478.183C55.3033 479.079 55.5359 479.975 55.7273 480.869C55.4856 481.951 54.1569 482.861 51.7413 483.599Z" fill="#E440FF"/>
<path d="M98.0628 435.533C97.0954 438.918 94.8973 441.324 91.4684 442.751C88.0707 444.158 84.7587 444.729 81.5324 444.466C79.522 444.376 77.658 444.173 75.9404 443.856C75.4017 443.759 74.8532 443.645 74.295 443.516C73.0517 443.229 71.7371 442.846 70.3512 442.365C70.5401 440.618 71.1757 437.224 72.2578 432.182C72.7218 429.937 73.2053 427.723 73.7084 425.541C74.3401 422.8 75.1367 419.577 76.0981 415.87C77.0654 412.137 77.8846 409.801 78.5558 408.86C78.5401 408.696 78.6288 408.195 78.8219 407.358C79.0149 406.521 79.2528 405.546 79.5355 404.436C79.8183 403.325 80.0952 402.24 80.3663 401.18C80.7309 399.714 80.9844 398.73 81.1268 398.228C81.3725 397.163 81.5947 396.025 81.7935 394.814C81.9105 393.959 82.0596 393.139 82.2409 392.352C82.586 390.855 83.0473 389.491 83.6248 388.261L84.995 388.578C86.6365 388.877 88.1931 389.196 89.6648 389.536C90.5529 389.741 91.4 389.95 92.2061 390.162C93.1645 390.41 94.1892 390.66 95.2803 390.912L97.7924 391.492C98.6043 391.68 99.4602 391.851 100.36 392.005C101.297 392.114 102.184 392.266 103.021 392.459C104.442 392.787 105.742 393.234 106.921 393.8L106.012 397.92C105.953 398.174 105.913 398.405 105.892 398.614C105.853 398.899 105.804 399.168 105.746 399.422C105.576 400.158 105.333 400.69 105.017 401.018C104.652 401.441 103.81 401.501 102.49 401.196L102.3 401.152C100.955 400.842 99.6095 400.478 98.2627 400.06C97.1892 399.732 96.1225 399.432 95.0626 399.161L93.7685 398.862C92.449 398.557 91.1227 398.224 89.7896 397.863C88.6312 401.845 87.4473 405.821 86.2381 409.792C85.8227 411.246 85.4122 412.621 85.0065 413.917C86.6324 414.4 88.3472 415.076 90.1508 415.947C91.9544 416.818 93.4224 417.811 94.5547 418.928C96.4501 419.98 97.8274 421.541 98.6866 423.61C99.1885 424.795 99.5049 426.031 99.636 427.317C99.6459 427.854 99.5865 428.749 99.458 430.002C99.3295 431.256 99.1463 432.456 98.9084 433.604L98.847 433.87C98.6189 434.86 98.3575 435.414 98.0628 435.533ZM79.2348 434.434L78.8167 436.943C79.5995 437.258 80.3841 437.506 81.1707 437.687C82.4648 437.986 83.7872 438.104 85.1378 438.042C86.1468 437.954 86.9704 437.743 87.6086 437.409C88.2467 437.076 88.8429 436.692 89.3971 436.259C89.7581 435.968 90.1445 435.683 90.5563 435.404C90.724 434.908 90.9015 434.428 91.0888 433.963C91.3677 433.333 91.6135 432.615 91.826 431.808C92.5104 428.492 91.4227 425.849 88.5629 423.879C87.335 423.061 86.0233 422.491 84.6277 422.169C83.9426 422.01 83.2429 421.916 82.5286 421.884L82.4935 422.037C82.2711 422.654 82.116 423.152 82.0283 423.533L81.9669 423.799C81.885 424.155 81.8178 424.62 81.7652 425.196L79.2348 434.434Z" fill="#FF498B"/>
<path d="M57.4146 418.613C52.898 419.655 48.1347 419.686 43.1247 418.704C41.5067 418.41 39.6644 417.779 37.5977 416.813C33.0818 414.729 30.0308 411.812 28.4448 408.062C28.2146 407.527 27.9424 407.042 27.6283 406.607C26.4419 405.17 25.2627 402.316 24.0906 398.043C23.9424 397.516 23.8068 396.986 23.684 396.453C22.438 391.048 22.6157 386.022 24.2171 381.376C25.8127 376.705 29.4156 372.452 35.0258 368.618C37.2531 367.034 39.3437 366.017 41.2975 365.566L42.6091 365.343C43.8017 365.068 44.8421 364.654 45.7303 364.102C46.3607 363.823 46.9932 363.61 47.6275 363.463C48.2619 363.317 49.1841 363.144 50.3943 362.945C51.5985 362.72 52.8906 362.529 54.2706 362.371C55.6447 362.187 56.6469 362.129 57.2773 362.198C57.7417 363.053 58.1611 364.118 58.5355 365.395C58.6467 365.877 58.8387 366.768 59.1117 368.068C59.3788 369.343 59.2595 370.506 58.7538 371.558C58.6074 371.619 58.42 371.676 58.1916 371.728C57.6334 371.857 56.7853 371.946 55.6474 371.995C52.9677 372.079 50.5367 372.373 48.3545 372.877C46.6798 373.264 45.007 373.89 43.3361 374.757L43.2014 374.868C41.5695 375.673 40.0489 376.612 38.6395 377.686C36.8397 379.036 35.7248 380.924 35.2949 383.349C35.0936 384.678 34.867 385.492 34.6152 385.791L34.7819 386.514C35.0159 387.529 35.2235 388.777 35.4047 390.259C35.5528 391.481 35.7165 392.539 35.8959 393.433C36.6194 395.992 37.6485 398.253 38.9831 400.217C39.467 401.041 39.904 401.835 40.2942 402.6C41.1392 403.02 41.8798 403.45 42.516 403.891C43.1775 404.327 43.843 404.721 44.5124 405.074C45.1759 405.402 46.0024 405.626 46.992 405.745C48.5865 405.938 51.2722 405.705 55.049 405.047C55.6385 404.938 56.1674 404.856 56.6358 404.801C58.371 404.561 59.8183 404.347 60.9777 404.159C62.4669 403.896 63.5717 403.761 64.2919 403.755C65.0062 403.724 65.5088 403.875 65.7995 404.209C66.0844 404.517 66.3487 405.084 66.5925 405.91C66.9124 407.066 67.2976 408.273 67.7482 409.532C68.1325 410.619 68.4572 411.68 68.7224 412.715C68.7634 412.892 68.8014 413.057 68.8365 413.209C68.9418 413.666 68.9671 414.008 68.9124 414.234C68.561 414.796 68.0066 415.232 67.2492 415.54C66.486 415.823 65.6984 416.059 64.8864 416.246C64.0998 416.428 63.3981 416.63 62.7813 416.852C61.0304 417.604 59.2415 418.191 57.4146 418.613Z" fill="#4053FF"/>
<path d="M78.0566 381.611C76.7191 381.174 75.5998 380.826 74.6986 380.567L73.5346 380.233C72.8087 380.025 72.2365 379.848 71.8181 379.7C71.7969 379.207 71.8186 378.847 71.8831 378.622C71.9476 378.397 72.0032 378.25 72.0497 378.182C72.2072 378.01 72.354 377.687 72.4902 377.211C72.6336 376.71 72.725 376.249 72.7646 375.827C72.8293 375.412 72.8992 375.026 72.9746 374.668C73.2828 373.592 73.6428 372.665 74.0546 371.889C74.495 371.013 74.8479 370.112 75.1131 369.186C76.3464 364.121 77.4792 359.786 78.5115 356.181C79.6369 352.251 80.5938 349.003 81.3821 346.439C83.3065 340.191 84.4441 336.833 84.7949 336.364C84.9891 334.551 85.3263 332.805 85.8066 331.128C86.0933 330.126 86.423 329.164 86.7955 328.242C87.0176 327.655 87.2308 327.053 87.435 326.434C88.1359 326.635 88.8261 326.779 89.5057 326.865C90.2174 326.934 91.2402 327.146 92.5741 327.501C94.1584 327.928 97.1033 328.759 101.409 329.994C107.671 331.871 111.461 333.296 112.78 334.27C112.719 334.768 112.606 335.304 112.441 335.88C112.305 336.356 112.133 336.862 111.926 337.398C111.725 337.91 111.549 338.428 111.399 338.954C110.747 340.663 109.462 341.365 107.545 341.059C106.583 340.919 105.614 340.709 104.638 340.429C103.637 340.142 102.625 339.797 101.602 339.396C100.586 338.969 99.5154 338.594 98.3889 338.271C96.8439 337.991 95.333 337.639 93.856 337.215L90.3245 348.556C90.0487 349.235 89.7853 350.013 89.5345 350.89C89.2119 352.016 88.9089 353.311 88.6255 354.774C88.299 356.387 87.9566 357.819 87.5982 359.071C87.4549 359.572 86.1756 363.567 83.7605 371.056L82.255 376.598C82.0327 377.563 81.8248 378.384 81.6312 379.06C81.4377 379.736 81.2138 380.376 80.9595 380.981C80.7302 381.592 80.3777 381.925 79.9019 381.978C79.5478 381.985 78.9327 381.862 78.0566 381.611Z" fill="#FFB240"/>
<path d="M43.6548 596.379L52.1007 599.328C52.3943 599.435 52.5589 599.44 52.5945 599.342L52.6012 599.095C52.9877 595.134 53.4299 592.163 53.9279 590.183C54.546 587.415 54.6291 585.547 54.1774 584.579L52.6194 586.464C50.9468 588.322 49.7724 589.724 49.0963 590.669L47.3314 592.438C45.4453 594.273 44.2197 595.587 43.6548 596.379ZM27.8078 615.968L27.5876 615.888C27.1226 615.719 25.9224 615.171 23.9869 614.245C21.8801 613.257 20.7311 612.644 20.5397 612.409C20.5219 612.153 20.5663 611.878 20.6731 611.584C21.02 610.63 22.32 608.844 24.573 606.228C25.3893 605.278 25.9943 604.528 26.3879 603.979C26.8261 603.307 27.4599 602.401 28.2895 601.262C30.418 598.379 32.0172 596.647 33.0871 596.066C33.2984 595.561 33.7676 594.803 34.4949 593.793C35.9228 591.847 37.3029 590.146 38.6352 588.691C40.8527 586.172 44.1422 582.686 48.5039 578.232C53.6196 573 56.5745 570.32 57.3687 570.193C58.4585 568.872 59.5473 568.049 60.635 567.724C61.2981 568.797 61.542 571.061 61.3668 574.517C61.298 575.85 61.1647 576.827 60.9668 577.447C61.2427 578.213 61.3475 579.831 61.2811 582.301C61.2057 583.881 61.2504 585.13 61.4151 586.049C61.3663 586.946 61.3254 588.317 61.2923 590.161L60.8571 604.053C60.4075 617.719 60.027 624.979 59.7157 625.836L59.7024 625.873C59.1263 626.162 58.6169 626.268 58.1742 626.19C57.9117 626.149 57.6336 626.076 57.3399 625.969C57.1686 625.907 56.9651 625.819 56.7293 625.705C56.5268 625.576 56.2788 625.458 55.9851 625.351L54.5636 624.917C54.1542 624.823 53.7783 624.714 53.4357 624.59C52.7505 624.34 52.142 623.994 51.6103 623.551C51.2097 622.214 51.2548 618.544 51.7455 612.543C51.9832 609.83 52.0807 607.732 52.0383 606.248C51.5155 606.085 50.9838 605.947 50.4432 605.833C49.9271 605.729 49.3509 605.561 48.7147 605.329L48.3109 605.182C47.8548 604.988 47.2475 604.753 46.4889 604.477C44.3844 603.711 41.7471 603.001 38.577 602.346C36.8355 604.012 34.2032 607.253 30.6802 612.067L27.8078 615.968Z" fill="#3DFF7F"/>
<path d="M80.2193 845.348L88.8296 842.92C89.1314 842.839 89.2689 842.748 89.242 842.648L89.1059 842.442C87.154 838.974 85.8149 836.287 85.0887 834.378C84.0097 831.756 83.0078 830.178 82.0832 829.643L81.8864 832.082C81.5799 834.564 81.4204 836.386 81.4079 837.549L80.9747 840.01C80.4804 842.596 80.2286 844.375 80.2193 845.348ZM78.4539 870.49L78.2276 870.551C77.7496 870.679 76.4524 870.919 74.3359 871.27C72.0433 871.669 70.7511 871.826 70.4592 871.743C70.298 871.543 70.177 871.293 70.0962 870.991C69.8338 870.01 69.8764 867.801 70.2241 864.365C70.3488 863.118 70.4151 862.157 70.4229 861.481C70.3971 860.679 70.3979 859.573 70.4252 858.164C70.5178 854.58 70.8362 852.244 71.3805 851.154C71.2643 850.619 71.2149 849.729 71.2323 848.484C71.2873 846.07 71.444 843.885 71.7024 841.928C72.077 838.593 72.7758 833.849 73.7989 827.698C74.9938 820.476 75.8804 816.585 76.4586 816.026C76.5948 814.318 77.0155 813.019 77.7209 812.129C78.8787 812.627 80.3755 814.343 82.2112 817.275C82.9183 818.406 83.3686 819.283 83.562 819.905C84.2266 820.374 85.2391 821.64 86.5995 823.702C87.4426 825.04 88.1949 826.038 88.8563 826.696C89.3299 827.459 90.0815 828.606 91.111 830.136L98.7114 841.769C106.17 853.223 110.017 859.391 110.253 860.271L110.263 860.309C109.956 860.876 109.599 861.255 109.192 861.445C108.954 861.563 108.684 861.662 108.382 861.743C108.206 861.79 107.989 861.835 107.73 861.877C107.491 861.888 107.22 861.933 106.918 862.014L105.504 862.474C105.115 862.632 104.745 862.758 104.393 862.852C103.688 863.041 102.991 863.107 102.302 863.049C101.208 862.183 99.1427 859.15 96.1075 853.951C94.7485 851.592 93.6266 849.817 92.7417 848.625C92.2201 848.792 91.7054 848.984 91.1973 849.201C90.7144 849.411 90.146 849.604 89.492 849.779L89.0769 849.89C88.5922 849.993 87.96 850.149 87.1802 850.358C85.017 850.938 82.4489 851.869 79.4761 853.15C79.0034 855.515 78.7024 859.68 78.5732 865.646L78.4539 870.49Z" fill="#3DFF7F"/>
<path d="M32.7962 897.154C38.9042 898.906 43.2152 897.094 45.7292 891.72C46.0659 890.922 46.4688 890.035 46.9379 889.059C48.2522 886.266 49.0849 884.256 49.4362 883.03C51.5364 875.694 51.0507 868.308 47.9791 860.871C47.5572 860.642 47.2086 860.393 46.9333 860.124C46.5115 859.705 46.0127 859.413 45.437 859.248C44.9864 859.119 44.3498 859.072 43.5271 859.107C41.102 859.251 39.4923 859.481 38.6981 859.795C36.5084 861.009 34.4076 863.238 32.3956 866.481C30.3836 869.724 29.0371 872.534 28.3561 874.913L27.1895 879.129C26.5443 881.383 25.8564 883.502 25.1256 885.486C25.3007 885.726 25.5218 886.751 25.789 888.562C26.0488 890.777 26.3663 892.317 26.7413 893.183C27.4416 894.522 29.029 895.695 31.5035 896.702C31.9397 896.882 32.3706 897.032 32.7962 897.154ZM26.4657 905.783C21.4091 904.333 18.131 901.307 16.6315 896.705C16.1602 895.134 15.8773 892.763 15.7826 889.594C15.6878 886.424 15.8202 883.36 16.1796 880.402C16.3484 879.15 16.5618 878.073 16.8199 877.172C17.164 875.97 17.5883 875.103 18.0929 874.57C18.1469 874.098 18.2598 873.562 18.4319 872.961C18.8118 871.634 19.5998 869.733 20.7958 867.259C21.9919 864.784 23.5028 862.251 25.3284 859.659C27.1791 857.074 28.7823 855.543 30.1382 855.065C31.2086 853.502 33.4358 852.299 36.8198 851.454C40.2111 850.584 43.2854 850.396 46.0427 850.888L48.151 851.33C48.9234 851.47 49.5851 851.62 50.1358 851.777C50.6543 851.953 51.1942 852.244 51.7555 852.648C53.0998 853.63 54.4225 854.876 55.7235 856.387C57.4856 858.463 58.3789 859.979 58.4034 860.934C59.1718 861.94 59.6502 863.392 59.8387 865.288C60.0594 867.166 60.1764 868.934 60.1897 870.59C60.2102 872.221 60.2937 873.207 60.4401 873.547C60.2999 874.888 60.2007 876.228 60.1427 877.566C60.0731 880.364 59.6566 883.143 58.8931 885.904C58.7284 886.29 58.5278 886.707 58.2915 887.154C58.0624 887.576 57.8797 887.93 57.7437 888.216C57.6003 888.716 57.5339 889.09 57.5445 889.337C57.5873 889.566 57.5656 889.926 57.4795 890.416C57.1749 891.385 56.7112 892.295 56.0883 893.146C55.7554 893.646 55.4511 894.141 55.1754 894.631C53.8756 897.184 51.9928 899.598 49.5271 901.871C47.0865 904.151 44.4478 905.561 41.6112 906.103C39.25 906.97 36.3152 907.239 32.8066 906.91C30.4568 906.697 28.3432 906.321 26.4657 905.783Z" fill="#9F54FF"/>
<path d="M109.24 932.316L108.057 932.919C107.105 933.404 105.249 934.292 102.487 935.582L102.451 935.512L99.1276 937.25L96.7438 938.508C95.0268 939.383 93.4483 940.1 92.0085 940.658C91.3843 939.661 90.1463 937.486 88.2944 934.133C84.7679 927.775 81.7411 922.113 79.2141 917.146C75.9432 910.717 74.2806 906.96 74.2264 905.877C73.6275 905.16 72.8557 903.872 71.911 902.015C70.2578 898.766 68.7146 895.417 67.2812 891.967C67.6011 891.103 69.8145 889.625 73.9215 887.532C75.6386 886.657 77.4893 885.758 79.4738 884.834C80.3328 884.455 81.2263 884.029 82.1544 883.556C82.9433 883.154 83.7669 882.705 84.625 882.21C85.4945 881.679 86.3585 881.195 87.217 880.758C89.6301 879.528 91.9586 878.678 94.2025 878.207C94.9537 879.051 95.6717 880.147 96.3566 881.493C96.6636 882.097 96.9006 882.677 97.0676 883.235C97.3303 884.154 97.1716 884.76 96.5915 885.056L89.404 888.674L82.2335 892.24C79.9828 893.387 78.4864 894.179 77.7443 894.615L79.0557 897.279L80.1715 899.472L81.2526 901.684C82.1281 903.634 83.0145 905.491 83.912 907.255C84.2898 907.998 84.6201 908.59 84.9026 909.03C85.357 909.062 87.5564 908.073 91.501 906.063C93.9141 904.833 96.2813 903.686 98.6024 902.62C100.924 901.554 102.631 901.006 103.726 900.974C104.864 902.294 105.676 903.429 106.16 904.381C106.691 905.425 106.819 906.251 106.544 906.859C106.086 907.853 104.255 909.165 101.053 910.797L99.3301 911.631L95.5888 913.581L89.222 917.176L94.3459 927.937C96.7045 927.232 101.063 925.26 107.42 922.02C111.968 919.703 114.47 918.589 114.924 918.679C115.732 919.349 116.42 920.27 116.987 921.442C117.59 922.626 118.028 923.747 118.304 924.805C118.602 925.851 118.491 926.638 117.971 927.166C117.543 927.589 117.005 927.966 116.355 928.297L114.789 929.095L109.24 932.316Z" fill="#FF498B"/>
<path d="M63.0176 973.695C62.4231 973.622 61.8204 973.509 61.2096 973.355C60.6989 973.24 60.2498 973.158 59.8621 973.111C58.5212 972.92 57.5614 972.723 56.9827 972.521C56.4299 972.322 56.1029 971.993 56.0017 971.535C55.9295 971.054 55.9423 970.308 56.0401 969.296L56.0686 969.064C56.2397 967.668 56.2799 965.521 56.1891 962.624C56.0688 959.54 56.0527 956.14 56.1408 952.425C56.2512 948.529 56.2268 945.732 56.0678 944.033C54.8701 945.67 52.4257 951.483 48.7347 961.473C46.5425 967.369 45.2533 970.609 44.8671 971.191L43.3217 971.277C42.8018 969.954 42.3782 968.38 42.0509 966.555L41.5709 964.371C41.2388 963.229 41.0003 962.071 40.8554 960.899C40.7395 959.704 40.5414 958.538 40.2609 957.402C39.8212 955.852 39.3749 952.859 38.9219 948.422C38.8456 947.547 38.7597 946.749 38.6643 946.029C38.5948 945.312 38.54 944.689 38.5 944.159C38.402 943.675 38.3335 943.378 38.2945 943.268C38.2554 943.158 38.1972 943.098 38.1196 943.089C38.0421 943.079 37.9806 943.046 37.9353 942.988L34.3203 950.966C33.4042 952.874 32.5159 954.877 31.6551 956.975L30.8652 958.924C29.7153 961.669 28.9224 963.75 28.4864 965.165C27.9961 966.811 27.5188 967.815 27.0545 968.177C26.6773 968.472 26.0235 968.562 25.093 968.448C23.723 968.28 22.5984 968.037 21.7191 967.719C21.1921 967.523 20.6341 967.153 20.045 966.608L20.1163 966.027C20.2494 964.941 20.6471 963.088 21.3096 960.467C21.9752 957.82 22.7149 955.103 23.5288 952.317C24.3717 949.508 25.0297 947.779 25.503 947.128C25.4703 946.967 25.4698 946.757 25.5015 946.498C25.5554 946.059 25.7138 945.409 25.9766 944.55C26.5276 942.623 27.2002 940.882 27.9944 939.327C28.395 937.986 29.0208 936.304 29.872 934.284C30.9766 931.481 31.5668 929.769 31.6429 929.149C31.8587 928.887 32.3439 927.818 33.0986 925.943C34.2067 923.324 35.526 920.482 37.0562 917.416C38.6123 914.354 40.0614 912.485 41.4035 911.811C42.3212 913.314 42.7854 914.984 42.7962 916.822C42.863 917.775 43.0058 918.75 43.2246 919.748C44.6879 926.644 45.8073 934.955 46.5828 944.679L46.7218 946.113C47.3987 945.514 48.0517 944.361 48.6807 942.654C49.4544 940.624 52.9113 934.791 59.0514 925.155C61.2301 921.723 62.7573 919.431 63.6332 918.279C64.538 917.104 65.3136 916.557 65.9598 916.636C66.2182 916.668 66.4817 916.766 66.7502 916.93C66.8182 917.017 66.7985 918.248 66.691 920.622C66.3723 927.929 66.4666 932.296 66.9738 933.723C66.8007 934.279 66.6651 934.958 66.5668 935.759C66.3703 937.362 66.2749 940.065 66.2807 943.87C66.3105 945.553 66.2976 946.942 66.242 948.037L65.3424 963.079C65.6192 964.031 65.5088 966.536 65.0112 970.595C64.8211 972.146 64.6263 973.092 64.4268 973.435C64.0818 973.681 63.612 973.768 63.0176 973.695Z" fill="#FFB240"/>
<path d="M82.5675 974.107C84.6063 974.622 86.8499 974.56 89.2983 973.92C91.7709 973.29 93.5767 971.702 94.7158 969.157C95.1013 967.993 95.2258 966.779 95.0894 965.516C94.9771 964.263 94.5622 963.169 93.8446 962.233C93.2952 961.646 92.5041 961.031 91.4714 960.389C90.4725 959.733 89.6592 959.278 89.0314 959.024L87.1386 963.821C85.7064 967.371 84.1827 970.8 82.5675 974.107ZM75.2693 998.88C77.9253 999.954 80.0543 1000.21 81.6564 999.649C82.3388 999.42 82.9585 999.136 83.5156 998.8L84.7648 998.209C84.974 997.76 85.2123 997.308 85.4796 996.855C85.8439 996.3 86.1868 995.624 86.5083 994.827C87.1564 993.151 87.3672 991.41 87.1405 989.605C86.938 987.81 86.1859 986.299 84.8842 985.07C83.5774 983.925 82.4048 983.142 81.3666 982.722C80.8112 982.498 80.2243 982.317 79.6059 982.18L79.5328 982.361C79.2071 982.959 78.937 983.524 78.7227 984.056C78.5863 984.394 78.452 984.831 78.3198 985.367L73.4603 995.116L72.6914 997.544C73.5408 998.084 74.4 998.529 75.2693 998.88ZM68.0746 1003.77C66.7225 1003.22 65.3296 1002.53 63.8962 1001.7C64.2287 1000.46 65.0045 998.118 66.2236 994.678C67.7206 990.48 69.3752 986.135 71.1874 981.643C72.454 978.504 73.625 975.775 74.7005 973.457C75.2461 972.104 75.7578 970.766 76.2357 969.443C76.3233 969.225 76.3941 969.015 76.4479 968.812L76.6671 968.269C77.0619 967.221 77.6685 965.682 78.4869 963.654C79.7827 960.442 80.6919 958.745 81.2147 958.563C81.3172 958.239 81.4854 957.787 81.7192 957.208C81.8751 956.821 82.1404 956.198 82.5153 955.338C82.9241 954.464 83.4252 953.431 84.0187 952.238C84.6461 951.031 85.1103 950.194 85.4115 949.726C86.4468 949.526 87.9785 949.836 90.0068 950.655C90.1033 950.694 90.7142 950.955 91.8393 951.438C92.9644 951.92 94.5402 952.852 96.5667 954.233C98.6271 955.599 99.9964 956.868 100.675 958.041C101.632 959.776 102.192 960.859 102.355 961.29C102.676 962.094 102.807 963.719 102.746 966.166C102.669 967.54 102.29 969.072 101.608 970.762C101.53 970.955 101.253 971.574 100.776 972.617C100.323 973.67 99.5851 974.593 98.5625 975.388C97.814 976.686 96.7853 977.914 95.4764 979.07C94.1916 980.236 92.896 980.977 91.5896 981.292C91.9848 981.704 92.3148 982.104 92.5796 982.492L94.1274 983.876C94.1893 984.21 94.3619 984.687 94.6453 985.307C95.4374 987.172 95.7894 989.083 95.7013 991.042C95.6175 991.598 95.4019 992.55 95.0545 993.898C94.6775 995.459 94.2454 996.843 93.7583 998.051C93.3588 999.041 92.9994 999.584 92.68 999.68C92.3538 1000.42 91.6598 1001.3 90.5978 1002.34C89.5358 1003.37 88.4018 1004.23 87.1958 1004.92C86.014 1005.62 85.0922 1005.85 84.4306 1005.62C83.7524 1006.04 82.7967 1006.29 81.5636 1006.35C79.3295 1006.46 77.0118 1006.26 74.6104 1005.73C72.04 1005.15 69.8614 1004.49 68.0746 1003.77Z" fill="#E440FF"/>
<path d="M43.6254 1042.91C41.9965 1043.54 40.8792 1043.9 40.2734 1043.99C39.8808 1044.06 39.5659 1043.93 39.3289 1043.6C39.0918 1043.27 38.8382 1042.75 38.5679 1042.05L37.8409 1040.15C37.3648 1039.64 36.1668 1036.88 34.2469 1031.87C33.725 1030.51 32.1949 1026.3 29.6566 1019.24C28.2497 1015.2 25.7846 1007.93 22.2612 997.43C21.67 996.178 21.2113 995.127 20.8851 994.276C20.1955 992.477 20.0686 991.382 20.5046 990.991C20.7984 990.739 21.1762 990.524 21.6382 990.347L23.2707 989.804C23.4166 989.748 23.6719 989.65 24.0365 989.51C24.4162 989.336 24.7473 989.181 25.0297 989.045C25.3364 988.899 25.5749 988.794 25.7451 988.728C26.3529 988.495 26.6922 988.435 26.7631 988.547C27.0212 988.42 27.3018 988.242 27.6049 988.015C28.6467 987.531 29.7025 987.084 30.7722 986.673C32.158 986.141 33.567 985.67 34.9994 985.26C36.7479 984.728 39.5128 983.792 43.2941 982.452L43.3166 982.402L44.2143 982.015C48.0799 980.532 50.3997 979.781 51.1736 979.762C51.8564 982.708 52.4634 984.874 52.9946 986.26L53.3946 987.194C53.8792 988.459 54.6637 990.724 55.7481 993.99C57.0825 997.69 58.3927 1001.22 59.6789 1004.57C60.76 1007.39 61.8281 1010.11 62.8833 1012.72C63.9757 1015.42 65.0765 1018.22 66.1856 1021.11C67.5277 1024.62 68.8799 1028.25 70.2422 1032.03C69.245 1032.77 67.8833 1033.47 66.1572 1034.14C64.8929 1034.62 63.857 1034.87 63.0495 1034.87C61.9311 1033.63 60.877 1031.78 59.887 1029.35C58.8878 1026.89 58.0759 1024.84 57.4515 1023.21C56.8177 1021.56 56.2101 1019.94 55.6286 1018.35C55.0378 1016.73 54.5187 1015.34 54.0714 1014.17L53.4703 1012.61C52.9297 1011.19 50.7057 1004.81 46.7982 993.45L46.3843 992.48C46.2724 992.188 46.2007 991.964 46.1691 991.809C46.1375 991.654 46.103 991.528 46.0658 991.43C45.9726 991.187 45.8119 991.095 45.5838 991.155L44.759 991.514C44.5981 991.603 44.3961 991.695 44.153 991.788C42.191 992.709 40.2262 993.658 38.2586 994.636C34.2167 996.606 32.0013 997.666 31.6123 997.815C31.2233 997.965 30.9942 998.094 30.9249 998.205C30.8463 998.291 30.8536 998.455 30.9468 998.698L31.0951 998.976L31.2908 999.487C31.9938 1001.03 33.3606 1004.16 35.3911 1008.88L36.1491 1010.63C36.7549 1012.22 37.3597 1013.87 37.9634 1015.59C38.4926 1017.11 39.0415 1018.62 39.61 1020.1C40.4581 1022.31 41.3437 1024.44 42.2668 1026.49C42.8021 1027.59 43.2981 1028.74 43.7547 1029.93C44.0809 1030.78 44.3875 1031.66 44.6744 1032.55C44.9613 1033.44 45.2678 1034.32 45.594 1035.17C45.9948 1036.21 46.432 1037.25 46.9057 1038.26L47.1938 1038.91C47.5852 1039.93 47.475 1040.69 46.8632 1041.21C46.285 1041.74 45.2057 1042.31 43.6254 1042.91Z" fill="#3DFF7F"/>
<path d="M50.121 834.729C49.2657 834.958 48.2486 835.136 47.0695 835.263C45.8972 835.416 45.1222 835.34 44.7445 835.037C44.4842 834.568 44.1218 833.465 43.6574 831.729C42.8565 828.735 42.105 825.675 41.4029 822.547C39.7179 815.341 38.9144 811.229 38.9924 810.211C38.7051 809.641 38.4168 808.815 38.1274 807.733L37.2969 804.478L36.8298 802.581C36.7154 802.153 36.5523 801.644 36.3405 801.054C35.9823 800.018 35.6586 798.959 35.3692 797.877C35.0663 796.745 34.9414 795.875 34.9946 795.268C34.5982 794.592 34.2519 793.701 33.9558 792.594L33.8118 791.905C33.7445 791.653 33.668 791.418 33.5823 791.198C31.9185 791.428 29.9296 791.853 27.6154 792.473C25.3263 793.086 23.1824 793.688 21.1835 794.277C19.9895 794.651 19.0027 794.943 18.2229 795.152C17.4431 795.361 16.971 795.46 16.8066 795.45C16.2303 794.203 15.7049 792.793 15.2306 791.222C14.7864 789.561 14.5957 788.143 14.6585 786.967C17.0846 785.859 20.4559 784.605 24.7721 783.206L56.2226 774.859C56.6527 775.661 57.1538 777.131 57.7259 779.269C57.9883 780.25 58.1474 780.895 58.203 781.204C58.2806 781.695 58.2382 782.192 58.0759 782.694C57.9788 782.935 57.8802 783.272 57.7799 783.703C56.8155 783.827 55.0127 784.242 52.3715 784.95C46.9382 786.406 43.8049 787.34 42.9716 787.752L45.3308 795.814L46.4052 798.924L50.7494 815.917C51.1567 817.641 51.5299 819.59 51.8688 821.764C52.0346 823.391 52.3429 825.048 52.7938 826.733L53.5962 829.43C53.8385 830.336 54.0396 831.239 54.1997 832.14C53.9205 833.212 52.5609 834.075 50.121 834.729Z" fill="#E440FF"/>
<path d="M95.6128 784.281C95.1862 787.775 93.3908 790.495 90.2268 792.441C87.0906 794.362 83.9085 795.445 80.6805 795.689C78.6808 795.915 76.8079 796.006 75.062 795.962C74.5146 795.95 73.9552 795.924 73.3836 795.884C72.1107 795.795 70.7523 795.621 69.3084 795.364C69.2221 793.609 69.3195 790.156 69.6007 785.007C69.7083 782.718 69.8401 780.456 69.9961 778.221C70.1919 775.416 70.4751 772.107 70.8457 768.296C71.218 764.458 71.6621 762.022 72.1781 760.988C72.137 760.828 72.1464 760.32 72.2063 759.463C72.2661 758.605 72.3489 757.606 72.4547 756.465C72.5605 755.324 72.6645 754.208 72.7666 753.119C72.8978 751.614 72.9945 750.603 73.0567 750.085C73.1329 748.994 73.1747 747.835 73.182 746.609C73.1639 745.746 73.1829 744.912 73.2392 744.107C73.3462 742.574 73.5888 741.155 73.967 739.85L75.3699 739.948C77.0379 739.987 78.6253 740.059 80.132 740.164C81.0413 740.228 81.9107 740.301 82.7401 740.385C83.7255 740.48 84.7767 740.567 85.8938 740.645L88.4656 740.825C89.2969 740.883 90.169 740.918 91.0819 740.93C92.0243 740.891 92.9242 740.902 93.7815 740.962C95.2363 741.063 96.5902 741.302 97.8431 741.677L97.5883 745.888C97.5702 746.148 97.5668 746.382 97.5783 746.592C97.5843 746.879 97.5783 747.153 97.5601 747.413C97.5076 748.166 97.3508 748.73 97.0897 749.103C96.7955 749.578 95.973 749.769 94.6221 749.674L94.4272 749.661C93.0504 749.565 91.6642 749.415 90.2686 749.213C89.157 749.057 88.0566 748.928 86.9673 748.826L85.6424 748.733C84.2915 748.639 82.9295 748.517 81.5563 748.369C81.0341 752.483 80.4859 756.596 79.9118 760.706C79.7287 762.208 79.538 763.63 79.3398 764.974C81.0211 765.196 82.8206 765.596 84.7381 766.174C86.6556 766.751 88.2608 767.503 89.5537 768.429C91.5902 769.172 93.1945 770.498 94.3664 772.407C95.0472 773.499 95.5529 774.67 95.8833 775.92C95.9769 776.449 96.0581 777.342 96.1269 778.6C96.1957 779.858 96.2023 781.072 96.1467 782.243L96.1276 782.516C96.0569 783.529 95.8853 784.117 95.6128 784.281ZM76.844 786.14L76.8231 788.684C77.6453 788.872 78.4591 788.994 79.2644 789.051C80.5893 789.143 81.9139 789.053 83.2382 788.78C84.2212 788.536 85.0017 788.199 85.5799 787.769C86.1581 787.34 86.6871 786.868 87.1668 786.353C87.4779 786.009 87.8151 785.667 88.1782 785.327C88.2664 784.811 88.3667 784.309 88.4791 783.821C88.6561 783.155 88.7867 782.407 88.8707 781.578C89.0285 778.195 87.5412 775.754 84.4088 774.256C83.0682 773.64 81.6835 773.283 80.2547 773.183C79.5533 773.134 78.8474 773.149 78.1369 773.23L78.126 773.386C78.0027 774.03 77.9275 774.547 77.9003 774.937L77.8812 775.209C77.8558 775.573 77.8622 776.044 77.9002 776.62L76.844 786.14Z" fill="#FF498B"/>
<path d="M48.2936 767.558C43.777 768.6 39.0137 768.631 34.0037 767.65C32.3858 767.355 30.5434 766.725 28.4767 765.758C23.9608 763.674 20.9098 760.757 19.3238 757.007C19.0936 756.472 18.8215 755.987 18.5073 755.552C17.321 754.115 16.1417 751.261 14.9696 746.988C14.8214 746.461 14.6859 745.931 14.563 745.398C13.317 739.993 13.4947 734.967 15.0961 730.321C16.6917 725.65 20.2946 721.397 25.9048 717.563C28.1321 715.979 30.2227 714.962 32.1765 714.511L33.4881 714.289C34.6807 714.013 35.7211 713.599 36.6093 713.047C37.2398 712.768 37.8722 712.555 38.5065 712.408C39.1409 712.262 40.0631 712.089 41.2733 711.89C42.4776 711.665 43.7697 711.474 45.1496 711.316C46.5237 711.132 47.5259 711.074 48.1563 711.143C48.6207 711.998 49.0401 713.063 49.4146 714.34C49.5257 714.822 49.7178 715.713 49.9907 717.013C50.2578 718.288 50.1385 719.451 49.6328 720.504C49.4864 720.564 49.299 720.621 49.0707 720.673C48.5124 720.802 47.6644 720.891 46.5265 720.94C43.8467 721.024 41.4157 721.318 39.2335 721.822C37.5588 722.209 35.886 722.835 34.2151 723.702L34.0804 723.813C32.4486 724.618 30.9279 725.557 29.5185 726.631C27.7187 727.982 26.6039 729.869 26.174 732.294C25.9726 733.623 25.7461 734.437 25.4942 734.736L25.6609 735.459C25.8949 736.474 26.1025 737.722 26.2837 739.204C26.4318 740.426 26.5955 741.484 26.7749 742.378C27.4985 744.937 28.5275 747.198 29.8621 749.162C30.346 749.986 30.783 750.78 31.1732 751.545C32.0182 751.965 32.7588 752.395 33.395 752.837C34.0566 753.272 34.722 753.666 35.3914 754.019C36.0549 754.347 36.8815 754.571 37.871 754.69C39.4655 754.883 42.1512 754.65 45.928 753.992C46.5175 753.883 47.0464 753.801 47.5149 753.746C49.25 753.506 50.6973 753.292 51.8567 753.104C53.346 752.841 54.4507 752.706 55.1709 752.7C55.8853 752.669 56.3878 752.82 56.6785 753.154C56.9634 753.462 57.2278 754.029 57.4716 754.855C57.7914 756.011 58.1766 757.218 58.6272 758.477C59.0115 759.564 59.3362 760.625 59.6014 761.66C59.6424 761.837 59.6804 762.002 59.7155 762.154C59.8208 762.611 59.8461 762.953 59.7914 763.179C59.44 763.742 58.8856 764.177 58.1282 764.485C57.365 764.768 56.5774 765.004 55.7655 765.191C54.9789 765.373 54.2772 765.575 53.6604 765.797C51.9095 766.549 50.1205 767.136 48.2936 767.558Z" fill="#4053FF"/>
<path d="M88.6388 1195.76C94.8762 1194.55 97.8968 1190.98 97.7007 1185.05C97.6392 1184.18 97.5962 1183.21 97.5717 1182.13C97.4769 1179.04 97.3079 1176.87 97.0648 1175.62C95.6109 1168.13 91.8296 1161.77 85.7207 1156.54C85.2407 1156.52 84.8171 1156.46 84.4501 1156.35C83.8842 1156.16 83.3073 1156.13 82.7194 1156.24C82.2593 1156.33 81.6706 1156.58 80.9533 1156.99C78.8575 1158.22 77.527 1159.15 76.9615 1159.79C75.5607 1161.87 74.6988 1164.81 74.3759 1168.61C74.053 1172.41 74.1272 1175.53 74.5986 1177.96L75.4705 1182.25C75.9171 1184.55 76.2646 1186.75 76.5132 1188.85C76.778 1188.98 77.4398 1189.8 78.4987 1191.29C79.7343 1193.14 80.7155 1194.37 81.4424 1194.97C82.6733 1195.85 84.6198 1196.17 87.2818 1195.95C87.7519 1195.91 88.2042 1195.85 88.6388 1195.76ZM86.9088 1206.33C81.7451 1207.33 77.4518 1206.12 74.0291 1202.7C72.897 1201.52 71.5702 1199.53 70.0488 1196.75C68.5274 1193.97 67.2563 1191.18 66.2354 1188.38C65.8183 1187.19 65.5204 1186.13 65.3418 1185.21C65.1037 1183.98 65.0887 1183.02 65.297 1182.31C65.131 1181.87 64.9884 1181.34 64.8693 1180.73C64.6064 1179.37 64.4469 1177.32 64.391 1174.57C64.3351 1171.82 64.5331 1168.88 64.9851 1165.74C65.4625 1162.6 66.1971 1160.5 67.1886 1159.46C67.4342 1157.58 68.8734 1155.5 71.5063 1153.21C74.1342 1150.9 76.7886 1149.33 79.4692 1148.52L81.5484 1147.96C82.3004 1147.73 82.9576 1147.56 83.52 1147.45C84.0618 1147.37 84.6746 1147.39 85.3583 1147.49C87.0013 1147.76 88.745 1148.27 90.5894 1149.02C93.1012 1150.07 94.5845 1151.02 95.0394 1151.86C96.1802 1152.41 97.2645 1153.48 98.2921 1155.09C99.3403 1156.66 100.246 1158.18 101.009 1159.65C101.766 1161.1 102.288 1161.94 102.572 1162.17C103.056 1163.43 103.575 1164.67 104.129 1165.89C105.336 1168.42 106.224 1171.08 106.796 1173.89C106.824 1174.31 106.834 1174.77 106.826 1175.28C106.813 1175.76 106.811 1176.15 106.819 1176.47C106.919 1176.98 107.029 1177.35 107.15 1177.56C107.292 1177.75 107.436 1178.08 107.581 1178.55C107.749 1179.55 107.749 1180.57 107.579 1181.62C107.509 1182.21 107.463 1182.79 107.439 1183.35C107.438 1186.22 106.854 1189.22 105.687 1192.37C104.546 1195.51 102.834 1197.96 100.551 1199.73C98.8402 1201.58 96.3467 1203.15 93.0708 1204.45C90.8801 1205.33 88.8261 1205.95 86.9088 1206.33Z" fill="#9F54FF"/>
<path d="M33.6382 1248.15L32.3681 1247.76C31.3471 1247.45 29.3949 1246.8 26.5115 1245.81L26.5343 1245.73L22.9368 1244.67L20.3479 1243.92C18.505 1243.36 16.8717 1242.78 15.448 1242.18C15.6905 1241.03 16.3084 1238.6 17.3015 1234.9C19.1738 1227.88 20.9235 1221.7 22.5506 1216.37C24.6568 1209.47 26.066 1205.61 26.7782 1204.8C26.8451 1203.86 27.1827 1202.4 27.791 1200.41C28.8554 1196.92 30.0683 1193.44 31.4295 1189.96C32.2595 1189.56 34.8784 1190.03 39.2864 1191.38C41.1293 1191.95 43.0853 1192.58 45.1544 1193.3C46.0357 1193.62 46.9745 1193.94 47.9706 1194.24C48.8173 1194.5 49.7215 1194.75 50.683 1194.99C51.6771 1195.21 52.6348 1195.46 53.5563 1195.74C56.1463 1196.54 58.4122 1197.54 60.3542 1198.76C60.3088 1199.89 60.0656 1201.18 59.6246 1202.62C59.4269 1203.27 59.1946 1203.85 58.9277 1204.37C58.4797 1205.22 57.9444 1205.54 57.3218 1205.35L49.6379 1202.96L42.0028 1200.55C39.5871 1199.81 37.9608 1199.34 37.1238 1199.14L36.2196 1201.96L35.5011 1204.32L34.7453 1206.66C34.0222 1208.67 33.3717 1210.62 32.7938 1212.52C32.5505 1213.31 32.3778 1213.97 32.2755 1214.48C32.5806 1214.82 34.85 1215.64 39.0836 1216.93C41.6736 1217.72 44.1737 1218.54 46.5839 1219.39C48.994 1220.23 50.6038 1221.03 51.4133 1221.76C51.3176 1223.5 51.1138 1224.88 50.8021 1225.91C50.4599 1227.03 49.979 1227.71 49.3593 1227.96C48.3398 1228.35 46.1116 1228.03 42.6749 1226.97L40.8559 1226.38L36.8101 1225.18L29.7333 1223.34L25.956 1234.65C28.1428 1235.78 32.648 1237.39 39.4716 1239.47C44.3528 1240.97 46.9258 1241.9 47.1909 1242.28C47.308 1243.33 47.164 1244.47 46.759 1245.71C46.3712 1246.98 45.9094 1248.09 45.3735 1249.04C44.8625 1250 44.2366 1250.49 43.4958 1250.51C42.8947 1250.52 42.2455 1250.41 41.5482 1250.2L39.8672 1249.69L33.6382 1248.15Z" fill="#FF629A"/>
<path d="M115.138 1266.37C114.565 1266.55 113.968 1266.69 113.348 1266.79C112.835 1266.9 112.391 1267.01 112.018 1267.12C110.715 1267.49 109.758 1267.7 109.148 1267.75C108.562 1267.8 108.129 1267.63 107.851 1267.25C107.589 1266.84 107.298 1266.15 106.976 1265.19L106.908 1264.96C106.497 1263.62 105.662 1261.64 104.403 1259.03C103.04 1256.26 101.644 1253.16 100.216 1249.73C98.7346 1246.13 97.5762 1243.58 96.7409 1242.09C96.3116 1244.08 96.4395 1250.38 97.1246 1261.01C97.5167 1267.29 97.6545 1270.78 97.5382 1271.47L96.1611 1272.17C95.1487 1271.17 94.1225 1269.91 93.0825 1268.37L91.7569 1266.57C90.9893 1265.67 90.3012 1264.7 89.6928 1263.69C89.1016 1262.65 88.4471 1261.66 87.7293 1260.74C86.6982 1259.5 85.0747 1256.95 82.8586 1253.08C82.4334 1252.31 82.031 1251.62 81.6514 1251C81.2967 1250.37 80.9935 1249.82 80.7418 1249.35C80.4555 1248.95 80.2723 1248.71 80.192 1248.62C80.1118 1248.54 80.0344 1248.51 79.9596 1248.53C79.8849 1248.55 79.8151 1248.55 79.7501 1248.51L79.6878 1257.27C79.6258 1259.39 79.6277 1261.58 79.6935 1263.85L79.7636 1265.95C79.8279 1268.93 79.9485 1271.15 80.1252 1272.62C80.3454 1274.32 80.3172 1275.44 80.0404 1275.96C79.8155 1276.38 79.2547 1276.73 78.3582 1277C77.0383 1277.41 75.9121 1277.64 74.9797 1277.71C74.4187 1277.74 73.7584 1277.63 72.999 1277.37L72.8279 1276.81C72.5086 1275.77 72.1192 1273.91 71.6599 1271.25C71.1929 1268.56 70.7654 1265.78 70.3773 1262.9C70.0065 1259.99 69.9053 1258.14 70.0736 1257.35C69.9781 1257.22 69.8924 1257.03 69.8164 1256.78C69.6871 1256.36 69.568 1255.7 69.4589 1254.81C69.1799 1252.82 69.0873 1250.96 69.1811 1249.21C69.0022 1247.82 68.8913 1246.03 68.8482 1243.84C68.7189 1240.83 68.563 1239.03 68.3805 1238.43C68.4712 1238.1 68.4805 1236.93 68.4083 1234.91C68.3571 1232.06 68.408 1228.93 68.561 1225.51C68.7389 1222.08 69.3039 1219.78 70.2559 1218.62C71.7049 1219.62 72.8075 1220.95 73.5638 1222.63C74.0119 1223.47 74.5384 1224.31 75.1435 1225.13C79.2814 1230.83 83.6794 1237.97 88.3376 1246.54L89.047 1247.8C89.4221 1246.97 89.5503 1245.65 89.4318 1243.84C89.314 1241.67 90.1031 1234.93 91.7991 1223.63C92.3956 1219.61 92.8601 1216.89 93.1924 1215.48C93.5421 1214.04 94.0282 1213.23 94.6508 1213.04C94.8998 1212.96 95.1803 1212.94 95.4923 1212.98C95.5898 1213.04 96.0717 1214.17 96.9379 1216.38C99.6146 1223.19 101.474 1227.14 102.517 1228.24C102.585 1228.82 102.737 1229.49 102.972 1230.26C103.444 1231.81 104.455 1234.32 106.005 1237.79C106.716 1239.32 107.269 1240.59 107.663 1241.61L112.95 1255.72C113.59 1256.48 114.506 1258.82 115.7 1262.73C116.156 1264.22 116.363 1265.17 116.32 1265.56C116.105 1265.92 115.711 1266.2 115.138 1266.37Z" fill="#FFB240"/>
<path d="M78.9634 1349.02L76.2571 1347.74C76.3264 1346.66 76.6499 1344.9 77.2275 1342.47L77.4532 1341.52C77.8984 1339.64 78.1853 1338.27 78.3139 1337.39C78.4076 1336.77 78.5177 1336.19 78.644 1335.66C78.7162 1335.36 78.7661 1335.03 78.7936 1334.69C78.8994 1334.02 79.3133 1332.16 80.0353 1329.12C78.985 1330.05 76.9517 1332.25 73.9352 1335.71C72.6078 1337.24 71.3882 1338.54 70.2765 1339.62C69.5892 1340.26 68.9212 1340.93 68.2726 1341.63C66.727 1343.41 65.8216 1344.57 65.5565 1345.12C65.2515 1345.51 65.0483 1345.68 64.947 1345.66C64.8709 1345.64 64.7376 1345.58 64.5469 1345.49C63.8783 1345.03 62.8217 1344.63 61.3774 1344.29C61.0226 1344.21 60.6142 1344.13 60.1521 1344.04C59.6899 1343.96 59.2501 1343.9 58.8327 1343.85C58.4152 1343.8 58.0164 1343.74 57.6363 1343.65C57.3322 1343.57 56.9582 1343.46 56.5141 1343.3C56.064 1343.17 55.443 1342.74 54.6511 1342.02C54.857 1341.26 55.2034 1340.65 55.6906 1340.17C56.1837 1339.68 56.7245 1339.2 57.313 1338.75C58.0523 1338.23 58.7799 1337.53 59.4961 1336.66C60.2122 1335.79 60.9248 1335.15 61.634 1334.76C62.9696 1332.85 65.047 1330.64 67.8662 1328.13C69.3662 1326.77 70.7028 1325.48 71.876 1324.26C73.0745 1323.05 73.814 1322.02 74.0946 1321.17C73.7984 1320.17 72.9224 1315.01 71.4665 1305.7C69.8969 1295.85 69.1649 1290.31 69.2703 1289.08C70.3779 1289.26 71.6539 1289.52 73.0983 1289.86C76.6205 1290.7 78.5469 1291.21 78.8776 1291.39C79.4868 1293.23 79.9084 1296.01 80.1423 1299.76C80.2494 1301.34 80.4175 1303 80.6466 1304.74C80.8272 1306.12 80.9728 1307.48 81.0834 1308.82C81.3262 1311.18 81.8733 1314.17 82.7249 1317.8L83.6759 1313.29C84.5708 1308.84 85.1235 1306.18 85.3341 1305.29C86.2066 1301.62 87.3414 1297.96 88.7387 1294.33C90.1321 1294.1 91.7663 1294.21 93.6414 1294.65C95.0351 1294.98 96.0959 1295.48 96.8238 1296.13C96.9809 1296.6 96.5869 1299.33 95.6416 1304.32C95.1942 1306.54 94.6937 1308.82 94.1401 1311.15C93.8393 1312.42 93.5846 1313.32 93.3763 1313.86L92.1802 1320.08C94.7276 1317.02 96.5938 1314.57 97.7786 1312.74C98.5042 1311.6 99.2582 1310.45 100.04 1309.3C101.028 1307.85 101.924 1306.44 102.729 1305.08C104.674 1301.84 106.318 1299.54 107.66 1298.18C108.089 1298.17 110.052 1298.58 113.549 1299.41C114.994 1299.75 116.239 1300.09 117.285 1300.42C116.844 1301.6 113.687 1306.22 107.813 1314.27C102.081 1322.07 98.9402 1326.27 98.3917 1326.89C98.2631 1327.77 98.4485 1329.02 98.9477 1330.64C99.447 1332.25 100.049 1334 100.753 1335.88C102.141 1339.4 103.003 1342.3 103.339 1344.6C103.77 1345.27 104.109 1346.15 104.356 1347.25C104.603 1348.36 104.94 1349.31 105.366 1350.1C105.69 1350.77 105.947 1351.43 106.138 1352.09C106.36 1352.73 106.407 1353.44 106.277 1354.21C105.049 1354.54 103.903 1354.57 102.839 1354.32C102.458 1354.23 102.072 1354.11 101.678 1353.97C101.285 1353.82 100.863 1353.68 100.413 1353.54C99.963 1353.41 99.5606 1353.3 99.2058 1353.22C98.4456 1353.04 97.7651 1352.92 97.1642 1352.86C96.5827 1352.82 96.1562 1352.82 95.8847 1352.83C95.6386 1352.85 95.4776 1352.86 95.4016 1352.84C95.3002 1352.81 95.1993 1352.56 95.0989 1352.08C95.1106 1351.47 94.8376 1350.03 94.2801 1347.76C94.0165 1346.84 93.7216 1345.94 93.3953 1345.06C92.9638 1343.83 92.4729 1342.12 91.9227 1339.93C91.0144 1336.32 90.2786 1333.67 89.7154 1331.98C89.3566 1333.15 89.0651 1333.87 88.8408 1334.14C88.7759 1334.53 88.72 1334.88 88.6731 1335.19C88.6576 1335.48 88.6168 1335.76 88.5506 1336.04C88.4591 1336.31 88.2855 1336.59 88.0299 1336.88C87.6348 1339.78 87.3559 1341.58 87.1935 1342.26L86.8937 1343.36C86.7167 1343.88 86.5409 1344.5 86.3665 1345.24L85.9442 1347.18C85.6193 1348.55 85.2953 1349.47 84.9722 1349.93C83.9685 1349.98 83.0612 1349.91 82.2503 1349.72L80.748 1349.29C80.2158 1349.16 79.621 1349.07 78.9634 1349.02Z" fill="#4053FF"/>
<path d="M48.0138 1381.24C47.4379 1381.4 46.7333 1381.49 45.8999 1381.52C45.1774 1381.07 44.0133 1379.98 42.4074 1378.25C41.5418 1377.31 40.7711 1376.55 40.0951 1375.99C38.9148 1374.89 37.8257 1373.68 36.8278 1372.37L35.2559 1370.42C34.6264 1370.12 34.0542 1369.63 33.5391 1368.96C33.3603 1368.72 33.1135 1368.42 32.7988 1368.08C32.4518 1367.91 32.0566 1367.61 31.6131 1367.2C31.4307 1367.79 31.2375 1368.25 31.0337 1368.58C30.9478 1369.04 30.8942 1369.42 30.8727 1369.73C30.7976 1370.51 30.5651 1371.21 30.1752 1371.84L29.7942 1374.34C29.6404 1375.98 29.3399 1377.59 28.8928 1379.15C28.6424 1379.98 28.3956 1381.01 28.1524 1382.25C27.6623 1384.61 27.2242 1386.16 26.8379 1386.89C26.1118 1387.29 25.4608 1387.57 24.885 1387.73C24.3091 1387.9 23.7476 1388.02 23.2003 1388.09C22.7855 1388.16 22.3151 1388.26 21.7893 1388.42L20.5607 1388.81L17.7065 1388.77C17.796 1387.47 18.2324 1385.11 19.0157 1381.69C19.5344 1379.43 19.8581 1377.86 19.9869 1376.99L20.3196 1375.02C20.3911 1374.7 20.4519 1374.35 20.502 1373.95C20.6916 1372.82 21.4642 1369.26 22.8199 1363.3L23.7589 1359.05C22.7216 1357.88 21.9062 1356.92 21.3125 1356.17L16.4894 1350.81C15.209 1349.74 12.6195 1347.02 8.72097 1342.67C4.91545 1338.45 2.93759 1336.07 2.78738 1335.55C3.34893 1334.76 4.50243 1334.11 6.24786 1333.58C8.00045 1333.08 9.61354 1332.85 11.0871 1332.89C15.6509 1336.73 19.773 1340.68 23.4533 1344.75L26.109 1347.65L26.8709 1343.77C27.9046 1338.38 29.373 1332.86 31.2759 1327.19C32.4204 1326.46 33.8189 1325.86 35.4714 1325.38C37.3992 1324.83 38.8281 1324.76 39.758 1325.17C39.8868 1325.62 39.4289 1328.67 38.3844 1334.3C37.3077 1340.11 36.5011 1343.78 35.9646 1345.31L34.6661 1352.43C34.5337 1353.39 34.3352 1354.64 34.0705 1356.18L37.0856 1359.34C41.1272 1363.43 43.6344 1366.05 44.6072 1367.18C44.8326 1367.49 45.0597 1367.77 45.2886 1368C45.7213 1368.47 46.1648 1368.98 46.6191 1369.53C47.6563 1370.69 48.7472 1371.86 49.8917 1373.02C52.3452 1375.54 53.9368 1377.32 54.6665 1378.36L52.2629 1379.9C51.7979 1379.98 51.3651 1380.07 50.9646 1380.19C50.4638 1380.33 50.0239 1380.5 49.6447 1380.69C49.1333 1380.89 48.5896 1381.07 48.0138 1381.24Z" fill="#9F54FF"/>
<path d="M60.7814 1417.99L58.965 1417.39L57.9762 1416.4L59.5685 1413.6L60.9626 1409.41C61.16 1408.81 63.6267 1408.74 68.3627 1409.19C70.4295 1408.26 71.7508 1406.93 72.3265 1405.2C73.4203 1401.91 72.4833 1388.73 69.5155 1365.65C69.5718 1362.85 69.711 1361.11 69.9331 1360.44L71.3166 1360.24L77.3218 1362.24C78.5575 1362.9 79.3556 1369.82 79.716 1383C80.3833 1383.22 81.0561 1386.56 81.7346 1393.01L82.3277 1393.21C83.3656 1393.56 88.8314 1387.15 98.7249 1374C99.572 1371.46 102.29 1370.59 106.878 1371.4C109.514 1372.88 110.721 1373.96 110.499 1374.62C89.4438 1401.93 76.6681 1416.32 72.1719 1417.79C68.5569 1419.25 64.7601 1419.31 60.7814 1417.99Z" fill="#FFB240"/>
<path d="M51.7413 1176.99C50.8945 1177.25 49.8842 1177.46 48.7103 1177.63C47.5441 1177.82 46.7669 1177.78 46.3789 1177.49C46.1023 1177.03 45.7017 1175.94 45.1771 1174.22C44.2724 1171.25 43.4146 1168.22 42.604 1165.12C40.6688 1157.98 39.7225 1153.9 39.7649 1152.88C39.4579 1152.32 39.141 1151.5 38.814 1150.43L37.8706 1147.21L37.3377 1145.33C37.2084 1144.9 37.0277 1144.4 36.7954 1143.82C36.4014 1142.79 36.0409 1141.75 35.7139 1140.68C35.3718 1139.56 35.2167 1138.69 35.2487 1138.08C34.8289 1137.42 34.4518 1136.54 34.1173 1135.45L33.9493 1134.76C33.8733 1134.51 33.7886 1134.28 33.6953 1134.06C32.0406 1134.35 30.0677 1134.85 27.7766 1135.55C25.5103 1136.24 23.3887 1136.91 21.4116 1137.57C20.2314 1137.99 19.2553 1138.31 18.4833 1138.55C17.7113 1138.79 17.243 1138.9 17.0783 1138.9C16.4588 1137.67 15.8847 1136.28 15.3559 1134.73C14.8541 1133.08 14.614 1131.67 14.6357 1130.5C17.0218 1129.3 20.3472 1127.93 24.612 1126.38L55.7521 1116.94C56.2098 1117.73 56.7618 1119.18 57.4081 1121.3C57.7046 1122.27 57.886 1122.91 57.9524 1123.22C58.047 1123.7 58.022 1124.2 57.8773 1124.71C57.7887 1124.95 57.7018 1125.29 57.6167 1125.73C56.6572 1125.89 54.87 1126.36 52.2551 1127.16C46.8759 1128.81 43.7771 1129.85 42.9587 1130.29L45.5975 1138.27L46.7796 1141.34L51.7135 1158.17C52.1807 1159.88 52.6216 1161.81 53.0361 1163.97C53.2585 1165.59 53.6243 1167.24 54.1338 1168.91L55.0296 1171.57C55.3033 1172.47 55.5359 1173.37 55.7273 1174.26C55.4856 1175.34 54.1569 1176.25 51.7413 1176.99Z" fill="#E440FF"/>
<path d="M98.0628 1128.93C97.0954 1132.31 94.8973 1134.72 91.4684 1136.14C88.0707 1137.55 84.7587 1138.12 81.5324 1137.86C79.522 1137.77 77.658 1137.56 75.9404 1137.25C75.4017 1137.15 74.8532 1137.04 74.295 1136.91C73.0517 1136.62 71.7371 1136.24 70.3512 1135.76C70.5401 1134.01 71.1757 1130.62 72.2578 1125.57C72.7218 1123.33 73.2053 1121.11 73.7084 1118.93C74.3401 1116.19 75.1367 1112.97 76.0981 1109.26C77.0654 1105.53 77.8846 1103.19 78.5558 1102.25C78.5401 1102.09 78.6288 1101.59 78.8219 1100.75C79.0149 1099.91 79.2528 1098.94 79.5355 1097.83C79.8183 1096.72 80.0952 1095.63 80.3663 1094.57C80.7309 1093.11 80.9844 1092.12 81.1268 1091.62C81.3725 1090.55 81.5947 1089.42 81.7935 1088.21C81.9105 1087.35 82.0596 1086.53 82.2409 1085.74C82.586 1084.25 83.0473 1082.88 83.6248 1081.65L84.995 1081.97C86.6365 1082.27 88.1931 1082.59 89.6648 1082.93C90.5529 1083.13 91.4 1083.34 92.2061 1083.55C93.1645 1083.8 94.1892 1084.05 95.2803 1084.3L97.7924 1084.88C98.6043 1085.07 99.4602 1085.24 100.36 1085.4C101.297 1085.51 102.184 1085.66 103.021 1085.85C104.442 1086.18 105.742 1086.63 106.921 1087.19L106.012 1091.31C105.953 1091.57 105.913 1091.8 105.892 1092.01C105.853 1092.29 105.804 1092.56 105.746 1092.81C105.576 1093.55 105.333 1094.08 105.017 1094.41C104.652 1094.83 103.81 1094.89 102.49 1094.59L102.3 1094.54C100.955 1094.23 99.6095 1093.87 98.2627 1093.45C97.1892 1093.12 96.1225 1092.82 95.0626 1092.55L93.7685 1092.25C92.449 1091.95 91.1227 1091.62 89.7896 1091.25C88.6312 1095.24 87.4473 1099.21 86.2381 1103.18C85.8227 1104.64 85.4122 1106.01 85.0065 1107.31C86.6324 1107.79 88.3472 1108.47 90.1508 1109.34C91.9544 1110.21 93.4224 1111.2 94.5547 1112.32C96.4501 1113.37 97.8274 1114.93 98.6866 1117C99.1885 1118.19 99.5049 1119.42 99.636 1120.71C99.6459 1121.25 99.5865 1122.14 99.458 1123.39C99.3295 1124.65 99.1463 1125.85 98.9084 1127L98.847 1127.26C98.6189 1128.25 98.3575 1128.81 98.0628 1128.93ZM79.2348 1127.83L78.8167 1130.33C79.5995 1130.65 80.3841 1130.9 81.1707 1131.08C82.4648 1131.38 83.7872 1131.5 85.1378 1131.43C86.1468 1131.35 86.9704 1131.13 87.6086 1130.8C88.2467 1130.47 88.8429 1130.08 89.3971 1129.65C89.7581 1129.36 90.1445 1129.07 90.5563 1128.8C90.724 1128.3 90.9015 1127.82 91.0888 1127.36C91.3677 1126.72 91.6135 1126.01 91.826 1125.2C92.5104 1121.88 91.4227 1119.24 88.5629 1117.27C87.335 1116.45 86.0233 1115.88 84.6277 1115.56C83.9426 1115.4 83.2429 1115.31 82.5286 1115.28L82.4935 1115.43C82.2711 1116.05 82.116 1116.54 82.0283 1116.92L81.9669 1117.19C81.885 1117.55 81.8178 1118.01 81.7652 1118.59L79.2348 1127.83Z" fill="#FF498B"/>
<path d="M57.4146 1112C52.898 1113.05 48.1347 1113.08 43.1247 1112.1C41.5067 1111.8 39.6644 1111.17 37.5977 1110.21C33.0818 1108.12 30.0308 1105.2 28.4448 1101.45C28.2146 1100.92 27.9424 1100.43 27.6283 1100C26.4419 1098.56 25.2627 1095.71 24.0906 1091.43C23.9424 1090.91 23.8068 1090.38 23.684 1089.84C22.438 1084.44 22.6157 1079.41 24.2171 1074.77C25.8127 1070.1 29.4156 1065.84 35.0258 1062.01C37.2531 1060.43 39.3437 1059.41 41.2975 1058.96L42.6091 1058.74C43.8017 1058.46 44.8421 1058.05 45.7303 1057.49C46.3607 1057.21 46.9932 1057 47.6275 1056.85C48.2619 1056.71 49.1841 1056.54 50.3943 1056.34C51.5985 1056.11 52.8906 1055.92 54.2706 1055.76C55.6447 1055.58 56.6469 1055.52 57.2773 1055.59C57.7417 1056.44 58.1611 1057.51 58.5355 1058.79C58.6467 1059.27 58.8387 1060.16 59.1117 1061.46C59.3788 1062.73 59.2595 1063.9 58.7538 1064.95C58.6074 1065.01 58.42 1065.07 58.1916 1065.12C57.6334 1065.25 56.7853 1065.34 55.6474 1065.39C52.9677 1065.47 50.5367 1065.76 48.3545 1066.27C46.6798 1066.66 45.007 1067.28 43.3361 1068.15L43.2014 1068.26C41.5695 1069.06 40.0489 1070 38.6395 1071.08C36.8397 1072.43 35.7248 1074.32 35.2949 1076.74C35.0936 1078.07 34.867 1078.88 34.6152 1079.18L34.7819 1079.91C35.0159 1080.92 35.2235 1082.17 35.4047 1083.65C35.5528 1084.87 35.7165 1085.93 35.8959 1086.82C36.6194 1089.38 37.6485 1091.65 38.9831 1093.61C39.467 1094.43 39.904 1095.23 40.2942 1095.99C41.1392 1096.41 41.8798 1096.84 42.516 1097.28C43.1775 1097.72 43.843 1098.11 44.5124 1098.47C45.1759 1098.79 46.0024 1099.02 46.992 1099.14C48.5865 1099.33 51.2722 1099.1 55.049 1098.44C55.6385 1098.33 56.1674 1098.25 56.6358 1098.19C58.371 1097.95 59.8183 1097.74 60.9777 1097.55C62.4669 1097.29 63.5717 1097.15 64.2919 1097.15C65.0062 1097.12 65.5088 1097.27 65.7995 1097.6C66.0844 1097.91 66.3487 1098.48 66.5925 1099.3C66.9124 1100.46 67.2976 1101.66 67.7482 1102.92C68.1325 1104.01 68.4572 1105.07 68.7224 1106.11C68.7634 1106.28 68.8014 1106.45 68.8365 1106.6C68.9418 1107.06 68.9671 1107.4 68.9124 1107.63C68.561 1108.19 68.0066 1108.62 67.2492 1108.93C66.486 1109.22 65.6984 1109.45 64.8864 1109.64C64.0998 1109.82 63.3981 1110.02 62.7813 1110.24C61.0304 1111 59.2415 1111.58 57.4146 1112Z" fill="#4053FF"/>
<path d="M78.0566 1075C76.7191 1074.57 75.5998 1074.22 74.6986 1073.96L73.5346 1073.63C72.8087 1073.42 72.2365 1073.24 71.8181 1073.09C71.7969 1072.6 71.8186 1072.24 71.8831 1072.01C71.9476 1071.79 72.0032 1071.64 72.0497 1071.57C72.2072 1071.4 72.354 1071.08 72.4902 1070.6C72.6336 1070.1 72.725 1069.64 72.7646 1069.22C72.8293 1068.8 72.8992 1068.42 72.9746 1068.06C73.2828 1066.98 73.6428 1066.06 74.0546 1065.28C74.495 1064.4 74.8479 1063.5 75.1131 1062.58C76.3464 1057.51 77.4792 1053.18 78.5115 1049.57C79.6369 1045.64 80.5938 1042.39 81.3821 1039.83C83.3065 1033.58 84.4441 1030.22 84.7949 1029.76C84.9891 1027.94 85.3263 1026.2 85.8066 1024.52C86.0933 1023.52 86.423 1022.56 86.7955 1021.63C87.0176 1021.05 87.2308 1020.44 87.435 1019.83C88.1359 1020.03 88.8261 1020.17 89.5057 1020.26C90.2174 1020.33 91.2402 1020.54 92.5741 1020.89C94.1584 1021.32 97.1033 1022.15 101.409 1023.39C107.671 1025.26 111.461 1026.69 112.78 1027.66C112.719 1028.16 112.606 1028.7 112.441 1029.27C112.305 1029.75 112.133 1030.25 111.926 1030.79C111.725 1031.3 111.549 1031.82 111.399 1032.35C110.747 1034.05 109.462 1034.76 107.545 1034.45C106.583 1034.31 105.614 1034.1 104.638 1033.82C103.637 1033.53 102.625 1033.19 101.602 1032.79C100.586 1032.36 99.5154 1031.99 98.3889 1031.66C96.8439 1031.38 95.333 1031.03 93.856 1030.61L90.3245 1041.95C90.0487 1042.63 89.7853 1043.41 89.5345 1044.28C89.2119 1045.41 88.9089 1046.7 88.6255 1048.17C88.299 1049.78 87.9566 1051.21 87.5982 1052.46C87.4549 1052.96 86.1756 1056.96 83.7605 1064.45L82.255 1069.99C82.0327 1070.96 81.8248 1071.78 81.6312 1072.45C81.4377 1073.13 81.2138 1073.77 80.9595 1074.37C80.7302 1074.98 80.3777 1075.32 79.9019 1075.37C79.5478 1075.38 78.9327 1075.25 78.0566 1075Z" fill="#FFB240"/>
<path d="M43.6548 1289.77L52.1007 1292.72C52.3943 1292.83 52.5589 1292.83 52.5945 1292.73L52.6012 1292.49C52.9877 1288.53 53.4299 1285.55 53.9279 1283.57C54.546 1280.81 54.6291 1278.94 54.1774 1277.97L52.6194 1279.86C50.9468 1281.71 49.7724 1283.12 49.0963 1284.06L47.3314 1285.83C45.4453 1287.66 44.2197 1288.98 43.6548 1289.77ZM27.8078 1309.36L27.5876 1309.28C27.1226 1309.11 25.9224 1308.56 23.9869 1307.64C21.8801 1306.65 20.7311 1306.04 20.5397 1305.8C20.5219 1305.54 20.5663 1305.27 20.6731 1304.98C21.02 1304.02 22.32 1302.24 24.573 1299.62C25.3893 1298.67 25.9943 1297.92 26.3879 1297.37C26.8261 1296.7 27.4599 1295.79 28.2895 1294.65C30.418 1291.77 32.0172 1290.04 33.0871 1289.46C33.2984 1288.95 33.7676 1288.19 34.4949 1287.18C35.9228 1285.24 37.3029 1283.54 38.6352 1282.08C40.8527 1279.56 44.1422 1276.08 48.5039 1271.62C53.6196 1266.39 56.5745 1263.71 57.3687 1263.58C58.4585 1262.26 59.5473 1261.44 60.635 1261.12C61.2981 1262.19 61.542 1264.45 61.3668 1267.91C61.298 1269.24 61.1647 1270.22 60.9668 1270.84C61.2427 1271.6 61.3475 1273.22 61.2811 1275.69C61.2057 1277.27 61.2504 1278.52 61.4151 1279.44C61.3663 1280.34 61.3254 1281.71 61.2923 1283.55L60.8571 1297.45C60.4075 1311.11 60.027 1318.37 59.7157 1319.23L59.7024 1319.26C59.1263 1319.55 58.6169 1319.66 58.1742 1319.58C57.9117 1319.54 57.6336 1319.47 57.3399 1319.36C57.1686 1319.3 56.9651 1319.21 56.7293 1319.1C56.5268 1318.97 56.2788 1318.85 55.9851 1318.74L54.5636 1318.31C54.1542 1318.21 53.7783 1318.11 53.4357 1317.98C52.7505 1317.73 52.142 1317.39 51.6103 1316.94C51.2097 1315.61 51.2548 1311.94 51.7455 1305.93C51.9832 1303.22 52.0807 1301.12 52.0383 1299.64C51.5155 1299.48 50.9838 1299.34 50.4432 1299.22C49.9271 1299.12 49.3509 1298.95 48.7147 1298.72L48.3109 1298.57C47.8548 1298.38 47.2475 1298.14 46.4889 1297.87C44.3844 1297.1 41.7471 1296.39 38.577 1295.74C36.8355 1297.4 34.2032 1300.64 30.6802 1305.46L27.8078 1309.36Z" fill="#3DFF7F"/>
</svg>
