<svg width="25" height="713" viewBox="0 0 25 713" fill="none" xmlns="http://www.w3.org/2000/svg">
<path d="M17.4136 135.33C19.7152 134.713 20.7519 133.298 20.5236 131.084C20.478 130.763 20.4365 130.4 20.3991 129.995C20.283 128.843 20.1631 128.036 20.0395 127.574C19.3 124.81 17.7193 122.529 15.2974 120.731C15.1175 120.739 14.9574 120.727 14.8171 120.693C14.6007 120.64 14.384 120.643 14.1671 120.701C13.9973 120.746 13.7835 120.854 13.5258 121.024C12.7739 121.539 12.3006 121.924 12.1058 122.178C11.636 122.991 11.3904 124.114 11.3689 125.545C11.3475 126.976 11.4566 128.14 11.6964 129.036L12.1346 130.617C12.3617 131.466 12.5492 132.281 12.697 133.06C12.7996 133.103 13.0684 133.39 13.5035 133.921C14.0142 134.582 14.4133 135.016 14.7009 135.222C15.1843 135.518 15.9209 135.588 16.9108 135.434C17.0856 135.407 17.2532 135.373 17.4136 135.33ZM17.0424 139.327C15.1369 139.837 13.4993 139.497 12.1297 138.307C11.6752 137.893 11.127 137.186 10.4853 136.185C9.84347 135.184 9.29508 134.174 8.8401 133.153C8.65292 132.718 8.5139 132.331 8.42304 131.991C8.3019 131.538 8.27109 131.177 8.33062 130.909C8.2569 130.747 8.18974 130.552 8.12917 130.326C7.99541 129.826 7.88218 129.062 7.78949 128.036C7.6968 127.009 7.69399 125.903 7.78106 124.717C7.87757 123.528 8.09768 122.726 8.44139 122.311C8.4842 121.602 8.96816 120.784 9.89328 119.859C10.8159 118.925 11.7679 118.27 12.7495 117.896L13.5126 117.631C13.788 117.527 14.0294 117.447 14.237 117.391C14.4376 117.347 14.6672 117.337 14.9257 117.358C15.5472 117.414 16.2128 117.559 16.9225 117.794C17.8895 118.121 18.4691 118.436 18.6612 118.738C19.1023 118.913 19.536 119.287 19.9623 119.861C20.3955 120.422 20.774 120.968 21.0977 121.498C21.419 122.018 21.6359 122.319 21.7486 122.4C21.9622 122.858 22.1887 123.308 22.4281 123.75C22.9452 124.662 23.3473 125.636 23.6344 126.672C23.6559 126.828 23.6718 127 23.682 127.19C23.6897 127.37 23.6993 127.519 23.7107 127.637C23.7612 127.826 23.8119 127.959 23.8629 128.036C23.9208 128.101 23.9832 128.221 24.05 128.395C24.139 128.766 24.1654 129.148 24.1293 129.542C24.1188 129.767 24.1165 129.985 24.1223 130.196C24.1968 131.268 24.0568 132.407 23.7025 133.614C23.3575 134.819 22.7812 135.782 21.9735 136.504C21.3816 137.239 20.49 137.892 19.2985 138.464C18.5019 138.85 17.7498 139.137 17.0424 139.327Z" fill="#3DFF7F"/>
<path d="M14.5299 160.269L17.7665 161.151C17.8791 161.183 17.9408 161.181 17.9516 161.143L17.9476 161.051C17.9887 159.559 18.0766 158.436 18.2111 157.682C18.37 156.631 18.3523 155.93 18.158 155.579L17.6245 156.325C17.0473 157.064 16.6446 157.619 16.4163 157.991L15.8023 158.698C15.1446 159.434 14.7205 159.958 14.5299 160.269ZM9.11331 168.011L9.02883 167.987C8.85047 167.936 8.38716 167.762 7.63891 167.467C6.82494 167.152 6.37908 166.953 6.30134 166.87C6.28798 166.774 6.29743 166.67 6.32968 166.558C6.43452 166.192 6.87419 165.49 7.64871 164.452C7.92926 164.075 8.13599 163.779 8.2689 163.563C8.41525 163.3 8.62872 162.945 8.90931 162.497C9.63023 161.363 10.1832 160.673 10.5683 160.428C10.6342 160.234 10.7899 159.938 11.0356 159.541C11.5189 158.776 11.9908 158.103 12.4512 157.524C13.2149 156.524 14.3545 155.134 15.8698 153.354C17.6469 151.262 18.6823 150.183 18.9761 150.115C19.3492 149.592 19.7351 149.255 20.1335 149.106C20.4096 149.489 20.56 150.33 20.5847 151.627C20.5938 152.128 20.5694 152.497 20.5116 152.734C20.6349 153.013 20.7163 153.616 20.756 154.541C20.7691 155.134 20.8184 155.601 20.9041 155.94C20.9093 156.277 20.9297 156.791 20.9656 157.482L21.1657 162.69C21.3545 167.813 21.4019 170.539 21.3078 170.868L21.3038 170.882C21.0958 171.005 20.908 171.058 20.7404 171.04C20.6411 171.032 20.5352 171.012 20.4225 170.98C20.3568 170.961 20.2784 170.933 20.1872 170.897C20.1081 170.854 20.0122 170.816 19.8995 170.784L19.3564 170.659C19.2008 170.635 19.0573 170.604 18.9259 170.566C18.6631 170.491 18.4264 170.377 18.2159 170.225C18.0311 169.735 17.9521 168.362 17.9789 166.104C17.9969 165.083 17.9786 164.295 17.9239 163.741C17.7241 163.694 17.5216 163.656 17.3164 163.628C17.1206 163.602 16.9006 163.554 16.6566 163.484L16.5017 163.44C16.326 163.38 16.0927 163.308 15.8017 163.224C14.9944 162.993 13.9892 162.796 12.7862 162.634C12.1782 163.303 11.2781 164.584 10.086 166.477L9.11331 168.011Z" fill="#9F54FF"/>
<path d="M28.8321 195.023C28.5363 195.174 28.1771 195.318 27.7545 195.457C27.3364 195.604 27.0463 195.637 26.8841 195.555C26.7521 195.403 26.5333 195.027 26.2277 194.426C25.7008 193.391 25.1867 192.326 24.6856 191.234C23.5063 188.722 22.8913 187.276 22.8406 186.896C22.6908 186.71 22.5207 186.429 22.3303 186.055L21.7721 184.925L21.453 184.266C21.3778 184.118 21.2783 183.944 21.1546 183.744C20.9425 183.392 20.7413 183.028 20.5509 182.654C20.3516 182.263 20.2381 181.953 20.2103 181.726C20.0122 181.509 19.8158 181.209 19.621 180.826L19.5145 180.585C19.4702 180.498 19.4238 180.417 19.3752 180.343C18.7829 180.557 18.0865 180.868 17.286 181.276C16.4942 181.68 15.7546 182.068 15.0674 182.44C14.6586 182.67 14.3193 182.854 14.0496 182.991C13.7798 183.129 13.6144 183.202 13.5534 183.211C13.2448 182.798 12.9423 182.322 12.646 181.783C12.3537 181.208 12.1733 180.703 12.1047 180.267C12.9082 179.671 14.0471 178.948 15.5212 178.098L26.4067 172.585C26.6269 172.845 26.9252 173.345 27.3016 174.085C27.4743 174.425 27.5828 174.649 27.6273 174.758C27.694 174.932 27.7171 175.117 27.6967 175.314C27.6799 175.41 27.6699 175.542 27.6667 175.708C27.3227 175.828 26.6938 176.121 25.7802 176.587C23.9007 177.544 22.8242 178.131 22.5507 178.347L24.044 181.121L24.6802 182.178L27.5973 188.073C27.881 188.674 28.1697 189.36 28.4634 190.131C28.6509 190.715 28.893 191.298 29.1897 191.882L29.694 192.808C29.8534 193.122 29.9976 193.437 30.1265 193.755C30.1076 194.17 29.6761 194.593 28.8321 195.023Z" fill="#FF498B"/>
<path d="M23.1109 218.426C22.8827 219.726 22.157 220.709 20.934 221.376C19.7219 222.034 18.509 222.377 17.2954 222.405C16.5421 222.45 15.839 222.447 15.186 222.397C14.9812 222.381 14.7722 222.361 14.559 222.334C14.0841 222.276 13.5787 222.185 13.0431 222.06C13.0452 221.401 13.1493 220.11 13.3555 218.187C13.4407 217.332 13.5344 216.487 13.6366 215.654C13.765 214.607 13.9359 213.373 14.1494 211.953C14.364 210.523 14.5781 209.62 14.7916 209.243C14.7794 209.182 14.7928 208.992 14.8321 208.672C14.8713 208.352 14.9219 207.98 14.9839 207.554C15.0458 207.129 15.1066 206.713 15.1663 206.308C15.2449 205.747 15.3009 205.37 15.3344 205.177C15.3843 204.77 15.4226 204.337 15.4494 203.878C15.4596 203.554 15.483 203.242 15.5199 202.942C15.59 202.37 15.7087 201.843 15.8759 201.362L16.3993 201.426C17.0232 201.473 17.6163 201.531 18.1785 201.6C18.5177 201.642 18.8418 201.687 19.1508 201.735C19.5179 201.79 19.9099 201.843 20.3267 201.894L21.2863 202.012C21.5965 202.05 21.9224 202.08 22.264 202.102C22.6177 202.106 22.9545 202.128 23.2743 202.167C23.8171 202.234 24.3195 202.35 24.7813 202.515L24.6033 204.087C24.5915 204.183 24.5856 204.271 24.5858 204.35C24.5824 204.458 24.5748 204.56 24.5629 204.657C24.5284 204.938 24.4587 205.146 24.3536 205.281C24.2341 205.453 23.9223 205.508 23.4183 205.446L23.3456 205.437C22.8319 205.374 22.3157 205.291 21.797 205.188C21.3838 205.108 20.9743 205.038 20.5683 204.978L20.074 204.918C19.57 204.856 19.0623 204.784 18.5509 204.701C18.2748 206.232 17.9889 207.761 17.6933 209.289C17.5953 209.848 17.496 210.377 17.3954 210.876C18.0207 210.992 18.6867 211.177 19.3935 211.431C20.1002 211.685 20.6866 211.998 21.1526 212.37C21.9007 212.689 22.4755 213.217 22.8769 213.955C23.1105 214.377 23.2769 214.825 23.3761 215.3C23.4008 215.5 23.4137 215.836 23.4148 216.308C23.4159 216.781 23.3946 217.236 23.3508 217.673L23.3383 217.775C23.292 218.153 23.2162 218.37 23.1109 218.426ZM16.0459 218.754L15.9881 219.706C16.2924 219.792 16.5947 219.854 16.8952 219.891C17.3895 219.952 17.8874 219.944 18.3886 219.868C18.7615 219.795 19.0604 219.685 19.2854 219.535C19.5103 219.386 19.7177 219.219 19.9074 219.036C20.0307 218.913 20.1636 218.792 20.3063 218.672C20.3494 218.48 20.3968 218.294 20.4485 218.113C20.5278 217.867 20.5914 217.59 20.6391 217.281C20.7645 216.017 20.2554 215.074 19.1117 214.452C18.6218 214.195 18.1102 214.033 17.5771 213.968C17.3154 213.936 17.0507 213.928 16.7831 213.944L16.776 214.002C16.7172 214.241 16.6789 214.433 16.661 214.579L16.6486 214.68C16.6319 214.816 16.6251 214.992 16.628 215.209L16.0459 218.754Z" fill="#FFB240"/>
<path d="M21.5885 250.566C21.0892 250.736 20.6754 250.885 20.3472 251.011L19.9233 251.174C19.6589 251.275 19.4474 251.351 19.2889 251.401C19.1713 251.258 19.0968 251.146 19.0653 251.064C19.0339 250.981 19.0175 250.925 19.0161 250.894C19.0246 250.807 18.9957 250.677 18.9293 250.504C18.8594 250.321 18.7828 250.163 18.6995 250.027C18.6253 249.888 18.5592 249.757 18.5012 249.633C18.3509 249.24 18.25 248.882 18.1985 248.556C18.133 248.194 18.0356 247.845 17.9063 247.507C17.1343 245.712 16.4967 244.157 15.9934 242.844C15.4447 241.412 14.9994 240.224 14.6577 239.277C13.826 236.971 13.4099 235.708 13.4095 235.489C13.0589 234.901 12.7665 234.302 12.5324 233.691C12.3926 233.327 12.2745 232.964 12.1781 232.603C12.1125 232.378 12.0405 232.149 11.9623 231.917C12.2176 231.819 12.4567 231.707 12.6798 231.579C12.9085 231.439 13.2627 231.272 13.7424 231.077C14.3132 230.848 15.3827 230.432 16.9509 229.83C19.2497 228.979 20.7065 228.55 21.3213 228.545C21.4151 228.707 21.5022 228.894 21.5826 229.103C21.649 229.277 21.7115 229.467 21.7702 229.675C21.8253 229.873 21.8896 230.068 21.963 230.26C22.1529 230.919 21.9263 231.419 21.2831 231.76C20.9633 231.935 20.6256 232.091 20.27 232.227C19.9053 232.367 19.5245 232.493 19.1276 232.603C18.7272 232.705 18.3219 232.834 17.9116 232.992C17.3856 233.256 16.8536 233.492 16.3157 233.698L17.8137 237.893C17.8843 238.159 17.9807 238.451 18.103 238.771C18.2603 239.181 18.4613 239.637 18.7061 240.14C18.9719 240.697 19.1922 241.203 19.3669 241.659C19.4368 241.841 19.9539 243.327 20.9183 246.116L21.7163 248.116C21.8673 248.456 21.99 248.748 22.0844 248.995C22.1788 249.241 22.256 249.483 22.316 249.722C22.3851 249.957 22.3545 250.136 22.2239 250.259C22.1194 250.341 21.9076 250.443 21.5885 250.566Z" fill="#3DFF7F"/>
<path d="M17.091 273.008L16.4255 272.739L16.0785 272.346L16.7397 271.334L17.359 269.799C17.4467 269.581 18.3713 269.612 20.1328 269.892C20.9278 269.592 21.4532 269.125 21.709 268.491C22.1949 267.287 22.1519 262.329 21.5798 253.62C21.6664 252.57 21.759 251.923 21.8576 251.678L22.3799 251.636L24.5802 252.525C25.0272 252.801 25.1644 255.41 24.9917 260.354C25.2362 260.453 25.4101 261.718 25.5133 264.151L25.7306 264.239C26.1109 264.392 28.3053 262.124 32.3137 257.435C32.69 256.502 33.727 256.242 35.4247 256.654C36.3765 257.27 36.8031 257.701 36.7045 257.945C28.1897 267.671 23.0741 272.755 21.3575 273.199C19.9709 273.661 18.5487 273.597 17.091 273.008Z" fill="#E440FF"/>
<path d="M19.4536 288.154C20.1446 287.774 20.7442 287.182 21.2526 286.381C21.7702 285.575 21.8602 284.678 21.5227 283.688C21.3311 283.27 21.0553 282.905 20.6953 282.593C20.3445 282.278 19.9511 282.084 19.5151 282.011C19.2144 281.99 18.8404 282.024 18.393 282.112C17.9513 282.188 17.6119 282.271 17.3749 282.362L18.0806 284.162C18.5943 285.502 19.052 286.833 19.4536 288.154ZM23.7784 296.818C24.7813 296.433 25.4309 295.959 25.7274 295.395C25.8559 295.158 25.9536 294.921 26.0205 294.687L26.2124 294.205C26.1551 294.028 26.1052 293.843 26.0626 293.65C26.0209 293.405 25.9423 293.132 25.827 292.831C25.5767 292.205 25.19 291.674 24.6668 291.236C24.1527 290.796 23.5603 290.573 22.8894 290.569C22.2382 290.589 21.7165 290.674 21.3245 290.825C21.1148 290.905 20.9075 291.006 20.7027 291.126L20.7289 291.195C20.7924 291.442 20.8626 291.666 20.9395 291.867C20.9885 291.995 21.0633 292.149 21.164 292.33L22.3206 296.248L22.7297 297.111C23.1006 297.042 23.4502 296.944 23.7784 296.818ZM23.0525 300C22.5419 300.196 21.9838 300.363 21.3779 300.501C21.152 300.075 20.767 299.235 20.223 297.979C19.5615 296.444 18.9058 294.829 18.2557 293.133C17.8014 291.947 17.4257 290.899 17.1288 289.988C16.9331 289.477 16.7318 288.979 16.5248 288.494C16.4933 288.412 16.4591 288.336 16.422 288.266L16.3434 288.061C16.184 287.673 15.9575 287.095 15.6639 286.329C15.1991 285.116 15.0151 284.418 15.1121 284.235C15.0575 284.12 14.9883 283.953 14.9044 283.734C14.8485 283.588 14.7622 283.349 14.6455 283.017C14.5344 282.673 14.408 282.261 14.2662 281.782C14.13 281.29 14.0435 280.942 14.0066 280.736C14.2397 280.417 14.7391 280.11 15.505 279.816C15.5414 279.802 15.7756 279.717 16.2076 279.562C16.6396 279.406 17.31 279.259 18.2186 279.119C19.1329 278.967 19.8329 278.965 20.3185 279.114C21.0242 279.345 21.4544 279.499 21.6093 279.575C21.9028 279.714 22.3538 280.126 22.9622 280.813C23.292 281.21 23.5792 281.727 23.8238 282.365C23.8518 282.438 23.9335 282.679 24.0691 283.087C24.2137 283.492 24.2472 283.934 24.1696 284.414C24.2959 284.961 24.3271 285.561 24.2633 286.213C24.2086 286.862 24.0422 287.397 23.7642 287.817C23.978 287.829 24.1707 287.855 24.3424 287.893L25.1206 287.877C25.2228 287.953 25.392 288.04 25.6281 288.137C26.3218 288.446 26.9067 288.881 27.3827 289.441C27.5017 289.615 27.6857 289.931 27.9348 290.39C28.23 290.915 28.465 291.405 28.6398 291.861C28.7831 292.235 28.8231 292.476 28.7599 292.584C28.8591 292.87 28.8948 293.29 28.8668 293.845C28.8389 294.4 28.7478 294.926 28.5938 295.425C28.4488 295.92 28.255 296.219 28.0123 296.323C27.9356 296.614 27.7362 296.925 27.4141 297.258C26.8287 297.86 26.1401 298.396 25.3482 298.867C24.4924 299.363 23.7272 299.741 23.0525 300Z" fill="#4053FF"/>
<path d="M26.1014 116.578C25.7807 116.664 25.3992 116.73 24.9571 116.778C24.5175 116.835 24.2268 116.807 24.0852 116.693C23.9876 116.517 23.8517 116.104 23.6775 115.453C23.3772 114.33 23.0954 113.182 22.8321 112.009C22.2002 109.307 21.8989 107.765 21.9282 107.384C21.8204 107.17 21.7123 106.86 21.6038 106.454L21.2924 105.234L21.1172 104.522C21.0743 104.362 21.0131 104.171 20.9337 103.95C20.7994 103.561 20.678 103.164 20.5695 102.758C20.4559 102.334 20.4091 102.008 20.429 101.78C20.2803 101.526 20.1505 101.192 20.0394 100.777L19.9854 100.519C19.9602 100.424 19.9315 100.336 19.8994 100.254C19.2755 100.34 18.5296 100.499 17.6618 100.732C16.8034 100.962 15.9994 101.187 15.2498 101.408C14.8021 101.549 14.432 101.658 14.1396 101.736C13.8472 101.815 13.6702 101.852 13.6085 101.848C13.3924 101.38 13.1954 100.852 13.0175 100.263C12.8509 99.64 12.7794 99.1081 12.8029 98.6671C13.7128 98.2514 14.977 97.7813 16.5956 97.2566L28.3895 94.1267C28.5508 94.4272 28.7387 94.9785 28.9532 95.7803C29.0516 96.1483 29.1113 96.3901 29.1321 96.5058C29.1612 96.6901 29.1453 96.8763 29.0845 97.0645C29.0481 97.1552 29.0111 97.2813 28.9735 97.4431C28.6118 97.4894 27.9358 97.6453 26.9453 97.9107C24.9078 98.4566 23.7329 98.8069 23.4204 98.9614L24.3051 101.985L24.708 103.151L26.337 109.523C26.4898 110.17 26.6297 110.901 26.7568 111.716C26.819 112.326 26.9346 112.947 27.1037 113.579L27.4046 114.591C27.4954 114.93 27.5709 115.269 27.6309 115.607C27.5262 116.009 27.0164 116.333 26.1014 116.578Z" fill="#E440FF"/>
<path d="M19.9718 91.7129L19.475 91.6782C19.0756 91.6503 18.3073 91.577 17.1702 91.4583L17.1723 91.4291L15.7684 91.3456L14.7591 91.2897C14.0382 91.2393 13.3924 91.1648 12.8218 91.0661C12.8134 90.625 12.8348 89.6867 12.8861 88.2512C12.9784 85.5264 13.0974 83.1217 13.2429 81.0369C13.4313 78.3384 13.6212 76.8098 13.8127 76.4512C13.7586 76.1048 13.7587 75.5419 13.8131 74.7625C13.9083 73.3987 14.0581 72.0239 14.2625 70.6383C14.5322 70.4222 15.5291 70.3745 17.2534 70.4951C17.9743 70.5455 18.7429 70.6139 19.5592 70.7003C19.9085 70.7444 20.278 70.78 20.6677 70.8072C20.9989 70.8304 21.3503 70.8452 21.7219 70.8516C22.1038 70.8489 22.475 70.8602 22.8355 70.8854C23.8486 70.9562 24.7614 71.1327 25.5738 71.4146C25.6524 71.8313 25.672 72.3221 25.6326 72.8871C25.6149 73.1404 25.5791 73.3729 25.5251 73.5845C25.4325 73.9304 25.2644 74.0949 25.0208 74.0778L22.0116 73.8527L19.018 73.614C18.0731 73.548 17.4392 73.5134 17.1163 73.5104L17.0242 74.62L16.9599 75.5406L16.881 76.4602C16.7863 77.2563 16.7131 78.0245 16.6614 78.7649C16.6396 79.0767 16.6317 79.3306 16.6376 79.5268C16.7776 79.6247 17.6756 79.7316 19.3318 79.8474C20.3449 79.9182 21.3275 80.0065 22.2794 80.1123C23.2314 80.218 23.8864 80.3715 24.2443 80.5727C24.356 81.2168 24.3979 81.7386 24.37 82.138C24.3394 82.5764 24.2212 82.8667 24.0155 83.009C23.6764 83.2398 22.8346 83.3082 21.4902 83.2142L20.7752 83.1495L19.196 83.0537L16.4553 82.9796L16.0272 87.4283C16.9216 87.6573 18.7035 87.8651 21.3728 88.0517C23.2822 88.1853 24.3013 88.3104 24.4302 88.4271C24.5609 88.7984 24.6044 89.2273 24.5607 89.7137C24.526 90.2106 24.4508 90.6556 24.3353 91.0489C24.2295 91.4429 24.042 91.6745 23.7728 91.7438C23.5537 91.797 23.3078 91.8141 23.0351 91.795L22.3775 91.749L19.9718 91.7129Z" fill="#FF498B"/>
<path d="M22.8019 58.2248C21.1081 58.6158 19.3219 58.6273 17.4431 58.2592C16.8364 58.1487 16.1455 57.9124 15.3705 57.5501C13.677 56.7684 12.5329 55.6745 11.9382 54.2683C11.8519 54.0678 11.7498 53.8859 11.632 53.7226C11.1871 53.1839 10.7449 52.1134 10.3054 50.511C10.2498 50.3134 10.199 50.1146 10.1529 49.9148C9.68563 47.8879 9.75227 46.0033 10.3528 44.2611C10.9512 42.5093 12.3022 40.9145 14.4061 39.4767C15.2413 38.8829 16.0253 38.5015 16.7579 38.3323L17.2498 38.2488C17.697 38.1456 18.0872 37.9904 18.4202 37.7832C18.6567 37.6785 18.8938 37.5987 19.1317 37.5438C19.3696 37.4888 19.7154 37.424 20.1692 37.3493C20.6208 37.2651 21.1054 37.1933 21.6229 37.134C22.1381 37.0652 22.514 37.0435 22.7504 37.0691C22.9245 37.3897 23.0818 37.7894 23.2222 38.2681C23.2639 38.4489 23.3359 38.7831 23.4383 39.2706C23.5384 39.7486 23.4937 40.1849 23.3041 40.5795C23.2492 40.6022 23.1789 40.6234 23.0933 40.6432C22.8839 40.6915 22.5659 40.7248 22.1392 40.7432C21.1343 40.7747 20.2226 40.885 19.4043 41.0739C18.7763 41.2189 18.149 41.4539 17.5224 41.779L17.4719 41.8207C16.86 42.1223 16.2897 42.4745 15.7612 42.8771C15.0863 43.3837 14.6682 44.0916 14.507 45.0008C14.4315 45.4993 14.3465 45.8046 14.2521 45.9166L14.3146 46.1878C14.4024 46.5684 14.4802 47.0366 14.5482 47.5921C14.6037 48.0504 14.6651 48.4471 14.7323 48.7824C15.0037 49.742 15.3896 50.5901 15.89 51.3264C16.0715 51.6353 16.2354 51.9332 16.3817 52.2202C16.6986 52.3775 16.9763 52.5389 17.2149 52.7043C17.463 52.8676 17.7125 53.0154 17.9635 53.1479C18.2124 53.2708 18.5223 53.3546 18.8934 53.3993C19.4913 53.4717 20.4985 53.3845 21.9148 53.1377C22.1358 53.0967 22.3342 53.0659 22.5098 53.0454C23.1605 52.9553 23.7032 52.8751 24.138 52.8048C24.6965 52.706 25.1108 52.6554 25.3808 52.6532C25.6487 52.6415 25.8372 52.6982 25.9462 52.8233C26.053 52.939 26.1522 53.1516 26.2436 53.4613C26.3635 53.8946 26.508 54.3474 26.677 54.8195C26.8211 55.2272 26.9428 55.6251 27.0423 56.013C27.0577 56.0796 27.0719 56.1415 27.0851 56.1986C27.1246 56.3699 27.134 56.498 27.1135 56.5829C26.9817 56.7937 26.7738 56.957 26.4898 57.0727C26.2036 57.1788 25.9083 57.2671 25.6038 57.3374C25.3088 57.4055 25.0457 57.4812 24.8144 57.5647C24.1578 57.8466 23.487 58.0666 22.8019 58.2248Z" fill="#4053FF"/>
<path d="M32.6067 26.0316C32.3887 26.0859 32.1625 26.1272 31.928 26.1555C31.7338 26.1838 31.5656 26.2156 31.4235 26.2511C30.9284 26.3644 30.566 26.4246 30.3363 26.4316C30.116 26.4362 29.9574 26.365 29.8604 26.2181C29.7706 26.0593 29.6749 25.7963 29.5734 25.4291L29.5522 25.3438C29.4248 24.8321 29.1508 24.0751 28.7302 23.0729C28.2742 22.009 27.8123 20.8208 27.3447 19.5082C26.8605 18.1293 26.4766 17.1532 26.1929 16.5798C25.9933 17.3139 25.9176 19.6779 25.9658 23.6715C25.9896 26.0308 25.9729 27.3383 25.9159 27.5941L25.3863 27.8318C25.0267 27.4384 24.6672 26.9442 24.3078 26.3495L23.8466 25.6492C23.577 25.2937 23.3382 24.9205 23.1301 24.5295C22.9292 24.1267 22.7034 23.7452 22.4527 23.385C22.0908 22.9015 21.5329 21.9134 20.7788 20.4206C20.6346 20.1245 20.4975 19.8567 20.3675 19.6174C20.2469 19.3757 20.1441 19.1648 20.059 18.9847C19.9597 18.8283 19.8959 18.7335 19.8675 18.7004C19.8391 18.6672 19.8107 18.6541 19.7823 18.6612C19.7538 18.6683 19.7278 18.6647 19.7041 18.6505L19.5091 21.9299C19.4444 22.721 19.4022 23.5417 19.3824 24.3921L19.3674 25.1808C19.3332 26.2965 19.3348 27.1314 19.3721 27.6857C19.4212 28.3277 19.3889 28.7434 19.275 28.9328C19.1825 29.0867 18.9657 29.2062 18.6245 29.2912C18.1223 29.4165 17.696 29.4825 17.3455 29.4894C17.1347 29.4916 16.8896 29.437 16.6103 29.3255L16.5572 29.1122C16.4581 28.7142 16.3486 28.0118 16.2288 27.0051C16.1067 25.9888 16.0011 24.9382 15.9122 23.8533C15.8303 22.7565 15.8286 22.0625 15.9071 21.7712C15.874 21.719 15.8456 21.6456 15.822 21.5508C15.7819 21.3897 15.7502 21.141 15.7268 20.8046C15.6612 20.0561 15.6631 19.3561 15.7324 18.7048C15.6926 18.1813 15.6862 17.5085 15.713 16.6866C15.7236 15.5567 15.7006 14.8781 15.6439 14.6507C15.6843 14.5299 15.7108 14.0905 15.7234 13.3325C15.7599 12.2666 15.8404 11.0942 15.9648 9.81515C16.0987 8.53377 16.3553 7.68475 16.7346 7.26811C17.2576 7.67113 17.6443 8.19368 17.8947 8.83577C18.046 9.16038 18.2269 9.48264 18.4373 9.80256C19.8751 12.0206 21.3823 14.78 22.9587 18.0806L23.1998 18.564C23.3564 18.2632 23.4303 17.7718 23.4215 17.0896C23.4199 16.2748 23.8475 13.7678 24.7041 9.5686C25.0063 8.07414 25.2335 7.0664 25.3856 6.54538C25.5447 6.01253 25.7428 5.71657 25.9797 5.65751C26.0744 5.63388 26.1798 5.63276 26.2958 5.65416C26.3314 5.6755 26.4896 6.10908 26.7706 6.95489C27.6397 9.5563 28.2587 11.0727 28.6277 11.504C28.6417 11.722 28.6853 11.9778 28.7584 12.2716C28.9047 12.8591 29.2341 13.8187 29.7468 15.1502C29.9831 15.7354 30.1649 16.2235 30.2925 16.6144L31.996 22.002C32.2207 22.2982 32.5182 23.1902 32.8886 24.678C33.0302 25.2466 33.089 25.6043 33.0652 25.7512C32.9775 25.8838 32.8246 25.9772 32.6067 26.0316Z" fill="#FFB240"/>
<path d="M17.0255 422.908C19.2646 423.723 20.9246 423.158 22.0054 421.214C22.1522 420.924 22.3261 420.603 22.5271 420.25C23.0917 419.239 23.4557 418.509 23.6191 418.06C24.5964 415.37 24.6077 412.595 23.653 409.732C23.5011 409.635 23.3772 409.533 23.2813 409.425C23.1345 409.258 22.9555 409.135 22.7444 409.058C22.5793 408.998 22.3423 408.964 22.0337 408.956C21.1227 408.946 20.5146 408.99 20.2093 409.087C19.3585 409.484 18.5144 410.262 17.677 411.423C16.8396 412.584 16.2625 413.6 15.9456 414.472L15.399 416.019C15.0988 416.845 14.7861 417.619 14.4609 418.343C14.5201 418.437 14.5761 418.826 14.6287 419.511C14.6681 420.346 14.7466 420.931 14.8642 421.264C15.0912 421.784 15.6544 422.264 16.5537 422.706C16.7122 422.784 16.8695 422.852 17.0255 422.908ZM14.432 425.971C12.5783 425.296 11.4311 424.078 10.9904 422.317C10.8551 421.717 10.8112 420.823 10.8586 419.635C10.906 418.447 11.0355 417.304 11.2473 416.207C11.3431 415.743 11.4511 415.346 11.5712 415.015C11.7313 414.575 11.9127 414.261 12.1153 414.075C12.1479 413.9 12.2041 413.702 12.2842 413.482C12.461 412.996 12.8054 412.305 13.3175 411.411C13.8295 410.516 14.4609 409.608 15.2115 408.686C15.9714 407.768 16.6111 407.237 17.1308 407.093C17.572 406.537 18.4366 406.145 19.7246 405.917C21.0159 405.681 22.1709 405.69 23.1895 405.947L23.9665 406.167C24.2518 406.24 24.4954 406.313 24.6973 406.387C24.8867 406.466 25.0811 406.589 25.2805 406.755C25.7577 407.157 26.2199 407.658 26.6671 408.257C27.2721 409.08 27.5666 409.67 27.5508 410.028C27.812 410.425 27.953 410.98 27.974 411.695C28.0075 412.403 28.0051 413.067 27.9668 413.687C27.9318 414.298 27.9373 414.669 27.9832 414.8C27.8957 415.298 27.8236 415.797 27.7669 416.296C27.6678 417.34 27.4394 418.369 27.0817 419.382C27.0099 419.522 26.924 419.673 26.824 419.834C26.7272 419.986 26.6497 420.114 26.5913 420.217C26.5246 420.401 26.49 420.539 26.4875 420.631C26.4975 420.718 26.48 420.852 26.435 421.033C26.2957 421.388 26.0985 421.716 25.8433 422.018C25.7056 422.197 25.5789 422.374 25.4629 422.55C24.91 423.471 24.1427 424.325 23.1609 425.11C22.1883 425.9 21.1644 426.358 20.0892 426.487C19.1833 426.749 18.0784 426.773 16.7745 426.558C15.9011 426.417 15.1202 426.221 14.432 425.971Z" fill="#3DFF7F"/>
<path d="M17.1458 445.207L20.4303 444.524C20.5453 444.502 20.5991 444.471 20.5917 444.433L20.5462 444.352C19.9065 443.004 19.4758 441.964 19.254 441.231C18.9188 440.222 18.5852 439.605 18.2533 439.381L18.116 440.288C17.9365 441.209 17.8292 441.886 17.7942 442.321L17.5678 443.23C17.3154 444.185 17.1747 444.844 17.1458 445.207ZM15.8287 454.566L15.7424 454.583C15.5603 454.618 15.0687 454.674 14.2678 454.75C13.3997 454.839 12.9122 454.864 12.8052 454.826C12.7501 454.747 12.7114 454.65 12.689 454.535C12.6165 454.161 12.6901 453.336 12.9099 452.059C12.9892 451.596 13.0391 451.239 13.0596 450.986C13.0709 450.685 13.1001 450.272 13.1471 449.745C13.2754 448.407 13.4555 447.541 13.6876 447.148C13.6581 446.945 13.6629 446.611 13.7019 446.145C13.7855 445.244 13.9012 444.43 14.049 443.705C14.2762 442.467 14.6616 440.711 15.205 438.437C15.8406 435.766 16.2739 434.334 16.5048 434.14C16.6004 433.505 16.7917 433.03 17.0788 432.715C17.4989 432.932 18.0141 433.613 18.6242 434.758C18.8592 435.2 19.0047 435.539 19.0608 435.777C19.2972 435.97 19.6429 436.47 20.098 437.277C20.3785 437.799 20.6338 438.192 20.8641 438.456C21.0213 438.754 21.2725 439.202 21.6177 439.802L24.1572 444.352C26.6482 448.832 27.9263 451.24 27.9914 451.575L27.9942 451.59C27.8647 451.794 27.7213 451.926 27.5639 451.987C27.4718 452.024 27.3682 452.055 27.2531 452.077C27.186 452.09 27.1036 452.101 27.0059 452.11C26.9159 452.108 26.8134 452.118 26.6984 452.14L26.1575 452.275C26.0079 452.324 25.8659 452.361 25.7317 452.388C25.4633 452.44 25.2009 452.446 24.9445 452.406C24.5577 452.054 23.8645 450.865 22.8648 448.841C22.4181 447.923 22.0447 447.23 21.7448 446.761C21.5453 446.809 21.3477 446.868 21.152 446.936C20.9659 447.002 20.7482 447.059 20.4989 447.107L20.3408 447.138C20.1568 447.164 19.9162 447.206 19.619 447.263C18.7946 447.424 17.8096 447.705 16.664 448.106C16.4254 448.979 16.204 450.529 15.9998 452.757L15.8287 454.566Z" fill="#9F54FF"/>
<path d="M21.0284 481.603C20.7109 481.506 20.352 481.361 19.9517 481.167C19.5485 480.983 19.317 480.805 19.257 480.633C19.2673 480.432 19.3709 480.009 19.5676 479.365C19.9069 478.253 20.2753 477.13 20.6727 475.996C21.5665 473.369 22.1268 471.901 22.3537 471.593C22.3755 471.354 22.4476 471.034 22.5702 470.633L22.952 469.432L23.1799 468.736C23.2284 468.577 23.2775 468.383 23.3272 468.153C23.419 467.752 23.5261 467.351 23.6487 466.949C23.777 466.529 23.9099 466.227 24.0474 466.045C24.0553 465.751 24.122 465.399 24.2475 464.988L24.3385 464.74C24.367 464.646 24.3894 464.556 24.4057 464.469C23.8309 464.212 23.1138 463.952 22.2547 463.689C21.4048 463.429 20.6035 463.194 19.8507 462.985C19.3967 462.866 19.025 462.763 18.7355 462.674C18.4459 462.586 18.276 462.524 18.2257 462.488C18.2899 461.976 18.4025 461.424 18.5634 460.83C18.7516 460.213 18.9724 459.724 19.2257 459.362C20.2174 459.492 21.5386 459.763 23.1892 460.176L34.8497 463.772C34.8274 464.112 34.6951 464.679 34.4528 465.473C34.3416 465.837 34.2642 466.074 34.2207 466.183C34.1478 466.355 34.0358 466.505 33.8846 466.632C33.8057 466.689 33.7076 466.777 33.5901 466.894C33.2588 466.742 32.6029 466.516 31.6223 466.216C29.6051 465.599 28.4231 465.274 28.0762 465.239L27.2268 468.273L26.9516 469.475L24.9612 475.744C24.7486 476.374 24.4806 477.068 24.157 477.827C23.8869 478.377 23.6563 478.966 23.4652 479.591L23.1853 480.609C23.0827 480.945 22.9674 481.272 22.8396 481.59C22.538 481.876 21.9343 481.88 21.0284 481.603Z" fill="#FF629A"/>
<path d="M18.8661 509.346C18.3561 509.482 17.933 509.601 17.5968 509.703L17.1625 509.836C16.8917 509.919 16.6755 509.98 16.5139 510.019C16.4065 509.868 16.34 509.751 16.3144 509.667C16.2887 509.583 16.2763 509.525 16.2771 509.494C16.2916 509.408 16.2718 509.276 16.2176 509.099C16.1606 508.912 16.0953 508.748 16.0216 508.607C15.9573 508.464 15.9006 508.328 15.8513 508.2C15.7287 507.798 15.653 507.433 15.6243 507.105C15.5842 506.74 15.5114 506.384 15.4059 506.038C14.761 504.193 14.2332 502.598 13.8226 501.253C13.375 499.787 13.0137 498.57 12.7387 497.602C12.0698 495.243 11.7427 493.954 11.7575 493.735C11.4487 493.125 11.1988 492.507 11.0078 491.881C10.8938 491.508 10.8012 491.138 10.7303 490.771C10.6805 490.542 10.6247 490.308 10.5627 490.072C10.8242 489.992 11.0707 489.896 11.3021 489.785C11.54 489.661 11.905 489.519 12.3971 489.358C12.9826 489.169 14.0785 488.829 15.6848 488.338C18.0374 487.649 19.5206 487.323 20.1343 487.36C20.2165 487.529 20.2903 487.721 20.3559 487.936C20.4101 488.113 20.4592 488.308 20.5033 488.519C20.5445 488.721 20.595 488.92 20.6549 489.116C20.7984 489.787 20.5375 490.27 19.8721 490.565C19.5408 490.718 19.193 490.849 18.8288 490.961C18.4552 491.075 18.0666 491.173 17.663 491.256C17.2565 491.329 16.8431 491.43 16.4229 491.559C15.8797 491.786 15.3326 491.984 14.7816 492.152L15.9836 496.441C16.0354 496.711 16.1112 497.01 16.211 497.337C16.3393 497.757 16.5081 498.226 16.7173 498.744C16.9436 499.319 17.1281 499.839 17.2706 500.306C17.3276 500.493 17.74 502.011 18.5076 504.86L19.1643 506.911C19.2914 507.26 19.3934 507.561 19.4703 507.813C19.5473 508.066 19.6075 508.313 19.6507 508.555C19.7033 508.794 19.6602 508.97 19.5214 509.084C19.4114 509.159 19.193 509.246 18.8661 509.346Z" fill="#FFB240"/>
<path d="M24.4329 403.95L23.9566 404.095C23.5737 404.212 22.8302 404.419 21.7262 404.716L21.7176 404.688L20.3771 405.113L19.4148 405.423C18.7237 405.634 18.0941 405.796 17.526 405.908C17.3603 405.499 17.0446 404.616 16.5788 403.257C15.6899 400.68 14.9404 398.391 14.3303 396.393C13.5405 393.805 13.1708 392.31 13.2212 391.907C13.0467 391.603 12.8454 391.077 12.6173 390.33C12.2182 389.022 11.8661 387.685 11.5611 386.318C11.7355 386.019 12.6492 385.617 14.3022 385.112C14.9932 384.901 15.7353 384.689 16.5283 384.477C16.8702 384.393 17.228 384.294 17.6015 384.18C17.919 384.083 18.2524 383.971 18.6016 383.844C18.9572 383.704 19.3078 383.582 19.6534 383.476C20.6246 383.179 21.5399 383.017 22.3993 382.989C22.6218 383.35 22.8157 383.801 22.9811 384.343C23.0552 384.586 23.105 384.815 23.1303 385.032C23.1676 385.389 23.0695 385.602 22.836 385.674L19.946 386.542L17.0658 387.392C16.1599 387.669 15.5557 387.864 15.2532 387.977L15.5642 389.046L15.8337 389.928L16.0891 390.815C16.2855 391.593 16.4921 392.336 16.7088 393.046C16.8 393.345 16.8835 393.585 16.9592 393.766C17.125 393.807 18.0016 393.585 19.5892 393.1C20.5605 392.803 21.5094 392.533 22.436 392.291C23.3627 392.048 24.0291 391.957 24.4353 392.017C24.77 392.578 24.9958 393.05 25.1127 393.433C25.241 393.853 25.2346 394.167 25.0935 394.373C24.8594 394.71 24.098 395.076 22.8092 395.47L22.1185 395.666L20.6099 396.142L18.0246 397.055L19.2169 401.363C20.1339 401.256 21.8718 400.811 24.4307 400.029C26.2611 399.47 27.2574 399.221 27.4195 399.284C27.6744 399.584 27.8685 399.969 28.0017 400.439C28.1471 400.915 28.2362 401.357 28.2691 401.766C28.3112 402.172 28.2191 402.455 27.9926 402.616C27.8071 402.745 27.5836 402.849 27.3221 402.929L26.6917 403.121L24.4329 403.95Z" fill="#E440FF"/>
<path d="M27.8859 377.57C27.6671 377.52 27.4468 377.454 27.225 377.372C27.0391 377.309 26.8747 377.261 26.732 377.229C26.2394 377.105 25.8892 376.994 25.6813 376.896C25.4829 376.8 25.3738 376.664 25.354 376.489C25.3459 376.307 25.3799 376.029 25.4559 375.656L25.4757 375.57C25.5941 375.057 25.6931 374.258 25.7727 373.173C25.8485 372.018 25.9756 370.75 26.1539 369.368C26.3475 367.919 26.4479 366.875 26.4551 366.235C25.9443 366.799 24.8052 368.871 23.0377 372.452C21.9894 374.565 21.3818 375.723 21.2149 375.925L20.6353 375.896C20.4932 375.382 20.3968 374.779 20.3461 374.085L20.2526 373.252C20.1735 372.813 20.1298 372.372 20.1217 371.929C20.1252 371.479 20.097 371.036 20.0368 370.601C19.9335 370.006 19.8842 368.872 19.889 367.2C19.8947 366.87 19.8939 366.569 19.8866 366.297C19.8887 366.027 19.8927 365.792 19.8985 365.593C19.8809 365.409 19.8669 365.295 19.8567 365.253C19.8464 365.21 19.827 365.186 19.7985 365.179C19.7699 365.173 19.7483 365.158 19.7337 365.134L18.0733 367.968C17.657 368.644 17.2472 369.356 16.8441 370.105L16.4732 370.801C15.9369 371.78 15.5598 372.524 15.3418 373.035C15.0946 373.63 14.8773 373.986 14.6899 374.103C14.5377 374.198 14.2903 374.206 13.9478 374.127C13.4434 374.01 13.0335 373.876 12.7181 373.723C12.5292 373.629 12.3356 373.469 12.1372 373.243L12.1865 373.029C12.2787 372.629 12.4996 371.953 12.8492 371.002C13.201 370.041 13.5832 369.056 13.9958 368.049C14.4201 367.035 14.7332 366.415 14.9352 366.191C14.9293 366.13 14.9373 366.052 14.9593 365.956C14.9966 365.795 15.081 365.559 15.2127 365.248C15.4936 364.551 15.8126 363.928 16.1696 363.379C16.3715 362.895 16.6708 362.292 17.0673 361.572C17.5889 360.57 17.8761 359.955 17.9287 359.726C18.0194 359.637 18.2422 359.258 18.597 358.588C19.1128 357.655 19.7161 356.646 20.4068 355.563C21.107 354.482 21.7205 353.842 22.2474 353.643C22.5308 354.239 22.6386 354.88 22.5707 355.566C22.5583 355.924 22.5734 356.294 22.6159 356.674C22.8917 359.304 22.9839 362.447 22.8925 366.104L22.8882 366.644C23.1641 366.447 23.4527 366.043 23.7542 365.431C24.1221 364.704 25.6397 362.664 28.3067 359.311C29.2536 358.116 29.9128 357.322 30.2846 356.926C30.668 356.524 30.9787 356.35 31.2165 356.405C31.3117 356.427 31.4061 356.474 31.4998 356.545C31.5218 356.581 31.4663 357.039 31.3332 357.92C30.9284 360.633 30.7926 362.265 30.9259 362.817C30.8396 363.018 30.7625 363.266 30.6945 363.561C30.5584 364.151 30.417 365.155 30.2703 366.575C30.2155 367.203 30.1563 367.721 30.0927 368.127L29.1685 373.702C29.2344 374.068 29.0952 374.998 28.7508 376.492C28.6192 377.063 28.5095 377.408 28.4217 377.528C28.2834 377.607 28.1048 377.621 27.8859 377.57Z" fill="#FF629A"/>
<path d="M27.8019 347.225C26.1081 347.616 24.3219 347.627 22.4431 347.259C21.8364 347.149 21.1455 346.912 20.3705 346.55C18.677 345.768 17.5329 344.674 16.9382 343.268C16.8519 343.068 16.7498 342.886 16.632 342.723C16.1871 342.184 15.7449 341.113 15.3054 339.511C15.2498 339.313 15.199 339.115 15.1529 338.915C14.6856 336.888 14.7523 335.003 15.3528 333.261C15.9512 331.509 17.3022 329.914 19.4061 328.477C20.2413 327.883 21.0253 327.501 21.7579 327.332L22.2498 327.249C22.697 327.146 23.0872 326.99 23.4202 326.783C23.6567 326.678 23.8938 326.599 24.1317 326.544C24.3696 326.489 24.7154 326.424 25.1692 326.349C25.6208 326.265 26.1054 326.193 26.6229 326.134C27.1381 326.065 27.514 326.044 27.7504 326.069C27.9245 326.39 28.0818 326.789 28.2222 327.268C28.2639 327.449 28.3359 327.783 28.4383 328.271C28.5384 328.749 28.4937 329.185 28.3041 329.579C28.2492 329.602 28.1789 329.623 28.0933 329.643C27.8839 329.692 27.5659 329.725 27.1392 329.743C26.1343 329.775 25.2226 329.885 24.4043 330.074C23.7763 330.219 23.149 330.454 22.5224 330.779L22.4719 330.821C21.86 331.122 21.2897 331.474 20.7612 331.877C20.0863 332.384 19.6682 333.092 19.507 334.001C19.4315 334.499 19.3465 334.805 19.2521 334.917L19.3146 335.188C19.4024 335.568 19.4802 336.037 19.5482 336.592C19.6037 337.05 19.6651 337.447 19.7323 337.782C20.0037 338.742 20.3896 339.59 20.89 340.326C21.0715 340.635 21.2354 340.933 21.3817 341.22C21.6986 341.378 21.9763 341.539 22.2149 341.704C22.463 341.868 22.7125 342.015 22.9635 342.148C23.2124 342.271 23.5223 342.355 23.8934 342.399C24.4913 342.472 25.4985 342.384 26.9148 342.138C27.1358 342.097 27.3342 342.066 27.5098 342.045C28.1605 341.955 28.7032 341.875 29.138 341.805C29.6965 341.706 30.1108 341.655 30.3808 341.653C30.6487 341.641 30.8372 341.698 30.9462 341.823C31.053 341.939 31.1522 342.152 31.2436 342.461C31.3635 342.895 31.508 343.347 31.677 343.82C31.8211 344.227 31.9428 344.625 32.0423 345.013C32.0577 345.08 32.0719 345.141 32.0851 345.199C32.1246 345.37 32.134 345.498 32.1135 345.583C31.9817 345.794 31.7738 345.957 31.4898 346.073C31.2036 346.179 30.9083 346.267 30.6038 346.337C30.3088 346.405 30.0457 346.481 29.8144 346.565C29.1578 346.847 28.487 347.067 27.8019 347.225Z" fill="#4053FF"/>
<path d="M18.4156 312.984C20.9798 313.537 22.5004 313.069 22.9774 311.58C23.2073 310.671 22.9865 309.881 22.3149 309.211C22.0615 308.996 21.674 308.753 21.1524 308.481C20.6308 308.21 20.2339 308.035 19.9617 307.957L19.4234 309.89C19.1304 310.914 18.7945 311.945 18.4156 312.984ZM13.2541 324.838L13.0711 324.786C12.6017 324.651 12.1981 324.464 11.8602 324.225C12.0515 322.848 12.3703 321.38 12.8165 319.821C13.1471 318.666 13.5495 317.456 14.0237 316.19C14.5101 314.846 14.9038 313.649 15.2048 312.597L15.7876 310.296L15.9086 309.873C16.2553 308.662 16.5153 308.02 16.6883 307.948C16.7045 307.821 16.7435 307.649 16.8053 307.433C16.8483 307.283 16.9216 307.045 17.025 306.719C17.1379 306.396 17.2803 306.005 17.4523 305.546C17.6336 305.09 17.7746 304.775 17.8753 304.601C18.2268 304.508 18.778 304.57 19.529 304.785C20.5898 305.089 21.7048 305.541 22.874 306.141C23.8314 306.628 24.4843 307.08 24.8328 307.495C25.326 308.114 25.6142 308.491 25.6973 308.626C25.8607 308.907 26.0052 309.502 26.1308 310.412C26.172 310.942 26.0932 311.554 25.8943 312.249C25.8862 312.277 25.8224 312.482 25.7028 312.864C25.5832 313.247 25.3463 313.595 24.992 313.91C24.7422 314.428 24.306 314.958 23.6833 315.501C23.0606 316.043 22.471 316.382 21.9143 316.517C20.4575 316.78 18.9841 316.764 17.4941 316.469C17.3169 316.804 17.0597 317.401 16.7225 318.259C16.0227 320.029 15.5236 321.436 15.2252 322.478L15.1102 322.932C15.035 323.195 14.9671 323.414 14.9066 323.59L14.8462 323.801C14.7413 324.168 14.7002 324.542 14.7228 324.924C14.3056 324.998 13.816 324.969 13.2541 324.838Z" fill="#FFB240"/>
<path d="M13.4136 615.965C15.7152 615.348 16.7519 613.933 16.5236 611.719C16.478 611.398 16.4365 611.035 16.3991 610.63C16.283 609.478 16.1631 608.671 16.0395 608.209C15.3 605.445 13.7193 603.164 11.2974 601.366C11.1175 601.374 10.9574 601.362 10.8171 601.328C10.6007 601.275 10.384 601.278 10.1671 601.336C9.99729 601.381 9.78352 601.489 9.52577 601.659C8.77392 602.174 8.3006 602.559 8.10583 602.813C7.63601 603.626 7.39038 604.749 7.36893 606.18C7.34748 607.611 7.45664 608.775 7.69641 609.671L8.13456 611.252C8.36171 612.101 8.5492 612.916 8.69704 613.695C8.7996 613.738 9.06842 614.025 9.5035 614.556C10.0142 615.217 10.4133 615.651 10.7009 615.857C11.1843 616.153 11.9209 616.223 12.9108 616.069C13.0856 616.042 13.2532 616.008 13.4136 615.965ZM13.0424 619.962C11.1369 620.472 9.49935 620.132 8.12965 618.942C7.67517 618.528 7.12704 617.821 6.48525 616.82C5.84347 615.819 5.29508 614.809 4.8401 613.788C4.65292 613.353 4.5139 612.966 4.42304 612.626C4.3019 612.173 4.27109 611.812 4.33062 611.544C4.2569 611.382 4.18974 611.187 4.12917 610.961C3.99541 610.461 3.88218 609.697 3.78949 608.671C3.6968 607.644 3.69399 606.538 3.78106 605.352C3.87757 604.163 4.09768 603.361 4.44139 602.946C4.4842 602.237 4.96816 601.42 5.89328 600.494C6.81587 599.56 7.76794 598.905 8.7495 598.531L9.51256 598.266C9.78798 598.162 10.0294 598.082 10.237 598.026C10.4376 597.983 10.6672 597.972 10.9257 597.993C11.5472 598.049 12.2128 598.194 12.9225 598.429C13.8895 598.756 14.4691 599.071 14.6612 599.373C15.1023 599.548 15.536 599.922 15.9623 600.496C16.3955 601.057 16.774 601.603 17.0977 602.133C17.419 602.653 17.6359 602.954 17.7486 603.035C17.9622 603.493 18.1887 603.943 18.4281 604.385C18.9452 605.297 19.3473 606.271 19.6344 607.307C19.6559 607.463 19.6718 607.635 19.682 607.825C19.6897 608.005 19.6993 608.154 19.7107 608.272C19.7612 608.461 19.8119 608.594 19.8629 608.671C19.9208 608.736 19.9832 608.856 20.05 609.03C20.139 609.401 20.1654 609.783 20.1293 610.177C20.1188 610.402 20.1165 610.62 20.1223 610.831C20.1968 611.903 20.0568 613.042 19.7025 614.249C19.3575 615.454 18.7812 616.417 17.9735 617.139C17.3816 617.874 16.49 618.527 15.2985 619.099C14.5019 619.485 13.7498 619.772 13.0424 619.962Z" fill="#3DFF7F"/>
<path d="M10.5299 640.904L13.7665 641.786C13.8791 641.818 13.9408 641.816 13.9516 641.778L13.9476 641.686C13.9887 640.194 14.0766 639.071 14.2111 638.317C14.37 637.266 14.3523 636.565 14.158 636.214L13.6245 636.96C13.0473 637.699 12.6446 638.254 12.4163 638.626L11.8023 639.333C11.1446 640.069 10.7205 640.593 10.5299 640.904ZM5.11331 648.646L5.02883 648.622C4.85047 648.571 4.38716 648.397 3.63891 648.102C2.82494 647.787 2.37908 647.588 2.30134 647.505C2.28798 647.409 2.29743 647.305 2.32968 647.193C2.43452 646.827 2.87419 646.125 3.64871 645.087C3.92926 644.71 4.13599 644.414 4.2689 644.198C4.41525 643.935 4.62872 643.58 4.90931 643.132C5.63023 641.998 6.18324 641.308 6.56832 641.063C6.63416 640.869 6.78992 640.573 7.0356 640.176C7.51891 639.411 7.99076 638.738 8.45115 638.159C9.21492 637.159 10.3545 635.769 11.8698 633.989C13.6469 631.897 14.6823 630.818 14.9761 630.75C15.3492 630.227 15.7351 629.89 16.1335 629.741C16.4096 630.124 16.56 630.965 16.5847 632.262C16.5938 632.763 16.5694 633.132 16.5116 633.369C16.6349 633.648 16.7163 634.251 16.756 635.176C16.7691 635.769 16.8184 636.236 16.9041 636.575C16.9093 636.912 16.9297 637.426 16.9656 638.117L17.1657 643.325C17.3545 648.448 17.4019 651.174 17.3078 651.503L17.3038 651.517C17.0958 651.64 16.908 651.693 16.7404 651.676C16.6411 651.667 16.5352 651.647 16.4225 651.615C16.3568 651.596 16.2784 651.568 16.1872 651.532C16.1081 651.489 16.0122 651.451 15.8995 651.419L15.3564 651.294C15.2008 651.27 15.0573 651.239 14.9259 651.201C14.6631 651.126 14.4264 651.012 14.2159 650.86C14.0311 650.37 13.9521 648.997 13.9789 646.739C13.9969 645.718 13.9786 644.93 13.9239 644.376C13.7241 644.329 13.5216 644.291 13.3164 644.263C13.1206 644.237 12.9006 644.189 12.6566 644.119L12.5017 644.075C12.326 644.015 12.0927 643.943 11.8017 643.859C10.9944 643.628 9.98919 643.431 8.78617 643.269C8.17818 643.938 7.27811 645.219 6.08596 647.112L5.11331 648.646Z" fill="#9F54FF"/>
<path d="M24.8321 675.658C24.5363 675.809 24.1771 675.953 23.7545 676.092C23.3364 676.239 23.0463 676.272 22.8841 676.19C22.7521 676.038 22.5333 675.662 22.2277 675.061C21.7008 674.026 21.1867 672.961 20.6856 671.869C19.5063 669.357 18.8913 667.911 18.8406 667.531C18.6908 667.345 18.5207 667.064 18.3303 666.69L17.7721 665.56L17.453 664.901C17.3778 664.753 17.2783 664.579 17.1546 664.379C16.9425 664.027 16.7413 663.663 16.5509 663.289C16.3516 662.898 16.2381 662.588 16.2103 662.361C16.0122 662.144 15.8158 661.844 15.621 661.461L15.5145 661.22C15.4702 661.133 15.4238 661.052 15.3752 660.978C14.7829 661.192 14.0865 661.503 13.286 661.911C12.4942 662.315 11.7546 662.703 11.0674 663.075C10.6586 663.305 10.3193 663.489 10.0496 663.626C9.77984 663.764 9.61444 663.837 9.55338 663.846C9.2448 663.433 8.94233 662.957 8.64595 662.418C8.3537 661.843 8.17327 661.338 8.10468 660.902C8.90823 660.306 10.0471 659.583 11.5212 658.733L22.4067 653.22C22.6269 653.48 22.9252 653.98 23.3016 654.72C23.4743 655.06 23.5828 655.284 23.6273 655.393C23.694 655.567 23.7171 655.752 23.6967 655.949C23.6799 656.045 23.6699 656.177 23.6667 656.343C23.3227 656.463 22.6938 656.756 21.7802 657.222C19.9007 658.179 18.8242 658.766 18.5507 658.982L20.044 661.756L20.6802 662.813L23.5973 668.708C23.881 669.309 24.1697 669.995 24.4634 670.766C24.6509 671.35 24.893 671.933 25.1897 672.517L25.694 673.443C25.8534 673.757 25.9976 674.072 26.1265 674.39C26.1076 674.805 25.6761 675.228 24.8321 675.658Z" fill="#FF498B"/>
<path d="M19.1109 699.061C18.8827 700.361 18.157 701.344 16.934 702.011C15.7219 702.669 14.509 703.012 13.2954 703.04C12.5421 703.085 11.839 703.082 11.186 703.032C10.9812 703.016 10.7722 702.996 10.559 702.969C10.0841 702.911 9.57875 702.82 9.04308 702.695C9.04516 702.036 9.14932 700.745 9.35555 698.822C9.44074 697.967 9.53444 697.122 9.63665 696.289C9.765 695.242 9.93591 694.008 10.1494 692.588C10.364 691.158 10.5781 690.255 10.7916 689.878C10.7794 689.817 10.7928 689.627 10.8321 689.307C10.8713 688.987 10.9219 688.615 10.9839 688.189C11.0458 687.764 11.1066 687.348 11.1663 686.943C11.2449 686.382 11.3009 686.005 11.3344 685.812C11.3843 685.405 11.4226 684.972 11.4494 684.513C11.4596 684.189 11.483 683.877 11.5199 683.577C11.59 683.005 11.7087 682.478 11.8759 681.997L12.3993 682.061C13.0232 682.108 13.6163 682.166 14.1785 682.235C14.5177 682.277 14.8418 682.322 15.1508 682.37C15.5179 682.425 15.9099 682.478 16.3267 682.529L17.2863 682.647C17.5965 682.685 17.9224 682.715 18.264 682.737C18.6177 682.741 18.9545 682.763 19.2743 682.802C19.8171 682.869 20.3195 682.985 20.7813 683.15L20.6033 684.722C20.5915 684.819 20.5856 684.906 20.5858 684.985C20.5824 685.093 20.5748 685.195 20.5629 685.292C20.5284 685.573 20.4587 685.781 20.3536 685.916C20.2341 686.088 19.9223 686.143 19.4183 686.081L19.3456 686.073C18.8319 686.009 18.3157 685.926 17.797 685.823C17.3838 685.743 16.9743 685.673 16.5683 685.613L16.074 685.553C15.57 685.491 15.0623 685.419 14.5509 685.336C14.2748 686.867 13.9889 688.396 13.6933 689.924C13.5953 690.483 13.496 691.012 13.3954 691.511C14.0207 691.627 14.6867 691.812 15.3935 692.066C16.1002 692.32 16.6866 692.633 17.1526 693.005C17.9007 693.324 18.4755 693.852 18.8769 694.59C19.1105 695.012 19.2769 695.46 19.3761 695.935C19.4008 696.135 19.4137 696.471 19.4148 696.943C19.4159 697.416 19.3946 697.871 19.3508 698.308L19.3383 698.41C19.292 698.788 19.2162 699.005 19.1109 699.061ZM12.0459 699.389L11.9881 700.341C12.2924 700.427 12.5947 700.489 12.8952 700.526C13.3895 700.587 13.8874 700.579 14.3886 700.503C14.7615 700.43 15.0604 700.32 15.2854 700.17C15.5103 700.021 15.7177 699.854 15.9074 699.671C16.0307 699.548 16.1636 699.427 16.3063 699.307C16.3494 699.115 16.3968 698.929 16.4485 698.748C16.5278 698.502 16.5914 698.225 16.6391 697.916C16.7645 696.652 16.2554 695.709 15.1117 695.087C14.6218 694.83 14.1102 694.668 13.5771 694.603C13.3154 694.571 13.0507 694.563 12.7831 694.579L12.776 694.637C12.7172 694.876 12.6789 695.068 12.661 695.214L12.6486 695.315C12.6319 695.451 12.6251 695.627 12.628 695.844L12.0459 699.389Z" fill="#FFB240"/>
<path d="M22.1014 597.213C21.7807 597.299 21.3992 597.365 20.9571 597.413C20.5175 597.47 20.2268 597.442 20.0852 597.328C19.9876 597.152 19.8517 596.739 19.6775 596.088C19.3772 594.965 19.0954 593.817 18.8321 592.644C18.2002 589.942 17.8989 588.4 17.9282 588.019C17.8204 587.805 17.7123 587.495 17.6038 587.089L17.2924 585.869L17.1172 585.157C17.0743 584.997 17.0131 584.806 16.9337 584.585C16.7994 584.196 16.678 583.799 16.5695 583.393C16.4559 582.969 16.4091 582.643 16.429 582.415C16.2803 582.162 16.1505 581.827 16.0394 581.412L15.9854 581.154C15.9602 581.059 15.9315 580.971 15.8994 580.889C15.2755 580.975 14.5296 581.134 13.6618 581.367C12.8034 581.597 11.9994 581.822 11.2498 582.043C10.8021 582.184 10.432 582.293 10.1396 582.371C9.84719 582.45 9.67016 582.487 9.60851 582.483C9.39238 582.015 9.19537 581.487 9.01751 580.898C8.85093 580.275 8.77941 579.743 8.80294 579.302C9.71276 578.886 10.977 578.416 12.5956 577.892L24.3895 574.762C24.5508 575.062 24.7387 575.613 24.9532 576.415C25.0516 576.783 25.1113 577.025 25.1321 577.141C25.1612 577.325 25.1453 577.511 25.0845 577.7C25.0481 577.79 25.0111 577.916 24.9735 578.078C24.6118 578.124 23.9358 578.28 22.9453 578.546C20.9078 579.092 19.7329 579.442 19.4204 579.596L20.3051 582.62L20.708 583.786L22.337 590.158C22.4898 590.805 22.6297 591.536 22.7568 592.351C22.819 592.961 22.9346 593.582 23.1037 594.214L23.4046 595.226C23.4954 595.565 23.5709 595.904 23.6309 596.242C23.5262 596.644 23.0164 596.968 22.1014 597.213Z" fill="#E440FF"/>
<path d="M15.9718 572.348L15.475 572.313C15.0756 572.285 14.3073 572.212 13.1702 572.093L13.1723 572.064L11.7684 571.981L10.7591 571.925C10.0382 571.874 9.39244 571.8 8.82176 571.701C8.81339 571.26 8.83484 570.322 8.88611 568.886C8.97844 566.161 9.09738 563.757 9.24292 561.672C9.43131 558.973 9.62123 557.445 9.81269 557.086C9.75855 556.74 9.75869 556.177 9.8131 555.398C9.90832 554.034 10.0581 552.659 10.2625 551.273C10.5322 551.057 11.5291 551.009 13.2534 551.13C13.9743 551.18 14.7429 551.249 15.5592 551.335C15.9085 551.379 16.278 551.415 16.6677 551.442C16.9989 551.465 17.3503 551.48 17.7219 551.487C18.1038 551.484 18.475 551.495 18.8355 551.52C19.8486 551.591 20.7614 551.768 21.5738 552.05C21.6524 552.466 21.672 552.957 21.6326 553.522C21.6149 553.775 21.5791 554.008 21.5251 554.219C21.4325 554.565 21.2644 554.73 21.0208 554.713L18.0116 554.488L15.018 554.249C14.0731 554.183 13.4392 554.148 13.1163 554.145L13.0242 555.255L12.9599 556.176L12.881 557.095C12.7863 557.891 12.7131 558.66 12.6614 559.4C12.6396 559.712 12.6317 559.966 12.6376 560.162C12.7776 560.26 13.6756 560.367 15.3318 560.482C16.3449 560.553 17.3275 560.642 18.2794 560.747C19.2314 560.853 19.8864 561.006 20.2443 561.208C20.356 561.852 20.3979 562.374 20.37 562.773C20.3394 563.211 20.2212 563.502 20.0155 563.644C19.6764 563.875 18.8346 563.943 17.4902 563.849L16.7752 563.784L15.196 563.689L12.4553 563.615L12.0272 568.063C12.9216 568.292 14.7035 568.5 17.3728 568.687C19.2822 568.82 20.3013 568.945 20.4302 569.062C20.5609 569.433 20.6044 569.862 20.5607 570.349C20.526 570.846 20.4508 571.291 20.3353 571.684C20.2295 572.078 20.042 572.31 19.7728 572.379C19.5537 572.432 19.3078 572.449 19.0351 572.43L18.3775 572.384L15.9718 572.348Z" fill="#FF498B"/>
<path d="M18.8019 538.86C17.1081 539.251 15.3219 539.262 13.4431 538.894C12.8364 538.784 12.1455 538.547 11.3705 538.185C9.67704 537.403 8.53293 536.31 7.93819 534.903C7.85186 534.703 7.7498 534.521 7.632 534.358C7.18711 533.819 6.7449 532.748 6.30536 531.146C6.24978 530.948 6.19895 530.75 6.15289 530.55C5.68563 528.523 5.75227 526.638 6.35281 524.896C6.95115 523.144 8.30224 521.55 10.4061 520.112C11.2413 519.518 12.0253 519.136 12.7579 518.967L13.2498 518.884C13.697 518.781 14.0872 518.625 14.4202 518.418C14.6567 518.314 14.8938 518.234 15.1317 518.179C15.3696 518.124 15.7154 518.059 16.1692 517.984C16.6208 517.9 17.1054 517.828 17.6229 517.769C18.1381 517.7 18.514 517.679 18.7504 517.704C18.9245 518.025 19.0818 518.424 19.2222 518.903C19.2639 519.084 19.3359 519.418 19.4383 519.906C19.5384 520.384 19.4937 520.82 19.3041 521.214C19.2492 521.237 19.1789 521.258 19.0933 521.278C18.8839 521.327 18.5659 521.36 18.1392 521.378C17.1343 521.41 16.2226 521.52 15.4043 521.709C14.7763 521.854 14.149 522.089 13.5224 522.414L13.4719 522.456C12.86 522.757 12.2897 523.109 11.7612 523.512C11.0863 524.019 10.6682 524.727 10.507 525.636C10.4315 526.134 10.3465 526.44 10.2521 526.552L10.3146 526.823C10.4024 527.203 10.4802 527.672 10.5482 528.227C10.6037 528.685 10.6651 529.082 10.7323 529.417C11.0037 530.377 11.3896 531.225 11.89 531.961C12.0715 532.27 12.2354 532.568 12.3817 532.855C12.6986 533.013 12.9763 533.174 13.2149 533.339C13.463 533.503 13.7125 533.65 13.9635 533.783C14.2124 533.906 14.5223 533.99 14.8934 534.034C15.4913 534.107 16.4985 534.02 17.9148 533.773C18.1358 533.732 18.3342 533.701 18.5098 533.68C19.1605 533.59 19.7032 533.51 20.138 533.44C20.6965 533.341 21.1108 533.29 21.3808 533.288C21.6487 533.276 21.8372 533.333 21.9462 533.458C22.053 533.574 22.1522 533.787 22.2436 534.096C22.3635 534.53 22.508 534.982 22.677 535.455C22.8211 535.862 22.9428 536.26 23.0423 536.648C23.0577 536.715 23.0719 536.777 23.0851 536.834C23.1246 537.005 23.134 537.133 23.1135 537.218C22.9817 537.429 22.7738 537.592 22.4898 537.708C22.2036 537.814 21.9083 537.902 21.6038 537.972C21.3088 538.04 21.0457 538.116 20.8144 538.2C20.1578 538.482 19.487 538.702 18.8019 538.86Z" fill="#4053FF"/>
</svg>
