<svg width="26" height="716" viewBox="0 0 26 716" fill="none" xmlns="http://www.w3.org/2000/svg">
<path d="M1.30454 131.567L4.53337 130.656C4.64656 130.626 4.69811 130.592 4.68802 130.554L4.637 130.477C3.90502 129.176 3.40287 128.169 3.13055 127.453C2.72591 126.47 2.35022 125.878 2.00347 125.677L1.9297 126.592C1.81474 127.522 1.75493 128.206 1.75026 128.642L1.5878 129.565C1.40243 130.535 1.308 131.202 1.30454 131.567ZM0.642513 140.995L0.557617 141.018C0.378392 141.066 -0.108063 141.156 -0.901749 141.287C-1.76147 141.437 -2.24606 141.496 -2.35553 141.465C-2.41598 141.39 -2.46134 141.296 -2.49163 141.183C-2.59006 140.815 -2.57408 139.986 -2.4437 138.698C-2.39691 138.23 -2.37205 137.87 -2.36912 137.616C-2.3788 137.316 -2.37852 136.901 -2.36827 136.372C-2.33354 135.029 -2.21413 134.152 -2.01004 133.744C-2.05361 133.543 -2.07213 133.21 -2.0656 132.743C-2.04497 131.837 -1.98621 131.018 -1.88933 130.284C-1.74885 129.033 -1.48678 127.255 -1.10313 124.948C-0.655024 122.239 -0.322557 120.78 -0.105727 120.571C-0.0546835 119.93 0.103104 119.443 0.367634 119.109C0.801798 119.296 1.36309 119.94 2.0515 121.039C2.31666 121.463 2.48551 121.792 2.55804 122.026C2.80727 122.201 3.18695 122.676 3.69708 123.449C4.01326 123.951 4.29536 124.325 4.54339 124.572C4.72101 124.858 5.00284 125.288 5.3889 125.862L8.23907 130.224C11.036 134.52 12.4787 136.833 12.567 137.163L12.5708 137.177C12.4559 137.39 12.322 137.532 12.1692 137.603C12.0799 137.647 11.9787 137.684 11.8655 137.715C11.7995 137.732 11.718 137.749 11.6212 137.765C11.5312 137.769 11.4297 137.786 11.3165 137.816L10.7864 137.989C10.6405 138.048 10.5015 138.095 10.3695 138.131C10.1054 138.202 9.84402 138.226 9.58549 138.204C9.17511 137.88 8.40081 136.742 7.26258 134.793C6.75299 133.908 6.33226 133.242 6.0004 132.796C5.80484 132.858 5.6118 132.93 5.42128 133.011C5.24019 133.09 5.02702 133.163 4.78177 133.228L4.62612 133.27C4.44438 133.309 4.20729 133.367 3.91487 133.445C3.10365 133.663 2.14063 134.012 1.02581 134.492C0.848545 135.379 0.735684 136.941 0.687229 139.178L0.642513 140.995Z" fill="#3DFF7F"/>
<path d="M1.74581 166.954C4.03631 167.611 5.65294 166.931 6.59569 164.916C6.72194 164.617 6.87303 164.284 7.04895 163.918C7.54181 162.871 7.85409 162.117 7.98581 161.657C8.7734 158.906 8.59126 156.136 7.43939 153.348C7.28117 153.262 7.15045 153.168 7.04724 153.068C6.88906 152.91 6.70201 152.801 6.48611 152.739C6.31713 152.691 6.0784 152.673 5.7699 152.686C4.86049 152.74 4.25686 152.826 3.95903 152.944C3.13791 153.399 2.3501 154.235 1.59559 155.451C0.841089 156.667 0.336156 157.721 0.080794 158.613L-0.356712 160.194C-0.598634 161.039 -0.856622 161.834 -1.13068 162.578C-1.06501 162.668 -0.982071 163.053 -0.881872 163.732C-0.784444 164.562 -0.665408 165.14 -0.524764 165.465C-0.262168 165.967 0.333099 166.407 1.26104 166.784C1.42463 166.852 1.58622 166.908 1.74581 166.954ZM-0.628117 170.189C-2.52436 169.646 -3.75364 168.511 -4.31597 166.785C-4.49267 166.196 -4.59878 165.307 -4.6343 164.119C-4.66982 162.93 -4.6202 161.781 -4.48542 160.672C-4.42211 160.202 -4.34207 159.798 -4.2453 159.46C-4.11627 159.01 -3.95714 158.685 -3.76791 158.485C-3.74768 158.308 -3.70532 158.107 -3.6408 157.881C-3.49834 157.384 -3.20284 156.671 -2.75432 155.743C-2.30579 154.815 -1.73922 153.865 -1.05461 152.893C-0.360604 151.924 0.24062 151.349 0.749067 151.17C1.15045 150.584 1.98565 150.133 3.25468 149.816C4.52639 149.49 5.67926 149.419 6.71327 149.604L7.50385 149.77C7.79353 149.822 8.04164 149.878 8.24816 149.938C8.4426 150.003 8.64507 150.112 8.85556 150.264C9.35967 150.632 9.85566 151.099 10.3436 151.666C11.0043 152.445 11.3393 153.013 11.3485 153.371C11.6367 153.749 11.8161 154.293 11.8868 155.004C11.9695 155.708 12.0134 156.371 12.0184 156.992C12.0261 157.604 12.0574 157.974 12.1123 158.101C12.0597 158.604 12.0225 159.107 12.0008 159.608C11.9747 160.657 11.8185 161.7 11.5322 162.735C11.4704 162.88 11.3952 163.036 11.3066 163.204C11.2206 163.362 11.1521 163.495 11.1011 163.602C11.0474 163.79 11.0225 163.93 11.0264 164.022C11.0425 164.108 11.0343 164.243 11.002 164.427C10.8878 164.79 10.7139 165.132 10.4804 165.451C10.3555 165.638 10.2414 165.824 10.138 166.008C9.65058 166.965 8.94454 167.87 8.01991 168.722C7.10466 169.577 6.11517 170.106 5.05142 170.309C4.16599 170.635 3.06542 170.736 1.74971 170.612C0.868541 170.532 0.0759321 170.391 -0.628117 170.189Z" fill="#9F54FF"/>
<path d="M15.3146 196.007L14.8708 196.233C14.514 196.415 13.8178 196.748 12.782 197.232L12.7687 197.206L11.5224 197.857L10.6285 198.329C9.98458 198.657 9.39267 198.926 8.85273 199.135C8.61866 198.761 8.1544 197.946 7.45996 196.688C6.1375 194.304 5.00246 192.181 4.05484 190.318C2.82825 187.907 2.20478 186.499 2.18443 186.093C1.95984 185.823 1.67042 185.341 1.31617 184.644C0.696229 183.426 0.117506 182.17 -0.420003 180.876C-0.300046 180.552 0.529992 179.998 2.07011 179.213C2.714 178.885 3.40804 178.548 4.15223 178.201C4.47433 178.059 4.80941 177.899 5.15746 177.722C5.4533 177.571 5.76211 177.403 6.0839 177.217C6.40997 177.018 6.73397 176.837 7.05592 176.673C7.96085 176.212 8.83404 175.893 9.67549 175.716C9.95718 176.033 10.2264 176.444 10.4833 176.948C10.5984 177.175 10.6873 177.393 10.7499 177.602C10.8484 177.946 10.7889 178.174 10.5714 178.285L7.87603 179.641L5.18712 180.979C4.3431 181.409 3.78195 181.706 3.50366 181.869L3.99542 182.868L4.41387 183.691L4.81928 184.52C5.14758 185.251 5.48 185.948 5.81654 186.609C5.95824 186.888 6.08207 187.11 6.18804 187.275C6.35841 187.287 7.1832 186.916 8.66241 186.162C9.56734 185.701 10.455 185.271 11.3255 184.871C12.1959 184.471 12.8363 184.266 13.2466 184.254C13.6737 184.749 13.978 185.175 14.1595 185.531C14.3588 185.923 14.4068 186.233 14.3037 186.461C14.1317 186.833 13.4453 187.326 12.2445 187.937L11.5983 188.25L10.1954 188.982L7.8078 190.33L9.72925 194.365C10.6137 194.1 12.2481 193.361 14.6322 192.146C16.3376 191.277 17.2756 190.86 17.4462 190.893C17.7492 191.144 18.0071 191.49 18.2198 191.929C18.4456 192.373 18.6102 192.794 18.7134 193.19C18.8254 193.583 18.7838 193.878 18.5887 194.076C18.4283 194.234 18.2262 194.376 17.9826 194.5L17.3953 194.799L15.3146 196.007Z" fill="#FF498B"/>
<path d="M14.9979 226.427C14.775 226.4 14.549 226.357 14.3199 226.3C14.1284 226.257 13.96 226.226 13.8146 226.208C13.3118 226.137 12.9519 226.063 12.7349 225.987C12.5276 225.912 12.4049 225.789 12.367 225.617C12.3399 225.437 12.3447 225.157 12.3814 224.778L12.3921 224.691C12.4562 224.167 12.4713 223.362 12.4372 222.276C12.3921 221.119 12.3861 219.844 12.4191 218.451C12.4605 216.99 12.4514 215.941 12.3918 215.304C11.9426 215.918 11.026 218.098 9.64186 221.844C8.81978 224.055 8.33633 225.27 8.19149 225.488L7.61198 225.52C7.41701 225.024 7.25816 224.434 7.13542 223.75L6.95544 222.931C6.83088 222.502 6.74144 222.068 6.68711 221.629C6.64366 221.181 6.56935 220.743 6.46418 220.317C6.29929 219.736 6.13191 218.614 5.96205 216.95C5.93342 216.622 5.90122 216.322 5.86546 216.052C5.83939 215.784 5.81886 215.55 5.80385 215.351C5.76709 215.17 5.74139 215.058 5.72676 215.017C5.71212 214.976 5.69027 214.954 5.66119 214.95C5.63211 214.946 5.60907 214.934 5.59206 214.912L4.23645 217.904C3.89292 218.619 3.55978 219.37 3.23702 220.157L2.94077 220.888C2.50957 221.918 2.21222 222.698 2.04874 223.229C1.86488 223.846 1.68589 224.222 1.51179 224.358C1.37033 224.469 1.12514 224.503 0.776193 224.46C0.262473 224.397 -0.159258 224.305 -0.489 224.186C-0.686607 224.113 -0.895876 223.974 -1.1168 223.77L-1.09007 223.552C-1.04015 223.145 -0.890987 222.45 -0.642573 221.467C-0.39297 220.474 -0.115569 219.455 0.189628 218.41C0.505707 217.357 0.752487 216.709 0.929967 216.465C0.917712 216.404 0.917526 216.325 0.929411 216.229C0.949614 216.064 1.009 215.82 1.10756 215.498C1.31419 214.775 1.56641 214.122 1.86422 213.539C2.01444 213.036 2.24915 212.406 2.56835 211.648C2.98255 210.597 3.2039 209.955 3.23243 209.722C3.31335 209.624 3.49531 209.223 3.77829 208.52C4.19386 207.538 4.68857 206.472 5.26242 205.323C5.84596 204.174 6.38938 203.474 6.89266 203.221C7.23678 203.784 7.41086 204.411 7.4149 205.1C7.43997 205.457 7.49352 205.823 7.57555 206.197C8.12429 208.783 8.54406 211.9 8.83487 215.546L8.88701 216.084C9.14084 215.859 9.38571 215.427 9.62161 214.787C9.91173 214.026 11.2081 211.838 13.5106 208.225C14.3276 206.938 14.9003 206.078 15.2288 205.646C15.5681 205.206 15.8589 205 16.1012 205.03C16.1982 205.042 16.297 205.079 16.3977 205.14C16.4232 205.173 16.4158 205.635 16.3755 206.525C16.256 209.265 16.2913 210.903 16.4815 211.438C16.4166 211.646 16.3657 211.901 16.3289 212.201C16.2552 212.802 16.2194 213.816 16.2216 215.243C16.2328 215.874 16.2279 216.395 16.2071 216.806L15.8697 222.446C15.9735 222.803 15.9321 223.743 15.7456 225.265C15.6742 225.846 15.6012 226.201 15.5264 226.33C15.397 226.422 15.2209 226.455 14.9979 226.427Z" fill="#FFB240"/>
<path d="M5.28667 240.104C7.66711 239.002 8.60052 237.713 8.08689 236.236C7.72402 235.371 7.07297 234.873 6.13376 234.742C5.8022 234.723 5.3465 234.762 4.76666 234.859C4.18681 234.956 3.76469 235.055 3.5003 235.157L4.23221 237.025C4.61317 238.019 4.96466 239.045 5.28667 240.104ZM8.28759 252.681L8.1098 252.749C7.65395 252.924 7.21922 253.018 6.80561 253.03C6.13047 251.815 5.50281 250.45 4.92262 248.936C4.49273 247.815 4.08677 246.605 3.70474 245.308C3.28563 243.942 2.88035 242.748 2.4889 241.727L1.57122 239.537L1.41394 239.127C0.963078 237.951 0.785054 237.282 0.879868 237.12C0.816198 237.008 0.74417 236.848 0.663783 236.638C0.607862 236.492 0.523296 236.258 0.410086 235.935C0.305992 235.609 0.184803 235.211 0.0465175 234.741C-0.0826509 234.267 -0.159393 233.931 -0.18371 233.731C0.0416279 233.446 0.518977 233.163 1.24834 232.883C2.27856 232.488 3.44082 232.177 4.73514 231.953C5.79317 231.766 6.58605 231.734 7.11378 231.855C7.87977 232.053 8.33669 232.181 8.48454 232.239C8.78374 232.365 9.25684 232.753 9.90387 233.405C10.2553 233.803 10.5604 234.34 10.819 235.015C10.8295 235.042 10.9018 235.244 11.036 235.622C11.1702 235.999 11.1904 236.42 11.0967 236.885C11.2082 237.449 11.1784 238.135 11.0071 238.944C10.8359 239.752 10.5685 240.378 10.2049 240.821C9.19914 241.908 8.01242 242.781 6.64472 243.442C6.7046 243.817 6.85778 244.449 7.10426 245.337C7.60908 247.173 8.05547 248.597 8.44342 249.609L8.62486 250.041C8.72272 250.297 8.8003 250.513 8.85759 250.689L8.93623 250.895C9.07254 251.25 9.26461 251.574 9.51245 251.866C9.22329 252.176 8.815 252.447 8.28759 252.681Z" fill="#3DFF7F"/>
<path d="M10.2868 262.773C11.0513 262.966 11.8927 262.943 12.8108 262.703C13.7381 262.466 14.4152 261.871 14.8424 260.917C14.9869 260.48 15.0336 260.025 14.9825 259.551C14.9404 259.082 14.7848 258.671 14.5157 258.32C14.3097 258.1 14.013 257.869 13.6257 257.629C13.2512 257.383 12.9462 257.212 12.7108 257.117L12.0009 258.916C11.4639 260.247 10.8925 261.533 10.2868 262.773ZM7.54995 272.063C8.54594 272.465 9.34433 272.561 9.94511 272.351C10.201 272.265 10.4334 272.159 10.6423 272.033L11.1108 271.811C11.1892 271.643 11.2786 271.473 11.3788 271.303C11.5154 271.095 11.644 270.842 11.7646 270.543C12.0076 269.914 12.0867 269.262 12.0017 268.585C11.9257 267.912 11.6437 267.345 11.1555 266.884C10.6655 266.454 10.2258 266.161 9.83644 266.004C9.62818 265.92 9.40809 265.852 9.17617 265.8L9.14877 265.868C9.02661 266.093 8.92535 266.304 8.84497 266.504C8.79382 266.63 8.74346 266.794 8.6939 266.996L6.87157 270.651L6.58326 271.562C6.90175 271.764 7.22398 271.931 7.54995 272.063ZM4.85194 273.896C4.34489 273.691 3.82258 273.432 3.28503 273.12C3.40973 272.655 3.70066 271.777 4.15783 270.487C4.71921 268.913 5.33968 267.283 6.01924 265.599C6.4942 264.422 6.93335 263.398 7.33667 262.529C7.54127 262.022 7.73316 261.52 7.91234 261.024C7.94522 260.942 7.97175 260.863 7.99192 260.787L8.07413 260.584C8.22218 260.19 8.44965 259.614 8.75655 258.853C9.24247 257.648 9.58345 257.012 9.77947 256.944C9.81791 256.822 9.88097 256.653 9.96866 256.436C10.0271 256.291 10.1266 256.057 10.2672 255.735C10.4205 255.407 10.6084 255.019 10.831 254.572C11.0662 254.12 11.2403 253.805 11.3533 253.63C11.7415 253.555 12.3159 253.671 13.0765 253.979C13.1127 253.993 13.3418 254.091 13.7637 254.272C14.1856 254.453 14.7765 254.802 15.5365 255.32C16.3091 255.832 16.8226 256.308 17.0769 256.748C17.4358 257.399 17.6458 257.805 17.7069 257.966C17.8275 258.268 17.8764 258.877 17.8537 259.795C17.825 260.31 17.6827 260.885 17.427 261.519C17.3977 261.591 17.2937 261.823 17.1148 262.214C16.945 262.609 16.6684 262.955 16.2849 263.253C16.0042 263.74 15.6185 264.2 15.1276 264.634C14.6458 265.071 14.16 265.349 13.6701 265.467C13.8183 265.622 13.942 265.772 14.0413 265.917L14.6218 266.436C14.6449 266.561 14.7097 266.74 14.8159 266.973C15.113 267.672 15.245 268.389 15.212 269.123C15.1805 269.332 15.0997 269.689 14.9694 270.195C14.828 270.78 14.666 271.299 14.4833 271.752C14.3335 272.123 14.1987 272.327 14.079 272.363C13.9567 272.64 13.6964 272.972 13.2981 273.358C12.8999 273.745 12.4747 274.068 12.0224 274.328C11.5792 274.591 11.2336 274.678 10.9854 274.588C10.7311 274.749 10.3727 274.841 9.91032 274.865C9.07254 274.906 8.20339 274.828 7.30286 274.633C6.33895 274.412 5.52198 274.166 4.85194 273.896Z" fill="#E440FF"/>
<path d="M8.98509 301.08C8.37425 301.314 7.95525 301.449 7.72808 301.484C7.58084 301.509 7.46278 301.46 7.37388 301.337C7.28499 301.215 7.18987 301.021 7.08851 300.757L6.81591 300.045C6.63736 299.852 6.18811 298.817 5.46814 296.938C5.27243 296.427 4.69864 294.849 3.74679 292.201C3.2192 290.688 2.29478 287.963 0.973523 284.024C0.751821 283.555 0.579809 283.161 0.457485 282.841C0.198857 282.167 0.151291 281.756 0.314789 281.61C0.424952 281.515 0.566645 281.434 0.739868 281.368L1.35207 281.164C1.40678 281.143 1.5025 281.107 1.63926 281.054C1.78164 280.989 1.90578 280.931 2.01169 280.88C2.12671 280.825 2.21614 280.786 2.27996 280.761C2.50788 280.674 2.63514 280.651 2.66173 280.693C2.75852 280.645 2.86375 280.579 2.97741 280.493C3.36807 280.312 3.76397 280.144 4.16512 279.99C4.68479 279.791 5.2132 279.614 5.75034 279.46C6.40601 279.261 7.44284 278.91 8.86083 278.407L8.86927 278.389L9.20591 278.244C10.6555 277.687 11.5254 277.406 11.8157 277.399C12.0717 278.503 12.2993 279.316 12.4985 279.835L12.6485 280.186C12.8303 280.66 13.1245 281.509 13.5311 282.734C14.0315 284.122 14.5228 285.444 15.0051 286.703C15.4105 287.761 15.8111 288.778 16.2068 289.756C16.6165 290.771 17.0292 291.82 17.4451 292.905C17.9484 294.219 18.4555 295.582 18.9664 296.997C18.5924 297.277 18.0818 297.541 17.4345 297.789C16.9604 297.971 16.5719 298.063 16.2691 298.064C15.8497 297.597 15.4544 296.907 15.0832 295.993C14.7085 295.07 14.404 294.303 14.1699 293.692C13.9322 293.072 13.7043 292.464 13.4863 291.868C13.2647 291.262 13.0701 290.741 12.9023 290.303L12.6769 289.715C12.4742 289.186 11.6402 286.792 10.1749 282.532L10.0197 282.168C9.97771 282.058 9.95082 281.974 9.93896 281.916C9.92711 281.858 9.9142 281.811 9.90022 281.774C9.86527 281.683 9.80502 281.649 9.71947 281.671L9.41018 281.805C9.34985 281.839 9.2741 281.873 9.18293 281.908C8.44719 282.254 7.71039 282.61 6.97252 282.977C5.45682 283.715 4.62604 284.113 4.48016 284.169C4.33429 284.225 4.24837 284.273 4.22238 284.315C4.1929 284.347 4.19564 284.409 4.23059 284.5L4.2862 284.604L4.3596 284.795C4.62324 285.374 5.13578 286.548 5.89723 288.316L6.18146 288.976C6.40863 289.569 6.63543 290.188 6.86184 290.833C7.06029 291.405 7.26612 291.97 7.47931 292.526C7.79735 293.356 8.12945 294.154 8.4756 294.921C8.67633 295.335 8.86233 295.766 9.03358 296.213C9.1559 296.532 9.27086 296.859 9.37844 297.194C9.48603 297.53 9.60098 297.857 9.72331 298.176C9.87359 298.568 10.0375 298.955 10.2152 299.337L10.3232 299.578C10.47 299.961 10.4287 300.248 10.1992 300.441C9.98241 300.639 9.57769 300.852 8.98509 301.08Z" fill="#4053FF"/>
<path d="M13.1014 117.578C12.7806 117.664 12.3992 117.73 11.9571 117.778C11.5174 117.835 11.2268 117.807 11.0852 117.693C10.9876 117.517 10.8517 117.104 10.6775 116.453C10.3772 115.33 10.0954 114.182 9.8321 113.009C9.20022 110.307 8.8989 108.765 8.92814 108.384C8.82041 108.17 8.71228 107.86 8.60375 107.454L8.29232 106.234L8.11718 105.522C8.07428 105.362 8.0131 105.171 7.93366 104.95C7.79936 104.561 7.67795 104.164 7.56942 103.758C7.45585 103.334 7.40903 103.008 7.42897 102.78C7.28032 102.526 7.15046 102.192 7.03941 101.777L6.98542 101.519C6.96018 101.424 6.93149 101.336 6.89934 101.254C6.27545 101.34 5.52959 101.499 4.66176 101.732C3.80337 101.962 2.99938 102.187 2.2498 102.408C1.80207 102.549 1.432 102.658 1.13958 102.736C0.84716 102.815 0.670128 102.852 0.608483 102.848C0.392347 102.38 0.195344 101.852 0.0174752 101.263C-0.149099 100.64 -0.22062 100.108 -0.197086 99.6671C0.712729 99.2514 1.97694 98.7813 3.59554 98.2566L15.3895 95.1267C15.5508 95.4272 15.7387 95.9785 15.9532 96.7803C16.0516 97.1483 16.1113 97.3901 16.1321 97.5058C16.1612 97.6901 16.1453 97.8763 16.0845 98.0645C16.0481 98.1552 16.011 98.2813 15.9734 98.4431C15.6118 98.4894 14.9358 98.6453 13.9453 98.9107C11.9078 99.4566 10.7328 99.8069 10.4203 99.9614L11.305 102.985L11.7079 104.151L13.337 110.523C13.4898 111.17 13.6297 111.901 13.7568 112.716C13.819 113.326 13.9346 113.947 14.1037 114.579L14.4046 115.591C14.4954 115.93 14.5709 116.269 14.6309 116.607C14.5262 117.009 14.0163 117.333 13.1014 117.578Z" fill="#E440FF"/>
<path d="M9.31118 88.9979C9.15117 90.3083 8.47792 91.3282 7.29142 92.0578C6.11534 92.7783 4.92205 93.1843 3.71157 93.2759C2.96167 93.3605 2.25934 93.3946 1.6046 93.3782C1.39934 93.3736 1.18955 93.3638 0.975232 93.3489C0.497882 93.3155 -0.0115243 93.2505 -0.552987 93.1539C-0.585354 92.4957 -0.548821 91.2012 -0.443386 89.2702C-0.40302 88.4116 -0.353593 87.5634 -0.295104 86.7256C-0.221653 85.6734 -0.115456 84.4327 0.0234862 83.0034C0.163109 81.5643 0.329668 80.6508 0.523163 80.263C0.50776 80.2032 0.51128 80.0125 0.533724 79.691C0.556167 79.3696 0.587222 78.9948 0.626889 78.5669C0.666555 78.1389 0.705541 77.7207 0.743847 77.3122C0.793035 76.7479 0.829301 76.3686 0.852645 76.1744C0.881209 75.7653 0.896861 75.3307 0.8996 74.8708C0.892818 74.5473 0.899969 74.2345 0.921052 73.9325C0.961178 73.3578 1.05216 72.8257 1.19401 72.3364L1.72007 72.3732C2.34559 72.3875 2.94086 72.4145 3.50589 72.454C3.84685 72.4778 4.17286 72.5055 4.48392 72.5371C4.85343 72.5727 5.24763 72.6051 5.66653 72.6344L6.63097 72.7019C6.94271 72.7237 7.26974 72.7368 7.61207 72.7411C7.9655 72.7267 8.30295 72.7307 8.62443 72.7532C9.16997 72.7913 9.67768 72.8807 10.1475 73.0212L10.052 74.6004C10.0452 74.6978 10.0439 74.7858 10.0482 74.8645C10.0505 74.9723 10.0482 75.0749 10.0414 75.1724C10.0217 75.4549 9.9629 75.6661 9.86502 75.8061C9.75468 75.9844 9.44622 76.0558 8.93965 76.0204L8.86658 76.0153C8.35027 75.9792 7.83044 75.9233 7.3071 75.8475C6.89024 75.789 6.47757 75.7406 6.0691 75.7022L5.57226 75.6675C5.06569 75.6321 4.55492 75.5865 4.03996 75.531C3.84415 77.0738 3.6386 78.6159 3.4233 80.1574C3.35463 80.7204 3.28313 81.2538 3.20879 81.7577C3.83929 81.8409 4.51408 81.9909 5.23316 82.2076C5.95223 82.4243 6.55418 82.7062 7.03899 83.0534C7.80269 83.332 8.40429 83.8292 8.84377 84.5452C9.09908 84.9547 9.28869 85.3938 9.41259 85.8625C9.4477 86.0608 9.47816 86.3958 9.50396 86.8675C9.52977 87.3392 9.53224 87.7945 9.51138 88.2336L9.50424 88.3359C9.47771 88.7158 9.41336 88.9365 9.31118 88.9979ZM2.27288 89.6951L2.26502 90.649C2.57336 90.7196 2.87852 90.7654 3.18052 90.7865C3.67735 90.8212 4.17408 90.7874 4.67069 90.6851C5.0393 90.5934 5.33202 90.467 5.54884 90.306C5.76566 90.1449 5.96401 89.9679 6.14391 89.7749C6.26059 89.646 6.38701 89.5178 6.52318 89.3903C6.55626 89.1968 6.59388 89.0085 6.63603 88.8255C6.70242 88.5756 6.75137 88.2951 6.78287 87.9841C6.84206 86.7156 6.28432 85.8004 5.10966 85.2386C4.60694 85.0077 4.08769 84.8735 3.55189 84.836C3.28886 84.8176 3.02413 84.8236 2.7577 84.8539L2.75362 84.9123C2.70739 85.1538 2.67917 85.3476 2.66897 85.4938L2.66183 85.5961C2.65231 85.7324 2.65468 85.9088 2.66894 86.1252L2.27288 89.6951Z" fill="#FF498B"/>
<path d="M9.80182 60.2248C8.10809 60.6158 6.32186 60.6273 4.44312 60.2592C3.83638 60.1487 3.14551 59.9124 2.37049 59.5501C0.677013 58.7684 -0.467098 57.6745 -1.06184 56.2683C-1.14817 56.0678 -1.25023 55.8859 -1.36803 55.7226C-1.81292 55.1839 -2.25513 54.1134 -2.69467 52.511C-2.75025 52.3134 -2.80108 52.1146 -2.84715 51.9148C-3.3144 49.8879 -3.24776 48.0033 -2.64722 46.2611C-2.04888 44.5093 -0.697791 42.9145 1.40603 41.4767C2.24127 40.8829 3.02523 40.5015 3.75791 40.3323L4.24978 40.2488C4.697 40.1456 5.08714 39.9904 5.4202 39.7832C5.65663 39.6785 5.89379 39.5987 6.13167 39.5438C6.36956 39.4888 6.7154 39.424 7.1692 39.3493C7.62081 39.2651 8.10535 39.1933 8.62283 39.134C9.13811 39.0652 9.51395 39.0435 9.75035 39.0691C9.92448 39.3897 10.0818 39.7894 10.2222 40.2681C10.2639 40.4489 10.3359 40.7831 10.4382 41.2706C10.5384 41.7486 10.4937 42.1849 10.304 42.5795C10.2491 42.6022 10.1789 42.6234 10.0932 42.6432C9.88388 42.6915 9.56586 42.7248 9.13915 42.7432C8.13423 42.7747 7.22261 42.885 6.40429 43.0739C5.77628 43.2189 5.14898 43.4539 4.52239 43.779L4.47188 43.8207C3.85994 44.1223 3.2897 44.4745 2.76117 44.8771C2.08624 45.3837 1.66817 46.0916 1.50695 47.0008C1.43146 47.4993 1.34649 47.8046 1.25205 47.9166L1.31457 48.1878C1.40232 48.5684 1.48017 49.0366 1.54812 49.5921C1.60365 50.0504 1.66504 50.4471 1.73231 50.7824C2.00364 51.742 2.38954 52.5901 2.89002 53.3264C3.07146 53.6353 3.23535 53.9332 3.38167 54.2202C3.69855 54.3775 3.97628 54.5389 4.21485 54.7043C4.46293 54.8676 4.71248 55.0154 4.9635 55.1479C5.21232 55.2708 5.52227 55.3546 5.89334 55.3993C6.4913 55.4717 7.49843 55.3845 8.91473 55.1377C9.13578 55.0967 9.33413 55.0659 9.5098 55.0454C10.1605 54.9553 10.7032 54.8751 11.138 54.8048C11.6965 54.706 12.1107 54.6554 12.3808 54.6532C12.6487 54.6415 12.8371 54.6982 12.9462 54.8233C13.053 54.939 13.1521 55.1516 13.2436 55.4613C13.3635 55.8946 13.508 56.3474 13.6769 56.8195C13.821 57.2272 13.9428 57.6251 14.0423 58.013C14.0576 58.0796 14.0719 58.1415 14.085 58.1986C14.1245 58.3699 14.134 58.498 14.1135 58.5829C13.9817 58.7937 13.7738 58.957 13.4898 59.0727C13.2036 59.1788 12.9083 59.2671 12.6038 59.3374C12.3088 59.4055 12.0457 59.4812 11.8144 59.5647C11.1578 59.8466 10.4869 60.0666 9.80182 60.2248Z" fill="#4053FF"/>
<path d="M6.54147 29.8513C6.02508 29.9599 5.59632 30.0567 5.2552 30.1418L4.81459 30.2516C4.53979 30.3201 4.32068 30.3697 4.15723 30.4004C4.05792 30.244 3.99764 30.1232 3.97641 30.0379C3.95518 29.9526 3.94576 29.8946 3.94816 29.8638C3.96719 29.7785 3.95429 29.6459 3.90946 29.4658C3.86228 29.2763 3.8056 29.1092 3.73943 28.9647C3.68273 28.8178 3.63313 28.6792 3.59063 28.5489C3.48918 28.1414 3.4327 27.7731 3.42118 27.4438C3.40022 27.0766 3.34609 26.7177 3.2588 26.3671C2.71116 24.4907 2.26749 22.8702 1.92777 21.5056C1.55738 20.0179 1.26016 18.7836 1.03612 17.8028C0.491349 15.4124 0.232094 14.1082 0.258356 13.8903C-0.0181327 13.2648 -0.235409 12.6346 -0.393473 11.9997C-0.487839 11.6206 -0.560896 11.2463 -0.612642 10.8768C-0.65031 10.6446 -0.693897 10.4089 -0.7434 10.1696C-0.478085 10.1035 -0.226963 10.0207 0.0099641 9.9214C0.254008 9.81023 0.625952 9.6873 1.1258 9.55261C1.7204 9.3943 2.83259 9.11196 4.46239 8.70561C6.84783 8.14105 8.34603 7.89331 8.95698 7.9624C9.03023 8.13537 9.09399 8.33083 9.14825 8.54879C9.19308 8.72884 9.23196 8.92546 9.26491 9.13867C9.2955 9.3424 9.33557 9.54377 9.38511 9.74277C9.4934 10.4203 9.20757 10.8891 8.52761 11.1492C8.18881 11.284 7.83464 11.3975 7.46509 11.4896C7.08607 11.5841 6.69285 11.662 6.28544 11.7234C5.87568 11.7752 5.45759 11.8543 5.03119 11.9606C4.47681 12.1592 3.9201 12.3282 3.36104 12.4676L4.33732 16.8136C4.37495 17.086 4.43505 17.3881 4.51763 17.7198C4.62379 18.1462 4.76779 18.6236 4.94964 19.1519C5.14565 19.7371 5.30263 20.2666 5.42059 20.7405C5.46777 20.93 5.80022 22.4675 6.41793 25.353L6.96655 27.4355C7.07515 27.7908 7.1613 28.0964 7.225 28.3523C7.28869 28.6082 7.33582 28.8581 7.36637 29.1021C7.4064 29.3437 7.35413 29.5178 7.20956 29.6243C7.09581 29.6929 6.87312 29.7686 6.54147 29.8513Z" fill="#FFB240"/>
<path d="M4.20606 418.222L7.37326 419.328C7.48338 419.368 7.54512 419.37 7.55846 419.333L7.56095 419.24C7.70588 417.755 7.87173 416.641 8.05849 415.899C8.29025 414.86 8.32143 414.16 8.15203 413.797L7.56778 414.504C6.94056 415.201 6.50017 415.726 6.24663 416.081L5.58478 416.744C4.87748 417.432 4.41791 417.925 4.20606 418.222ZM-1.73657 425.568L-1.81916 425.538C-1.99351 425.475 -2.44359 425.269 -3.1694 424.922C-3.95944 424.551 -4.39034 424.322 -4.46209 424.233C-4.46878 424.137 -4.45211 424.034 -4.41208 423.924C-4.282 423.566 -3.79451 422.896 -2.9496 421.915C-2.6435 421.559 -2.41664 421.278 -2.26901 421.072C-2.10471 420.82 -1.86701 420.48 -1.55592 420.053C-0.757742 418.972 -0.158045 418.322 0.243175 418.105C0.322397 417.915 0.498373 417.631 0.771102 417.252C1.30655 416.522 1.82408 415.885 2.32369 415.339C3.15526 414.394 4.38885 413.087 6.02448 411.417C7.94286 409.455 9.05095 408.45 9.34876 408.402C9.75744 407.907 10.1657 407.598 10.5736 407.476C10.8223 407.879 10.9138 408.728 10.848 410.024C10.8223 410.524 10.7723 410.89 10.698 411.123C10.8015 411.41 10.8408 412.016 10.8159 412.943C10.7877 413.535 10.8044 414.004 10.8662 414.348C10.8479 414.685 10.8325 415.199 10.8201 415.89L10.6569 421.1C10.4883 426.224 10.3456 428.947 10.2289 429.268L10.2239 429.282C10.0079 429.391 9.81683 429.43 9.65082 429.401C9.55238 429.386 9.44811 429.358 9.33798 429.318C9.27375 429.295 9.19741 429.262 9.10898 429.219C9.03306 429.171 8.94004 429.127 8.82992 429.087L8.29685 428.924C8.14335 428.889 8.00236 428.848 7.87389 428.801C7.61694 428.707 7.38877 428.578 7.18937 428.412C7.03914 427.91 7.05605 426.534 7.24008 424.283C7.3292 423.266 7.36579 422.479 7.34986 421.923C7.15381 421.862 6.95443 421.81 6.75172 421.767C6.55818 421.728 6.34211 421.665 6.10352 421.578L5.9521 421.523C5.78108 421.451 5.55333 421.362 5.26885 421.259C4.47966 420.972 3.49067 420.705 2.3019 420.46C1.64881 421.084 0.66171 422.3 -0.659406 424.105L-1.73657 425.568Z" fill="#3DFF7F"/>
<path d="M6.91558 452.175C9.25461 451.721 10.3873 450.381 10.3138 448.157C10.2907 447.833 10.2746 447.469 10.2654 447.062C10.2299 445.905 10.1665 445.092 10.0753 444.622C9.53013 441.813 8.11212 439.428 5.82128 437.466C5.64129 437.461 5.48247 437.437 5.34482 437.394C5.13263 437.326 4.91629 437.313 4.69581 437.356C4.52326 437.39 4.30249 437.482 4.03351 437.634C3.24761 438.095 2.74864 438.446 2.53661 438.686C2.01128 439.465 1.68807 440.567 1.56698 441.993C1.44589 443.42 1.47373 444.588 1.6505 445.499L1.97747 447.107C2.14494 447.969 2.27527 448.795 2.36847 449.582C2.46777 449.633 2.71596 449.938 3.11305 450.497C3.57639 451.193 3.94435 451.654 4.21693 451.879C4.67853 452.207 5.40846 452.329 6.40672 452.244C6.58299 452.23 6.75261 452.207 6.91558 452.175ZM6.26684 456.137C4.33043 456.513 2.72047 456.06 1.43695 454.777C1.0124 454.333 0.514865 453.589 -0.0556658 452.546C-0.626197 451.502 -1.10287 450.456 -1.48568 449.406C-1.6421 448.959 -1.7538 448.563 -1.82078 448.218C-1.9101 447.758 -1.9157 447.396 -1.8376 447.132C-1.89985 446.965 -1.9533 446.766 -1.99796 446.536C-2.09658 446.028 -2.15637 445.259 -2.17733 444.228C-2.19829 443.198 -2.12404 442.094 -1.95457 440.917C-1.77552 439.738 -1.50007 438.953 -1.12823 438.563C-1.03614 437.858 -0.496427 437.077 0.490906 436.218C1.47638 435.35 2.47174 434.764 3.477 434.459L4.25669 434.248C4.5387 434.163 4.78515 434.1 4.99605 434.059C5.19922 434.03 5.429 434.035 5.6854 434.075C6.30151 434.174 6.9554 434.365 7.64707 434.648C8.58899 435.042 9.14523 435.397 9.31581 435.712C9.74363 435.917 10.1502 436.321 10.5356 436.922C10.9287 437.512 11.2682 438.083 11.5543 438.634C11.8385 439.176 12.0339 439.491 12.1407 439.58C12.3219 440.052 12.5165 440.517 12.7245 440.974C13.1769 441.92 13.5102 442.92 13.7244 443.973C13.735 444.13 13.7389 444.303 13.7359 444.493C13.731 444.673 13.7302 444.822 13.7333 444.941C13.7705 445.133 13.8119 445.269 13.8574 445.349C13.9106 445.419 13.9645 445.543 14.019 445.721C14.082 446.097 14.0817 446.48 14.0182 446.87C13.9921 447.094 13.9746 447.311 13.9657 447.522C13.9654 448.597 13.7464 449.723 13.3088 450.903C12.8808 452.08 12.2388 453.001 11.3828 453.665C10.7411 454.357 9.80605 454.946 8.5776 455.434C7.75606 455.763 6.98581 455.997 6.26684 456.137Z" fill="#9F54FF"/>
<path d="M7.66681 482.233L7.19053 482.087C6.80763 481.97 6.07556 481.726 4.99431 481.354L5.00286 481.326L3.65378 480.929L2.68293 480.648C1.99185 480.436 1.37937 480.218 0.845478 479.994C0.936428 479.562 1.16812 478.653 1.54056 477.265C2.24267 474.631 2.89881 472.314 3.50897 470.316C4.29877 467.728 4.82722 466.282 5.09433 465.975C5.11941 465.625 5.246 465.077 5.4741 464.33C5.87327 463.022 6.32809 461.716 6.83855 460.412C7.14979 460.262 8.1319 460.44 9.78489 460.945C10.476 461.156 11.2095 461.396 11.9854 461.664C12.3159 461.785 12.6679 461.903 13.0415 462.017C13.359 462.114 13.698 462.208 14.0586 462.298C14.4314 462.381 14.7905 462.475 15.1361 462.581C16.1073 462.878 16.9571 463.255 17.6853 463.713C17.6683 464.136 17.5771 464.619 17.4117 465.161C17.3376 465.404 17.2505 465.622 17.1504 465.816C16.9824 466.133 16.7816 466.255 16.5481 466.184L13.6667 465.287L10.8035 464.381C9.89766 464.104 9.28778 463.928 8.9739 463.853L8.63485 464.913L8.3654 465.796L8.08195 466.674C7.8108 467.429 7.56687 468.161 7.35017 468.871C7.25894 469.169 7.19414 469.415 7.15579 469.608C7.27022 469.735 8.12124 470.041 9.70885 470.526C10.6801 470.823 11.6176 471.13 12.5214 471.447C13.4252 471.764 14.0289 472.061 14.3325 472.338C14.2966 472.991 14.2202 473.509 14.1033 473.892C13.975 474.312 13.7946 474.568 13.5622 474.66C13.1799 474.809 12.3444 474.686 11.0556 474.292L10.3734 474.069L8.85627 473.62L6.20249 472.931L4.78598 477.17C5.60602 477.594 7.29548 478.198 9.85434 478.98C11.6848 479.54 12.6497 479.891 12.7491 480.033C12.793 480.425 12.739 480.852 12.5871 481.317C12.4417 481.793 12.2685 482.21 12.0675 482.567C11.8759 482.927 11.6412 483.111 11.3634 483.118C11.138 483.12 10.8945 483.081 10.6331 483.002L10.0027 482.809L7.66681 482.233Z" fill="#FF629A"/>
<path d="M18.7657 507.846C18.551 507.912 18.3272 507.965 18.0945 508.006C17.902 508.044 17.7358 508.085 17.5957 508.128C17.1072 508.267 16.7484 508.346 16.5194 508.365C16.2997 508.381 16.1376 508.318 16.0331 508.176C15.935 508.023 15.8258 507.765 15.7052 507.403L15.6796 507.319C15.5256 506.815 15.2124 506.073 14.7401 505.095C14.229 504.056 13.7057 502.894 13.1701 501.607C12.6145 500.256 12.1801 499.301 11.8669 498.743C11.7059 499.487 11.7539 501.851 12.0108 505.837C12.1578 508.192 12.2095 509.499 12.1659 509.757L11.6495 510.022C11.2698 509.648 10.885 509.173 10.495 508.598L9.99789 507.923C9.71005 507.582 9.45203 507.222 9.22385 506.842C9.00216 506.451 8.75673 506.081 8.48756 505.735C8.10091 505.271 7.49207 504.313 6.66105 502.862C6.50159 502.574 6.35068 502.314 6.20833 502.081C6.07531 501.846 5.96162 501.641 5.86724 501.466C5.75988 501.315 5.69117 501.223 5.66108 501.192C5.631 501.16 5.60195 501.149 5.57393 501.157C5.54592 501.166 5.51972 501.163 5.49534 501.151L5.472 504.436C5.44873 505.229 5.44944 506.051 5.47414 506.901L5.50042 507.69C5.52454 508.806 5.56974 509.639 5.63601 510.191C5.71861 510.829 5.70801 511.246 5.6042 511.441C5.51986 511.6 5.30959 511.731 4.97339 511.833C4.47843 511.985 4.05611 512.073 3.70644 512.098C3.49607 512.111 3.24848 512.07 2.96369 511.973L2.89954 511.763C2.77979 511.371 2.63378 510.675 2.46152 509.676C2.28641 508.667 2.12609 507.624 1.98056 506.545C1.84152 505.454 1.80355 504.761 1.86665 504.466C1.83087 504.415 1.79872 504.343 1.77021 504.25C1.72174 504.091 1.67705 503.845 1.63615 503.51C1.53152 502.766 1.4968 502.067 1.53197 501.413C1.46491 500.892 1.42331 500.22 1.40716 499.398C1.35866 498.269 1.30019 497.593 1.23176 497.369C1.26577 497.246 1.26925 496.806 1.24219 496.048C1.22299 494.982 1.24207 493.807 1.29944 492.523C1.36614 491.236 1.57801 490.375 1.93504 489.939C2.47839 490.314 2.89188 490.816 3.17551 491.444C3.34352 491.76 3.54098 492.072 3.76788 492.381C5.3196 494.521 6.96886 497.197 8.71565 500.411L8.98168 500.881C9.12234 500.573 9.17045 500.078 9.12599 499.397C9.08183 498.584 9.37774 496.058 10.0137 491.819C10.2374 490.311 10.4116 489.293 10.5362 488.764C10.6674 488.224 10.8496 487.918 11.0831 487.847C11.1765 487.818 11.2817 487.811 11.3987 487.827C11.4353 487.846 11.616 488.271 11.9408 489.101C12.9446 491.653 13.642 493.135 14.0331 493.547C14.0584 493.764 14.1153 494.017 14.2037 494.306C14.3805 494.885 14.7596 495.826 15.3411 497.129C15.6077 497.701 15.8148 498.179 15.9626 498.563L17.9453 503.854C18.1852 504.138 18.5289 505.014 18.9766 506.48C19.1476 507.04 19.2251 507.395 19.209 507.542C19.1283 507.679 18.9805 507.781 18.7657 507.846Z" fill="#FFB240"/>
<path d="M11.9398 406.055C11.6223 406.152 11.2434 406.232 10.8032 406.295C10.3658 406.368 10.0744 406.35 9.92892 406.241C9.8252 406.069 9.67498 405.66 9.47825 405.016C9.13896 403.904 8.81731 402.767 8.51332 401.604C7.78763 398.925 7.43275 397.395 7.44866 397.012C7.33354 396.802 7.21468 396.497 7.09208 396.095L6.73829 394.886L6.53846 394.181C6.48999 394.022 6.4222 393.834 6.3351 393.615C6.18733 393.231 6.05215 392.839 5.92955 392.437C5.80124 392.017 5.74309 391.693 5.75507 391.464C5.59768 391.216 5.45625 390.887 5.3308 390.476L5.26783 390.219C5.23932 390.126 5.20756 390.039 5.17256 389.957C4.55206 390.065 3.81222 390.251 2.95304 390.513C2.1032 390.773 1.30757 391.027 0.566164 391.274C0.123599 391.429 -0.242437 391.552 -0.531944 391.64C-0.82145 391.729 -0.997071 391.772 -1.05881 391.771C-1.29112 391.311 -1.50642 390.789 -1.70473 390.206C-1.8929 389.59 -1.98292 389.061 -1.97477 388.619C-1.08001 388.172 0.167022 387.658 1.76633 387.077L13.4439 383.538C13.6155 383.833 13.8225 384.377 14.0649 385.171C14.1761 385.535 14.2441 385.775 14.269 385.89C14.3045 386.073 14.2951 386.259 14.2408 386.45C14.2076 386.541 14.175 386.669 14.1431 386.832C13.7833 386.891 13.1131 387.07 12.1325 387.37C10.1153 387.987 8.95324 388.378 8.64633 388.543L9.63587 391.534L10.0792 392.685L11.9294 398.997C12.1046 399.638 12.2699 400.363 12.4254 401.174C12.5087 401.781 12.646 402.398 12.837 403.024L13.1729 404.024C13.2756 404.36 13.3628 404.696 13.4345 405.031C13.3439 405.437 12.8457 405.778 11.9398 406.055Z" fill="#E440FF"/>
<path d="M9.65219 373.09C9.28945 374.36 8.46515 375.262 7.1793 375.797C5.90516 376.324 4.66316 376.539 3.45329 376.44C2.69941 376.406 2.00042 376.33 1.35631 376.211C1.1543 376.175 0.94862 376.132 0.739283 376.084C0.273032 375.976 -0.219943 375.832 -0.73964 375.652C-0.66879 374.997 -0.430472 373.724 -0.0246834 371.833C0.149323 370.992 0.330652 370.162 0.519302 369.343C0.756212 368.315 1.05493 367.107 1.41545 365.716C1.77816 364.317 2.08537 363.441 2.33707 363.088C2.3312 363.026 2.36446 362.839 2.43685 362.525C2.50924 362.211 2.59845 361.845 2.70448 361.429C2.81052 361.012 2.91436 360.605 3.01601 360.208C3.15275 359.658 3.24782 359.289 3.3012 359.101C3.39334 358.701 3.47668 358.275 3.55123 357.821C3.59508 357.5 3.651 357.192 3.719 356.897C3.84842 356.336 4.02141 355.825 4.23795 355.363L4.75178 355.482C5.36734 355.594 5.95106 355.714 6.50295 355.841C6.83599 355.918 7.15366 355.996 7.45595 356.076C7.81534 356.169 8.19962 356.263 8.60878 356.357L9.55079 356.575C9.85528 356.645 10.1762 356.709 10.5137 356.767C10.865 356.808 11.1977 356.865 11.5117 356.937C12.0445 357.06 12.532 357.228 12.9741 357.44L12.633 358.985C12.6111 359.08 12.5961 359.167 12.5881 359.246C12.5735 359.352 12.5552 359.453 12.5333 359.549C12.4696 359.825 12.3786 360.024 12.26 360.147C12.1232 360.306 11.8074 360.328 11.3126 360.214L11.2412 360.197C10.7369 360.081 10.2322 359.944 9.72717 359.788C9.32459 359.665 8.92458 359.552 8.52713 359.451L8.04184 359.339C7.54705 359.224 7.04969 359.099 6.54976 358.964C6.11534 360.457 5.6714 361.948 5.21795 363.437C5.06217 363.983 4.90822 364.498 4.75609 364.984C5.36582 365.165 6.00886 365.419 6.68521 365.745C7.36157 366.072 7.91205 366.445 8.33666 366.863C9.04743 367.258 9.56392 367.843 9.88614 368.619C10.0743 369.064 10.193 369.527 10.2422 370.009C10.2459 370.211 10.2236 370.546 10.1754 371.016C10.1272 371.486 10.0585 371.936 9.96931 372.367L9.94628 372.467C9.86073 372.838 9.7627 373.046 9.65219 373.09ZM2.59172 372.678L2.43494 373.619C2.72846 373.737 3.02271 373.83 3.31768 373.898C3.80296 374.01 4.29884 374.054 4.80532 374.031C5.18371 373.998 5.49256 373.919 5.73187 373.794C5.97117 373.669 6.19474 373.525 6.40257 373.362C6.53795 373.253 6.68284 373.146 6.83725 373.042C6.90015 372.856 6.96672 372.676 7.03694 372.502C7.14155 372.265 7.23371 371.996 7.31342 371.693C7.57005 370.45 7.16215 369.459 6.08974 368.72C5.6293 368.413 5.1374 368.199 4.61406 368.079C4.35715 368.019 4.09475 367.984 3.82687 367.972L3.81371 368.029C3.73032 368.26 3.67217 368.447 3.63927 368.59L3.61624 368.69C3.58553 368.823 3.56032 368.998 3.5406 369.214L2.59172 372.678Z" fill="#FF498B"/>
<path d="M14.8018 348.225C13.1081 348.616 11.3219 348.627 9.44312 348.259C8.83638 348.149 8.14551 347.912 7.37049 347.55C5.67701 346.768 4.5329 345.674 3.93816 344.268C3.85183 344.068 3.74977 343.886 3.63197 343.723C3.18708 343.184 2.74487 342.113 2.30533 340.511C2.24975 340.313 2.19892 340.115 2.15285 339.915C1.6856 337.888 1.75224 336.003 2.35278 334.261C2.95112 332.509 4.30221 330.914 6.40603 329.477C7.24127 328.883 8.02523 328.501 8.75791 328.332L9.24978 328.249C9.697 328.146 10.0871 327.99 10.4202 327.783C10.6566 327.678 10.8938 327.599 11.1317 327.544C11.3696 327.489 11.7154 327.424 12.1692 327.349C12.6208 327.265 13.1054 327.193 13.6228 327.134C14.1381 327.065 14.5139 327.044 14.7504 327.069C14.9245 327.39 15.0818 327.789 15.2222 328.268C15.2639 328.449 15.3359 328.783 15.4382 329.271C15.5384 329.749 15.4937 330.185 15.304 330.579C15.2491 330.602 15.1789 330.623 15.0932 330.643C14.8839 330.692 14.5659 330.725 14.1392 330.743C13.1342 330.775 12.2226 330.885 11.4043 331.074C10.7763 331.219 10.149 331.454 9.52239 331.779L9.47188 331.821C8.85994 332.122 8.2897 332.474 7.76117 332.877C7.08624 333.384 6.66817 334.092 6.50695 335.001C6.43146 335.499 6.34649 335.805 6.25205 335.917L6.31457 336.188C6.40232 336.568 6.48017 337.037 6.54812 337.592C6.60365 338.05 6.66504 338.447 6.73231 338.782C7.00364 339.742 7.38954 340.59 7.89002 341.326C8.07146 341.635 8.23535 341.933 8.38167 342.22C8.69855 342.378 8.97628 342.539 9.21485 342.704C9.46293 342.868 9.71248 343.015 9.9635 343.148C10.2123 343.271 10.5223 343.355 10.8933 343.399C11.4913 343.472 12.4984 343.384 13.9147 343.138C14.1358 343.097 14.3341 343.066 14.5098 343.045C15.1605 342.955 15.7032 342.875 16.138 342.805C16.6965 342.706 17.1107 342.655 17.3808 342.653C17.6487 342.641 17.8371 342.698 17.9462 342.823C18.053 342.939 18.1521 343.152 18.2436 343.461C18.3635 343.895 18.508 344.347 18.6769 344.82C18.821 345.227 18.9428 345.625 19.0423 346.013C19.0576 346.08 19.0719 346.141 19.085 346.199C19.1245 346.37 19.134 346.498 19.1135 346.583C18.9817 346.794 18.7738 346.957 18.4898 347.073C18.2036 347.179 17.9083 347.267 17.6038 347.337C17.3088 347.405 17.0457 347.481 16.8144 347.565C16.1578 347.847 15.4869 348.067 14.8018 348.225Z" fill="#4053FF"/>
<path d="M0.563883 326.927C0.0623434 326.763 -0.357398 326.632 -0.695342 326.536L-1.13185 326.41C-1.40408 326.332 -1.61865 326.266 -1.77555 326.211C-1.78348 326.025 -1.77536 325.891 -1.75116 325.806C-1.72697 325.722 -1.70615 325.667 -1.6887 325.641C-1.62964 325.577 -1.57458 325.455 -1.52351 325.277C-1.46975 325.089 -1.43544 324.916 -1.4206 324.758C-1.39636 324.602 -1.37012 324.458 -1.34188 324.323C-1.22629 323.92 -1.09129 323.572 -0.93687 323.281C-0.7717 322.953 -0.639386 322.615 -0.539928 322.268C-0.0774141 320.368 0.347383 318.743 0.734464 317.391C1.15649 315.917 1.51533 314.699 1.81097 313.737C2.53261 311.394 2.9592 310.135 3.09075 309.96C3.16358 309.279 3.29005 308.625 3.47015 307.996C3.57767 307.62 3.70128 307.26 3.84097 306.914C3.92426 306.694 4.0042 306.468 4.08079 306.236C4.34363 306.311 4.60247 306.365 4.85729 306.397C5.12419 306.423 5.50774 306.503 6.00796 306.636C6.60205 306.796 7.7064 307.108 9.32102 307.571C11.6692 308.274 13.0906 308.809 13.5853 309.174C13.5624 309.361 13.52 309.562 13.4582 309.778C13.4071 309.956 13.3427 310.146 13.2647 310.347C13.1895 310.539 13.1237 310.733 13.0672 310.931C12.8227 311.572 12.3411 311.835 11.6222 311.72C11.2614 311.667 10.898 311.589 10.5319 311.484C10.1564 311.376 9.77691 311.247 9.39339 311.096C9.01256 310.936 8.61094 310.796 8.18851 310.675C7.60914 310.569 7.04253 310.437 6.48868 310.279L5.16435 314.531C5.06093 314.786 4.96217 315.078 4.86809 315.407C4.74713 315.829 4.6335 316.315 4.52722 316.863C4.40481 317.468 4.2764 318.005 4.142 318.475C4.08824 318.662 3.60852 320.16 2.70286 322.969L2.1383 325.047C2.05493 325.409 1.97695 325.717 1.90438 325.971C1.8318 326.224 1.74783 326.464 1.65246 326.691C1.56649 326.92 1.4343 327.045 1.2559 327.065C1.12311 327.067 0.892439 327.021 0.563883 326.927Z" fill="#FFB240"/>
<path d="M-2.69546 612.202L0.533369 611.291C0.646563 611.261 0.698112 611.227 0.688017 611.189L0.637004 611.112C-0.0949766 609.812 -0.597129 608.804 -0.869453 608.088C-1.27409 607.105 -1.64978 606.513 -1.99653 606.313L-2.0703 607.227C-2.18526 608.158 -2.24507 608.841 -2.24974 609.277L-2.4122 610.2C-2.59757 611.17 -2.692 611.837 -2.69546 612.202ZM-3.35749 621.63L-3.44238 621.653C-3.62161 621.701 -4.10806 621.791 -4.90175 621.923C-5.76147 622.072 -6.24606 622.131 -6.35553 622.1C-6.41598 622.025 -6.46134 621.931 -6.49163 621.818C-6.59006 621.45 -6.57408 620.622 -6.4437 619.333C-6.39691 618.866 -6.37205 618.505 -6.36912 618.252C-6.3788 617.951 -6.37852 617.536 -6.36827 617.008C-6.33354 615.664 -6.21413 614.788 -6.01004 614.379C-6.05361 614.179 -6.07213 613.845 -6.0656 613.378C-6.04497 612.473 -5.98621 611.653 -5.88933 610.919C-5.74885 609.669 -5.48678 607.89 -5.10313 605.583C-4.65502 602.875 -4.32256 601.416 -4.10573 601.206C-4.05468 600.565 -3.8969 600.078 -3.63237 599.745C-3.1982 599.932 -2.63691 600.575 -1.9485 601.674C-1.68334 602.099 -1.51449 602.428 -1.44196 602.661C-1.19273 602.837 -0.813052 603.311 -0.302918 604.084C0.0132571 604.586 0.295361 604.96 0.543392 605.207C0.721008 605.493 1.00284 605.923 1.3889 606.497L4.23907 610.859C7.03603 615.155 8.47868 617.468 8.56702 617.798L8.5708 617.812C8.45587 618.025 8.32201 618.167 8.16923 618.238C8.07995 618.282 7.97871 618.32 7.86551 618.35C7.79948 618.368 7.71804 618.384 7.62119 618.4C7.53125 618.404 7.42968 618.421 7.31648 618.452L6.78638 618.624C6.6405 618.683 6.50153 618.731 6.36947 618.766C6.10535 618.837 5.84402 618.861 5.58549 618.84C5.17511 618.515 4.40081 617.378 3.26258 615.428C2.75299 614.543 2.33226 613.878 2.0004 613.431C1.80484 613.493 1.6118 613.565 1.42128 613.647C1.24019 613.726 1.02702 613.798 0.781766 613.864L0.626124 613.905C0.444375 613.944 0.207292 614.002 -0.0851273 614.081C-0.896354 614.298 -1.85937 614.647 -2.97419 615.128C-3.15146 616.014 -3.26432 617.576 -3.31277 619.813L-3.35749 621.63Z" fill="#3DFF7F"/>
<path d="M-2.25419 647.589C0.0363145 648.246 1.65294 647.567 2.59569 645.551C2.72194 645.252 2.87303 644.919 3.04895 644.553C3.54181 643.506 3.85409 642.752 3.98581 642.292C4.7734 639.542 4.59126 636.772 3.43939 633.983C3.28117 633.897 3.15045 633.804 3.04724 633.703C2.88906 633.546 2.70201 633.436 2.48611 633.374C2.31713 633.326 2.0784 633.308 1.7699 633.321C0.860485 633.376 0.256863 633.461 -0.0409673 633.579C-0.862091 634.035 -1.6499 634.87 -2.40441 636.086C-3.15891 637.303 -3.66384 638.357 -3.91921 639.248L-4.35671 640.83C-4.59863 641.675 -4.85662 642.469 -5.13068 643.214C-5.06501 643.304 -4.98207 643.688 -4.88187 644.367C-4.78444 645.197 -4.66541 645.775 -4.52476 646.1C-4.26217 646.602 -3.6669 647.042 -2.73896 647.42C-2.57537 647.487 -2.41378 647.543 -2.25419 647.589ZM-4.62812 650.825C-6.52436 650.281 -7.75364 649.146 -8.31597 647.42C-8.49267 646.831 -8.59878 645.943 -8.6343 644.754C-8.66982 643.565 -8.6202 642.416 -8.48542 641.307C-8.42211 640.837 -8.34207 640.434 -8.2453 640.096C-8.11627 639.645 -7.95714 639.32 -7.76791 639.12C-7.74768 638.943 -7.70532 638.742 -7.6408 638.517C-7.49834 638.019 -7.20284 637.306 -6.75432 636.378C-6.30579 635.45 -5.73922 634.5 -5.05461 633.528C-4.3606 632.559 -3.75938 631.985 -3.25093 631.805C-2.84955 631.22 -2.01435 630.768 -0.745321 630.451C0.526394 630.125 1.67926 630.055 2.71327 630.239L3.50385 630.405C3.79353 630.458 4.04164 630.514 4.24816 630.573C4.4426 630.639 4.64507 630.748 4.85556 630.899C5.35967 631.267 5.85566 631.735 6.34355 632.301C7.00435 633.08 7.33933 633.648 7.34851 634.007C7.63667 634.384 7.81608 634.928 7.88675 635.639C7.9695 636.344 8.01337 637.006 8.01838 637.627C8.02607 638.239 8.05737 638.609 8.11229 638.736C8.05969 639.239 8.02251 639.742 8.00075 640.243C7.97466 641.293 7.81846 642.335 7.53217 643.37C7.47038 643.515 7.39518 643.671 7.30656 643.839C7.22063 643.997 7.15214 644.13 7.10111 644.237C7.04735 644.425 7.02246 644.565 7.02643 644.658C7.04247 644.744 7.03435 644.878 7.00205 645.062C6.88783 645.426 6.71393 645.767 6.48037 646.086C6.35552 646.274 6.2414 646.459 6.13802 646.643C5.65058 647.6 4.94454 648.505 4.01991 649.358C3.10466 650.213 2.11517 650.742 1.05142 650.945C0.165994 651.27 -0.934577 651.371 -2.25029 651.248C-3.13146 651.168 -3.92407 651.027 -4.62812 650.825Z" fill="#9F54FF"/>
<path d="M11.3146 676.642L10.8708 676.869C10.514 677.05 9.81779 677.383 8.78203 677.867L8.76875 677.841L7.52241 678.492L6.62848 678.964C5.98458 679.292 5.39267 679.561 4.85273 679.771C4.61866 679.397 4.1544 678.581 3.45996 677.324C2.1375 674.94 1.00246 672.816 0.054841 670.954C-1.17175 668.543 -1.79522 667.134 -1.81557 666.728C-2.04016 666.459 -2.32958 665.976 -2.68383 665.28C-3.30377 664.061 -3.88249 662.805 -4.42 661.512C-4.30005 661.187 -3.47001 660.633 -1.92989 659.848C-1.286 659.52 -0.591958 659.183 0.15223 658.837C0.474331 658.695 0.809406 658.535 1.15746 658.357C1.4533 658.207 1.76211 658.038 2.0839 657.852C2.40997 657.653 2.73397 657.472 3.05592 657.308C3.96085 656.847 4.83404 656.528 5.67549 656.351C5.95718 656.668 6.22645 657.079 6.48328 657.584C6.59841 657.81 6.68728 658.028 6.7499 658.237C6.8484 658.581 6.78889 658.809 6.57136 658.92L3.87603 660.277L1.18712 661.614C0.343098 662.044 -0.218054 662.341 -0.496339 662.505L-0.0045844 663.503L0.413874 664.326L0.81928 665.155C1.14758 665.887 1.48 666.583 1.81654 667.245C1.95824 667.523 2.08207 667.745 2.18804 667.91C2.35841 667.922 3.1832 667.551 4.66241 666.797C5.56734 666.336 6.45502 665.906 7.32545 665.506C8.19589 665.107 8.83628 664.901 9.24663 664.889C9.67368 665.384 9.97798 665.81 10.1595 666.167C10.3588 666.558 10.4068 666.868 10.3037 667.096C10.1317 667.469 9.44527 667.961 8.2445 668.573L7.59832 668.885L6.19536 669.617L3.8078 670.965L5.72925 675C6.61375 674.736 8.24806 673.996 10.6322 672.781C12.3376 671.912 13.2756 671.495 13.4462 671.528C13.7492 671.78 14.0071 672.125 14.2198 672.565C14.4456 673.008 14.6102 673.429 14.7134 673.826C14.8254 674.218 14.7838 674.513 14.5887 674.711C14.4283 674.87 14.2262 675.011 13.9826 675.135L13.3953 675.434L11.3146 676.642Z" fill="#FF498B"/>
<path d="M10.9979 707.063C10.775 707.035 10.549 706.993 10.3199 706.935C10.1284 706.892 9.96001 706.861 9.81461 706.843C9.31178 706.772 8.95186 706.698 8.73487 706.622C8.52757 706.548 8.40494 706.424 8.36699 706.252C8.33991 706.072 8.3447 705.792 8.38136 705.413L8.39206 705.326C8.45623 704.802 8.47129 703.997 8.43724 702.911C8.39212 701.754 8.38609 700.479 8.41915 699.086C8.46052 697.625 8.45139 696.576 8.39175 695.939C7.94261 696.553 7.02598 698.733 5.64186 702.479C4.81978 704.69 4.33633 705.905 4.19149 706.123L3.61198 706.156C3.41701 705.659 3.25816 705.069 3.13542 704.385L2.95544 703.566C2.83088 703.138 2.74144 702.704 2.68711 702.264C2.64366 701.816 2.56935 701.379 2.46418 700.953C2.29929 700.372 2.13191 699.249 1.96205 697.585C1.93342 697.257 1.90122 696.958 1.86546 696.688C1.83939 696.419 1.81886 696.185 1.80385 695.986C1.76709 695.805 1.74139 695.693 1.72676 695.652C1.71212 695.611 1.69027 695.589 1.66119 695.585C1.63211 695.582 1.60907 695.569 1.59206 695.547L0.236446 698.539C-0.107077 699.254 -0.440219 700.006 -0.762982 700.792L-1.05923 701.524C-1.49043 702.553 -1.78778 703.333 -1.95126 703.864C-2.13512 704.481 -2.31411 704.857 -2.48821 704.993C-2.62967 705.104 -2.87486 705.138 -3.22381 705.095C-3.73753 705.032 -4.15926 704.941 -4.489 704.822C-4.68661 704.748 -4.89588 704.609 -5.1168 704.405L-5.09007 704.187C-5.04015 703.78 -4.89099 703.085 -4.64257 702.102C-4.39297 701.109 -4.11557 700.091 -3.81037 699.046C-3.49429 697.992 -3.24751 697.344 -3.07003 697.1C-3.08229 697.039 -3.08247 696.961 -3.07059 696.864C-3.05039 696.699 -2.991 696.455 -2.89244 696.133C-2.68581 695.411 -2.43359 694.758 -2.13578 694.174C-1.98556 693.671 -1.75085 693.041 -1.43165 692.283C-1.01745 691.232 -0.796095 690.59 -0.767573 690.358C-0.68665 690.259 -0.504695 689.859 -0.221706 689.155C0.193863 688.173 0.688573 687.108 1.26242 685.958C1.84596 684.81 2.38938 684.109 2.89266 683.856C3.23678 684.42 3.41086 685.046 3.4149 685.735C3.43997 686.093 3.49352 686.458 3.57555 686.832C4.12429 689.419 4.54406 692.535 4.83487 696.182L4.88701 696.719C5.14084 696.495 5.38571 696.062 5.62161 695.422C5.91173 694.661 7.20807 692.473 9.51063 688.86C10.3276 687.573 10.9003 686.713 11.2288 686.281C11.5681 685.841 11.8589 685.636 12.1012 685.665C12.1982 685.677 12.297 685.714 12.3977 685.776C12.4232 685.808 12.4158 686.27 12.3755 687.16C12.256 689.9 12.2913 691.538 12.4815 692.073C12.4166 692.281 12.3657 692.536 12.3289 692.836C12.2552 693.437 12.2194 694.451 12.2216 695.878C12.2328 696.509 12.2279 697.03 12.2071 697.441L11.8697 703.081C11.9735 703.439 11.9321 704.378 11.7456 705.9C11.6742 706.481 11.6012 706.837 11.5264 706.965C11.397 707.057 11.2209 707.09 10.9979 707.063Z" fill="#FFB240"/>
<path d="M9.10135 598.213C8.78063 598.299 8.3992 598.366 7.95706 598.413C7.51743 598.471 7.22681 598.442 7.08519 598.329C6.98755 598.152 6.85166 597.739 6.67751 597.088C6.37717 595.965 6.09537 594.818 5.8321 593.645C5.20022 590.943 4.8989 589.401 4.92814 589.019C4.82041 588.805 4.71228 588.495 4.60375 588.09L4.29232 586.869L4.11718 586.158C4.07428 585.997 4.0131 585.806 3.93366 585.585C3.79936 585.196 3.67795 584.799 3.56942 584.394C3.45585 583.969 3.40903 583.643 3.42897 583.415C3.28032 583.162 3.15046 582.828 3.03941 582.412L2.98542 582.154C2.96018 582.06 2.93149 581.971 2.89934 581.889C2.27545 581.975 1.52959 582.135 0.661762 582.367C-0.196629 582.597 -1.00062 582.823 -1.7502 583.044C-2.19793 583.184 -2.568 583.293 -2.86042 583.372C-3.15284 583.45 -3.32987 583.487 -3.39152 583.483C-3.60765 583.016 -3.80466 582.487 -3.98252 581.898C-4.1491 581.275 -4.22062 580.743 -4.19709 580.302C-3.28727 579.887 -2.02306 579.417 -0.404457 578.892L11.3895 575.762C11.5508 576.063 11.7387 576.614 11.9532 577.416C12.0516 577.784 12.1113 578.025 12.1321 578.141C12.1612 578.325 12.1453 578.512 12.0845 578.7C12.0481 578.79 12.011 578.917 11.9734 579.078C11.6118 579.125 10.9358 579.281 9.94531 579.546C7.90781 580.092 6.73282 580.442 6.42034 580.597L7.30503 583.62L7.70793 584.786L9.33701 591.159C9.48976 591.805 9.6297 592.536 9.7568 593.351C9.81895 593.961 9.93458 594.583 10.1037 595.215L10.4046 596.226C10.4954 596.566 10.5709 596.904 10.6309 597.242C10.5262 597.644 10.0163 597.968 9.10135 598.213Z" fill="#E440FF"/>
<path d="M5.31118 569.633C5.15117 570.944 4.47792 571.963 3.29142 572.693C2.11534 573.414 0.922055 573.82 -0.288433 573.911C-1.03833 573.996 -1.74066 574.03 -2.3954 574.013C-2.60066 574.009 -2.81045 573.999 -3.02477 573.984C-3.50212 573.951 -4.01152 573.886 -4.55299 573.789C-4.58535 573.131 -4.54882 571.836 -4.44339 569.905C-4.40302 569.047 -4.35359 568.199 -4.2951 567.361C-4.22165 566.309 -4.11546 565.068 -3.97651 563.639C-3.83689 562.2 -3.67033 561.286 -3.47684 560.898C-3.49224 560.838 -3.48872 560.648 -3.46628 560.326C-3.44383 560.005 -3.41278 559.63 -3.37311 559.202C-3.33345 558.774 -3.29446 558.356 -3.25615 557.947C-3.20696 557.383 -3.1707 557.004 -3.14736 556.81C-3.11879 556.401 -3.10314 555.966 -3.1004 555.506C-3.10718 555.183 -3.10003 554.87 -3.07895 554.568C-3.03882 553.993 -2.94784 553.461 -2.80599 552.972L-2.27993 553.008C-1.65441 553.023 -1.05914 553.05 -0.494115 553.089C-0.153151 553.113 0.172861 553.141 0.48392 553.172C0.853429 553.208 1.24763 553.24 1.66653 553.27L2.63097 553.337C2.94271 553.359 3.26974 553.372 3.61207 553.376C3.9655 553.362 4.30295 553.366 4.62443 553.388C5.16997 553.427 5.67768 553.516 6.14755 553.656L6.05198 555.236C6.04518 555.333 6.04393 555.421 6.04823 555.5C6.05049 555.608 6.04822 555.71 6.04142 555.808C6.0217 556.09 5.9629 556.301 5.86502 556.441C5.75468 556.62 5.44622 556.691 4.93965 556.656L4.86658 556.651C4.35027 556.614 3.83044 556.559 3.3071 556.483C2.89024 556.424 2.47757 556.376 2.0691 556.337L1.57226 556.303C1.06569 556.267 0.554921 556.222 0.0399636 556.166C-0.155849 557.709 -0.361404 559.251 -0.576701 560.793C-0.645372 561.356 -0.716874 561.889 -0.791207 562.393C-0.160708 562.476 0.514079 562.626 1.23316 562.843C1.95223 563.06 2.55418 563.341 3.03899 563.689C3.80269 563.967 4.40429 564.464 4.84377 565.18C5.09908 565.59 5.28869 566.029 5.41259 566.498C5.4477 566.696 5.47816 567.031 5.50396 567.503C5.52977 567.974 5.53224 568.43 5.51138 568.869L5.50424 568.971C5.47771 569.351 5.41336 569.572 5.31118 569.633ZM-1.72712 570.33L-1.73498 571.284C-1.42664 571.355 -1.12148 571.401 -0.819479 571.422C-0.322646 571.456 0.174078 571.423 0.670691 571.32C1.0393 571.229 1.33202 571.102 1.54884 570.941C1.76566 570.78 1.96401 570.603 2.14391 570.41C2.26059 570.281 2.38701 570.153 2.52318 570.026C2.55626 569.832 2.59388 569.644 2.63603 569.461C2.70242 569.211 2.75137 568.93 2.78287 568.619C2.84206 567.351 2.28432 566.436 1.10966 565.874C0.606945 565.643 0.0876865 565.509 -0.448115 565.471C-0.711144 565.453 -0.975874 565.459 -1.2423 565.489L-1.24638 565.548C-1.29261 565.789 -1.32083 565.983 -1.33103 566.129L-1.33817 566.231C-1.34769 566.368 -1.34532 566.544 -1.33106 566.76L-1.72712 570.33Z" fill="#FF498B"/>
<path d="M5.80182 540.86C4.10809 541.251 2.32186 541.263 0.443117 540.894C-0.163615 540.784 -0.85449 540.548 -1.62951 540.185C-3.32299 539.404 -4.4671 538.31 -5.06184 536.904C-5.14817 536.703 -5.25023 536.521 -5.36803 536.358C-5.81292 535.819 -6.25513 534.749 -6.69467 533.146C-6.75025 532.949 -6.80108 532.75 -6.84715 532.55C-7.3144 530.523 -7.24776 528.639 -6.64722 526.896C-6.04888 525.145 -4.69779 523.55 -2.59397 522.112C-1.75873 521.518 -0.974768 521.137 -0.242088 520.968L0.249775 520.884C0.696996 520.781 1.08714 520.626 1.4202 520.418C1.65663 520.314 1.89379 520.234 2.13167 520.179C2.36956 520.124 2.7154 520.059 3.1692 519.985C3.62081 519.9 4.10535 519.829 4.62283 519.769C5.13811 519.7 5.51395 519.679 5.75035 519.704C5.92448 520.025 6.08175 520.425 6.22218 520.903C6.26386 521.084 6.33588 521.418 6.43824 521.906C6.53841 522.384 6.49367 522.82 6.30402 523.215C6.24913 523.237 6.17886 523.259 6.09322 523.278C5.88388 523.327 5.56586 523.36 5.13915 523.378C4.13423 523.41 3.22261 523.52 2.40429 523.709C1.77628 523.854 1.14898 524.089 0.52239 524.414L0.47188 524.456C-0.140064 524.758 -0.710299 525.11 -1.23883 525.512C-1.91376 526.019 -2.33183 526.727 -2.49305 527.636C-2.56854 528.135 -2.65351 528.44 -2.74795 528.552L-2.68543 528.823C-2.59768 529.204 -2.51983 529.672 -2.45188 530.227C-2.39635 530.686 -2.33496 531.082 -2.26769 531.418C-1.99636 532.377 -1.61046 533.225 -1.10998 533.962C-0.928536 534.271 -0.764651 534.568 -0.61833 534.855C-0.301446 535.013 -0.0237193 535.174 0.214849 535.34C0.462932 535.503 0.712483 535.651 0.963501 535.783C1.21232 535.906 1.52227 535.99 1.89334 536.035C2.4913 536.107 3.49843 536.02 4.91473 535.773C5.13578 535.732 5.33413 535.701 5.5098 535.681C6.16049 535.591 6.70322 535.51 7.13799 535.44C7.69646 535.341 8.11073 535.291 8.38081 535.288C8.64869 535.277 8.83715 535.333 8.94617 535.459C9.05301 535.574 9.15214 535.787 9.24356 536.097C9.3635 536.53 9.50796 536.983 9.67693 537.455C9.82103 537.862 9.94281 538.26 10.0423 538.648C10.0576 538.715 10.0719 538.777 10.085 538.834C10.1245 539.005 10.134 539.133 10.1135 539.218C9.98171 539.429 9.77382 539.592 9.48981 539.708C9.20361 539.814 8.90826 539.902 8.60377 539.973C8.3088 540.041 8.04566 540.116 7.81436 540.2C7.15777 540.482 6.48693 540.702 5.80182 540.86Z" fill="#4053FF"/>
</svg>
