<svg width="31" height="562" fill="none" xmlns="http://www.w3.org/2000/svg"><path d="M19.411 134.615c3.069-.822 4.451-2.709 4.147-5.66-.061-.429-.116-.913-.166-1.452-.155-1.536-.315-2.612-.48-3.228-.986-3.686-3.093-6.727-6.323-9.124a2.296 2.296 0 0 1-.64-.051 1.72 1.72 0 0 0-.867.01c-.226.061-.511.205-.855.432-1.002.686-1.633 1.199-1.893 1.538-.626 1.085-.954 2.581-.983 4.489-.028 1.909.117 3.46.437 4.655l.584 2.108c.303 1.133.553 2.218.75 3.257.137.058.495.44 1.075 1.148.681.882 1.214 1.461 1.597 1.735.645.394 1.627.488 2.947.283a6.14 6.14 0 0 0 .67-.14Zm-.495 5.33c-2.54.68-4.724.227-6.55-1.359-.606-.552-1.337-1.495-2.193-2.83a30.463 30.463 0 0 1-2.193-4.043c-.25-.58-.435-1.096-.556-1.549-.162-.604-.203-1.085-.124-1.443a5.026 5.026 0 0 1-.268-.777c-.179-.667-.33-1.685-.453-3.054a27.18 27.18 0 0 1-.011-4.425c.128-1.584.422-2.654.88-3.208.057-.946.702-2.035 1.936-3.269 1.23-1.246 2.5-2.119 3.808-2.618l1.018-.353c.367-.139.689-.245.965-.32.268-.058.574-.072.919-.043.828.074 1.716.268 2.662.58 1.29.437 2.062.856 2.319 1.26.588.233 1.166.732 1.734 1.496a24.507 24.507 0 0 1 1.514 2.183c.428.694.718 1.095.868 1.203.285.611.587 1.211.906 1.799a17.186 17.186 0 0 1 1.608 3.896c.03.208.05.439.064.691.01.24.023.439.038.596.067.252.135.429.203.532.077.088.16.247.25.48a4.67 4.67 0 0 1 .105 1.528c-.014.301-.017.591-.01.872.1 1.429-.086 2.949-.559 4.558-.46 1.606-1.228 2.891-2.305 3.853-.79.98-1.978 1.851-3.567 2.614-1.062.514-2.065.897-3.008 1.15Z" fill="#3DFF7F"/><path d="m12.233 158.846 4.315 1.177c.15.043.233.039.247-.011l-.005-.123c.055-1.989.172-3.486.351-4.491.212-1.402.188-2.337-.07-2.804l-.712.995c-.77.985-1.307 1.725-1.611 2.22l-.819.943c-.877.982-1.442 1.68-1.696 2.094ZM5.01 169.17l-.113-.033c-.238-.068-.856-.299-1.853-.694-1.086-.419-1.68-.684-1.784-.795a1.003 1.003 0 0 1 .038-.416c.14-.488.726-1.424 1.759-2.808.374-.502.65-.897.827-1.185.195-.35.48-.824.854-1.421.96-1.513 1.698-2.432 2.212-2.759.087-.259.295-.654.623-1.183a30.42 30.42 0 0 1 1.887-2.689C10.48 153.853 12 152 14.02 149.626c2.37-2.788 3.75-4.228 4.142-4.318.497-.698 1.012-1.146 1.543-1.346.368.512.569 1.633.602 3.363.012.667-.02 1.159-.098 1.475.165.372.273 1.176.326 2.41.018.791.084 1.412.198 1.865.006.449.034 1.134.082 2.055l.267 6.944c.251 6.832.314 10.467.189 10.905l-.005.018c-.278.165-.528.235-.752.212a2.21 2.21 0 0 1-.423-.081 3.476 3.476 0 0 1-.314-.11 1.865 1.865 0 0 0-.384-.151l-.724-.167a4.707 4.707 0 0 1-.574-.124 3.053 3.053 0 0 1-.947-.454c-.246-.653-.351-2.485-.316-5.496.024-1.361 0-2.411-.073-3.15a8.744 8.744 0 0 0-.81-.151 6.122 6.122 0 0 1-.88-.191l-.206-.059a18.8 18.8 0 0 0-.934-.288c-1.076-.309-2.416-.571-4.02-.787-.81.891-2.011 2.599-3.6 5.124L5.01 169.17Z" fill="#9F54FF"/><path d="M32.969 204.185c-.394.201-.873.394-1.437.579-.557.196-.944.24-1.16.131-.176-.203-.468-.704-.875-1.505-.703-1.381-1.389-2.8-2.057-4.257-1.572-3.349-2.392-5.277-2.46-5.783-.2-.249-.426-.623-.68-1.122l-.744-1.506-.426-.879c-.1-.198-.233-.43-.398-.696-.282-.47-.55-.954-.805-1.453-.265-.523-.417-.935-.454-1.238-.264-.289-.526-.689-.785-1.199l-.142-.323a3.452 3.452 0 0 0-.186-.322c-.79.286-1.718.701-2.786 1.244a130.363 130.363 0 0 0-2.958 1.552 39.61 39.61 0 0 1-1.357.735c-.36.183-.58.281-.662.293a16.224 16.224 0 0 1-1.21-1.904c-.39-.766-.63-1.44-.721-2.022 1.071-.794 2.59-1.758 4.555-2.891l14.514-7.351c.294.347.691 1.014 1.193 2 .23.453.375.752.434.897.09.232.12.48.093.742a3.623 3.623 0 0 0-.04.524c-.459.161-1.297.552-2.515 1.172-2.506 1.277-3.941 2.06-4.306 2.348l1.99 3.698.85 1.409 3.889 7.861c.378.801.763 1.715 1.154 2.743.25.779.573 1.557.969 2.335l.672 1.235c.213.418.405.839.577 1.263-.025.553-.6 1.117-1.726 1.69Z" fill="#FF498B"/><path d="M23.34 226.39c-.304 1.734-1.271 3.045-2.902 3.933-1.616.878-3.233 1.335-4.851 1.373-1.005.06-1.942.056-2.813-.011a18.358 18.358 0 0 1-.836-.083c-.633-.078-1.307-.2-2.021-.366.003-.879.142-2.6.417-5.164.113-1.14.238-2.266.374-3.378.171-1.396.4-3.04.684-4.934.286-1.906.572-3.111.856-3.614-.016-.08.002-.334.054-.761.053-.426.12-.923.203-1.49l.243-1.662c.105-.748.18-1.251.224-1.508.067-.543.118-1.12.153-1.732.014-.431.045-.847.094-1.248.094-.763.252-1.465.475-2.106l.698.085c.832.063 1.623.141 2.372.233.453.055.885.115 1.297.178.49.074 1.012.144 1.567.213l1.28.157c.413.05.848.091 1.303.12.472.006.921.035 1.348.087a9.353 9.353 0 0 1 2.009.463l-.237 2.096c-.016.13-.024.247-.024.352-.004.143-.014.28-.03.409-.046.375-.14.652-.28.832-.159.229-.574.303-1.246.22l-.097-.011a28.447 28.447 0 0 1-2.065-.333 36.86 36.86 0 0 0-1.638-.28l-.66-.08a55.326 55.326 0 0 1-2.03-.289c-.369 2.041-.75 4.08-1.144 6.117a86.18 86.18 0 0 1-.397 2.116c.834.155 1.722.401 2.664.74.942.339 1.724.756 2.346 1.252.997.425 1.764 1.129 2.299 2.113.311.563.533 1.161.665 1.793.033.267.05.715.052 1.345.002.63-.027 1.236-.085 1.819l-.017.136c-.062.504-.163.794-.303.868Zm-9.42.437-.076 1.27c.405.115.809.198 1.21.247.658.081 1.322.07 1.99-.031.498-.097.896-.244 1.196-.444.3-.199.576-.421.83-.665.164-.164.341-.326.531-.486.058-.255.121-.503.19-.744a7.2 7.2 0 0 0 .254-1.11c.167-1.685-.512-2.943-2.037-3.773a5.936 5.936 0 0 0-2.046-.644 5.747 5.747 0 0 0-1.058-.032l-.01.078c-.078.318-.13.574-.153.768l-.017.136a5.4 5.4 0 0 0-.027.705l-.776 4.725Z" fill="#FFB240"/><path d="M23.31 266.912a49.86 49.86 0 0 0-1.654.593l-.566.217c-.352.136-.634.237-.845.304-.157-.191-.256-.341-.298-.45a.9.9 0 0 1-.066-.226c.011-.116-.027-.29-.116-.521a3.815 3.815 0 0 0-.306-.635 11.284 11.284 0 0 1-.264-.526 7.207 7.207 0 0 1-.404-1.435 7.756 7.756 0 0 0-.39-1.399 171.161 171.161 0 0 1-2.55-6.218 269.56 269.56 0 0 1-1.781-4.755c-1.11-3.075-1.664-4.759-1.665-5.052a15.516 15.516 0 0 1-1.169-2.396c-.186-.487-.344-.97-.472-1.451a21.836 21.836 0 0 0-.288-.914c.34-.131.66-.281.957-.451.305-.187.777-.41 1.416-.67.761-.306 2.188-.86 4.278-1.663 3.066-1.135 5.008-1.706 5.828-1.714.125.217.24.466.348.745.088.231.172.485.25.762.074.265.16.525.257.78.254.879-.049 1.546-.906 2.001-.427.233-.877.441-1.351.623a16.68 16.68 0 0 1-1.523.501c-.534.135-1.075.308-1.622.518a23.24 23.24 0 0 1-2.128.942l1.998 5.593c.094.355.222.745.386 1.17.21.547.477 1.156.804 1.825.354.743.648 1.418.88 2.026.094.243.784 2.224 2.07 5.943l1.063 2.667c.202.452.365.843.491 1.171.126.328.229.651.309.969.092.314.051.553-.123.717-.14.109-.422.246-.847.409Z" fill="#3DFF7F"/><path d="m5.314 296.186-.887-.358-.463-.524.882-1.35.826-2.047c.116-.29 1.35-.248 3.698.125 1.06-.4 1.76-1.023 2.102-1.868.647-1.606.59-8.216-.173-19.829.116-1.4.24-2.263.37-2.589l.697-.055 2.934 1.185c.596.367.779 3.847.548 10.438.326.132.558 1.82.696 5.063l.29.117c.507.205 3.433-2.819 8.777-9.072.502-1.243 1.885-1.591 4.148-1.041 1.27.822 1.838 1.395 1.706 1.721-11.352 12.968-18.173 19.748-20.462 20.34-1.849.615-3.745.53-5.689-.256Z" fill="#E440FF"/><path d="M20.131 307.714c.921-.507 1.72-1.295 2.399-2.364.69-1.074.81-2.27.36-3.59a4.262 4.262 0 0 0-1.103-1.459 3.076 3.076 0 0 0-1.574-.777c-.4-.028-.9.017-1.496.135-.59.1-1.042.211-1.358.333l.941 2.4a79.458 79.458 0 0 1 1.831 5.322Zm5.766 11.553c1.338-.513 2.204-1.146 2.599-1.897.171-.317.302-.632.39-.945l.257-.642a7.999 7.999 0 0 1-.2-.74 5.858 5.858 0 0 0-.314-1.093 5.294 5.294 0 0 0-1.547-2.125 3.565 3.565 0 0 0-2.37-.89c-.868.027-1.564.14-2.087.341a5.51 5.51 0 0 0-.828.402l.034.091c.085.33.179.629.281.896.066.17.165.376.3.618l1.542 5.224.545 1.15a7.95 7.95 0 0 0 1.398-.39Zm-.967 4.242c-.681.261-1.425.484-2.233.668-.302-.567-.815-1.688-1.54-3.362a171.374 171.374 0 0 1-2.623-6.462 89.184 89.184 0 0 1-1.503-4.193 58.628 58.628 0 0 0-.805-1.993 2.746 2.746 0 0 0-.137-.303l-.105-.273a116.33 116.33 0 0 1-.906-2.309c-.62-1.617-.865-2.548-.736-2.793a10.198 10.198 0 0 1-.277-.668c-.074-.195-.19-.513-.345-.955a74.785 74.785 0 0 1-.506-1.647 18.045 18.045 0 0 1-.346-1.395c.311-.426.977-.835 1.998-1.227.049-.019.361-.131.937-.339.576-.207 1.47-.403 2.681-.59 1.22-.202 2.153-.205 2.8-.007.941.308 1.515.513 1.721.615.392.185.993.735 1.804 1.651.44.528.823 1.218 1.149 2.069.037.098.146.418.327.963.193.539.238 1.129.134 1.768.168.731.21 1.531.125 2.4-.073.865-.295 1.578-.666 2.139.285.016.543.049.771.101l1.038-.022c.136.101.362.217.677.347a6.5 6.5 0 0 1 2.34 1.738c.158.232.403.654.735 1.266.394.7.707 1.353.94 1.961.191.499.245.82.16.964.133.381.18.942.143 1.682a8.573 8.573 0 0 1-.364 2.106c-.193.66-.452 1.059-.775 1.197-.103.388-.369.804-.798 1.248a13.369 13.369 0 0 1-2.755 2.145c-1.14.661-2.16 1.164-3.06 1.51Z" fill="#4053FF"/><path d="M28.661 106.946c-.427.115-.936.204-1.525.267-.587.077-.974.039-1.163-.113-.13-.234-.311-.786-.543-1.654a115.88 115.88 0 0 1-1.128-4.591c-.842-3.603-1.244-5.658-1.205-6.168-.144-.285-.288-.698-.432-1.239l-.416-1.627-.233-.949a9.88 9.88 0 0 0-.245-.763 23.33 23.33 0 0 1-.486-1.589c-.151-.566-.213-1-.187-1.304-.198-.338-.371-.784-.52-1.337l-.071-.345a3.348 3.348 0 0 0-.115-.353c-.832.115-1.826.327-2.983.637a134.57 134.57 0 0 0-3.216.903c-.597.186-1.09.332-1.48.437-.39.104-.627.154-.709.149a16.245 16.245 0 0 1-.788-2.114c-.222-.83-.317-1.54-.286-2.128 1.213-.554 2.899-1.18 5.057-1.88l15.725-4.173c.215.4.466 1.135.752 2.204.131.49.21.813.238.968.04.245.018.494-.063.745a3.61 3.61 0 0 0-.148.504c-.482.062-1.384.27-2.704.624-2.717.728-4.284 1.195-4.7 1.4l1.18 4.032.537 1.555 2.172 8.496c.203.862.39 1.837.56 2.924.082.814.236 1.642.462 2.484l.401 1.349c.121.453.222.904.302 1.355-.14.536-.82.967-2.04 1.294Z" fill="#E440FF"/><path d="m19.489 71.126-.663-.046c-.532-.037-1.557-.135-3.073-.293l.003-.039-1.872-.111-1.346-.075a25.892 25.892 0 0 1-2.583-.298c-.01-.588.018-1.84.086-3.753.123-3.633.282-6.84.476-9.62.25-3.597.504-5.635.76-6.113-.073-.462-.072-1.213 0-2.252.127-1.819.327-3.652.6-5.499.359-.288 1.688-.352 3.987-.191.961.067 1.986.159 3.074.274a26.85 26.85 0 0 0 2.884.201c.51-.003 1.004.012 1.485.045 1.35.095 2.568.33 3.651.706.105.556.13 1.21.078 1.964a5.251 5.251 0 0 1-.143.93c-.123.46-.348.68-.672.657l-4.013-.3-3.991-.318c-1.26-.088-2.105-.134-2.536-.139l-.122 1.48-.086 1.227-.105 1.226a63.524 63.524 0 0 0-.293 3.073c-.03.416-.04.755-.032 1.016.187.13 1.384.273 3.592.428 1.351.094 2.661.212 3.93.353 1.27.14 2.143.346 2.62.614.15.859.205 1.554.168 2.087-.04.584-.199.972-.473 1.161-.452.308-1.574.4-3.367.274l-.953-.086-2.106-.128-3.654-.099-.57 5.932c1.192.305 3.567.582 7.127.83 2.545.179 3.904.346 4.076.501.174.495.232 1.067.174 1.716a8.408 8.408 0 0 1-.3 1.78c-.141.525-.391.834-.75.927a3.22 3.22 0 0 1-.984.068l-.877-.061-3.207-.049Z" fill="#FF498B"/><path d="M25.929 32.476c-2.259.521-4.64.536-7.145.046-.81-.148-1.73-.463-2.764-.946-2.258-1.042-3.783-2.5-4.576-4.376a3.814 3.814 0 0 0-.409-.727c-.593-.718-1.182-2.146-1.768-4.282a17.26 17.26 0 0 1-.204-.795c-.623-2.703-.534-5.216.267-7.539.798-2.335 2.6-4.462 5.404-6.379 1.114-.791 2.16-1.3 3.136-1.526l.656-.11a5.109 5.109 0 0 0 1.56-.622 5.27 5.27 0 0 1 .95-.319c.316-.073.777-.16 1.383-.26a27.997 27.997 0 0 1 1.938-.286c.687-.092 1.188-.121 1.503-.087.232.428.442.96.63 1.599.055.24.15.686.287 1.336.134.638.074 1.22-.179 1.746-.073.03-.167.058-.28.085-.28.064-.704.108-1.273.133-1.34.042-2.555.189-3.646.44-.838.194-1.674.508-2.51.94l-.067.056c-.816.403-1.576.872-2.28 1.41-.9.675-1.458 1.619-1.673 2.83-.1.665-.214 1.072-.34 1.222l.083.361c.117.508.221 1.132.312 1.873.074.61.156 1.14.245 1.587.362 1.28.877 2.41 1.544 3.392.242.412.46.809.655 1.192.423.21.793.425 1.111.645.331.218.664.415.999.591.331.164.745.276 1.24.336.797.096 2.14-.02 4.028-.35a12.1 12.1 0 0 1 .793-.122c.868-.12 1.591-.227 2.171-.321.745-.132 1.297-.2 1.657-.202.357-.016.609.06.754.227.143.154.275.438.397.85.16.578.352 1.182.578 1.811.192.544.354 1.074.487 1.592l.057.247c.052.228.065.4.038.512-.176.282-.453.5-.832.653a9.61 9.61 0 0 1-1.181.353 9.24 9.24 0 0 0-1.053.304c-.875.375-1.77.669-2.683.88Z" fill="#4053FF"/><path d="M14.227 465.387c2.985 1.087 5.199.334 6.64-2.26.195-.386.427-.814.695-1.285.753-1.347 1.238-2.32 1.456-2.92 1.303-3.586 1.319-7.287.046-11.103a2.37 2.37 0 0 1-.496-.409 1.709 1.709 0 0 0-.716-.489c-.22-.081-.536-.126-.948-.137-1.214-.013-2.025.045-2.432.174-1.135.53-2.26 1.568-3.377 3.115-1.116 1.548-1.885 2.903-2.308 4.065l-.729 2.063a45.506 45.506 0 0 1-1.25 3.099c.078.126.153.645.223 1.557.053 1.114.157 1.893.314 2.338.303.692 1.054 1.333 2.253 1.922.211.104.42.194.629.27Zm-3.458 4.083c-2.472-.899-4.001-2.523-4.589-4.871-.18-.8-.239-1.992-.176-3.576a30.51 30.51 0 0 1 .519-4.571c.127-.619.271-1.149.431-1.589.214-.588.456-1.005.726-1.253.043-.234.118-.498.225-.791.236-.649.695-1.57 1.378-2.762a27.124 27.124 0 0 1 2.525-3.633c1.013-1.225 1.866-1.933 2.56-2.124.588-.742 1.74-1.264 3.458-1.568 1.721-.315 3.261-.302 4.62.04l1.036.294c.38.097.705.194.974.292.253.106.512.269.777.491.637.536 1.253 1.204 1.85 2.003.806 1.097 1.199 1.885 1.178 2.362.348.528.536 1.269.564 2.221a24.47 24.47 0 0 1-.01 2.657c-.046.815-.04 1.309.022 1.484a33.074 33.074 0 0 0-.288 1.994 17.204 17.204 0 0 1-.914 4.116c-.096.187-.21.387-.344.602a11.86 11.86 0 0 0-.31.511c-.089.244-.135.429-.138.552.013.116-.01.294-.07.536-.186.473-.449.91-.79 1.313a11.64 11.64 0 0 0-.506.709c-.738 1.228-1.76 2.366-3.07 3.414-1.296 1.052-2.662 1.664-4.095 1.835-1.208.35-2.681.382-4.42.096-1.164-.189-2.205-.45-3.123-.784Z" fill="#3DFF7F"/><path d="m12.72 490.119 4.38-.911c.153-.03.225-.07.215-.121l-.06-.108c-.853-1.797-1.428-3.184-1.723-4.162-.447-1.345-.892-2.167-1.335-2.466l-.183 1.209c-.24 1.227-.382 2.131-.429 2.71l-.302 1.213c-.336 1.272-.524 2.151-.562 2.636Zm-1.756 12.479-.115.022c-.242.047-.898.121-1.966.223-1.157.119-1.807.152-1.95.1a1 1 0 0 1-.155-.387c-.097-.499.002-1.599.295-3.301.105-.617.172-1.094.2-1.431.014-.401.053-.953.116-1.655.171-1.784.411-2.938.72-3.462-.039-.271-.032-.717.02-1.337.111-1.202.265-2.287.462-3.254.304-1.65.817-3.992 1.542-7.024.847-3.561 1.425-5.471 1.733-5.729.127-.848.383-1.481.765-1.9.56.289 1.247 1.197 2.06 2.723.314.589.508 1.042.583 1.359.315.258.776.924 1.383 2 .374.697.714 1.221 1.021 1.572.21.397.545.995 1.005 1.794l3.386 6.067c3.322 5.974 5.026 9.184 5.112 9.632l.004.019c-.172.272-.364.449-.574.529a2.096 2.096 0 0 1-.414.12c-.09.018-.2.033-.33.045-.12-.004-.256.01-.41.04l-.72.18c-.2.065-.39.115-.568.15a3.044 3.044 0 0 1-1.05.025c-.516-.471-1.44-2.055-2.773-4.754-.596-1.224-1.093-2.148-1.493-2.774-.266.065-.53.143-.79.233a5.915 5.915 0 0 1-.871.229l-.211.041c-.246.035-.567.091-.963.168-1.099.213-2.412.588-3.94 1.124-.318 1.162-.613 3.229-.885 6.2l-.229 2.413Z" fill="#9F54FF"/><path d="M16.564 533.314c-.423-.13-.902-.323-1.436-.582-.537-.246-.846-.483-.926-.712.014-.268.152-.832.414-1.691.453-1.482.944-2.979 1.474-4.492 1.192-3.503 1.939-5.46 2.241-5.871.03-.318.125-.745.289-1.28l.509-1.601.304-.928c.064-.212.13-.471.196-.777.122-.535.265-1.07.429-1.605.17-.561.348-.963.531-1.206.011-.392.1-.862.267-1.41l.121-.33c.038-.125.068-.245.09-.361-.766-.343-1.722-.69-2.868-1.04-1.133-.347-2.202-.66-3.205-.939a38.7 38.7 0 0 1-1.487-.414c-.386-.118-.613-.201-.68-.249.086-.681.236-1.418.45-2.211.251-.822.546-1.474.884-1.956 1.322.173 3.083.535 5.284 1.085l15.547 4.794c-.03.454-.206 1.21-.529 2.269-.148.485-.251.801-.31.947a1.586 1.586 0 0 1-.447.598 3.567 3.567 0 0 0-.393.35c-.442-.204-1.316-.505-2.624-.905-2.69-.822-4.265-1.256-4.728-1.302l-1.132 4.044-.367 1.604-2.654 8.359c-.284.839-.641 1.765-1.072 2.776-.36.734-.668 1.519-.923 2.353l-.373 1.356c-.137.449-.29.885-.461 1.31-.402.38-1.207.386-2.415.017Z" fill="#FF629A"/><path d="M15.014 564.971c-.68.18-1.244.339-1.692.476l-.58.177c-.36.111-.649.192-.864.244-.143-.201-.232-.358-.266-.47a.893.893 0 0 1-.05-.23c.02-.115-.007-.29-.079-.527a3.833 3.833 0 0 0-.261-.655 11.163 11.163 0 0 1-.227-.544 7.2 7.2 0 0 1-.303-1.459 7.758 7.758 0 0 0-.291-1.423c-.86-2.46-1.564-4.587-2.111-6.38a270.752 270.752 0 0 1-1.446-4.868c-.891-3.145-1.328-4.864-1.308-5.156a15.435 15.435 0 0 1-1-2.472 14.554 14.554 0 0 1-.37-1.479c-.066-.307-.14-.618-.223-.933.349-.106.677-.234.986-.383.317-.165.804-.355 1.46-.569.78-.252 2.242-.706 4.384-1.36 3.136-.919 5.114-1.353 5.932-1.304.11.225.208.481.296.768.072.236.137.495.196.777.055.269.123.535.202.796.192.895-.156 1.539-1.043 1.933-.442.203-.906.379-1.391.527-.498.152-1.017.283-1.555.394-.542.097-1.093.232-1.653.403-.725.303-1.454.567-2.189.792l1.603 5.718c.07.36.17.758.303 1.194.171.561.396 1.186.675 1.877.302.766.548 1.46.738 2.082.076.25.626 2.274 1.65 6.073l.875 2.734c.17.466.305.867.408 1.203.103.336.183.666.24.989.07.318.013.554-.172.706-.147.099-.438.215-.874.349Z" fill="#FFB240"/><path d="m22.103 438.109-.635.194c-.51.156-1.502.432-2.974.828l-.011-.038-1.787.567-1.283.413a25.83 25.83 0 0 1-2.519.647c-.22-.545-.642-1.723-1.263-3.535a272.004 272.004 0 0 1-2.998-9.152c-1.053-3.45-1.546-5.444-1.478-5.982-.233-.405-.502-1.106-.806-2.102a72.204 72.204 0 0 1-1.408-5.349c.233-.398 1.45-.934 3.655-1.608.921-.282 1.91-.564 2.968-.846a26.975 26.975 0 0 0 2.764-.845c.475-.186.942-.349 1.403-.49 1.295-.396 2.515-.613 3.661-.65.297.481.555 1.083.776 1.805.099.324.165.631.199.92.05.475-.082.76-.393.855l-3.853 1.158-3.84 1.133c-1.208.369-2.014.629-2.417.78l.414 1.425.36 1.177.34 1.182c.262 1.037.538 2.028.827 2.975.121.398.232.718.334.96.22.055 1.39-.241 3.506-.889a97.9 97.9 0 0 1 3.796-1.078c1.235-.324 2.124-.445 2.666-.366.446.749.747 1.378.903 1.889.17.56.162.978-.026 1.253-.312.45-1.327.937-3.046 1.463l-.92.261-2.012.635-3.447 1.217 1.59 5.744c1.222-.143 3.54-.735 6.951-1.779 2.441-.746 3.77-1.077 3.985-.993.34.4.6.913.777 1.539.194.635.313 1.225.356 1.77.056.541-.066.919-.368 1.134a3.2 3.2 0 0 1-.894.416l-.84.257-3.013 1.105Z" fill="#E440FF"/><path d="M23.707 405.936a7.392 7.392 0 0 1-.88-.263 6.993 6.993 0 0 0-.658-.192c-.657-.165-1.124-.313-1.401-.444-.265-.128-.41-.309-.436-.542-.011-.243.034-.613.136-1.111l.026-.114c.158-.685.29-1.751.396-3.196.1-1.54.27-3.232.508-5.074.258-1.932.392-3.324.402-4.177-.681.751-2.2 3.514-4.557 8.289-1.398 2.817-2.208 4.361-2.43 4.63l-.773-.038c-.19-.685-.318-1.49-.386-2.414l-.124-1.111a11.097 11.097 0 0 1-.175-1.764 12.204 12.204 0 0 0-.113-1.77c-.138-.794-.204-2.306-.197-4.536.008-.439.007-.84-.003-1.204.002-.36.008-.672.015-.938a4.748 4.748 0 0 0-.055-.454c-.014-.056-.04-.089-.078-.098a.134.134 0 0 1-.086-.06l-2.214 3.779c-.555.9-1.101 1.85-1.639 2.848l-.495.929c-.715 1.304-1.217 2.298-1.508 2.979-.33.792-.62 1.267-.87 1.423-.202.127-.532.137-.989.032-.672-.155-1.219-.335-1.64-.539-.251-.125-.51-.338-.774-.64l.066-.285c.123-.533.417-1.434.883-2.703.47-1.281.98-2.594 1.53-3.937.565-1.352.982-2.178 1.252-2.477a1.015 1.015 0 0 1 .032-.313c.05-.216.162-.53.338-.944.374-.929.8-1.76 1.276-2.492.269-.646.668-1.449 1.197-2.41.695-1.336 1.078-2.156 1.148-2.461.121-.119.418-.625.891-1.518a75.815 75.815 0 0 1 2.413-4.033c.934-1.441 1.752-2.295 2.454-2.56a4.77 4.77 0 0 1 .431 2.565c-.016.477.004.969.06 1.477.369 3.506.491 7.697.37 12.573l-.006.72c.368-.262.753-.801 1.154-1.617.491-.969 2.514-3.689 6.07-8.16 1.263-1.593 2.142-2.653 2.638-3.18.51-.537.925-.769 1.242-.695a.982.982 0 0 1 .378.187c.03.047-.045.658-.222 1.833-.54 3.617-.721 5.794-.543 6.53a5.853 5.853 0 0 0-.309.991c-.181.786-.37 2.126-.566 4.018a31.599 31.599 0 0 1-.236 2.071l-1.232 7.432c.088.488-.098 1.728-.557 3.721-.176.761-.322 1.221-.44 1.382-.184.104-.422.122-.713.055Z" fill="#FF629A"/><path d="M25.929 371.476c-2.259.521-4.64.536-7.145.046-.81-.148-1.73-.463-2.764-.946-2.258-1.042-3.783-2.501-4.576-4.376a3.802 3.802 0 0 0-.409-.727c-.593-.719-1.182-2.146-1.768-4.282a17.565 17.565 0 0 1-.204-.795c-.623-2.703-.534-5.216.267-7.539.798-2.335 2.6-4.462 5.404-6.379 1.114-.791 2.16-1.3 3.136-1.526l.656-.111a5.123 5.123 0 0 0 1.56-.621 5.3 5.3 0 0 1 .95-.319c.316-.073.777-.16 1.383-.259a27.505 27.505 0 0 1 1.938-.287c.687-.092 1.188-.121 1.503-.087.232.428.442.961.63 1.599.055.241.15.686.287 1.336.134.638.074 1.219-.179 1.746-.073.03-.167.058-.28.085-.28.064-.704.108-1.273.133-1.34.042-2.555.189-3.646.441-.838.193-1.674.506-2.51.94l-.067.056c-.816.402-1.576.871-2.28 1.408-.9.676-1.458 1.619-1.673 2.832-.1.664-.214 1.071-.34 1.221l.083.361c.117.508.221 1.132.312 1.873.074.611.156 1.14.245 1.587.362 1.279.877 2.41 1.544 3.392.242.412.46.809.655 1.192.423.209.793.425 1.111.645.331.218.664.415.999.591.331.164.745.276 1.24.336.797.096 2.14-.02 4.028-.349.295-.055.56-.096.793-.123a96.98 96.98 0 0 0 2.171-.321c.745-.132 1.297-.199 1.657-.202.357-.016.609.06.754.227.143.154.275.437.397.85.16.578.352 1.182.578 1.811.192.544.354 1.074.487 1.592l.057.247c.052.228.065.399.038.512-.176.282-.453.499-.832.653-.382.142-.775.26-1.181.353a9.131 9.131 0 0 0-1.053.304c-.875.375-1.77.669-2.683.88Z" fill="#4053FF"/><path d="M11.08 332.155c3.42.737 5.447.113 6.083-1.872.306-1.213.012-2.266-.884-3.159-.337-.287-.854-.611-1.55-.973-.695-.362-1.224-.595-1.587-.699l-.718 2.578a61.43 61.43 0 0 1-1.344 4.125ZM4.198 347.96l-.244-.07c-.626-.179-1.164-.428-1.614-.747.255-1.837.68-3.794 1.275-5.872.44-1.54.977-3.154 1.61-4.842a74.575 74.575 0 0 0 1.574-4.79l.777-3.069.162-.563c.462-1.615.809-2.471 1.04-2.567a4.89 4.89 0 0 1 .155-.687c.058-.2.155-.518.293-.952.15-.431.34-.952.57-1.564.242-.608.43-1.028.564-1.26.469-.123 1.204-.041 2.205.246 1.414.405 2.9 1.008 4.46 1.807 1.276.651 2.147 1.252 2.612 1.806.657.825 1.041 1.328 1.152 1.508.218.375.41 1.168.578 2.381.055.707-.05 1.523-.315 2.449-.01.038-.096.311-.255.821-.16.51-.476.975-.948 1.394-.333.691-.915 1.397-1.745 2.121-.83.724-1.616 1.176-2.359 1.356-1.942.35-3.907.329-5.893-.065-.237.447-.58 1.243-1.03 2.387-.932 2.36-1.598 4.235-1.996 5.625l-.153.606c-.1.351-.19.643-.271.877l-.08.282c-.14.488-.196.987-.165 1.497-.557.098-1.21.06-1.959-.115Z" fill="#FFB240"/></svg>