<svg width="25" height="713" fill="none" xmlns="http://www.w3.org/2000/svg"><path d="M17.414 135.33c2.301-.617 3.338-2.032 3.11-4.246a22.572 22.572 0 0 1-.125-1.089c-.116-1.152-.236-1.959-.36-2.421-.739-2.764-2.32-5.045-4.742-6.843-.18.008-.34-.004-.48-.038a1.29 1.29 0 0 0-.65.008c-.17.045-.383.153-.641.323-.752.515-1.225.9-1.42 1.154-.47.813-.716 1.936-.737 3.367-.021 1.431.088 2.595.327 3.491l.439 1.581c.227.849.414 1.664.562 2.443.103.043.371.33.807.861.51.661.91 1.095 1.197 1.301.483.296 1.22.366 2.21.212a4.73 4.73 0 0 0 .503-.104Zm-.372 3.997c-1.905.51-3.543.17-4.912-1.02-.455-.414-1.003-1.121-1.645-2.122a22.854 22.854 0 0 1-1.645-3.032 8.639 8.639 0 0 1-.417-1.162c-.121-.453-.152-.814-.092-1.082a3.794 3.794 0 0 1-.202-.583c-.134-.5-.247-1.264-.34-2.29a20.389 20.389 0 0 1-.008-3.319c.097-1.189.317-1.991.66-2.406.043-.709.527-1.527 1.452-2.452.923-.934 1.875-1.589 2.856-1.963l.764-.265c.275-.104.516-.184.724-.24.2-.044.43-.054.689-.033a8.933 8.933 0 0 1 1.996.436c.968.327 1.547.642 1.74.944.44.175.874.549 1.3 1.123a18.29 18.29 0 0 1 1.136 1.637c.321.52.538.821.65.902.214.458.44.908.68 1.35.517.912.92 1.886 1.206 2.922.022.156.038.328.048.518.008.18.017.329.029.447.05.189.1.322.152.399.058.065.12.185.187.359.089.371.115.753.08 1.147a8.83 8.83 0 0 0-.008.654c.075 1.072-.065 2.211-.42 3.418-.345 1.205-.92 2.168-1.729 2.89-.591.735-1.483 1.388-2.674 1.96-.797.386-1.55.673-2.257.863Z" fill="#3DFF7F"/><path d="m14.53 160.269 3.237.882c.112.032.174.03.185-.008l-.004-.092c.04-1.492.129-2.615.263-3.369.159-1.051.141-1.752-.053-2.103l-.534.746c-.577.739-.98 1.294-1.208 1.666l-.614.707c-.657.736-1.082 1.26-1.272 1.571Zm-5.417 7.742-.084-.024c-.179-.051-.642-.225-1.39-.52-.814-.315-1.26-.514-1.338-.597a.75.75 0 0 1 .029-.312c.105-.366.544-1.068 1.319-2.106.28-.377.487-.673.62-.889.146-.263.36-.618.64-1.066.721-1.134 1.274-1.824 1.66-2.069.065-.194.22-.49.467-.887.483-.765.955-1.438 1.415-2.017.764-1 1.903-2.39 3.419-4.17 1.777-2.092 2.812-3.171 3.106-3.239.373-.523.76-.86 1.158-1.009.276.383.426 1.224.45 2.521.01.501-.015.87-.072 1.107.123.279.204.882.244 1.807.013.593.062 1.06.148 1.399.005.337.026.851.062 1.542l.2 5.208c.189 5.123.236 7.849.142 8.178l-.004.014c-.208.123-.396.176-.564.158a1.655 1.655 0 0 1-.317-.06 2.728 2.728 0 0 1-.236-.083 1.412 1.412 0 0 0-.288-.113l-.543-.125a3.44 3.44 0 0 1-.43-.093 2.263 2.263 0 0 1-.71-.341c-.185-.49-.264-1.863-.237-4.121.018-1.021 0-1.809-.055-2.363a6.475 6.475 0 0 0-.608-.113 4.635 4.635 0 0 1-.66-.144l-.154-.044c-.176-.06-.41-.132-.7-.216-.808-.231-1.813-.428-3.016-.59-.608.669-1.508 1.95-2.7 3.843l-.973 1.534Z" fill="#9F54FF"/><path d="M28.832 195.023a7.66 7.66 0 0 1-1.078.434c-.418.147-.708.18-.87.098-.132-.152-.35-.528-.656-1.129a87.225 87.225 0 0 1-1.542-3.192c-1.18-2.512-1.795-3.958-1.845-4.338-.15-.186-.32-.467-.51-.841l-.559-1.13-.319-.659a7.342 7.342 0 0 0-.298-.522 17.464 17.464 0 0 1-.604-1.09c-.2-.391-.313-.701-.34-.928-.199-.217-.395-.517-.59-.9l-.106-.241a2.545 2.545 0 0 0-.14-.242c-.592.214-1.288.525-2.089.933-.792.404-1.531.792-2.219 1.164-.408.23-.748.414-1.017.551-.27.138-.436.211-.497.22a12.23 12.23 0 0 1-.907-1.428c-.292-.575-.473-1.08-.541-1.516.803-.596 1.942-1.319 3.416-2.169l10.886-5.513c.22.26.518.76.895 1.5.172.34.28.564.325.673.067.174.09.359.07.556a2.714 2.714 0 0 0-.03.394c-.344.12-.973.413-1.887.879-1.88.957-2.956 1.544-3.23 1.76l1.494 2.774.636 1.057 2.917 5.895c.284.601.573 1.287.866 2.058.188.584.43 1.167.727 1.751l.504.926c.16.314.304.629.433.947-.02.415-.45.838-1.295 1.268Z" fill="#FF498B"/><path d="M23.11 218.426c-.227 1.3-.953 2.283-2.176 2.95-1.212.658-2.425 1.001-3.639 1.029-.753.045-1.456.042-2.109-.008a14.34 14.34 0 0 1-2.143-.337c.002-.659.106-1.95.313-3.873.085-.855.178-1.7.28-2.533.129-1.047.3-2.281.513-3.701.215-1.43.43-2.333.643-2.71-.013-.061 0-.251.04-.571.04-.32.09-.692.152-1.118l.182-1.246c.079-.561.135-.938.168-1.131.05-.407.089-.84.115-1.299.01-.324.034-.636.07-.936.071-.572.19-1.099.357-1.58l.523.064c.624.047 1.217.105 1.78.174.339.042.663.087.972.135.367.055.759.108 1.176.159l.96.118c.31.038.635.068.977.09.354.004.69.026 1.01.065a7.028 7.028 0 0 1 1.507.348l-.178 1.572a2.132 2.132 0 0 0-.017.263c-.004.108-.011.21-.023.307-.035.281-.104.489-.21.624-.119.172-.43.227-.935.165l-.072-.009a21.197 21.197 0 0 1-1.549-.249c-.413-.08-.823-.15-1.229-.21l-.494-.06a39.958 39.958 0 0 1-1.523-.217 368.26 368.26 0 0 1-.858 4.588 63.744 63.744 0 0 1-.298 1.587c.626.116 1.292.301 1.998.555.707.254 1.294.567 1.76.939a3.468 3.468 0 0 1 1.724 1.585c.233.422.4.87.5 1.345.024.2.037.536.038 1.008 0 .473-.02.928-.064 1.365l-.013.102c-.046.378-.122.595-.227.651Zm-7.064.328-.058.952c.304.086.607.148.907.185.495.061.992.053 1.494-.023.373-.073.671-.183.896-.333.225-.149.433-.316.622-.499.124-.123.257-.244.4-.364.042-.192.09-.378.142-.559.079-.246.142-.523.19-.832.126-1.264-.384-2.207-1.527-2.829a4.377 4.377 0 0 0-2.329-.508l-.007.058a5.18 5.18 0 0 0-.115.577l-.012.101a4.06 4.06 0 0 0-.021.529l-.582 3.545Z" fill="#FFB240"/><path d="M21.588 250.566c-.499.17-.913.319-1.24.445l-.425.163c-.264.101-.476.177-.634.227a1.394 1.394 0 0 1-.224-.337.686.686 0 0 1-.049-.17c.009-.087-.02-.217-.087-.39a2.876 2.876 0 0 0-.23-.477 8.384 8.384 0 0 1-.198-.394 5.413 5.413 0 0 1-.303-1.077 5.834 5.834 0 0 0-.292-1.049c-.772-1.795-1.41-3.35-1.913-4.663a201.22 201.22 0 0 1-1.335-3.567c-.832-2.306-1.248-3.569-1.248-3.788a11.642 11.642 0 0 1-.878-1.798c-.14-.364-.258-.727-.354-1.088a17.38 17.38 0 0 0-.216-.686c.256-.098.495-.21.718-.338.229-.14.583-.307 1.062-.502.571-.229 1.64-.645 3.209-1.247 2.299-.851 3.755-1.28 4.37-1.285.094.162.181.349.262.558.066.174.129.364.187.572.055.198.12.393.193.585.19.659-.037 1.159-.68 1.5-.32.175-.657.331-1.013.467-.365.14-.745.266-1.142.376-.4.102-.806.231-1.216.389-.526.264-1.058.5-1.596.706l1.498 4.195c.07.266.167.558.289.878.157.41.358.866.603 1.369.266.557.486 1.063.66 1.519.07.182.588 1.668 1.552 4.457l.798 2c.151.34.274.632.368.879.095.246.172.488.232.727.07.235.039.414-.092.537-.105.082-.316.184-.636.307Z" fill="#3DFF7F"/><path d="m17.091 273.008-.666-.269-.347-.393.662-1.012.619-1.535c.088-.218 1.012-.187 2.774.093.795-.3 1.32-.767 1.576-1.401.486-1.204.443-6.162-.13-14.871.087-1.05.18-1.697.279-1.942l.522-.042 2.2.889c.447.276.584 2.885.412 7.829.244.099.418 1.364.521 3.797l.218.088c.38.153 2.574-2.115 6.583-6.804.376-.933 1.413-1.193 3.11-.781.953.616 1.38 1.047 1.28 1.291-8.514 9.726-13.63 14.81-15.346 15.254-1.387.462-2.81.398-4.267-.191Z" fill="#E440FF"/><path d="M19.454 288.154c.69-.38 1.29-.972 1.799-1.773.517-.806.607-1.703.27-2.693a3.204 3.204 0 0 0-.828-1.095 2.313 2.313 0 0 0-1.18-.582c-.3-.021-.675.013-1.122.101-.442.076-.781.159-1.018.25l.706 1.8a59.52 59.52 0 0 1 1.373 3.992Zm4.324 8.664c1.003-.385 1.653-.859 1.95-1.423.128-.237.226-.474.292-.708l.192-.482a6.001 6.001 0 0 1-.15-.555 4.373 4.373 0 0 0-.235-.819 3.976 3.976 0 0 0-1.16-1.595 2.68 2.68 0 0 0-1.778-.667c-.65.02-1.172.105-1.564.256-.21.08-.418.181-.622.301l.026.069c.063.247.134.471.21.672.05.128.124.282.225.463l1.157 3.918.409.863c.37-.069.72-.167 1.048-.293ZM23.052 300a12.29 12.29 0 0 1-1.674.501c-.226-.426-.611-1.266-1.155-2.522a128.159 128.159 0 0 1-1.967-4.846 66.818 66.818 0 0 1-1.127-3.145 42.807 42.807 0 0 0-.604-1.494 2.078 2.078 0 0 0-.103-.228l-.079-.205c-.159-.388-.386-.966-.68-1.732-.464-1.213-.648-1.911-.55-2.094a7.516 7.516 0 0 1-.209-.501 31.172 31.172 0 0 1-.258-.717 53.735 53.735 0 0 1-.38-1.235c-.136-.492-.223-.84-.26-1.046.234-.319.733-.626 1.499-.92.036-.014.27-.099.703-.254.432-.156 1.102-.303 2.01-.443.915-.152 1.615-.154 2.1-.005.706.231 1.136.385 1.291.461.294.139.745.551 1.353 1.238.33.397.617.914.862 1.552.028.073.11.314.245.722.145.405.178.847.1 1.327.127.547.158 1.147.094 1.799-.054.649-.22 1.184-.499 1.604.214.012.407.038.578.076l.779-.016c.102.076.271.163.507.26a4.87 4.87 0 0 1 1.755 1.304c.119.174.303.49.552.949.295.525.53 1.015.705 1.471.143.374.183.615.12.723.1.286.135.706.107 1.261a6.429 6.429 0 0 1-.273 1.58c-.145.495-.339.794-.582.898-.076.291-.276.602-.598.935a9.965 9.965 0 0 1-2.066 1.609c-.856.496-1.62.874-2.296 1.133Z" fill="#4053FF"/><path d="M26.101 116.578a7.68 7.68 0 0 1-1.144.2c-.44.057-.73.029-.872-.085-.097-.176-.233-.589-.408-1.24a87.603 87.603 0 0 1-.845-3.444c-.632-2.702-.933-4.244-.904-4.625-.108-.214-.216-.524-.324-.93l-.312-1.22-.175-.712a7.408 7.408 0 0 0-.183-.572 17.475 17.475 0 0 1-.364-1.192c-.114-.424-.16-.75-.141-.978-.149-.254-.278-.588-.39-1.003l-.054-.258a2.447 2.447 0 0 0-.086-.265c-.623.086-1.37.245-2.237.478-.859.23-1.663.455-2.412.676-.448.141-.818.25-1.11.328-.293.079-.47.116-.532.112a12.209 12.209 0 0 1-.59-1.585c-.167-.623-.239-1.155-.215-1.596.91-.416 2.174-.886 3.793-1.41l11.794-3.13c.16.3.349.852.563 1.653.099.368.158.61.18.726.028.184.012.37-.049.558a2.71 2.71 0 0 0-.11.38c-.362.045-1.038.201-2.029.467-2.037.546-3.212.896-3.525 1.05l.885 3.024.403 1.166 1.629 6.372c.153.647.293 1.378.42 2.193.062.61.178 1.231.347 1.863l.3 1.012c.091.339.167.678.227 1.016-.105.402-.615.726-1.53.971Z" fill="#E440FF"/><path d="m19.972 91.713-.497-.035c-.4-.028-1.168-.101-2.305-.22l.002-.029-1.404-.083-1.009-.056c-.72-.05-1.367-.125-1.937-.224-.009-.441.013-1.38.064-2.815.092-2.725.211-5.13.357-7.214.188-2.699.378-4.227.57-4.586-.054-.346-.054-.91 0-1.688a54.04 54.04 0 0 1 .45-4.125c.27-.216 1.266-.264 2.99-.143.721.05 1.49.119 2.306.205a19.961 19.961 0 0 0 2.163.152c.382-.003.753.008 1.113.033 1.014.071 1.926.248 2.739.53.078.416.098.907.059 1.472a3.933 3.933 0 0 1-.108.698c-.092.345-.26.51-.504.493l-3.01-.225-2.993-.239a39.08 39.08 0 0 0-1.902-.104l-.092 1.11-.064.92-.079.92a47.604 47.604 0 0 0-.22 2.305c-.021.312-.03.566-.023.762.14.098 1.038.205 2.694.32 1.013.071 1.995.16 2.947.265.952.106 1.607.26 1.965.46.112.645.154 1.167.126 1.566-.03.438-.149.729-.355.871-.339.23-1.18.3-2.525.205l-.715-.064-1.579-.096-2.74-.074-.429 4.448c.895.23 2.676.437 5.346.624 1.91.133 2.928.258 3.057.375.13.371.174.8.13 1.287a6.31 6.31 0 0 1-.225 1.335c-.105.394-.293.625-.562.695-.22.053-.465.07-.738.051l-.657-.046-2.406-.036Z" fill="#FF498B"/><path d="M22.802 58.225c-1.694.39-3.48.402-5.359.034-.607-.11-1.298-.347-2.073-.709-1.693-.782-2.837-1.875-3.432-3.282a2.865 2.865 0 0 0-.306-.545c-.445-.54-.887-1.61-1.327-3.212a12.95 12.95 0 0 1-.152-.596c-.467-2.027-.4-3.912.2-5.654.598-1.752 1.95-3.347 4.053-4.784.835-.594 1.62-.975 2.352-1.145l.492-.083a3.829 3.829 0 0 0 1.17-.466 3.95 3.95 0 0 1 .712-.24c.238-.054.583-.119 1.037-.194.452-.084.936-.156 1.454-.215.515-.069.891-.09 1.127-.065.174.32.332.72.472 1.2.042.18.114.514.216 1.002.1.478.056.914-.134 1.309a1.376 1.376 0 0 1-.21.063c-.21.048-.528.082-.955.1a14.164 14.164 0 0 0-2.735.33 7.987 7.987 0 0 0-1.882.706l-.05.042c-.612.301-1.182.654-1.71 1.056-.676.507-1.094 1.215-1.255 2.124-.075.498-.16.804-.255.916l.063.27c.087.381.165.85.233 1.405.056.458.117.855.184 1.19.272.96.658 1.808 1.158 2.544.181.31.345.607.492.894.317.157.594.319.833.484.248.164.497.311.748.444.25.123.56.207.93.251.598.073 1.605-.014 3.022-.261.22-.041.42-.072.595-.093.65-.09 1.193-.17 1.628-.24.558-.099.973-.15 1.243-.152.268-.011.456.045.565.17.107.116.206.329.298.638.12.434.264.886.433 1.358.144.408.266.806.365 1.194l.043.186c.04.17.049.299.028.384-.131.21-.34.374-.623.49a7.216 7.216 0 0 1-.886.264 6.925 6.925 0 0 0-.79.228c-.656.282-1.327.502-2.012.66Z" fill="#4053FF"/><path d="M32.607 26.032a5.564 5.564 0 0 1-.679.123c-.194.029-.362.06-.505.096-.495.113-.857.174-1.087.18-.22.005-.379-.066-.476-.213-.09-.159-.185-.422-.287-.789l-.02-.085c-.128-.512-.402-1.269-.823-2.271a61.378 61.378 0 0 1-1.385-3.565c-.485-1.379-.868-2.355-1.152-2.928-.2.734-.275 3.098-.227 7.092.024 2.359.007 3.666-.05 3.922l-.53.238a9.426 9.426 0 0 1-1.078-1.483l-.461-.7a8.317 8.317 0 0 1-.717-1.12 9.145 9.145 0 0 0-.677-1.144c-.362-.484-.92-1.472-1.674-2.964a20.442 20.442 0 0 0-.412-.804c-.12-.241-.223-.452-.308-.632a3.514 3.514 0 0 0-.192-.285c-.028-.033-.056-.046-.085-.039a.1.1 0 0 1-.078-.01l-.195 3.279a42.307 42.307 0 0 0-.127 2.462l-.015.789c-.034 1.116-.032 1.95.005 2.505.05.642.017 1.057-.097 1.247-.092.154-.31.273-.65.358-.503.125-.929.192-1.28.198-.21.003-.455-.052-.735-.163l-.053-.214c-.099-.398-.208-1.1-.328-2.107a83.835 83.835 0 0 1-.317-3.152c-.082-1.097-.083-1.79-.005-2.082a.763.763 0 0 1-.085-.22 4.733 4.733 0 0 1-.095-.746 10.886 10.886 0 0 1 .005-2.1 19.321 19.321 0 0 1-.019-2.018c.01-1.13-.012-1.809-.07-2.036.041-.121.068-.56.08-1.319.037-1.065.117-2.238.242-3.517.134-1.281.39-2.13.77-2.547.523.403.91.926 1.16 1.568.151.324.332.647.542.967 1.438 2.218 2.945 4.977 4.522 8.278l.24.483c.157-.3.231-.792.223-1.474-.002-.815.425-3.322 1.282-7.521.302-1.495.53-2.503.682-3.024.159-.532.357-.828.594-.887a.743.743 0 0 1 .316-.004c.035.022.194.455.475 1.3.869 2.602 1.488 4.119 1.857 4.55.014.218.057.474.13.768.147.587.476 1.547.989 2.878.236.585.418 1.074.546 1.464l1.703 5.388c.225.296.522 1.188.893 2.676.141.569.2.926.176 1.073-.087.133-.24.226-.458.28Z" fill="#FFB240"/><path d="M17.026 422.908c2.239.815 3.899.25 4.98-1.694.146-.29.32-.611.521-.964.565-1.011.929-1.741 1.092-2.19.977-2.69.989-5.465.034-8.328a1.758 1.758 0 0 1-.372-.307 1.296 1.296 0 0 0-.537-.367c-.165-.06-.402-.094-.71-.102-.911-.01-1.52.034-1.825.131-.85.397-1.695 1.175-2.532 2.336-.837 1.161-1.415 2.177-1.731 3.049l-.547 1.547c-.3.826-.613 1.6-.938 2.324.06.094.115.483.168 1.168.04.835.118 1.42.235 1.753.227.52.79 1 1.69 1.442.158.078.316.146.472.202Zm-2.594 3.063c-1.854-.675-3-1.893-3.442-3.654-.135-.6-.179-1.494-.131-2.682a22.88 22.88 0 0 1 .388-3.428c.096-.464.204-.861.324-1.192.16-.44.342-.754.544-.94.033-.175.09-.373.17-.593.176-.486.52-1.177 1.033-2.071a20.344 20.344 0 0 1 1.893-2.725c.76-.918 1.4-1.449 1.92-1.593.441-.556 1.306-.948 2.594-1.176 1.29-.236 2.446-.227 3.464.03l.777.22c.286.073.53.146.731.22.19.079.384.202.584.368.477.402.939.903 1.386 1.502.605.823.9 1.413.884 1.771.261.397.402.952.423 1.667.034.708.031 1.372-.007 1.992-.035.611-.03.982.016 1.113-.087.498-.16.997-.216 1.496a12.9 12.9 0 0 1-.685 3.086 6.39 6.39 0 0 1-.258.452c-.097.152-.174.28-.233.383a1.478 1.478 0 0 0-.104.414c.01.087-.007.221-.052.402-.14.355-.336.683-.592.985a8.964 8.964 0 0 0-.38.532c-.553.921-1.32 1.775-2.302 2.56-.973.79-1.997 1.248-3.072 1.377-.906.262-2.01.286-3.314.071a12.895 12.895 0 0 1-2.343-.587Z" fill="#3DFF7F"/><path d="m17.146 445.207 3.284-.683c.115-.022.17-.053.162-.091l-.046-.081c-.64-1.348-1.07-2.388-1.292-3.121-.335-1.009-.669-1.626-1-1.85l-.138.907c-.18.921-.287 1.598-.322 2.033l-.226.909c-.253.955-.393 1.614-.422 1.977Zm-1.317 9.359-.087.017c-.182.035-.673.091-1.474.167-.868.089-1.356.114-1.463.076a.755.755 0 0 1-.116-.291c-.072-.374.001-1.199.22-2.476.08-.463.13-.82.15-1.073.012-.301.041-.714.088-1.241.128-1.338.309-2.204.54-2.597-.029-.203-.024-.537.015-1.003.084-.901.2-1.715.347-2.44.227-1.238.613-2.994 1.156-5.268.636-2.671 1.069-4.103 1.3-4.297.095-.635.287-1.11.574-1.425.42.217.935.898 1.545 2.043.235.442.38.781.437 1.019.236.193.582.693 1.037 1.5.28.522.536.915.766 1.179.157.298.409.746.754 1.346l2.54 4.55c2.49 4.48 3.768 6.888 3.833 7.223l.003.015c-.13.204-.273.336-.43.397a1.678 1.678 0 0 1-.31.09c-.068.013-.15.024-.248.033a1.48 1.48 0 0 0-.308.03l-.54.135c-.15.049-.292.086-.426.113a2.27 2.27 0 0 1-.787.018c-.387-.352-1.08-1.541-2.08-3.565-.447-.918-.82-1.611-1.12-2.08a6.29 6.29 0 0 0-.593.175 4.534 4.534 0 0 1-.653.171l-.158.031c-.184.026-.425.068-.722.125-.824.161-1.81.442-2.955.843-.239.873-.46 2.423-.664 4.651l-.171 1.809Z" fill="#9F54FF"/><path d="M21.028 481.603a7.616 7.616 0 0 1-1.076-.436c-.404-.184-.635-.362-.695-.534.01-.201.114-.624.31-1.268.34-1.112.708-2.235 1.106-3.369.894-2.627 1.454-4.095 1.68-4.403.022-.239.095-.559.217-.96l.382-1.201.228-.696c.048-.159.098-.353.147-.583.092-.401.2-.802.322-1.204.128-.42.26-.722.398-.904.008-.294.075-.646.2-1.057l.091-.248c.029-.094.051-.184.068-.271a18.987 18.987 0 0 0-2.151-.78 96.49 96.49 0 0 0-2.404-.704 28.882 28.882 0 0 1-1.116-.311c-.29-.088-.459-.15-.51-.186.065-.512.177-1.064.338-1.658.189-.617.41-1.106.663-1.468.991.13 2.313.401 3.963.814l11.66 3.596c-.022.34-.154.907-.396 1.701-.111.364-.189.601-.232.71a1.186 1.186 0 0 1-.336.449 2.66 2.66 0 0 0-.295.262c-.331-.152-.987-.378-1.968-.678-2.017-.617-3.199-.942-3.546-.977l-.85 3.034-.274 1.202-1.99 6.269c-.213.63-.481 1.324-.805 2.083-.27.55-.5 1.139-.692 1.764l-.28 1.018c-.102.336-.218.663-.345.981-.302.286-.906.29-1.812.013Z" fill="#FF629A"/><path d="M18.866 509.346c-.51.136-.933.255-1.27.357l-.433.133c-.271.083-.488.144-.65.183a1.391 1.391 0 0 1-.199-.352.67.67 0 0 1-.037-.173c.015-.086-.005-.218-.06-.395a2.872 2.872 0 0 0-.195-.492 8.055 8.055 0 0 1-.17-.407 5.413 5.413 0 0 1-.228-1.095 5.837 5.837 0 0 0-.218-1.067 128.684 128.684 0 0 1-1.583-4.785 201.549 201.549 0 0 1-1.084-3.651c-.67-2.359-.996-3.648-.982-3.867a11.592 11.592 0 0 1-.75-1.854 10.819 10.819 0 0 1-.277-1.11c-.05-.229-.105-.463-.167-.699.261-.08.508-.176.74-.287.237-.124.602-.266 1.094-.427.586-.189 1.681-.529 3.288-1.02 2.352-.689 3.836-1.015 4.45-.978.081.169.155.361.22.576.055.177.104.372.148.583.041.202.092.401.152.597.143.671-.117 1.154-.783 1.449a8.31 8.31 0 0 1-1.043.396 12.89 12.89 0 0 1-1.166.295c-.407.073-.82.174-1.24.303-.543.227-1.09.425-1.641.593l1.202 4.289c.051.27.127.569.227.896.128.42.297.889.506 1.407.227.575.411 1.095.554 1.562.057.187.469 1.705 1.237 4.554l.656 2.051c.127.349.23.65.306.902.077.253.138.5.18.742.053.239.01.415-.129.529-.11.075-.328.162-.655.262Z" fill="#FFB240"/><path d="m24.433 403.95-.476.145a84.12 84.12 0 0 1-2.23.621l-.01-.028-1.34.425-.962.31c-.691.211-1.32.373-1.889.485-.166-.409-.481-1.292-.947-2.651a204.424 204.424 0 0 1-2.249-6.864c-.79-2.588-1.16-4.083-1.109-4.486-.174-.304-.376-.83-.604-1.577a54.133 54.133 0 0 1-1.056-4.012c.175-.299 1.088-.701 2.741-1.206a66.051 66.051 0 0 1 2.226-.635 20.167 20.167 0 0 0 2.074-.633c.355-.14.706-.262 1.051-.368.972-.297 1.887-.459 2.746-.487.223.361.417.812.582 1.354.074.243.124.472.15.689.037.357-.061.57-.295.642l-2.89.868-2.88.85a38.84 38.84 0 0 0-1.813.585l.311 1.069.27.882.255.887c.197.778.403 1.521.62 2.231.091.299.175.539.25.72.166.041 1.043-.181 2.63-.666a71.75 71.75 0 0 1 2.847-.809c.927-.243 1.593-.334 2-.274.334.561.56 1.033.677 1.416.128.42.122.734-.02.94-.234.337-.995.703-2.284 1.097l-.69.196-1.51.476-2.584.913 1.192 4.308c.917-.107 2.655-.552 5.214-1.334 1.83-.559 2.826-.808 2.988-.745.255.3.45.685.583 1.155.145.476.234.918.267 1.327.042.406-.05.689-.276.85a2.393 2.393 0 0 1-.67.313l-.631.192-2.26.829Z" fill="#E440FF"/><path d="M27.886 377.57a5.33 5.33 0 0 1-.661-.198 4.928 4.928 0 0 0-.493-.143c-.493-.124-.843-.235-1.05-.333-.2-.096-.308-.232-.328-.407-.008-.182.026-.46.102-.833l.02-.086c.118-.513.217-1.312.297-2.397.076-1.155.203-2.423.38-3.805.195-1.449.295-2.493.302-3.133-.51.564-1.65 2.636-3.417 6.217-1.049 2.113-1.656 3.271-1.823 3.473l-.58-.029a9.43 9.43 0 0 1-.289-1.811l-.093-.833a8.306 8.306 0 0 1-.131-1.323 9.16 9.16 0 0 0-.085-1.328c-.104-.595-.153-1.729-.148-3.401.006-.33.005-.631-.002-.903.002-.27.006-.505.011-.704a3.543 3.543 0 0 0-.041-.34c-.01-.043-.03-.067-.058-.074a.095.095 0 0 1-.065-.045l-1.66 2.834a42.344 42.344 0 0 0-1.23 2.137l-.37.696c-.537.979-.914 1.723-1.132 2.234-.247.595-.465.951-.652 1.068-.152.095-.4.103-.742.024-.505-.117-.915-.251-1.23-.404-.189-.094-.382-.254-.58-.48l.049-.214c.092-.4.313-1.076.662-2.027.352-.961.734-1.946 1.147-2.953.424-1.014.737-1.634.94-1.858a.763.763 0 0 1 .023-.235c.038-.161.122-.397.254-.708.28-.697.6-1.32.957-1.869.201-.484.5-1.087.897-1.807.522-1.002.81-1.617.862-1.846.09-.089.313-.468.668-1.138a56.57 56.57 0 0 1 1.81-3.025c.7-1.081 1.314-1.721 1.84-1.92.284.596.392 1.237.324 1.923-.013.358.002.728.045 1.108.276 2.63.368 5.773.276 9.43l-.004.54c.276-.197.565-.601.866-1.213.368-.727 1.886-2.767 4.553-6.12.947-1.195 1.606-1.989 1.978-2.385.383-.402.694-.576.931-.521.096.022.19.069.284.14.022.036-.034.494-.167 1.375-.405 2.713-.54 4.345-.407 4.897a4.437 4.437 0 0 0-.231.744c-.137.59-.278 1.594-.425 3.014a23.677 23.677 0 0 1-.177 1.552l-.924 5.575c.065.366-.074 1.296-.418 2.79-.132.571-.242.916-.33 1.036-.138.079-.316.093-.535.042Z" fill="#FF629A"/><path d="M27.802 347.225c-1.694.391-3.48.402-5.359.034-.607-.11-1.298-.347-2.073-.709-1.693-.782-2.837-1.876-3.432-3.282a2.865 2.865 0 0 0-.306-.545c-.445-.539-.887-1.61-1.327-3.212a13.009 13.009 0 0 1-.152-.596c-.467-2.027-.4-3.912.2-5.654.598-1.752 1.95-3.347 4.053-4.784.835-.594 1.62-.976 2.352-1.145l.492-.083a3.83 3.83 0 0 0 1.17-.466c.237-.105.474-.184.712-.239.238-.055.583-.12 1.037-.195.452-.084.936-.156 1.454-.215.515-.069.891-.09 1.127-.065.174.321.332.72.472 1.199.042.181.114.515.216 1.003.1.478.056.914-.134 1.308a1.362 1.362 0 0 1-.21.064c-.21.049-.528.082-.955.1a14.194 14.194 0 0 0-2.735.331 7.99 7.99 0 0 0-1.882.705l-.05.042a10.34 10.34 0 0 0-1.71 1.056c-.676.507-1.094 1.215-1.255 2.124-.076.498-.16.804-.255.916l.063.271c.087.38.165.849.233 1.404.056.458.117.855.184 1.19.272.96.658 1.808 1.158 2.544.181.309.345.607.492.894.317.158.594.319.833.484.248.164.497.311.748.444.25.123.56.207.93.251.598.073 1.605-.015 3.022-.261.22-.041.42-.072.595-.093.65-.09 1.193-.17 1.628-.24.558-.099.973-.15 1.243-.152.268-.012.456.045.565.17.107.116.206.329.298.638.12.434.264.886.433 1.359.144.407.266.805.365 1.193l.043.186c.04.171.049.299.029.384-.132.211-.34.374-.624.49a7.179 7.179 0 0 1-.886.264 6.798 6.798 0 0 0-.79.228c-.656.282-1.327.502-2.012.66Z" fill="#4053FF"/><path d="M18.416 312.984c2.564.553 4.084.085 4.561-1.404.23-.909.01-1.699-.662-2.369-.254-.215-.641-.458-1.163-.73-.521-.271-.918-.446-1.19-.524l-.539 1.933a45.83 45.83 0 0 1-1.007 3.094Zm-5.162 11.854-.183-.052a3.988 3.988 0 0 1-1.21-.561c.19-1.377.51-2.845.955-4.404.331-1.155.733-2.365 1.208-3.631.486-1.344.88-2.541 1.18-3.593l.584-2.301.12-.423c.347-1.211.607-1.853.78-1.925a3.69 3.69 0 0 1 .117-.515c.043-.15.117-.388.22-.714.113-.323.255-.714.427-1.173.182-.456.323-.771.423-.945.352-.093.903-.031 1.654.184 1.06.304 2.176.756 3.345 1.356.957.487 1.61.939 1.959 1.354.493.619.781.996.864 1.131.164.281.308.876.434 1.786.041.53-.038 1.142-.237 1.837l-.191.615c-.12.383-.357.731-.711 1.046-.25.518-.686 1.048-1.309 1.591-.622.542-1.212.881-1.769 1.016-1.457.263-2.93.247-4.42-.048-.177.335-.434.932-.771 1.79-.7 1.77-1.2 3.177-1.498 4.219l-.115.454c-.075.263-.143.482-.203.658l-.06.211a3.338 3.338 0 0 0-.124 1.123c-.417.074-.907.045-1.469-.086Z" fill="#FFB240"/><path d="M13.414 615.965c2.301-.617 3.338-2.032 3.11-4.246a22.572 22.572 0 0 1-.125-1.089c-.116-1.152-.236-1.959-.36-2.421-.739-2.764-2.32-5.045-4.742-6.843-.18.008-.34-.004-.48-.038a1.29 1.29 0 0 0-.65.008c-.17.045-.383.153-.641.323-.752.515-1.225.9-1.42 1.154-.47.813-.716 1.936-.737 3.367-.022 1.431.088 2.595.327 3.491l.439 1.581c.227.849.414 1.664.562 2.443.103.043.371.33.807.861.51.661.91 1.095 1.197 1.301.483.296 1.22.366 2.21.212a4.73 4.73 0 0 0 .503-.104Zm-.372 3.997c-1.905.51-3.543.17-4.912-1.02-.455-.414-1.003-1.121-1.645-2.122a22.86 22.86 0 0 1-1.645-3.032 8.639 8.639 0 0 1-.417-1.162c-.121-.453-.152-.814-.092-1.082a3.794 3.794 0 0 1-.202-.583c-.134-.5-.247-1.264-.34-2.29a20.389 20.389 0 0 1-.008-3.319c.097-1.189.317-1.991.66-2.406.043-.709.527-1.526 1.452-2.452.923-.934 1.875-1.589 2.856-1.963l.764-.265c.275-.104.516-.184.724-.24.2-.043.43-.054.689-.033a8.933 8.933 0 0 1 1.996.436c.967.327 1.547.642 1.74.944.44.175.874.549 1.3 1.123a18.29 18.29 0 0 1 1.136 1.637c.321.52.538.821.65.902.214.458.44.908.68 1.35.517.912.92 1.886 1.206 2.922.022.156.038.328.048.518.008.18.017.329.029.447.05.189.1.322.152.399.058.065.12.185.187.359.089.371.115.753.08 1.147a8.83 8.83 0 0 0-.008.654c.075 1.072-.065 2.211-.42 3.418-.345 1.205-.92 2.168-1.729 2.89-.591.735-1.483 1.388-2.674 1.96-.797.386-1.55.673-2.257.863Z" fill="#3DFF7F"/><path d="m10.53 640.904 3.237.882c.112.032.174.03.185-.008l-.004-.092c.04-1.492.129-2.615.263-3.369.159-1.051.141-1.752-.053-2.103l-.534.746c-.577.739-.98 1.294-1.208 1.666l-.614.707c-.657.736-1.082 1.26-1.272 1.571Zm-5.417 7.742-.084-.024c-.179-.051-.642-.225-1.39-.52-.814-.315-1.26-.514-1.338-.597a.75.75 0 0 1 .029-.312c.105-.366.544-1.068 1.319-2.106.28-.377.487-.673.62-.889.146-.263.36-.618.64-1.066.721-1.134 1.274-1.824 1.66-2.069.065-.194.22-.49.467-.887.483-.765.955-1.438 1.415-2.017.764-1 1.903-2.39 3.419-4.17 1.777-2.092 2.812-3.171 3.106-3.239.373-.523.76-.86 1.158-1.009.276.383.426 1.224.45 2.521.01.501-.015.87-.072 1.107.123.279.204.882.244 1.807.013.593.062 1.06.148 1.399.005.337.026.851.062 1.542l.2 5.208c.189 5.123.236 7.849.142 8.178l-.004.014c-.208.123-.396.176-.564.159a1.742 1.742 0 0 1-.317-.061 2.728 2.728 0 0 1-.236-.083 1.412 1.412 0 0 0-.288-.113l-.543-.125a3.44 3.44 0 0 1-.43-.093 2.263 2.263 0 0 1-.71-.341c-.185-.49-.264-1.863-.237-4.121.018-1.021 0-1.809-.055-2.363a6.475 6.475 0 0 0-.608-.113 4.635 4.635 0 0 1-.66-.144l-.154-.044c-.176-.06-.41-.132-.7-.216-.808-.231-1.813-.428-3.016-.59-.608.669-1.508 1.95-2.7 3.843l-.973 1.534Z" fill="#9F54FF"/><path d="M24.832 675.658a7.66 7.66 0 0 1-1.078.434c-.418.147-.708.18-.87.098-.132-.152-.35-.528-.656-1.129a87.225 87.225 0 0 1-1.542-3.192c-1.18-2.512-1.795-3.958-1.845-4.338-.15-.186-.32-.467-.51-.841l-.559-1.13-.319-.659a7.342 7.342 0 0 0-.298-.522 17.464 17.464 0 0 1-.604-1.09c-.2-.391-.313-.701-.34-.928-.199-.217-.395-.517-.59-.9l-.107-.241a2.545 2.545 0 0 0-.139-.242c-.592.214-1.289.525-2.089.933-.792.404-1.531.792-2.219 1.164-.408.23-.748.414-1.017.551-.27.138-.436.211-.497.22a12.244 12.244 0 0 1-.907-1.428c-.292-.575-.473-1.08-.541-1.516.803-.596 1.942-1.319 3.416-2.169l10.886-5.513c.22.26.518.76.895 1.5.172.34.28.564.325.673.067.174.09.359.07.556a2.714 2.714 0 0 0-.03.394c-.344.12-.973.413-1.887.879-1.88.957-2.956 1.544-3.23 1.76l1.494 2.774.636 1.057 2.917 5.895c.284.601.573 1.287.866 2.058.188.584.43 1.167.727 1.751l.504.926c.16.314.304.629.433.947-.02.415-.45.838-1.295 1.268Z" fill="#FF498B"/><path d="M19.11 699.061c-.227 1.3-.953 2.283-2.176 2.95-1.212.658-2.425 1.001-3.639 1.029-.753.045-1.456.042-2.109-.008a14.343 14.343 0 0 1-2.143-.337c.002-.659.106-1.95.313-3.873.085-.855.178-1.7.28-2.533.129-1.047.3-2.281.513-3.701.215-1.43.43-2.333.643-2.71-.013-.061 0-.251.04-.571.04-.32.09-.692.152-1.118l.182-1.246c.079-.561.135-.938.168-1.131.05-.407.089-.84.115-1.299.01-.324.034-.636.07-.936.071-.572.19-1.099.357-1.58l.523.064c.624.047 1.217.105 1.78.174.339.042.663.087.972.135.367.055.759.108 1.176.159l.96.118c.31.038.635.068.977.09.354.004.69.026 1.01.065a7.028 7.028 0 0 1 1.507.348l-.178 1.572a2.144 2.144 0 0 0-.017.263c-.004.108-.011.21-.023.307-.035.281-.104.489-.21.624-.119.172-.43.227-.935.165l-.072-.008a21.76 21.76 0 0 1-1.549-.25c-.413-.08-.823-.15-1.229-.21l-.494-.06a39.958 39.958 0 0 1-1.523-.217 368.26 368.26 0 0 1-.858 4.588 63.744 63.744 0 0 1-.298 1.587c.626.116 1.292.301 1.998.555.707.254 1.294.567 1.76.939a3.468 3.468 0 0 1 1.724 1.585c.233.422.4.87.5 1.345.024.2.037.536.038 1.008 0 .473-.02.928-.064 1.365l-.013.102c-.046.378-.122.595-.227.651Zm-7.064.328-.058.952c.304.086.607.148.907.185.495.061.992.053 1.494-.023.373-.073.671-.183.896-.333.225-.149.433-.316.622-.499.124-.123.257-.244.4-.364.042-.192.09-.378.142-.559.079-.246.142-.523.19-.832.126-1.264-.384-2.207-1.527-2.829a4.377 4.377 0 0 0-2.329-.508l-.007.058a5.18 5.18 0 0 0-.115.577l-.012.101a4.06 4.06 0 0 0-.021.529l-.582 3.545Z" fill="#FFB240"/><path d="M22.101 597.213a7.68 7.68 0 0 1-1.144.2c-.44.057-.73.029-.872-.085-.097-.176-.233-.589-.408-1.24a87.603 87.603 0 0 1-.845-3.444c-.632-2.702-.933-4.244-.904-4.625-.108-.214-.216-.524-.324-.93l-.312-1.22-.175-.712a7.408 7.408 0 0 0-.183-.572 17.475 17.475 0 0 1-.364-1.192c-.114-.424-.16-.75-.141-.978-.149-.253-.278-.588-.39-1.003l-.054-.258a2.447 2.447 0 0 0-.086-.265c-.623.086-1.37.245-2.237.478-.859.23-1.663.455-2.412.676-.448.141-.818.25-1.11.328-.293.079-.47.116-.531.112a12.199 12.199 0 0 1-.591-1.585c-.167-.623-.239-1.155-.215-1.596.91-.416 2.174-.886 3.793-1.41l11.794-3.13c.16.3.349.851.563 1.653.099.368.158.61.18.726.028.184.012.37-.049.559a2.66 2.66 0 0 0-.11.378c-.362.046-1.038.202-2.029.468-2.037.546-3.212.896-3.525 1.05l.885 3.024.403 1.166 1.629 6.372c.153.647.293 1.378.42 2.193.062.61.178 1.231.347 1.863l.3 1.012c.091.339.167.678.227 1.016-.105.402-.615.726-1.53.971Z" fill="#E440FF"/><path d="m15.972 572.348-.497-.035c-.4-.028-1.168-.101-2.305-.22l.002-.029-1.404-.083-1.009-.056a19.477 19.477 0 0 1-1.937-.224c-.009-.441.013-1.379.064-2.815.092-2.725.211-5.129.357-7.214.188-2.699.378-4.227.57-4.586-.054-.346-.054-.909 0-1.688.095-1.364.245-2.739.45-4.125.27-.216 1.266-.264 2.99-.143.721.05 1.49.119 2.306.205a19.863 19.863 0 0 0 2.163.152c.382-.003.753.008 1.113.033 1.014.071 1.926.248 2.739.53.078.416.098.907.059 1.472a3.924 3.924 0 0 1-.108.697c-.092.346-.26.511-.504.494l-3.01-.225-2.993-.239a39.257 39.257 0 0 0-1.902-.104l-.092 1.11-.064.921-.079.919a47.651 47.651 0 0 0-.22 2.305c-.021.312-.03.566-.023.762.14.098 1.038.205 2.694.32 1.013.071 1.995.16 2.947.265.952.106 1.607.259 1.965.461.112.644.154 1.166.126 1.565-.03.438-.149.729-.355.871-.339.231-1.18.299-2.525.205l-.715-.065-1.579-.095-2.74-.074-.429 4.448c.895.229 2.677.437 5.346.624 1.91.133 2.928.258 3.057.375.13.371.174.8.13 1.287-.034.497-.11.942-.225 1.335-.105.394-.293.626-.562.695-.22.053-.465.07-.738.051l-.657-.046-2.406-.036Z" fill="#FF498B"/><path d="M18.802 538.86c-1.694.391-3.48.402-5.359.034-.607-.11-1.297-.347-2.072-.709-1.694-.782-2.838-1.875-3.433-3.282a2.866 2.866 0 0 0-.306-.545c-.445-.539-.887-1.61-1.327-3.212a12.982 12.982 0 0 1-.152-.596c-.467-2.027-.4-3.912.2-5.654.598-1.752 1.95-3.346 4.053-4.784.835-.594 1.62-.976 2.352-1.145l.492-.083a3.83 3.83 0 0 0 1.17-.466c.237-.104.474-.184.712-.239.238-.055.583-.12 1.037-.195.452-.084.936-.156 1.454-.215.515-.069.891-.09 1.127-.065.174.321.332.72.472 1.199.042.181.114.515.216 1.003.1.478.056.914-.134 1.308a1.362 1.362 0 0 1-.21.064c-.21.049-.528.082-.955.1a14.194 14.194 0 0 0-2.735.331 7.99 7.99 0 0 0-1.882.705l-.05.042a10.34 10.34 0 0 0-1.71 1.056c-.676.507-1.094 1.215-1.255 2.124-.075.498-.16.804-.255.916l.063.271c.087.38.165.849.233 1.404.056.458.117.855.184 1.19.272.96.658 1.808 1.158 2.544.181.309.345.607.492.894.317.158.594.319.833.484.248.164.498.311.748.444.25.123.56.207.93.251.598.073 1.605-.014 3.022-.261.22-.041.42-.072.595-.093.65-.09 1.193-.17 1.628-.24.558-.099.973-.15 1.243-.152.268-.012.456.045.565.17.107.116.206.329.298.638.12.434.264.886.433 1.359.144.407.266.805.365 1.193l.043.186c.04.171.049.299.028.384-.131.211-.34.374-.623.49a7.179 7.179 0 0 1-.886.264 6.798 6.798 0 0 0-.79.228c-.656.282-1.327.502-2.012.66Z" fill="#4053FF"/></svg>