<svg width="26" height="716" fill="none" xmlns="http://www.w3.org/2000/svg"><path d="m1.305 131.567 3.228-.911c.114-.03.165-.064.155-.102l-.051-.077c-.732-1.301-1.234-2.308-1.506-3.024-.405-.983-.78-1.575-1.128-1.776l-.073.915c-.115.93-.175 1.614-.18 2.05l-.162.923c-.186.97-.28 1.637-.283 2.002Zm-.662 9.428-.085.023c-.18.048-.666.138-1.46.269-.86.15-1.344.209-1.454.178a.755.755 0 0 1-.136-.282c-.098-.368-.082-1.197.048-2.485.047-.468.072-.828.075-1.082-.01-.3-.01-.715 0-1.244.035-1.343.155-2.22.359-2.628-.044-.201-.062-.534-.056-1.001.021-.906.08-1.725.177-2.459.14-1.251.402-3.029.786-5.336.448-2.709.78-4.168.997-4.377.051-.641.21-1.128.474-1.462.434.187.995.831 1.683 1.93.266.424.435.753.507.987.25.175.629.65 1.14 1.423.315.502.597.876.845 1.123.178.286.46.716.846 1.29l2.85 4.362c2.797 4.296 4.24 6.609 4.328 6.939l.004.014c-.115.213-.249.355-.402.426-.09.044-.19.081-.303.112a2.875 2.875 0 0 1-.245.05c-.09.004-.191.021-.305.051l-.53.173a3.738 3.738 0 0 1-.416.142 2.261 2.261 0 0 1-.785.073c-.41-.324-1.184-1.462-2.322-3.411-.51-.885-.93-1.551-1.263-1.997a6.505 6.505 0 0 0-.579.215 4.477 4.477 0 0 1-.64.217l-.155.042c-.182.039-.419.097-.711.175-.811.218-1.774.567-2.89 1.047-.176.887-.29 2.449-.338 4.686l-.044 1.817Z" fill="#3DFF7F"/><path d="M1.746 166.954c2.29.657 3.907-.023 4.85-2.038.126-.299.277-.632.453-.998.493-1.047.805-1.801.937-2.261.787-2.751.605-5.521-.547-8.309a1.787 1.787 0 0 1-.392-.28 1.28 1.28 0 0 0-.56-.329c-.17-.048-.409-.066-.717-.053-.91.054-1.513.14-1.811.258-.821.455-1.609 1.291-2.363 2.507-.755 1.216-1.26 2.27-1.515 3.162l-.438 1.581c-.242.845-.5 1.64-.774 2.384.066.09.149.475.25 1.154.097.83.216 1.408.356 1.733.263.502.858.942 1.786 1.319.164.068.325.124.485.17Zm-2.374 3.235c-1.896-.543-3.126-1.678-3.688-3.404-.177-.589-.283-1.478-.318-2.666a22.885 22.885 0 0 1 .149-3.447c.063-.47.143-.874.24-1.212.129-.45.288-.775.477-.975.02-.177.063-.378.127-.604.143-.497.438-1.21.887-2.138a20.374 20.374 0 0 1 1.7-2.85c.693-.969 1.295-1.544 1.803-1.723.401-.586 1.237-1.037 2.506-1.354 1.271-.326 2.424-.397 3.458-.212l.79.166c.29.052.539.108.745.168.195.065.397.174.608.326.504.368 1 .835 1.488 1.402.66.779.995 1.347 1.005 1.705.288.378.467.922.538 1.633.082.704.126 1.367.131 1.988.008.612.04.982.094 1.109-.052.503-.09 1.006-.111 1.507a12.895 12.895 0 0 1-.469 3.127 6.355 6.355 0 0 1-.225.469 8.594 8.594 0 0 0-.206.398 1.477 1.477 0 0 0-.075.42c.017.086.008.221-.024.405a3.51 3.51 0 0 1-.522 1.024 8.51 8.51 0 0 0-.342.557c-.487.957-1.193 1.862-2.118 2.714-.915.855-1.905 1.384-2.969 1.587-.885.326-1.986.427-3.301.303a12.864 12.864 0 0 1-2.378-.423Z" fill="#9F54FF"/><path d="m15.315 196.007-.444.226c-.357.182-1.053.515-2.089.999l-.013-.026-1.247.651-.893.472a19.34 19.34 0 0 1-1.776.806c-.234-.374-.699-1.189-1.393-2.447a203.815 203.815 0 0 1-3.405-6.37c-1.227-2.411-1.85-3.819-1.87-4.225-.225-.27-.515-.752-.869-1.449a53.803 53.803 0 0 1-1.736-3.768c.12-.324.95-.878 2.49-1.663a66.703 66.703 0 0 1 2.082-1.012 20.217 20.217 0 0 0 1.932-.984c.326-.199.65-.38.972-.544.905-.461 1.778-.78 2.62-.957.281.317.55.728.807 1.232.115.227.204.445.267.654.098.344.039.572-.179.683l-2.695 1.356-2.689 1.338c-.844.43-1.405.727-1.683.89l.491.999.419.823.405.829c.329.731.661 1.428.998 2.089.141.279.265.501.371.666.17.012.995-.359 2.474-1.113a73.217 73.217 0 0 1 2.663-1.291c.87-.4 1.511-.605 1.922-.617.427.495.731.921.912 1.277.2.392.248.702.145.93-.172.372-.859.865-2.06 1.476l-.646.313-1.403.732-2.387 1.348 1.921 4.035c.885-.265 2.52-1.004 4.903-2.219 1.706-.869 2.644-1.286 2.814-1.253.303.251.561.597.774 1.036.226.444.39.865.493 1.261.112.393.07.688-.124.886-.16.158-.363.3-.606.424l-.588.299-2.08 1.208Z" fill="#FF498B"/><path d="M14.998 226.427a5.6 5.6 0 0 1-.678-.127 5.357 5.357 0 0 0-.505-.092c-.503-.071-.863-.145-1.08-.221-.207-.075-.33-.198-.368-.37-.027-.18-.022-.46.014-.839l.011-.087c.064-.524.08-1.329.045-2.415a61.45 61.45 0 0 1-.018-3.825c.041-1.461.032-2.51-.027-3.147-.45.614-1.366 2.794-2.75 6.54-.822 2.211-1.306 3.426-1.45 3.644l-.58.032a9.422 9.422 0 0 1-.477-1.77l-.18-.819a8.333 8.333 0 0 1-.268-1.302 9.16 9.16 0 0 0-.223-1.312c-.165-.581-.332-1.703-.502-3.367-.029-.328-.06-.628-.097-.898a32.987 32.987 0 0 1-.061-.701 3.572 3.572 0 0 0-.077-.334c-.015-.041-.037-.063-.066-.067a.1.1 0 0 1-.069-.038l-1.356 2.992a42.024 42.024 0 0 0-.999 2.253l-.296.731c-.431 1.03-.729 1.81-.892 2.341-.184.617-.363.993-.537 1.129-.142.111-.387.145-.736.102-.514-.063-.935-.155-1.265-.274-.198-.073-.407-.212-.628-.416l.027-.218c.05-.407.199-1.102.447-2.085.25-.993.527-2.012.833-3.057.316-1.053.562-1.701.74-1.945a.762.762 0 0 1 0-.236c.02-.165.079-.409.178-.731.206-.723.458-1.376.756-1.959.15-.503.385-1.133.704-1.891.415-1.051.636-1.693.664-1.926.081-.098.263-.499.546-1.202a56.43 56.43 0 0 1 1.484-3.197c.584-1.149 1.127-1.849 1.63-2.102.345.563.519 1.19.523 1.879.025.357.079.723.16 1.097.55 2.586.97 5.703 1.26 9.349l.052.538c.254-.225.499-.657.735-1.297.29-.761 1.586-2.949 3.889-6.562.817-1.287 1.39-2.147 1.718-2.579.34-.44.63-.646.872-.616a.753.753 0 0 1 .297.11c.025.033.018.495-.023 1.385-.119 2.74-.084 4.378.107 4.913a4.405 4.405 0 0 0-.153.763c-.074.601-.11 1.615-.107 3.042.01.631.006 1.152-.015 1.563l-.337 5.64c.104.357.062 1.297-.124 2.819-.072.581-.145.936-.22 1.065-.129.092-.305.125-.528.097Z" fill="#FFB240"/><path d="M5.287 240.104c2.38-1.102 3.314-2.391 2.8-3.868-.363-.865-1.014-1.363-1.953-1.494-.332-.019-.788.02-1.367.117-.58.097-1.002.196-1.267.298l.732 1.868c.381.994.733 2.02 1.055 3.079Zm3 12.577-.177.068c-.456.175-.89.269-1.304.281a32.04 32.04 0 0 1-1.883-4.094 48.13 48.13 0 0 1-1.218-3.628 56.034 56.034 0 0 0-1.216-3.581l-.918-2.19-.157-.41c-.45-1.176-.629-1.845-.534-2.007a3.68 3.68 0 0 1-.216-.482c-.056-.146-.14-.38-.254-.703a55.774 55.774 0 0 1-.363-1.194c-.13-.474-.206-.81-.23-1.01.225-.285.702-.568 1.431-.848 1.03-.395 2.193-.706 3.487-.93 1.058-.187 1.851-.219 2.379-.098.766.198 1.223.326 1.37.384.3.126.773.514 1.42 1.166.351.398.656.935.915 1.61.01.027.083.229.217.607.134.377.154.798.06 1.263.112.564.082 1.25-.089 2.059-.171.808-.438 1.434-.802 1.877a11.787 11.787 0 0 1-3.56 2.621c.06.375.213 1.007.46 1.895.504 1.836.95 3.26 1.338 4.272l.182.432c.098.256.175.472.233.648l.078.206c.137.355.329.679.576.971-.289.31-.697.581-1.224.815Z" fill="#3DFF7F"/><path d="M10.287 262.773c.764.193 1.606.17 2.524-.07.927-.237 1.604-.832 2.031-1.786.145-.437.192-.892.14-1.366a2.32 2.32 0 0 0-.466-1.231c-.206-.22-.503-.451-.89-.691-.375-.246-.68-.417-.915-.512l-.71 1.799a59.552 59.552 0 0 1-1.714 3.857Zm-2.737 9.29c.996.402 1.794.498 2.395.288a3.51 3.51 0 0 0 .697-.318l.469-.222c.078-.168.168-.338.268-.508.136-.208.265-.461.386-.76a3.975 3.975 0 0 0 .237-1.958 2.683 2.683 0 0 0-.847-1.701c-.49-.43-.93-.723-1.319-.88a4.245 4.245 0 0 0-.66-.204l-.027.068a6.144 6.144 0 0 0-.304.636 3.67 3.67 0 0 0-.151.492l-1.822 3.655-.289.911c.319.202.641.369.967.501Zm-2.698 1.833a12.378 12.378 0 0 1-1.567-.776c.125-.465.416-1.343.873-2.633a127.863 127.863 0 0 1 1.861-4.888 66.562 66.562 0 0 1 1.318-3.07c.204-.507.396-1.009.575-1.505.033-.082.06-.161.08-.237l.082-.203c.148-.394.376-.97.683-1.731.485-1.205.826-1.841 1.022-1.909.039-.122.102-.291.19-.508.058-.145.158-.379.298-.701.154-.328.341-.716.564-1.163.235-.452.41-.767.522-.942.389-.075.963.041 1.723.349.037.014.266.112.688.293.422.181 1.013.53 1.773 1.048.772.512 1.286.988 1.54 1.428.359.651.569 1.057.63 1.218.12.302.17.911.147 1.829-.029.515-.171 1.09-.427 1.724-.03.072-.133.304-.312.695a2.63 2.63 0 0 1-.83 1.039c-.28.487-.667.947-1.157 1.381-.482.437-.968.715-1.458.833.148.155.272.305.371.45l.58.519c.024.125.089.304.195.537.297.699.429 1.416.396 2.15-.031.209-.112.566-.243 1.072a11.244 11.244 0 0 1-.486 1.557c-.15.371-.284.575-.404.611-.122.277-.383.609-.78.995a6.42 6.42 0 0 1-1.277.97c-.443.263-.788.35-1.037.26-.254.161-.612.253-1.075.277a9.99 9.99 0 0 1-2.607-.232c-.964-.221-1.781-.467-2.451-.737Z" fill="#E440FF"/><path d="M8.985 301.08c-.61.234-1.03.369-1.257.404a.338.338 0 0 1-.354-.147 2.65 2.65 0 0 1-.285-.58l-.273-.712c-.179-.193-.628-1.228-1.348-3.107-.196-.511-.77-2.089-1.721-4.737a856.815 856.815 0 0 1-2.773-8.177 17.44 17.44 0 0 1-.517-1.183c-.258-.674-.306-1.085-.142-1.231a1.42 1.42 0 0 1 .425-.242l.612-.204.287-.11c.143-.065.267-.123.373-.174.115-.055.204-.094.268-.119.228-.087.355-.11.382-.068.097-.048.202-.114.315-.2a19.159 19.159 0 0 1 2.773-1.033 79.74 79.74 0 0 0 3.11-1.053l.01-.018.336-.145c1.45-.557 2.32-.838 2.61-.845.256 1.104.483 1.917.682 2.436l.15.351c.182.474.476 1.323.883 2.548.5 1.388.992 2.71 1.474 3.969a176.93 176.93 0 0 0 1.202 3.053c.41 1.015.822 2.064 1.238 3.149.503 1.314 1.01 2.677 1.521 4.092-.374.28-.884.544-1.532.792-.474.182-.862.274-1.165.275-.42-.467-.815-1.157-1.186-2.071-.374-.923-.679-1.69-.913-2.301-.238-.62-.466-1.228-.684-1.824-.221-.606-.416-1.127-.584-1.565l-.225-.588c-.203-.529-1.037-2.923-2.502-7.183l-.155-.364a1.772 1.772 0 0 1-.081-.252.944.944 0 0 0-.039-.142c-.035-.091-.095-.125-.18-.103l-.31.134c-.06.034-.136.068-.227.103-.736.346-1.473.702-2.21 1.069-1.516.738-2.347 1.136-2.493 1.192-.146.056-.232.104-.258.146-.03.032-.026.094.009.185l.055.104.074.191c.263.579.776 1.753 1.537 3.521l.284.66c.228.593.454 1.212.68 1.857.2.572.405 1.137.618 1.693.318.83.65 1.628.997 2.395.2.414.386.845.558 1.292.122.319.237.646.344.981a18.482 18.482 0 0 0 .837 2.143l.108.241c.147.383.106.67-.124.863-.217.198-.621.411-1.214.639Z" fill="#4053FF"/><path d="M13.101 117.578c-.32.086-.702.152-1.144.2-.44.057-.73.029-.872-.085-.097-.176-.233-.589-.408-1.24a87.603 87.603 0 0 1-.845-3.444c-.632-2.702-.933-4.244-.904-4.625-.108-.214-.216-.524-.324-.93l-.312-1.22-.175-.712a7.392 7.392 0 0 0-.183-.572 17.492 17.492 0 0 1-.365-1.192c-.113-.424-.16-.75-.14-.978-.149-.254-.279-.588-.39-1.003l-.054-.258a2.444 2.444 0 0 0-.086-.265c-.624.086-1.37.245-2.237.478-.859.23-1.663.455-2.412.676a26.9 26.9 0 0 1-1.11.328c-.293.079-.47.116-.532.112a12.199 12.199 0 0 1-.59-1.585c-.167-.623-.239-1.155-.215-1.596.91-.416 2.174-.886 3.793-1.41l11.793-3.13c.162.3.35.852.564 1.653.099.368.158.61.18.726.028.184.012.37-.049.558-.036.091-.073.217-.11.38-.362.045-1.038.201-2.029.467-2.037.546-3.212.896-3.525 1.05l.885 3.024.403 1.166 1.629 6.372c.153.647.293 1.378.42 2.193.062.61.178 1.231.347 1.863l.3 1.012c.091.339.167.678.227 1.016-.105.402-.615.726-1.53.971Z" fill="#E440FF"/><path d="M9.311 88.998c-.16 1.31-.833 2.33-2.02 3.06-1.176.72-2.369 1.126-3.58 1.218-.75.085-1.452.119-2.106.102a13.41 13.41 0 0 1-2.158-.224c-.032-.658.004-1.953.11-3.884.04-.858.09-1.707.148-2.544.073-1.053.18-2.293.318-3.723.14-1.439.307-2.352.5-2.74-.015-.06-.012-.25.01-.572.023-.321.054-.696.094-1.124a1161.302 1161.302 0 0 1 .226-2.393c.028-.409.044-.843.047-1.303-.007-.324 0-.636.021-.938.04-.575.131-1.107.273-1.597l.526.037c.626.014 1.22.041 1.786.081.34.024.667.052.978.083.37.036.764.068 1.183.097l.964.068c.312.022.639.035.981.04.353-.015.69-.011 1.012.011a7.01 7.01 0 0 1 1.524.268l-.096 1.58a2.143 2.143 0 0 0-.004.264c.002.107 0 .21-.007.307-.02.283-.078.494-.176.634-.11.178-.419.25-.925.214l-.073-.005a21.185 21.185 0 0 1-1.56-.168c-.417-.058-.83-.106-1.238-.145l-.497-.034a40.926 40.926 0 0 1-1.532-.137 372.551 372.551 0 0 1-.617 4.626c-.068.563-.14 1.097-.214 1.6a12.9 12.9 0 0 1 2.024.45c.72.217 1.321.5 1.806.846a3.463 3.463 0 0 1 1.805 1.492c.255.41.445.849.569 1.317.035.199.065.534.091 1.006.026.471.028.927.007 1.366l-.007.102c-.026.38-.09.6-.193.662Zm-7.038.697-.008.954c.308.07.614.116.916.138.496.034.993 0 1.49-.102.368-.092.661-.218.878-.379.217-.161.415-.338.595-.531.117-.129.243-.257.38-.385.032-.193.07-.382.112-.564.066-.25.115-.53.147-.842.06-1.268-.499-2.184-1.673-2.745a4.45 4.45 0 0 0-1.558-.403 4.336 4.336 0 0 0-.794.018l-.004.058a5.17 5.17 0 0 0-.085.582l-.007.102c-.01.136-.007.313.007.53l-.396 3.57Z" fill="#FF498B"/><path d="M9.802 60.225c-1.694.39-3.48.402-5.359.034-.607-.11-1.297-.347-2.073-.709-1.693-.782-2.837-1.875-3.432-3.282a2.867 2.867 0 0 0-.306-.545c-.445-.54-.887-1.61-1.327-3.212a12.938 12.938 0 0 1-.152-.596c-.467-2.027-.4-3.912.2-5.654.598-1.752 1.95-3.347 4.053-4.784.835-.594 1.62-.975 2.352-1.145l.492-.083a3.83 3.83 0 0 0 1.17-.466 3.95 3.95 0 0 1 .712-.24c.238-.054.583-.119 1.037-.194.452-.084.936-.156 1.454-.215.515-.069.891-.09 1.127-.065.174.32.332.72.472 1.2.042.18.114.514.216 1.002.1.478.056.914-.134 1.309a1.372 1.372 0 0 1-.21.063c-.21.048-.528.082-.955.1a14.163 14.163 0 0 0-2.735.33 7.986 7.986 0 0 0-1.882.706l-.05.042c-.612.301-1.182.654-1.71 1.056-.676.507-1.094 1.215-1.255 2.124-.076.498-.16.804-.255.916l.063.27c.087.381.165.85.233 1.405.056.458.117.855.184 1.19.272.96.658 1.808 1.158 2.544.181.31.345.607.492.894.317.157.594.319.833.484.248.164.497.311.748.444.25.123.56.207.93.251.598.073 1.605-.014 3.022-.261.22-.041.42-.072.595-.093.65-.09 1.193-.17 1.628-.24.559-.099.973-.15 1.243-.152.268-.011.456.045.565.17.107.116.206.329.298.638.12.434.264.886.433 1.358.144.408.266.806.365 1.194l.043.186c.04.17.049.299.028.384-.131.21-.34.374-.623.49a7.216 7.216 0 0 1-.886.264 6.925 6.925 0 0 0-.79.228c-.656.282-1.327.502-2.012.66Z" fill="#4053FF"/><path d="M6.541 29.851c-.516.109-.945.206-1.286.29l-.44.11a12.12 12.12 0 0 1-.658.15c-.1-.157-.16-.278-.18-.363a.67.67 0 0 1-.029-.174c.02-.085.006-.218-.039-.398a2.875 2.875 0 0 0-.17-.501 8.351 8.351 0 0 1-.148-.416 5.403 5.403 0 0 1-.17-1.105 5.82 5.82 0 0 0-.162-1.077 128.663 128.663 0 0 1-1.331-4.861c-.37-1.488-.668-2.722-.892-3.703-.545-2.39-.804-3.695-.778-3.913A11.61 11.61 0 0 1-.393 12c-.095-.38-.168-.754-.22-1.123a16.663 16.663 0 0 0-.13-.707c.265-.066.516-.15.753-.249.244-.11.616-.234 1.116-.368.594-.159 1.707-.441 3.336-.847 2.386-.565 3.884-.813 4.495-.744.073.173.137.369.191.587.045.18.084.376.117.59.03.203.07.405.12.604.108.677-.177 1.146-.857 1.406a8.3 8.3 0 0 1-1.063.34c-.379.095-.772.173-1.18.234-.41.052-.827.131-1.254.238-.554.198-1.11.367-1.67.507l.976 4.346c.038.272.098.574.18.906.107.426.25.904.433 1.432.196.585.353 1.115.47 1.588.048.19.38 1.728.998 4.613l.549 2.082c.108.356.194.661.258.917s.11.506.141.75c.04.242-.012.416-.156.522-.114.069-.337.145-.669.227Z" fill="#FFB240"/><path d="m4.206 418.222 3.167 1.106c.11.04.172.042.185.005l.003-.093c.145-1.485.31-2.599.497-3.341.232-1.039.263-1.739.094-2.102l-.584.707c-.627.697-1.068 1.222-1.321 1.577l-.662.663c-.708.688-1.167 1.181-1.379 1.478Zm-5.943 7.346-.082-.03c-.175-.063-.625-.269-1.35-.616-.79-.371-1.221-.6-1.293-.689a.75.75 0 0 1 .05-.309c.13-.358.617-1.028 1.462-2.009.307-.356.533-.637.681-.843.164-.252.402-.592.713-1.019.798-1.081 1.398-1.731 1.8-1.948.078-.19.254-.474.527-.853a22.919 22.919 0 0 1 1.553-1.913c.831-.945 2.065-2.252 3.7-3.922 1.919-1.962 3.027-2.967 3.325-3.015.408-.495.817-.804 1.225-.926.248.403.34 1.252.274 2.548-.026.5-.076.866-.15 1.099.104.287.143.893.118 1.82-.028.592-.012 1.061.05 1.405-.018.337-.034.851-.046 1.542l-.163 5.21c-.169 5.124-.311 7.847-.428 8.168l-.005.014c-.216.109-.407.148-.573.119a1.651 1.651 0 0 1-.313-.083 2.352 2.352 0 0 1-.229-.099 1.451 1.451 0 0 0-.28-.132l-.532-.163a3.493 3.493 0 0 1-.423-.123 2.286 2.286 0 0 1-.685-.389c-.15-.502-.133-1.878.051-4.129.09-1.017.126-1.804.11-2.36a6.673 6.673 0 0 0-.598-.156 4.528 4.528 0 0 1-.648-.189l-.152-.055a14.72 14.72 0 0 0-.683-.264c-.79-.287-1.778-.554-2.967-.799-.653.624-1.64 1.84-2.961 3.645l-1.078 1.463Z" fill="#3DFF7F"/><path d="M6.916 452.175c2.339-.454 3.471-1.794 3.398-4.018-.023-.324-.04-.688-.049-1.095-.035-1.157-.099-1.97-.19-2.44-.545-2.809-1.963-5.194-4.254-7.156a1.766 1.766 0 0 1-.476-.072 1.287 1.287 0 0 0-.65-.038c-.172.034-.393.126-.661.278-.786.461-1.285.812-1.497 1.052-.526.779-.849 1.881-.97 3.307-.121 1.427-.093 2.595.084 3.506l.326 1.608c.168.862.298 1.688.391 2.475.1.051.348.356.745.915.463.696.831 1.157 1.104 1.382.462.328 1.191.45 2.19.365.176-.014.346-.037.509-.069Zm-.65 3.962c-1.936.376-3.546-.077-4.83-1.36-.424-.444-.921-1.188-1.492-2.231a22.921 22.921 0 0 1-1.43-3.14 8.66 8.66 0 0 1-.335-1.188c-.09-.46-.095-.822-.017-1.086a3.795 3.795 0 0 1-.16-.596c-.099-.508-.158-1.277-.18-2.308-.02-1.03.054-2.134.223-3.311.18-1.179.455-1.964.827-2.354.092-.705.632-1.486 1.619-2.345.985-.868 1.98-1.454 2.986-1.759l.78-.211c.282-.085.528-.148.74-.189.202-.029.432-.024.688.016.617.099 1.27.29 1.962.573.942.394 1.498.749 1.669 1.064.428.205.834.609 1.22 1.21.393.59.732 1.161 1.018 1.712.284.542.48.857.587.946.18.472.376.937.584 1.394a12.87 12.87 0 0 1 1 2.999c.01.157.014.33.01.52a8.66 8.66 0 0 0-.002.448c.037.192.079.328.124.408.054.07.107.194.162.372.063.376.063.759 0 1.149a8.858 8.858 0 0 0-.053.652c0 1.075-.22 2.201-.657 3.381-.428 1.177-1.07 2.098-1.926 2.762-.642.692-1.577 1.281-2.805 1.769a12.88 12.88 0 0 1-2.311.703Z" fill="#9F54FF"/><path d="m7.667 482.233-.476-.146a80.956 80.956 0 0 1-2.197-.733l.009-.028-1.35-.397-.97-.281a19.76 19.76 0 0 1-1.838-.654c.091-.432.323-1.341.696-2.729a204 204 0 0 1 1.968-6.949c.79-2.588 1.318-4.034 1.585-4.341.025-.35.152-.898.38-1.645.4-1.308.854-2.614 1.365-3.918.31-.15 1.293.028 2.946.533.691.211 1.425.451 2.2.719a20.348 20.348 0 0 0 2.074.634c.372.083.732.177 1.077.283.971.297 1.821.674 2.55 1.132-.018.423-.109.906-.274 1.448a3.92 3.92 0 0 1-.262.655c-.168.317-.368.439-.602.368l-2.881-.897-2.864-.906a37.927 37.927 0 0 0-1.83-.528l-.338 1.06-.27.883-.283.878a47.732 47.732 0 0 0-.732 2.197 7.854 7.854 0 0 0-.194.737c.114.127.965.433 2.553.918.971.297 1.909.604 2.812.921.904.317 1.508.614 1.811.891-.035.653-.112 1.171-.229 1.554-.128.42-.308.676-.54.768-.383.149-1.219.026-2.507-.368l-.683-.223-1.517-.449-2.654-.689-1.416 4.239c.82.424 2.51 1.028 5.068 1.81 1.83.56 2.796.911 2.895 1.053.044.392-.01.819-.162 1.284a6.3 6.3 0 0 1-.52 1.25c-.191.36-.426.544-.704.551a2.46 2.46 0 0 1-.73-.116l-.63-.193-2.336-.576Z" fill="#FF629A"/><path d="M18.766 507.846a5.574 5.574 0 0 1-.671.16 5.055 5.055 0 0 0-.5.122c-.488.139-.847.218-1.076.237-.22.016-.381-.047-.486-.189-.098-.153-.207-.411-.328-.773l-.025-.084c-.154-.504-.468-1.246-.94-2.224a61.267 61.267 0 0 1-1.57-3.488c-.556-1.351-.99-2.306-1.303-2.864-.161.744-.113 3.108.144 7.094.147 2.355.199 3.662.155 3.92l-.517.265a9.427 9.427 0 0 1-1.154-1.424l-.497-.675a8.288 8.288 0 0 1-.774-1.081 9.153 9.153 0 0 0-.736-1.107c-.387-.464-.996-1.422-1.827-2.873-.16-.288-.31-.548-.453-.781a34.95 34.95 0 0 1-.34-.615 3.405 3.405 0 0 0-.207-.274c-.03-.032-.059-.043-.087-.035a.102.102 0 0 1-.079-.006l-.023 3.285c-.023.793-.023 1.615.002 2.465l.026.789c.025 1.116.07 1.949.136 2.501.083.638.072 1.055-.032 1.25-.084.159-.294.29-.63.392-.496.152-.918.24-1.268.265a1.97 1.97 0 0 1-.742-.125l-.064-.21c-.12-.392-.266-1.088-.438-2.087a83.891 83.891 0 0 1-.481-3.131c-.14-1.091-.177-1.784-.114-2.079a.78.78 0 0 1-.097-.216 4.721 4.721 0 0 1-.134-.74 10.884 10.884 0 0 1-.104-2.097 19.345 19.345 0 0 1-.125-2.015c-.048-1.129-.107-1.805-.175-2.029.034-.123.037-.563.01-1.321-.019-1.066 0-2.241.057-3.525.067-1.287.279-2.148.636-2.584.543.375.957.877 1.24 1.505.169.316.366.628.593.937 1.552 2.14 3.2 4.816 4.948 8.03l.266.47c.14-.308.188-.803.144-1.484-.044-.813.252-3.339.888-7.578.223-1.508.398-2.526.522-3.055.131-.54.314-.846.547-.917a.725.725 0 0 1 .316-.02c.036.019.217.444.542 1.274 1.004 2.552 1.701 4.034 2.092 4.446.025.217.082.47.17.759.178.579.557 1.52 1.138 2.823.267.572.474 1.05.622 1.434l1.982 5.291c.24.284.584 1.16 1.032 2.626.17.56.248.915.232 1.062-.08.137-.229.239-.443.304Z" fill="#FFB240"/><path d="M11.94 406.055a7.644 7.644 0 0 1-1.137.24c-.437.073-.729.055-.874-.054-.104-.172-.254-.581-.45-1.225a87.594 87.594 0 0 1-.966-3.412c-.725-2.679-1.08-4.209-1.064-4.592-.115-.21-.234-.515-.357-.917l-.354-1.209-.2-.705a7.451 7.451 0 0 0-.203-.566 17.45 17.45 0 0 1-.405-1.178c-.129-.42-.187-.744-.175-.973-.157-.248-.299-.577-.424-.988l-.063-.257a2.628 2.628 0 0 0-.095-.262c-.62.108-1.36.294-2.22.556-.85.26-1.645.514-2.387.761-.442.155-.808.278-1.098.366-.29.089-.465.132-.527.131-.232-.46-.447-.982-.646-1.565-.188-.616-.278-1.145-.27-1.587.895-.447 2.142-.961 3.741-1.542l11.678-3.539c.171.295.378.839.62 1.633.112.364.18.604.205.719a1.19 1.19 0 0 1-.028.56 2.67 2.67 0 0 0-.098.382c-.36.059-1.03.238-2.01.538-2.018.617-3.18 1.008-3.487 1.173l.99 2.991.443 1.151 1.85 6.312c.176.641.34 1.366.496 2.177.084.607.221 1.224.412 1.85l.336 1c.103.336.19.672.261 1.007-.09.406-.588.747-1.494 1.024Z" fill="#E440FF"/><path d="M9.652 373.09c-.363 1.27-1.187 2.172-2.473 2.707-1.274.527-2.516.742-3.726.643a15.383 15.383 0 0 1-2.097-.229 12.873 12.873 0 0 1-.617-.127c-.466-.108-.959-.252-1.479-.432.071-.655.31-1.928.715-3.819a113.955 113.955 0 0 1 1.44-6.117c.363-1.399.67-2.275.922-2.628-.006-.062.027-.249.1-.563.072-.314.161-.68.267-1.096l.312-1.221c.137-.55.232-.919.285-1.107.092-.4.176-.826.25-1.28.044-.321.1-.629.168-.924.13-.561.302-1.072.519-1.534l.514.119c.615.112 1.2.232 1.751.359.333.077.65.155.953.235.36.093.744.187 1.153.281l.942.218c.304.07.625.134.963.192.351.041.684.098.998.17a7.03 7.03 0 0 1 1.462.503l-.341 1.545a2.125 2.125 0 0 0-.045.261 3.526 3.526 0 0 1-.055.303c-.063.276-.154.475-.273.598-.137.159-.453.181-.947.067l-.072-.017a21.343 21.343 0 0 1-1.514-.409 26.167 26.167 0 0 0-1.2-.337l-.485-.112c-.495-.115-.992-.24-1.492-.375a374.638 374.638 0 0 1-1.332 4.473c-.156.546-.31 1.061-.462 1.547.61.181 1.253.435 1.93.761.676.327 1.226.7 1.65 1.118.711.395 1.228.98 1.55 1.756a4.8 4.8 0 0 1 .356 1.39c.004.202-.018.537-.067 1.007-.048.47-.117.92-.206 1.351l-.023.1c-.085.371-.183.579-.294.623Zm-7.06-.412-.157.941c.293.118.588.211.883.279.485.112.98.156 1.487.133.379-.033.688-.112.927-.237a4.34 4.34 0 0 0 .67-.432c.136-.109.28-.216.435-.32.063-.186.13-.366.2-.54.105-.237.197-.506.276-.809.257-1.243-.15-2.234-1.223-2.973a4.426 4.426 0 0 0-2.263-.748l-.013.057a5.13 5.13 0 0 0-.175.561l-.023.1a4.06 4.06 0 0 0-.075.524l-.95 3.464Z" fill="#FF498B"/><path d="M14.802 348.225c-1.694.391-3.48.402-5.359.034-.607-.11-1.297-.347-2.073-.709-1.693-.782-2.837-1.876-3.432-3.282a2.866 2.866 0 0 0-.306-.545c-.445-.539-.887-1.61-1.327-3.212a12.996 12.996 0 0 1-.152-.596c-.467-2.027-.4-3.912.2-5.654.598-1.752 1.95-3.347 4.053-4.784.835-.594 1.62-.976 2.352-1.145l.492-.083a3.83 3.83 0 0 0 1.17-.466 3.93 3.93 0 0 1 .712-.239c.238-.055.583-.12 1.037-.195.452-.084.936-.156 1.454-.215.515-.069.89-.09 1.127-.065.175.321.332.72.472 1.199.042.181.114.515.216 1.003.1.478.056.914-.134 1.308a1.358 1.358 0 0 1-.21.064c-.21.049-.528.082-.955.1a14.193 14.193 0 0 0-2.735.331 7.99 7.99 0 0 0-1.882.705l-.05.042c-.612.301-1.182.653-1.71 1.056-.676.507-1.094 1.215-1.255 2.124-.076.498-.16.804-.255.916l.063.271c.087.38.165.849.233 1.404.056.458.117.855.184 1.19.272.96.658 1.808 1.158 2.544.181.309.345.607.492.894.317.158.594.319.833.484.248.164.497.311.748.444.25.123.56.207.93.251.598.073 1.605-.015 3.022-.261.22-.041.42-.072.595-.093.65-.09 1.193-.17 1.628-.24.558-.099.973-.15 1.243-.152.268-.012.456.045.565.17.107.116.206.329.298.638.12.434.264.886.433 1.359.144.407.266.805.365 1.193l.043.186c.04.171.049.299.028.384-.131.211-.34.374-.623.49a7.179 7.179 0 0 1-.886.264 6.798 6.798 0 0 0-.79.228c-.656.282-1.327.502-2.012.66Z" fill="#4053FF"/><path d="M.564 326.927a34.923 34.923 0 0 0-1.26-.391l-.436-.126a12.306 12.306 0 0 1-.644-.199c-.007-.186 0-.32.025-.405a.69.69 0 0 1 .062-.165c.06-.064.114-.186.165-.364.054-.188.089-.361.103-.519.025-.156.05-.3.08-.435.115-.403.25-.751.404-1.042.165-.328.298-.666.397-1.013.463-1.9.887-3.525 1.274-4.877.422-1.474.781-2.692 1.077-3.654.722-2.343 1.148-3.602 1.28-3.777a11.6 11.6 0 0 1 .38-1.964c.107-.376.23-.736.37-1.082.083-.22.163-.446.24-.678.263.075.521.129.776.161.267.026.65.106 1.151.239.594.16 1.698.472 3.313.935 2.348.703 3.77 1.238 4.264 1.603a3.955 3.955 0 0 1-.127.604 6.66 6.66 0 0 1-.193.569 6.455 6.455 0 0 0-.198.584c-.244.641-.726.904-1.445.789a8.354 8.354 0 0 1-1.09-.236 12.658 12.658 0 0 1-1.139-.388c-.38-.16-.782-.3-1.204-.421a18.003 18.003 0 0 1-1.7-.396l-1.325 4.252a8.736 8.736 0 0 0-.296.876c-.12.422-.235.908-.34 1.456a21.21 21.21 0 0 1-.386 1.612c-.054.187-.533 1.685-1.44 4.494l-.564 2.078c-.083.362-.161.67-.234.924a6.448 6.448 0 0 1-.252.72c-.086.229-.218.354-.396.374-.133.002-.364-.044-.692-.138Z" fill="#FFB240"/><path d="m-2.695 612.202 3.228-.911c.114-.03.165-.064.155-.102l-.051-.077c-.732-1.3-1.234-2.308-1.506-3.024-.405-.983-.78-1.575-1.128-1.775l-.073.914c-.115.931-.175 1.614-.18 2.05l-.162.923c-.186.97-.28 1.637-.283 2.002Zm-.662 9.428-.085.023c-.18.048-.666.138-1.46.27-.86.149-1.344.208-1.454.177a.755.755 0 0 1-.136-.282c-.098-.368-.082-1.196.048-2.485.047-.467.072-.828.075-1.081-.01-.301-.01-.716 0-1.244.035-1.344.155-2.22.359-2.629-.044-.2-.062-.534-.056-1.001.021-.905.08-1.725.177-2.459.14-1.25.402-3.029.786-5.336.448-2.708.78-4.167.997-4.377.051-.641.21-1.128.474-1.461.434.187.995.83 1.684 1.929.265.425.434.754.506.987.25.176.629.65 1.14 1.423.315.502.597.876.845 1.123.178.286.46.716.846 1.29l2.85 4.362c2.797 4.296 4.24 6.609 4.328 6.939l.004.014c-.115.213-.249.355-.402.426-.09.044-.19.082-.303.112a2.528 2.528 0 0 1-.245.05c-.09.004-.191.021-.305.052l-.53.172a3.54 3.54 0 0 1-.417.142 2.286 2.286 0 0 1-.784.074c-.41-.325-1.184-1.462-2.322-3.412-.51-.885-.93-1.55-1.263-1.997a6.216 6.216 0 0 0-.579.216 4.605 4.605 0 0 1-.64.217l-.155.041c-.182.039-.419.097-.711.176-.811.217-1.774.566-2.89 1.047-.176.886-.29 2.448-.338 4.685l-.044 1.817Z" fill="#3DFF7F"/><path d="M-2.254 647.589c2.29.657 3.907-.022 4.85-2.038.126-.299.277-.632.453-.998.493-1.047.805-1.801.937-2.261.787-2.75.605-5.52-.547-8.309a1.755 1.755 0 0 1-.392-.28 1.29 1.29 0 0 0-.56-.329c-.17-.048-.409-.066-.717-.053-.91.055-1.513.14-1.811.258-.821.456-1.609 1.291-2.363 2.507-.755 1.217-1.26 2.271-1.515 3.162l-.438 1.582a34.07 34.07 0 0 1-.774 2.384c.066.09.149.474.25 1.153.097.83.216 1.408.356 1.733.263.502.858.942 1.786 1.32.164.067.325.123.485.169Zm-2.374 3.236c-1.896-.544-3.126-1.679-3.688-3.405-.177-.589-.283-1.477-.318-2.666a22.885 22.885 0 0 1 .149-3.447c.063-.47.143-.873.24-1.211.129-.451.288-.776.477-.976.02-.177.063-.378.127-.603.143-.498.438-1.211.887-2.139a20.374 20.374 0 0 1 1.7-2.85c.693-.969 1.295-1.543 1.803-1.723.401-.585 1.237-1.037 2.506-1.354 1.271-.326 2.424-.396 3.458-.212l.79.166c.29.053.539.109.745.168.195.066.397.175.608.326.504.368 1 .836 1.488 1.402.66.779.995 1.347 1.005 1.706.288.377.467.921.538 1.632.083.705.126 1.367.131 1.988.008.612.04.982.094 1.109-.052.503-.09 1.006-.111 1.507a12.888 12.888 0 0 1-.469 3.127 6.344 6.344 0 0 1-.225.469 8.687 8.687 0 0 0-.206.398 1.472 1.472 0 0 0-.075.421c.016.086.008.22-.024.404a3.496 3.496 0 0 1-.522 1.024 8.798 8.798 0 0 0-.342.557c-.487.957-1.193 1.862-2.118 2.715-.915.855-1.905 1.384-2.969 1.587-.885.325-1.986.426-3.301.303a12.864 12.864 0 0 1-2.378-.423Z" fill="#9F54FF"/><path d="m11.315 676.642-.444.227c-.357.181-1.053.514-2.089.998l-.013-.026-1.247.651-.894.472a19.64 19.64 0 0 1-1.775.807c-.234-.374-.699-1.19-1.393-2.447a204.947 204.947 0 0 1-3.405-6.37c-1.227-2.411-1.85-3.82-1.87-4.226-.225-.269-.515-.752-.869-1.448a54.23 54.23 0 0 1-1.736-3.768c.12-.325.95-.879 2.49-1.664a64.601 64.601 0 0 1 2.082-1.011 19.407 19.407 0 0 0 1.932-.985c.326-.199.65-.38.972-.544.905-.461 1.778-.78 2.62-.957.281.317.55.728.807 1.233.115.226.204.444.267.653.098.344.039.572-.179.683l-2.695 1.357-2.689 1.337c-.844.43-1.405.727-1.683.891l.491.998.419.823.405.829c.329.732.661 1.428.998 2.09.141.278.265.5.371.665.17.012.995-.359 2.474-1.113a73.272 73.272 0 0 1 2.663-1.291c.87-.399 1.511-.605 1.922-.617.427.495.731.921.912 1.278.2.391.248.701.145.929-.172.373-.859.865-2.06 1.477l-.646.312-1.403.732-2.387 1.348L5.729 675c.885-.264 2.52-1.004 4.903-2.219 1.706-.869 2.644-1.286 2.814-1.253.303.252.561.597.774 1.037.226.443.39.864.493 1.261.112.392.07.687-.124.885-.16.159-.363.3-.606.424l-.588.299-2.08 1.208Z" fill="#FF498B"/><path d="M10.998 707.063a5.606 5.606 0 0 1-.678-.128 5.356 5.356 0 0 0-.505-.092c-.503-.071-.863-.145-1.08-.221-.207-.074-.33-.198-.368-.37-.027-.18-.022-.46.014-.839l.011-.087c.064-.524.08-1.329.045-2.415a61.388 61.388 0 0 1-.018-3.825c.042-1.461.032-2.51-.027-3.147-.45.614-1.366 2.794-2.75 6.54-.822 2.211-1.306 3.426-1.45 3.644l-.58.033a9.455 9.455 0 0 1-.477-1.771l-.18-.819a8.286 8.286 0 0 1-.268-1.302 9.146 9.146 0 0 0-.223-1.311c-.165-.581-.332-1.704-.502-3.368-.029-.328-.06-.627-.097-.897a33.608 33.608 0 0 1-.061-.702 3.572 3.572 0 0 0-.077-.334c-.015-.041-.037-.063-.066-.067a.097.097 0 0 1-.069-.038l-1.356 2.992a42.39 42.39 0 0 0-.999 2.253l-.296.732c-.431 1.029-.729 1.809-.892 2.34-.184.617-.363.993-.537 1.129-.142.111-.387.145-.736.102-.514-.063-.935-.154-1.265-.273-.198-.074-.407-.213-.628-.417l.027-.218c.05-.407.199-1.102.447-2.085.25-.993.527-2.011.833-3.056.316-1.054.562-1.702.74-1.946a.761.761 0 0 1 0-.236c.02-.165.079-.409.178-.731a10.92 10.92 0 0 1 .756-1.959c.15-.503.385-1.133.704-1.891.415-1.051.636-1.693.664-1.925.081-.099.263-.499.546-1.203.416-.982.91-2.047 1.484-3.197.584-1.148 1.127-1.849 1.63-2.102.345.564.519 1.19.523 1.879.025.358.079.723.16 1.097.55 2.587.97 5.703 1.26 9.35l.052.537c.254-.224.499-.657.735-1.297.29-.761 1.586-2.949 3.889-6.562.817-1.287 1.39-2.147 1.718-2.579.34-.44.63-.645.872-.616a.74.74 0 0 1 .297.111c.025.032.018.494-.022 1.384-.12 2.74-.085 4.378.106 4.913a4.405 4.405 0 0 0-.153.763c-.074.601-.11 1.615-.107 3.042.01.631.006 1.152-.015 1.563l-.337 5.64c.104.358.062 1.297-.124 2.819-.072.581-.145.937-.22 1.065-.129.092-.305.125-.528.098Z" fill="#FFB240"/><path d="M9.101 598.213c-.32.086-.702.153-1.144.2-.44.058-.73.029-.872-.084-.097-.177-.233-.59-.407-1.241-.3-1.123-.583-2.27-.846-3.443-.632-2.702-.933-4.244-.904-4.626-.108-.214-.216-.524-.324-.929l-.312-1.221-.175-.711a7.264 7.264 0 0 0-.183-.573 17.638 17.638 0 0 1-.365-1.191c-.113-.425-.16-.751-.14-.979-.149-.253-.279-.587-.39-1.003l-.054-.258a2.518 2.518 0 0 0-.086-.265c-.624.086-1.37.246-2.237.478-.859.23-1.663.456-2.412.677-.448.14-.818.249-1.11.328-.293.078-.47.115-.532.111a12.144 12.144 0 0 1-.59-1.585c-.167-.623-.239-1.155-.215-1.596.91-.415 2.174-.885 3.793-1.41l11.793-3.13c.162.301.35.852.564 1.654.099.368.158.609.18.725.028.184.012.371-.048.559a2.7 2.7 0 0 0-.112.378c-.361.047-1.037.203-2.028.468-2.037.546-3.212.896-3.525 1.051l.885 3.023.403 1.166 1.629 6.373c.153.646.293 1.377.42 2.192.062.61.178 1.232.347 1.864l.3 1.011c.091.34.167.678.227 1.016-.105.402-.615.726-1.53.971Z" fill="#E440FF"/><path d="M5.311 569.633c-.16 1.311-.833 2.33-2.02 3.06-1.176.721-2.369 1.127-3.58 1.218-.75.085-1.452.119-2.106.102a12.517 12.517 0 0 1-.63-.029 14.282 14.282 0 0 1-1.528-.195c-.032-.658.004-1.953.11-3.884.04-.858.09-1.706.148-2.544.073-1.052.18-2.293.318-3.722.14-1.439.307-2.353.5-2.741-.015-.06-.012-.25.01-.572.023-.321.054-.696.094-1.124a1264.044 1264.044 0 0 1 .226-2.392c.028-.409.044-.844.047-1.304-.007-.323 0-.636.021-.938.04-.575.131-1.107.273-1.596l.526.036c.626.015 1.22.042 1.786.081.34.024.667.052.978.083.37.036.764.068 1.183.098l.964.067c.312.022.639.035.981.039.353-.014.691-.01 1.012.012a7.097 7.097 0 0 1 1.524.268l-.096 1.58a2.14 2.14 0 0 0-.004.264c.002.108 0 .21-.007.308-.02.282-.078.493-.176.633-.11.179-.419.25-.925.215l-.073-.005a21.574 21.574 0 0 1-1.56-.168c-.417-.059-.83-.107-1.238-.146l-.497-.034a41.148 41.148 0 0 1-1.532-.137 373.511 373.511 0 0 1-.617 4.627c-.068.563-.14 1.096-.214 1.6.63.083 1.305.233 2.024.45.72.217 1.321.498 1.806.846.764.278 1.365.775 1.805 1.491.255.41.445.849.569 1.318.035.198.065.533.091 1.005.026.471.028.927.007 1.366l-.007.102c-.026.38-.09.601-.193.662Zm-7.038.697-.008.954a5.9 5.9 0 0 0 .916.138c.496.034.993.001 1.49-.102.368-.091.661-.218.878-.379.217-.161.415-.338.595-.531a6.36 6.36 0 0 1 .38-.384c.032-.194.07-.382.112-.565.066-.25.115-.531.147-.842.06-1.268-.499-2.183-1.673-2.745a4.459 4.459 0 0 0-1.558-.403 4.4 4.4 0 0 0-.794.018l-.004.059a5.154 5.154 0 0 0-.085.581l-.007.102a4.06 4.06 0 0 0 .007.529l-.396 3.57Z" fill="#FF498B"/><path d="M5.802 540.86c-1.694.391-3.48.403-5.359.034-.607-.11-1.297-.346-2.073-.709-1.693-.781-2.837-1.875-3.432-3.281a2.845 2.845 0 0 0-.306-.546c-.445-.539-.887-1.609-1.327-3.212a12.672 12.672 0 0 1-.152-.596c-.467-2.027-.4-3.911.2-5.654.598-1.751 1.95-3.346 4.053-4.784.835-.594 1.62-.975 2.352-1.144l.492-.084a3.805 3.805 0 0 0 1.17-.466 4.01 4.01 0 0 1 .712-.239c.238-.055.583-.12 1.037-.194.452-.085.936-.156 1.454-.216.515-.069.891-.09 1.127-.065.174.321.332.721.472 1.199.042.181.114.515.216 1.003.1.478.056.914-.134 1.309a1.37 1.37 0 0 1-.21.063c-.21.049-.528.082-.955.1a14.194 14.194 0 0 0-2.735.331 7.99 7.99 0 0 0-1.882.705l-.05.042c-.612.302-1.182.654-1.71 1.056-.676.507-1.094 1.215-1.255 2.124-.076.499-.16.804-.255.916l.063.271c.087.381.165.849.233 1.404.056.459.117.855.184 1.191.272.959.658 1.807 1.158 2.544.181.309.345.606.492.893.317.158.594.319.833.485.248.163.497.311.749.443.248.123.558.207.93.252.597.072 1.604-.015 3.02-.262.222-.041.42-.072.596-.092.65-.09 1.193-.171 1.628-.241.558-.099.973-.149 1.243-.152.268-.011.456.045.565.171.107.115.206.328.298.638.12.433.264.886.433 1.358.144.407.266.805.365 1.193l.043.186c.04.171.049.299.028.384-.131.211-.34.374-.623.49a7.36 7.36 0 0 1-.886.265 6.809 6.809 0 0 0-.79.227c-.656.282-1.327.502-2.012.66Z" fill="#4053FF"/></svg>