<svg width="39" height="572" fill="none" xmlns="http://www.w3.org/2000/svg"><path d="m14.888 115.353 4.305-1.214c.15-.041.22-.086.206-.136l-.068-.103c-.976-1.734-1.646-3.078-2.009-4.032-.54-1.311-1.04-2.1-1.502-2.367l-.099 1.219c-.153 1.241-.233 2.152-.24 2.733l-.216 1.231c-.247 1.293-.373 2.183-.377 2.669Zm-.883 12.571-.113.03c-.24.064-.888.184-1.946.36-1.146.199-1.793.278-1.938.236-.081-.1-.142-.225-.182-.376-.131-.49-.11-1.595.064-3.313.062-.623.095-1.104.1-1.442-.014-.401-.013-.954 0-1.658.047-1.792.206-2.96.478-3.505-.058-.268-.083-.713-.074-1.335.028-1.207.106-2.3.235-3.278.187-1.668.537-4.04 1.048-7.115.598-3.611 1.041-5.557 1.33-5.836.068-.854.279-1.504.631-1.949.58.25 1.328 1.107 2.245 2.573.354.566.58 1.004.676 1.316.332.234.838.867 1.519 1.898.421.669.797 1.168 1.128 1.497.237.381.613.955 1.127 1.72l3.8 5.816c3.73 5.727 5.653 8.811 5.771 9.251l.005.019c-.153.284-.331.473-.535.568a2.153 2.153 0 0 1-.405.149 3.27 3.27 0 0 1-.326.067 1.93 1.93 0 0 0-.406.069l-.707.23c-.195.079-.38.142-.556.189a3.04 3.04 0 0 1-1.045.098c-.547-.433-1.58-1.949-3.097-4.549-.68-1.179-1.24-2.067-1.683-2.663-.261.084-.518.18-.772.288a6.058 6.058 0 0 1-.853.289l-.208.056c-.242.051-.558.129-.948.234-1.082.29-2.366.755-3.852 1.396-.236 1.182-.387 3.265-.451 6.248l-.06 2.422Z" fill="#3DFF7F"/><path d="M12.143 153.536c3.054.876 5.21-.03 6.466-2.718.168-.398.37-.842.604-1.33.658-1.396 1.074-2.401 1.25-3.014 1.05-3.668.807-7.361-.729-11.08a2.338 2.338 0 0 1-.523-.373c-.21-.21-.46-.356-.748-.438-.225-.065-.544-.088-.955-.071-1.212.072-2.017.187-2.414.344-1.095.607-2.146 1.722-3.152 3.343-1.006 1.621-1.679 3.027-2.02 4.216l-.583 2.108a45.154 45.154 0 0 1-1.032 3.179c.088.12.198.632.332 1.538.13 1.107.289 1.877.476 2.31.35.67 1.144 1.256 2.381 1.76.218.09.434.165.647.226Zm-3.166 4.314c-2.528-.725-4.167-2.238-4.917-4.539-.235-.785-.377-1.971-.424-3.555a30.518 30.518 0 0 1 .198-4.596c.085-.626.191-1.165.32-1.615.173-.601.385-1.035.637-1.301.027-.236.083-.504.17-.805.19-.663.583-1.614 1.181-2.851a27.183 27.183 0 0 1 2.267-3.8c.925-1.292 1.727-2.058 2.405-2.297.535-.781 1.648-1.383 3.34-1.805 1.696-.435 3.233-.529 4.612-.283l1.054.221c.386.07.717.144.992.223.26.088.53.233.81.436.672.491 1.334 1.114 1.984 1.869.881 1.038 1.328 1.796 1.34 2.274.384.503.624 1.229.718 2.177.11.939.169 1.823.175 2.651.01.815.052 1.308.126 1.478-.07.671-.12 1.341-.15 2.01a17.205 17.205 0 0 1-.624 4.169 8.55 8.55 0 0 1-.3.625c-.115.211-.207.388-.275.531-.071.25-.104.437-.1.56.022.115.011.295-.032.54a4.685 4.685 0 0 1-.695 1.365c-.167.25-.319.497-.457.742-.65 1.277-1.591 2.483-2.824 3.62-1.22 1.14-2.54 1.845-3.958 2.116-1.18.434-2.648.568-4.402.404-1.175-.107-2.232-.295-3.17-.564Z" fill="#9F54FF"/><path d="m31.9 186.254-.59.302c-.476.242-1.405.686-2.786 1.331l-.018-.035-1.661.869-1.192.629c-.859.437-1.648.796-2.368 1.075-.312-.499-.93-1.586-1.857-3.263a272.318 272.318 0 0 1-4.54-8.493c-1.636-3.215-2.467-5.093-2.494-5.634-.3-.359-.685-1.003-1.158-1.931a72.238 72.238 0 0 1-2.315-5.024c.16-.433 1.267-1.172 3.32-2.218a86.096 86.096 0 0 1 2.777-1.349 26.668 26.668 0 0 0 2.576-1.312c.434-.266.866-.508 1.295-.726 1.207-.615 2.371-1.04 3.493-1.276.376.423.735.97 1.077 1.644.154.301.272.592.356.871.131.459.052.762-.238.91l-3.594 1.809-3.585 1.783c-1.126.574-1.874.969-2.245 1.188l.656 1.331.558 1.097.54 1.106c.438.975.881 1.904 1.33 2.786.189.371.354.667.495.887.227.016 1.327-.479 3.3-1.484a98.313 98.313 0 0 1 3.55-1.721c1.16-.533 2.015-.807 2.562-.823.57.66.975 1.228 1.217 1.703.266.523.33.936.192 1.24-.23.496-1.144 1.153-2.745 1.968l-.862.418-1.87.975-3.184 1.797 2.562 5.38c1.18-.352 3.358-1.338 6.537-2.958 2.274-1.159 3.525-1.715 3.752-1.671.404.335.748.796 1.032 1.382.3.592.52 1.152.658 1.681.149.523.094.917-.166 1.181-.214.211-.484.4-.809.565l-.783.399-2.774 1.611Z" fill="#FF498B"/><path d="M29.479 222.481a7.465 7.465 0 0 1-.904-.17 6.909 6.909 0 0 0-.674-.122c-.67-.096-1.15-.194-1.44-.295-.276-.1-.44-.264-.49-.493-.036-.241-.03-.614.019-1.119l.014-.117c.086-.698.106-1.771.06-3.22a81.848 81.848 0 0 1-.024-5.099c.056-1.948.043-3.347-.036-4.196-.599.819-1.821 3.725-3.667 8.72-1.096 2.948-1.74 4.568-1.933 4.859l-.773.043c-.26-.662-.472-1.449-.636-2.361l-.24-1.092a11.076 11.076 0 0 1-.357-1.736 12.192 12.192 0 0 0-.298-1.749c-.22-.774-.443-2.271-.67-4.49a27.057 27.057 0 0 0-.128-1.196c-.035-.359-.062-.67-.082-.935a4.767 4.767 0 0 0-.103-.446c-.02-.055-.048-.084-.087-.089a.134.134 0 0 1-.092-.051l-1.808 3.989a56.423 56.423 0 0 0-1.332 3.005l-.395.975c-.575 1.372-.972 2.412-1.19 3.12-.245.823-.484 1.325-.716 1.506-.188.147-.515.193-.98.135-.686-.084-1.248-.205-1.687-.364-.264-.098-.543-.283-.838-.555l.036-.291c.067-.543.266-1.47.597-2.78a111.35 111.35 0 0 1 1.11-4.075c.42-1.405.75-2.269.987-2.594a1.016 1.016 0 0 1-.001-.315c.027-.22.106-.545.237-.975.276-.963.612-1.833 1.01-2.611.2-.671.512-1.511.938-2.522.552-1.401.847-2.257.885-2.567.108-.131.35-.666.728-1.603a74.983 74.983 0 0 1 1.98-4.263c.777-1.532 1.502-2.466 2.173-2.803.459.751.69 1.587.696 2.506.034.476.105.964.214 1.462.732 3.449 1.292 7.604 1.68 12.466l.069.717c.338-.3.665-.876.98-1.73.386-1.015 2.115-3.931 5.185-8.749 1.089-1.716 1.853-2.862 2.29-3.438.453-.587.84-.861 1.164-.822.13.016.26.065.395.147.034.044.024.659-.03 1.846-.159 3.654-.112 5.838.142 6.551a5.873 5.873 0 0 0-.204 1.018c-.098.801-.145 2.153-.143 4.056.015.841.009 1.536-.019 2.083l-.45 7.521c.139.476.083 1.729-.165 3.758-.095.775-.193 1.249-.293 1.42-.172.123-.407.166-.704.13Z" fill="#FFB240"/><path d="M19.864 238.275c1.02.258 2.141.226 3.365-.093 1.237-.316 2.14-1.109 2.709-2.382a4.265 4.265 0 0 0 .187-1.82 3.091 3.091 0 0 0-.622-1.642c-.275-.294-.67-.601-1.187-.922-.5-.328-.906-.555-1.22-.682l-.947 2.398a79.548 79.548 0 0 1-2.285 5.143Zm-3.65 12.387c1.329.536 2.393.665 3.194.384.341-.115.651-.256.93-.425l.624-.295a8.09 8.09 0 0 1 .358-.677c.182-.278.354-.616.514-1.014.324-.838.43-1.708.316-2.611a3.573 3.573 0 0 0-1.128-2.267c-.653-.573-1.24-.965-1.759-1.174a5.621 5.621 0 0 0-.88-.272l-.036.091a8.25 8.25 0 0 0-.405.847 4.99 4.99 0 0 0-.202.656l-2.43 4.875-.384 1.214c.425.269.854.492 1.289.668Zm-3.597 2.443a16.448 16.448 0 0 1-2.089-1.033c.166-.621.554-1.792 1.164-3.511a170.834 170.834 0 0 1 2.482-6.518 88.65 88.65 0 0 1 1.756-4.093c.273-.676.53-1.345.768-2.007.044-.109.08-.214.106-.315l.11-.272c.197-.524.5-1.293.91-2.308.647-1.606 1.102-2.454 1.363-2.545.052-.162.136-.388.253-.678.078-.193.21-.504.398-.934.204-.437.455-.954.752-1.55.313-.604.545-1.023.696-1.257.517-.099 1.283.055 2.297.465l.917.391c.562.242 1.35.708 2.363 1.398 1.03.683 1.715 1.318 2.054 1.904.479.867.759 1.409.84 1.624.161.402.226 1.215.196 2.439-.038.686-.228 1.452-.569 2.298-.039.096-.178.405-.416.927-.226.526-.595.988-1.107 1.385-.374.65-.888 1.263-1.543 1.842-.642.583-1.29.953-1.943 1.11.198.207.363.407.495.601l.774.691c.03.167.117.406.259.716a6.5 6.5 0 0 1 .528 2.867c-.042.278-.15.754-.324 1.429-.188.78-.404 1.472-.648 2.076-.2.495-.38.767-.539.814-.163.37-.51.812-1.041 1.328a8.534 8.534 0 0 1-1.7 1.293c-.592.351-1.053.467-1.384.347-.339.214-.817.337-1.433.369a13.348 13.348 0 0 1-3.477-.309c-1.285-.295-2.374-.623-3.268-.984Z" fill="#E440FF"/><path d="M23.128 288.704c-.814.312-1.373.492-1.676.539a.451.451 0 0 1-.472-.196c-.119-.163-.245-.422-.38-.774l-.364-.949c-.238-.257-.837-1.638-1.797-4.142-.26-.681-1.026-2.787-2.295-6.316-.703-2.018-1.936-5.652-3.698-10.903a23.777 23.777 0 0 1-.688-1.577c-.345-.9-.408-1.447-.19-1.643.147-.126.336-.233.567-.322l.816-.271.383-.147c.19-.087.355-.164.496-.233a6.17 6.17 0 0 1 .358-.158c.304-.117.474-.147.51-.091.128-.063.268-.152.42-.266a25.39 25.39 0 0 1 3.697-1.377c.874-.266 2.257-.734 4.148-1.404l.01-.025.45-.193c1.933-.742 3.092-1.118 3.48-1.127.34 1.473.644 2.556.91 3.249l.2.467c.242.632.634 1.765 1.177 3.398.667 1.85 1.322 3.614 1.965 5.292.54 1.41 1.075 2.767 1.602 4.071a250.032 250.032 0 0 1 1.651 4.199c.671 1.75 1.347 3.569 2.029 5.455-.499.373-1.18.725-2.043 1.056-.632.243-1.15.365-1.554.367-.559-.622-1.086-1.543-1.58-2.761a174 174 0 0 1-1.219-3.069c-.317-.826-.62-1.637-.911-2.432-.296-.807-.555-1.503-.779-2.086l-.3-.785c-.27-.705-1.383-3.897-3.336-9.577l-.207-.485a2.317 2.317 0 0 1-.108-.336 1.259 1.259 0 0 0-.051-.189c-.047-.122-.128-.167-.241-.138l-.413.18c-.08.044-.181.09-.303.137-.98.46-1.963.935-2.947 1.424-2.021.985-3.129 1.515-3.323 1.59-.195.074-.31.139-.344.194-.04.043-.036.126.011.247l.074.139.098.255a310.81 310.81 0 0 1 2.05 4.695l.38.879a93.9 93.9 0 0 1 .906 2.476c.265.763.54 1.516.824 2.258a60.03 60.03 0 0 0 1.328 3.193c.268.552.516 1.127.744 1.722.163.426.316.862.46 1.309a24.798 24.798 0 0 0 1.115 2.857l.145.321c.195.511.14.894-.166 1.151-.289.265-.828.548-1.619.852Z" fill="#4053FF"/><path d="M28.283 104.034c-.427.115-.936.204-1.525.268-.587.076-.974.038-1.163-.114-.13-.234-.311-.786-.543-1.653-.4-1.497-.777-3.028-1.128-4.592-.842-3.602-1.244-5.658-1.205-6.168-.144-.285-.288-.698-.433-1.238l-.415-1.628-.233-.949a9.866 9.866 0 0 0-.245-.763 23.291 23.291 0 0 1-.486-1.588c-.151-.567-.213-1.001-.187-1.305-.198-.338-.371-.784-.52-1.337l-.071-.345a3.385 3.385 0 0 0-.115-.353c-.832.115-1.826.328-2.983.637a133.94 133.94 0 0 0-3.216.903 38.52 38.52 0 0 1-1.48.437c-.39.104-.627.154-.709.15a16.238 16.238 0 0 1-.788-2.115c-.222-.83-.317-1.54-.286-2.128 1.213-.554 2.899-1.18 5.057-1.88L31.334 74.1c.215.4.466 1.135.752 2.205.131.49.21.813.238.967.04.246.018.494-.063.745a3.61 3.61 0 0 0-.148.505c-.482.061-1.384.27-2.704.623-2.717.728-4.284 1.195-4.7 1.4l1.18 4.032.536 1.555 2.172 8.497c.204.862.39 1.836.56 2.923.083.814.237 1.642.463 2.485l.4 1.348c.122.453.223.904.303 1.355-.14.536-.82.967-2.04 1.294Z" fill="#E440FF"/><path d="M22.563 64.928c-.213 1.747-1.11 3.107-2.693 4.08-1.568.96-3.16 1.502-4.773 1.624-1 .113-1.936.158-2.81.136a17.66 17.66 0 0 1-.839-.039 19.306 19.306 0 0 1-2.037-.26c-.043-.877.005-2.603.146-5.178.054-1.145.12-2.276.198-3.393.098-1.403.24-3.057.425-4.963.186-1.919.408-3.137.666-3.654-.02-.08-.016-.334.014-.762.03-.429.071-.928.124-1.5l.156-1.672c.066-.752.114-1.258.145-1.517.038-.545.059-1.125.063-1.738-.01-.431 0-.849.028-1.251.054-.767.175-1.476.364-2.128l.702.049c.834.019 1.627.055 2.38.107.455.032.89.07 1.305.111.492.048 1.018.09 1.577.13l1.285.09c.416.029.852.046 1.309.052.47-.019.92-.014 1.35.016.727.051 1.404.17 2.03.358l-.127 2.105c-.01.13-.01.247-.005.352.003.144 0 .281-.01.41-.026.378-.104.66-.234.846-.148.238-.559.333-1.234.286l-.098-.007a28.267 28.267 0 0 1-2.079-.224 36.221 36.221 0 0 0-1.65-.194l-.663-.046a54.343 54.343 0 0 1-2.043-.182 496.324 496.324 0 0 1-.822 6.169 86.17 86.17 0 0 1-.286 2.133c.84.111 1.74.311 2.699.6.958.29 1.761.665 2.407 1.128 1.019.371 1.82 1.034 2.407 1.99.34.545.593 1.13.758 1.756.047.264.088.71.122 1.34.035.628.038 1.236.01 1.82l-.01.137c-.035.507-.12.801-.257.883Zm-9.384.93-.01 1.271c.41.094.817.156 1.22.184a7.282 7.282 0 0 0 1.987-.135c.491-.123.881-.291 1.17-.506.29-.215.554-.45.794-.708.156-.172.324-.343.506-.513.044-.258.094-.509.15-.753a7.21 7.21 0 0 0 .196-1.122c.079-1.691-.665-2.911-2.23-3.66a5.933 5.933 0 0 0-2.078-.537 5.776 5.776 0 0 0-1.059.024l-.005.078c-.062.322-.1.58-.113.775l-.01.136c-.012.182-.01.417.01.706l-.528 4.76Z" fill="#FF498B"/><path d="M25.55 36.546c-2.258.521-4.64.536-7.144.046-.81-.148-1.73-.463-2.764-.946-2.258-1.042-3.783-2.5-4.576-4.376a3.81 3.81 0 0 0-.409-.727c-.593-.718-1.182-2.146-1.768-4.282a17.26 17.26 0 0 1-.204-.795c-.623-2.703-.534-5.216.267-7.539.798-2.335 2.6-4.462 5.404-6.379 1.114-.791 2.16-1.3 3.136-1.525l.656-.112a5.109 5.109 0 0 0 1.56-.62c.316-.14.632-.247.95-.32a23.8 23.8 0 0 1 1.383-.26 27.988 27.988 0 0 1 1.938-.286c.687-.092 1.188-.12 1.503-.087.232.428.442.96.63 1.599.055.24.15.687.287 1.337.134.637.074 1.219-.179 1.745-.073.03-.167.058-.28.085-.28.064-.704.109-1.273.133-1.34.042-2.555.189-3.646.44-.838.194-1.674.508-2.51.941l-.067.056c-.816.402-1.576.871-2.28 1.408-.9.676-1.458 1.62-1.673 2.832-.1.664-.214 1.071-.34 1.22l.083.362c.117.508.221 1.132.312 1.873.074.61.156 1.14.245 1.587.362 1.28.877 2.41 1.544 3.392.242.412.46.809.655 1.192.423.21.793.425 1.111.645.331.218.664.415.998.591.332.165.746.276 1.24.336.798.096 2.14-.02 4.029-.35.295-.054.559-.095.793-.122.868-.12 1.591-.227 2.171-.32.745-.133 1.297-.2 1.657-.203.357-.016.609.06.754.227.143.154.275.438.397.85.16.578.352 1.182.577 1.811.193.544.355 1.074.488 1.592l.057.247c.052.228.065.4.037.512-.175.282-.452.5-.831.654-.382.141-.776.259-1.181.352-.394.091-.745.192-1.053.304-.875.376-1.77.669-2.683.88Z" fill="#4053FF"/><path d="M21.036 454.831c3.118-.606 4.629-2.392 4.53-5.357-.03-.432-.052-.919-.064-1.46-.047-1.543-.132-2.627-.253-3.254-.727-3.745-2.618-6.926-5.672-9.542a2.343 2.343 0 0 1-.636-.095 1.716 1.716 0 0 0-.865-.051c-.23.045-.524.168-.883.371-1.048.615-1.713 1.082-1.996 1.402-.7 1.039-1.131 2.508-1.293 4.41-.161 1.902-.124 3.46.111 4.674l.436 2.144c.224 1.15.398 2.251.522 3.301.132.067.463.474.993 1.22.617.927 1.108 1.542 1.471 1.842.616.438 1.59.6 2.92.487.235-.019.461-.049.679-.092Zm-.865 5.282c-2.582.502-4.729-.102-6.44-1.812-.566-.593-1.23-1.585-1.99-2.976a30.505 30.505 0 0 1-1.907-4.186 11.55 11.55 0 0 1-.447-1.584c-.119-.614-.126-1.097-.022-1.448a5.065 5.065 0 0 1-.214-.795c-.132-.677-.211-1.703-.24-3.077a27.177 27.177 0 0 1 .298-4.415c.239-1.572.606-2.618 1.101-3.139.123-.939.843-1.981 2.16-3.126 1.313-1.157 2.64-1.939 3.98-2.345l1.04-.282c.377-.113.705-.197.986-.251.271-.04.578-.033.92.02.82.132 1.693.387 2.615.765 1.256.525 1.998.998 2.225 1.418.57.274 1.113.812 1.626 1.614.524.787.977 1.547 1.359 2.282.378.723.64 1.143.781 1.261.242.63.502 1.249.779 1.858a17.214 17.214 0 0 1 1.333 3.999c.014.21.02.441.015.694-.006.24-.007.439-.003.597.05.256.105.437.165.545.071.092.143.257.216.495a4.678 4.678 0 0 1-.001 1.533c-.035.298-.058.588-.07.869 0 1.432-.293 2.935-.876 4.508-.57 1.57-1.427 2.797-2.568 3.682-.856.923-2.102 1.709-3.74 2.359-1.096.438-2.123.751-3.081.937Z" fill="#9F54FF"/><path d="m17.704 494.907-.635-.194c-.51-.156-1.487-.481-2.928-.977l.011-.037-1.799-.53-1.294-.375a26.067 26.067 0 0 1-2.45-.871c.121-.576.43-1.789.927-3.638a272.157 272.157 0 0 1 2.624-9.267c1.053-3.45 1.758-5.379 2.114-5.787.033-.466.202-1.198.506-2.194a72.177 72.177 0 0 1 1.82-5.224c.415-.2 1.724.037 3.928.711.922.282 1.9.601 2.934.958a26.535 26.535 0 0 0 2.764.846c.497.111.976.237 1.437.378 1.295.395 2.428.898 3.399 1.508-.023.565-.144 1.209-.365 1.931a5.253 5.253 0 0 1-.348.874c-.224.422-.492.585-.803.49l-3.842-1.195-3.818-1.208c-1.208-.369-2.02-.604-2.44-.705l-.451 1.414-.36 1.177-.378 1.171a63.483 63.483 0 0 0-.975 2.928c-.122.399-.208.727-.26.983.153.169 1.288.578 3.405 1.225a96.76 96.76 0 0 1 3.75 1.228c1.205.423 2.01.819 2.415 1.188-.048.87-.15 1.561-.306 2.071-.171.561-.412.902-.722 1.025-.51.199-1.623.035-3.342-.49l-.91-.299-2.022-.598-3.538-.918-1.89 5.651c1.094.566 3.347 1.371 6.759 2.414 2.44.746 3.727 1.214 3.86 1.404.058.522-.014 1.092-.217 1.711a8.402 8.402 0 0 1-.692 1.667c-.256.481-.569.725-.94.735a3.25 3.25 0 0 1-.973-.155l-.84-.257-3.115-.769Z" fill="#FF629A"/><path d="M36.836 527.393a7.506 7.506 0 0 1-.895.212 6.942 6.942 0 0 0-.665.162c-.652.186-1.13.291-1.435.317-.293.021-.51-.063-.649-.251-.13-.206-.276-.549-.437-1.031l-.034-.112c-.205-.672-.623-1.661-1.253-2.966a81.894 81.894 0 0 1-2.093-4.65c-.74-1.803-1.32-3.076-1.738-3.819-.214.991-.15 4.144.192 9.459.196 3.139.265 4.881.207 5.226l-.689.353c-.506-.498-1.019-1.131-1.539-1.898l-.663-.9a11.12 11.12 0 0 1-1.032-1.441 12.138 12.138 0 0 0-.981-1.477c-.516-.618-1.328-1.895-2.436-3.83a26.296 26.296 0 0 0-.603-1.041 47.118 47.118 0 0 1-.455-.821 4.714 4.714 0 0 0-.275-.365c-.04-.042-.079-.058-.116-.046a.136.136 0 0 1-.105-.009l-.031 4.38a56.325 56.325 0 0 0 .003 3.287l.035 1.052c.032 1.488.092 2.599.18 3.335.11.851.096 1.407-.042 1.667-.112.211-.393.386-.841.523-.66.201-1.223.319-1.69.353-.28.017-.61-.038-.99-.167l-.085-.281c-.16-.523-.354-1.45-.584-2.782a111.856 111.856 0 0 1-.641-4.175c-.186-1.455-.236-2.379-.152-2.772a1.02 1.02 0 0 1-.129-.287c-.065-.212-.124-.541-.179-.987a14.526 14.526 0 0 1-.139-2.797c-.089-.694-.144-1.589-.166-2.686-.065-1.505-.143-2.407-.234-2.706.046-.164.05-.75.014-1.761-.026-1.421 0-2.988.076-4.7.09-1.715.372-2.864.848-3.445a4.769 4.769 0 0 1 1.654 2.006c.224.422.487.838.79 1.25 2.069 2.853 4.268 6.422 6.597 10.707l.354.627c.188-.412.252-1.071.193-1.979-.059-1.085.335-4.453 1.183-10.104.299-2.011.531-3.369.697-4.073.175-.721.418-1.129.73-1.224a.983.983 0 0 1 .42-.026c.049.026.29.592.723 1.699 1.338 3.403 2.268 5.379 2.79 5.927.033.29.11.627.227 1.013.236.772.741 2.027 1.517 3.764.355.763.631 1.4.828 1.912l2.644 7.055c.32.378.778 1.545 1.375 3.501.228.747.331 1.219.31 1.416-.108.183-.305.318-.591.406Z" fill="#FFB240"/><path d="M27.401 424.338c-.423.129-.928.236-1.515.32-.583.097-.972.072-1.166-.072-.138-.23-.338-.775-.6-1.634a116.273 116.273 0 0 1-1.287-4.55c-.968-3.571-1.441-5.611-1.42-6.122-.153-.279-.312-.687-.475-1.223l-.472-1.612-.267-.94a9.937 9.937 0 0 0-.27-.754 23.309 23.309 0 0 1-.541-1.571c-.172-.56-.249-.993-.233-1.297-.21-.331-.399-.77-.566-1.318l-.084-.342a3.393 3.393 0 0 0-.127-.349c-.827.144-1.814.391-2.96.741-1.132.347-2.193.685-3.182 1.014-.59.208-1.078.371-1.464.489-.386.118-.62.176-.702.173a16.215 16.215 0 0 1-.861-2.085c-.251-.822-.371-1.527-.36-2.116 1.192-.596 2.855-1.282 4.988-2.056l15.57-4.719c.229.392.505 1.118.828 2.177.148.485.239.805.272.958a1.59 1.59 0 0 1-.038.747 3.563 3.563 0 0 0-.13.51c-.48.078-1.373.317-2.68.717-2.69.822-4.24 1.344-4.649 1.564l1.32 3.988.59 1.535 2.467 8.416c.234.854.454 1.822.662 2.902.11.81.294 1.632.549 2.467l.447 1.333c.137.449.254.896.35 1.344-.122.54-.786.995-1.994 1.365Z" fill="#E440FF"/><path d="M21.684 383.385c-.483 1.692-1.582 2.895-3.297 3.608-1.699.704-3.355.99-4.968.858a20.565 20.565 0 0 1-2.796-.305c-.27-.049-.543-.106-.822-.17a19.21 19.21 0 0 1-1.972-.575c.094-.874.412-2.571.953-5.092.232-1.123.474-2.23.725-3.321.316-1.37.714-2.982 1.195-4.835.484-1.866.893-3.035 1.229-3.505-.008-.082.037-.332.133-.751.097-.419.216-.906.357-1.461l.415-1.628c.182-.733.31-1.225.38-1.476.123-.533.234-1.102.334-1.707.058-.427.133-.838.223-1.231a10.15 10.15 0 0 1 .693-2.045l.685.158c.82.149 1.599.309 2.334.479.445.102.868.207 1.271.313.48.124.992.249 1.537.375l1.256.29c.406.094.834.179 1.284.256.469.055.912.131 1.33.227.711.164 1.361.388 1.95.671l-.454 2.06c-.03.127-.05.242-.06.347a4.6 4.6 0 0 1-.073.404c-.085.368-.206.634-.364.798-.183.212-.604.241-1.264.089l-.095-.022a28.104 28.104 0 0 1-2.019-.546 36.71 36.71 0 0 0-1.6-.45l-.647-.149a55.01 55.01 0 0 1-1.99-.5c-.578 1.991-1.17 3.98-1.775 5.965a87.181 87.181 0 0 1-.616 2.063c.813.241 1.67.579 2.572 1.014.902.436 1.636.933 2.202 1.491.948.526 1.637 1.306 2.066 2.341.251.592.41 1.21.475 1.853.005.269-.025.716-.089 1.343a17.86 17.86 0 0 1-.275 1.801l-.03.133c-.115.495-.245.772-.393.832Zm-9.414-.55-.209 1.254c.392.158.784.282 1.177.372.648.15 1.309.209 1.984.178.505-.044.916-.15 1.235-.316.32-.167.617-.359.895-.576.18-.145.373-.288.58-.427.083-.248.172-.488.265-.72.14-.316.263-.675.37-1.078.341-1.658-.203-2.98-1.633-3.965a5.818 5.818 0 0 0-3.017-.997l-.017.076a6.96 6.96 0 0 0-.233.748l-.03.134c-.041.177-.075.41-.101.698l-1.265 4.619Z" fill="#FF498B"/><path d="M30.55 353.564c-2.258.521-4.64.536-7.144.046-.81-.148-1.73-.463-2.764-.946-2.258-1.042-3.783-2.501-4.576-4.375a3.811 3.811 0 0 0-.408-.728c-.594-.718-1.183-2.146-1.77-4.282a17.672 17.672 0 0 1-.203-.795c-.623-2.703-.534-5.216.267-7.539.798-2.335 2.6-4.462 5.404-6.379 1.114-.791 2.16-1.3 3.136-1.525l.656-.112a5.073 5.073 0 0 0 1.56-.621c.316-.139.632-.246.95-.319.316-.073.777-.16 1.383-.259a28.1 28.1 0 0 1 1.938-.287c.687-.092 1.188-.121 1.503-.087.232.428.442.961.63 1.599.055.241.15.687.287 1.337.134.637.074 1.219-.179 1.745-.073.03-.167.058-.28.085-.28.064-.704.109-1.273.133-1.34.042-2.555.189-3.646.441-.838.193-1.674.507-2.51.94l-.067.056c-.816.402-1.576.871-2.28 1.408-.9.676-1.458 1.62-1.673 2.832-.1.665-.214 1.072-.34 1.221l.083.361c.117.508.221 1.132.312 1.873.074.611.156 1.14.245 1.587.362 1.279.877 2.41 1.544 3.392.242.412.46.809.655 1.192.423.209.793.425 1.111.645.331.218.664.415.998.592.332.164.746.275 1.24.335.798.096 2.14-.02 4.029-.349.295-.055.559-.096.793-.123.868-.12 1.591-.227 2.171-.321.745-.132 1.297-.199 1.657-.202.357-.016.609.06.754.227.142.154.275.438.397.85.16.578.352 1.182.577 1.811.193.544.355 1.074.488 1.592l.057.247c.052.229.065.399.038.513-.176.281-.453.498-.832.653a9.755 9.755 0 0 1-1.181.353c-.394.09-.745.191-1.053.303-.875.376-1.77.669-2.683.88Z" fill="#4053FF"/><path d="M9.233 321.167a48.157 48.157 0 0 0-1.679-.522l-.582-.167c-.363-.104-.649-.193-.858-.266-.01-.247 0-.427.033-.54a.908.908 0 0 1 .083-.22c.079-.085.152-.247.22-.485a3.83 3.83 0 0 0 .137-.692c.033-.208.068-.401.105-.58a7.207 7.207 0 0 1 .54-1.389c.22-.438.397-.889.53-1.352.616-2.532 1.183-4.7 1.699-6.502a270.457 270.457 0 0 1 1.435-4.871c.962-3.124 1.531-4.803 1.706-5.038.098-.906.266-1.779.506-2.618.144-.501.309-.982.495-1.443.11-.293.217-.594.32-.904.35.101.695.173 1.035.216.356.034.867.14 1.534.318.792.213 2.265.629 4.418 1.246 3.13.939 5.026 1.651 5.685 2.139-.03.248-.087.516-.17.804a8.862 8.862 0 0 1-.257.759 8.68 8.68 0 0 0-.264.778c-.326.855-.968 1.206-1.926 1.053-.481-.07-.966-.175-1.454-.315a16.98 16.98 0 0 1-1.518-.517 14.326 14.326 0 0 0-1.607-.562 23.205 23.205 0 0 1-2.266-.528l-1.766 5.67c-.138.34-.27.729-.395 1.167a23.042 23.042 0 0 0-.454 1.942 28.15 28.15 0 0 1-.514 2.149c-.072.25-.711 2.248-1.919 5.992l-.752 2.771c-.112.483-.216.893-.312 1.231a8.589 8.589 0 0 1-.336.961c-.115.305-.291.472-.529.498-.177.004-.485-.057-.923-.183Z" fill="#FFB240"/><path d="m14.09 555.893 4.223 1.475c.146.054.229.056.247.007l.003-.124c.193-1.98.414-3.465.663-4.456.31-1.384.35-2.318.125-2.802l-.78.943c-.835.929-1.423 1.63-1.76 2.103l-.883.884c-.943.918-1.556 1.574-1.838 1.97Zm-7.924 9.795-.11-.04c-.232-.085-.833-.358-1.8-.821-1.054-.495-1.628-.801-1.724-.919a1.002 1.002 0 0 1 .067-.412c.173-.477.823-1.37 1.95-2.678.408-.475.71-.85.907-1.125.22-.336.536-.789.951-1.358 1.064-1.442 1.864-2.308 2.399-2.598.105-.253.34-.631.704-1.136a30.474 30.474 0 0 1 2.07-2.552c1.108-1.259 2.753-3.002 4.934-5.229 2.558-2.616 4.035-3.956 4.433-4.019.544-.661 1.089-1.073 1.633-1.235.331.536.453 1.668.366 3.396-.035.667-.102 1.155-.2 1.466.138.382.19 1.191.157 2.426-.038.79-.016 1.415.067 1.875a62.194 62.194 0 0 0-.062 2.056l-.217 6.946c-.225 6.832-.415 10.463-.57 10.891l-.008.018c-.288.145-.542.198-.764.159a2.153 2.153 0 0 1-.417-.111 3.554 3.554 0 0 1-.305-.131 1.857 1.857 0 0 0-.372-.177l-.711-.218a4.66 4.66 0 0 1-.564-.163 3.03 3.03 0 0 1-.913-.52c-.2-.668-.177-2.503.068-5.504.119-1.356.168-2.405.146-3.147a8.263 8.263 0 0 0-.797-.207 6.191 6.191 0 0 1-.865-.253l-.201-.073a19.287 19.287 0 0 0-.911-.352c-1.053-.383-2.371-.739-3.956-1.066-.871.833-2.187 2.453-3.949 4.861l-1.436 1.95Z" fill="#3DFF7F"/></svg>