<svg width="155" height="1539" fill="none" xmlns="http://www.w3.org/2000/svg"><path d="M39.284 172.371c6.138-1.645 8.902-5.418 8.293-11.321a60.96 60.96 0 0 1-.332-2.904c-.31-3.071-.629-5.223-.959-6.456-1.972-7.371-6.187-13.453-12.645-18.247a4.75 4.75 0 0 1-1.28-.102 3.43 3.43 0 0 0-1.734.02c-.453.121-1.023.408-1.71.862-2.006 1.373-3.268 2.399-3.787 3.077-1.253 2.169-1.908 5.162-1.965 8.979-.057 3.817.234 6.92.873 9.31l1.169 4.216a90.46 90.46 0 0 1 1.5 6.514c.273.115.99.88 2.15 2.295 1.362 1.765 2.426 2.922 3.193 3.471 1.29.787 3.253.975 5.893.564a12.28 12.28 0 0 0 1.341-.278Zm-.99 10.659c-5.081 1.361-9.448.455-13.1-2.718-1.212-1.104-2.674-2.991-4.386-5.66a60.917 60.917 0 0 1-4.387-8.085c-.499-1.16-.87-2.193-1.112-3.099-.323-1.207-.405-2.169-.246-2.886a10.094 10.094 0 0 1-.537-1.555c-.357-1.333-.66-3.368-.906-6.106-.247-2.738-.255-5.688-.023-8.85.258-3.17.845-5.309 1.761-6.417.114-1.891 1.405-4.07 3.872-6.537 2.46-2.493 4.999-4.238 7.616-5.236l2.035-.707a20.612 20.612 0 0 1 1.932-.639c.535-.116 1.147-.146 1.837-.088 1.657.149 3.432.537 5.324 1.162 2.58.873 4.125 1.712 4.637 2.518 1.176.467 2.333 1.465 3.47 2.993a48.83 48.83 0 0 1 3.027 4.366c.857 1.388 1.436 2.19 1.736 2.406a66.268 66.268 0 0 0 1.812 3.599 34.38 34.38 0 0 1 3.217 7.792c.057.416.1.876.127 1.381.02.48.046.878.076 1.193.135.503.27.858.406 1.064.155.174.321.494.5.958.236.988.307 2.007.21 3.058-.028.6-.034 1.182-.018 1.744.199 2.858-.175 5.897-1.12 9.116-.92 3.212-2.456 5.78-4.61 7.705-1.579 1.96-3.956 3.703-7.134 5.228-2.124 1.027-4.13 1.794-6.016 2.3Z" fill="#3DFF7F"/><path d="m79.516 189.849 8.631 2.353c.3.086.465.079.494-.021l-.01-.247c.109-3.978.343-6.972.702-8.982.424-2.805.377-4.674-.142-5.608l-1.422 1.989c-1.54 1.97-2.614 3.45-3.222 4.441l-1.638 1.887c-1.753 1.962-2.884 3.358-3.393 4.188Zm-14.444 20.647-.225-.065c-.476-.136-1.711-.599-3.707-1.388-2.17-.839-3.36-1.37-3.566-1.592a2.002 2.002 0 0 1 .075-.831c.28-.977 1.452-2.848 3.517-5.616.749-1.004 1.3-1.794 1.654-2.37.39-.701.96-1.648 1.708-2.842 1.923-3.025 3.397-4.864 4.424-5.518.176-.519.591-1.307 1.246-2.366 1.289-2.041 2.547-3.834 3.775-5.378 2.037-2.667 5.076-6.374 9.116-11.121 4.74-5.577 7.5-8.456 8.284-8.638.995-1.394 2.024-2.291 3.086-2.691.736 1.024 1.138 3.266 1.203 6.725.025 1.335-.04 2.318-.194 2.951.328.745.545 2.351.651 4.82.035 1.581.167 2.824.395 3.73.014.898.069 2.268.164 4.11l.534 13.889c.503 13.663.63 20.932.379 21.808l-.01.038c-.556.329-1.056.469-1.503.422a4.341 4.341 0 0 1-.848-.161 7.041 7.041 0 0 1-.628-.221 3.786 3.786 0 0 0-.767-.301l-1.448-.334a9.614 9.614 0 0 1-1.148-.248 6.063 6.063 0 0 1-1.893-.909c-.493-1.306-.704-4.969-.632-10.99.048-2.723-.001-4.823-.147-6.3a17.17 17.17 0 0 0-1.62-.302 12.264 12.264 0 0 1-1.76-.383l-.412-.118a37.624 37.624 0 0 0-1.867-.576c-2.153-.618-4.834-1.142-8.042-1.575-1.62 1.784-4.021 5.2-7.2 10.248l-2.594 4.093Z" fill="#9F54FF"/><path d="M53.616 260.808c-.789.402-1.747.788-2.874 1.157-1.115.393-1.888.48-2.32.262-.353-.405-.936-1.408-1.751-3.01a232.707 232.707 0 0 1-4.112-8.514c-3.145-6.698-4.785-10.553-4.92-11.566-.4-.498-.854-1.246-1.361-2.244l-1.489-3.012-.85-1.758c-.201-.395-.467-.859-.796-1.392a46.78 46.78 0 0 1-1.61-2.906c-.532-1.045-.835-1.87-.909-2.475-.528-.578-1.052-1.378-1.571-2.4l-.284-.644a6.734 6.734 0 0 0-.371-.644c-1.58.571-3.437 1.4-5.572 2.488a269.833 269.833 0 0 0-5.916 3.102 77.59 77.59 0 0 1-2.714 1.471c-.72.366-1.16.562-1.323.586-.823-1.1-1.63-2.37-2.42-3.808-.78-1.532-1.26-2.88-1.444-4.043 2.143-1.589 5.18-3.517 9.111-5.783l29.028-14.702c.587.694 1.383 2.028 2.386 4.001.461.905.75 1.503.869 1.793.178.465.24.96.185 1.484a7.217 7.217 0 0 0-.08 1.049c-.917.322-2.594 1.103-5.03 2.344-5.013 2.554-7.883 4.119-8.613 4.695l3.983 7.397 1.696 2.818 7.78 15.721a77.726 77.726 0 0 1 2.309 5.487 31.583 31.583 0 0 0 1.936 4.669l1.345 2.471c.425.836.81 1.677 1.154 2.525-.05 1.107-1.201 2.234-3.452 3.381Z" fill="#FF498B"/><path d="M85.295 272.769c-.609 3.468-2.544 6.09-5.805 7.867-3.233 1.755-6.467 2.669-9.703 2.744-2.009.121-3.884.114-5.625-.021a35.367 35.367 0 0 1-1.672-.166 38.714 38.714 0 0 1-4.043-.733c.006-1.757.284-5.199.834-10.327.227-2.281.477-4.533.75-6.756.342-2.791.797-6.08 1.367-9.867.572-3.813 1.143-6.223 1.712-7.228-.033-.162.003-.669.108-1.522s.24-1.847.405-2.981l.486-3.325c.21-1.496.36-2.501.449-3.014.133-1.086.235-2.241.306-3.465.027-.863.09-1.695.188-2.496.187-1.525.504-2.929.95-4.213l1.395.172a101.3 101.3 0 0 1 4.745.464c.904.111 1.769.231 2.593.358.979.146 2.024.288 3.135.424l2.56.315c.826.101 1.695.182 2.606.241a24.65 24.65 0 0 1 2.695.173c1.447.178 2.787.487 4.018.927l-.474 4.192a5.704 5.704 0 0 0-.047.702 9.04 9.04 0 0 1-.061.819c-.092.75-.278 1.304-.558 1.664-.319.459-1.15.606-2.494.441l-.194-.024a56.332 56.332 0 0 1-4.13-.664 72.352 72.352 0 0 0-3.276-.56l-1.319-.162a108.487 108.487 0 0 1-4.061-.577 994.457 994.457 0 0 1-2.287 12.234c-.261 1.49-.526 2.9-.794 4.232 1.667.309 3.443.803 5.328 1.48 1.884.678 3.448 1.513 4.69 2.505 1.996.848 3.528 2.257 4.599 4.225a12.762 12.762 0 0 1 1.331 3.587c.066.533.1 1.429.103 2.689a35.666 35.666 0 0 1-.17 3.639l-.034.271c-.123 1.008-.325 1.587-.606 1.736Zm-18.84.875-.154 2.539c.811.231 1.617.395 2.419.494 1.318.162 2.645.141 3.982-.062.995-.193 1.792-.489 2.392-.887a11.79 11.79 0 0 0 1.658-1.331c.329-.327.683-.651 1.064-.972.115-.51.241-1.006.38-1.488.21-.656.38-1.396.507-2.22.335-3.37-1.023-5.885-4.073-7.545a11.877 11.877 0 0 0-4.092-1.29 11.672 11.672 0 0 0-2.117-.063l-.02.155a13.806 13.806 0 0 0-.306 1.537l-.033.271c-.044.362-.063.832-.055 1.41l-1.552 9.452Z" fill="#FFB240"/><path d="M43.522 333.77a97.22 97.22 0 0 0-3.31 1.187l-1.131.434c-.705.27-1.269.473-1.692.607-.313-.382-.512-.682-.596-.901-.084-.219-.127-.369-.131-.451.023-.232-.055-.579-.232-1.041a7.635 7.635 0 0 0-.612-1.271 22.19 22.19 0 0 1-.53-1.053c-.4-1.045-.669-2.002-.806-2.87a15.525 15.525 0 0 0-.78-2.797c-2.058-4.789-3.758-8.934-5.1-12.435a541.607 541.607 0 0 1-3.563-9.512c-2.217-6.15-3.327-9.518-3.328-10.103a30.934 30.934 0 0 1-2.339-4.793 28.984 28.984 0 0 1-.945-2.901 44.492 44.492 0 0 0-.575-1.829c.68-.261 1.318-.562 1.913-.902.61-.373 1.554-.82 2.834-1.339 1.522-.612 4.374-1.721 8.556-3.326 6.13-2.269 10.015-3.412 11.654-3.427.25.434.482.93.697 1.49.177.462.344.969.5 1.523.147.529.319 1.049.514 1.56.507 1.758-.098 3.092-1.813 4.001-.853.467-1.753.883-2.701 1.247-.973.373-1.988.707-3.047 1.002-1.067.27-2.148.615-3.242 1.035a46.764 46.764 0 0 1-4.256 1.885l3.995 11.186c.188.709.445 1.489.771 2.34.42 1.094.956 2.311 1.608 3.651a56.419 56.419 0 0 1 1.762 4.051c.187.487 1.566 4.448 4.137 11.885l2.128 5.334c.403.906.73 1.686.982 2.343s.458 1.303.618 1.939c.184.626.102 1.104-.246 1.433-.279.219-.843.491-1.694.818Z" fill="#3DFF7F"/><path d="m54.76 350.288-1.775-.717-.926-1.047 1.764-2.701 1.651-4.093c.234-.58 2.7-.496 7.397.25 2.12-.801 3.521-2.046 4.203-3.737 1.296-3.212 1.181-16.431-.344-39.657.23-2.8.477-4.526.74-5.178l1.393-.111 5.868 2.371c1.192.734 1.557 7.693 1.097 20.876.652.263 1.115 3.639 1.39 10.126l.58.234c1.014.409 6.866-5.638 17.555-18.144 1.004-2.487 3.77-3.181 8.296-2.083 2.538 1.644 3.676 2.791 3.413 3.444-22.706 25.934-36.348 39.494-40.925 40.678-3.698 1.23-7.49 1.06-11.378-.511Z" fill="#E440FF"/><path d="M34.23 370.361c1.842-1.014 3.442-2.591 4.797-4.729 1.38-2.147 1.62-4.541.72-7.18a8.528 8.528 0 0 0-2.206-2.919c-.936-.84-1.985-1.358-3.147-1.553-.802-.055-1.8.035-2.992.27-1.178.201-2.083.423-2.715.665l1.881 4.801c1.37 3.574 2.59 7.123 3.662 10.645Zm11.533 23.105c2.674-1.027 4.406-2.292 5.197-3.795a9.335 9.335 0 0 0 .782-1.89l.511-1.284a15.838 15.838 0 0 1-.4-1.479c-.11-.654-.32-1.383-.628-2.185a10.588 10.588 0 0 0-3.093-4.252c-1.371-1.175-2.951-1.768-4.74-1.779-1.737.053-3.128.28-4.173.681-.56.215-1.112.483-1.658.804l.07.183c.169.66.356 1.258.561 1.792.13.341.33.752.599 1.235l3.084 10.448 1.091 2.301a15.9 15.9 0 0 0 2.797-.78Zm-1.936 8.483a32.87 32.87 0 0 1-4.466 1.338c-.602-1.136-1.629-3.378-3.08-6.726a341.558 341.558 0 0 1-5.246-12.924c-1.211-3.161-2.213-5.956-3.005-8.386a115.488 115.488 0 0 0-1.61-3.984 5.328 5.328 0 0 0-.275-.606l-.21-.547a233.785 233.785 0 0 1-1.811-4.619c-1.24-3.234-1.73-5.096-1.472-5.586a20.09 20.09 0 0 1-.553-1.335c-.15-.389-.38-1.026-.69-1.911-.297-.918-.634-2.016-1.012-3.294-.363-1.311-.594-2.24-.693-2.788.622-.853 1.954-1.671 3.996-2.455.097-.037.722-.263 1.874-.677 1.152-.415 2.94-.808 5.362-1.18 2.439-.406 4.305-.411 5.6-.016 1.882.617 3.03 1.027 3.442 1.231.783.369 1.986 1.47 3.608 3.302.88 1.057 1.645 2.437 2.298 4.139.074.194.292.836.654 1.924.386 1.08.475 2.259.268 3.538.337 1.461.42 3.06.25 4.799-.146 1.73-.59 3.156-1.331 4.277.57.032 1.084.1 1.542.203l2.075-.043c.272.202.724.433 1.353.694 1.85.824 3.41 1.982 4.68 3.476.316.464.807 1.307 1.471 2.531.788 1.399 1.414 2.707 1.88 3.922.382.997.49 1.64.32 1.928.265.763.36 1.884.286 3.363a17.137 17.137 0 0 1-.728 4.213c-.387 1.32-.904 2.118-1.55 2.394-.206.776-.737 1.608-1.596 2.495-1.561 1.604-3.398 3.034-5.51 4.291-2.282 1.322-4.322 2.329-6.121 3.019Z" fill="#4053FF"/><path d="M97.372 145.82c-.855.23-1.873.408-3.052.535-1.172.152-1.947.077-2.324-.226-.26-.47-.623-1.572-1.088-3.308-.8-2.994-1.552-6.055-2.254-9.183-1.685-7.205-2.489-11.317-2.41-12.335-.288-.57-.576-1.396-.866-2.478l-.83-3.255-.467-1.897a19.608 19.608 0 0 0-.49-1.527 46.842 46.842 0 0 1-.97-3.177c-.304-1.132-.429-2.002-.375-2.609-.397-.676-.743-1.567-1.04-2.674l-.143-.69a6.684 6.684 0 0 0-.23-.706c-1.663.23-3.652.655-5.967 1.275-2.289.613-4.433 1.215-6.431 1.804-1.195.374-2.181.665-2.961.874-.78.209-1.252.309-1.416.299-.577-1.248-1.102-2.657-1.576-4.228-.445-1.661-.635-3.08-.573-4.255 2.427-1.109 5.798-2.362 10.114-3.762l31.451-8.346c.43.802.931 2.271 1.503 4.41.262.98.421 1.626.477 1.934.078.492.035.989-.127 1.49a7.195 7.195 0 0 0-.296 1.01c-.965.123-2.767.539-5.409 1.247-5.433 1.456-8.566 2.39-9.4 2.802l2.36 8.062 1.074 3.109L98 127.009c.408 1.724.78 3.673 1.12 5.847.165 1.627.474 3.283.925 4.969l.802 2.697c.242.905.444 1.808.604 2.709-.279 1.073-1.64 1.936-4.08 2.589Z" fill="#E440FF"/><path d="m45.656 94.701-1.325-.092c-1.066-.075-3.114-.27-6.146-.587l.005-.078-3.743-.222-2.692-.15c-1.922-.134-3.645-.332-5.166-.595-.023-1.177.035-3.679.171-7.507.246-7.266.564-13.679.952-19.238.502-7.196 1.009-11.272 1.52-12.228-.145-.924-.145-2.425 0-4.503.254-3.637.654-7.303 1.199-10.998.719-.577 3.377-.704 7.976-.383 1.922.135 3.971.317 6.148.548a53.697 53.697 0 0 0 5.767.403 38.719 38.719 0 0 1 2.97.09c2.702.19 5.136.66 7.302 1.412.21 1.11.262 2.42.157 3.926a10.504 10.504 0 0 1-.287 1.86c-.247.922-.695 1.361-1.344 1.316l-8.025-.6-7.983-.637c-2.52-.176-4.21-.269-5.071-.277l-.246 2.96-.171 2.454-.21 2.453a126.788 126.788 0 0 0-.586 6.145c-.058.832-.08 1.51-.064 2.032.374.261 2.768.546 7.185.855 2.701.189 5.322.424 7.86.706 2.539.282 4.285.692 5.24 1.228.298 1.718.41 3.11.335 4.174-.082 1.17-.397 1.944-.945 2.323-.905.615-3.15.798-6.734.547l-1.907-.172-4.211-.256-7.309-.198-1.141 11.864c2.385.61 7.136 1.165 14.254 1.662 5.092.356 7.81.69 8.154 1.001.348.99.464 2.134.347 3.431-.092 1.325-.292 2.512-.6 3.56-.283 1.051-.783 1.669-1.5 1.854-.585.142-1.24.187-1.968.136l-1.753-.122-6.415-.097Z" fill="#FF498B"/><path d="M102.182 73.934c-4.517 1.043-9.28 1.073-14.29.092-1.618-.295-3.46-.925-5.527-1.891-4.516-2.085-7.567-5.002-9.153-8.751a7.63 7.63 0 0 0-.817-1.456c-1.186-1.436-2.365-4.29-3.537-8.564a34.568 34.568 0 0 1-.407-1.59c-1.246-5.405-1.068-10.43.533-15.076 1.596-4.672 5.199-8.925 10.809-12.759 2.227-1.583 4.318-2.6 6.272-3.051l1.311-.223c1.193-.275 2.233-.69 3.121-1.242a10.53 10.53 0 0 1 1.898-.638c.634-.147 1.556-.32 2.767-.519a55.954 55.954 0 0 1 3.876-.574c1.374-.183 2.376-.241 3.007-.173.464.855.883 1.92 1.258 3.197.111.483.303 1.374.576 2.674.267 1.274.148 2.438-.358 3.49-.146.06-.334.117-.562.17-.558.129-1.406.218-2.544.267-2.68.084-5.111.378-7.293.881-1.675.387-3.348 1.014-5.019 1.88l-.134.112a27.753 27.753 0 0 0-4.562 2.817c-1.8 1.351-2.915 3.239-3.345 5.663-.201 1.33-.428 2.144-.68 2.442l.167.724c.234 1.014.442 2.263.623 3.744a42.18 42.18 0 0 0 .491 3.174c.724 2.56 1.753 4.82 3.087 6.785.484.823.921 1.618 1.311 2.383.845.42 1.586.85 2.222 1.291.662.435 1.327.83 1.997 1.183.663.328 1.49.551 2.48.67 1.594.193 4.28-.04 8.056-.697.59-.11 1.119-.192 1.587-.246 1.735-.24 3.183-.455 4.342-.642 1.489-.264 2.594-.398 3.314-.404.714-.032 1.217.12 1.508.453.285.309.549.876.793 1.701a52.11 52.11 0 0 0 1.155 3.622 37.56 37.56 0 0 1 .975 3.183l.114.495c.105.457.13.798.076 1.025-.352.562-.906.997-1.664 1.306-.763.283-1.55.518-2.362.706a18.43 18.43 0 0 0-2.105.606 31.604 31.604 0 0 1-5.367 1.76Z" fill="#4053FF"/><path d="M83.451 540.314c5.97 2.174 10.398.667 13.28-4.519.391-.772.855-1.629 1.39-2.57 1.507-2.694 2.477-4.641 2.913-5.841 2.606-7.171 2.636-14.573.09-22.206a4.734 4.734 0 0 1-.991-.818 3.427 3.427 0 0 0-1.431-.979c-.44-.16-1.073-.251-1.896-.274-2.429-.025-4.05.092-4.865.349-2.269 1.059-4.52 3.136-6.753 6.231-2.233 3.094-3.772 5.804-4.617 8.13l-1.457 4.125a90.495 90.495 0 0 1-2.502 6.198c.158.251.307 1.289.448 3.114.105 2.227.314 3.786.628 4.677.605 1.384 2.107 2.665 4.505 3.842.423.21.842.39 1.258.541Zm-6.916 8.167c-4.943-1.8-8.002-5.047-9.178-9.742-.36-1.6-.477-3.985-.351-7.154a61.046 61.046 0 0 1 1.036-9.142c.256-1.237.544-2.296.864-3.177.427-1.175.91-2.01 1.451-2.507.087-.467.237-.994.45-1.582.472-1.297 1.39-3.138 2.756-5.523 1.365-2.385 3.05-4.807 5.05-7.265 2.027-2.45 3.733-3.866 5.119-4.248 1.177-1.484 3.482-2.53 6.917-3.136 3.443-.631 6.523-.605 9.24.079l2.072.588c.76.193 1.41.388 1.948.584.505.212 1.024.539 1.555.982 1.273 1.073 2.506 2.408 3.698 4.006 1.613 2.195 2.399 3.769 2.357 4.724.696 1.057 1.072 2.538 1.128 4.443a49.05 49.05 0 0 1-.019 5.314c-.093 1.629-.079 2.618.044 2.967a65.593 65.593 0 0 0-.577 3.989 34.41 34.41 0 0 1-1.827 8.23c-.192.374-.421.776-.688 1.205-.258.405-.465.746-.62 1.021-.178.49-.27.858-.277 1.105.027.232-.02.589-.14 1.072a9.324 9.324 0 0 1-1.578 2.626c-.367.476-.705.949-1.014 1.419-1.475 2.456-3.521 4.732-6.139 6.827-2.593 2.105-5.324 3.328-8.191 3.67-2.416.7-5.362.764-8.84.192-2.329-.377-4.41-.899-6.246-1.567Z" fill="#3DFF7F"/><path d="m31.768 589.857 8.759-1.822c.307-.059.45-.14.43-.243l-.121-.215c-1.706-3.594-2.855-6.369-3.446-8.323-.894-2.692-1.783-4.336-2.669-4.933l-.366 2.419c-.478 2.454-.764 4.26-.858 5.419l-.603 2.426c-.674 2.545-1.049 4.302-1.126 5.272Zm-3.512 24.957-.23.045c-.486.094-1.797.243-3.933.446-2.314.237-3.614.304-3.9.201a2.005 2.005 0 0 1-.31-.776c-.193-.997.003-3.197.59-6.601.21-1.234.344-2.189.399-2.863.03-.801.108-1.904.233-3.308.342-3.568.822-5.877 1.441-6.926-.078-.542-.066-1.433.038-2.673.224-2.405.532-4.574.926-6.508.606-3.301 1.634-7.984 3.083-14.049 1.695-7.121 2.85-10.94 3.466-11.458.255-1.694.765-2.961 1.53-3.799 1.12.578 2.495 2.393 4.122 5.446.626 1.178 1.014 2.085 1.164 2.719.63.514 1.552 1.847 2.766 3.999.748 1.393 1.429 2.441 2.043 3.144.419.794 1.089 1.99 2.01 3.589l6.771 12.134c6.643 11.947 10.051 18.367 10.225 19.262l.007.038c-.345.545-.727.898-1.147 1.059a4.405 4.405 0 0 1-.829.241 6.746 6.746 0 0 1-.66.088c-.24-.006-.513.02-.82.08l-1.441.36a9.3 9.3 0 0 1-1.136.3 6.065 6.065 0 0 1-2.1.05c-1.03-.94-2.88-4.109-5.545-9.507-1.191-2.448-2.187-4.297-2.987-5.548a17.51 17.51 0 0 0-1.58.467c-.497.176-1.077.329-1.742.458l-.422.082c-.49.069-1.132.18-1.924.334-2.199.427-4.826 1.177-7.88 2.248-.637 2.326-1.227 6.46-1.772 12.402l-.456 4.824Z" fill="#9F54FF"/><path d="M77.996 626.963c-.847-.259-1.804-.647-2.871-1.164-1.076-.492-1.693-.967-1.853-1.424.028-.536.304-1.664.828-3.382a232.323 232.323 0 0 1 2.947-8.984c2.384-7.005 3.878-10.919 4.483-11.742.058-.636.25-1.489.577-2.56l1.019-3.202.607-1.856c.13-.424.26-.942.393-1.555.245-1.069.53-2.139.857-3.21.343-1.121.697-1.924 1.063-2.412.022-.783.2-1.722.534-2.818l.243-.661c.076-.249.136-.49.179-.722-1.533-.686-3.445-1.38-5.736-2.08a265.987 265.987 0 0 0-6.41-1.878 77.39 77.39 0 0 1-2.975-.828c-.772-.236-1.225-.402-1.36-.497.172-1.364.472-2.838.902-4.422.501-1.644 1.09-2.948 1.766-3.913 2.644.346 6.167 1.069 10.569 2.17l31.094 9.588c-.059.908-.412 2.42-1.058 4.537-.296.972-.503 1.603-.619 1.894a3.175 3.175 0 0 1-.896 1.197c-.21.153-.472.386-.785.699-.884-.406-2.633-1.009-5.248-1.808-5.379-1.645-8.531-2.513-9.456-2.606l-2.265 8.09-.734 3.207-5.308 16.718a77.825 77.825 0 0 1-2.144 5.553 31.595 31.595 0 0 0-1.845 4.705l-.746 2.713c-.274.897-.581 1.769-.922 2.618-.805.762-2.415.773-4.83.035Z" fill="#FF629A"/><path d="M69.412 694.247c-.984-.103-1.755-.237-2.314-.401-.236-.496-.368-1.361-.395-2.595a29.28 29.28 0 0 1 .155-3.715c.13-1.243.315-2.127.553-2.652l3.3-.005c4.817.508 9.595-.232 14.334-2.22a62.102 62.102 0 0 1 2.018-1.633c2.73-1.807 5.025-4.34 6.886-7.601-1.631-.172-2.807-.322-3.527-.45a6.369 6.369 0 0 0-.963-.18 58.668 58.668 0 0 1-1.775-.305 20.283 20.283 0 0 0-1.7-.258l-3.57-.416c-2.538-.268-4.329-.549-5.371-.842l-.339-3.139c.172-.636.29-1.252.352-1.848.03-.285.045-.558.047-.82a7.84 7.84 0 0 1 .043-.781c.09-.855.344-1.784.764-2.787.565-.15 1.547-.151 2.946-.003l2.288.281c.673.071 1.257.119 1.752.145.679.019 1.42.071 2.222.156a54.21 54.21 0 0 1 3.869.565c1.26.212 2.407.385 3.44.52.138-.064.325-.096.56-.098-.078-1.239-.21-2.235-.392-2.987-.503-1.441-1.188-2.652-2.054-3.634-.747-.864-1.212-1.673-1.394-2.425-1.492-.76-2.99-1.704-4.495-2.831-3.712-2.801-7.018-4.354-9.919-4.66-1.269-.134-3.014-.096-5.236.115-.212.03-.437.046-.672.047-.156-.514-.298-1.406-.426-2.677a58.437 58.437 0 0 1-.246-3.639c-.036-1.156-.024-2.019.036-2.589l.045-.427c1.274-.416 2.769-.559 4.484-.431 1.743.106 2.925.191 3.547.257 2.175.229 4.31.598 6.404 1.107 2.658.621 4.387 1.354 5.19 2.197.978.156 2.073.822 3.285 1.997.862.772 1.851 1.57 2.97 2.395 1.815 1.16 3.418 2.848 4.809 5.064.452.676.909 1.313 1.37 1.912.449.964.904 1.863 1.366 2.697a37.287 37.287 0 0 1 1.857 4.006c1.029 2.675 1.326 6.071.894 10.189l-.308 2.56c-.444 3.227-1.285 5.625-2.524 7.197a13.024 13.024 0 0 1-3.383 5.653 37.651 37.651 0 0 1-5.112 4.174c-1.498 1.046-3.499 2.145-6.002 3.295-2.502 1.124-4.534 1.655-6.1 1.595-.893.534-2.434.869-4.622 1.005-2.164.165-4.027.204-5.59.117-1.538-.057-2.657-.123-3.357-.197Z" fill="#4053FF"/><path d="M74.577 749.502 33.55 769.639l-1.398-.011c-3.358-7.779-5.967-13.563-7.827-17.349l-9.801-19.949c-.77-1.566-1.605-3.738-2.505-6.516-.57-.214-1.503-1.641-2.8-4.282l-.845-1.718c-.379-.771 1.714-2.742 6.28-5.91 2.086-.125 3.417.164 3.995.867 9.667 21.625 16.085 35.663 19.255 42.114l7.96-3.907c-1.114-2.267-2.592-5.777-4.434-10.53-6.128-11.468-11.172-21.234-15.134-29.298.883-1.391 1.84-2.338 2.868-2.843l5.12-2.513c.805-.25 1.369-.048 1.69.606l14.538 29.59 1.127 3.712c.673.424 1.325 1.279 1.957 2.564l1.946 3.962c1.73-.849 2.973-1.213 3.73-1.091 1.3-1.131 2.535-1.984 3.704-2.558-6.08-13.319-11.295-24.408-15.648-33.266-.987-2.01-2.765-5.156-5.332-9.436.54-.73 1.01-1.192 1.408-1.387 5.33-2.616 8.368-3.165 9.114-1.645 12.676 27.748 20.22 44.076 22.631 48.985.368.748.177 1.305-.57 1.672Z" fill="#9F54FF"/><path d="M102.634 725.246c6.992-.208 10.63-2.391 10.914-6.55.014-2.501-1.062-4.405-3.228-5.711-.794-.394-1.952-.776-3.476-1.146-1.524-.37-2.663-.569-3.418-.597l-.159 5.349a122.822 122.822 0 0 1-.633 8.655Zm-5.792 33.986-.507-.019c-1.302-.048-2.466-.274-3.493-.678-.385-3.688-.497-7.693-.338-12.013.119-3.201.388-6.592.807-10.172.4-3.79.655-7.142.763-10.057l.039-6.331.043-1.171c.124-3.357.388-5.184.79-5.482-.04-.34-.049-.81-.027-1.408.016-.417.053-1.08.113-1.99.086-.908.205-2.012.357-3.309.178-1.296.342-2.202.492-2.718.85-.463 2.317-.656 4.399-.578 2.941.11 6.116.568 9.526 1.373 2.79.652 4.769 1.403 5.936 2.255 1.673 1.287 2.66 2.08 2.961 2.378.603.622 1.357 2.071 2.263 4.346.445 1.345.632 2.981.561 4.907-.003.078-.037.65-.103 1.716-.065 1.066-.456 2.12-1.172 3.161-.316 1.5-1.107 3.151-2.372 4.954-1.266 1.803-2.576 3.057-3.931 3.762-3.604 1.611-7.429 2.51-11.475 2.698-.245.981-.53 2.69-.854 5.128-.682 5.03-1.076 8.989-1.183 11.878l-.007 1.25a35.22 35.22 0 0 1-.107 1.834l-.021.585a8.903 8.903 0 0 0 .397 2.986c-1.033.456-2.319.695-3.857.715Z" fill="#3DFF7F"/><path d="M43.614 685.45c-1.36.362-2.488.679-3.385.954l-1.158.354c-.722.22-1.298.383-1.73.488-.286-.403-.463-.716-.532-.941-.068-.224-.101-.377-.099-.459.039-.23-.014-.582-.159-1.055a7.679 7.679 0 0 0-.522-1.311 22.097 22.097 0 0 1-.454-1.086c-.327-1.071-.529-2.044-.606-2.919a15.531 15.531 0 0 0-.582-2.845c-1.72-4.921-3.127-9.174-4.222-12.761a542.997 542.997 0 0 1-2.89-9.736c-1.784-6.29-2.657-9.727-2.617-10.311a30.94 30.94 0 0 1-2-4.944 29.082 29.082 0 0 1-.74-2.96 44.724 44.724 0 0 0-.446-1.865 13.79 13.79 0 0 0 1.971-.766c.635-.33 1.608-.709 2.92-1.138 1.562-.504 4.484-1.411 8.768-2.721 6.273-1.836 10.228-2.705 11.865-2.606.22.45.416.962.591 1.535.144.473.275.991.393 1.554.11.539.245 1.069.404 1.592.383 1.789-.313 3.078-2.087 3.865-.884.407-1.811.758-2.782 1.055-.996.305-2.033.567-3.11.787a28.612 28.612 0 0 0-3.306.807 46.71 46.71 0 0 1-4.377 1.583l3.206 11.438c.138.72.34 1.516.606 2.388a45.98 45.98 0 0 0 1.35 3.753 56.501 56.501 0 0 1 1.475 4.165c.153.498 1.252 4.546 3.3 12.144l1.75 5.47c.34.931.611 1.733.816 2.405.206.673.366 1.332.481 1.977.14.638.026 1.109-.344 1.413-.294.198-.876.431-1.748.697Z" fill="#FFB240"/><path d="m51.591 543.246-1.27.388c-1.021.312-3.004.864-5.948 1.655l-.023-.075-3.574 1.134-2.567.825c-1.842.564-3.521.995-5.036 1.295-.442-1.09-1.284-3.447-2.526-7.07-2.37-6.873-4.37-12.975-5.996-18.305-2.106-6.899-3.092-10.887-2.958-11.963-.465-.81-1.002-2.212-1.61-4.205a144.119 144.119 0 0 1-2.817-10.698c.465-.796 2.902-1.868 7.31-3.215a172.471 172.471 0 0 1 5.936-1.693 53.857 53.857 0 0 0 5.529-1.69 38.22 38.22 0 0 1 2.805-.98c2.59-.792 5.03-1.225 7.322-1.299.593.962 1.11 2.165 1.552 3.61.197.648.33 1.261.398 1.839.099.95-.163 1.52-.785 1.71l-7.707 2.316-7.68 2.266c-2.416.739-4.027 1.259-4.834 1.56l.83 2.851.718 2.353.681 2.365a126.782 126.782 0 0 0 1.652 5.949c.244.797.466 1.437.668 1.92.442.11 2.78-.482 7.014-1.777a192.36 192.36 0 0 1 7.591-2.157c2.471-.647 4.248-.891 5.331-.732.893 1.498 1.495 2.757 1.807 3.778.342 1.121.325 1.957-.051 2.507-.625.899-2.655 1.874-6.092 2.925l-1.842.522-4.022 1.271-6.895 2.434 3.18 11.487c2.445-.285 7.08-1.47 13.903-3.557 4.881-1.492 7.538-2.154 7.97-1.987.68.8 1.198 1.826 1.553 3.079.388 1.27.625 2.45.713 3.54.112 1.082-.133 1.838-.737 2.268-.495.342-1.091.619-1.788.832l-1.681.514-6.024 2.21Z" fill="#E440FF"/><path d="M121.046 482.444a14.572 14.572 0 0 1-1.763-.527 13.646 13.646 0 0 0-1.315-.383c-1.313-.33-2.247-.626-2.802-.888-.529-.256-.819-.617-.872-1.083-.022-.486.069-1.227.272-2.223l.052-.228c.316-1.37.58-3.501.792-6.392.202-3.08.541-6.463 1.017-10.149.516-3.863.784-6.647.803-8.353-1.362 1.503-4.4 7.029-9.113 16.578-2.796 5.635-4.416 8.722-4.861 9.261l-1.546-.076c-.379-1.371-.636-2.98-.771-4.829l-.249-2.222a22.218 22.218 0 0 1-.349-3.529 24.53 24.53 0 0 0-.226-3.54c-.276-1.587-.407-4.611-.395-9.071a54.28 54.28 0 0 0-.006-2.407c.006-.72.016-1.346.032-1.877-.047-.492-.084-.794-.112-.907-.027-.114-.079-.179-.155-.197a.261.261 0 0 1-.173-.12l-4.428 7.557a112.82 112.82 0 0 0-3.277 5.698l-.99 1.856c-1.43 2.61-2.435 4.596-3.017 5.959-.659 1.585-1.238 2.533-1.738 2.846-.406.253-1.066.275-1.979.064-1.345-.31-2.438-.67-3.28-1.078-.503-.25-1.02-.676-1.548-1.279l.131-.571c.246-1.066.835-2.868 1.768-5.406a224.029 224.029 0 0 1 3.057-7.873c1.132-2.705 1.967-4.357 2.505-4.954a2.033 2.033 0 0 1 .064-.627c.1-.431.325-1.06.676-1.888.75-1.858 1.6-3.52 2.552-4.984.538-1.292 1.336-2.898 2.394-4.819 1.39-2.672 2.157-4.313 2.297-4.922.242-.238.836-1.25 1.782-3.036 1.376-2.489 2.984-5.178 4.826-8.067 1.867-2.883 3.503-4.59 4.909-5.12.755 1.591 1.043 3.301.861 5.13-.033.954.008 1.939.121 2.954.736 7.012.981 15.394.738 25.146l-.012 1.441c.736-.525 1.506-1.603 2.309-3.235.982-1.939 5.029-7.379 12.141-16.32 2.525-3.186 4.283-5.306 5.274-6.36 1.022-1.073 1.851-1.537 2.485-1.39.254.058.506.183.756.374.058.094-.09 1.316-.445 3.666-1.079 7.235-1.441 11.588-1.086 13.059-.23.535-.436 1.196-.617 1.983-.363 1.573-.74 4.252-1.131 8.037-.146 1.677-.304 3.057-.474 4.14l-2.464 14.866c.176.976-.196 3.456-1.114 7.44-.351 1.523-.644 2.444-.878 2.764-.369.209-.845.246-1.428.111Z" fill="#FF629A"/><path d="M55.948 476.546c-4.516 1.043-9.28 1.074-14.29.092-1.617-.295-3.46-.925-5.526-1.891-4.516-2.084-7.567-5.002-9.153-8.751a7.653 7.653 0 0 0-.817-1.456c-1.186-1.436-2.365-4.291-3.538-8.564a34.539 34.539 0 0 1-.406-1.59c-1.246-5.405-1.069-10.43.533-15.076 1.595-4.672 5.198-8.925 10.809-12.759 2.227-1.583 4.317-2.6 6.271-3.051l1.312-.223c1.193-.275 2.233-.689 3.121-1.242.63-.279 1.263-.492 1.897-.638.635-.147 1.557-.319 2.767-.519a56.201 56.201 0 0 1 3.876-.574c1.374-.183 2.377-.241 3.007-.173.465.855.884 1.921 1.258 3.198.111.482.303 1.373.576 2.673.268 1.274.148 2.438-.357 3.49a3.634 3.634 0 0 1-.563.17c-.558.129-1.406.218-2.544.267-2.68.084-5.11.378-7.293.881-1.674.387-3.347 1.014-5.018 1.881l-.135.111a27.711 27.711 0 0 0-4.562 2.817c-1.8 1.351-2.914 3.239-3.344 5.663-.202 1.33-.428 2.144-.68 2.442l.167.724c.234 1.015.441 2.263.622 3.745.149 1.221.312 2.279.492 3.173.723 2.56 1.752 4.821 3.087 6.785.484.823.92 1.618 1.311 2.383.845.42 1.586.85 2.222 1.291.661.435 1.327.83 1.996 1.183.664.328 1.49.551 2.48.67 1.594.193 4.28-.039 8.057-.697a23.28 23.28 0 0 1 1.587-.246c1.735-.241 3.182-.455 4.341-.642 1.49-.264 2.594-.398 3.315-.404.714-.032 1.217.12 1.507.453.285.309.55.876.793 1.702.32 1.155.705 2.362 1.156 3.621.384 1.088.709 2.149.974 3.183l.114.495c.106.457.13.798.076 1.025-.351.562-.906.997-1.663 1.306a19.33 19.33 0 0 1-2.363.706 18.29 18.29 0 0 0-2.105.606 31.588 31.588 0 0 1-5.367 1.76Z" fill="#9F54FF"/><path d="M81.897 381.491c6.838 1.473 10.893.225 12.165-3.745.613-2.425.024-4.531-1.767-6.318-.675-.573-1.709-1.221-3.1-1.945-1.39-.724-2.449-1.19-3.175-1.398l-1.435 5.155a122.812 122.812 0 0 1-2.688 8.251Zm-13.764 31.61-.488-.14c-1.252-.358-2.328-.857-3.229-1.494.51-3.674 1.36-7.589 2.55-11.745a128.659 128.659 0 0 1 3.22-9.683c1.296-3.583 2.346-6.777 3.15-9.581l1.553-6.137.323-1.127c.924-3.23 1.617-4.941 2.08-5.133.042-.34.146-.798.311-1.374.115-.4.31-1.035.586-1.904.3-.862.68-1.905 1.14-3.128.483-1.216.859-2.056 1.127-2.521.938-.246 2.407-.082 4.41.493 2.829.811 5.802 2.015 8.92 3.614 2.553 1.301 4.294 2.504 5.224 3.611 1.315 1.65 2.083 2.656 2.305 3.018.436.748.821 2.335 1.156 4.761.11 1.413-.1 3.046-.631 4.898-.021.075-.191.623-.51 1.642s-.951 1.949-1.896 2.789c-.666 1.38-1.83 2.794-3.49 4.241-1.66 1.447-3.233 2.351-4.717 2.711-3.885.701-7.814.658-11.787-.129-.473.894-1.159 2.485-2.058 4.774-1.866 4.721-3.197 8.47-3.993 11.249l-.306 1.213a35.74 35.74 0 0 1-.543 1.754l-.161.563a8.897 8.897 0 0 0-.33 2.994c-1.112.196-2.417.12-3.916-.229Z" fill="#FFB240"/><path d="M47.681 921.579c6.138-1.644 8.903-5.418 8.294-11.321a60.7 60.7 0 0 1-.332-2.904c-.31-3.071-.63-5.223-.96-6.456-1.971-7.371-6.186-13.453-12.645-18.247a4.669 4.669 0 0 1-1.28-.102 3.43 3.43 0 0 0-1.734.02c-.453.121-1.023.409-1.71.863-2.005 1.372-3.267 2.398-3.787 3.077-1.252 2.169-1.907 5.161-1.965 8.978-.057 3.817.234 6.92.874 9.31l1.168 4.216a90.583 90.583 0 0 1 1.5 6.514c.273.115.99.88 2.15 2.295 1.362 1.765 2.427 2.922 3.194 3.471 1.289.787 3.253.975 5.893.565.466-.071.913-.164 1.34-.279Zm-.99 10.659c-5.08 1.361-9.448.455-13.1-2.718-1.212-1.104-2.674-2.99-4.385-5.659a60.99 60.99 0 0 1-4.387-8.086c-.5-1.16-.87-2.193-1.112-3.099-.323-1.207-.405-2.169-.247-2.886a10.09 10.09 0 0 1-.537-1.554c-.357-1.334-.659-3.369-.906-6.107-.247-2.737-.255-5.688-.022-8.85.257-3.17.844-5.308 1.76-6.417.115-1.891 1.405-4.07 3.872-6.537 2.46-2.493 5-4.238 7.617-5.236l2.035-.707c.734-.277 1.378-.49 1.931-.639.535-.116 1.148-.145 1.837-.087 1.657.149 3.432.536 5.325 1.161 2.579.873 4.124 1.712 4.636 2.519 1.177.466 2.333 1.464 3.47 2.993a48.984 48.984 0 0 1 3.028 4.365c.856 1.388 1.435 2.19 1.735 2.406a66.268 66.268 0 0 0 1.812 3.599 34.38 34.38 0 0 1 3.217 7.792c.058.416.1.877.127 1.382.02.479.046.877.077 1.192.134.504.27.858.406 1.064.154.175.32.494.499.959a9.34 9.34 0 0 1 .211 3.057 23.538 23.538 0 0 0-.019 1.744c.199 2.858-.174 5.897-1.12 9.116-.92 3.212-2.456 5.781-4.61 7.706-1.578 1.959-3.956 3.702-7.133 5.227-2.124 1.028-4.13 1.794-6.017 2.3Z" fill="#3DFF7F"/><path d="m87.914 939.057 8.63 2.353c.301.086.466.079.494-.021l-.01-.247c.11-3.978.344-6.972.703-8.982.423-2.804.376-4.674-.142-5.608l-1.423 1.99c-1.54 1.969-2.613 3.449-3.222 4.44l-1.637 1.887c-1.754 1.963-2.885 3.359-3.393 4.188ZM73.47 959.704l-.226-.065c-.475-.136-1.71-.599-3.706-1.388-2.17-.839-3.36-1.369-3.567-1.591a2.006 2.006 0 0 1 .076-.832c.28-.977 1.452-2.848 3.517-5.615.748-1.005 1.3-1.795 1.654-2.371.39-.7.96-1.648 1.708-2.842 1.922-3.025 3.397-4.864 4.424-5.518.175-.518.59-1.307 1.246-2.365 1.288-2.042 2.547-3.835 3.775-5.379 2.036-2.667 5.075-6.374 9.116-11.121 4.739-5.577 7.5-8.456 8.283-8.638.995-1.394 2.024-2.291 3.087-2.691.736 1.024 1.137 3.266 1.203 6.725.024 1.335-.041 2.319-.195 2.952.329.744.546 2.351.652 4.819.035 1.581.166 2.825.395 3.73.013.898.068 2.268.164 4.111l.533 13.888c.504 13.663.63 20.932.379 21.809l-.01.037c-.555.329-1.056.47-1.503.423a4.431 4.431 0 0 1-.848-.162 6.731 6.731 0 0 1-.627-.221 3.857 3.857 0 0 0-.767-.301l-1.449-.334a9.446 9.446 0 0 1-1.148-.248 6.084 6.084 0 0 1-1.893-.908c-.493-1.307-.703-4.97-.632-10.991.048-2.722 0-4.822-.146-6.3a17.495 17.495 0 0 0-1.62-.302 12.258 12.258 0 0 1-1.76-.383l-.413-.118a37.59 37.59 0 0 0-1.867-.576c-2.153-.617-4.833-1.142-8.041-1.574-1.621 1.783-4.022 5.199-7.2 10.248l-2.594 4.092Z" fill="#9F54FF"/><path d="M62.013 1010.02c-.788.4-1.746.78-2.873 1.15-1.115.4-1.889.48-2.321.27-.352-.41-.936-1.41-1.75-3.01-1.406-2.77-2.777-5.6-4.113-8.519-3.145-6.698-4.785-10.553-4.92-11.566-.4-.498-.853-1.246-1.36-2.244l-1.49-3.011-.85-1.759c-.2-.395-.466-.859-.796-1.392a46.494 46.494 0 0 1-1.61-2.906c-.531-1.045-.834-1.869-.908-2.475-.528-.578-1.052-1.378-1.572-2.399l-.284-.645a6.86 6.86 0 0 0-.371-.644c-1.58.571-3.437 1.401-5.571 2.488a265.201 265.201 0 0 0-5.916 3.103 77.407 77.407 0 0 1-2.715 1.47c-.719.367-1.16.562-1.323.587-.823-1.101-1.63-2.37-2.42-3.809-.779-1.532-1.26-2.88-1.443-4.043 2.143-1.589 5.18-3.516 9.11-5.782l29.029-14.703c.587.694 1.382 2.028 2.386 4.001.46.905.75 1.503.868 1.793.178.465.24.96.186 1.484a7.229 7.229 0 0 0-.08 1.049c-.918.322-2.595 1.103-5.031 2.345-5.012 2.553-7.883 4.118-8.612 4.695l3.982 7.396 1.697 2.818 7.779 15.721a77.676 77.676 0 0 1 2.31 5.487c.5 1.558 1.145 3.11 1.936 4.67l1.345 2.47c.425.84.81 1.68 1.153 2.53-.05 1.1-1.2 2.23-3.452 3.38Z" fill="#FF498B"/><path d="M93.692 1021.98c-.608 3.46-2.543 6.09-5.805 7.86-3.232 1.76-6.466 2.67-9.703 2.75-2.008.12-3.883.11-5.625-.02a37.894 37.894 0 0 1-5.714-.9c.005-1.76.283-5.2.833-10.33.227-2.28.477-4.53.75-6.75.342-2.8.798-6.09 1.367-9.87.572-3.82 1.143-6.224 1.713-7.23-.033-.162.003-.669.107-1.522.105-.853.24-1.846.405-2.98l.487-3.325c.21-1.496.359-2.501.448-3.015.133-1.086.235-2.241.307-3.465.027-.863.09-1.695.188-2.496.187-1.525.503-2.929.949-4.212l1.396.171c1.663.126 3.245.28 4.744.464.905.112 1.77.231 2.593.358.98.147 2.024.288 3.136.425l2.559.314a46.11 46.11 0 0 0 2.607.241c.943.011 1.841.069 2.694.174 1.448.177 2.787.486 4.019.926l-.475 4.192a5.72 5.72 0 0 0-.047.703c-.009.287-.029.56-.06.819-.093.749-.279 1.304-.559 1.663-.319.459-1.15.606-2.494.441l-.194-.023a56.882 56.882 0 0 1-4.13-.665 72.324 72.324 0 0 0-3.276-.56l-1.318-.162a108.482 108.482 0 0 1-4.061-.577 996.343 996.343 0 0 1-2.288 12.234c-.261 1.49-.526 2.897-.794 4.237 1.668.3 3.444.8 5.328 1.48 1.885.67 3.449 1.51 4.691 2.5 1.995.85 3.528 2.26 4.598 4.22a12.899 12.899 0 0 1 1.332 3.59c.065.54.1 1.43.103 2.69.003 1.26-.054 2.47-.17 3.64l-.034.27c-.124 1.01-.326 1.59-.607 1.74Zm-18.84.87-.154 2.54c.812.23 1.618.4 2.42.5 1.317.16 2.645.14 3.982-.07.994-.19 1.791-.49 2.391-.88.6-.4 1.153-.85 1.659-1.34.328-.32.683-.65 1.063-.97.115-.51.242-1 .38-1.48.211-.66.38-1.4.508-2.23.334-3.36-1.023-5.88-4.073-7.54a11.876 11.876 0 0 0-4.092-1.29 10.68 10.68 0 0 0-2.118-.06l-.019.15c-.157.64-.259 1.15-.306 1.54l-.034.27c-.044.36-.062.83-.054 1.41l-1.553 9.45Z" fill="#FFB240"/><path d="M51.92 1082.98c-1.332.45-2.436.85-3.311 1.18l-1.13.44c-.706.27-1.27.47-1.692.61-.314-.39-.512-.69-.596-.9-.084-.22-.128-.37-.132-.46.023-.23-.054-.57-.231-1.04a7.86 7.86 0 0 0-.613-1.27c-.198-.37-.374-.72-.529-1.05-.4-1.05-.67-2-.807-2.87-.175-.97-.434-1.9-.78-2.8-2.058-4.79-3.758-8.93-5.1-12.43-1.463-3.82-2.65-6.99-3.562-9.51-2.218-6.15-3.327-9.52-3.329-10.11a30.644 30.644 0 0 1-2.339-4.79c-.372-.97-.687-1.94-.944-2.9-.175-.6-.367-1.21-.576-1.83.68-.26 1.319-.56 1.914-.9.61-.38 1.554-.82 2.833-1.34 1.523-.61 4.375-1.72 8.556-3.33 6.13-2.27 10.015-3.41 11.655-3.43.25.44.482.94.696 1.49.177.47.344.97.5 1.53.148.53.319 1.05.515 1.56.506 1.76-.098 3.09-1.813 4-.853.47-1.754.88-2.702 1.25-.972.37-1.988.7-3.046 1a28.6 28.6 0 0 0-3.243 1.03 45.472 45.472 0 0 1-4.256 1.89l3.995 11.18c.188.71.445 1.49.771 2.34.42 1.1.956 2.32 1.609 3.65a56.539 56.539 0 0 1 1.762 4.06c.186.48 1.565 4.44 4.137 11.88l2.128 5.34c.403.9.73 1.68.982 2.34.251.65.457 1.3.617 1.94.184.62.103 1.1-.245 1.43-.28.22-.844.49-1.695.82Z" fill="#3DFF7F"/><path d="m63.157 1099.5-1.775-.72-.925-1.05 1.763-2.7 1.651-4.09c.234-.58 2.7-.5 7.397.25 2.12-.8 3.522-2.05 4.204-3.74 1.295-3.21 1.18-16.43-.345-39.66.23-2.8.478-4.52.74-5.17l1.394-.11 5.867 2.37c1.192.73 1.558 7.69 1.097 20.87.652.27 1.116 3.64 1.391 10.13l.58.23c1.014.41 6.866-5.64 17.555-18.14 1.003-2.49 3.769-3.18 8.296-2.08 2.538 1.64 3.675 2.79 3.412 3.44-22.706 25.93-36.347 39.49-40.925 40.68-3.697 1.23-7.49 1.06-11.377-.51Z" fill="#E440FF"/><path d="M42.627 1119.57c1.843-1.02 3.442-2.59 4.798-4.73 1.38-2.15 1.62-4.54.72-7.18a8.571 8.571 0 0 0-2.207-2.92c-.935-.84-1.984-1.36-3.147-1.55-.802-.06-1.799.03-2.992.27-1.178.2-2.083.42-2.715.66l1.882 4.8c1.37 3.58 2.59 7.13 3.661 10.65Zm11.533 23.1c2.674-1.02 4.407-2.29 5.197-3.79.343-.63.604-1.26.782-1.89l.512-1.28c-.153-.48-.286-.97-.4-1.48-.111-.66-.32-1.39-.628-2.19a10.602 10.602 0 0 0-3.094-4.25c-1.37-1.18-2.95-1.77-4.74-1.78-1.736.05-3.127.28-4.173.68-.559.22-1.112.48-1.658.81l.07.18c.17.66.357 1.26.562 1.79.13.34.33.75.598 1.24l3.085 10.44 1.09 2.3c.99-.18 1.922-.44 2.797-.78Zm-1.936 8.49c-1.361.52-2.85.97-4.465 1.34-.603-1.14-1.63-3.38-3.08-6.73-1.764-4.09-3.513-8.4-5.246-12.92-1.212-3.17-2.213-5.96-3.005-8.39a113.65 113.65 0 0 0-1.61-3.98 4.956 4.956 0 0 0-.275-.61l-.21-.55a202.77 202.77 0 0 1-1.812-4.62c-1.24-3.23-1.73-5.09-1.471-5.58-.146-.31-.33-.75-.554-1.34-.149-.39-.38-1.02-.69-1.91-.297-.92-.634-2.02-1.012-3.29-.363-1.31-.594-2.24-.692-2.79.621-.85 1.953-1.67 3.995-2.46.098-.03.722-.26 1.874-.67 1.152-.42 2.94-.81 5.363-1.18 2.438-.41 4.305-.41 5.6-.02 1.882.62 3.029 1.03 3.442 1.23.782.37 1.985 1.47 3.608 3.3.879 1.06 1.645 2.44 2.297 4.14.075.2.293.84.654 1.93.386 1.08.475 2.26.268 3.54.337 1.46.42 3.06.25 4.79-.146 1.73-.59 3.16-1.33 4.28.57.03 1.083.1 1.541.2l2.075-.04c.273.2.724.43 1.354.69 1.85.83 3.41 1.99 4.679 3.48.317.46.808 1.31 1.472 2.53.787 1.4 1.414 2.71 1.88 3.92.382 1 .489 1.64.32 1.93.265.77.36 1.89.285 3.37a17.197 17.197 0 0 1-.728 4.21c-.386 1.32-.903 2.12-1.55 2.39-.205.78-.737 1.61-1.596 2.5-1.56 1.6-3.397 3.03-5.509 4.29-2.282 1.32-4.323 2.33-6.122 3.02Z" fill="#4053FF"/><path d="M105.769 895.029c-.855.229-1.872.407-3.051.534-1.172.153-1.947.077-2.325-.226-.26-.47-.623-1.572-1.087-3.308-.801-2.994-1.553-6.055-2.255-9.183-1.685-7.205-2.488-11.317-2.41-12.335-.288-.57-.576-1.396-.865-2.478l-.83-3.255-.468-1.897a19.651 19.651 0 0 0-.49-1.527 46.495 46.495 0 0 1-.97-3.177c-.303-1.132-.428-2.002-.375-2.609-.396-.676-.743-1.567-1.039-2.674l-.144-.689a6.652 6.652 0 0 0-.23-.707c-1.663.23-3.652.655-5.966 1.275a269.03 269.03 0 0 0-6.432 1.804c-1.194.374-2.18.666-2.96.875-.78.208-1.252.308-1.417.298-.576-1.247-1.102-2.657-1.576-4.228-.444-1.661-.635-3.079-.572-4.255 2.426-1.108 5.797-2.362 10.114-3.761l31.45-8.347c.43.802.931 2.272 1.503 4.41.263.981.422 1.626.477 1.935a3.16 3.16 0 0 1-.127 1.49 7.306 7.306 0 0 0-.296 1.009c-.964.124-2.767.539-5.408 1.247-5.433 1.456-8.567 2.39-9.4 2.802l2.359 8.062 1.075 3.109 4.344 16.994a77.84 77.84 0 0 1 1.119 5.847c.166 1.627.474 3.284.925 4.969l.803 2.697c.242.906.443 1.809.603 2.709-.279 1.073-1.639 1.936-4.079 2.59Z" fill="#E440FF"/><path d="m54.053 843.91-1.325-.093c-1.065-.074-3.114-.27-6.146-.586l.006-.078-3.744-.223-2.691-.149c-1.923-.134-3.645-.333-5.167-.596-.022-1.176.035-3.678.172-7.506.246-7.267.563-13.679.951-19.239.503-7.196 1.01-11.272 1.52-12.228-.145-.924-.144-2.425 0-4.503.255-3.637.654-7.303 1.2-10.998.718-.576 3.377-.704 7.975-.382 1.922.134 3.972.317 6.149.547a53.308 53.308 0 0 0 5.767.403 38.359 38.359 0 0 1 2.97.091c2.701.189 5.135.659 7.302 1.411.21 1.111.261 2.42.156 3.927a10.491 10.491 0 0 1-.286 1.859c-.247.923-.696 1.361-1.345 1.316l-8.025-.6-7.982-.637c-2.52-.176-4.21-.268-5.072-.276l-.245 2.959-.172 2.455-.21 2.452a126.846 126.846 0 0 0-.586 6.146c-.058.831-.079 1.508-.063 2.032.373.261 2.768.546 7.184.854 2.702.189 5.322.425 7.86.707 2.54.282 4.286.691 5.24 1.227.298 1.718.41 3.11.335 4.175-.081 1.169-.396 1.943-.945 2.322-.904.616-3.149.798-6.734.547l-1.907-.172-4.21-.255-7.31-.198-1.14 11.863c2.384.611 7.136 1.165 14.254 1.663 5.092.356 7.81.689 8.153 1 .349.991.465 2.134.348 3.432-.093 1.324-.293 2.511-.601 3.56-.282 1.051-.782 1.668-1.5 1.853-.584.142-1.24.187-1.967.137l-1.754-.123-6.415-.096Z" fill="#FF498B"/><path d="M110.579 823.142c-4.516 1.043-9.28 1.074-14.29.092-1.618-.294-3.46-.925-5.527-1.891-4.516-2.084-7.567-5.001-9.153-8.751a7.619 7.619 0 0 0-.816-1.455c-1.186-1.437-2.366-4.292-3.538-8.565a34.283 34.283 0 0 1-.406-1.59c-1.246-5.405-1.069-10.43.533-15.076 1.595-4.672 5.198-8.924 10.808-12.759 2.228-1.583 4.318-2.6 6.272-3.051l1.312-.223c1.192-.275 2.233-.689 3.12-1.242.631-.279 1.264-.492 1.898-.638a48.038 48.038 0 0 1 2.767-.518 56.134 56.134 0 0 1 3.876-.575c1.374-.183 2.377-.241 3.007-.173.464.855.884 1.921 1.258 3.198.111.482.303 1.373.576 2.673.267 1.275.148 2.438-.358 3.49a3.597 3.597 0 0 1-.562.17c-.558.129-1.406.218-2.544.267-2.68.084-5.111.378-7.293.882-1.675.386-3.347 1.013-5.018 1.88l-.135.111a27.843 27.843 0 0 0-4.562 2.817c-1.8 1.351-2.915 3.239-3.344 5.663-.202 1.33-.428 2.144-.68 2.443l.167.723c.234 1.015.441 2.263.622 3.745.148 1.222.312 2.28.492 3.174.723 2.559 1.752 4.82 3.087 6.784.484.823.92 1.618 1.31 2.383.846.42 1.587.85 2.223 1.291.661.435 1.327.83 1.996 1.183.664.328 1.49.551 2.48.67 1.594.193 4.28-.039 8.057-.697.589-.11 1.118-.192 1.587-.246 1.735-.24 3.182-.454 4.341-.642 1.49-.263 2.594-.398 3.315-.404.714-.031 1.216.12 1.507.454.285.308.549.875.793 1.701.32 1.155.705 2.363 1.156 3.622.384 1.087.709 2.148.974 3.182l.114.495c.105.457.131.799.076 1.025-.351.562-.906.998-1.663 1.306-.763.283-1.551.518-2.363.706a18.74 18.74 0 0 0-2.105.606 31.506 31.506 0 0 1-5.367 1.76Z" fill="#4053FF"/><path d="M91.848 1289.52c5.971 2.18 10.398.67 13.28-4.52.392-.77.855-1.63 1.391-2.57 1.506-2.69 2.477-4.64 2.913-5.84 2.606-7.17 2.636-14.57.09-22.2a4.999 4.999 0 0 1-.991-.82 3.37 3.37 0 0 0-1.432-.98c-.44-.16-1.072-.25-1.895-.27-2.43-.03-4.051.09-4.865.34-2.27 1.06-4.52 3.14-6.753 6.23-2.233 3.1-3.772 5.81-4.617 8.13l-1.458 4.13c-.8 2.2-1.634 4.27-2.501 6.2.158.25.307 1.29.447 3.11.105 2.23.314 3.79.628 4.68.605 1.38 2.107 2.66 4.505 3.84.423.21.842.39 1.258.54Zm-6.916 8.17c-4.943-1.8-8.002-5.05-9.177-9.74-.36-1.6-.478-3.99-.352-7.16.127-3.17.472-6.21 1.037-9.14.255-1.24.543-2.29.864-3.18.427-1.17.91-2.01 1.45-2.5.087-.47.238-1 .451-1.58.471-1.3 1.39-3.14 2.755-5.53 1.366-2.38 3.05-4.8 5.051-7.26 2.026-2.45 3.733-3.87 5.118-4.25 1.177-1.49 3.483-2.53 6.917-3.14 3.444-.63 6.523-.6 9.24.08l2.072.59c.761.19 1.41.39 1.949.58.505.22 1.023.54 1.555.99 1.272 1.07 2.505 2.4 3.698 4 1.613 2.2 2.398 3.77 2.356 4.73.696 1.05 1.073 2.53 1.129 4.44.089 1.89.082 3.66-.02 5.31-.093 1.63-.078 2.62.044 2.97a66.771 66.771 0 0 0-.577 3.99 34.415 34.415 0 0 1-1.827 8.23c-.191.37-.42.78-.687 1.2-.258.41-.465.75-.621 1.03-.178.49-.27.85-.277 1.1.027.23-.019.59-.14 1.07a9.364 9.364 0 0 1-1.577 2.63c-.367.47-.705.95-1.015 1.42-1.474 2.45-3.52 4.73-6.138 6.82-2.594 2.11-5.324 3.33-8.192 3.67-2.415.7-5.362.77-8.839.2-2.329-.38-4.411-.9-6.247-1.57Z" fill="#3DFF7F"/><path d="m40.166 1339.07 8.758-1.83c.307-.06.45-.14.43-.24l-.12-.21c-1.706-3.6-2.855-6.37-3.447-8.33-.893-2.69-1.783-4.33-2.668-4.93l-.366 2.42c-.479 2.45-.765 4.26-.858 5.42l-.604 2.42c-.673 2.55-1.048 4.31-1.125 5.28Zm-3.513 24.95-.23.05c-.485.09-1.796.24-3.932.44-2.315.24-3.615.31-3.9.2-.147-.21-.25-.46-.31-.77-.194-1 .003-3.2.589-6.6.211-1.24.344-2.19.4-2.87.03-.8.107-1.9.233-3.3.342-3.57.822-5.88 1.44-6.93-.078-.54-.065-1.43.039-2.67.223-2.41.532-4.58.925-6.51.607-3.3 1.634-7.98 3.083-14.05 1.695-7.12 2.85-10.94 3.466-11.46.255-1.69.765-2.96 1.531-3.8 1.12.58 2.494 2.4 4.121 5.45.627 1.18 1.015 2.08 1.165 2.72.63.51 1.552 1.85 2.765 4 .748 1.39 1.43 2.44 2.043 3.14.42.8 1.09 1.99 2.01 3.59l6.772 12.13c6.642 11.95 10.05 18.37 10.224 19.27l.008.03c-.346.55-.728.9-1.148 1.06-.245.1-.522.18-.828.24a4.75 4.75 0 0 1-.66.09c-.24 0-.513.02-.82.08l-1.442.36c-.4.13-.778.23-1.136.3-.715.14-1.415.16-2.099.05-1.031-.94-2.88-4.11-5.546-9.5-1.19-2.45-2.186-4.3-2.986-5.55-.532.13-1.06.28-1.581.46-.496.18-1.077.33-1.742.46l-.421.08c-.491.07-1.133.18-1.925.34-2.199.43-4.825 1.17-7.88 2.25-.636 2.32-1.227 6.46-1.771 12.4l-.457 4.82Z" fill="#9F54FF"/><path d="M86.393 1376.17c-.847-.26-1.804-.65-2.871-1.16-1.075-.49-1.693-.97-1.852-1.43.027-.53.303-1.66.828-3.38a231.77 231.77 0 0 1 2.947-8.98c2.383-7.01 3.877-10.92 4.482-11.74.058-.64.25-1.49.578-2.56l1.018-3.21.608-1.85c.129-.43.26-.94.392-1.56.245-1.07.53-2.14.858-3.21.342-1.12.696-1.92 1.063-2.41.021-.78.199-1.72.534-2.82l.242-.66c.076-.25.136-.49.18-.72-1.534-.69-3.446-1.38-5.737-2.08-2.266-.69-4.403-1.32-6.41-1.88-1.21-.31-2.202-.59-2.974-.83-.772-.23-1.225-.4-1.36-.49.172-1.37.472-2.84.901-4.43.502-1.64 1.09-2.94 1.766-3.91 2.645.35 6.168 1.07 10.57 2.17l31.094 9.59c-.059.91-.412 2.42-1.058 4.54-.297.97-.503 1.6-.619 1.89-.195.46-.493.86-.897 1.2-.21.15-.472.38-.785.7-.883-.41-2.632-1.01-5.247-1.81-5.38-1.65-8.532-2.52-9.456-2.61l-2.266 8.09-.734 3.21-5.307 16.72a76.651 76.651 0 0 1-2.145 5.55 31.69 31.69 0 0 0-1.845 4.71l-.746 2.71c-.274.89-.581 1.77-.922 2.62-.804.76-2.414.77-4.83.03Z" fill="#FF629A"/><path d="M77.81 1443.46c-.984-.11-1.756-.24-2.314-.41-.236-.49-.368-1.36-.396-2.59-.027-1.23.025-2.47.155-3.72.13-1.24.315-2.12.554-2.65h3.3c4.817.51 9.595-.23 14.333-2.22.604-.51 1.277-1.06 2.018-1.64 2.73-1.8 5.025-4.34 6.887-7.6-1.632-.17-2.808-.32-3.527-.45a8.997 8.997 0 0 0-.963-.18c-.541-.08-1.133-.18-1.775-.3-.616-.12-1.183-.21-1.701-.26l-3.57-.42c-2.538-.26-4.328-.54-5.371-.84l-.338-3.14c.172-.63.289-1.25.351-1.84.03-.29.046-.56.047-.82.001-.27.016-.53.043-.79.09-.85.344-1.78.764-2.78.566-.15 1.548-.15 2.946-.01l2.288.28c.674.08 1.258.12 1.752.15.68.02 1.42.07 2.223.16 1.165.12 2.455.31 3.868.56 1.261.21 2.408.39 3.441.52.138-.06.325-.1.56-.1-.079-1.24-.21-2.23-.393-2.98-.503-1.44-1.187-2.66-2.053-3.64-.747-.86-1.212-1.67-1.395-2.42-1.491-.76-2.99-1.71-4.494-2.83-3.712-2.8-7.019-4.36-9.92-4.66-1.268-.14-3.014-.1-5.235.11-.213.03-.437.05-.673.05-.155-.52-.297-1.41-.426-2.68a58.161 58.161 0 0 1-.246-3.64c-.035-1.15-.023-2.02.037-2.59l.044-.42c1.275-.42 2.77-.56 4.484-.43 1.743.1 2.926.19 3.547.25 2.176.23 4.31.6 6.404 1.11 2.658.62 4.388 1.35 5.19 2.2.978.15 2.074.82 3.285 1.99.862.77 1.852 1.57 2.97 2.4 1.815 1.16 3.419 2.85 4.809 5.06.453.68.91 1.32 1.37 1.91.449.97.904 1.87 1.367 2.7.701 1.31 1.32 2.64 1.857 4.01 1.028 2.67 1.326 6.07.893 10.19l-.308 2.56c-.444 3.22-1.285 5.62-2.524 7.19a13.034 13.034 0 0 1-3.382 5.66 37.289 37.289 0 0 1-5.113 4.17c-1.498 1.05-3.498 2.14-6.002 3.29-2.501 1.13-4.534 1.66-6.099 1.6-.894.53-2.434.87-4.622 1.01-2.165.16-4.028.2-5.59.11-1.539-.05-2.658-.12-3.357-.19Z" fill="#4053FF"/><path d="m82.975 1498.71-41.028 20.14-1.398-.01c-3.358-7.78-5.967-13.57-7.828-17.35l-9.8-19.95c-.77-1.57-1.605-3.74-2.506-6.52-.57-.21-1.503-1.64-2.8-4.28l-.844-1.72c-.38-.77 1.714-2.74 6.28-5.91 2.085-.12 3.417.17 3.994.87 9.667 21.62 16.085 35.66 19.255 42.11l7.96-3.9c-1.114-2.27-2.592-5.78-4.433-10.53-6.128-11.47-11.173-21.24-15.135-29.3.884-1.39 1.84-2.34 2.868-2.84l5.12-2.52c.806-.25 1.37-.05 1.69.61l14.539 29.59 1.127 3.71c.672.42 1.325 1.28 1.956 2.56l1.947 3.97c1.73-.85 2.973-1.22 3.729-1.09 1.3-1.14 2.536-1.99 3.705-2.56-6.08-13.32-11.296-24.41-15.648-33.27-.988-2.01-2.765-5.15-5.333-9.43.541-.73 1.01-1.2 1.408-1.39 5.33-2.62 8.368-3.17 9.115-1.65 12.676 27.75 20.22 44.08 22.63 48.99.368.75.178 1.3-.57 1.67Z" fill="#9F54FF"/><path d="M111.032 1474.45c6.991-.2 10.629-2.39 10.913-6.55.015-2.5-1.061-4.4-3.228-5.71-.793-.39-1.952-.77-3.476-1.14-1.523-.37-2.663-.57-3.417-.6l-.159 5.35c-.105 2.84-.316 5.72-.633 8.65Zm-5.793 33.99-.507-.02c-1.301-.05-2.465-.27-3.493-.68-.385-3.69-.497-7.69-.337-12.01.118-3.2.387-6.59.806-10.17.401-3.79.656-7.14.763-10.06l.039-6.33.044-1.17c.124-3.36.387-5.19.789-5.48-.04-.34-.048-.81-.026-1.41.015-.42.053-1.08.113-1.99.085-.91.204-2.01.357-3.31.178-1.3.342-2.2.491-2.72.851-.46 2.318-.65 4.399-.58 2.941.11 6.116.57 9.527 1.38 2.79.65 4.769 1.4 5.936 2.25 1.672 1.29 2.659 2.08 2.961 2.38.602.62 1.356 2.07 2.262 4.35.446 1.34.633 2.98.562 4.9-.003.08-.038.65-.103 1.72-.066 1.07-.456 2.12-1.172 3.16-.317 1.5-1.107 3.15-2.373 4.95-1.265 1.81-2.576 3.06-3.931 3.77-3.603 1.61-7.428 2.51-11.475 2.69-.244.99-.529 2.69-.854 5.13-.681 5.03-1.075 8.99-1.182 11.88l-.007 1.25c-.027.73-.063 1.34-.107 1.83l-.022.59a8.933 8.933 0 0 0 .398 2.99c-1.034.45-2.319.69-3.858.71Z" fill="#3DFF7F"/><path d="M52.012 1434.66c-1.36.36-2.489.68-3.385.95l-1.158.36c-.722.22-1.299.38-1.73.48-.286-.4-.464-.71-.532-.94-.068-.22-.102-.37-.1-.46.04-.23-.014-.58-.158-1.05-.152-.5-.326-.94-.523-1.31-.171-.38-.323-.75-.454-1.09-.327-1.07-.529-2.04-.605-2.92-.107-.97-.301-1.92-.583-2.84-1.72-4.92-3.127-9.18-4.222-12.76a540.398 540.398 0 0 1-2.89-9.74c-1.784-6.29-2.656-9.73-2.616-10.31a30.974 30.974 0 0 1-2-4.94c-.304-1-.55-1.99-.74-2.96-.133-.62-.282-1.24-.447-1.87.698-.21 1.355-.47 1.972-.76.634-.33 1.608-.71 2.92-1.14 1.561-.51 4.484-1.41 8.767-2.72 6.274-1.84 10.229-2.71 11.865-2.61.22.45.417.96.591 1.53.145.48.276 1 .393 1.56.11.54.245 1.07.405 1.59.382 1.79-.313 3.08-2.088 3.87-.883.4-1.81.75-2.782 1.05-.996.31-2.032.57-3.109.79-1.084.19-2.186.46-3.307.81-1.448.6-2.907 1.13-4.377 1.58l3.206 11.44c.138.72.34 1.51.606 2.38a46.02 46.02 0 0 0 1.35 3.76 56.986 56.986 0 0 1 1.476 4.16c.152.5 1.252 4.55 3.299 12.15l1.75 5.47c.34.93.612 1.73.817 2.4.205.67.366 1.33.48 1.98.141.64.026 1.11-.344 1.41-.293.2-.876.43-1.747.7Z" fill="#FFB240"/><path d="m59.989 1292.45-1.27.39c-1.022.31-3.004.87-5.948 1.66l-.023-.08-3.575 1.14-2.566.82c-1.843.56-3.522 1-5.037 1.3-.442-1.09-1.284-3.45-2.526-7.07-2.37-6.88-4.369-12.98-5.996-18.31-2.106-6.9-3.092-10.89-2.957-11.96-.466-.81-1.002-2.21-1.61-4.21a142.68 142.68 0 0 1-2.817-10.7c.465-.79 2.901-1.86 7.31-3.21a170.48 170.48 0 0 1 5.936-1.69c.911-.23 1.865-.49 2.862-.8.846-.25 1.735-.55 2.666-.89.949-.37 1.884-.7 2.805-.98 2.59-.79 5.031-1.23 7.323-1.3.593.96 1.11 2.16 1.551 3.61.198.65.33 1.26.398 1.84.1.95-.162 1.52-.785 1.71l-7.706 2.31-7.681 2.27c-2.416.74-4.027 1.26-4.834 1.56l.83 2.85.718 2.35.681 2.37c.524 2.07 1.075 4.05 1.653 5.95.243.79.466 1.43.668 1.92.442.11 2.78-.49 7.013-1.78 2.59-.79 5.12-1.51 7.592-2.16 2.47-.64 4.248-.89 5.33-.73.894 1.5 1.496 2.76 1.807 3.78.343 1.12.325 1.96-.05 2.51-.625.9-2.655 1.87-6.092 2.92l-1.842.52-4.023 1.27-6.894 2.44 3.18 11.48c2.445-.28 7.079-1.47 13.903-3.55 4.88-1.49 7.538-2.16 7.97-1.99.68.8 1.197 1.83 1.552 3.08.388 1.27.626 2.45.713 3.54.113 1.08-.133 1.84-.737 2.27-.494.34-1.09.62-1.788.83l-1.68.51-6.025 2.21Z" fill="#E440FF"/><path d="M129.443 1231.65c-.584-.13-1.171-.31-1.763-.52-.495-.17-.934-.3-1.314-.39-1.314-.33-2.248-.62-2.802-.89-.529-.25-.82-.61-.873-1.08-.021-.49.069-1.23.272-2.22l.053-.23c.316-1.37.58-3.5.792-6.39.202-3.08.541-6.46 1.016-10.15.517-3.86.784-6.65.803-8.35-1.362 1.5-4.399 7.02-9.113 16.57-2.795 5.64-4.415 8.73-4.86 9.27l-1.546-.08c-.379-1.37-.636-2.98-.771-4.83l-.25-2.22a22.22 22.22 0 0 1-.349-3.53c.01-1.2-.066-2.38-.226-3.54-.275-1.59-.407-4.61-.394-9.07.015-.88.013-1.68-.007-2.41a97.2 97.2 0 0 1 .032-1.88c-.047-.49-.084-.79-.111-.9-.028-.12-.079-.18-.156-.2a.282.282 0 0 1-.172-.12l-4.428 7.56c-1.11 1.8-2.203 3.7-3.278 5.7l-.989 1.85c-1.43 2.61-2.436 4.6-3.017 5.96-.66 1.59-1.239 2.53-1.738 2.85-.406.25-1.066.27-1.98.06-1.344-.31-2.437-.67-3.279-1.08-.503-.25-1.02-.67-1.549-1.28l.132-.57c.246-1.06.835-2.87 1.767-5.4a221.45 221.45 0 0 1 3.058-7.88c1.131-2.7 1.966-4.35 2.505-4.95-.016-.16.005-.37.064-.63.1-.43.325-1.06.676-1.89.749-1.85 1.6-3.52 2.552-4.98.538-1.29 1.336-2.9 2.393-4.82 1.391-2.67 2.157-4.31 2.297-4.92.242-.24.836-1.25 1.783-3.04 1.375-2.49 2.984-5.17 4.826-8.06 1.867-2.89 3.503-4.59 4.908-5.12.756 1.59 1.043 3.3.862 5.13-.033.95.007 1.94.121 2.95.735 7.01.981 15.39.737 25.15l-.011 1.44c.735-.53 1.505-1.61 2.309-3.24.981-1.94 5.028-7.38 12.14-16.32 2.525-3.18 4.283-5.3 5.274-6.36 1.023-1.07 1.851-1.53 2.486-1.39.253.06.505.19.755.38.059.09-.089 1.31-.444 3.66-1.08 7.24-1.442 11.59-1.086 13.06-.231.54-.436 1.2-.618 1.98-.362 1.58-.739 4.26-1.131 8.04-.146 1.68-.304 3.06-.473 4.14l-2.465 14.87c.176.97-.195 3.45-1.114 7.44-.351 1.52-.643 2.44-.877 2.76-.369.21-.845.25-1.429.11Z" fill="#FF629A"/><path d="M64.346 1225.75c-4.517 1.05-9.28 1.08-14.29.1-1.618-.3-3.46-.93-5.527-1.89-4.516-2.09-7.567-5.01-9.153-8.76a7.575 7.575 0 0 0-.816-1.45c-1.187-1.44-2.366-4.29-3.538-8.57-.148-.52-.284-1.05-.407-1.59-1.246-5.4-1.068-10.43.533-15.07 1.596-4.67 5.199-8.93 10.81-12.76 2.226-1.58 4.317-2.6 6.27-3.05l1.312-.22c1.193-.28 2.233-.69 3.121-1.25.631-.28 1.263-.49 1.898-.63.634-.15 1.556-.32 2.767-.52a53.74 53.74 0 0 1 3.876-.58c1.374-.18 2.376-.24 3.007-.17.464.85.883 1.92 1.258 3.2.11.48.303 1.37.576 2.67.267 1.27.148 2.44-.358 3.49-.146.06-.334.12-.562.17-.558.13-1.406.22-2.544.27-2.68.08-5.111.37-7.293.88a21.307 21.307 0 0 0-5.019 1.88l-.134.11c-1.632.8-3.153 1.74-4.562 2.82-1.8 1.35-2.915 3.24-3.345 5.66-.201 1.33-.428 2.14-.68 2.44l.167.73c.234 1.01.442 2.26.623 3.74.148 1.22.312 2.28.491 3.17.724 2.56 1.753 4.83 3.087 6.79.484.82.921 1.62 1.311 2.38.846.42 1.586.85 2.222 1.29.662.44 1.327.83 1.997 1.19.663.32 1.49.55 2.48.67 1.594.19 4.28-.04 8.056-.7.59-.11 1.119-.19 1.587-.25 1.735-.24 3.183-.45 4.342-.64 1.49-.26 2.594-.4 3.314-.4.715-.03 1.217.12 1.508.45.285.31.549.88.793 1.7.32 1.16.705 2.36 1.156 3.62.384 1.09.708 2.15.974 3.19l.114.49c.105.46.13.8.076 1.03-.352.56-.906.99-1.663 1.3-.764.29-1.551.52-2.363.71-.787.18-1.489.38-2.105.6-1.751.76-3.54 1.34-5.367 1.76Z" fill="#9F54FF"/><path d="M90.295 1130.7c6.837 1.47 10.892.22 12.164-3.75.613-2.42.025-4.53-1.766-6.31-.676-.58-1.71-1.22-3.1-1.95-1.391-.72-2.45-1.19-3.175-1.4l-1.436 5.16c-.781 2.73-1.677 5.48-2.687 8.25Zm-13.764 31.61-.489-.14c-1.251-.36-2.327-.86-3.228-1.5.51-3.67 1.36-7.58 2.55-11.74.881-3.08 1.954-6.31 3.219-9.68 1.297-3.59 2.347-6.78 3.15-9.58l1.554-6.14.322-1.13c.925-3.23 1.618-4.94 2.08-5.13.043-.34.147-.8.312-1.37.114-.41.31-1.04.585-1.91.301-.86.681-1.9 1.14-3.13.483-1.21.86-2.05 1.128-2.52.937-.24 2.407-.08 4.41.49 2.828.82 5.802 2.02 8.92 3.62 2.553 1.3 4.294 2.5 5.223 3.61 1.315 1.65 2.084 2.66 2.305 3.02.436.75.822 2.33 1.156 4.76.11 1.41-.1 3.04-.63 4.9-.022.07-.192.62-.511 1.64s-.951 1.95-1.895 2.79c-.666 1.38-1.83 2.79-3.49 4.24-1.661 1.45-3.233 2.35-4.718 2.71-3.884.7-7.813.66-11.787-.13-.472.9-1.158 2.49-2.057 4.78-1.867 4.72-3.198 8.47-3.993 11.24l-.307 1.22c-.2.7-.381 1.28-.543 1.75l-.16.56c-.28.98-.39 1.98-.33 3-1.112.19-2.418.12-3.916-.23Z" fill="#FFB240"/></svg>