<svg width="137" height="1449" fill="none" xmlns="http://www.w3.org/2000/svg"><path d="m80.22 151.957 8.61-2.429c.301-.08.439-.171.412-.272l-.136-.206c-1.952-3.467-3.291-6.155-4.017-8.063-1.08-2.623-2.081-4.201-3.006-4.735l-.197 2.439c-.306 2.481-.466 4.303-.478 5.466l-.433 2.462c-.495 2.585-.746 4.365-.756 5.338Zm-1.766 25.142-.226.06c-.478.128-1.776.368-3.892.719-2.293.399-3.585.557-3.877.473a2 2 0 0 1-.363-.752c-.262-.981-.22-3.19.128-6.626.125-1.247.191-2.208.199-2.884a68.318 68.318 0 0 1 .002-3.317c.093-3.583.411-5.92.956-7.009-.117-.535-.166-1.425-.149-2.67.055-2.414.212-4.6.47-6.556.375-3.336 1.074-8.079 2.097-14.231 1.195-7.222 2.081-11.112 2.66-11.672.136-1.708.556-3.007 1.262-3.897 1.158.499 2.654 2.214 4.49 5.146.707 1.132 1.158 2.009 1.351 2.631.665.469 1.677 1.734 3.038 3.796.843 1.338 1.595 2.336 2.256 2.995.474.762 1.226 1.909 2.255 3.44l7.6 11.632c7.459 11.455 11.306 17.622 11.542 18.503l.01.037c-.307.568-.664.947-1.071 1.137a4.374 4.374 0 0 1-.81.297 6.75 6.75 0 0 1-.652.135c-.239.01-.51.056-.812.136l-1.414.46a9.443 9.443 0 0 1-1.111.379 6.06 6.06 0 0 1-2.091.196c-1.094-.866-3.16-3.898-6.195-9.097-1.358-2.359-2.48-4.134-3.365-5.326-.522.166-1.037.358-1.545.575-.483.211-1.051.403-1.705.579l-.415.111c-.485.103-1.117.259-1.897.468-2.163.579-4.731 1.51-7.704 2.792-.473 2.364-.774 6.529-.903 12.495l-.12 4.845Z" fill="#3DFF7F"/><path d="M32.796 203.763c6.108 1.751 10.42-.06 12.933-5.435.337-.798.74-1.684 1.209-2.661 1.314-2.792 2.147-4.802 2.498-6.029 2.1-7.335 1.615-14.722-1.457-22.158a4.748 4.748 0 0 1-1.046-.747 3.43 3.43 0 0 0-1.496-.876c-.45-.13-1.087-.177-1.91-.142-2.425.145-4.035.374-4.829.688-2.19 1.214-4.29 3.443-6.302 6.686-2.012 3.243-3.359 6.054-4.04 8.432l-1.167 4.217a90.67 90.67 0 0 1-2.063 6.357c.175.24.396 1.265.663 3.075.26 2.215.577 3.755.952 4.621.7 1.339 2.288 2.512 4.762 3.52.437.179.868.33 1.293.452Zm-6.33 8.628c-5.057-1.45-8.335-4.476-9.835-9.078-.47-1.571-.754-3.941-.848-7.111-.095-3.17.037-6.234.397-9.192.168-1.252.382-2.328.64-3.23.344-1.201.768-2.069 1.273-2.601a10.11 10.11 0 0 1 .339-1.61c.38-1.327 1.168-3.227 2.364-5.702 1.196-2.474 2.707-5.008 4.532-7.6 1.851-2.584 3.454-4.116 4.81-4.594 1.07-1.562 3.298-2.766 6.682-3.611 3.391-.869 6.465-1.058 9.223-.565l2.108.442c.772.14 1.434.289 1.985.447.518.176 1.058.466 1.62.871 1.344.981 2.666 2.227 3.968 3.738 1.762 2.077 2.655 3.593 2.68 4.548.768 1.006 1.246 2.457 1.435 4.353.22 1.879.337 3.646.35 5.302.021 1.632.105 2.617.251 2.957a66.293 66.293 0 0 0-.297 4.019 34.383 34.383 0 0 1-1.25 8.338c-.165.387-.365.803-.602 1.25-.229.422-.411.776-.547 1.062-.144.501-.21.875-.2 1.121.043.229.022.589-.064 1.079a9.344 9.344 0 0 1-1.392 2.73 23.59 23.59 0 0 0-.913 1.486c-1.3 2.553-3.182 4.966-5.648 7.239-2.44 2.28-5.08 3.691-7.916 4.232-2.361.867-5.296 1.136-8.804.807-2.35-.213-4.464-.589-6.341-1.127Z" fill="#9F54FF"/><path d="m109.24 238.925-1.183.603c-.952.484-2.808 1.372-5.57 2.662l-.036-.069-3.323 1.737-2.384 1.258c-1.717.875-3.296 1.592-4.736 2.15-.624-.997-1.862-3.172-3.714-6.525-3.526-6.357-6.553-12.02-9.08-16.987-3.27-6.429-4.933-10.185-4.988-11.268-.599-.718-1.37-2.005-2.315-3.862a144.262 144.262 0 0 1-4.63-10.048c.32-.865 2.533-2.343 6.64-4.436a172.266 172.266 0 0 1 5.553-2.697 53.39 53.39 0 0 0 5.151-2.625 38.4 38.4 0 0 1 2.592-1.452c2.413-1.23 4.742-2.08 6.986-2.551.75.845 1.469 1.94 2.154 3.286.307.604.544 1.185.71 1.742.263.919.105 1.526-.475 1.821l-7.188 3.619-7.17 3.566c-2.251 1.146-3.748 1.938-4.49 2.375l1.312 2.663 1.115 2.194 1.082 2.211c.875 1.95 1.761 3.808 2.659 5.572.378.742.708 1.334.99 1.775.455.031 2.654-.958 6.599-2.968a194.858 194.858 0 0 1 7.101-3.443c2.322-1.066 4.029-1.614 5.124-1.646 1.138 1.32 1.95 2.455 2.434 3.407.531 1.045.659 1.871.384 2.479-.458.993-2.289 2.306-5.491 3.937l-1.723.834-3.741 1.95-6.367 3.595 5.124 10.761c2.358-.705 6.717-2.677 13.074-5.917 4.548-2.317 7.05-3.43 7.504-3.341.808.67 1.496 1.591 2.063 2.763.603 1.184 1.041 2.305 1.317 3.363.298 1.046.187 1.833-.333 2.361-.428.423-.966.8-1.616 1.131l-1.566.798-5.549 3.222Z" fill="#FF498B"/><path d="M63.018 280.303a14.741 14.741 0 0 1-1.808-.34c-.511-.115-.96-.196-1.348-.244-1.34-.191-2.3-.387-2.88-.589-.552-.199-.88-.528-.98-.987-.073-.481-.06-1.227.038-2.238l.029-.233c.17-1.396.21-3.542.12-6.439-.12-3.085-.136-6.485-.048-10.2.11-3.895.086-6.693-.073-8.391-1.198 1.637-3.642 7.45-7.333 17.439-2.193 5.897-3.482 9.136-3.868 9.718l-1.545.086c-.52-1.323-.944-2.897-1.271-4.721l-.48-2.184a22.188 22.188 0 0 1-.716-3.473 24.417 24.417 0 0 0-.594-3.497c-.44-1.549-.886-4.543-1.34-8.98a54.155 54.155 0 0 0-.257-2.393c-.07-.717-.124-1.34-.164-1.87-.098-.484-.166-.781-.206-.891-.039-.11-.097-.169-.174-.179a.263.263 0 0 1-.185-.101l-3.615 7.978a112.886 112.886 0 0 0-2.665 6.009l-.79 1.95c-1.15 2.745-1.943 4.825-2.379 6.241-.49 1.645-.967 2.649-1.431 3.012-.378.295-1.032.385-1.962.271-1.37-.169-2.495-.412-3.374-.73-.527-.195-1.085-.566-1.674-1.11l.071-.582c.133-1.085.531-2.939 1.194-5.56a223.679 223.679 0 0 1 2.219-8.15c.843-2.808 1.5-4.538 1.974-5.188a2.033 2.033 0 0 1-.002-.63c.054-.44.213-1.089.476-1.949.55-1.926 1.223-3.667 2.017-5.223.401-1.341 1.027-3.022 1.878-5.043 1.105-2.803 1.695-4.514 1.77-5.135.217-.262.702-1.331 1.457-3.206 1.108-2.619 2.427-5.461 3.957-8.526 1.556-3.063 3.005-4.931 4.348-5.606.917 1.503 1.381 3.174 1.392 5.012.067.953.21 1.928.429 2.925 1.463 6.897 2.582 15.207 3.358 24.931l.139 1.434c.677-.599 1.33-1.752 1.959-3.459.773-2.03 4.23-7.863 10.37-17.499 2.18-3.432 3.706-5.724 4.582-6.876.905-1.174 1.68-1.722 2.327-1.642.258.031.522.129.79.293.068.087.049 1.318-.059 3.693-.319 7.307-.224 11.674.283 13.1-.173.556-.309 1.235-.407 2.036-.197 1.603-.292 4.307-.286 8.112.03 1.683.017 3.072-.039 4.167l-.9 15.041c.277.953.167 3.458-.33 7.516-.19 1.551-.386 2.498-.585 2.841-.345.246-.815.332-1.41.259Z" fill="#FFB240"/><path d="M82.567 280.716c2.04.515 4.283.452 6.731-.188 2.473-.63 4.279-2.217 5.418-4.763a8.53 8.53 0 0 0 .373-3.64c-.112-1.253-.527-2.348-1.244-3.284-.55-.587-1.34-1.201-2.374-1.843-.999-.657-1.812-1.112-2.44-1.365l-1.892 4.796a159.126 159.126 0 0 1-4.572 10.287Zm-7.298 24.773c2.656 1.073 4.785 1.329 6.387.769a9.346 9.346 0 0 0 1.86-.85l1.249-.591c.209-.449.447-.9.715-1.354.364-.555.707-1.231 1.028-2.028.648-1.676.86-3.417.633-5.221-.203-1.796-.955-3.307-2.257-4.535-1.307-1.146-2.48-1.929-3.517-2.348a11.04 11.04 0 0 0-1.761-.543l-.073.181a16.508 16.508 0 0 0-.81 1.695c-.137.338-.271.775-.403 1.312l-4.86 9.749-.769 2.427c.85.54 1.709.986 2.578 1.337Zm-7.194 4.887a32.89 32.89 0 0 1-4.179-2.067c.333-1.242 1.108-3.583 2.328-7.023a341.317 341.317 0 0 1 4.963-13.035c1.267-3.139 2.438-5.868 3.514-8.186.545-1.352 1.057-2.69 1.535-4.014.087-.217.158-.428.212-.63l.22-.544a231.108 231.108 0 0 1 1.819-4.615c1.296-3.212 2.205-4.909 2.728-5.091.102-.324.27-.776.504-1.355.156-.387.421-1.01.796-1.869.41-.874.91-1.908 1.504-3.1.627-1.207 1.091-2.045 1.392-2.513 1.036-.2 2.567.11 4.596.93.096.039.707.299 1.832.782 1.125.483 2.701 1.414 4.728 2.795 2.06 1.366 3.43 2.635 4.108 3.808.957 1.735 1.517 2.818 1.68 3.249.321.804.452 2.429.391 4.877-.077 1.373-.456 2.905-1.138 4.595-.078.194-.355.812-.832 1.855-.453 1.053-1.19 1.977-2.213 2.771-.749 1.299-1.778 2.526-3.087 3.682-1.284 1.167-2.58 1.907-3.886 2.222.395.412.725.812.99 1.2l1.547 1.384c.062.334.235.811.518 1.431.792 1.865 1.144 3.777 1.056 5.735-.083.556-.3 1.508-.646 2.856-.378 1.561-.81 2.946-1.297 4.153-.4.99-.759 1.533-1.078 1.629-.326.739-1.02 1.624-2.082 2.655a17.074 17.074 0 0 1-3.402 2.586c-1.182.702-2.104.934-2.765.695-.679.428-1.634.674-2.867.737-2.234.109-4.552-.098-6.954-.618-2.57-.59-4.749-1.245-6.535-1.967Z" fill="#E440FF"/><path d="M43.625 349.52c-1.629.625-2.746.985-3.352 1.078-.392.067-.707-.063-.944-.391-.237-.327-.49-.844-.761-1.549l-.727-1.897c-.476-.514-1.674-3.276-3.594-8.285-.522-1.362-2.052-5.573-4.59-12.632-1.407-4.034-3.872-11.303-7.396-21.806a47.113 47.113 0 0 1-1.376-3.153c-.69-1.8-.816-2.895-.38-3.285.293-.253.671-.467 1.133-.645l1.633-.543.765-.294c.38-.173.711-.328.994-.465.306-.145.545-.251.715-.316.608-.233.947-.294 1.018-.182.258-.127.539-.304.842-.532A51.153 51.153 0 0 1 35 291.868c1.748-.532 4.513-1.467 8.294-2.807l.023-.051.897-.386c3.866-1.484 6.186-2.235 6.96-2.253.682 2.946 1.29 5.111 1.82 6.498l.4.934c.485 1.264 1.27 3.529 2.354 6.795a569.45 569.45 0 0 0 3.93 10.584 473.29 473.29 0 0 0 3.205 8.142 506.095 506.095 0 0 1 3.303 8.398 598.062 598.062 0 0 1 4.056 10.911c-.997.746-2.359 1.45-4.085 2.113-1.264.485-2.3.729-3.107.732-1.119-1.244-2.173-3.085-3.163-5.522-1-2.462-1.811-4.507-2.435-6.137a334.803 334.803 0 0 1-1.823-4.865c-.591-1.614-1.11-3.005-1.558-4.172l-.6-1.568c-.541-1.411-2.765-7.796-6.673-19.155l-.414-.971a4.653 4.653 0 0 1-.215-.67 2.435 2.435 0 0 0-.103-.379c-.093-.243-.254-.335-.482-.275l-.825.358c-.16.09-.363.181-.606.274-1.962.921-3.927 1.87-5.894 2.849-4.042 1.97-6.258 3.029-6.647 3.179-.389.149-.618.279-.687.389-.079.086-.071.251.022.494l.148.278.196.51c.703 1.544 2.07 4.673 4.1 9.389l.758 1.759c.606 1.581 1.21 3.231 1.814 4.952.53 1.527 1.078 3.031 1.647 4.515a119.204 119.204 0 0 0 2.657 6.386 44.153 44.153 0 0 1 1.488 3.445c.326.852.633 1.724.92 2.618a48.274 48.274 0 0 0 2.231 5.713l.288.642c.391 1.022.281 1.789-.33 2.303-.579.529-1.658 1.097-3.239 1.703Z" fill="#3DFF7F"/><path d="M50.121 141.337c-.855.229-1.872.407-3.052.535-1.172.152-1.947.076-2.325-.227-.26-.469-.622-1.572-1.087-3.308-.8-2.993-1.552-6.054-2.254-9.182-1.685-7.205-2.489-11.317-2.41-12.336-.288-.57-.576-1.396-.866-2.477l-.83-3.256-.467-1.897a19.923 19.923 0 0 0-.49-1.527 46.44 46.44 0 0 1-.97-3.177c-.304-1.132-.429-2.002-.375-2.609-.397-.676-.743-1.567-1.04-2.674l-.143-.689a6.733 6.733 0 0 0-.23-.707c-1.663.23-3.652.655-5.967 1.275-2.289.614-4.433 1.215-6.431 1.805-1.195.374-2.181.665-2.961.874-.78.209-1.252.308-1.416.298-.577-1.247-1.102-2.657-1.576-4.228-.445-1.66-.635-3.079-.572-4.255 2.426-1.108 5.797-2.362 10.113-3.761l31.45-8.346c.43.801.932 2.271 1.504 4.41.262.98.421 1.625.477 1.934.078.492.035.988-.127 1.49a7.223 7.223 0 0 0-.296 1.01c-.965.123-2.767.539-5.409 1.246-5.433 1.456-8.566 2.39-9.4 2.802l2.36 8.063 1.074 3.109 4.344 16.994c.408 1.724.78 3.673 1.12 5.847.166 1.627.474 3.283.925 4.969l.802 2.696c.243.906.444 1.809.604 2.71-.28 1.072-1.64 1.935-4.079 2.589Z" fill="#E440FF"/><path d="M95.613 90.89c-.427 3.494-2.222 6.213-5.386 8.159-3.136 1.921-6.319 3.004-9.547 3.248-2 .226-3.872.317-5.618.273a35.053 35.053 0 0 1-1.678-.078 38.515 38.515 0 0 1-4.076-.52c-.086-1.755.011-5.207.293-10.356.107-2.29.24-4.552.395-6.786.196-2.806.48-6.115.85-9.926.372-3.838.816-6.273 1.332-7.308-.041-.16-.032-.668.028-1.525.06-.857.143-1.856.249-2.998l.312-3.346a115.2 115.2 0 0 1 .29-3.033c.076-1.092.118-2.25.125-3.477-.018-.863 0-1.697.057-2.502.107-1.533.35-2.952.728-4.256l1.403.098c1.668.038 3.255.11 4.762.215.91.064 1.779.138 2.608.222.986.095 2.037.181 3.154.26l2.572.18c.83.057 1.703.092 2.616.104a24.447 24.447 0 0 1 2.7.032 18.7 18.7 0 0 1 4.061.715l-.255 4.211c-.018.26-.021.494-.01.704.006.288 0 .561-.018.821-.052.754-.21 1.317-.47 1.69-.294.476-1.117.666-2.468.572l-.195-.014a56.588 56.588 0 0 1-4.158-.447 72.316 72.316 0 0 0-3.302-.388l-1.325-.092a108.7 108.7 0 0 1-4.086-.364 994.546 994.546 0 0 1-1.644 12.337 171.927 171.927 0 0 1-.572 4.267c1.681.222 3.48.622 5.398 1.2 1.918.578 3.523 1.33 4.816 2.255 2.036.743 3.64 2.07 4.812 3.979a12.766 12.766 0 0 1 1.517 3.512c.094.529.175 1.422.244 2.68.069 1.258.075 2.472.02 3.643l-.02.273c-.07 1.013-.242 1.602-.514 1.765Zm-18.769 1.859-.02 2.543c.821.188 1.635.31 2.44.367 1.325.092 2.65.002 3.974-.27.983-.245 1.764-.582 2.342-1.011.578-.43 1.107-.902 1.587-1.417.31-.343.648-.685 1.011-1.025.088-.516.189-1.018.301-1.506.177-.667.308-1.415.392-2.244.157-3.383-1.33-5.823-4.462-7.322a11.863 11.863 0 0 0-4.154-1.073 11.551 11.551 0 0 0-2.118.048l-.011.155c-.123.644-.199 1.161-.226 1.551l-.019.273c-.025.364-.019.834.02 1.41l-1.057 9.52Z" fill="#FF498B"/><path d="M48.294 74.166c-4.517 1.043-9.28 1.073-14.29.092-1.618-.295-3.46-.925-5.527-1.891-4.516-2.085-7.567-5.002-9.153-8.751a7.627 7.627 0 0 0-.817-1.456c-1.186-1.436-2.365-4.291-3.537-8.564a34.605 34.605 0 0 1-.407-1.59c-1.246-5.405-1.068-10.43.533-15.077 1.596-4.67 5.199-8.924 10.809-12.758 2.227-1.583 4.318-2.6 6.271-3.052l1.312-.222c1.193-.275 2.233-.69 3.121-1.242.63-.279 1.263-.492 1.898-.638.634-.147 1.556-.32 2.766-.519a55.954 55.954 0 0 1 3.877-.574c1.374-.184 2.376-.241 3.006-.173.465.855.884 1.92 1.259 3.197.11.482.303 1.374.576 2.674.267 1.274.148 2.438-.358 3.49-.147.06-.334.117-.562.17-.559.129-1.407.218-2.544.267-2.68.084-5.111.378-7.294.881-1.674.387-3.347 1.014-5.018 1.88l-.135.112a27.753 27.753 0 0 0-4.561 2.817c-1.8 1.351-2.915 3.239-3.345 5.663-.201 1.33-.428 2.143-.68 2.442l.167.723c.234 1.016.441 2.264.623 3.745.148 1.222.312 2.28.49 3.174.724 2.56 1.753 4.82 3.088 6.785.484.823.921 1.618 1.311 2.383.845.42 1.586.85 2.222 1.29.662.436 1.327.83 1.996 1.184.664.328 1.49.551 2.48.67 1.594.193 4.28-.04 8.057-.698.59-.109 1.118-.19 1.587-.246 1.735-.24 3.182-.454 4.342-.641 1.489-.264 2.594-.399 3.314-.404.714-.032 1.217.12 1.508.453.284.309.549.876.793 1.701.32 1.156.705 2.363 1.155 3.622.384 1.088.71 2.149.974 3.183l.114.495c.106.457.131.798.076 1.025-.351.562-.905.997-1.663 1.306-.763.283-1.55.518-2.362.706-.787.181-1.489.383-2.106.606a31.61 31.61 0 0 1-5.366 1.76Z" fill="#4053FF"/><path d="M88.639 502.371c6.237-1.212 9.258-4.784 9.062-10.715a60.784 60.784 0 0 1-.13-2.919c-.094-3.086-.263-5.255-.506-6.508-1.454-7.49-5.235-13.851-11.344-19.084a4.684 4.684 0 0 1-1.27-.191 3.431 3.431 0 0 0-1.732-.101c-.46.089-1.048.336-1.766.741-2.096 1.23-3.426 2.165-3.992 2.806-1.4 2.076-2.262 5.016-2.585 8.819-.323 3.803-.249 6.919.223 9.348l.871 4.287a90.65 90.65 0 0 1 1.043 6.602c.265.135.927.948 1.986 2.44 1.235 1.855 2.217 3.084 2.943 3.686 1.231.875 3.178 1.199 5.84.974.47-.039.922-.1 1.357-.185Zm-1.73 10.564c-5.164 1.003-9.457-.205-12.88-3.625-1.132-1.186-2.459-3.17-3.98-5.951a61.065 61.065 0 0 1-3.814-8.372c-.417-1.192-.715-2.249-.893-3.169-.238-1.227-.253-2.192-.045-2.896a10.102 10.102 0 0 1-.428-1.588c-.263-1.355-.422-3.407-.478-6.155-.056-2.748.142-5.692.594-8.83.478-3.144 1.212-5.237 2.204-6.278.245-1.878 1.684-3.962 4.317-6.251 2.628-2.315 5.283-3.879 7.963-4.692l2.08-.563c.751-.226 1.409-.394 1.971-.503.542-.079 1.155-.065 1.838.041 1.643.264 3.387.774 5.231 1.53 2.512 1.05 3.996 1.995 4.45 2.835 1.141.548 2.225 1.624 3.253 3.228a49.015 49.015 0 0 1 2.717 4.566c.757 1.444 1.279 2.285 1.563 2.521a67.667 67.667 0 0 0 1.557 3.717 34.364 34.364 0 0 1 2.667 7.997c.028.419.038.881.03 1.387-.013.48-.015.878-.007 1.195.1.511.21.875.331 1.09.142.184.286.515.431.99a9.328 9.328 0 0 1-.002 3.065 23.59 23.59 0 0 0-.14 1.738c-.001 2.866-.585 5.871-1.752 9.016-1.141 3.14-2.853 5.595-5.136 7.365-1.71 1.845-4.204 3.417-7.48 4.717-2.19.877-4.245 1.502-6.162 1.875Z" fill="#9F54FF"/><path d="m33.638 554.757-1.27-.389c-1.02-.312-2.973-.963-5.857-1.954l.023-.074-3.597-1.059-2.59-.751c-1.842-.563-3.475-1.144-4.899-1.743.242-1.151.86-3.577 1.854-7.276 1.872-7.025 3.622-13.203 5.249-18.533 2.106-6.899 3.515-10.757 4.227-11.574.067-.933.405-2.396 1.013-4.388a144.09 144.09 0 0 1 3.639-10.448c.83-.399 3.448.074 7.856 1.422 1.843.564 3.8 1.202 5.868 1.917a53.05 53.05 0 0 0 5.529 1.69c.994.222 1.952.474 2.873.756 2.59.792 4.856 1.798 6.798 3.018-.045 1.13-.288 2.417-.73 3.861-.197.648-.43 1.23-.696 1.748-.448.843-.984 1.17-1.606.979l-7.684-2.39-7.635-2.416c-2.416-.738-4.042-1.208-4.88-1.409l-.903 2.827-.719 2.354-.756 2.342a126.868 126.868 0 0 0-1.951 5.858 21.271 21.271 0 0 0-.518 1.965c.305.339 2.574 1.155 6.808 2.449 2.59.792 5.09 1.611 7.5 2.457 2.41.846 4.02 1.637 4.83 2.375-.096 1.741-.3 3.122-.612 4.143-.342 1.121-.823 1.804-1.443 2.051-1.02.396-3.247.069-6.684-.982l-1.82-.597-4.045-1.196-7.077-1.837-3.777 11.304c2.187 1.131 6.692 2.74 13.516 4.826 4.88 1.493 7.454 2.429 7.719 2.81.117 1.043-.027 2.183-.432 3.421-.388 1.27-.85 2.382-1.386 3.335-.51.96-1.136 1.449-1.877 1.468-.601.007-1.25-.096-1.948-.31l-1.68-.514-6.23-1.536Z" fill="#FF629A"/><path d="M115.138 572.978c-.573.176-1.17.317-1.79.425a14.16 14.16 0 0 0-1.33.325c-1.303.371-2.26.582-2.87.633-.586.043-1.019-.125-1.297-.503-.262-.41-.553-1.097-.875-2.061l-.068-.224c-.411-1.345-1.246-3.322-2.505-5.933-1.363-2.769-2.759-5.869-4.187-9.299-1.481-3.605-2.64-6.151-3.475-7.638-.43 1.983-.302 8.289.384 18.917.392 6.28.53 9.764.413 10.453l-1.377.707c-1.012-.997-2.038-2.263-3.079-3.797l-1.325-1.8a22.151 22.151 0 0 1-2.064-2.882 24.434 24.434 0 0 0-1.964-2.954c-1.03-1.237-2.654-3.79-4.87-7.66a53.826 53.826 0 0 0-1.208-2.082 89.478 89.478 0 0 1-.91-1.642c-.285-.402-.469-.646-.549-.73-.08-.085-.158-.115-.232-.093a.266.266 0 0 1-.21-.017l-.062 8.76c-.062 2.116-.06 4.307.005 6.575l.07 2.102c.065 2.976.185 5.2.362 6.671.22 1.702.192 2.814-.085 3.334-.225.423-.785.771-1.682 1.045-1.32.404-2.446.639-3.378.707-.561.035-1.222-.076-1.981-.334l-.171-.561c-.32-1.046-.709-2.901-1.168-5.566a223.221 223.221 0 0 1-1.283-8.349c-.37-2.909-.472-4.757-.303-5.544a2.028 2.028 0 0 1-.258-.575c-.129-.423-.248-1.081-.357-1.974-.28-1.984-.372-3.848-.278-5.593-.179-1.388-.29-3.179-.333-5.371-.13-3.011-.285-4.815-.468-5.413.091-.327.1-1.501.028-3.521-.05-2.844 0-5.977.153-9.401.178-3.431.743-5.728 1.695-6.89 1.449 1 2.552 2.338 3.308 4.013.448.843.974 1.676 1.58 2.499 4.137 5.706 8.535 12.844 13.194 21.414l.709 1.253c.375-.822.503-2.141.385-3.957-.118-2.17.671-8.906 2.367-20.208.597-4.022 1.061-6.737 1.393-8.146.35-1.441.836-2.257 1.459-2.447a1.98 1.98 0 0 1 .841-.053c.098.052.58 1.184 1.446 3.397 2.677 6.807 4.536 10.759 5.579 11.856.068.578.22 1.254.455 2.026.472 1.544 1.483 4.053 3.033 7.528.711 1.525 1.264 2.8 1.658 3.823l5.287 14.11c.64.757 1.556 3.091 2.75 7.002.456 1.494.663 2.438.62 2.833-.215.365-.609.635-1.182.81Z" fill="#FFB240"/><path d="m78.963 655.631-2.706-1.284c.07-1.081.393-2.837.97-5.27l.226-.95c.445-1.875.732-3.252.86-4.131.095-.62.205-1.196.331-1.729.072-.304.122-.626.15-.968.105-.67.52-2.526 1.241-5.567-1.05.929-3.083 3.123-6.1 6.584-1.327 1.532-2.547 2.835-3.659 3.91a37.45 37.45 0 0 0-2.003 2.014c-1.546 1.774-2.451 2.938-2.716 3.491-.306.382-.509.562-.61.538a2.2 2.2 0 0 1-.4-.175c-.669-.453-1.725-.851-3.17-1.193a22.184 22.184 0 0 0-1.225-.25 19.664 19.664 0 0 0-1.32-.193 9.703 9.703 0 0 1-1.196-.203 11.122 11.122 0 0 1-1.122-.346c-.45-.134-1.071-.562-1.863-1.285.206-.754.552-1.368 1.04-1.841a15.456 15.456 0 0 1 1.622-1.422c.74-.521 1.467-1.218 2.183-2.092.716-.874 1.429-1.508 2.138-1.902 1.336-1.905 3.413-4.115 6.232-6.632a80.076 80.076 0 0 0 4.01-3.867c1.198-1.215 1.938-2.244 2.219-3.087-.297-1.007-1.173-6.166-2.629-15.477-1.57-9.846-2.301-15.385-2.196-16.618 1.108.182 2.384.444 3.828.787 3.523.834 5.449 1.345 5.78 1.53.609 1.831 1.03 4.62 1.264 8.369.107 1.578.276 3.237.505 4.977.18 1.381.326 2.74.436 4.078.243 2.359.79 5.352 1.642 8.98l.95-4.512c.896-4.445 1.449-7.11 1.66-7.997a85.416 85.416 0 0 1 3.404-10.956c1.393-.231 3.027-.125 4.902.319 1.394.331 2.455.823 3.183 1.477.157.466-.237 3.196-1.182 8.191a202.93 202.93 0 0 1-1.502 6.83c-.3 1.267-.555 2.17-.764 2.709l-1.196 6.22c2.548-3.063 4.414-5.511 5.599-7.344a139.86 139.86 0 0 1 2.261-3.438 79.143 79.143 0 0 0 2.689-4.221c1.945-3.232 3.589-5.532 4.931-6.9.429-.005 2.392.406 5.889 1.235 1.445.343 2.69.678 3.736 1.006-.441 1.18-3.598 5.798-9.472 13.853-5.732 7.794-8.873 12.001-9.421 12.621-.129.879.056 2.127.556 3.744a94.865 94.865 0 0 0 1.805 5.246c1.388 3.513 2.25 6.421 2.586 8.722.431.664.77 1.547 1.017 2.65.247 1.102.584 2.051 1.01 2.848.324.666.581 1.329.772 1.99.222.641.269 1.348.139 2.12-1.228.325-2.374.361-3.438.109a9.705 9.705 0 0 1-1.161-.356 23.092 23.092 0 0 0-2.472-.746c-.76-.18-1.44-.302-2.042-.364a12.676 12.676 0 0 0-1.28-.022c-.245.022-.406.024-.482.006-.102-.024-.203-.275-.303-.754.012-.613-.261-2.056-.819-4.329a37.503 37.503 0 0 0-.885-2.699c-.431-1.226-.922-2.935-1.472-5.126-.909-3.614-1.644-6.264-2.208-7.95-.358 1.173-.65 1.893-.874 2.161-.065.386-.121.734-.168 1.044a4.778 4.778 0 0 1-.122.854c-.092.273-.266.553-.521.84-.395 2.904-.674 4.698-.837 5.382l-.3 1.094c-.176.52-.352 1.147-.526 1.882l-.423 1.947c-.325 1.368-.649 2.282-.972 2.74-1.003.057-1.91-.011-2.722-.203l-1.502-.437a11.48 11.48 0 0 0-1.785-.262Z" fill="#4053FF"/><path d="M48.014 687.845c-.576.165-1.28.258-2.114.28-.723-.443-1.887-1.532-3.493-3.267-.865-.944-1.636-1.699-2.312-2.264a28.438 28.438 0 0 1-3.267-3.615l-1.572-1.948c-.63-.307-1.202-.794-1.717-1.459a10.3 10.3 0 0 0-.74-.885c-.347-.172-.742-.465-1.186-.88-.182.594-.375 1.056-.58 1.385-.085.458-.139.839-.16 1.143a4.8 4.8 0 0 1-.698 2.109l-.38 2.506a26.406 26.406 0 0 1-.902 4.809c-.25.83-.497 1.862-.74 3.097-.49 2.361-.929 3.908-1.315 4.642-.726.397-1.377.678-1.953.843a12.07 12.07 0 0 1-1.685.36c-.415.065-.885.172-1.41.323l-1.23.392-2.854-.037c.09-1.299.526-3.658 1.31-7.078.518-2.262.842-3.83.97-4.707l.334-1.964c.071-.319.132-.675.182-1.068.19-1.138.962-4.691 2.318-10.658l.939-4.251a67.966 67.966 0 0 1-2.447-2.875l-4.823-5.365c-1.28-1.069-3.87-3.782-7.768-8.138-3.806-4.22-5.783-6.593-5.934-7.119.562-.783 1.715-1.438 3.46-1.965 1.753-.501 3.367-.733 4.84-.694 4.564 3.841 8.686 7.794 12.366 11.861l2.656 2.897.762-3.875c1.034-5.388 2.502-10.914 4.405-16.578 1.144-.734 2.543-1.337 4.195-1.81 1.928-.552 3.357-.622 4.287-.211.129.451-.33 3.494-1.374 9.129-1.076 5.806-1.883 9.477-2.42 11.012l-1.298 7.116c-.132.959-.33 2.208-.595 3.746l3.015 3.16c4.041 4.098 6.548 6.713 7.521 7.843.226.314.453.588.682.82.432.473.876.982 1.33 1.529a95.045 95.045 0 0 0 3.273 3.493c2.453 2.521 4.045 4.3 4.774 5.337l-2.403 1.541c-.465.079-.898.176-1.298.291-.501.143-.941.309-1.32.499-.512.201-1.055.383-1.631.548Z" fill="#9F54FF"/><path d="m60.781 724.6-1.816-.603-.989-.988 1.593-2.805 1.394-4.188c.197-.593 2.664-.665 7.4-.216 2.067-.932 3.388-2.263 3.963-3.993 1.094-3.286.157-16.468-2.81-39.545.056-2.808.195-4.546.417-5.213l1.384-.199 6.005 1.996c1.236.658 2.034 7.578 2.394 20.761.667.221 1.34 3.56 2.019 10.015l.593.197c1.038.345 6.503-6.058 16.397-19.207.847-2.545 3.565-3.412 8.153-2.601 2.636 1.48 3.843 2.554 3.621 3.221-21.055 27.305-33.83 41.692-38.327 43.161-3.615 1.461-7.412 1.53-11.39.207Z" fill="#FFB240"/><path d="M51.741 483.599c-.846.259-1.857.473-3.03.641-1.167.193-1.944.145-2.332-.145-.277-.46-.677-1.549-1.202-3.268a233.111 233.111 0 0 1-2.573-9.098c-1.935-7.142-2.882-11.224-2.84-12.244-.306-.56-.623-1.375-.95-2.446l-.943-3.225-.533-1.879c-.13-.424-.31-.927-.543-1.509a46.618 46.618 0 0 1-1.081-3.142c-.342-1.12-.497-1.985-.465-2.594-.42-.661-.797-1.54-1.132-2.636l-.168-.684a6.678 6.678 0 0 0-.254-.698c-1.654.288-3.627.782-5.918 1.482a268.241 268.241 0 0 0-6.365 2.028c-1.18.415-2.157.741-2.929.977-.772.236-1.24.352-1.405.348-.62-1.227-1.193-2.617-1.722-4.171-.502-1.644-.742-3.055-.72-4.232 2.386-1.193 5.711-2.563 9.976-4.112l31.14-9.439c.458.786 1.01 2.237 1.656 4.355.297.971.478 1.61.544 1.916.095.489.07.987-.075 1.494a7.192 7.192 0 0 0-.26 1.019c-.96.157-2.747.635-5.362 1.435-5.38 1.644-8.478 2.687-9.296 3.128l2.638 7.975 1.183 3.07 4.934 16.832a77.643 77.643 0 0 1 1.322 5.805c.222 1.62.588 3.265 1.098 4.933l.896 2.668c.273.896.506 1.792.697 2.686-.241 1.082-1.57 1.992-3.986 2.73Z" fill="#E440FF"/><path d="M98.063 435.533c-.968 3.385-3.166 5.791-6.595 7.218-3.397 1.407-6.71 1.978-9.936 1.715-2.01-.09-3.874-.293-5.592-.61a34.353 34.353 0 0 1-1.645-.34 38.442 38.442 0 0 1-3.944-1.151c.19-1.747.825-5.141 1.907-10.183.464-2.245.947-4.459 1.45-6.641a372.26 372.26 0 0 1 2.39-9.671c.967-3.733 1.787-6.069 2.458-7.01-.016-.164.073-.665.266-1.502s.43-1.812.713-2.922l.831-3.256c.365-1.466.618-2.45.76-2.952.246-1.065.469-2.203.667-3.414a27.68 27.68 0 0 1 .448-2.462c.345-1.497.806-2.861 1.384-4.091l1.37.317c1.641.299 3.198.618 4.67.958.888.205 1.735.414 2.541.626.959.248 1.983.498 3.074.75l2.512.58c.812.188 1.668.359 2.568.513.937.109 1.824.261 2.661.454 1.421.328 2.721.775 3.9 1.341l-.909 4.12a5.542 5.542 0 0 0-.12.694 9.281 9.281 0 0 1-.146.808c-.17.736-.413 1.268-.729 1.596-.365.423-1.207.483-2.527.178l-.19-.044a56.2 56.2 0 0 1-4.037-1.092 71.943 71.943 0 0 0-3.2-.899l-1.294-.299a110 110 0 0 1-3.98-.999 996.368 996.368 0 0 1-3.55 11.929 171.92 171.92 0 0 1-1.233 4.125c1.626.483 3.341 1.159 5.145 2.03 1.803.871 3.271 1.864 4.404 2.981 1.895 1.052 3.272 2.613 4.132 4.682.502 1.185.818 2.421.949 3.707.01.537-.05 1.432-.178 2.685a35.662 35.662 0 0 1-.55 3.602l-.061.266c-.228.99-.49 1.544-.784 1.663Zm-18.828-1.099-.418 2.509c.783.315 1.567.563 2.354.744 1.294.299 2.616.417 3.967.355 1.009-.088 1.832-.299 2.47-.633a11.663 11.663 0 0 0 1.79-1.15c.36-.291.746-.576 1.158-.855.168-.496.346-.976.533-1.441.279-.63.525-1.348.737-2.155.684-3.316-.403-5.959-3.263-7.929a11.859 11.859 0 0 0-3.935-1.71 11.55 11.55 0 0 0-2.1-.285l-.035.153a13.76 13.76 0 0 0-.465 1.496l-.061.266c-.082.356-.15.821-.202 1.397l-2.53 9.238Z" fill="#FF498B"/><path d="M57.415 418.613c-4.517 1.042-9.28 1.073-14.29.091-1.618-.294-3.46-.925-5.527-1.891-4.516-2.084-7.567-5.001-9.153-8.751a7.619 7.619 0 0 0-.817-1.455c-1.186-1.437-2.365-4.291-3.537-8.564a34.41 34.41 0 0 1-.407-1.59c-1.246-5.405-1.068-10.431.533-15.077 1.596-4.671 5.199-8.924 10.809-12.758 2.227-1.584 4.318-2.601 6.271-3.052l1.312-.223c1.193-.275 2.233-.689 3.121-1.241.63-.279 1.263-.492 1.898-.639a47.89 47.89 0 0 1 2.766-.518 55.58 55.58 0 0 1 3.877-.574c1.374-.184 2.376-.242 3.006-.173.465.855.884 1.92 1.258 3.197.112.482.304 1.373.577 2.673.267 1.275.148 2.438-.358 3.49a3.527 3.527 0 0 1-.562.17c-.559.129-1.407.218-2.545.267-2.68.084-5.11.378-7.292.882-1.675.387-3.348 1.013-5.019 1.88l-.135.111a27.78 27.78 0 0 0-4.562 2.818c-1.8 1.35-2.914 3.238-3.344 5.663-.201 1.329-.428 2.143-.68 2.442l.167.723c.234 1.015.442 2.263.623 3.745a42.18 42.18 0 0 0 .49 3.174c.724 2.559 1.753 4.82 3.088 6.784.484.824.921 1.618 1.311 2.383.845.42 1.586.85 2.222 1.291.662.436 1.327.83 1.996 1.183.664.328 1.49.552 2.48.671 1.595.193 4.28-.04 8.057-.698.59-.109 1.118-.191 1.587-.246 1.735-.24 3.182-.454 4.342-.642 1.489-.263 2.594-.398 3.314-.404.714-.031 1.217.12 1.507.454.285.308.55.875.793 1.701.32 1.156.706 2.363 1.156 3.622a37.44 37.44 0 0 1 .974 3.183l.115.494c.105.457.13.799.075 1.025-.351.562-.905.998-1.663 1.306-.763.283-1.55.519-2.363.706-.786.182-1.488.384-2.105.606a31.595 31.595 0 0 1-5.366 1.761Z" fill="#4053FF"/><path d="M78.057 381.611a100.903 100.903 0 0 0-3.358-1.044l-1.164-.334a31.246 31.246 0 0 1-1.717-.533c-.021-.493 0-.853.065-1.078.065-.225.12-.372.167-.44.157-.172.304-.495.44-.971.144-.501.235-.962.275-1.384.064-.415.134-.801.21-1.159.308-1.076.668-2.003 1.08-2.779a15.52 15.52 0 0 0 1.058-2.703c1.233-5.065 2.366-9.4 3.398-13.005a542.107 542.107 0 0 1 2.871-9.742c1.924-6.248 3.062-9.606 3.413-10.075a30.962 30.962 0 0 1 1.012-5.236c.286-1.002.616-1.964.989-2.886.222-.587.435-1.189.639-1.808.7.201 1.391.345 2.07.431.712.069 1.735.281 3.07.636 1.583.427 4.528 1.258 8.834 2.493 6.262 1.877 10.052 3.302 11.371 4.276a10.525 10.525 0 0 1-.339 1.61c-.136.476-.308.982-.515 1.518a17.05 17.05 0 0 0-.527 1.556c-.652 1.709-1.937 2.411-3.854 2.105-.962-.14-1.931-.35-2.907-.63a34.01 34.01 0 0 1-3.036-1.033 28.704 28.704 0 0 0-3.213-1.125 46.412 46.412 0 0 1-4.533-1.056l-3.531 11.341c-.276.679-.54 1.457-.79 2.334a45.991 45.991 0 0 0-.91 3.884 56.424 56.424 0 0 1-1.027 4.297c-.143.501-1.422 4.496-3.838 11.985l-1.505 5.542c-.222.965-.43 1.786-.624 2.462a17.09 17.09 0 0 1-.671 1.921c-.23.611-.582.944-1.058.997-.354.007-.97-.116-1.845-.367Z" fill="#FFB240"/><path d="m43.655 596.379 8.446 2.949c.293.107.458.112.493.014l.007-.247c.387-3.961.829-6.932 1.327-8.912.618-2.768.701-4.636.25-5.604l-1.559 1.885c-1.672 1.858-2.847 3.26-3.523 4.205l-1.765 1.769c-1.886 1.835-3.111 3.149-3.676 3.941Zm-15.847 19.589-.22-.08c-.465-.169-1.666-.717-3.601-1.643-2.107-.988-3.256-1.601-3.447-1.836a2.008 2.008 0 0 1 .133-.825c.347-.954 1.647-2.74 3.9-5.356.816-.95 1.421-1.7 1.815-2.249a68.025 68.025 0 0 1 1.901-2.717c2.129-2.883 3.728-4.615 4.798-5.196.211-.505.68-1.263 1.408-2.273 1.428-1.946 2.808-3.647 4.14-5.102 2.218-2.519 5.507-6.005 9.869-10.459 5.116-5.232 8.07-7.912 8.865-8.039 1.09-1.321 2.178-2.144 3.266-2.469.663 1.073.907 3.337.732 6.793-.069 1.333-.202 2.31-.4 2.93.276.766.38 2.384.314 4.854-.075 1.58-.03 2.829.134 3.748-.049.897-.09 2.268-.123 4.112l-.435 13.892c-.45 13.666-.83 20.926-1.141 21.783l-.014.037c-.576.289-1.085.395-1.528.317a4.452 4.452 0 0 1-.834-.221 6.615 6.615 0 0 1-.61-.264 3.829 3.829 0 0 0-.745-.354l-1.421-.434a9.692 9.692 0 0 1-1.128-.327 6.08 6.08 0 0 1-1.826-1.039c-.4-1.337-.355-5.007.136-11.008.237-2.713.335-4.811.292-6.295a17.456 17.456 0 0 0-1.595-.415 12.074 12.074 0 0 1-1.728-.504l-.404-.147a38.37 38.37 0 0 0-1.822-.705c-2.105-.766-4.742-1.476-7.912-2.131-1.741 1.666-4.374 4.907-7.897 9.721l-2.872 3.901ZM80.22 845.348l8.61-2.428c.301-.081.439-.172.412-.272l-.136-.206c-1.952-3.468-3.291-6.155-4.017-8.064-1.08-2.622-2.081-4.2-3.006-4.735l-.197 2.439c-.306 2.482-.466 4.304-.478 5.467l-.433 2.461c-.495 2.586-.746 4.365-.756 5.338Zm-1.766 25.142-.226.061c-.478.128-1.776.368-3.892.719-2.293.399-3.585.556-3.877.473-.161-.2-.282-.45-.363-.752-.262-.981-.22-3.19.128-6.626.125-1.247.191-2.208.199-2.884a68.318 68.318 0 0 1 .002-3.317c.093-3.584.411-5.92.956-7.01-.117-.535-.166-1.425-.149-2.67.055-2.414.212-4.599.47-6.556.375-3.335 1.074-8.079 2.097-14.23 1.195-7.222 2.081-11.113 2.66-11.672.136-1.708.556-3.007 1.262-3.897 1.158.498 2.654 2.214 4.49 5.146.707 1.131 1.158 2.008 1.351 2.63.665.469 1.677 1.735 3.038 3.797.843 1.338 1.595 2.336 2.256 2.994.474.763 1.226 1.91 2.255 3.44l7.6 11.633c7.459 11.454 11.306 17.622 11.542 18.502l.01.038c-.307.567-.664.946-1.071 1.136a4.373 4.373 0 0 1-.81.298 6.783 6.783 0 0 1-.652.134c-.239.011-.51.056-.812.137l-1.414.46a9.43 9.43 0 0 1-1.111.378 6.06 6.06 0 0 1-2.091.197c-1.094-.866-3.16-3.899-6.195-9.098-1.358-2.359-2.48-4.134-3.365-5.326-.522.167-1.037.359-1.545.576-.483.21-1.051.403-1.705.578l-.415.111c-.485.103-1.117.259-1.897.468-2.163.58-4.731 1.511-7.704 2.792-.473 2.365-.774 6.53-.903 12.496l-.12 4.844Z" fill="#3DFF7F"/><path d="M32.796 897.154c6.108 1.752 10.42-.06 12.933-5.434.337-.798.74-1.685 1.209-2.661 1.314-2.793 2.147-4.803 2.498-6.029 2.1-7.336 1.615-14.722-1.457-22.159a4.683 4.683 0 0 1-1.046-.747 3.43 3.43 0 0 0-1.496-.876c-.45-.129-1.087-.176-1.91-.141-2.425.144-4.035.374-4.829.688-2.19 1.214-4.29 3.443-6.302 6.686-2.012 3.243-3.359 6.053-4.04 8.432l-1.167 4.216a90.33 90.33 0 0 1-2.063 6.357c.175.24.396 1.265.663 3.076.26 2.215.577 3.755.952 4.621.7 1.339 2.288 2.512 4.762 3.519.437.18.868.33 1.293.452Zm-6.33 8.629c-5.057-1.45-8.335-4.476-9.835-9.078-.47-1.571-.754-3.942-.848-7.111-.095-3.17.037-6.234.397-9.192.168-1.252.382-2.329.64-3.23.344-1.202.768-2.069 1.273-2.602a10.1 10.1 0 0 1 .339-1.609c.38-1.327 1.168-3.228 2.364-5.702 1.196-2.475 2.707-5.008 4.532-7.6 1.851-2.585 3.454-4.116 4.81-4.594 1.07-1.563 3.298-2.766 6.682-3.611 3.391-.87 6.465-1.058 9.223-.566l2.108.442c.772.14 1.434.29 1.985.447.518.176 1.058.467 1.62.871 1.344.982 2.666 2.228 3.968 3.739 1.762 2.076 2.655 3.592 2.68 4.547.768 1.006 1.246 2.458 1.435 4.354.22 1.878.337 3.646.35 5.302.021 1.631.105 2.617.251 2.957a66.233 66.233 0 0 0-.297 4.019 34.383 34.383 0 0 1-1.25 8.338c-.165.386-.365.803-.602 1.25-.229.422-.411.776-.547 1.062-.144.5-.21.874-.2 1.121.043.229.022.589-.064 1.079a9.344 9.344 0 0 1-1.392 2.73c-.333.5-.637.995-.913 1.485-1.3 2.553-3.182 4.967-5.648 7.24-2.44 2.28-5.08 3.69-7.916 4.232-2.361.867-5.296 1.136-8.804.807-2.35-.213-4.464-.589-6.341-1.127Z" fill="#9F54FF"/><path d="m109.24 932.316-1.183.603c-.952.485-2.808 1.373-5.57 2.663l-.036-.07-3.323 1.738-2.384 1.258c-1.717.875-3.296 1.592-4.736 2.15-.624-.997-1.862-3.172-3.714-6.525-3.526-6.358-6.553-12.02-9.08-16.987-3.27-6.429-4.933-10.186-4.988-11.269-.599-.717-1.37-2.005-2.315-3.862a143.837 143.837 0 0 1-4.63-10.048c.32-.864 2.533-2.342 6.64-4.435a174.328 174.328 0 0 1 5.553-2.698 53.313 53.313 0 0 0 5.151-2.624 38.4 38.4 0 0 1 2.592-1.452c2.413-1.23 4.742-2.08 6.986-2.551.75.844 1.469 1.94 2.154 3.286.307.604.544 1.184.71 1.742.263.919.105 1.525-.475 1.821l-7.188 3.618-7.17 3.566c-2.251 1.147-3.748 1.939-4.49 2.375l1.312 2.664 1.115 2.193 1.082 2.212c.875 1.95 1.761 3.807 2.659 5.571.378.743.708 1.335.99 1.775.455.032 2.654-.957 6.599-2.967 2.413-1.23 4.78-2.377 7.101-3.443 2.322-1.066 4.029-1.614 5.124-1.646 1.138 1.32 1.95 2.455 2.434 3.407.531 1.044.659 1.87.384 2.478-.458.994-2.289 2.306-5.491 3.938l-1.723.834-3.741 1.95-6.367 3.595 5.124 10.761c2.358-.705 6.717-2.677 13.074-5.917 4.548-2.317 7.05-3.431 7.504-3.341.808.67 1.496 1.591 2.063 2.763.603 1.184 1.041 2.305 1.317 3.363.298 1.046.187 1.833-.333 2.361-.428.423-.966.8-1.616 1.131l-1.566.798-5.549 3.221Z" fill="#FF498B"/><path d="M63.018 973.695a14.741 14.741 0 0 1-1.808-.34c-.511-.115-.96-.197-1.348-.244-1.34-.191-2.3-.388-2.88-.59-.552-.199-.88-.528-.98-.986-.073-.481-.06-1.227.038-2.239l.029-.232c.17-1.396.21-3.543.12-6.44-.12-3.084-.136-6.484-.048-10.199.11-3.896.086-6.693-.073-8.392-1.198 1.637-3.642 7.45-7.333 17.44-2.193 5.896-3.482 9.136-3.868 9.718l-1.545.086c-.52-1.323-.944-2.897-1.271-4.722l-.48-2.184c-.332-1.142-.57-2.3-.716-3.472a24.393 24.393 0 0 0-.594-3.497c-.44-1.55-.886-4.543-1.34-8.98a54.155 54.155 0 0 0-.257-2.393c-.07-.717-.124-1.34-.164-1.87-.098-.484-.166-.781-.206-.891-.039-.11-.097-.17-.174-.179a.266.266 0 0 1-.185-.101l-3.615 7.978a112.886 112.886 0 0 0-2.665 6.009l-.79 1.949c-1.15 2.745-1.943 4.826-2.379 6.241-.49 1.646-.967 2.65-1.431 3.012-.378.295-1.032.385-1.962.271-1.37-.168-2.495-.411-3.374-.729-.527-.196-1.085-.566-1.674-1.111l.071-.581c.133-1.086.531-2.939 1.194-5.56a223.128 223.128 0 0 1 2.219-8.15c.843-2.809 1.5-4.538 1.974-5.189a2.032 2.032 0 0 1-.002-.63c.054-.439.213-1.089.476-1.948.55-1.927 1.223-3.668 2.017-5.223.401-1.341 1.027-3.023 1.878-5.043 1.105-2.803 1.695-4.515 1.77-5.135.217-.262.702-1.331 1.457-3.206 1.108-2.619 2.427-5.461 3.957-8.527 1.556-3.062 3.005-4.931 4.348-5.605.917 1.503 1.381 3.173 1.392 5.011.067.953.21 1.928.429 2.926 1.463 6.896 2.582 15.207 3.358 24.931l.139 1.434c.677-.599 1.33-1.752 1.959-3.459.773-2.03 4.23-7.863 10.37-17.499 2.18-3.432 3.706-5.724 4.582-6.876.905-1.175 1.68-1.722 2.327-1.643.258.032.522.13.79.294.068.087.049 1.318-.059 3.692-.319 7.307-.224 11.674.283 13.101-.173.556-.309 1.235-.407 2.036-.197 1.603-.292 4.306-.286 8.111.03 1.683.017 3.072-.039 4.167l-.9 15.042c.277.952.167 3.457-.33 7.516-.19 1.551-.386 2.497-.585 2.84-.345.246-.815.333-1.41.26Z" fill="#FFB240"/><path d="M82.567 974.107c2.04.515 4.283.453 6.731-.187 2.473-.63 4.279-2.218 5.418-4.763a8.535 8.535 0 0 0 .373-3.641c-.112-1.253-.527-2.347-1.244-3.283-.55-.587-1.34-1.202-2.374-1.844-.999-.656-1.812-1.111-2.44-1.365l-1.892 4.797a158.854 158.854 0 0 1-4.572 10.286ZM75.27 998.88c2.656 1.074 4.785 1.33 6.387.769a9.344 9.344 0 0 0 1.86-.849l1.249-.591c.209-.449.447-.901.715-1.354.364-.555.707-1.231 1.028-2.028a10.6 10.6 0 0 0 .633-5.222c-.203-1.795-.955-3.306-2.257-4.535-1.307-1.145-2.48-1.928-3.517-2.348a11.142 11.142 0 0 0-1.761-.542l-.073.181a16.311 16.311 0 0 0-.81 1.695 9.99 9.99 0 0 0-.403 1.311l-4.86 9.749-.769 2.428c.85.54 1.709.985 2.578 1.336Zm-7.194 4.89a33.748 33.748 0 0 1-4.179-2.07c.333-1.24 1.108-3.582 2.328-7.022a341.317 341.317 0 0 1 4.963-13.035c1.267-3.139 2.438-5.868 3.514-8.186a117.228 117.228 0 0 0 1.535-4.014c.087-.218.158-.428.212-.631l.22-.543a231.108 231.108 0 0 1 1.819-4.615c1.296-3.212 2.205-4.909 2.728-5.091.102-.324.27-.776.504-1.355.156-.387.421-1.01.796-1.87.41-.874.91-1.907 1.504-3.1.627-1.207 1.091-2.044 1.392-2.512 1.036-.2 2.567.11 4.596.929.096.039.707.3 1.832.783 1.125.482 2.701 1.414 4.728 2.795 2.06 1.366 3.43 2.635 4.108 3.808.957 1.735 1.517 2.818 1.68 3.249.321.804.452 2.429.391 4.876-.077 1.374-.456 2.906-1.138 4.596-.078.193-.355.812-.832 1.855-.453 1.053-1.19 1.976-2.213 2.771-.749 1.298-1.778 2.526-3.087 3.682-1.284 1.166-2.58 1.907-3.886 2.222.395.412.725.812.99 1.2l1.547 1.384c.062.334.235.811.518 1.431.792 1.865 1.144 3.776 1.056 5.735-.083.556-.3 1.508-.646 2.856-.378 1.561-.81 2.945-1.297 4.153-.4.99-.759 1.533-1.078 1.629-.326.74-1.02 1.62-2.082 2.66a17.04 17.04 0 0 1-3.402 2.58c-1.182.7-2.104.93-2.765.7-.679.42-1.634.67-2.867.73-2.234.11-4.552-.09-6.954-.62-2.57-.58-4.749-1.24-6.535-1.96Z" fill="#E440FF"/><path d="M43.625 1042.91c-1.629.63-2.746.99-3.352 1.08-.392.07-.707-.06-.944-.39s-.49-.85-.761-1.55l-.727-1.9c-.476-.51-1.674-3.27-3.594-8.28-.522-1.36-2.052-5.57-4.59-12.63-1.407-4.04-3.872-11.31-7.396-21.81-.591-1.252-1.05-2.303-1.376-3.154-.69-1.799-.816-2.894-.38-3.285.293-.252.671-.467 1.133-.644l1.633-.543.765-.294c.38-.174.711-.329.994-.465.306-.146.545-.251.715-.317.608-.233.947-.293 1.018-.181a5.45 5.45 0 0 0 .842-.532 50.517 50.517 0 0 1 7.394-2.755c1.749-.532 4.514-1.468 8.295-2.808l.023-.05.897-.387c3.866-1.483 6.186-2.234 6.96-2.253.682 2.946 1.29 5.112 1.82 6.498l.4.934c.485 1.265 1.27 3.53 2.354 6.796 1.335 3.7 2.645 7.23 3.93 10.58 1.082 2.82 2.15 5.54 3.205 8.15 1.093 2.7 2.193 5.5 3.303 8.39 1.342 3.51 2.694 7.14 4.056 10.92-.997.74-2.359 1.44-4.085 2.11-1.264.48-2.3.73-3.107.73-1.119-1.24-2.173-3.09-3.163-5.52-1-2.46-1.811-4.51-2.435-6.14-.634-1.65-1.242-3.27-1.823-4.86-.591-1.62-1.11-3.01-1.558-4.18l-.6-1.56c-.541-1.42-2.765-7.8-6.673-19.16l-.414-.97a4.657 4.657 0 0 1-.215-.671 2.5 2.5 0 0 0-.103-.379c-.093-.243-.254-.335-.482-.275l-.825.359c-.16.089-.363.181-.606.274-1.962.921-3.927 1.87-5.894 2.848-4.042 1.97-6.258 3.03-6.647 3.179-.389.15-.618.279-.687.39-.079.086-.071.25.022.493l.148.278.196.511c.703 1.543 2.07 4.673 4.1 9.393l.758 1.75c.606 1.59 1.21 3.24 1.814 4.96.53 1.52 1.078 3.03 1.647 4.51.848 2.21 1.734 4.34 2.657 6.39.535 1.1 1.031 2.25 1.488 3.44.326.85.633 1.73.92 2.62a47.666 47.666 0 0 0 2.231 5.71l.288.65c.391 1.02.281 1.78-.33 2.3-.579.53-1.658 1.1-3.239 1.7Z" fill="#3DFF7F"/><path d="M50.121 834.729c-.855.229-1.872.407-3.052.534-1.172.153-1.947.077-2.325-.226-.26-.469-.622-1.572-1.087-3.308-.8-2.994-1.552-6.054-2.254-9.182-1.685-7.206-2.489-11.318-2.41-12.336-.288-.57-.576-1.396-.866-2.478l-.83-3.255-.467-1.897a19.646 19.646 0 0 0-.49-1.527 46.44 46.44 0 0 1-.97-3.177c-.304-1.132-.429-2.002-.375-2.609-.397-.676-.743-1.567-1.04-2.674l-.143-.689a6.727 6.727 0 0 0-.23-.707c-1.663.23-3.652.655-5.967 1.275-2.289.613-4.433 1.215-6.431 1.804-1.195.374-2.181.666-2.961.875-.78.209-1.252.308-1.416.298-.577-1.247-1.102-2.657-1.576-4.228-.445-1.661-.635-3.079-.572-4.255 2.426-1.108 5.797-2.362 10.113-3.761l31.45-8.347c.43.802.932 2.272 1.504 4.41.262.981.421 1.626.477 1.935.078.491.035.988-.127 1.49a7.196 7.196 0 0 0-.296 1.009c-.965.124-2.767.539-5.409 1.247-5.433 1.456-8.566 2.39-9.4 2.802l2.36 8.062 1.074 3.11 4.344 16.993c.408 1.724.78 3.673 1.12 5.847a31.62 31.62 0 0 0 .925 4.969l.802 2.697c.243.906.444 1.809.604 2.71-.28 1.072-1.64 1.935-4.079 2.589Z" fill="#E440FF"/><path d="M95.613 784.281c-.427 3.494-2.222 6.214-5.386 8.16-3.136 1.921-6.319 3.004-9.547 3.248-2 .226-3.872.317-5.618.273a35.053 35.053 0 0 1-1.678-.078 38.778 38.778 0 0 1-4.076-.52c-.086-1.755.011-5.208.293-10.357.107-2.289.24-4.551.395-6.786.196-2.805.48-6.114.85-9.925.372-3.838.816-6.274 1.332-7.308-.041-.16-.032-.668.028-1.525.06-.858.143-1.857.249-2.998l.312-3.346c.13-1.505.228-2.516.29-3.034.076-1.091.118-2.25.125-3.476-.018-.863 0-1.697.057-2.502.107-1.533.35-2.952.728-4.257l1.403.098c1.668.039 3.255.111 4.762.216.91.064 1.779.137 2.608.221.986.095 2.037.182 3.154.26l2.572.18c.83.058 1.703.093 2.616.105a24.301 24.301 0 0 1 2.7.032 18.64 18.64 0 0 1 4.061.715l-.255 4.211a5.71 5.71 0 0 0-.01.704c.006.287 0 .561-.018.821-.052.753-.21 1.317-.47 1.69-.294.475-1.117.666-2.468.571l-.195-.013a56.429 56.429 0 0 1-4.158-.448 72.167 72.167 0 0 0-3.302-.387l-1.325-.093c-1.35-.094-2.712-.216-4.086-.364a993.503 993.503 0 0 1-1.644 12.337 171.797 171.797 0 0 1-.572 4.268c1.681.222 3.48.622 5.398 1.2 1.918.577 3.523 1.329 4.816 2.255 2.036.743 3.64 2.069 4.812 3.978a12.771 12.771 0 0 1 1.517 3.513c.094.529.175 1.422.244 2.68a35.71 35.71 0 0 1 .02 3.643l-.02.273c-.07 1.013-.242 1.601-.514 1.765Zm-18.769 1.859-.02 2.544c.821.188 1.635.31 2.44.367 1.325.092 2.65.002 3.974-.271.983-.244 1.764-.581 2.342-1.011a11.645 11.645 0 0 0 1.587-1.416c.31-.344.648-.686 1.011-1.026a26.91 26.91 0 0 1 .301-1.506c.177-.666.308-1.414.392-2.243.157-3.383-1.33-5.824-4.462-7.322a11.86 11.86 0 0 0-4.154-1.073 11.55 11.55 0 0 0-2.118.047l-.011.156a13.778 13.778 0 0 0-.226 1.551l-.019.272c-.025.364-.019.835.02 1.411l-1.057 9.52Z" fill="#FF498B"/><path d="M48.294 767.558c-4.517 1.042-9.28 1.073-14.29.092-1.618-.295-3.46-.925-5.527-1.892-4.516-2.084-7.567-5.001-9.153-8.751a7.613 7.613 0 0 0-.817-1.455c-1.186-1.437-2.365-4.291-3.537-8.564a34.539 34.539 0 0 1-.407-1.59c-1.246-5.405-1.068-10.431.533-15.077 1.596-4.671 5.199-8.924 10.809-12.758 2.227-1.584 4.318-2.601 6.271-3.052l1.312-.222c1.193-.276 2.233-.69 3.121-1.242.63-.279 1.263-.492 1.898-.639a47.89 47.89 0 0 1 2.766-.518 55.598 55.598 0 0 1 3.877-.574c1.374-.184 2.376-.242 3.006-.173.465.855.884 1.92 1.259 3.197.11.482.303 1.373.576 2.673.267 1.275.148 2.438-.358 3.491-.147.06-.334.117-.562.169-.559.129-1.407.218-2.544.267-2.68.084-5.111.378-7.294.882-1.674.387-3.347 1.013-5.018 1.88l-.135.111a27.784 27.784 0 0 0-4.561 2.818c-1.8 1.351-2.915 3.238-3.345 5.663-.201 1.329-.428 2.143-.68 2.442l.167.723c.234 1.015.441 2.263.623 3.745a42.18 42.18 0 0 0 .49 3.174c.724 2.559 1.753 4.82 3.088 6.784.484.824.921 1.618 1.311 2.383.845.42 1.586.85 2.222 1.292.662.435 1.327.829 1.996 1.182.664.328 1.49.552 2.48.671 1.594.193 4.28-.04 8.057-.698a24.6 24.6 0 0 1 1.587-.246c1.735-.24 3.182-.454 4.342-.642 1.489-.263 2.594-.398 3.314-.404.714-.031 1.217.12 1.508.454.284.308.549.875.793 1.701.32 1.156.705 2.363 1.155 3.622a37.44 37.44 0 0 1 .974 3.183c.041.177.08.342.114.494.106.457.131.799.076 1.025-.351.563-.905.998-1.663 1.306-.763.283-1.55.519-2.362.706-.787.182-1.489.384-2.106.606a31.596 31.596 0 0 1-5.366 1.761Z" fill="#4053FF"/><path d="M88.639 1195.76c6.237-1.21 9.258-4.78 9.062-10.71-.062-.87-.105-1.84-.13-2.92-.094-3.09-.263-5.26-.506-6.51-1.454-7.49-5.235-13.85-11.344-19.08-.48-.02-.904-.08-1.27-.19a3.39 3.39 0 0 0-1.732-.11c-.46.09-1.048.34-1.766.75-2.096 1.23-3.426 2.16-3.992 2.8-1.4 2.08-2.262 5.02-2.585 8.82-.323 3.8-.249 6.92.223 9.35l.871 4.29c.447 2.3.795 4.5 1.043 6.6.265.13.927.95 1.986 2.44 1.235 1.85 2.217 3.08 2.943 3.68 1.231.88 3.178 1.2 5.84.98.47-.04.922-.1 1.357-.19Zm-1.73 10.57c-5.164 1-9.457-.21-12.88-3.63-1.132-1.18-2.459-3.17-3.98-5.95a60.88 60.88 0 0 1-3.814-8.37c-.417-1.19-.715-2.25-.893-3.17-.238-1.23-.253-2.19-.045-2.9a9.926 9.926 0 0 1-.428-1.58c-.263-1.36-.422-3.41-.478-6.16-.056-2.75.142-5.69.594-8.83.478-3.14 1.212-5.24 2.204-6.28.245-1.88 1.684-3.96 4.317-6.25 2.628-2.31 5.283-3.88 7.963-4.69l2.08-.56c.751-.23 1.409-.4 1.971-.51.542-.08 1.155-.06 1.838.04 1.643.27 3.387.78 5.231 1.53 2.512 1.05 3.996 2 4.45 2.84 1.141.55 2.225 1.62 3.253 3.23a48.44 48.44 0 0 1 2.717 4.56c.757 1.45 1.279 2.29 1.563 2.52.484 1.26 1.003 2.5 1.557 3.72a34.435 34.435 0 0 1 2.667 8c.028.42.038.88.03 1.39-.013.48-.015.87-.007 1.19.1.51.21.88.331 1.09.142.19.286.52.431.99.168 1 .168 2.02-.002 3.07-.07.59-.116 1.17-.14 1.73-.001 2.87-.585 5.87-1.752 9.02-1.141 3.14-2.853 5.59-5.136 7.36-1.71 1.85-4.204 3.42-7.48 4.72-2.19.88-4.245 1.5-6.162 1.88Z" fill="#9F54FF"/><path d="m33.638 1248.15-1.27-.39c-1.02-.31-2.973-.96-5.857-1.95l.023-.08-3.597-1.06-2.59-.75c-1.842-.56-3.475-1.14-4.899-1.74.242-1.15.86-3.58 1.854-7.28 1.872-7.02 3.622-13.2 5.249-18.53 2.106-6.9 3.515-10.76 4.227-11.57.067-.94.405-2.4 1.013-4.39a143.97 143.97 0 0 1 3.639-10.45c.83-.4 3.448.07 7.856 1.42 1.843.57 3.8 1.2 5.868 1.92.882.32 1.82.64 2.817.94.846.26 1.75.51 2.712.75.994.22 1.952.47 2.873.75 2.59.8 4.856 1.8 6.798 3.02-.045 1.13-.288 2.42-.73 3.86-.197.65-.43 1.23-.696 1.75-.448.85-.984 1.17-1.606.98l-7.684-2.39-7.635-2.41c-2.416-.74-4.042-1.21-4.88-1.41l-.903 2.82-.719 2.36-.756 2.34c-.723 2.01-1.373 3.96-1.951 5.86-.243.79-.416 1.45-.518 1.96.305.34 2.574 1.16 6.808 2.45 2.59.79 5.09 1.61 7.5 2.46 2.41.84 4.02 1.64 4.83 2.37-.096 1.74-.3 3.12-.612 4.15-.342 1.12-.823 1.8-1.443 2.05-1.02.39-3.247.07-6.684-.99l-1.82-.59-4.045-1.2-7.077-1.84-3.777 11.31c2.187 1.13 6.692 2.74 13.516 4.82 4.88 1.5 7.454 2.43 7.719 2.81.117 1.05-.027 2.19-.432 3.43-.388 1.27-.85 2.38-1.386 3.33-.51.96-1.136 1.45-1.877 1.47-.601.01-1.25-.1-1.948-.31l-1.68-.51-6.23-1.54Z" fill="#FF629A"/><path d="M115.138 1266.37c-.573.18-1.17.32-1.79.42-.513.11-.957.22-1.33.33-1.303.37-2.26.58-2.87.63-.586.05-1.019-.12-1.297-.5-.262-.41-.553-1.1-.875-2.06l-.068-.23c-.411-1.34-1.246-3.32-2.505-5.93-1.363-2.77-2.759-5.87-4.187-9.3-1.481-3.6-2.64-6.15-3.475-7.64-.43 1.99-.302 8.29.384 18.92.392 6.28.53 9.77.413 10.46l-1.377.7c-1.012-1-2.038-2.26-3.079-3.8l-1.325-1.8c-.768-.9-1.456-1.87-2.064-2.88a24.385 24.385 0 0 0-1.964-2.95c-1.03-1.24-2.654-3.79-4.87-7.66-.426-.77-.828-1.46-1.208-2.08a90.8 90.8 0 0 1-.91-1.65c-.285-.4-.469-.64-.549-.73-.08-.08-.158-.11-.232-.09-.075.02-.145.02-.21-.02l-.062 8.76c-.062 2.12-.06 4.31.005 6.58l.07 2.1c.065 2.98.185 5.2.362 6.67.22 1.7.192 2.82-.085 3.34-.225.42-.785.77-1.682 1.04-1.32.41-2.446.64-3.378.71-.561.03-1.222-.08-1.981-.34l-.171-.56c-.32-1.04-.709-2.9-1.168-5.56-.467-2.69-.895-5.47-1.283-8.35-.37-2.91-.472-4.76-.303-5.55a1.926 1.926 0 0 1-.258-.57c-.129-.42-.248-1.08-.357-1.97-.28-1.99-.372-3.85-.278-5.6-.179-1.39-.29-3.18-.333-5.37-.13-3.01-.285-4.81-.468-5.41.091-.33.1-1.5.028-3.52-.05-2.85 0-5.98.153-9.4.178-3.43.743-5.73 1.695-6.89 1.449 1 2.552 2.33 3.308 4.01.448.84.974 1.68 1.58 2.5 4.137 5.7 8.535 12.84 13.194 21.41l.709 1.26c.375-.83.503-2.15.385-3.96-.118-2.17.671-8.91 2.367-20.21.597-4.02 1.061-6.74 1.393-8.15.35-1.44.836-2.25 1.459-2.44.249-.08.53-.1.841-.06.098.06.58 1.19 1.446 3.4 2.677 6.81 4.536 10.76 5.579 11.86.068.58.22 1.25.455 2.02.472 1.55 1.483 4.06 3.033 7.53.711 1.53 1.264 2.8 1.658 3.82l5.287 14.11c.64.76 1.556 3.1 2.75 7.01.456 1.49.663 2.44.62 2.83-.215.36-.609.64-1.182.81Z" fill="#FFB240"/><path d="m78.963 1349.02-2.706-1.28c.07-1.08.393-2.84.97-5.27l.226-.95c.445-1.88.732-3.25.86-4.13.095-.62.205-1.2.331-1.73.072-.3.122-.63.15-.97.105-.67.52-2.53 1.241-5.57-1.05.93-3.083 3.13-6.1 6.59-1.327 1.53-2.547 2.83-3.659 3.91a38.5 38.5 0 0 0-2.003 2.01c-1.546 1.78-2.451 2.94-2.716 3.49-.306.39-.509.56-.61.54-.076-.02-.21-.08-.4-.17-.669-.46-1.725-.86-3.17-1.2-.354-.08-.763-.16-1.225-.25-.462-.08-.902-.14-1.32-.19-.417-.05-.816-.11-1.196-.2-.304-.08-.678-.19-1.122-.35-.45-.13-1.071-.56-1.863-1.28.206-.76.552-1.37 1.04-1.85.493-.49 1.033-.97 1.622-1.42.74-.52 1.467-1.22 2.183-2.09.716-.87 1.429-1.51 2.138-1.9 1.336-1.91 3.413-4.12 6.232-6.63 1.5-1.36 2.837-2.65 4.01-3.87 1.198-1.21 1.938-2.24 2.219-3.09-.297-1-1.173-6.16-2.629-15.47-1.57-9.85-2.301-15.39-2.196-16.62 1.108.18 2.384.44 3.828.78 3.523.84 5.449 1.35 5.78 1.53.609 1.84 1.03 4.62 1.264 8.37.107 1.58.276 3.24.505 4.98.18 1.38.326 2.74.436 4.08.243 2.36.79 5.35 1.642 8.98l.95-4.51c.896-4.45 1.449-7.11 1.66-8a85.668 85.668 0 0 1 3.404-10.96c1.393-.23 3.027-.12 4.902.32 1.394.33 2.455.83 3.183 1.48.157.47-.237 3.2-1.182 8.19-.448 2.22-.948 4.5-1.502 6.83-.3 1.27-.555 2.17-.764 2.71l-1.196 6.22c2.548-3.06 4.414-5.51 5.599-7.34.725-1.14 1.48-2.29 2.261-3.44a78.73 78.73 0 0 0 2.689-4.22c1.945-3.24 3.589-5.54 4.931-6.9.429-.01 2.392.4 5.889 1.23 1.445.34 2.69.68 3.736 1.01-.441 1.18-3.598 5.8-9.472 13.85-5.732 7.8-8.873 12-9.421 12.62-.129.88.056 2.13.556 3.75.499 1.61 1.101 3.36 1.805 5.24 1.388 3.52 2.25 6.42 2.586 8.72.431.67.77 1.55 1.017 2.65.247 1.11.584 2.06 1.01 2.85.324.67.581 1.33.772 1.99.222.64.269 1.35.139 2.12-1.228.33-2.374.36-3.438.11-.381-.09-.767-.21-1.161-.35-.393-.15-.815-.29-1.265-.43-.45-.13-.852-.24-1.207-.32-.76-.18-1.44-.3-2.042-.36-.581-.04-1.008-.04-1.28-.03-.245.02-.406.03-.482.01-.102-.03-.203-.28-.303-.76.012-.61-.261-2.05-.819-4.32-.264-.92-.558-1.82-.885-2.7-.431-1.23-.922-2.94-1.472-5.13-.909-3.61-1.644-6.26-2.208-7.95-.358 1.17-.65 1.89-.874 2.16-.065.39-.121.74-.168 1.05-.015.29-.056.57-.122.85-.092.27-.266.55-.521.84-.395 2.9-.674 4.7-.837 5.38l-.3 1.1c-.176.52-.352 1.14-.526 1.88l-.423 1.94c-.325 1.37-.649 2.29-.972 2.75-1.003.05-1.91-.02-2.722-.21l-1.502-.43c-.532-.13-1.127-.22-1.785-.27Z" fill="#4053FF"/><path d="M48.014 1381.24c-.576.16-1.28.25-2.114.28-.723-.45-1.887-1.54-3.493-3.27-.865-.94-1.636-1.7-2.312-2.26a28.76 28.76 0 0 1-3.267-3.62l-1.572-1.95c-.63-.3-1.202-.79-1.717-1.46-.179-.24-.425-.54-.74-.88-.347-.17-.742-.47-1.186-.88-.182.59-.375 1.05-.58 1.38-.085.46-.139.84-.16 1.15a4.822 4.822 0 0 1-.698 2.11l-.38 2.5a26.401 26.401 0 0 1-.902 4.81c-.25.83-.497 1.86-.74 3.1-.49 2.36-.929 3.91-1.315 4.64-.726.4-1.377.68-1.953.84-.576.17-1.137.29-1.685.36-.415.07-.885.17-1.41.33l-1.23.39-2.854-.04c.09-1.3.526-3.66 1.31-7.08.518-2.26.842-3.83.97-4.7l.334-1.97c.071-.32.132-.67.182-1.07.19-1.13.962-4.69 2.318-10.65l.939-4.25a70.89 70.89 0 0 1-2.447-2.88l-4.823-5.36c-1.28-1.07-3.87-3.79-7.768-8.14-3.806-4.22-5.783-6.6-5.934-7.12.562-.79 1.715-1.44 3.46-1.97 1.753-.5 3.367-.73 4.84-.69 4.564 3.84 8.686 7.79 12.366 11.86l2.656 2.9.762-3.88c1.034-5.39 2.502-10.91 4.405-16.58 1.144-.73 2.543-1.33 4.195-1.81 1.928-.55 3.357-.62 4.287-.21.129.45-.33 3.5-1.374 9.13-1.076 5.81-1.883 9.48-2.42 11.01l-1.298 7.12c-.132.96-.33 2.21-.595 3.75l3.015 3.16c4.041 4.09 6.548 6.71 7.521 7.84.226.31.453.59.682.82.432.47.876.98 1.33 1.53a97.483 97.483 0 0 0 3.273 3.49c2.453 2.52 4.045 4.3 4.774 5.34l-2.403 1.54c-.465.08-.898.17-1.298.29-.501.14-.941.31-1.32.5-.512.2-1.055.38-1.631.55Z" fill="#9F54FF"/><path d="m60.781 1417.99-1.816-.6-.989-.99 1.593-2.8 1.394-4.19c.197-.6 2.664-.67 7.4-.22 2.067-.93 3.388-2.26 3.963-3.99 1.094-3.29.157-16.47-2.81-39.55.056-2.8.195-4.54.417-5.21l1.384-.2 6.005 2c1.236.66 2.034 7.58 2.394 20.76.667.22 1.34 3.56 2.019 10.01l.593.2c1.038.35 6.503-6.06 16.397-19.21.847-2.54 3.565-3.41 8.153-2.6 2.636 1.48 3.843 2.56 3.621 3.22-21.055 27.31-33.83 41.7-38.327 43.17-3.615 1.46-7.412 1.52-11.39.2Z" fill="#FFB240"/><path d="M51.741 1176.99c-.846.26-1.857.47-3.03.64-1.167.19-1.944.15-2.332-.14-.277-.46-.677-1.55-1.202-3.27-.905-2.97-1.762-6-2.573-9.1-1.935-7.14-2.882-11.22-2.84-12.24-.306-.56-.623-1.38-.95-2.45l-.943-3.22-.533-1.88c-.13-.43-.31-.93-.543-1.51a48.15 48.15 0 0 1-1.081-3.14c-.342-1.12-.497-1.99-.465-2.6-.42-.66-.797-1.54-1.132-2.63l-.168-.69c-.076-.25-.16-.48-.254-.7-1.654.29-3.627.79-5.918 1.49a252.18 252.18 0 0 0-6.365 2.02c-1.18.42-2.157.74-2.929.98-.772.24-1.24.35-1.405.35-.62-1.23-1.193-2.62-1.722-4.17-.502-1.65-.742-3.06-.72-4.23 2.386-1.2 5.711-2.57 9.976-4.12l31.14-9.44c.458.79 1.01 2.24 1.656 4.36.297.97.478 1.61.544 1.92.095.48.07.98-.075 1.49-.088.24-.175.58-.26 1.02-.96.16-2.747.63-5.362 1.43-5.38 1.65-8.478 2.69-9.296 3.13l2.638 7.98 1.183 3.07 4.934 16.83c.467 1.71.908 3.64 1.322 5.8.222 1.62.588 3.27 1.098 4.94l.896 2.66c.273.9.506 1.8.697 2.69-.241 1.08-1.57 1.99-3.986 2.73Z" fill="#E440FF"/><path d="M98.063 1128.93c-.968 3.38-3.166 5.79-6.595 7.21-3.397 1.41-6.71 1.98-9.936 1.72-2.01-.09-3.874-.3-5.592-.61-.538-.1-1.087-.21-1.645-.34a39.46 39.46 0 0 1-3.944-1.15c.19-1.75.825-5.14 1.907-10.19.464-2.24.947-4.46 1.45-6.64.632-2.74 1.429-5.96 2.39-9.67.967-3.73 1.787-6.07 2.458-7.01-.016-.16.073-.66.266-1.5s.43-1.81.713-2.92l.831-3.26c.365-1.46.618-2.45.76-2.95.246-1.07.469-2.2.667-3.41.117-.86.267-1.68.448-2.47.345-1.49.806-2.86 1.384-4.09l1.37.32a103.207 103.207 0 0 1 7.211 1.58c.959.25 1.983.5 3.074.75l2.512.58c.812.19 1.668.36 2.568.52.937.11 1.824.26 2.661.45 1.421.33 2.721.78 3.9 1.34l-.909 4.12c-.059.26-.099.49-.12.7-.039.28-.088.55-.146.8-.17.74-.413 1.27-.729 1.6-.365.42-1.207.48-2.527.18l-.19-.05c-1.345-.31-2.69-.67-4.037-1.09-1.074-.33-2.14-.63-3.2-.9l-1.294-.3c-1.32-.3-2.646-.63-3.98-1a949.477 949.477 0 0 1-3.55 11.93 169.84 169.84 0 0 1-1.233 4.13c1.626.48 3.341 1.16 5.145 2.03 1.803.87 3.271 1.86 4.404 2.98 1.895 1.05 3.272 2.61 4.132 4.68.502 1.19.818 2.42.949 3.71.01.54-.05 1.43-.178 2.68a35.651 35.651 0 0 1-.55 3.61l-.061.26c-.228.99-.49 1.55-.784 1.67Zm-18.828-1.1-.418 2.5c.783.32 1.567.57 2.354.75 1.294.3 2.616.42 3.967.35 1.009-.08 1.832-.3 2.47-.63.639-.33 1.235-.72 1.79-1.15.36-.29.746-.58 1.158-.85.168-.5.346-.98.533-1.44.279-.64.525-1.35.737-2.16.684-3.32-.403-5.96-3.263-7.93a11.777 11.777 0 0 0-3.935-1.71c-.685-.16-1.385-.25-2.1-.28l-.035.15c-.222.62-.377 1.11-.465 1.49l-.061.27c-.082.36-.15.82-.202 1.4l-2.53 9.24Z" fill="#FF498B"/><path d="M57.415 1112c-4.517 1.05-9.28 1.08-14.29.1-1.618-.3-3.46-.93-5.527-1.89-4.516-2.09-7.567-5.01-9.153-8.76a7.575 7.575 0 0 0-.817-1.45c-1.186-1.44-2.365-4.29-3.537-8.57-.149-.52-.284-1.05-.407-1.59-1.246-5.4-1.068-10.43.533-15.07 1.596-4.67 5.199-8.93 10.809-12.76 2.227-1.58 4.318-2.6 6.271-3.05l1.312-.22c1.193-.28 2.233-.69 3.121-1.25.63-.28 1.263-.49 1.898-.64.634-.14 1.556-.31 2.766-.51a53.73 53.73 0 0 1 3.877-.58c1.374-.18 2.376-.24 3.006-.17.465.85.884 1.92 1.258 3.2.112.48.304 1.37.577 2.67.267 1.27.148 2.44-.358 3.49-.147.06-.334.12-.562.17-.559.13-1.407.22-2.545.27-2.68.08-5.11.37-7.292.88a21.307 21.307 0 0 0-5.019 1.88l-.135.11c-1.632.8-3.152 1.74-4.562 2.82-1.8 1.35-2.914 3.24-3.344 5.66-.201 1.33-.428 2.14-.68 2.44l.167.73c.234 1.01.442 2.26.623 3.74.148 1.22.312 2.28.49 3.17.724 2.56 1.753 4.83 3.088 6.79.484.82.921 1.62 1.311 2.38.845.42 1.586.85 2.222 1.29.662.44 1.327.83 1.996 1.19.664.32 1.49.55 2.48.67 1.595.19 4.28-.04 8.057-.7.59-.11 1.118-.19 1.587-.25 1.735-.24 3.182-.45 4.342-.64 1.489-.26 2.594-.4 3.314-.4.714-.03 1.217.12 1.507.45.285.31.55.88.793 1.7.32 1.16.706 2.36 1.156 3.62.384 1.09.71 2.15.974 3.19.041.17.08.34.115.49.105.46.13.8.075 1.03-.351.56-.905.99-1.663 1.3-.763.29-1.55.52-2.363.71-.786.18-1.488.38-2.105.6-1.75.76-3.54 1.34-5.366 1.76Z" fill="#4053FF"/><path d="M78.057 1075a122.43 122.43 0 0 0-3.358-1.04l-1.164-.33c-.726-.21-1.298-.39-1.717-.54-.021-.49 0-.85.065-1.08.065-.22.12-.37.167-.44.157-.17.304-.49.44-.97.144-.5.235-.96.275-1.38.064-.42.134-.8.21-1.16.308-1.08.668-2 1.08-2.78.44-.88.793-1.78 1.058-2.7 1.233-5.07 2.366-9.4 3.398-13.01 1.126-3.93 2.083-7.18 2.871-9.74 1.924-6.25 3.062-9.61 3.413-10.07.194-1.82.531-3.56 1.012-5.24.286-1 .616-1.96.989-2.89a45.2 45.2 0 0 0 .639-1.8c.7.2 1.391.34 2.07.43.712.07 1.735.28 3.07.63 1.583.43 4.528 1.26 8.834 2.5 6.262 1.87 10.052 3.3 11.371 4.27-.061.5-.174 1.04-.339 1.61-.136.48-.308.98-.515 1.52-.201.51-.377 1.03-.527 1.56-.652 1.7-1.937 2.41-3.854 2.1-.962-.14-1.931-.35-2.907-.63a35.296 35.296 0 0 1-3.036-1.03c-1.016-.43-2.087-.8-3.213-1.13a47.588 47.588 0 0 1-4.533-1.05l-3.531 11.34c-.276.68-.54 1.46-.79 2.33a45.894 45.894 0 0 0-.91 3.89 56.303 56.303 0 0 1-1.027 4.29c-.143.5-1.422 4.5-3.838 11.99l-1.505 5.54a46.4 46.4 0 0 1-.624 2.46c-.193.68-.417 1.32-.671 1.92-.23.61-.582.95-1.058 1-.354.01-.97-.12-1.845-.37Z" fill="#FFB240"/><path d="m43.655 1289.77 8.446 2.95c.293.11.458.11.493.01l.007-.24c.387-3.96.829-6.94 1.327-8.92.618-2.76.701-4.63.25-5.6l-1.559 1.89c-1.672 1.85-2.847 3.26-3.523 4.2l-1.765 1.77c-1.886 1.83-3.111 3.15-3.676 3.94Zm-15.847 19.59-.22-.08c-.465-.17-1.666-.72-3.601-1.64-2.107-.99-3.256-1.6-3.447-1.84-.018-.26.026-.53.133-.82.347-.96 1.647-2.74 3.9-5.36.816-.95 1.421-1.7 1.815-2.25.438-.67 1.072-1.58 1.901-2.72 2.129-2.88 3.728-4.61 4.798-5.19.211-.51.68-1.27 1.408-2.28 1.428-1.94 2.808-3.64 4.14-5.1 2.218-2.52 5.507-6 9.869-10.46 5.116-5.23 8.07-7.91 8.865-8.04 1.09-1.32 2.178-2.14 3.266-2.46.663 1.07.907 3.33.732 6.79-.069 1.33-.202 2.31-.4 2.93.276.76.38 2.38.314 4.85-.075 1.58-.03 2.83.134 3.75a125 125 0 0 0-.123 4.11l-.435 13.9c-.45 13.66-.83 20.92-1.141 21.78l-.014.03c-.576.29-1.085.4-1.528.32-.262-.04-.54-.11-.834-.22a7.028 7.028 0 0 1-.61-.26 3.94 3.94 0 0 0-.745-.36l-1.421-.43c-.41-.1-.786-.2-1.128-.33a5.936 5.936 0 0 1-1.826-1.04c-.4-1.33-.355-5 .136-11.01.237-2.71.335-4.81.292-6.29-.522-.16-1.054-.3-1.595-.42-.516-.1-1.092-.27-1.728-.5l-.404-.15a37.03 37.03 0 0 0-1.822-.7c-2.105-.77-4.742-1.48-7.912-2.13-1.741 1.66-4.374 4.9-7.897 9.72l-2.872 3.9Z" fill="#3DFF7F"/></svg>